<svg width="302" height="258" viewBox="0 0 302 258" fill="none" xmlns="http://www.w3.org/2000/svg">
<path d="M131.575 202.23C130.414 202.331 129.245 202.251 128.108 201.992C126.96 201.703 125.863 201.242 124.853 200.623C123.85 199.978 122.945 199.19 122.168 198.284C121.407 197.361 120.798 196.323 120.364 195.208C119.972 194.089 119.74 192.92 119.675 191.735C119.648 190.569 119.755 189.402 119.993 188.26C120.25 187.129 120.639 186.032 121.151 184.992C121.688 183.954 122.35 182.987 123.123 182.111C123.926 181.241 124.85 180.49 125.866 179.883C126.906 179.292 128.028 178.857 129.195 178.594C130.373 178.354 131.578 178.273 132.777 178.353C133.98 178.467 135.159 178.757 136.277 179.213C137.379 179.7 138.407 180.34 139.33 181.115C140.226 181.908 141.004 182.825 141.641 183.837C142.244 184.855 142.697 185.955 142.988 187.102C143.247 188.236 143.333 189.403 143.242 190.564H143.114C142.993 189.447 142.743 188.348 142.367 187.29C141.973 186.262 141.447 185.291 140.802 184.399C140.147 183.534 139.387 182.754 138.541 182.075C137.684 181.426 136.747 180.888 135.753 180.476C134.755 180.084 133.712 179.818 132.648 179.683C131.575 179.572 130.493 179.603 129.429 179.777C128.363 179.981 127.328 180.318 126.346 180.78C125.366 181.276 124.45 181.889 123.619 182.607C122.803 183.366 122.101 184.238 121.535 185.197C120.995 186.179 120.612 187.24 120.401 188.34C120.225 189.442 120.22 190.563 120.385 191.666C120.567 192.748 120.892 193.802 121.349 194.799C121.813 195.779 122.382 196.706 123.046 197.563C124.426 199.274 126.244 200.578 128.306 201.339C129.364 201.716 130.46 201.972 131.575 202.102V202.23Z" fill="#133D1C"/>
<path d="M61.2411 202.166C67.6492 202.166 72.8439 196.972 72.8439 190.564C72.8439 184.156 67.6492 178.961 61.2411 178.961C54.8331 178.961 49.6384 184.156 49.6384 190.564C49.6384 196.972 54.8331 202.166 61.2411 202.166Z" fill="#133D1C"/>
<path d="M215.587 206.601C220.016 206.601 223.606 203.011 223.606 198.582C223.606 194.154 220.016 190.564 215.587 190.564C211.158 190.564 207.568 194.154 207.568 198.582C207.568 203.011 211.158 206.601 215.587 206.601Z" fill="#133D1C"/>
<path d="M132.155 93.1258C128.643 96.3939 125.164 99.6807 121.721 102.986C118.279 106.298 114.928 109.687 111.609 113.103C109.933 114.796 108.31 116.54 106.74 118.336C105.158 120.119 103.709 122.015 102.402 124.009C101.081 125.984 100.019 128.119 99.2407 130.363C98.5079 132.584 98.1959 135.015 98.9112 137.131L98.881 137.053C101.168 141.01 103.682 144.83 106.411 148.495C107.075 149.427 107.784 150.327 108.482 151.234C109.172 152.147 109.89 153.038 110.62 153.92C112.033 155.721 113.54 157.445 114.999 159.21C116.51 160.931 117.995 162.675 119.554 164.357C120.329 165.201 121.089 166.06 121.877 166.893L124.253 169.384L125.436 170.637L126.651 171.859L129.083 174.305C130.72 175.921 132.398 177.497 134.029 179.136C134.039 179.144 134.046 179.155 134.051 179.166C134.056 179.178 134.059 179.19 134.06 179.203C134.06 179.216 134.058 179.228 134.053 179.24C134.049 179.252 134.042 179.263 134.034 179.272C134.017 179.288 133.995 179.299 133.972 179.301C133.948 179.303 133.925 179.297 133.906 179.283C132.98 178.592 132.067 177.885 131.155 177.175C130.25 176.458 129.306 175.781 128.438 175.018L125.8 172.763L124.48 171.634L123.205 170.456L120.665 168.085C119.833 167.28 119.031 166.444 118.211 165.624C116.549 164.006 115.037 162.245 113.459 160.546C111.954 158.781 110.442 157.021 109.033 155.176C108.319 154.261 107.616 153.338 106.942 152.393C106.26 151.454 105.568 150.523 104.92 149.559C103.592 147.657 102.317 145.715 101.141 143.71C99.9311 141.717 98.8349 139.657 97.8576 137.54L97.8455 137.513C97.838 137.497 97.8318 137.479 97.8272 137.461C97.5251 136.228 97.4629 134.948 97.644 133.691C97.8313 132.475 98.1491 131.283 98.5918 130.136C99.4808 127.884 100.584 125.724 101.887 123.683C104.446 119.594 107.308 115.702 110.449 112.04C113.639 108.431 117.064 105.037 120.703 101.882C124.302 98.6913 128.086 95.7171 132.036 92.9747C132.057 92.9603 132.083 92.9547 132.108 92.9594C132.133 92.964 132.156 92.9784 132.17 92.9995C132.183 93.0189 132.189 93.0423 132.186 93.0654C132.183 93.0885 132.172 93.1099 132.155 93.1258Z" fill="#133D1C"/>
<path d="M186.014 88.0509C187.114 89.5823 187.784 91.3801 187.954 93.2578C188.064 95.1847 187.619 97.1027 186.672 98.7843C184.817 102.16 181.851 104.649 178.799 106.74C175.715 108.801 172.433 110.548 169.001 111.954C165.588 113.352 162.089 114.531 158.527 115.486L158.865 115.129C157.728 119.792 157.315 124.602 157.641 129.391C157.768 131.789 158.017 134.18 158.385 136.553C158.553 137.741 158.771 138.923 158.975 140.104C159.217 141.281 159.425 142.461 159.699 143.63C160.206 145.973 160.753 148.307 161.388 150.613L161.877 152.334C162.064 152.923 162.183 153.514 162.331 154.099L163.182 157.618L164.884 164.658L166.514 171.717L166.515 171.725C166.568 171.952 166.54 172.191 166.437 172.4C166.334 172.609 166.162 172.777 165.95 172.874L161.43 174.948C160.671 175.284 159.935 175.663 159.186 176.016L156.945 177.089L157.36 175.897L159.433 180.582L159.455 180.632C159.494 180.722 159.515 180.819 159.515 180.918C159.516 181.016 159.496 181.113 159.457 181.203C159.263 181.622 158.973 181.989 158.61 182.274C158.326 182.506 158.026 182.718 157.713 182.908C157.125 183.266 156.515 183.587 155.888 183.87C154.656 184.427 153.41 184.903 152.157 185.35C150.903 185.794 149.643 186.206 148.377 186.596C147.105 186.97 145.832 187.326 144.547 187.657L144.526 187.662C144.491 187.671 144.455 187.671 144.421 187.664C144.386 187.656 144.353 187.641 144.326 187.619C143.552 186.995 142.788 186.358 142.025 185.723C142.006 185.706 141.993 185.683 141.991 185.657C141.989 185.632 141.997 185.607 142.013 185.587C142.029 185.569 142.05 185.557 142.074 185.554C142.097 185.551 142.121 185.556 142.141 185.569C142.972 186.113 143.803 186.656 144.623 187.211L144.401 187.174C145.639 186.731 146.871 186.26 148.093 185.775C149.321 185.304 150.539 184.813 151.742 184.294C152.942 183.773 154.13 183.224 155.264 182.615C155.827 182.306 156.384 181.992 156.89 181.644C157.133 181.481 157.365 181.3 157.583 181.104C157.735 180.975 157.862 180.817 157.955 180.639L157.979 181.26L155.719 176.663C155.616 176.455 155.6 176.214 155.672 175.994C155.745 175.773 155.901 175.59 156.107 175.484L156.134 175.47C157.614 174.707 159.076 173.903 160.579 173.186L165.078 171.018L164.515 172.176L162.907 165.136L161.372 158.078L160.604 154.548C160.47 153.96 160.364 153.365 160.199 152.801C160.037 152.21 159.905 151.617 159.763 151.025C159.224 148.655 158.728 146.279 158.363 143.88C157.607 139.092 157.158 134.261 157.018 129.416C156.81 124.563 157.112 119.701 157.918 114.91C157.933 114.832 157.968 114.759 158.02 114.699C158.072 114.638 158.139 114.593 158.215 114.567L158.257 114.553C161.689 113.365 165.056 111.998 168.344 110.457C169.987 109.694 171.622 108.918 173.214 108.067C174.818 107.247 176.378 106.346 177.89 105.368C180.881 103.422 183.77 101.164 185.632 98.1887C186.583 96.7223 187.118 95.0256 187.181 93.279C187.167 91.4864 186.709 89.725 185.85 88.1517C185.844 88.1406 185.84 88.1284 185.839 88.1158C185.838 88.1032 185.839 88.0905 185.842 88.0784C185.846 88.0662 185.852 88.055 185.86 88.0451C185.868 88.0353 185.878 88.0272 185.889 88.0211C185.91 88.0105 185.934 88.0076 185.957 88.0131C185.98 88.0185 186 88.0319 186.014 88.0509Z" fill="#133D1C"/>
<path d="M132.045 93.1308C130.551 92.3032 129.102 91.3987 127.703 90.4209C126.309 89.4207 124.982 88.3298 123.731 87.1552C121.278 84.7737 118.959 82.2582 116.784 79.6203C114.582 77.0127 112.46 74.337 110.462 71.5601C108.375 68.8017 106.554 65.8521 105.022 62.7506L106.215 63.1486C102.235 65.4639 98.3047 67.8622 94.4251 70.3434C90.5496 72.8293 86.6932 75.353 82.9351 78.0237C79.1771 80.6922 75.4625 83.4329 71.8822 86.3439C68.2929 89.2435 64.8182 92.2855 61.4475 95.437C61.4012 95.4803 61.3423 95.508 61.2793 95.5161C61.2163 95.5241 61.1523 95.5121 61.0965 95.4818C61.0407 95.4515 60.9959 95.4044 60.9683 95.3471C60.9408 95.2899 60.932 95.2254 60.9431 95.1629L60.9448 95.1546C61.346 93.0929 60.971 90.9557 59.8916 89.1539C59.3463 88.2775 58.6212 87.5267 57.7643 86.9511C56.9109 86.376 55.9564 85.9678 54.951 85.748C54.8833 85.733 54.82 85.7023 54.7664 85.6583C54.7128 85.6143 54.6703 85.5583 54.6423 85.4948C54.6144 85.4313 54.6018 85.3622 54.6056 85.2929C54.6095 85.2236 54.6296 85.1563 54.6643 85.0962L54.6719 85.0836C58.7057 78.1189 63.1839 71.4212 68.0786 65.0321C72.9965 58.6477 78.3128 52.5803 83.9958 46.8664C86.8305 44.0018 89.7869 41.259 92.8092 38.5932C94.3185 37.258 95.8659 35.9663 97.4258 34.6912C98.9753 33.4113 100.6 32.1493 102.255 30.9955C105.575 28.6724 108.951 26.5433 112.343 24.3671C114.05 23.2962 115.771 22.2467 117.545 21.2624C118.432 20.7708 119.332 20.2964 120.27 19.8639C120.747 19.6423 121.237 19.4473 121.736 19.2796C122.003 19.1903 122.276 19.1178 122.552 19.0626C122.912 18.9811 123.287 18.9892 123.643 19.0865C123.744 19.1152 123.836 19.1717 123.907 19.2495L123.918 19.2616L126.492 22.0985L126.277 21.9536L135.328 25.7068L144.352 29.5315C144.375 29.5413 144.393 29.5597 144.403 29.5827C144.413 29.6057 144.413 29.6317 144.404 29.655C144.395 29.6782 144.377 29.6971 144.354 29.7075C144.332 29.7179 144.306 29.719 144.282 29.7107L135.051 26.419L125.847 23.0559C125.773 23.029 125.706 22.986 125.651 22.9301L125.632 22.9108L122.947 20.1786L123.221 20.3536C123.087 20.3545 122.954 20.3704 122.823 20.401C122.61 20.4538 122.401 20.5194 122.195 20.5973C121.763 20.7572 121.326 20.9652 120.889 21.1752C120.016 21.6037 119.153 22.0852 118.299 22.5862C116.59 23.5899 114.913 24.669 113.25 25.7703C109.941 27.9964 106.604 30.2565 103.385 32.5749C101.763 33.7338 100.233 34.9501 98.7052 36.2402C97.1702 37.5136 95.6702 38.8282 94.1681 40.1395C91.1625 42.7618 88.2666 45.5059 85.4089 48.2885C79.7151 53.8845 74.3577 59.813 69.3651 66.0428C64.3464 72.2669 59.6951 78.7786 55.4349 85.5445L55.1558 84.8803C56.2573 85.1574 57.2963 85.6407 58.2178 86.3048C59.1355 86.9702 59.9085 87.815 60.49 88.7881C61.0668 89.7559 61.4463 90.8284 61.6067 91.9436C61.7666 93.0504 61.7435 94.176 61.5383 95.2754L61.0355 94.9931C64.4407 91.8616 67.9096 88.8013 71.442 85.8122C74.9808 82.832 78.5508 79.8816 82.2342 77.0715C85.9205 74.2678 89.6558 71.5171 93.5242 68.9608C97.3807 66.3874 101.343 63.9716 105.377 61.6876C105.572 61.577 105.804 61.5485 106.02 61.6085C106.236 61.6684 106.42 61.8118 106.531 62.0071C106.545 62.0326 106.558 62.0588 106.57 62.0857C107.259 63.593 108.052 65.0508 108.942 66.4486C109.825 67.8764 110.749 69.285 111.715 70.6742C113.646 73.4461 115.655 76.1688 117.741 78.8422C119.831 81.5077 121.987 84.1241 124.314 86.5646C125.475 87.7873 126.715 88.9322 128.027 89.9917C129.346 91.0436 130.74 92.0123 132.146 92.9677C132.167 92.9816 132.181 93.003 132.186 93.0274C132.192 93.0517 132.187 93.0771 132.174 93.0982C132.161 93.1193 132.14 93.1345 132.116 93.1406C132.092 93.1467 132.066 93.1432 132.045 93.1309L132.045 93.1308Z" fill="#133D1C"/>
<path d="M126.371 35.8091C121.885 32.8697 106.295 29.4316 106.295 29.4316L99.917 33.9526C99.917 33.9526 119.908 37.3561 126.406 44.3177L126.371 35.8091" fill="#133D1C"/>
<path d="M110.128 38.4391C111.031 38.7683 111.825 39.3411 112.423 40.0939C113.042 40.8368 113.516 41.6889 113.822 42.6063C114.112 43.5189 114.249 44.4731 114.228 45.4305C114.223 46.3747 114.039 47.3095 113.686 48.1853C113.572 47.7182 113.527 47.2673 113.457 46.8219C113.366 46.3784 113.323 45.9385 113.23 45.5098C113.071 44.664 112.862 43.8283 112.604 43.0069C112.064 41.3462 111.224 39.7982 110.128 38.4391Z" fill="#133D1C"/>
<path d="M114.459 27.7646C115.31 27.1053 116.211 26.5138 117.154 25.9957C118.082 25.4719 119.03 24.9904 119.996 24.5509C120.962 24.1095 121.95 23.7177 122.955 23.364C123.966 22.9957 125.005 22.7083 126.062 22.5046C125.212 23.1653 124.311 23.7574 123.368 24.2753C122.439 24.7983 121.493 25.2831 120.525 25.7183C119.559 26.1576 118.572 26.5526 117.566 26.9034C116.554 27.2714 115.516 27.5594 114.459 27.7646Z" fill="#133D1C"/>
<path d="M105.796 62.418C106.495 61.4314 107.262 60.4949 108.092 59.6156C108.906 58.7346 109.752 57.8875 110.629 57.0744C111.505 56.2597 112.418 55.485 113.359 54.7411C114.3 53.9819 115.294 53.2904 116.333 52.6718C115.636 53.6595 114.869 54.5964 114.038 55.4756C113.223 56.356 112.38 57.2057 111.5 58.0154C110.622 58.8283 109.712 59.6056 108.768 60.3473C107.827 61.1062 106.834 61.7981 105.796 62.418Z" fill="#133D1C"/>
<path d="M156.232 29.4312C149.731 27.3862 126.217 31.3223 124.358 38.4381C122.505 45.5539 140.91 69.9977 140.91 69.9977L147.257 77.2674C152.392 85.3576 175.002 75.9724 182.541 72.5428C183.311 72.2029 183.961 71.6401 184.408 70.927C184.855 70.214 185.077 69.3834 185.048 68.5425C184.157 50.8299 162.392 31.3736 156.232 29.4312ZM169.072 45.2462C168.13 45.6437 167.181 46.0219 166.226 46.3937C165.277 46.7655 164.335 47.1502 163.38 47.5092C161.713 48.1438 160.033 48.7529 158.36 49.3619C159.129 50.3171 159.888 51.2787 160.636 52.2467C161.527 53.4134 162.412 54.593 163.277 55.7853C164.142 56.9841 164.982 58.1957 165.79 59.4394C166.2 60.0613 166.585 60.6959 166.95 61.3562C167.13 61.6895 167.322 62.0037 167.476 62.3691C167.559 62.5486 167.649 62.7152 167.72 62.9076L167.758 63.0422C168.662 62.9525 169.579 62.8371 170.489 62.6832C171.54 62.4973 172.592 62.2986 173.624 62.0229C174.658 61.7631 175.666 61.4113 176.637 60.9716C177.628 60.5583 178.488 59.8823 179.124 59.0163C178.606 59.997 177.807 60.8007 176.829 61.3242C175.884 61.8925 174.88 62.3568 173.835 62.7089C172.799 63.0734 171.741 63.3752 170.669 63.6128C169.598 63.85 168.527 64.0615 167.418 64.1961L167.002 64.241L166.822 63.741L166.675 63.3243C166.611 63.1833 166.521 63.023 166.444 62.8692C166.303 62.5614 166.104 62.2537 165.925 61.946C165.553 61.337 165.155 60.728 164.751 60.119C163.95 58.9073 163.098 57.7214 162.245 56.5354C161.399 55.343 160.527 54.1571 159.655 52.9839C158.79 51.798 157.924 50.6184 157.04 49.4453L156.572 48.8234L157.296 48.599C159.245 48.0092 161.2 47.4131 163.162 46.8553C164.136 46.5669 165.123 46.3104 166.111 46.0348C167.091 45.7591 168.079 45.4898 169.072 45.2462V45.2462ZM160.835 42.0922C161.719 41.9763 162.611 41.9441 163.501 41.996C162.722 42.4279 161.905 42.7863 161.059 43.0666C160.232 43.349 159.391 43.5886 158.54 43.7846C157.685 43.9781 156.82 44.1237 155.95 44.2205C155.068 44.3364 154.177 44.3686 153.289 44.3167C154.069 43.8868 154.886 43.5305 155.732 43.2525C156.558 42.9672 157.399 42.7275 158.251 42.5345C159.103 42.3389 159.966 42.1912 160.835 42.0922L160.835 42.0922ZM146.039 39.169C147.154 38.6561 148.285 38.186 149.43 37.7586C150.578 37.3355 151.742 36.9552 152.924 36.6175C154.108 36.2624 155.317 35.9925 156.539 35.8098C155.491 36.4647 154.398 37.0473 153.27 37.5535C152.155 38.0663 151.026 38.5407 149.879 38.9638C148.731 39.3869 147.565 39.7651 146.385 40.1049C145.2 40.4593 143.992 40.7293 142.769 40.9127C143.818 40.2577 144.911 39.6751 146.039 39.1689L146.039 39.169ZM154.623 75.9148C153.526 75.2701 152.492 74.5254 151.533 73.6903C149.662 71.9765 147.946 70.1016 146.404 68.0874C143.353 64.0638 140.627 59.8045 138.25 55.3494C137.058 53.1249 135.923 50.8684 134.871 48.5798C134.352 47.4259 133.846 46.272 133.378 45.0924C133.141 44.5026 132.91 43.9128 132.705 43.3102C132.596 43.0089 132.506 42.7012 132.403 42.3935C132.308 42.0716 132.233 41.744 132.179 41.4127C131.949 40.0581 132.213 38.6659 132.923 37.4894C133.619 36.3762 134.546 35.4252 135.641 34.7008C136.698 33.9902 137.829 33.3949 139.013 32.925C140.177 32.4371 141.383 32.0552 142.616 31.7839C140.242 32.5518 138.011 33.7063 136.013 35.2008C135.047 35.9239 134.243 36.841 133.654 37.8932C133.099 38.9153 132.924 40.1009 133.16 41.2396C133.223 41.5232 133.3 41.8035 133.391 42.0794C133.5 42.3679 133.589 42.6563 133.711 42.9448C133.936 43.5154 134.166 44.0923 134.41 44.6629C134.897 45.8104 135.429 46.9387 135.968 48.0669C137.045 50.3171 138.173 52.548 139.372 54.734C140.558 56.9393 141.801 59.1061 143.103 61.2344C144.391 63.3756 145.77 65.4526 147.206 67.4848C148.644 69.5168 150.234 71.437 151.962 73.2287C152.831 74.1144 153.782 74.9151 154.802 75.6199C155.818 76.3462 156.999 76.8068 158.238 76.9597C156.961 76.9408 155.713 76.5799 154.623 75.9147L154.623 75.9148ZM178.861 69.4336C177.098 70.4893 175.11 71.1112 173.06 71.2478C171.018 71.4161 168.962 71.2318 166.982 70.7029C165.982 70.4412 165.012 70.0715 164.091 69.6003C163.618 69.3574 163.167 69.072 162.745 68.7477C162.281 68.4116 161.883 67.9921 161.572 67.5104C161.485 67.3782 161.414 67.2362 161.36 67.0873C161.286 66.9402 161.237 66.7822 161.213 66.6194L161.142 66.2091C161.134 66.1073 161.117 66.0065 161.091 65.9078C160.978 65.4636 160.825 65.0303 160.636 64.6128C160.243 63.7274 159.804 62.863 159.322 62.0229C158.373 60.3112 157.302 58.6509 156.245 56.9841C154.091 53.6763 151.879 50.3876 149.654 47.1053C152.27 50.0863 154.757 53.189 157.072 56.4264C158.238 58.0419 159.337 59.7065 160.367 61.4203C160.894 62.2875 161.368 63.1867 161.783 64.1128C162.005 64.5967 162.185 65.0985 162.322 65.6129C162.358 65.7544 162.385 65.8978 162.405 66.0424L162.437 66.254L162.463 66.3629C162.472 66.4465 162.498 66.5273 162.54 66.6001C162.57 66.6854 162.613 66.7654 162.668 66.8373C163.191 67.5447 163.88 68.1127 164.675 68.4913C165.515 68.9278 166.398 69.2779 167.309 69.5362C169.157 70.0727 171.079 70.315 173.002 70.2542C174.929 70.2131 176.823 69.7445 178.547 68.8823C179.413 68.4487 180.206 67.8844 180.9 67.2091C181.591 66.5077 182.189 65.7215 182.682 64.8693C181.922 66.7558 180.585 68.3535 178.861 69.4336L178.861 69.4336Z" fill="#133D1C"/>
<path d="M108.691 59.7404C108.691 59.7404 125.288 66.9045 140.913 69.9985L146.031 75.8658C146.031 75.8658 125.223 72.5254 105.796 62.4181L108.691 59.7404Z" fill="#133D1C"/>
<path d="M131.677 32.6205C131.514 31.4232 131.753 30.2056 132.357 29.1589C132.683 28.5876 133.129 28.0931 133.663 27.7087C134.197 27.3243 134.807 27.059 135.453 26.9308C136.665 26.7058 137.918 26.8671 139.034 27.392C140.15 27.9169 141.073 28.779 141.674 29.8565C140.718 29.3536 139.705 28.9667 138.657 28.7042C137.717 28.4714 136.739 28.4416 135.786 28.6165C134.885 28.8048 134.066 29.2721 133.445 29.9522C132.735 30.7554 132.14 31.6534 131.677 32.6205Z" fill="#133D1C"/>
<path d="M94.3044 15.5492L95.0328 18.1666C95.1607 18.5983 95.2746 19.0324 95.4132 19.4542C95.531 19.8518 95.6841 20.2381 95.8707 20.6084C95.9166 20.6868 95.9363 20.7778 95.927 20.8682C95.9177 20.9585 95.8798 21.0436 95.8189 21.111L95.7992 21.1326C95.3726 21.6034 94.9545 22.0982 94.5459 22.584C94.1465 23.056 93.7815 23.556 93.4539 24.0804C93.3874 24.1894 93.3306 24.304 93.2839 24.4228C93.2738 24.4519 93.2658 24.4816 93.26 24.5118C93.2647 24.5064 93.2708 24.4383 93.185 24.3171C93.1575 24.2837 93.1229 24.2569 93.0836 24.2389L93.1859 24.2793L93.3899 24.3608C93.526 24.4014 93.6627 24.4556 93.7969 24.4816C94.0459 24.5498 94.3042 24.5777 94.562 24.5641C94.6695 24.5573 94.7754 24.5345 94.8762 24.4964C94.9187 24.4806 94.9595 24.4607 94.998 24.4369C95.0262 24.427 95.0808 24.3673 95.0469 24.4103L96.0594 24.7518C96.0788 25.5277 96.1508 26.3013 96.2747 27.0674C96.3979 27.8389 96.5844 28.599 96.8323 29.34C97.0762 30.081 97.4171 30.7865 97.8463 31.438C98.2917 32.0998 98.8627 32.6676 99.5269 33.1092C98.7377 32.8316 98.0284 32.3649 97.4612 31.7498C96.8882 31.1282 96.4185 30.4187 96.0698 29.6485C95.7195 28.8846 95.4513 28.0856 95.2694 27.2652C95.0765 26.4431 94.9625 25.6045 94.9288 24.7607L95.9412 25.1022C95.8497 25.2142 95.7407 25.3108 95.6184 25.3882C95.5205 25.4527 95.4165 25.5076 95.3079 25.552C95.1066 25.6349 94.8941 25.6877 94.6773 25.7086C94.2859 25.747 93.8908 25.7121 93.5122 25.6056C93.3281 25.5634 93.1617 25.4959 92.9885 25.4382L92.7416 25.3345L92.6184 25.2823C92.5053 25.2307 92.4044 25.1558 92.3222 25.0626C92.2473 24.9727 92.1916 24.8685 92.1584 24.7563C92.1252 24.6441 92.1152 24.5263 92.1292 24.4101C92.1448 24.2792 92.1767 24.1507 92.2242 24.0277C92.2978 23.8444 92.3878 23.6681 92.4933 23.5011C92.8715 22.9326 93.3005 22.3996 93.7752 21.9088C94.2244 21.418 94.697 20.9646 95.1891 20.5155L95.1176 21.0395C94.9236 20.5888 94.7881 20.1151 94.7143 19.6299C94.6325 19.1754 94.56 18.7252 94.5078 18.2716C94.4021 17.366 94.3246 16.4604 94.3044 15.5492Z" fill="#133D1C"/>
<path d="M114.069 0.0125311C104.19 -0.179781 102.081 1.73699 94.0294 13.0582C94.0294 13.0582 84.9711 17.1803 85.4263 18.9047C85.8879 20.6292 94.3692 15.9815 94.3692 15.9815L124.23 16.1738C124.23 16.1738 123.954 0.204876 114.069 0.0125311ZM114.069 13.3403C115.376 12.8993 116.725 12.5943 118.095 12.4299C119.46 12.2352 120.842 12.1879 122.217 12.2889C119.591 13.1488 116.827 13.5055 114.069 13.3403V13.3403Z" fill="#133D1C"/>
<path d="M99.5271 16.0139C100.058 16.7669 100.654 17.4722 101.307 18.1217C101.867 18.736 102.588 19.1816 103.388 19.4084C103.739 19.4608 104.099 19.4225 104.431 19.2971C104.764 19.1717 105.059 18.9634 105.289 18.6919C106.061 17.9076 107.07 17.4 108.16 17.2479C108.479 17.2147 108.8 17.2339 109.113 17.3049C109.46 17.3877 109.782 17.5542 110.051 17.7899C110.509 18.2288 110.805 18.8093 110.893 19.4376C111.028 20.4452 110.971 21.4694 110.724 22.4558C110.676 22.6993 110.613 22.9397 110.536 23.1759L110.43 23.5339L110.273 23.8892C110.07 24.3986 109.731 24.8423 109.293 25.1718C109.055 25.3278 108.78 25.4185 108.496 25.4347C108.213 25.4509 107.929 25.3921 107.675 25.2641C107.235 25.0473 106.855 24.7264 106.567 24.3292C106.942 24.5839 107.364 24.7625 107.808 24.8547C107.987 24.9019 108.176 24.9004 108.355 24.8504C108.533 24.8005 108.695 24.7039 108.824 24.5705C109.076 24.2745 109.246 23.9179 109.318 23.5358L109.397 23.235L109.446 22.9133C109.487 22.6995 109.514 22.4835 109.527 22.2664C109.633 21.424 109.607 20.5704 109.453 19.7356C109.403 19.4367 109.261 19.161 109.045 18.9481C108.942 18.8736 108.824 18.8213 108.699 18.7944C108.575 18.7676 108.446 18.7667 108.321 18.792C107.556 18.9113 106.844 19.2545 106.274 19.7783C105.849 20.1501 105.352 20.4307 104.814 20.6029C104.244 20.7781 103.633 20.7676 103.07 20.5729C102.095 20.1902 101.271 19.4999 100.724 18.6068C100.192 17.8102 99.7885 16.9354 99.5271 16.0139Z" fill="#133D1C"/>
<path d="M104.135 63.6405C104.325 64.4414 104.466 65.2534 104.555 66.0717C104.649 66.8821 104.704 67.6926 104.742 68.503L104.412 67.9633C105.634 68.5281 106.818 69.1734 107.954 69.895C108.529 70.2544 109.085 70.6426 109.62 71.0582C109.892 71.2626 110.151 71.4886 110.407 71.7184C110.681 71.9378 110.905 72.2128 111.064 72.5253C110.79 72.3355 110.491 72.1854 110.175 72.0793L109.248 71.6914C108.628 71.4353 108.019 71.1617 107.415 70.8785C106.202 70.3204 105.018 69.6999 103.858 69.0428L103.812 69.0168C103.722 68.9657 103.648 68.8906 103.598 68.7999C103.548 68.7092 103.524 68.6065 103.528 68.503C103.566 67.6925 103.621 66.8821 103.715 66.0717C103.805 65.2534 103.945 64.4414 104.135 63.6405Z" fill="#133D1C"/>
<path d="M94.6234 78.7679C94.5473 77.917 94.4058 76.9099 94.3356 75.8658C94.3328 75.824 94.3395 75.7822 94.3552 75.7434C94.3709 75.7046 94.3952 75.6698 94.4263 75.6418L94.46 75.6119C95.9557 74.2768 97.4869 72.9872 99.0534 71.7433C99.8314 71.1144 100.618 70.4973 101.423 69.9031C102.225 69.3049 103.06 68.7491 103.882 68.1778L103.919 68.1523C103.981 68.1094 104.054 68.086 104.13 68.085C104.205 68.084 104.279 68.1056 104.342 68.1469C105.459 68.8813 106.565 69.6368 107.705 70.3334C108.847 71.025 110.007 71.687 111.184 72.3193C111.236 72.3471 111.275 72.3937 111.293 72.4495C111.312 72.5052 111.308 72.566 111.283 72.6192L111.276 72.6337C110.812 73.621 110.266 74.5677 109.644 75.4638C109.318 75.9282 108.946 76.3582 108.533 76.7473C108.052 77.2256 107.401 77.4948 106.722 77.4964L107.3 77.1015C107.138 77.7682 106.931 78.4231 106.68 79.0617C106.432 79.7178 106.124 80.3495 105.759 80.9487C105.563 81.2719 105.331 81.572 105.067 81.8433C104.76 82.171 104.373 82.4129 103.943 82.5452C103.698 82.6097 103.442 82.6246 103.191 82.5892C102.939 82.5538 102.698 82.4688 102.479 82.339C102.126 82.1198 101.812 81.8421 101.551 81.518C101.46 81.4133 101.404 81.2824 101.393 81.1442C101.381 81.006 101.413 80.8677 101.485 80.7491L101.512 80.706C101.784 80.2689 102.007 79.8021 102.174 79.3147C102.336 78.8702 102.391 78.3937 102.335 77.9239C102.304 77.7154 102.227 77.5166 102.109 77.342C101.991 77.1675 101.835 77.0218 101.653 76.9158C101.452 76.7805 101.237 76.6681 101.011 76.5806C100.767 76.4999 100.507 76.4408 100.253 76.3662L100.556 76.3182C99.5265 76.7875 98.48 77.2032 97.4789 77.6145C96.475 78.0197 95.5181 78.3882 94.6234 78.7679ZM94.6907 78.6588C95.6868 78.0894 96.6207 77.5086 97.5074 76.9646C98.3972 76.4267 99.2416 75.8932 100.102 75.4133C100.193 75.3625 100.299 75.3452 100.401 75.3644L100.406 75.3654C100.717 75.4236 101.029 75.4682 101.342 75.5445C101.668 75.6354 101.981 75.7683 102.273 75.94C102.589 76.1226 102.869 76.3614 103.1 76.6447C103.201 76.8036 103.299 76.9671 103.393 77.1326C103.464 77.3047 103.516 77.4851 103.573 77.664C103.704 78.344 103.661 79.0461 103.447 79.7048C103.268 80.3263 103.001 80.9189 102.654 81.4648L102.615 80.6531C102.769 80.8458 102.951 81.014 103.156 81.1517C103.221 81.1951 103.294 81.2246 103.371 81.2384C103.448 81.2522 103.528 81.25 103.604 81.2319C104.065 81.0335 104.448 80.6882 104.694 80.2496C105.038 79.7302 105.334 79.1803 105.577 78.6067C105.827 78.0246 106.063 77.4122 106.259 76.8188L106.28 76.7564C106.317 76.6432 106.394 76.5473 106.497 76.4862C106.599 76.4251 106.72 76.403 106.837 76.4238C107.24 76.4215 107.628 76.2705 107.926 75.9997C108.325 75.6932 108.693 75.349 109.026 74.9719C109.713 74.179 110.324 73.3236 110.852 72.4169L110.945 72.7311C109.812 72.0225 108.662 71.3437 107.495 70.6948C106.325 70.0506 105.12 69.4654 103.928 68.8591L104.388 68.8282C103.631 69.484 102.886 70.1553 102.108 70.7842C101.333 71.4172 100.54 72.0272 99.7387 72.6254C98.1431 73.832 96.515 74.9967 94.8542 76.1195L94.9784 75.8658C94.9082 76.7201 94.7667 77.6113 94.6907 78.6588Z" fill="#133D1C"/>
<path d="M55.0581 85.378C52.9578 85.8033 50.9164 86.4801 48.978 87.3937C47.1187 88.3218 45.5222 89.7493 45.2306 91.728C45.1165 92.7594 45.2493 93.8031 45.6182 94.773L45.8854 95.5323C45.9903 95.7776 46.1166 96.0129 46.2358 96.2519C46.4715 96.7282 46.7615 97.1757 47.1002 97.5853L47.6481 98.1497L48.2804 98.5971C48.7249 98.8346 49.2172 98.9687 49.7207 98.9893C50.7135 98.9871 51.6711 98.6217 52.4131 97.9621L52.5012 98.7903C51.6772 98.3873 50.9073 97.8819 50.2098 97.2861C49.4334 96.6649 48.8481 95.8372 48.5212 94.8981C48.4404 94.6316 48.3997 94.3544 48.4006 94.0759C48.4121 93.7915 48.4541 93.5091 48.5258 93.2337C48.6315 92.9798 48.752 92.7323 48.8866 92.4924L49.3666 91.9011C50.0913 91.1738 51.0374 90.7083 52.0559 90.5779C52.5354 90.5027 53.0225 90.488 53.5057 90.534L53.8615 90.5738C53.9873 90.5959 54.1228 90.6318 54.2519 90.6626C54.5075 90.7302 54.7549 90.8261 54.9893 90.9485C55.7709 91.459 56.46 92.0985 57.0273 92.8399C57.5358 93.4978 58.1486 94.0679 58.8414 94.5276C59.5641 94.9571 60.3936 95.1733 61.2341 95.1514L61.2488 95.2788C60.3557 95.4907 59.4186 95.4174 58.5694 95.0692C57.7478 94.6701 56.9976 94.1384 56.3488 93.4956C55.7937 92.9072 55.1563 92.4025 54.4565 91.997C54.2998 91.9303 54.1364 91.8808 53.969 91.8494L53.7211 91.8079L53.4273 91.7956C53.0428 91.7808 52.658 91.8086 52.2797 91.8785C51.5662 92.0044 50.9043 92.3338 50.3736 92.827C50.1213 93.0325 49.9313 93.3043 49.825 93.6119C49.7187 93.9195 49.7003 94.2507 49.7719 94.5682C50.005 95.284 50.43 95.9222 51.0006 96.4133C51.6057 96.972 52.2633 97.471 52.9643 97.9034L53.631 98.3202L53.0524 98.7317C52.5598 99.0797 52.0097 99.3379 51.4274 99.4946C50.8552 99.6638 50.2533 99.7078 49.6625 99.6236C48.5099 99.4266 47.48 98.7869 46.7925 97.841C46.6138 97.6256 46.4727 97.3837 46.3109 97.1569C46.1451 96.9339 46.0004 96.696 45.8786 96.4463L45.4804 95.7158L45.1456 94.958C44.6101 93.9383 44.3263 92.8053 44.3181 91.6536C44.346 90.4334 44.8292 89.2678 45.6727 88.3857C46.0722 87.954 46.5264 87.5764 47.0237 87.2625C47.5008 86.945 48.0074 86.6744 48.5365 86.4543C50.5984 85.5995 52.8174 85.1892 55.0487 85.2502L55.0581 85.378Z" fill="#133D1C"/>
<path d="M132.095 93.0495C136.996 93.1071 141.883 93.1466 146.766 93.0979C149.207 93.086 151.646 93.045 154.083 92.9748C156.519 92.9173 158.954 92.8278 161.383 92.6818C163.812 92.5574 166.238 92.3939 168.65 92.1392C171.062 91.8919 173.473 91.6258 175.846 91.1921C178.211 90.7974 180.544 90.2305 182.827 89.496C185.052 88.7189 187.256 87.7212 188.807 86.1017L188.642 86.5665C188.616 85.2324 188.503 83.9014 188.305 82.582C188.107 81.2558 187.801 79.948 187.39 78.6717C186.985 77.3961 186.391 76.1888 185.626 75.0904C184.851 73.976 183.785 73.0958 182.544 72.5459C183.887 72.9462 185.085 73.7269 185.994 74.7937C186.912 75.8604 187.65 77.0689 188.179 78.3721C188.72 79.6633 189.138 81.0024 189.428 82.3718C189.738 83.7423 189.939 85.1351 190.029 86.5373L190.044 86.7955L189.863 87.0023C188.081 88.8805 185.86 90.2852 183.399 91.0896C181.052 91.9394 178.636 92.5867 176.179 93.0244C171.318 93.8808 166.4 94.3819 161.466 94.5235C156.551 94.6919 151.638 94.6311 146.739 94.3911C141.841 94.1314 136.951 93.7354 132.095 93.0495Z" fill="#133D1C"/>
<path d="M158.395 115.017C155.94 117.725 153.339 120.298 150.606 122.725C149.257 123.958 147.854 125.129 146.456 126.306C145.043 127.466 143.6 128.59 142.148 129.704C140.673 130.788 139.186 131.858 137.664 132.881C136.124 133.878 134.578 134.871 132.964 135.755C131.358 136.66 129.691 137.455 127.977 138.135C126.271 138.848 124.454 139.261 122.607 139.357C124.362 138.919 126.05 138.25 127.629 137.366C129.223 136.53 130.758 135.583 132.273 134.606C135.288 132.623 138.226 130.511 141.117 128.33C144.022 126.166 146.877 123.928 149.748 121.701C152.613 119.465 155.473 117.218 158.395 115.017Z" fill="#133D1C"/>
<path d="M151.691 95.6276C152.764 96.5231 153.584 97.4765 154.463 98.3341C154.878 98.7655 155.327 99.1638 155.804 99.5254C156.3 99.9106 156.864 100.198 157.467 100.372C157.135 100.528 156.775 100.613 156.409 100.622C156.042 100.63 155.678 100.562 155.34 100.42C154.667 100.166 154.059 99.7638 153.56 99.244C153.071 98.7554 152.657 98.1959 152.335 97.5841C152.002 96.9769 151.784 96.3137 151.691 95.6276Z" fill="#133D1C"/>
<path d="M146.032 95.6277C146.032 95.6277 107.917 129.869 107.939 136.882C107.962 143.895 149.654 185.684 149.654 185.684" stroke="#133D1C" stroke-width="1.28213" stroke-linecap="round" stroke-linejoin="round" stroke-dasharray="1.92 1.92"/>
<path d="M126.406 138.342C129.644 140.81 132.664 143.553 135.43 146.54C138.239 149.486 140.849 152.611 143.363 155.806C145.848 159.026 148.209 162.338 150.413 165.751C151.533 167.445 152.559 169.201 153.614 170.934C154.62 172.699 155.607 174.474 156.538 176.279C155.283 174.676 154.109 173.027 152.908 171.397L149.31 166.515C148.082 164.909 146.927 163.255 145.68 161.667C144.48 160.045 143.248 158.449 142.007 156.86C139.54 153.671 137.015 150.528 134.433 147.43C131.831 144.348 129.206 141.283 126.406 138.342Z" fill="#133D1C"/>
<path d="M162.623 199.493C162.623 199.493 160.976 197.114 153.962 203.095C146.949 209.077 129.826 211.756 126.403 211.551C122.986 211.346 123.223 204.743 126.403 204.743C128.32 204.743 134.692 200.935 139.064 197.319L141.474 199.794L140.083 196.557L141.173 195.685L144.885 196.909L141.91 194.653C142.507 193.986 143.045 193.499 143.045 193.499L146.122 193.505L143.366 192.268C143.393 192.144 143.395 192.016 143.371 191.892C143.348 191.768 143.301 191.649 143.231 191.543C141.378 188.864 144.475 187.415 144.475 187.415C156.642 193.191 159.943 182.261 159.943 182.261L168.194 190.101C167.805 190.95 167.216 191.692 166.476 192.261C165.757 192.844 165.001 193.379 164.213 193.864C162.636 194.877 160.963 195.781 159.322 196.909C160.313 196.823 161.288 196.601 162.219 196.249C163.157 195.913 164.055 195.477 164.899 194.948C165.769 194.418 166.545 193.746 167.194 192.96C167.548 192.578 167.819 192.126 167.991 191.635C168.163 191.143 168.232 190.621 168.194 190.101C169.226 190.101 171.495 191.133 171.495 191.133C174.791 194.428 162.623 199.493 162.623 199.493Z" fill="#133D1C"/>
<path d="M108.947 192.987C108.932 196.11 108.613 199.225 107.995 202.286C107.391 205.35 106.494 208.348 105.317 211.241C102.96 217.061 99.5188 222.38 95.1761 226.915C90.8025 231.492 85.5679 235.16 79.7729 237.709C73.9104 240.269 67.5947 241.63 61.198 241.712C54.8013 241.794 48.4528 240.595 42.5267 238.185C33.5032 234.538 25.7635 228.298 20.2862 220.253C14.809 212.208 11.8402 202.719 11.7551 192.987C11.6135 183.126 14.4244 173.448 19.8263 165.197C25.2283 156.946 32.9744 150.499 42.0691 146.685C45.1026 145.43 48.2551 144.483 51.4787 143.86C57.924 142.605 64.5584 142.688 70.9701 144.105C80.5185 146.223 89.1789 151.24 95.7654 158.47C100.061 163.165 103.423 168.634 105.673 174.586C106.791 177.523 107.627 180.559 108.17 183.654C108.731 186.732 108.991 189.858 108.947 192.987ZM108.434 192.987C108.386 189.901 108.037 186.826 107.393 183.807C105.409 174.789 100.667 166.612 93.8253 160.411C87.1612 154.36 78.9108 150.334 70.0406 148.804C67.1394 148.288 64.1949 148.055 61.2486 148.109C49.3725 148.248 38.0043 152.948 29.497 161.236C25.2354 165.362 21.8355 170.294 19.4942 175.744C17.1529 181.195 15.9169 187.056 15.8578 192.987C15.793 198.974 16.9099 204.914 19.1446 210.469C21.3792 216.023 24.6877 221.082 28.8805 225.355C33.1035 229.67 38.1363 233.109 43.6906 235.476C49.2448 237.842 55.2114 239.09 61.2486 239.147C73.5796 239.33 85.4894 234.664 94.4146 226.153C101.163 219.716 105.758 211.351 107.568 202.202C108.155 199.166 108.445 196.08 108.434 192.987Z" fill="#133D1C"/>
<path d="M262.745 192.988C262.789 196.117 262.529 199.243 261.968 202.321C261.425 205.416 260.589 208.452 259.47 211.389C257.221 217.341 253.859 222.81 249.563 227.504C242.977 234.735 234.316 239.752 224.768 241.87C218.356 243.286 211.722 243.37 205.277 242.115C202.053 241.492 198.901 240.545 195.867 239.289C188.339 236.128 181.709 231.156 176.566 224.814C171.423 218.473 167.927 210.959 166.389 202.94C164.85 194.922 165.317 186.647 167.748 178.853C170.178 171.058 174.498 163.985 180.321 158.262C184.905 153.76 190.331 150.206 196.289 147.804C202.248 145.402 208.622 144.198 215.047 144.263C221.424 144.369 227.719 145.729 233.571 148.266C239.366 150.815 244.6 154.483 248.974 159.06C253.317 163.595 256.758 168.914 259.115 174.734C260.292 177.626 261.189 180.625 261.792 183.689C262.411 186.75 262.73 189.864 262.745 192.988ZM262.232 192.988C262.243 189.895 261.953 186.809 261.366 183.773C259.556 174.624 254.961 166.259 248.213 159.822C239.287 151.311 227.378 146.645 215.047 146.827C205.973 146.91 197.128 149.683 189.63 154.794C182.133 159.906 176.32 167.127 172.928 175.543C170.702 181.072 169.59 186.986 169.655 192.946C169.721 198.907 170.963 204.795 173.311 210.274C175.657 215.704 179.05 220.62 183.295 224.739C191.802 233.027 203.17 237.727 215.047 237.866C217.993 237.919 220.937 237.687 223.838 237.171C232.709 235.641 240.959 231.615 247.623 225.564C254.465 219.363 259.207 211.186 261.191 202.167C261.835 199.148 262.184 196.074 262.232 192.988Z" fill="#133D1C"/>
<path d="M127.97 178.961L89.8098 138.342V125.617H101.087L105.748 118.774L91.8725 117.492L92.0788 112.542C94.554 110.273 94.3477 107.179 93.3608 106.354C92.374 105.529 93.3164 103.053 93.3608 100.395C93.4053 97.7372 89.8098 96.2464 85.2718 93.8045C80.7339 91.3626 102.083 81.0855 102.083 81.0855C104.713 76.3132 100.33 75.8657 100.33 75.8657L94.6571 78.7134C82.5903 81.6011 79.0837 89.6457 79.0837 89.6457L67.5866 90.5442L62.0959 94.586C57.9721 96.9292 57.1422 93.012 55.0532 91.6702C52.9643 90.3284 50.2726 92.0054 50.2726 92.0054C46.7109 95.0759 52.7327 98.3468 52.7327 98.3468C52.7327 98.3468 88.5579 95.6275 85.2203 104.652C85.2203 104.652 81.5074 107.591 85.0656 112.542L82.2809 138.342C82.2809 138.342 73.6601 138.076 74.2577 147.354C74.8552 156.632 69.8016 181.849 56.394 190.099C56.394 190.099 52.8874 198.35 62.1695 191.956C71.4517 185.562 80.9405 159.26 78.7745 148.896L86.1439 144.101L124.229 182.261L127.97 178.961Z" fill="#133D1C"/>
<path d="M180.199 104.762C180.199 104.762 189.026 110.892 178.3 116.461L171.081 119.778L165.511 171.948V180.188C165.511 180.188 173.968 181.888 175.825 185.684L209.653 196.912L208.209 202.166L160.838 187.972L158.704 180.92L163.758 129.137H141.472L151.691 120.934L164.892 122.03V118.774L155.616 117.525C180.199 104.762 171.017 110.359 180.199 104.762Z" fill="#133D1C"/>
<path d="M182.864 213.565C183.276 214.676 183.656 215.699 184.071 216.688C184.473 217.654 184.936 218.593 185.458 219.499C185.697 219.957 186.003 220.367 186.273 220.809C186.592 221.208 186.867 221.657 187.221 222.043C187.866 222.889 188.66 223.603 189.465 224.498C188.276 224.339 187.146 223.879 186.183 223.163C185.69 222.808 185.236 222.403 184.828 221.953C184.433 221.492 184.081 220.995 183.776 220.47C183.173 219.426 182.774 218.277 182.601 217.084C182.413 215.907 182.503 214.701 182.864 213.565Z" fill="#133D1C"/>
<path d="M241.212 167.925C242.494 167.888 243.76 168.22 244.859 168.882C245.994 169.531 246.962 170.436 247.686 171.526C247.865 171.798 248.029 172.081 248.178 172.371L248.403 172.804C248.463 172.955 248.523 173.105 248.577 173.258C248.683 173.565 248.805 173.864 248.888 174.175C248.958 174.489 249.018 174.804 249.074 175.118C249.138 175.429 249.17 175.746 249.168 176.064C249.177 176.381 249.179 176.696 249.173 177.008C249.119 177.633 249.009 178.252 248.844 178.858C248.579 178.269 248.43 177.693 248.228 177.137C248.117 176.861 248.012 176.589 247.916 176.318L247.776 175.913L247.601 175.523C247.486 175.264 247.375 175.007 247.274 174.749L246.896 174.013L246.716 173.644L246.498 173.298C246.353 173.07 246.239 172.82 246.073 172.607C245.467 171.697 244.758 170.859 243.961 170.111C243.109 169.305 242.19 168.573 241.212 167.925Z" fill="#133D1C"/>
<path d="M213.572 196.016L186.165 144.101" stroke="#133D1C" stroke-width="4.48745" stroke-miterlimit="10"/>
<path d="M217.285 196.016L233.58 144.101" stroke="#133D1C" stroke-width="4.48745" stroke-miterlimit="10"/>
<path d="M180.318 143.527H239.93" stroke="#133D1C" stroke-width="4.48745" stroke-miterlimit="10"/>
<path d="M40.511 170.058C40.612 169.092 40.901 168.155 41.3618 167.299C41.8066 166.431 42.3897 165.641 43.0882 164.961C43.8028 164.253 44.6579 163.703 45.5983 163.347C46.549 162.994 47.5908 162.972 48.5557 163.284C47.7292 163.622 46.9416 164.048 46.2065 164.554C45.5289 165.055 44.887 165.603 44.2853 166.193C43.0465 167.38 41.9316 168.725 40.511 170.058Z" fill="#133D1C"/>
<path d="M72.3801 227.95C74.5411 226.78 76.6489 225.862 78.586 224.712C79.5426 224.163 80.438 223.513 81.2572 222.775C82.101 222.005 82.7671 221.061 83.2093 220.009C83.3968 221.295 83.0661 222.604 82.2898 223.647C81.5403 224.687 80.576 225.555 79.4622 226.19C78.3901 226.815 77.2355 227.286 76.0323 227.588C74.8426 227.907 73.6091 228.029 72.3801 227.95Z" fill="#133D1C"/>
<path d="M96.1064 18.1386C96.1854 17.9258 96.3262 17.7414 96.5108 17.6092C96.6876 17.4774 96.893 17.389 97.1104 17.3513C97.36 17.3067 97.6173 17.3522 97.8364 17.4797C97.9518 17.5419 98.0443 17.6394 98.1004 17.758C98.1565 17.8765 98.1732 18.0099 98.148 18.1386C97.9888 18.0611 97.8108 18.0307 97.6349 18.0511C97.5097 18.0718 97.3824 18.0848 97.2309 18.1178C96.8597 18.1861 96.4799 18.1932 96.1064 18.1386Z" fill="#133D1C"/>
<path d="M97.1273 21.7498C97.4292 21.7393 97.7152 21.6121 97.9251 21.3948C98.135 21.1775 98.2523 20.8872 98.2523 20.5852C98.2523 20.2831 98.135 19.9928 97.9251 19.7755C97.7152 19.5582 97.4292 19.431 97.1273 19.4205C96.8253 19.431 96.5393 19.5582 96.3294 19.7755C96.1195 19.9928 96.0022 20.2831 96.0022 20.5852C96.0022 20.8872 96.1195 21.1775 96.3294 21.3948C96.5393 21.6121 96.8253 21.7393 97.1273 21.7498Z" fill="#133D1C"/>
<path d="M95.9314 27.8805C96.2835 27.6805 96.6503 27.5075 97.0287 27.3632C97.1956 27.3079 97.3512 27.2384 97.5286 27.1764C97.7095 27.1146 97.8883 27.0331 98.148 26.9601C98.1531 27.2134 98.0656 27.46 97.902 27.6535C97.7469 27.8478 97.5427 27.9972 97.3106 28.0861C97.0833 28.173 96.8385 28.2041 96.5967 28.1768C96.3482 28.1546 96.1141 28.0504 95.9314 27.8805Z" fill="#133D1C"/>
<path d="M122.216 16.1599C122.456 16.4012 122.643 16.6915 122.762 17.011C122.887 17.3282 122.962 17.6631 122.983 18.0035C122.997 18.352 122.945 18.7001 122.83 19.0292C122.712 19.3596 122.498 19.6472 122.216 19.8552C122.272 19.5092 122.322 19.2165 122.342 18.9184C122.352 18.6205 122.36 18.3305 122.343 18.0341C122.316 17.438 122.234 16.8435 122.216 16.1599Z" fill="#133D1C"/>
<path d="M301.25 256.5C301.25 256.5 269.04 245.719 247.75 246C227.8 246.263 217.654 257.886 197.75 256.5C182.766 255.457 175.764 245.591 160.75 246C147.045 246.373 140.927 255.548 127.25 256.5C109.627 257.726 100.914 246.215 83.25 246C64.6348 245.773 55.3311 257.648 36.75 256.5C22.1332 255.597 0.75 246 0.75 246" stroke="#133D1C"/>
</svg>
