<svg width="252" height="243" viewBox="0 0 252 243" fill="none" xmlns="http://www.w3.org/2000/svg">
<path d="M120.575 202.23C119.414 202.331 118.245 202.251 117.108 201.992C115.96 201.703 114.863 201.242 113.853 200.623C112.85 199.978 111.945 199.19 111.168 198.284C110.407 197.361 109.798 196.323 109.364 195.208C108.972 194.089 108.74 192.92 108.675 191.735C108.648 190.569 108.755 189.402 108.993 188.26C109.25 187.129 109.639 186.032 110.151 184.992C110.688 183.954 111.35 182.987 112.123 182.111C112.926 181.241 113.85 180.49 114.866 179.883C115.906 179.292 117.028 178.857 118.195 178.594C119.373 178.354 120.578 178.273 121.777 178.353C122.98 178.467 124.159 178.757 125.277 179.213C126.379 179.7 127.407 180.34 128.33 181.115C129.226 181.908 130.004 182.825 130.641 183.837C131.244 184.855 131.697 185.955 131.988 187.102C132.247 188.236 132.333 189.403 132.242 190.564H132.114C131.993 189.447 131.743 188.348 131.367 187.29C130.973 186.262 130.447 185.291 129.802 184.399C129.147 183.534 128.387 182.754 127.541 182.075C126.684 181.426 125.747 180.888 124.753 180.476C123.755 180.084 122.712 179.818 121.648 179.683C120.575 179.572 119.493 179.603 118.429 179.777C117.363 179.981 116.328 180.318 115.346 180.78C114.366 181.276 113.45 181.889 112.619 182.607C111.803 183.366 111.101 184.238 110.535 185.197C109.995 186.179 109.612 187.24 109.401 188.34C109.225 189.442 109.22 190.563 109.385 191.666C109.567 192.748 109.892 193.802 110.349 194.799C110.813 195.779 111.382 196.706 112.046 197.563C113.426 199.274 115.244 200.578 117.306 201.339C118.364 201.716 119.46 201.972 120.575 202.102V202.23Z" fill="#133D1C"/>
<path d="M50.2411 202.166C56.6492 202.166 61.8439 196.972 61.8439 190.564C61.8439 184.156 56.6492 178.961 50.2411 178.961C43.8331 178.961 38.6384 184.156 38.6384 190.564C38.6384 196.972 43.8331 202.166 50.2411 202.166Z" fill="#133D1C"/>
<path d="M204.587 206.601C209.016 206.601 212.606 203.011 212.606 198.582C212.606 194.154 209.016 190.564 204.587 190.564C200.158 190.564 196.568 194.154 196.568 198.582C196.568 203.011 200.158 206.601 204.587 206.601Z" fill="#133D1C"/>
<path d="M121.155 93.1258C117.643 96.3939 114.164 99.6807 110.721 102.986C107.279 106.298 103.928 109.687 100.609 113.103C98.9326 114.796 97.3095 116.54 95.74 118.336C94.1584 120.119 92.7087 122.015 91.4025 124.009C90.0812 125.984 89.0186 128.119 88.2407 130.363C87.5079 132.584 87.1959 135.015 87.9112 137.131L87.881 137.053C90.1681 141.01 92.6824 144.83 95.4114 148.495C96.0753 149.427 96.7836 150.327 97.4821 151.234C98.172 152.147 98.8899 153.038 99.6198 153.92C101.033 155.721 102.54 157.445 103.999 159.21C105.51 160.931 106.995 162.675 108.554 164.357C109.329 165.201 110.089 166.06 110.877 166.893L113.253 169.384L114.436 170.637L115.651 171.859L118.083 174.305C119.72 175.921 121.398 177.497 123.029 179.136C123.039 179.144 123.046 179.155 123.051 179.166C123.056 179.178 123.059 179.19 123.06 179.203C123.06 179.216 123.058 179.228 123.053 179.24C123.049 179.252 123.042 179.263 123.034 179.272C123.017 179.288 122.995 179.299 122.972 179.301C122.948 179.303 122.925 179.297 122.906 179.283C121.98 178.592 121.067 177.885 120.155 177.175C119.25 176.458 118.306 175.781 117.438 175.018L114.8 172.763L113.48 171.634L112.205 170.456L109.665 168.085C108.833 167.28 108.031 166.444 107.211 165.624C105.549 164.006 104.037 162.245 102.459 160.546C100.954 158.781 99.4415 157.021 98.0331 155.176C97.3186 154.261 96.6164 153.338 95.9422 152.393C95.2596 151.454 94.568 150.523 93.9203 149.559C92.5916 147.657 91.3169 145.715 90.1411 143.71C88.9311 141.717 87.8349 139.657 86.8576 137.54L86.8455 137.513C86.838 137.497 86.8318 137.479 86.8272 137.461C86.5251 136.228 86.4629 134.948 86.644 133.691C86.8313 132.475 87.1491 131.283 87.5918 130.136C88.4808 127.884 89.5843 125.724 90.8869 123.683C93.446 119.594 96.3081 115.702 99.4491 112.04C102.639 108.431 106.064 105.037 109.703 101.882C113.302 98.6913 117.086 95.7171 121.036 92.9747C121.057 92.9603 121.083 92.9547 121.108 92.9594C121.133 92.964 121.156 92.9784 121.17 92.9995C121.183 93.0189 121.189 93.0423 121.186 93.0654C121.183 93.0885 121.172 93.1099 121.155 93.1258Z" fill="#133D1C"/>
<path d="M175.014 88.0509C176.114 89.5823 176.784 91.3801 176.954 93.2578C177.064 95.1847 176.619 97.1027 175.672 98.7843C173.817 102.16 170.851 104.649 167.799 106.74C164.715 108.801 161.433 110.548 158.001 111.954C154.588 113.352 151.089 114.531 147.527 115.486L147.865 115.129C146.728 119.792 146.315 124.602 146.641 129.391C146.768 131.789 147.017 134.18 147.385 136.553C147.553 137.741 147.771 138.923 147.975 140.104C148.217 141.281 148.425 142.461 148.699 143.63C149.206 145.973 149.753 148.307 150.388 150.613L150.877 152.334C151.064 152.923 151.183 153.514 151.331 154.099L152.182 157.618L153.884 164.658L155.514 171.717L155.515 171.725C155.568 171.952 155.54 172.191 155.437 172.4C155.334 172.609 155.162 172.777 154.95 172.874L150.43 174.948C149.671 175.284 148.935 175.663 148.186 176.016L145.945 177.089L146.36 175.897L148.433 180.582L148.455 180.632C148.494 180.722 148.515 180.819 148.515 180.918C148.516 181.016 148.496 181.113 148.457 181.203C148.263 181.622 147.973 181.989 147.61 182.274C147.326 182.506 147.026 182.718 146.713 182.908C146.125 183.266 145.515 183.587 144.888 183.87C143.656 184.427 142.41 184.903 141.157 185.35C139.903 185.794 138.643 186.206 137.377 186.596C136.105 186.97 134.832 187.326 133.547 187.657L133.526 187.662C133.491 187.671 133.455 187.671 133.421 187.664C133.386 187.656 133.353 187.641 133.326 187.619C132.552 186.995 131.788 186.358 131.025 185.723C131.006 185.706 130.993 185.683 130.991 185.657C130.989 185.632 130.997 185.607 131.013 185.587C131.029 185.569 131.05 185.557 131.074 185.554C131.097 185.551 131.121 185.556 131.141 185.569C131.972 186.113 132.803 186.656 133.623 187.211L133.401 187.174C134.639 186.731 135.871 186.26 137.093 185.775C138.321 185.304 139.539 184.813 140.742 184.294C141.942 183.773 143.13 183.224 144.264 182.615C144.827 182.306 145.384 181.992 145.89 181.644C146.133 181.481 146.365 181.3 146.583 181.104C146.735 180.975 146.862 180.817 146.955 180.639L146.979 181.26L144.719 176.663C144.616 176.455 144.6 176.214 144.672 175.994C144.745 175.773 144.901 175.59 145.107 175.484L145.134 175.47C146.614 174.707 148.076 173.903 149.579 173.186L154.078 171.018L153.515 172.176L151.907 165.136L150.372 158.078L149.604 154.548C149.47 153.96 149.364 153.365 149.199 152.801C149.037 152.21 148.905 151.617 148.763 151.025C148.224 148.655 147.728 146.279 147.363 143.88C146.607 139.092 146.158 134.261 146.018 129.416C145.81 124.563 146.112 119.701 146.918 114.91C146.933 114.832 146.968 114.759 147.02 114.699C147.072 114.638 147.139 114.593 147.215 114.567L147.257 114.553C150.689 113.365 154.056 111.998 157.344 110.457C158.987 109.694 160.622 108.918 162.214 108.067C163.818 107.247 165.378 106.346 166.89 105.368C169.881 103.422 172.77 101.164 174.632 98.1887C175.583 96.7223 176.118 95.0256 176.181 93.279C176.167 91.4864 175.709 89.725 174.85 88.1517C174.844 88.1406 174.84 88.1284 174.839 88.1158C174.838 88.1032 174.839 88.0905 174.842 88.0784C174.846 88.0662 174.852 88.055 174.86 88.0451C174.868 88.0353 174.878 88.0272 174.889 88.0211C174.91 88.0105 174.934 88.0076 174.957 88.0131C174.98 88.0185 175 88.0319 175.014 88.0509Z" fill="#133D1C"/>
<path d="M121.045 93.1308C119.551 92.3032 118.102 91.3987 116.703 90.4209C115.309 89.4207 113.982 88.3298 112.731 87.1552C110.278 84.7737 107.959 82.2582 105.784 79.6203C103.582 77.0127 101.46 74.337 99.4621 71.5601C97.375 68.8017 95.5536 65.8521 94.0222 62.7506L95.2148 63.1486C91.2346 65.4639 87.3047 67.8622 83.4251 70.3434C79.5496 72.8293 75.6932 75.353 71.9351 78.0237C68.1771 80.6922 64.4625 83.4329 60.8822 86.3439C57.2929 89.2435 53.8182 92.2855 50.4475 95.437C50.4012 95.4803 50.3423 95.508 50.2793 95.5161C50.2163 95.5241 50.1523 95.5121 50.0965 95.4818C50.0407 95.4515 49.9959 95.4044 49.9683 95.3471C49.9408 95.2899 49.932 95.2254 49.9431 95.1629L49.9448 95.1546C50.346 93.0929 49.971 90.9557 48.8916 89.1539C48.3463 88.2775 47.6212 87.5267 46.7643 86.9511C45.9109 86.376 44.9564 85.9678 43.951 85.748C43.8833 85.733 43.82 85.7023 43.7664 85.6583C43.7128 85.6143 43.6703 85.5583 43.6423 85.4948C43.6144 85.4313 43.6018 85.3622 43.6056 85.2929C43.6095 85.2236 43.6296 85.1563 43.6643 85.0962L43.6719 85.0836C47.7057 78.1189 52.1839 71.4212 57.0786 65.0321C61.9965 58.6477 67.3128 52.5803 72.9958 46.8664C75.8305 44.0018 78.7869 41.259 81.8092 38.5932C83.3185 37.258 84.8659 35.9663 86.4258 34.6912C87.9753 33.4113 89.5998 32.1493 91.2545 30.9955C94.5746 28.6724 97.9508 26.5433 101.343 24.3671C103.05 23.2962 104.771 22.2467 106.545 21.2624C107.432 20.7708 108.332 20.2964 109.27 19.8639C109.747 19.6423 110.237 19.4473 110.736 19.2796C111.003 19.1903 111.276 19.1178 111.552 19.0626C111.912 18.9811 112.287 18.9892 112.643 19.0865C112.744 19.1152 112.836 19.1717 112.907 19.2495L112.918 19.2616L115.492 22.0985L115.277 21.9536L124.328 25.7068L133.352 29.5315C133.375 29.5413 133.393 29.5597 133.403 29.5827C133.413 29.6057 133.413 29.6317 133.404 29.655C133.395 29.6782 133.377 29.6971 133.354 29.7075C133.332 29.7179 133.306 29.719 133.282 29.7107L124.051 26.419L114.847 23.0559C114.773 23.029 114.706 22.986 114.651 22.9301L114.632 22.9108L111.947 20.1786L112.221 20.3536C112.087 20.3545 111.954 20.3704 111.823 20.401C111.61 20.4538 111.401 20.5194 111.195 20.5973C110.763 20.7572 110.326 20.9652 109.889 21.1752C109.016 21.6037 108.153 22.0852 107.299 22.5862C105.59 23.5899 103.913 24.669 102.25 25.7703C98.9409 27.9964 95.6037 30.2565 92.3845 32.5749C90.7628 33.7338 89.233 34.9501 87.7052 36.2402C86.1702 37.5136 84.6702 38.8282 83.1681 40.1395C80.1625 42.7618 77.2666 45.5059 74.4089 48.2885C68.7151 53.8845 63.3577 59.813 58.3651 66.0428C53.3464 72.2669 48.6951 78.7786 44.4349 85.5445L44.1558 84.8803C45.2573 85.1574 46.2963 85.6407 47.2178 86.3048C48.1355 86.9702 48.9085 87.815 49.49 88.7881C50.0668 89.7559 50.4463 90.8284 50.6067 91.9436C50.7666 93.0504 50.7435 94.176 50.5383 95.2754L50.0355 94.9931C53.4407 91.8616 56.9096 88.8013 60.442 85.8122C63.9808 82.832 67.5508 79.8816 71.2342 77.0715C74.9205 74.2678 78.6558 71.5171 82.5242 68.9608C86.3807 66.3874 90.3426 63.9716 94.3769 61.6876C94.5723 61.577 94.8036 61.5485 95.0199 61.6085C95.2362 61.6684 95.4199 61.8118 95.5305 62.0071C95.5449 62.0326 95.5579 62.0588 95.5696 62.0857C96.2587 63.593 97.0515 65.0508 97.9423 66.4486C98.8249 67.8764 99.7492 69.285 100.715 70.6742C102.646 73.4461 104.655 76.1688 106.741 78.8422C108.831 81.5077 110.987 84.1241 113.314 86.5646C114.475 87.7873 115.715 88.9322 117.027 89.9917C118.346 91.0436 119.74 92.0123 121.146 92.9677C121.167 92.9816 121.181 93.003 121.186 93.0274C121.192 93.0517 121.187 93.0771 121.174 93.0982C121.161 93.1193 121.14 93.1345 121.116 93.1406C121.092 93.1467 121.066 93.1432 121.045 93.1309L121.045 93.1308Z" fill="#133D1C"/>
<path d="M115.371 35.8091C110.885 32.8697 95.2953 29.4316 95.2953 29.4316L88.917 33.9526C88.917 33.9526 108.908 37.3561 115.406 44.3177L115.371 35.8091" fill="#133D1C"/>
<path d="M99.1277 38.4391C100.031 38.7683 100.825 39.3411 101.423 40.0939C102.042 40.8368 102.516 41.6889 102.822 42.6063C103.112 43.5189 103.249 44.4731 103.228 45.4305C103.223 46.3747 103.039 47.3095 102.686 48.1853C102.572 47.7182 102.527 47.2673 102.457 46.8219C102.366 46.3784 102.323 45.9385 102.23 45.5098C102.071 44.664 101.862 43.8283 101.604 43.0069C101.064 41.3462 100.224 39.7982 99.1277 38.4391Z" fill="#133D1C"/>
<path d="M103.459 27.7646C104.31 27.1053 105.211 26.5138 106.154 25.9957C107.082 25.4719 108.03 24.9904 108.996 24.5509C109.962 24.1095 110.95 23.7177 111.955 23.364C112.966 22.9957 114.005 22.7083 115.062 22.5046C114.212 23.1653 113.311 23.7574 112.368 24.2753C111.439 24.7983 110.493 25.2831 109.525 25.7183C108.559 26.1576 107.572 26.5526 106.566 26.9034C105.554 27.2714 104.516 27.5594 103.459 27.7646Z" fill="#133D1C"/>
<path d="M94.7957 62.418C95.4945 61.4314 96.2617 60.4949 97.0916 59.6156C97.906 58.7346 98.7519 57.8875 99.6292 57.0744C100.505 56.2597 101.418 55.485 102.359 54.7411C103.3 53.9819 104.294 53.2904 105.333 52.6718C104.636 53.6595 103.869 54.5964 103.038 55.4756C102.223 56.356 101.38 57.2057 100.5 58.0154C99.6221 58.8283 98.7117 59.6056 97.7684 60.3473C96.8271 61.1062 95.8338 61.7981 94.7957 62.418Z" fill="#133D1C"/>
<path d="M145.232 29.4312C138.731 27.3862 115.217 31.3223 113.358 38.4381C111.505 45.5539 129.91 69.9977 129.91 69.9977L136.257 77.2674C141.392 85.3576 164.002 75.9724 171.541 72.5428C172.311 72.2029 172.961 71.6401 173.408 70.927C173.855 70.214 174.077 69.3834 174.048 68.5425C173.157 50.8299 151.392 31.3736 145.232 29.4312ZM158.072 45.2462C157.13 45.6437 156.181 46.0219 155.226 46.3937C154.277 46.7655 153.335 47.1502 152.38 47.5092C150.713 48.1438 149.033 48.7529 147.36 49.3619C148.129 50.3171 148.888 51.2787 149.636 52.2467C150.527 53.4134 151.412 54.593 152.277 55.7853C153.142 56.9841 153.982 58.1957 154.79 59.4394C155.2 60.0613 155.585 60.6959 155.95 61.3562C156.13 61.6895 156.322 62.0037 156.476 62.3691C156.559 62.5486 156.649 62.7152 156.72 62.9076L156.758 63.0422C157.662 62.9525 158.579 62.8371 159.489 62.6832C160.54 62.4973 161.592 62.2986 162.624 62.0229C163.658 61.7631 164.666 61.4113 165.637 60.9716C166.628 60.5583 167.488 59.8823 168.124 59.0163C167.606 59.997 166.807 60.8007 165.829 61.3242C164.884 61.8925 163.88 62.3568 162.835 62.7089C161.799 63.0734 160.741 63.3752 159.669 63.6128C158.598 63.85 157.527 64.0615 156.418 64.1961L156.002 64.241L155.822 63.741L155.675 63.3243C155.611 63.1833 155.521 63.023 155.444 62.8692C155.303 62.5614 155.104 62.2537 154.925 61.946C154.553 61.337 154.155 60.728 153.751 60.119C152.95 58.9073 152.098 57.7214 151.245 56.5354C150.399 55.343 149.527 54.1571 148.655 52.9839C147.79 51.798 146.924 50.6184 146.04 49.4453L145.572 48.8234L146.296 48.599C148.245 48.0092 150.2 47.4131 152.162 46.8553C153.136 46.5669 154.123 46.3104 155.111 46.0348C156.091 45.7591 157.079 45.4898 158.072 45.2462V45.2462ZM149.835 42.0922C150.719 41.9763 151.611 41.9441 152.501 41.996C151.722 42.4279 150.905 42.7863 150.059 43.0666C149.232 43.349 148.391 43.5886 147.54 43.7846C146.685 43.9781 145.82 44.1237 144.95 44.2205C144.068 44.3364 143.177 44.3686 142.289 44.3167C143.069 43.8868 143.886 43.5305 144.732 43.2525C145.558 42.9672 146.399 42.7275 147.251 42.5345C148.103 42.3389 148.966 42.1912 149.835 42.0922L149.835 42.0922ZM135.039 39.169C136.154 38.6561 137.285 38.186 138.43 37.7586C139.578 37.3355 140.742 36.9552 141.924 36.6175C143.108 36.2624 144.317 35.9925 145.539 35.8098C144.491 36.4647 143.398 37.0473 142.27 37.5535C141.155 38.0663 140.026 38.5407 138.879 38.9638C137.731 39.3869 136.565 39.7651 135.385 40.1049C134.2 40.4593 132.992 40.7293 131.769 40.9127C132.818 40.2577 133.911 39.6751 135.039 39.1689L135.039 39.169ZM143.623 75.9148C142.526 75.2701 141.492 74.5254 140.533 73.6903C138.662 71.9765 136.946 70.1016 135.404 68.0874C132.353 64.0638 129.627 59.8045 127.25 55.3494C126.058 53.1249 124.923 50.8684 123.871 48.5798C123.352 47.4259 122.846 46.272 122.378 45.0924C122.141 44.5026 121.91 43.9128 121.705 43.3102C121.596 43.0089 121.506 42.7012 121.403 42.3935C121.308 42.0716 121.233 41.744 121.179 41.4127C120.949 40.0581 121.213 38.6659 121.923 37.4894C122.619 36.3762 123.546 35.4252 124.641 34.7008C125.698 33.9902 126.829 33.3949 128.013 32.925C129.177 32.4371 130.383 32.0552 131.616 31.7839C129.242 32.5518 127.011 33.7063 125.013 35.2008C124.047 35.9239 123.243 36.841 122.654 37.8932C122.099 38.9153 121.924 40.1009 122.16 41.2396C122.223 41.5232 122.3 41.8035 122.391 42.0794C122.5 42.3679 122.589 42.6563 122.711 42.9448C122.936 43.5154 123.166 44.0923 123.41 44.6629C123.897 45.8104 124.429 46.9387 124.968 48.0669C126.045 50.3171 127.173 52.548 128.372 54.734C129.558 56.9393 130.801 59.1061 132.103 61.2344C133.391 63.3756 134.77 65.4526 136.206 67.4848C137.644 69.5168 139.234 71.437 140.962 73.2287C141.831 74.1144 142.782 74.9151 143.802 75.6199C144.818 76.3462 145.999 76.8068 147.238 76.9597C145.961 76.9408 144.713 76.5799 143.623 75.9147L143.623 75.9148ZM167.861 69.4336C166.098 70.4893 164.11 71.1112 162.06 71.2478C160.018 71.4161 157.962 71.2318 155.982 70.7029C154.982 70.4412 154.012 70.0715 153.091 69.6003C152.618 69.3574 152.167 69.072 151.745 68.7477C151.281 68.4116 150.883 67.9921 150.572 67.5104C150.485 67.3782 150.414 67.2362 150.36 67.0873C150.286 66.9402 150.237 66.7822 150.213 66.6194L150.142 66.2091C150.134 66.1073 150.117 66.0065 150.091 65.9078C149.978 65.4636 149.825 65.0303 149.636 64.6128C149.243 63.7274 148.804 62.863 148.322 62.0229C147.373 60.3112 146.302 58.6509 145.245 56.9841C143.091 53.6763 140.879 50.3876 138.654 47.1053C141.27 50.0863 143.757 53.189 146.072 56.4264C147.238 58.0419 148.337 59.7065 149.367 61.4203C149.894 62.2875 150.368 63.1867 150.783 64.1128C151.005 64.5967 151.185 65.0985 151.322 65.6129C151.358 65.7544 151.385 65.8978 151.405 66.0424L151.437 66.254L151.463 66.3629C151.472 66.4465 151.498 66.5273 151.54 66.6001C151.57 66.6854 151.613 66.7654 151.668 66.8373C152.191 67.5447 152.88 68.1127 153.675 68.4913C154.515 68.9278 155.398 69.2779 156.309 69.5362C158.157 70.0727 160.079 70.315 162.002 70.2542C163.929 70.2131 165.823 69.7445 167.547 68.8823C168.413 68.4487 169.206 67.8844 169.9 67.2091C170.591 66.5077 171.189 65.7215 171.682 64.8693C170.922 66.7558 169.585 68.3535 167.861 69.4336L167.861 69.4336Z" fill="#133D1C"/>
<path d="M97.6908 59.7404C97.6908 59.7404 114.288 66.9045 129.913 69.9985L135.031 75.8658C135.031 75.8658 114.223 72.5254 94.7957 62.4181L97.6908 59.7404Z" fill="#133D1C"/>
<path d="M120.677 32.6205C120.514 31.4232 120.753 30.2056 121.357 29.1589C121.683 28.5876 122.129 28.0931 122.663 27.7087C123.197 27.3243 123.807 27.059 124.453 26.9308C125.665 26.7058 126.918 26.8671 128.034 27.392C129.15 27.9169 130.073 28.779 130.674 29.8565C129.718 29.3536 128.705 28.9667 127.657 28.7042C126.717 28.4714 125.739 28.4416 124.786 28.6165C123.885 28.8048 123.066 29.2721 122.445 29.9522C121.735 30.7554 121.14 31.6534 120.677 32.6205Z" fill="#133D1C"/>
<path d="M83.3044 15.5492L84.0328 18.1666C84.1607 18.5983 84.2746 19.0324 84.4132 19.4542C84.531 19.8518 84.6841 20.2381 84.8707 20.6084C84.9166 20.6868 84.9363 20.7778 84.927 20.8682C84.9177 20.9585 84.8798 21.0436 84.8189 21.111L84.7992 21.1326C84.3726 21.6034 83.9545 22.0982 83.5459 22.584C83.1465 23.056 82.7815 23.556 82.4539 24.0804C82.3874 24.1894 82.3306 24.304 82.2839 24.4228C82.2738 24.4519 82.2658 24.4816 82.26 24.5118C82.2647 24.5064 82.2708 24.4383 82.185 24.3171C82.1575 24.2837 82.1229 24.2569 82.0836 24.2389L82.1859 24.2793L82.3899 24.3608C82.526 24.4014 82.6627 24.4556 82.7969 24.4816C83.0459 24.5498 83.3042 24.5777 83.562 24.5641C83.6695 24.5573 83.7754 24.5345 83.8762 24.4964C83.9187 24.4806 83.9595 24.4607 83.998 24.4369C84.0262 24.427 84.0808 24.3673 84.0469 24.4103L85.0594 24.7518C85.0788 25.5277 85.1508 26.3013 85.2747 27.0674C85.3979 27.8389 85.5844 28.599 85.8323 29.34C86.0762 30.081 86.4171 30.7865 86.8463 31.438C87.2917 32.0998 87.8627 32.6676 88.5269 33.1092C87.7377 32.8316 87.0284 32.3649 86.4612 31.7498C85.8882 31.1282 85.4185 30.4187 85.0698 29.6485C84.7195 28.8846 84.4513 28.0856 84.2694 27.2652C84.0765 26.4431 83.9625 25.6045 83.9288 24.7607L84.9412 25.1022C84.8497 25.2142 84.7407 25.3108 84.6184 25.3882C84.5205 25.4527 84.4165 25.5076 84.3079 25.552C84.1066 25.6349 83.8941 25.6877 83.6773 25.7086C83.2859 25.747 82.8908 25.7121 82.5122 25.6056C82.3281 25.5634 82.1617 25.4959 81.9885 25.4382L81.7416 25.3345L81.6184 25.2823C81.5053 25.2307 81.4044 25.1558 81.3222 25.0626C81.2473 24.9727 81.1916 24.8685 81.1584 24.7563C81.1252 24.6441 81.1152 24.5263 81.1292 24.4101C81.1448 24.2792 81.1767 24.1507 81.2242 24.0277C81.2978 23.8444 81.3878 23.6681 81.4933 23.5011C81.8715 22.9326 82.3005 22.3996 82.7752 21.9088C83.2244 21.418 83.697 20.9646 84.1891 20.5155L84.1176 21.0395C83.9236 20.5888 83.7881 20.1151 83.7143 19.6299C83.6325 19.1754 83.56 18.7252 83.5078 18.2716C83.4021 17.366 83.3246 16.4604 83.3044 15.5492Z" fill="#133D1C"/>
<path d="M103.069 0.0125311C93.1902 -0.179781 91.0812 1.73699 83.0294 13.0582C83.0294 13.0582 73.9711 17.1803 74.4263 18.9047C74.8879 20.6292 83.3692 15.9815 83.3692 15.9815L113.23 16.1738C113.23 16.1738 112.954 0.204876 103.069 0.0125311ZM103.069 13.3403C104.376 12.8993 105.725 12.5943 107.095 12.4299C108.46 12.2352 109.842 12.1879 111.217 12.2889C108.591 13.1488 105.827 13.5055 103.069 13.3403V13.3403Z" fill="#133D1C"/>
<path d="M88.5271 16.0139C89.0581 16.7669 89.6537 17.4722 90.3072 18.1217C90.8673 18.736 91.5879 19.1816 92.3877 19.4084C92.7394 19.4608 93.0987 19.4225 93.4315 19.2971C93.7642 19.1717 94.0595 18.9634 94.2891 18.6919C95.0611 17.9076 96.0705 17.4 97.1605 17.2479C97.4788 17.2147 97.8004 17.2339 98.1125 17.3049C98.4601 17.3877 98.7823 17.5542 99.0508 17.7899C99.5088 18.2288 99.8054 18.8093 99.8926 19.4376C100.028 20.4452 99.9707 21.4694 99.7242 22.4558C99.6757 22.6993 99.6129 22.9397 99.5362 23.1759L99.4301 23.5339L99.2729 23.8892C99.0701 24.3986 98.7311 24.8423 98.2928 25.1718C98.055 25.3278 97.7804 25.4185 97.4964 25.4347C97.2125 25.4509 96.9293 25.3921 96.6753 25.2641C96.2353 25.0473 95.8549 24.7264 95.5672 24.3292C95.9424 24.5839 96.364 24.7625 96.8081 24.8547C96.9874 24.9019 97.176 24.9004 97.3546 24.8504C97.5332 24.8005 97.6952 24.7039 97.824 24.5705C98.0761 24.2745 98.2465 23.9179 98.3184 23.5358L98.397 23.235L98.4465 22.9133C98.4867 22.6995 98.5137 22.4835 98.5273 22.2664C98.6325 21.424 98.6074 20.5704 98.4528 19.7356C98.4034 19.4367 98.2608 19.161 98.0452 18.9481C97.9417 18.8736 97.824 18.8213 97.6993 18.7944C97.5746 18.7676 97.4457 18.7667 97.3207 18.792C96.5559 18.9113 95.8436 19.2545 95.2737 19.7783C94.8487 20.1501 94.352 20.4307 93.8143 20.6029C93.2443 20.7781 92.6334 20.7676 92.0698 20.5729C91.0949 20.1902 90.2714 19.4999 89.7243 18.6068C89.1925 17.8102 88.7885 16.9354 88.5271 16.0139Z" fill="#133D1C"/>
<path d="M93.135 63.6405C93.3253 64.4414 93.4655 65.2534 93.5549 66.0717C93.6488 66.8821 93.7044 67.6926 93.7418 68.503L93.4121 67.9633C94.6343 68.5281 95.8177 69.1734 96.9544 69.895C97.5289 70.2544 98.0849 70.6426 98.6202 71.0582C98.892 71.2626 99.1512 71.4886 99.4074 71.7184C99.6812 71.9378 99.9052 72.2128 100.064 72.5253C99.7903 72.3355 99.4907 72.1854 99.1745 72.0793L98.2479 71.6914C97.6285 71.4353 97.0194 71.1617 96.4147 70.8785C95.202 70.3204 94.0182 69.6999 92.8582 69.0428L92.8122 69.0168C92.7221 68.9657 92.6479 68.8906 92.5978 68.7999C92.5477 68.7092 92.5237 68.6065 92.5284 68.503C92.5658 67.6925 92.6214 66.8821 92.7154 66.0717C92.8047 65.2534 92.9449 64.4414 93.135 63.6405Z" fill="#133D1C"/>
<path d="M83.6234 78.7679C83.5473 77.917 83.4058 76.9099 83.3356 75.8658C83.3328 75.824 83.3395 75.7822 83.3552 75.7434C83.3709 75.7046 83.3952 75.6698 83.4263 75.6418L83.46 75.6119C84.9557 74.2768 86.4869 72.9872 88.0534 71.7433C88.8314 71.1144 89.6183 70.4973 90.4232 69.9031C91.225 69.3049 92.0597 68.7491 92.8824 68.1778L92.9191 68.1523C92.981 68.1094 93.0543 68.086 93.1296 68.085C93.2049 68.084 93.2788 68.1056 93.3418 68.1469C94.4595 68.8813 95.565 69.6368 96.7047 70.3334C97.8472 71.025 99.007 71.687 100.184 72.3193C100.236 72.3471 100.275 72.3937 100.293 72.4495C100.312 72.5052 100.308 72.566 100.283 72.6192L100.276 72.6337C99.8124 73.621 99.2664 74.5677 98.6442 75.4638C98.3184 75.9282 97.9462 76.3582 97.5333 76.7473C97.0516 77.2256 96.4007 77.4948 95.7219 77.4964L96.3002 77.1015C96.138 77.7682 95.9307 78.4231 95.6798 79.0617C95.432 79.7178 95.1239 80.3495 94.7595 80.9487C94.5629 81.2719 94.3307 81.572 94.0671 81.8433C93.76 82.171 93.3727 82.4129 92.9435 82.5452C92.698 82.6097 92.4421 82.6246 92.1907 82.5892C91.9394 82.5538 91.6976 82.4688 91.4794 82.339C91.1257 82.1198 90.8117 81.8421 90.5506 81.518C90.4597 81.4133 90.4044 81.2824 90.3926 81.1442C90.3808 81.006 90.4132 80.8677 90.4851 80.7491L90.5117 80.706C90.7845 80.2689 91.0067 79.8021 91.1739 79.3147C91.3361 78.8702 91.3913 78.3937 91.3351 77.9239C91.3045 77.7154 91.2272 77.5166 91.1092 77.342C90.9911 77.1675 90.8352 77.0218 90.6532 76.9158C90.4523 76.7805 90.2369 76.6681 90.0111 76.5806C89.7674 76.4999 89.5067 76.4408 89.253 76.3662L89.5565 76.3182C88.5265 76.7875 87.48 77.2032 86.4789 77.6145C85.475 78.0197 84.5181 78.3882 83.6234 78.7679ZM83.6907 78.6588C84.6868 78.0894 85.6207 77.5086 86.5074 76.9646C87.3972 76.4267 88.2416 75.8932 89.1023 75.4133C89.1931 75.3625 89.299 75.3452 89.4013 75.3644L89.4061 75.3654C89.7166 75.4236 90.0293 75.4682 90.3423 75.5445C90.6683 75.6354 90.9811 75.7683 91.2727 75.94C91.5889 76.1226 91.8692 76.3614 92.0996 76.6447C92.2009 76.8036 92.2992 76.9671 92.3928 77.1326C92.4645 77.3047 92.5164 77.4851 92.5731 77.664C92.7039 78.344 92.6606 79.0461 92.4472 79.7048C92.2679 80.3263 92.0009 80.9189 91.6541 81.4648L91.6151 80.6531C91.769 80.8458 91.9513 81.014 92.1559 81.1517C92.221 81.1951 92.2944 81.2246 92.3715 81.2384C92.4485 81.2522 92.5275 81.25 92.6037 81.2319C93.0653 81.0335 93.4484 80.6882 93.6935 80.2496C94.0379 79.7302 94.3336 79.1803 94.5772 78.6067C94.8266 78.0246 95.0628 77.4122 95.2592 76.8188L95.2797 76.7564C95.3172 76.6432 95.3942 76.5473 95.4966 76.4862C95.5991 76.4251 95.72 76.403 95.8375 76.4238C96.2401 76.4215 96.6277 76.2705 96.9258 75.9997C97.3245 75.6932 97.6928 75.349 98.0257 74.9719C98.7128 74.179 99.3244 73.3236 99.8524 72.4169L99.9447 72.7311C98.8122 72.0225 97.6621 71.3437 96.4947 70.6948C95.3246 70.0506 94.1203 69.4654 92.9283 68.8591L93.3876 68.8282C92.6305 69.484 91.8856 70.1553 91.1078 70.7842C90.3329 71.4172 89.5403 72.0272 88.7387 72.6254C87.1431 73.832 85.515 74.9967 83.8542 76.1195L83.9784 75.8658C83.9082 76.7201 83.7667 77.6113 83.6907 78.6588Z" fill="#133D1C"/>
<path d="M44.0581 85.378C41.9578 85.8033 39.9164 86.4801 37.978 87.3937C36.1187 88.3218 34.5222 89.7493 34.2306 91.728C34.1165 92.7594 34.2493 93.8031 34.6182 94.773L34.8854 95.5323C34.9903 95.7776 35.1166 96.0129 35.2358 96.2519C35.4715 96.7282 35.7615 97.1757 36.1002 97.5853L36.6481 98.1497L37.2804 98.5971C37.7249 98.8346 38.2172 98.9687 38.7207 98.9893C39.7135 98.9871 40.6711 98.6217 41.4131 97.9621L41.5012 98.7903C40.6772 98.3873 39.9073 97.8819 39.2098 97.2861C38.4334 96.6649 37.8481 95.8372 37.5212 94.8981C37.4404 94.6316 37.3997 94.3544 37.4006 94.0759C37.4121 93.7915 37.4541 93.5091 37.5258 93.2337C37.6315 92.9798 37.752 92.7323 37.8866 92.4924L38.3666 91.9011C39.0913 91.1738 40.0374 90.7083 41.0559 90.5779C41.5354 90.5027 42.0225 90.488 42.5057 90.534L42.8615 90.5738C42.9873 90.5959 43.1228 90.6318 43.2519 90.6626C43.5075 90.7302 43.7549 90.8261 43.9893 90.9485C44.7709 91.459 45.46 92.0985 46.0273 92.8399C46.5358 93.4978 47.1486 94.0679 47.8414 94.5276C48.5641 94.9571 49.3936 95.1733 50.2341 95.1514L50.2488 95.2788C49.3557 95.4907 48.4186 95.4174 47.5694 95.0692C46.7478 94.6701 45.9976 94.1384 45.3488 93.4956C44.7937 92.9072 44.1563 92.4025 43.4565 91.997C43.2998 91.9303 43.1364 91.8808 42.969 91.8494L42.7211 91.8079L42.4273 91.7956C42.0428 91.7808 41.658 91.8086 41.2797 91.8785C40.5662 92.0044 39.9043 92.3338 39.3736 92.827C39.1213 93.0325 38.9313 93.3043 38.825 93.6119C38.7187 93.9195 38.7003 94.2507 38.7719 94.5682C39.005 95.284 39.43 95.9222 40.0006 96.4133C40.6057 96.972 41.2633 97.471 41.9643 97.9034L42.631 98.3202L42.0524 98.7317C41.5598 99.0797 41.0097 99.3379 40.4274 99.4946C39.8552 99.6638 39.2533 99.7078 38.6625 99.6236C37.5099 99.4266 36.48 98.7869 35.7925 97.841C35.6138 97.6256 35.4727 97.3837 35.3109 97.1569C35.1451 96.9339 35.0004 96.696 34.8786 96.4463L34.4804 95.7158L34.1456 94.958C33.6101 93.9383 33.3263 92.8053 33.3181 91.6536C33.346 90.4334 33.8292 89.2678 34.6727 88.3857C35.0722 87.954 35.5264 87.5764 36.0237 87.2625C36.5008 86.945 37.0074 86.6744 37.5365 86.4543C39.5984 85.5995 41.8174 85.1892 44.0487 85.2502L44.0581 85.378Z" fill="#133D1C"/>
<path d="M121.095 93.0492C125.996 93.1069 130.883 93.1463 135.766 93.0977C138.207 93.0858 140.646 93.0447 143.083 92.9746C145.519 92.9171 147.954 92.8276 150.383 92.6815C152.812 92.5571 155.238 92.3936 157.65 92.1389C160.062 91.8917 162.473 91.6255 164.846 91.1919C167.211 90.7971 169.544 90.2302 171.827 89.4957C174.052 88.7187 176.256 87.721 177.807 86.1015L177.642 86.5663C177.616 85.2322 177.503 83.9012 177.305 82.5817C177.107 81.2556 176.801 79.9478 176.39 78.6714C175.985 77.3959 175.391 76.1886 174.626 75.0902C173.851 73.9757 172.785 73.0955 171.544 72.5457C172.887 72.9459 174.085 73.7266 174.994 74.7935C175.912 75.8602 176.65 77.0687 177.179 78.3719C177.72 79.6631 178.138 81.0022 178.428 82.3716C178.738 83.742 178.939 85.1349 179.029 86.537L179.044 86.7952L178.863 87.0021C177.081 88.8802 174.86 90.2849 172.399 91.0893C170.052 91.9392 167.636 92.5865 165.179 93.0241C160.318 93.8806 155.4 94.3816 150.466 94.5233C145.551 94.6916 140.638 94.6308 135.739 94.3909C130.841 94.1312 125.951 93.7352 121.095 93.0492Z" fill="#133D1C"/>
<path d="M147.395 115.017C144.94 117.725 142.339 120.298 139.606 122.725C138.257 123.958 136.854 125.129 135.456 126.306C134.043 127.466 132.6 128.59 131.148 129.704C129.673 130.788 128.186 131.858 126.664 132.881C125.124 133.878 123.578 134.871 121.964 135.755C120.358 136.66 118.691 137.455 116.977 138.135C115.271 138.848 113.454 139.261 111.607 139.357C113.362 138.919 115.05 138.25 116.629 137.366C118.223 136.53 119.758 135.583 121.273 134.606C124.288 132.623 127.226 130.511 130.117 128.33C133.022 126.166 135.877 123.928 138.748 121.701C141.613 119.465 144.473 117.218 147.395 115.017Z" fill="#133D1C"/>
<path d="M140.691 95.6276C141.764 96.5231 142.584 97.4765 143.463 98.3341C143.878 98.7655 144.327 99.1638 144.804 99.5254C145.3 99.9106 145.864 100.198 146.467 100.372C146.135 100.528 145.775 100.613 145.409 100.622C145.042 100.63 144.678 100.562 144.34 100.42C143.667 100.166 143.059 99.7638 142.56 99.244C142.071 98.7554 141.657 98.1959 141.335 97.5841C141.002 96.9769 140.784 96.3137 140.691 95.6276Z" fill="#133D1C"/>
<path d="M135.032 95.6277C135.032 95.6277 96.9168 129.869 96.9392 136.882C96.9617 143.895 138.654 185.684 138.654 185.684" stroke="#133D1C" stroke-width="1.28213" stroke-linecap="round" stroke-linejoin="round" stroke-dasharray="1.92 1.92"/>
<path d="M115.406 138.342C118.644 140.81 121.664 143.553 124.43 146.54C127.239 149.486 129.849 152.611 132.363 155.806C134.848 159.026 137.209 162.338 139.413 165.751C140.533 167.445 141.559 169.201 142.614 170.934C143.62 172.699 144.607 174.474 145.538 176.279C144.283 174.676 143.109 173.027 141.908 171.397L138.31 166.515C137.082 164.909 135.927 163.255 134.68 161.667C133.48 160.045 132.248 158.449 131.007 156.86C128.54 153.671 126.015 150.528 123.433 147.43C120.831 144.348 118.206 141.283 115.406 138.342Z" fill="#133D1C"/>
<path d="M151.623 199.493C151.623 199.493 149.976 197.114 142.962 203.095C135.949 209.077 118.826 211.756 115.403 211.551C111.986 211.346 112.223 204.743 115.403 204.743C117.32 204.743 123.692 200.935 128.064 197.319L130.474 199.794L129.083 196.557L130.173 195.685L133.885 196.909L130.91 194.653C131.507 193.986 132.045 193.499 132.045 193.499L135.122 193.505L132.366 192.268C132.393 192.144 132.395 192.016 132.371 191.892C132.348 191.768 132.301 191.649 132.231 191.543C130.378 188.864 133.475 187.415 133.475 187.415C145.642 193.191 148.943 182.261 148.943 182.261L157.194 190.101C156.805 190.95 156.216 191.692 155.476 192.261C154.757 192.844 154.001 193.379 153.213 193.864C151.636 194.877 149.963 195.781 148.322 196.909C149.313 196.823 150.288 196.601 151.219 196.249C152.157 195.913 153.055 195.477 153.899 194.948C154.769 194.418 155.545 193.746 156.194 192.96C156.548 192.578 156.819 192.126 156.991 191.635C157.163 191.143 157.232 190.621 157.194 190.101C158.226 190.101 160.495 191.133 160.495 191.133C163.791 194.428 151.623 199.493 151.623 199.493Z" fill="#133D1C"/>
<path d="M97.9472 192.987C97.9318 196.11 97.6128 199.225 96.9945 202.286C96.3907 205.35 95.494 208.348 94.3167 211.241C91.9601 217.061 88.5188 222.38 84.1761 226.915C79.8025 231.492 74.5679 235.16 68.7729 237.709C62.9104 240.269 56.5947 241.63 50.198 241.712C43.8013 241.794 37.4528 240.595 31.5267 238.185C22.5032 234.538 14.7635 228.298 9.28624 220.253C3.809 212.208 0.840163 202.719 0.755096 192.987C0.613533 183.126 3.42438 173.448 8.82632 165.197C14.2283 156.946 21.9744 150.499 31.0691 146.685C34.1026 145.43 37.2551 144.483 40.4787 143.86C46.924 142.605 53.5584 142.688 59.9701 144.105C69.5185 146.223 78.1789 151.24 84.7654 158.47C89.0607 163.165 92.4229 168.634 94.6725 174.586C95.7907 177.523 96.6269 180.559 97.17 183.654C97.731 186.732 97.9913 189.858 97.9472 192.987ZM97.4344 192.987C97.3856 189.901 97.0367 186.826 96.3928 183.807C94.4087 174.789 89.6669 166.612 82.8253 160.411C76.1612 154.36 67.9108 150.334 59.0406 148.804C56.1394 148.288 53.1949 148.055 50.2486 148.109C38.3725 148.248 27.0043 152.948 18.497 161.236C14.2354 165.362 10.8355 170.294 8.49419 175.744C6.15291 181.195 4.91689 187.056 4.85781 192.987C4.793 198.974 5.90991 204.914 8.14456 210.469C10.3792 216.023 13.6877 221.082 17.8805 225.355C22.1035 229.67 27.1363 233.109 32.6906 235.476C38.2448 237.842 44.2114 239.09 50.2486 239.147C62.5796 239.33 74.4894 234.664 83.4146 226.153C90.1634 219.716 94.7576 211.351 96.5682 202.202C97.1549 199.166 97.445 196.08 97.4344 192.987Z" fill="#133D1C"/>
<path d="M251.745 192.987C251.789 196.116 251.529 199.242 250.968 202.321C250.425 205.416 249.589 208.452 248.47 211.388C246.221 217.34 242.859 222.81 238.563 227.504C231.977 234.734 223.316 239.752 213.768 241.869C207.356 243.286 200.722 243.37 194.277 242.115C191.053 241.492 187.901 240.545 184.867 239.289C177.339 236.128 170.709 231.156 165.566 224.814C160.423 218.473 156.927 210.959 155.389 202.94C153.85 194.921 154.317 186.647 156.748 178.852C159.178 171.058 163.498 163.985 169.321 158.262C173.905 153.76 179.331 150.206 185.289 147.803C191.248 145.401 197.622 144.198 204.047 144.263C210.424 144.369 216.719 145.729 222.571 148.266C228.366 150.815 233.6 154.483 237.974 159.06C242.317 163.595 245.758 168.914 248.115 174.734C249.292 177.626 250.189 180.625 250.792 183.689C251.411 186.75 251.73 189.864 251.745 192.987ZM251.232 192.987C251.243 189.895 250.953 186.809 250.366 183.773C248.556 174.624 243.961 166.258 237.213 159.821C228.287 151.311 216.378 146.645 204.047 146.827C194.973 146.91 186.128 149.683 178.63 154.794C171.133 159.906 165.32 167.126 161.928 175.542C159.702 181.072 158.59 186.986 158.655 192.946C158.721 198.906 159.963 204.795 162.311 210.274C164.657 215.704 168.05 220.619 172.295 224.739C180.802 233.027 192.17 237.727 204.047 237.865C206.993 237.919 209.937 237.687 212.838 237.171C221.709 235.641 229.959 231.615 236.623 225.564C243.465 219.363 248.207 211.185 250.191 202.167C250.835 199.148 251.184 196.074 251.232 192.987Z" fill="#133D1C"/>
<path d="M116.97 178.961L78.8098 138.342V125.617H90.0875L94.7481 118.774L80.8725 117.492L81.0788 112.542C83.554 110.273 83.3477 107.179 82.3608 106.354C81.374 105.529 82.3164 103.053 82.3608 100.395C82.4053 97.7372 78.8098 96.2464 74.2718 93.8045C69.7339 91.3626 91.0829 81.0855 91.0829 81.0855C93.7134 76.3132 89.3296 75.8657 89.3296 75.8657L83.6571 78.7134C71.5903 81.6011 68.0837 89.6457 68.0837 89.6457L56.5866 90.5442L51.0959 94.586C46.9721 96.9292 46.1422 93.012 44.0532 91.6702C41.9643 90.3284 39.2726 92.0054 39.2726 92.0054C35.7109 95.0759 41.7327 98.3468 41.7327 98.3468C41.7327 98.3468 77.5579 95.6275 74.2203 104.652C74.2203 104.652 70.5074 107.591 74.0656 112.542L71.2809 138.342C71.2809 138.342 62.6601 138.076 63.2577 147.354C63.8552 156.632 58.8016 181.849 45.394 190.099C45.394 190.099 41.8874 198.35 51.1695 191.956C60.4517 185.562 69.9405 159.26 67.7745 148.896L75.1439 144.101L113.229 182.261L116.97 178.961Z" fill="#133D1C"/>
<path d="M169.199 104.762C169.199 104.762 178.026 110.892 167.3 116.461L160.081 119.778L154.511 171.948V180.188C154.511 180.188 162.968 181.888 164.825 185.684L198.653 196.912L197.209 202.166L149.838 187.972L147.704 180.92L152.758 129.137H130.472L140.691 120.934L153.892 122.03V118.774L144.616 117.525C169.199 104.762 160.017 110.359 169.199 104.762Z" fill="#133D1C"/>
<path d="M171.864 213.565C172.276 214.676 172.656 215.699 173.071 216.688C173.473 217.654 173.936 218.593 174.458 219.499C174.697 219.957 175.003 220.367 175.273 220.809C175.592 221.208 175.867 221.657 176.221 222.043C176.866 222.889 177.66 223.603 178.465 224.498C177.276 224.339 176.146 223.879 175.183 223.163C174.69 222.808 174.236 222.403 173.828 221.953C173.433 221.492 173.081 220.995 172.776 220.47C172.173 219.426 171.774 218.277 171.601 217.084C171.413 215.907 171.503 214.701 171.864 213.565Z" fill="#133D1C"/>
<path d="M230.212 167.925C231.494 167.888 232.76 168.22 233.859 168.882C234.994 169.531 235.962 170.436 236.686 171.526C236.865 171.798 237.029 172.081 237.178 172.371L237.403 172.804C237.463 172.955 237.523 173.105 237.577 173.258C237.683 173.565 237.805 173.864 237.888 174.175C237.958 174.489 238.018 174.804 238.074 175.118C238.138 175.429 238.17 175.746 238.168 176.064C238.177 176.381 238.179 176.696 238.173 177.008C238.119 177.633 238.009 178.252 237.844 178.858C237.579 178.269 237.43 177.693 237.228 177.137C237.117 176.861 237.012 176.589 236.916 176.318L236.776 175.913L236.601 175.523C236.486 175.264 236.375 175.007 236.274 174.749L235.896 174.013L235.716 173.644L235.498 173.298C235.353 173.07 235.239 172.82 235.073 172.607C234.467 171.697 233.758 170.859 232.961 170.111C232.109 169.305 231.19 168.573 230.212 167.925Z" fill="#133D1C"/>
<path d="M202.572 196.016L175.165 144.101" stroke="#133D1C" stroke-width="4.48745" stroke-miterlimit="10"/>
<path d="M206.285 196.016L222.58 144.101" stroke="#133D1C" stroke-width="4.48745" stroke-miterlimit="10"/>
<path d="M169.318 143.527H228.93" stroke="#133D1C" stroke-width="4.48745" stroke-miterlimit="10"/>
<path d="M29.511 170.058C29.612 169.092 29.901 168.155 30.3618 167.299C30.8066 166.431 31.3897 165.641 32.0882 164.961C32.8028 164.253 33.6579 163.703 34.5983 163.347C35.549 162.994 36.5908 162.972 37.5557 163.284C36.7292 163.622 35.9416 164.048 35.2065 164.554C34.5289 165.055 33.887 165.603 33.2853 166.193C32.0465 167.38 30.9316 168.725 29.511 170.058Z" fill="#133D1C"/>
<path d="M61.3801 227.95C63.5411 226.78 65.6489 225.862 67.586 224.712C68.5426 224.163 69.438 223.513 70.2572 222.775C71.101 222.005 71.7671 221.061 72.2093 220.009C72.3968 221.295 72.0661 222.604 71.2898 223.647C70.5403 224.687 69.576 225.555 68.4622 226.19C67.3901 226.815 66.2355 227.286 65.0323 227.588C63.8426 227.907 62.6091 228.029 61.3801 227.95Z" fill="#133D1C"/>
<path d="M85.1064 18.1386C85.1854 17.9258 85.3262 17.7414 85.5108 17.6092C85.6876 17.4774 85.893 17.389 86.1104 17.3513C86.36 17.3067 86.6173 17.3522 86.8364 17.4797C86.9518 17.5419 87.0443 17.6394 87.1004 17.758C87.1565 17.8765 87.1732 18.0099 87.148 18.1386C86.9888 18.0611 86.8108 18.0307 86.6349 18.0511C86.5097 18.0718 86.3824 18.0848 86.2309 18.1178C85.8597 18.1861 85.4799 18.1932 85.1064 18.1386Z" fill="#133D1C"/>
<path d="M86.1273 21.7498C86.4292 21.7393 86.7152 21.6121 86.9251 21.3948C87.135 21.1775 87.2523 20.8872 87.2523 20.5852C87.2523 20.2831 87.135 19.9928 86.9251 19.7755C86.7152 19.5582 86.4292 19.431 86.1273 19.4205C85.8253 19.431 85.5393 19.5582 85.3294 19.7755C85.1195 19.9928 85.0022 20.2831 85.0022 20.5852C85.0022 20.8872 85.1195 21.1775 85.3294 21.3948C85.5393 21.6121 85.8253 21.7393 86.1273 21.7498Z" fill="#133D1C"/>
<path d="M84.9314 27.8805C85.2835 27.6805 85.6503 27.5075 86.0287 27.3632C86.1956 27.3079 86.3512 27.2384 86.5286 27.1764C86.7095 27.1146 86.8883 27.0331 87.148 26.9601C87.1531 27.2134 87.0656 27.46 86.902 27.6535C86.7469 27.8478 86.5427 27.9972 86.3106 28.0861C86.0833 28.173 85.8385 28.2041 85.5967 28.1768C85.3482 28.1546 85.1141 28.0504 84.9314 27.8805Z" fill="#133D1C"/>
<path d="M111.216 16.1599C111.456 16.4012 111.643 16.6915 111.762 17.011C111.887 17.3282 111.962 17.6631 111.983 18.0035C111.997 18.352 111.945 18.7001 111.83 19.0292C111.712 19.3596 111.498 19.6472 111.216 19.8552C111.272 19.5092 111.322 19.2165 111.342 18.9184C111.352 18.6205 111.36 18.3305 111.343 18.0341C111.316 17.438 111.234 16.8435 111.216 16.1599Z" fill="#133D1C"/>
</svg>
