<svg width="268" height="467" viewBox="0 0 268 467" fill="none" xmlns="http://www.w3.org/2000/svg">
<path d="M160.74 191.717C165.38 190.357 169.19 185.787 172.2 182.277C173.2 181.157 170.95 180.787 170.26 181.587C167.69 184.587 164.26 188.957 160.31 190.127C158.89 190.537 159.31 192.127 160.74 191.717Z" fill="#133D1C"/>
<path d="M162.161 192.717C166.801 191.367 170.611 186.797 173.631 183.287C174.571 182.187 172.361 181.877 171.701 182.647C169.131 185.647 165.701 190.037 161.751 191.197C160.341 191.607 160.751 193.137 162.161 192.717Z" fill="#133D1C"/>
<path d="M157.8 233.547C160.364 234.839 163.165 235.591 166.03 235.757C166.68 235.757 167.64 235.577 167.92 234.887C167.974 234.752 167.992 234.605 167.973 234.461C167.954 234.317 167.898 234.18 167.81 234.064C167.723 233.947 167.607 233.855 167.474 233.796C167.341 233.737 167.195 233.714 167.05 233.727C164.413 233.557 161.838 232.852 159.48 231.657C158.34 231.117 156.15 232.767 157.8 233.547Z" fill="#133D1C"/>
<path d="M156.25 234.247C158.844 235.559 161.679 236.324 164.58 236.497C165.306 236.546 166.027 236.353 166.63 235.947C166.98 235.627 167.1 235.277 166.44 235.257C163.841 235.103 161.299 234.422 158.97 233.257C158.352 233.063 157.683 233.113 157.1 233.397C156.98 233.397 155.77 234.037 156.25 234.267V234.247Z" fill="#133D1C"/>
<path d="M200.311 67.8767C200.463 67.5329 200.637 67.199 200.831 66.8767C201.201 66.2767 201.671 65.7567 202.131 65.8767C202.317 65.9644 202.472 66.1075 202.574 66.2865C202.676 66.4655 202.72 66.6716 202.701 66.8767C202.6 67.246 202.427 67.5916 202.192 67.8937C201.956 68.1958 201.664 68.4483 201.331 68.6367C200.791 69.0567 199.891 69.0467 200.081 68.1567C200.295 67.4418 200.695 66.7965 201.241 66.2867" fill="#133D1C"/>
<path d="M201.801 67.4667C201.801 67.4667 201.901 67.4667 202.001 67.4067C202.101 67.3467 202.001 67.3167 202.061 67.2667C202.096 67.1908 202.11 67.1062 202.099 67.023C202.089 66.9397 202.054 66.8612 202.001 66.7967C201.964 66.7526 201.913 66.7225 201.856 66.7116C201.8 66.7007 201.741 66.7095 201.691 66.7367C201.562 66.8131 201.466 66.9341 201.421 67.0767C201.349 67.4519 201.172 67.7989 200.91 68.0767C200.71 68.2467 199.411 67.3867 199.641 66.8867C199.741 66.6867 199.831 66.4867 199.951 66.2867C200.149 65.9738 200.388 65.688 200.66 65.4367C200.896 65.2049 201.2 65.0545 201.528 65.0078C201.855 64.961 202.189 65.0202 202.481 65.1767C202.82 65.3755 203.091 65.674 203.256 66.0318C203.42 66.3895 203.471 66.7893 203.401 67.1767C203.275 67.7018 202.992 68.1761 202.591 68.5367C202.261 68.8518 201.883 69.1118 201.471 69.3067C201.139 69.4589 200.773 69.5177 200.41 69.4767C200.265 69.4634 200.125 69.4145 200.003 69.3342C199.881 69.254 199.78 69.145 199.711 69.0167C199.605 68.7465 199.577 68.452 199.63 68.1667C199.69 67.6687 199.835 67.1848 200.061 66.7367C200.116 66.6127 200.179 66.4925 200.251 66.3767C200.431 66.1467 200.511 66.0867 200.621 66.0767C200.775 66.0963 200.92 66.1586 201.041 66.2567C201.121 66.3167 201.211 66.3667 201.281 66.4267C201.391 66.5061 201.477 66.6143 201.53 66.7396C201.583 66.8648 201.601 67.0022 201.581 67.1367C201.661 67.4967 201.841 67.3467 201.811 67.3667C201.781 67.3867 201.811 67.4367 201.811 67.4467L201.801 67.4667Z" fill="#133D1C"/>
<path d="M261.69 68.0074C253.18 84.4074 266.13 98.2774 263.85 107.457C261.7 116.117 252.01 121.687 243.22 123.117C231.49 125.037 214.61 118.727 208.29 107.807C222.43 105.007 229.14 82.2474 232.68 77.3874C237.38 80.3874 243.5 77.1174 244.24 71.5874C244.98 66.0574 240.48 63.5874 235.16 65.3274C235.69 59.5674 233.31 49.6974 227.62 48.6474C214.89 46.2874 207.22 53.9274 194.38 51.5674C191.377 60.2987 189.662 69.4213 189.29 78.6474C188.8 87.7974 189.74 102.977 199.47 107.307C191.91 113.987 177.94 117.577 168.74 112.397C159.36 107.117 161.37 96.7774 166.74 89.2074C175.23 77.2074 187 66.1274 188.12 50.8574C184.19 49.8574 179.67 48.1174 178.55 44.2774C175.03 32.1874 198.61 -8.66263 243.46 33.7174C276.07 32.4074 265.08 61.4874 261.69 68.0074Z" fill="#133D1C"/>
<path d="M164.1 104.627C164.485 106.088 165.219 107.434 166.24 108.547C166.753 109.119 167.315 109.644 167.92 110.117C168.24 110.347 168.58 110.547 168.92 110.767C169.235 110.994 169.57 111.191 169.92 111.357C172.827 112.812 176.051 113.52 179.3 113.417C182.622 113.374 185.913 112.779 189.04 111.657C189.82 111.387 190.6 111.097 191.36 110.747C192.12 110.397 192.86 110.037 193.6 109.667C194.34 109.297 195.04 108.837 195.74 108.407L196.69 107.747C196.754 107.706 196.814 107.659 196.87 107.607C196.87 107.607 197.04 107.517 197 107.477L196.81 107.367C196.775 107.351 196.741 107.331 196.71 107.307L196.56 107.197L196.28 106.987C195.89 106.706 195.516 106.402 195.16 106.077C194.467 105.43 193.832 104.724 193.26 103.967C192.969 103.603 192.699 103.222 192.45 102.827L191.74 101.617C190.073 98.3873 188.98 94.8919 188.51 91.2874C188.005 87.7746 187.807 84.2245 187.92 80.6774C188.05 77.1374 188.32 73.6774 188.76 70.1774C189.418 65.098 190.492 60.0812 191.97 55.1774L192.52 53.3474L193.35 50.7274L193.48 50.3274V50.2474H193.59H193.79L194.62 50.3674L196.09 50.5674C196.689 50.6641 197.294 50.7209 197.9 50.7374C200.329 50.8562 202.762 50.685 205.15 50.2274C208.52 49.6074 211.87 48.5574 215.41 47.8374C217.19 47.461 218.995 47.2103 220.81 47.0874C222.643 46.9856 224.481 47.0593 226.3 47.3074L227.66 47.5074C228.174 47.6204 228.678 47.7708 229.17 47.9574C230.115 48.3763 230.968 48.9778 231.68 49.7274C233.002 51.1327 234.023 52.7933 234.68 54.6074C235.333 56.3346 235.792 58.1289 236.05 59.9574C236.18 60.8574 236.27 61.7774 236.31 62.6974C236.339 63.1235 236.339 63.5512 236.31 63.9774C236.543 63.9097 236.78 63.8595 237.02 63.8274C237.774 63.7421 238.536 63.7421 239.29 63.8274C240.898 63.9367 242.415 64.6136 243.57 65.7374C244.699 66.9106 245.339 68.4694 245.36 70.0974C245.423 71.6273 245.107 73.1489 244.44 74.5274C243.769 75.9 242.76 77.0792 241.507 77.954C240.255 78.8287 238.8 79.3702 237.28 79.5274C236.511 79.5862 235.737 79.5391 234.98 79.3874C234.599 79.3146 234.224 79.211 233.86 79.0774L233.47 78.9174C233.407 78.8935 233.347 78.8633 233.29 78.8274C233.02 78.5374 232.91 78.9574 232.76 79.1474L232.59 79.4674L232.36 79.8974L231.9 80.7874C229.666 85.7404 227.169 90.5706 224.42 95.2574C222.982 97.6099 221.332 99.8258 219.49 101.877C217.624 103.983 215.404 105.746 212.93 107.087C212.48 107.337 211.99 107.527 211.51 107.737C211.275 107.851 211.031 107.945 210.78 108.017L210.38 108.157C210.15 108.227 209.92 108.267 209.69 108.327C209.792 108.537 209.913 108.738 210.05 108.927L210.24 109.227L210.29 109.307L210.4 109.437L210.63 109.717L211.53 110.827C212.15 111.557 212.86 112.217 213.53 112.907C216.419 115.494 219.704 117.601 223.26 119.147C226.806 120.729 230.561 121.789 234.41 122.297C238.211 122.841 242.082 122.626 245.8 121.667C250.578 120.491 254.962 118.077 258.51 114.667C260.222 112.985 261.561 110.961 262.44 108.727C262.61 108.167 262.8 107.597 262.94 107.037C263.054 106.481 263.118 105.915 263.13 105.347C263.139 104.157 263.015 102.97 262.76 101.807C261.71 97.0374 259.67 92.2974 258.63 87.2374C258.067 84.6969 257.802 82.0993 257.84 79.4974C257.889 76.8771 258.341 74.28 259.18 71.7974C259.32 71.4174 259.45 71.0674 259.56 70.7374L259.96 69.8574C260.149 69.4167 260.373 68.992 260.63 68.5874C261.02 67.9574 261.25 67.7074 261.34 67.8074C261.43 67.9074 261.01 69.5174 260.46 72.0874C259.714 75.5799 259.619 79.1803 260.18 82.7074C260.553 85.079 261.104 87.419 261.83 89.7074C262.58 92.1774 263.52 94.7774 264.39 97.6174C265.296 100.236 265.759 102.987 265.76 105.757C265.76 106.127 265.7 106.497 265.65 106.877C265.6 107.257 265.52 107.637 265.42 107.987C265.232 108.665 265.008 109.333 264.75 109.987C264.488 110.651 264.181 111.296 263.83 111.917L263.31 112.847L262.71 113.717C261.091 115.975 259.079 117.922 256.77 119.467C254.51 120.985 252.067 122.211 249.5 123.117C246.95 124.062 244.288 124.67 241.58 124.927C238.875 125.135 236.155 125.041 233.47 124.647C228.156 123.831 223.038 122.045 218.37 119.377C216.035 118.013 213.847 116.411 211.84 114.597C210.853 113.658 209.928 112.656 209.07 111.597L208.43 110.797L208.35 110.687L208.22 110.497L207.97 110.107L207.46 109.327L206.46 107.777L205.96 107.007C205.76 106.837 206.08 106.857 206.18 106.807L206.63 106.687L208.41 106.197C208.72 106.117 209.05 106.057 209.34 105.957L210.03 105.717C210.584 105.521 211.125 105.29 211.65 105.027C212.71 104.486 213.715 103.843 214.65 103.107C216.57 101.563 218.287 99.7823 219.76 97.8074C222.75 93.6918 225.32 89.2864 227.43 84.6574L229.12 81.1474L230 79.3774L230.46 78.4974L230.73 78.0174C230.867 77.7629 231.017 77.5159 231.18 77.2774C231.48 76.7974 231.8 76.2774 232.12 75.8574C232.18 75.6574 232.34 75.8574 232.46 75.8574L232.84 76.0474L233.59 76.4174C233.847 76.5548 234.11 76.6783 234.38 76.7874L234.75 76.9374C235.003 77.0192 235.26 77.086 235.52 77.1374C236.579 77.3395 237.673 77.2425 238.68 76.8574C239.404 76.5794 240.079 76.1878 240.68 75.6974C241.269 75.1815 241.775 74.5777 242.18 73.9074C242.571 73.2279 242.845 72.4876 242.99 71.7174C243.059 71.3239 243.103 70.9264 243.12 70.5274C243.126 70.1421 243.096 69.757 243.03 69.3774C242.93 68.6527 242.624 67.9718 242.149 67.4154C241.674 66.8589 241.05 66.4501 240.35 66.2374C239.591 65.999 238.795 65.8974 238 65.9374L237.38 65.9874H237.2L236.9 66.0574L236.3 66.1974C235.5 66.3574 234.72 66.6074 233.92 66.8074C234.225 64.1697 234.113 61.5005 233.59 58.8974C233.207 56.8217 232.474 54.8264 231.42 52.9974C230.931 52.134 230.287 51.3679 229.52 50.7374C229.33 50.5974 229.15 50.4474 228.95 50.3174L228.35 50.0074C228.144 49.918 227.929 49.8477 227.71 49.7974L227.39 49.7074L226.98 49.6474C224.849 49.294 222.684 49.1999 220.53 49.3674C216.2 49.6774 211.94 51.0874 207.48 52.0974C205.221 52.6332 202.919 52.9679 200.6 53.0974H198.85L197.1 52.9974C196.809 52.9905 196.518 52.9638 196.23 52.9174L195.53 52.8174C195.35 52.8174 195.09 52.6574 195.09 52.9274L194.48 54.8574L193.8 57.3874C193.32 59.0574 192.9 60.7374 192.52 62.3874C191.741 65.7662 191.166 69.1891 190.8 72.6374C190.11 79.5274 189.8 86.5074 191.22 93.2074C191.808 96.5201 193.108 99.6658 195.03 102.427C195.259 102.779 195.513 103.113 195.79 103.427L196.64 104.297C196.93 104.581 197.245 104.839 197.58 105.067L198.06 105.437C198.353 105.646 198.66 105.834 198.98 105.997L200.76 106.997L200.98 107.117L201.09 107.187H201.14H201.09L200.69 107.517L199.89 108.167C199.35 108.587 198.83 109.047 198.28 109.437L197.09 110.267C191.007 114.245 183.79 116.124 176.54 115.617C174.304 115.392 172.111 114.846 170.03 113.997C167.924 113.102 166.032 111.769 164.48 110.087C162.927 108.353 161.906 106.207 161.54 103.907C161.21 101.655 161.356 99.3591 161.97 97.1674C162.556 95.0143 163.427 92.9493 164.56 91.0274C165.698 89.1609 166.947 87.3643 168.3 85.6474C170.9 82.1974 173.62 78.8674 176.19 75.4474C180.07 70.2674 183.66 64.8074 185.72 58.7374L186.4 56.4374C186.6 55.6674 186.73 54.8774 186.9 54.1074C186.996 53.7195 187.063 53.3251 187.1 52.9274L187.22 51.9274V51.5874C187.22 51.4874 187.29 51.3374 187.13 51.3474L186.42 51.1474C184.803 50.6665 183.249 49.9951 181.79 49.1474C180.223 48.2838 178.954 46.966 178.15 45.3674C177.513 43.7268 177.283 41.9562 177.48 40.2074C177.634 38.5327 177.97 36.8797 178.48 35.2774C179.529 32.1087 181.071 29.1253 183.05 26.4374C186.959 20.9714 192.624 17.0111 199.1 15.2174C204.091 13.9297 209.323 13.8954 214.33 15.1174C219.258 16.3536 223.975 18.3114 228.33 20.9274C232.618 23.5249 236.682 26.4751 240.48 29.7474L243.28 32.2474L243.79 32.6974L243.86 32.7574H244.17H246.07C248.627 32.7461 251.178 33.0042 253.68 33.5274C255.921 34.0067 258.072 34.8405 260.05 35.9974C262.082 37.233 263.779 38.9503 264.99 40.9974C265.99 42.7384 266.668 44.6456 266.99 46.6274C267.27 48.248 267.371 49.8946 267.29 51.5374C267.186 53.9526 266.807 56.3481 266.16 58.6774C265.515 61.2308 264.479 63.6695 263.09 65.9074C262.676 66.5824 262.215 67.2273 261.71 67.8374C261.12 68.4074 261.58 67.2174 262.51 64.4374C262.96 63.0474 263.51 61.2574 264.02 59.0774C264.62 56.5795 264.955 54.0254 265.02 51.4574C265.099 49.3529 264.839 47.2494 264.25 45.2274C263.655 43.2665 262.599 41.4766 261.17 40.0074C258.3 37.0874 254 35.7974 249.68 35.3974C248.61 35.2374 247.49 35.2774 246.4 35.2074L244.8 35.1174H243.8H242.99L242.38 34.5674L239.69 32.1774L238.33 31.1174L237.01 30.1174L234.37 27.9874L231.61 25.9874C230.7 25.3074 229.74 24.7174 228.78 24.1174C227.82 23.5174 226.89 22.8774 225.88 22.3674C221.998 20.0909 217.799 18.4057 213.42 17.3674C209.097 16.3726 204.604 16.3726 200.28 17.3674C191.71 19.4674 184.6 26.3674 181.37 34.6474C180.763 36.1587 180.32 37.7311 180.05 39.3374C179.756 40.8255 179.78 42.3591 180.12 43.8374C180.555 45.1396 181.442 46.243 182.62 46.9474C183.977 47.7891 185.445 48.4386 186.98 48.8774L189.19 49.5074L189.82 49.6874H189.9C189.9 49.6874 189.9 49.6874 189.9 49.7574V49.9274V50.2474L189.75 51.5474L189.53 53.3574C189.484 53.8153 189.407 54.2696 189.3 54.7174C188.932 56.5154 188.43 58.2836 187.8 60.0074C186.587 63.4232 184.997 66.6933 183.06 69.7574C179.27 75.8574 174.67 81.2474 170.47 86.7574C169.95 87.4474 169.42 88.1374 168.92 88.8374C168.42 89.5374 167.92 90.2374 167.45 90.9174C166.529 92.2906 165.752 93.755 165.13 95.2874C163.811 98.1865 163.46 101.433 164.13 104.547L164.1 104.627Z" fill="#133D1C"/>
<path d="M205.8 207.237C202.295 207.227 198.828 206.506 195.61 205.117C192.122 203.627 188.873 201.629 185.97 199.187C182.402 196.173 179.13 192.824 176.2 189.187C174.72 187.397 173.33 185.537 171.97 183.647C171.29 182.717 170.65 181.747 169.97 180.797L169.32 179.797C169.32 179.797 169.22 179.647 169.19 179.647C169.171 179.699 169.148 179.749 169.12 179.797C169.037 179.943 168.943 180.084 168.84 180.217C168.354 180.91 167.809 181.559 167.21 182.157C166.04 183.318 164.745 184.348 163.35 185.227C161.985 186.1 160.562 186.879 159.09 187.557C158.36 187.887 157.62 188.207 156.87 188.507L156.15 188.777L159.46 193.127C160.93 195.017 162.41 196.877 163.94 198.707C166.96 202.38 170.175 205.888 173.57 209.217C177.338 212.95 181.495 216.269 185.97 219.117C188.203 220.506 190.544 221.713 192.97 222.727C195.382 223.718 197.888 224.462 200.45 224.947C203.007 225.429 205.612 225.604 208.21 225.467C210.695 225.375 213.096 224.539 215.1 223.067C217.161 221.537 218.961 219.683 220.43 217.577C221.99 215.457 223.27 213.187 224.69 210.827C227.05 206.827 229.47 202.907 231.41 198.827C232.395 196.79 233.215 194.676 233.86 192.507L234.8 189.217C235.1 188.117 235.33 186.987 235.6 185.877C236.615 181.418 237.254 176.882 237.51 172.317C237.818 167.764 237.674 163.192 237.08 158.667C237 158.097 236.95 157.537 236.86 156.967L236.54 155.297C236.359 154.176 236.122 153.064 235.83 151.967L234.94 148.687L233.79 145.487C232.145 141.28 229.869 137.348 227.04 133.827C224.16 130.363 220.694 127.432 216.8 125.167C214.844 124.05 212.797 123.1 210.68 122.327C209.63 121.937 208.55 121.587 207.47 121.277L205.85 120.897C205.315 120.758 204.77 120.657 204.22 120.597C201.71 120.145 199.125 120.369 196.73 121.247C194.375 122.199 192.337 123.797 190.85 125.857C189.307 127.989 188.075 130.329 187.19 132.807C186.251 135.321 185.489 137.897 184.91 140.517C182.61 150.647 182.03 161.117 180.16 171.517C179.866 173.29 179.462 175.044 178.95 176.767C178.611 178.142 177.98 179.428 177.1 180.537C176.72 180.827 176.71 180.167 177.1 178.537C177.22 177.787 177.35 176.957 177.54 176.167C178.443 172.475 179.019 168.71 179.26 164.917C179.59 161.227 179.85 157.467 180.45 153.207C181.01 149.267 181.61 145.327 182.45 141.407C183.211 137.429 184.384 133.542 185.95 129.807C186.756 127.906 187.762 126.096 188.95 124.407C190.238 122.7 191.811 121.228 193.6 120.057C195.468 118.952 197.546 118.247 199.7 117.987C200.231 117.922 200.765 117.892 201.3 117.897C201.83 117.862 202.361 117.862 202.89 117.897L204.47 118.057C204.73 118.057 204.99 118.057 205.25 118.147L206.01 118.317C206.82 118.507 207.65 118.657 208.43 118.887C209.21 119.117 210 119.357 210.77 119.627C212.319 120.155 213.836 120.776 215.31 121.487C216.792 122.196 218.228 122.998 219.61 123.887C220.29 124.327 220.95 124.887 221.61 125.317C222.27 125.747 222.97 126.247 223.61 126.807C226.796 129.528 229.568 132.697 231.84 136.217C233.994 139.773 235.726 143.569 237 147.527C237.35 148.527 237.65 149.897 238.12 151.527C238.37 152.357 238.49 153.297 238.7 154.297C238.91 155.297 239.15 156.367 239.25 157.527C240.022 163.137 240.149 168.818 239.63 174.457C239.019 181.685 237.514 188.809 235.15 195.667C233.675 199.457 231.886 203.116 229.8 206.607C228.8 208.367 227.72 210.137 226.66 211.917C225.6 213.697 224.57 215.487 223.4 217.267C222.227 219.083 220.887 220.787 219.4 222.357C217.876 223.997 216.071 225.351 214.07 226.357C213.563 226.61 213.038 226.828 212.5 227.007L211.7 227.277L210.86 227.477C209.769 227.709 208.656 227.826 207.54 227.827C205.383 227.901 203.224 227.774 201.09 227.447C196.913 226.783 192.865 225.474 189.09 223.567C185.485 221.761 182.077 219.586 178.92 217.077C173.316 212.564 168.18 207.498 163.59 201.957C161.5 199.497 159.59 197.127 157.9 194.957L155.47 191.777C154.41 190.327 153.39 188.957 152.47 187.667L154.42 187.077L155.32 186.757L155.89 186.547C156.5 186.307 157.09 186.067 157.64 185.827C158.74 185.334 159.74 184.844 160.64 184.357C162.099 183.567 163.473 182.629 164.74 181.557C165.584 180.851 166.342 180.049 167 179.167L167.19 178.907L167.44 178.527C167.657 178.184 167.851 177.826 168.02 177.457C168.36 176.657 168.68 175.917 169.02 175.207C169.42 175.747 169.87 176.487 170.28 177.107L171.45 178.897C171.89 179.587 172.35 180.237 172.79 180.897C173.65 182.197 174.54 183.377 175.36 184.517C177.04 186.757 178.59 188.727 180.07 190.387C182.33 192.995 184.784 195.428 187.41 197.667C188.41 198.467 189.24 199.107 189.93 199.667L191.7 200.887C192.62 201.547 193.12 201.777 193.29 201.887C194.11 202.387 194.92 202.887 195.81 203.367C196.7 203.847 197.59 204.367 198.61 204.777L200.17 205.477C200.73 205.687 201.3 205.897 201.91 206.107C203.186 206.551 204.485 206.928 205.8 207.237Z" fill="#133D1C"/>
<path d="M206.71 205.057C212.49 196.397 219.11 185.427 219.43 174.777C219.43 173.887 217.28 174.327 217.26 175.047C216.93 185.657 210.45 196.387 204.69 205.047C204.14 205.867 206.31 205.687 206.69 205.047L206.71 205.057Z" fill="#133D1C"/>
<path d="M185.05 448.537H182.66C182.66 445.537 183.2 441.627 182.36 438.767C178.56 439.907 174.71 443.067 171.11 444.887C168.42 446.247 164.11 449.047 160.92 448.517C156.55 447.777 179.33 437.007 179.33 437.007C183.22 429.517 178.73 357.337 177.73 342.007C181.93 341.647 186.34 341.097 190.73 340.457C191.02 364.367 189.37 388.537 187.36 412.347C186.74 419.937 184.89 443.937 185.05 448.537Z" fill="#133D1C"/>
<path d="M189.271 342.197C189.271 342.197 189.271 342.097 189.271 342.087H189.161L186.871 342.337L181.611 342.937L179.391 343.187H179.241V343.407L179.531 348.587C179.917 355.594 180.277 362.594 180.611 369.587C180.851 374.707 181.141 379.817 181.321 384.937C181.631 393.617 181.861 402.307 181.911 410.997C181.911 415.347 181.911 419.697 181.771 424.057C181.681 426.237 181.601 428.417 181.401 430.607C181.311 431.707 181.191 432.797 181.021 433.907C180.931 434.457 180.851 435.007 180.701 435.577C180.621 435.867 180.581 436.127 180.471 436.427L180.021 437.557L177.871 438.557C174.281 440.287 170.701 442.087 167.231 444.037L166.231 444.587L165.611 444.957C165.211 445.201 164.824 445.464 164.451 445.747C164.265 445.882 164.097 446.04 163.951 446.217C163.881 446.297 163.801 446.417 163.861 446.527C163.947 446.608 164.062 446.651 164.181 446.647C164.654 446.682 165.129 446.624 165.581 446.477C165.961 446.359 166.332 446.212 166.691 446.037L167.211 445.777L168.271 445.217L170.561 443.977C171.301 443.587 172.021 443.167 172.741 442.727C174.191 441.847 175.621 440.877 177.141 439.987C177.891 439.537 178.671 439.107 179.481 438.717L179.781 438.567L180.151 438.407C180.475 438.257 180.809 438.13 181.151 438.027C181.781 437.797 182.421 437.587 183.061 437.377C183.241 437.987 183.391 438.617 183.521 439.237C183.571 439.567 183.641 439.877 183.681 440.237L183.731 440.717V441.047C183.775 441.91 183.775 442.774 183.731 443.637C183.731 444.487 183.651 445.317 183.601 446.147L183.541 447.057V447.357V447.587H183.611C183.888 447.605 184.163 447.652 184.431 447.727C184.801 447.787 185.001 447.877 185.041 447.977C185.081 448.077 184.991 448.197 184.751 448.317C184.361 448.505 183.947 448.637 183.521 448.707C183.211 448.777 182.831 448.837 182.371 448.897H182.201C182.201 448.897 182.201 448.817 182.201 448.787C182.189 448.69 182.172 448.593 182.151 448.497C182.151 448.297 182.091 448.077 182.061 447.847C182.031 447.617 181.991 447.357 181.971 447.097C181.951 446.837 181.921 446.607 181.901 446.347C181.881 446.087 181.821 445.497 181.771 445.027C181.691 444.117 181.621 443.117 181.511 442.087C181.511 441.837 181.441 441.577 181.411 441.317L181.351 440.937C181.351 440.807 181.351 440.887 181.351 440.847C181.351 440.807 181.271 440.777 181.241 440.787C181.211 440.797 181.181 440.847 181.181 440.867H181.111L180.741 441.047L180.001 441.427C178.501 442.227 177.001 443.187 175.481 444.147C174.711 444.627 173.921 445.147 173.101 445.577C172.701 445.807 172.261 446.037 171.861 446.247L170.701 446.857L169.501 447.507L168.891 447.827L168.581 447.987L168.011 448.267C166.58 449.007 165.056 449.552 163.481 449.887C162.467 450.12 161.414 450.12 160.401 449.887C160.026 449.786 159.682 449.594 159.401 449.327C159.244 449.178 159.115 449.002 159.021 448.807C158.929 448.611 158.868 448.402 158.841 448.187C158.819 447.839 158.872 447.49 158.996 447.164C159.121 446.838 159.313 446.543 159.561 446.297C160.609 445.267 161.785 444.376 163.061 443.647C163.801 443.197 164.571 442.747 165.341 442.307L166.591 441.607L169.001 440.317C170.611 439.477 172.231 438.667 173.861 437.867L176.311 436.677L177.541 436.087L178.151 435.797H178.251C178.307 435.665 178.351 435.528 178.381 435.387C178.461 435.037 178.561 434.707 178.631 434.337C178.761 433.587 178.891 432.827 178.971 432.037C179.161 430.487 179.271 428.887 179.371 427.287C179.561 424.077 179.651 420.847 179.721 417.597C179.921 405.077 179.321 392.007 178.791 379.177C178.491 372.117 178.157 365.06 177.791 358.007L177.201 347.427L176.841 341.367V341.107C176.841 341.047 176.841 341.047 176.911 341.047H177.041L177.561 340.987L178.561 340.867L180.131 340.677L182.751 340.377L189.411 339.617L190.651 339.477L191.271 339.397H191.581H191.661C191.661 339.397 191.661 339.397 191.661 339.457V345.457C191.661 349.817 191.571 354.167 191.461 358.517C191.091 371.707 190.231 384.927 189.281 397.977C188.551 408.127 187.811 418.057 187.211 428.077C187.091 430.287 186.961 432.447 186.841 434.677C186.341 442.917 186.091 445.517 185.421 447.267C185.296 447.665 185.149 448.056 184.981 448.437C184.741 448.847 184.481 448.197 184.341 446.667C184.176 444.361 184.15 442.047 184.261 439.737C184.591 430.737 185.161 421.537 185.861 412.187C186.561 402.837 187.291 393.407 187.861 383.937C188.301 376.897 188.634 369.847 188.861 362.787C188.971 359.257 189.071 355.717 189.121 352.187L189.181 346.897V342.237L189.271 342.197Z" fill="#133D1C"/>
<path d="M224.67 216.547C225.67 222.727 225.52 229.867 225.37 236.907C225.24 242.797 225.22 248.687 225.44 254.547C225.66 260.407 226.27 266.257 226.91 272.117C228.24 283.827 229.91 295.527 231.56 307.207L233.8 322.277L234.97 329.907L235.25 331.747V331.977V332.027H235.19H235.08L234.63 332.137L233.73 332.357L231.49 332.907L227.77 333.777C222.81 334.917 217.83 335.99 212.83 336.997L209.1 337.737L207.33 338.157C206.69 338.307 206.05 338.507 205.41 338.627C202.88 339.187 200.35 339.627 197.83 339.987C193.48 340.637 189.13 341.177 184.78 341.677L178.24 342.377C176.04 342.587 173.85 342.747 171.64 342.847C167.196 343.132 162.734 342.978 158.32 342.387C157.189 342.215 156.07 341.972 154.97 341.657L154.13 341.387L152.82 340.757L152.49 340.597H152.41V340.337C152.396 340.097 152.396 339.857 152.41 339.617C152.41 339.167 152.48 338.547 152.53 338.377C152.91 336.187 153.32 334.047 153.72 331.897C157 314.717 160.27 297.557 163.29 280.347C165.08 270.177 166.82 259.997 168.36 249.797C169.84 240.027 171.17 230.237 172.17 220.437C172.35 218.787 172.44 217.047 172.65 215.497C173.12 211.357 173.8 210.397 174.05 213.497C174.153 214.252 174.19 215.015 174.16 215.777C173.47 223.417 173.52 229.587 172.39 237.627C170.28 252.447 168.02 267.267 165.51 282.047C164.51 287.947 163.42 293.857 162.31 299.737C160.83 307.244 159.354 314.75 157.88 322.257C157.39 324.827 156.44 329.767 155.15 336.467C155.01 337.277 154.86 338.117 154.71 338.987C154.71 339.077 154.61 339.227 154.71 339.227L154.84 339.277L155.45 339.467C157.321 339.997 159.241 340.332 161.18 340.467C165.675 340.796 170.189 340.776 174.68 340.407C179.49 340.057 184.68 339.407 189.94 338.787C192.6 338.447 195.31 338.077 198.04 337.657C200.77 337.237 203.55 336.777 206.22 336.087C209.08 335.337 211.89 334.887 214.73 334.267C217.57 333.647 220.43 333.057 223.29 332.407C226.15 331.757 229.02 331.097 231.88 330.407L232.47 330.267H232.57C232.579 330.234 232.579 330.2 232.57 330.167L232.32 328.537L231.64 324.157C228.09 300.817 224.84 277.967 223.48 260.457C222.88 251.677 223.05 244.317 223.15 239.007C223.25 233.697 223.45 230.437 223.47 229.857C223.8 226.117 224.1 222.447 224.67 216.547Z" fill="#133D1C"/>
<path d="M211.7 448.537C211.57 449.047 209.611 448.537 209.611 448.537V437.627C206.92 439.627 195.09 448.187 189.95 448.537C184.13 448.927 207.331 435.397 207.331 435.397C210.541 427.697 198.871 356.537 196.051 339.737C200.421 339.037 205.981 337.337 210.051 336.547C209.631 336.637 215.26 434.117 211.7 448.537Z" fill="#133D1C"/>
<path d="M208.58 338.907V338.557C208.58 338.507 208.58 338.447 208.58 338.387H208.43H208.21L207.01 338.667L204.6 339.247C202.99 339.637 201.37 340.037 199.72 340.397L198.48 340.657L197.97 340.757H197.81H197.67V340.817V341.077L198.43 345.847L201.43 365.537C202.21 370.727 203.04 375.917 203.76 381.107C205 390.107 206.17 399.107 207.15 408.107C207.63 412.627 208.08 417.107 208.39 421.687C208.55 423.957 208.68 426.227 208.71 428.527C208.71 429.667 208.71 430.817 208.66 431.987C208.64 432.58 208.587 433.171 208.5 433.757C208.5 434.057 208.43 434.347 208.36 434.657L208 435.867L206.77 436.587C203.25 438.657 199.77 440.797 196.34 443.047L195.08 443.907L194.32 444.427C193.92 444.717 193.53 445.007 193.17 445.307C192.985 445.454 192.808 445.61 192.64 445.777C192.5 445.947 192.27 446.117 192.31 446.357C192.35 446.597 192.78 446.447 193.01 446.417C193.248 446.377 193.483 446.317 193.71 446.237C194.086 446.11 194.453 445.96 194.81 445.787C194.98 445.717 195.18 445.607 195.38 445.507L195.68 445.357L196.16 445.087C197.65 444.297 199.09 443.407 200.53 442.497C201.97 441.587 203.37 440.637 204.77 439.677L207.17 437.987L210.53 435.537V442.907L210.43 448.317V448.417L209.78 447.587C210.45 447.777 210.99 447.887 211.18 447.937H211.23V448.007C211.33 448.207 211.33 448.247 211.4 448.297C211.4 448.297 211.27 448.497 211.09 448.567C210.553 448.745 209.985 448.813 209.42 448.767H209.19L209.1 448.357C208.779 446.855 208.542 445.336 208.39 443.807C208.29 442.887 208.19 441.877 208.12 440.807C208.12 440.627 208.12 440.657 208.12 440.637C208.126 440.621 208.126 440.604 208.12 440.587C208.12 440.587 208.07 440.587 208.05 440.587C208.03 440.587 207.99 440.697 207.99 440.697L205.94 442.127L203.66 443.647C202.13 444.647 200.58 445.647 198.97 446.517C198.58 446.757 198.16 446.967 197.76 447.187L197.14 447.517C197.08 447.517 196.85 447.667 196.67 447.747L196.11 448.017C194.696 448.725 193.22 449.3 191.7 449.737L190.8 449.907L190.35 449.987C190.218 450.009 190.083 450.009 189.95 449.987L189.31 449.937C189.114 449.943 188.918 449.902 188.74 449.817C188.413 449.714 188.119 449.524 187.89 449.267C187.728 449.088 187.606 448.877 187.53 448.647C187.472 448.493 187.439 448.331 187.43 448.167C187.426 447.784 187.501 447.404 187.65 447.051C187.8 446.698 188.021 446.38 188.3 446.117C189.416 445.005 190.635 444 191.94 443.117L193.03 442.357L193.82 441.817L194.96 441.057L197.26 439.567C198.787 438.594 200.334 437.644 201.9 436.717L204.24 435.317L205.41 434.627L206 434.287H206.09C206.151 434.13 206.188 433.965 206.2 433.797C206.269 433.41 206.316 433.02 206.34 432.627C206.42 431.817 206.44 430.977 206.45 430.137C206.45 428.437 206.45 426.717 206.35 424.987C206.2 421.537 205.93 418.057 205.63 414.577C204.51 401.787 202.53 388.577 200.63 375.517C199.59 368.357 198.514 361.201 197.4 354.047L195.7 343.317L195.19 340.167L195.02 339.167V338.907C195.07 338.907 195.19 338.907 195.26 338.847L195.79 338.757L197.74 338.407C199.49 338.067 201.24 337.647 203 337.217L206 336.487L207.49 336.137L208.39 335.937L209.53 335.697C209.582 335.8 209.638 335.9 209.7 335.997L209.85 336.157L210.15 336.467C210.15 336.947 210.25 337.527 210.31 338.127L210.72 338.067H210.93H211.02V339.287V340.407L211.1 342.657L211.27 347.137L211.63 356.137C212.18 369.617 212.63 383.137 213.1 396.567C213.43 406.987 213.83 417.187 213.92 427.507C213.92 429.777 213.92 431.997 213.92 434.297C213.77 442.797 213.22 445.557 212.31 447.297C212.129 447.688 211.904 448.057 211.64 448.397C211.3 448.727 211.28 448.057 211.32 446.557C211.36 445.057 211.42 442.637 211.5 439.557C211.67 430.417 211.42 420.977 211.19 411.407C210.96 401.837 210.61 392.127 210.25 382.407C209.68 367.947 209.11 353.407 208.54 338.917L208.58 338.907Z" fill="#133D1C"/>
<path d="M155.45 159.757C155.091 159.732 154.73 159.732 154.37 159.757C154.085 159.758 153.8 159.728 153.52 159.667C153.007 159.542 152.522 159.321 152.09 159.017C151.324 158.515 150.598 157.953 149.92 157.337C149.254 156.678 148.654 155.955 148.13 155.177C147.838 154.769 147.587 154.334 147.38 153.877C147.255 153.603 147.164 153.314 147.11 153.017C147.085 152.828 147.085 152.636 147.11 152.447C147.121 152.268 147.148 152.091 147.19 151.917C147.232 151.749 147.289 151.585 147.36 151.427C147.442 151.237 147.55 151.058 147.68 150.897C147.924 150.561 148.251 150.295 148.63 150.127C149.002 149.956 149.42 149.91 149.82 149.997C150.214 150.127 150.578 150.334 150.89 150.607C151.484 151.133 152.036 151.705 152.54 152.317C152.98 152.747 153.54 153.317 154.1 153.787C155.19 154.787 156.31 155.787 157.43 156.837C159.41 158.663 161.049 160.826 162.27 163.227C163.363 165.666 164.088 168.255 164.42 170.907C164.652 172.351 165.006 173.773 165.48 175.157C165.712 175.785 166 176.391 166.34 176.967L166.89 177.797L167.53 178.667C167.688 178.848 167.826 179.046 167.94 179.257C168.18 179.837 167.82 180.257 167.22 180.147C167.09 180.147 166.9 180.147 166.83 180.017C166.18 179.107 165.03 178.807 164.43 177.627C163.429 175.558 162.693 173.371 162.24 171.117C162.05 170.247 161.9 169.387 161.76 168.547C161.605 167.486 161.365 166.439 161.04 165.417C160.39 163.687 159.461 162.076 158.29 160.647C156.62 158.497 153.83 156.357 151.29 153.927C150.9 153.547 150.66 153.247 150.37 152.927L149.95 152.497C149.84 152.377 149.63 152.207 149.6 152.177C149.57 152.147 149.45 152.087 149.39 152.177C149.33 152.267 149.3 152.177 149.22 152.457C149.14 152.737 149.37 153.297 149.72 153.867C150.071 154.414 150.452 154.942 150.86 155.447C151.497 156.175 152.219 156.823 153.01 157.377L154.08 158.157C154.29 158.337 154.49 158.537 154.72 158.777C154.988 159.085 155.232 159.412 155.45 159.757Z" fill="#133D1C"/>
<path d="M145.8 163.607C145.62 164.847 144.99 165.027 144.61 164.967C143.911 164.863 143.234 164.64 142.61 164.307C142.243 164.122 141.906 163.883 141.61 163.597C141.447 163.431 141.302 163.246 141.18 163.047C141.059 162.837 140.964 162.612 140.9 162.377C140.772 161.936 140.772 161.468 140.9 161.027C140.955 160.78 141.064 160.547 141.22 160.347C141.36 160.14 141.541 159.963 141.75 159.827C142.349 159.44 143.038 159.216 143.75 159.177C145.75 158.947 147.54 159.357 149.27 159.177C149.78 159.177 150.27 159.177 150.81 159.177C151.35 159.177 151.81 159.097 152.29 159.047C152.37 159.047 152.46 158.997 152.53 159.047C152.75 159.177 152.81 159.727 152.66 160.147C152.66 160.237 152.59 160.387 152.55 160.397C152.16 160.397 151.85 161.137 151.43 161.127C150.645 161.154 149.863 161.241 149.09 161.387C148.777 161.412 148.463 161.412 148.15 161.387C147.756 161.35 147.366 161.286 146.98 161.197C146.341 161.109 145.696 161.062 145.05 161.057C144.57 161.051 144.091 161.094 143.62 161.187C143.425 161.222 143.236 161.286 143.06 161.377C142.94 161.437 142.93 161.467 142.91 161.527C142.89 161.587 142.91 161.637 142.96 161.827C142.974 161.897 142.997 161.964 143.03 162.027C143.071 162.089 143.117 162.146 143.17 162.197C143.443 162.465 143.761 162.682 144.11 162.837C144.505 163.005 144.913 163.139 145.33 163.237C145.496 163.348 145.653 163.472 145.8 163.607Z" fill="#133D1C"/>
<path d="M148.911 163.797C148.674 164.228 148.32 164.583 147.89 164.822C147.46 165.061 146.972 165.174 146.481 165.147H145.801H145.571C145.261 165.188 144.954 165.245 144.651 165.317C144.137 165.414 143.648 165.611 143.211 165.897C143.204 165.911 143.2 165.926 143.2 165.942C143.2 165.957 143.204 165.973 143.211 165.987C143.261 166.057 143.281 166.107 143.351 166.197C143.471 166.371 143.624 166.52 143.801 166.637C143.871 166.685 143.949 166.722 144.031 166.747H144.091H144.301C144.469 166.78 144.639 166.8 144.811 166.807H145.201C145.397 166.808 145.59 166.855 145.764 166.946C145.938 167.036 146.087 167.167 146.201 167.327L146.251 167.397C146.257 167.426 146.257 167.457 146.251 167.487C146.272 167.535 146.289 167.585 146.301 167.637C146.307 167.713 146.307 167.79 146.301 167.867C146.328 167.965 146.328 168.069 146.301 168.167C146.273 168.293 146.236 168.416 146.191 168.537L145.921 168.937C145.776 169.155 145.659 169.39 145.571 169.637C145.513 169.79 145.482 169.953 145.481 170.117C145.481 170.357 145.481 170.347 145.731 170.517C145.811 170.517 145.871 170.577 145.961 170.607C146.051 170.637 146.071 170.607 146.421 170.687L148.051 170.787V170.937C147.988 171.428 147.958 171.922 147.961 172.417C147.958 172.995 148.148 173.558 148.501 174.017C148.764 174.273 149.078 174.472 149.422 174.601C149.766 174.73 150.134 174.786 150.501 174.767H150.831C151.101 174.767 151.321 174.717 151.541 174.867L152.011 175.097L152.371 175.287C152.844 175.547 153.304 175.827 153.751 176.127C154.693 176.748 155.521 177.526 156.201 178.427C156.931 179.427 157.571 180.477 158.201 181.527C158.831 182.577 159.391 183.527 159.951 184.527C160.068 184.685 160.159 184.86 160.221 185.047C160.321 185.547 159.871 185.887 159.341 185.747C159.221 185.747 159.051 185.747 159.001 185.627C158.581 184.847 157.631 184.557 157.211 183.737C156.398 182.265 155.44 180.878 154.351 179.597C153.97 179.146 153.551 178.728 153.101 178.347C152.481 177.801 151.812 177.316 151.101 176.897L150.861 176.757H150.581C150.286 176.765 149.99 176.742 149.701 176.687C149.336 176.644 148.977 176.56 148.631 176.437C147.736 176.117 146.986 175.485 146.521 174.657C146.279 174.207 146.113 173.721 146.031 173.217L145.971 172.847V172.617H145.811L145.431 172.537C145.251 172.487 145.051 172.407 144.871 172.337C144.439 172.155 144.071 171.849 143.814 171.457C143.557 171.065 143.424 170.605 143.431 170.137C143.433 169.767 143.491 169.4 143.601 169.047C143.619 168.977 143.646 168.91 143.681 168.847V168.777H143.531H143.421C143.224 168.714 143.033 168.634 142.851 168.537C142.468 168.338 142.129 168.066 141.851 167.737C141.729 167.595 141.619 167.445 141.521 167.287C141.403 167.101 141.3 166.907 141.211 166.707C141.112 166.473 141.061 166.221 141.061 165.967V165.597C141.061 165.477 141.131 165.357 141.171 165.237C141.264 165.015 141.393 164.809 141.551 164.627C141.7 164.469 141.864 164.325 142.041 164.197C142.31 164.022 142.599 163.878 142.901 163.767C143.368 163.594 143.85 163.463 144.341 163.377C144.781 163.307 145.161 163.257 145.511 163.237C145.63 163.221 145.751 163.221 145.871 163.237H146.091H146.471L147.261 163.287C147.822 163.416 148.374 163.587 148.911 163.797Z" fill="#133D1C"/>
<path d="M153.93 159.757C151.965 160.048 149.986 160.232 148 160.307L136.82 143.307C136.782 143.256 136.757 143.196 136.747 143.133C136.736 143.07 136.741 143.006 136.761 142.945C136.78 142.885 136.814 142.829 136.859 142.784C136.904 142.74 136.96 142.706 137.02 142.687L140.51 141.507C140.594 141.481 140.684 141.482 140.767 141.511C140.849 141.54 140.921 141.594 140.97 141.667L146.72 151.667C147.879 153.695 149.309 155.555 150.97 157.197L153.93 159.757Z" fill="#133D1C"/>
<path d="M154.04 159.017C152.46 159.237 149.63 159.947 148.7 159.387C147.47 158.627 146.21 155.597 145.42 154.387L140.8 147.467C139.9 146.097 138.44 144.537 137.86 142.997C137.72 142.637 136.76 143.837 137.71 143.237C138.312 142.998 138.926 142.791 139.55 142.617C140.72 142.047 139.87 142.047 140.26 142.757C141.44 144.857 142.66 146.937 143.86 149.027C146.21 153.328 149.32 157.167 153.04 160.357C153.72 160.927 155.65 159.937 154.73 159.157C149.6 154.817 146.73 149.577 143.42 143.837C142.57 142.377 142.19 140.737 140.28 140.837C139.28 140.907 135.82 141.837 135.63 143.167C135.44 144.497 137.57 146.507 138.1 147.297L143.57 155.597C144.47 156.967 145.57 159.777 146.95 160.717C148.5 161.817 152.04 160.717 153.78 160.477C154.97 160.337 155.52 158.807 154.04 159.017Z" fill="#133D1C"/>
<path d="M167.68 208.457C168.139 208.771 168.475 209.234 168.63 209.767C168.731 210.225 168.731 210.699 168.63 211.157C167.912 214.082 166.907 216.929 165.63 219.657C164.57 222.007 163.36 224.257 162.17 226.527C161.297 228.207 160.41 229.874 159.51 231.527L157.34 235.467L157.95 235.657L161.67 236.777L165.25 237.777C165.457 237.813 165.658 237.873 165.85 237.957C165.946 238.001 166.027 238.071 166.084 238.16C166.141 238.249 166.171 238.352 166.171 238.457C166.171 238.562 166.141 238.665 166.084 238.754C166.027 238.843 165.946 238.913 165.85 238.957C165.74 239.017 165.61 239.117 165.52 239.097C164.59 238.837 163.67 239.237 162.7 238.917C160.92 238.347 159.08 237.967 157.26 237.487L155.99 237.117L154.4 236.637L155.01 235.637C155.25 235.227 155.5 234.827 155.74 234.407L156.13 233.797L156.9 232.587C157.56 231.467 160.55 226.077 163.07 220.767C164.33 218.117 165.5 215.487 166.22 213.467C166.59 212.467 166.85 211.607 167.03 210.997C167.21 210.387 167.27 209.997 167.29 209.937C167.34 209.507 167.44 209.117 167.68 208.457Z" fill="#133D1C"/>
<path d="M145.8 255.397C146.719 253.755 147.783 252.199 148.98 250.747C149.39 250.227 149.77 249.677 150.19 249.167C151.68 247.367 153.19 245.637 154.59 243.797C155.186 242.987 155.712 242.127 156.16 241.227C156.686 240.135 157.089 238.988 157.36 237.807C157.44 237.467 157.92 237.467 158.36 237.857C158.637 238.12 158.833 238.456 158.926 238.826C159.018 239.197 159.002 239.585 158.88 239.947C158.398 241.315 157.725 242.608 156.88 243.787C156.092 244.919 155.226 245.994 154.29 247.007C153.18 248.217 152.2 249.597 151.17 250.877C150.034 252.258 148.978 253.704 148.01 255.207C147.414 256.097 146.971 257.081 146.7 258.117C146.66 258.299 146.63 258.482 146.61 258.667C146.61 258.847 146.61 259.007 146.61 259.217L146.7 260.477C146.768 261.306 146.882 262.131 147.04 262.947C147.243 264.146 147.685 265.293 148.34 266.317C148.402 266.407 148.473 266.491 148.55 266.567C148.607 266.641 148.679 266.702 148.76 266.747C149 266.957 149.08 266.927 149.2 267.037C149.36 267.156 149.502 267.297 149.62 267.457C149.7 267.557 149.8 267.647 149.88 267.737C149.96 267.827 150 268.087 149.79 268.297C149.657 268.425 149.496 268.521 149.32 268.577C149.047 268.638 148.764 268.638 148.49 268.577C148.26 268.519 148.038 268.432 147.83 268.317L147.3 267.937C147.032 267.667 146.794 267.369 146.59 267.047C146.227 266.466 145.938 265.841 145.73 265.187C145.35 263.958 145.089 262.696 144.95 261.417C144.89 260.957 144.84 260.487 144.8 260.027L144.75 259.337C144.73 259.041 144.73 258.743 144.75 258.447C144.898 257.394 145.236 256.378 145.75 255.447L145.8 255.397Z" fill="#133D1C"/>
<path d="M148.8 263.117C148.67 262.977 148.74 262.807 148.93 262.597C149.023 262.521 149.141 262.482 149.26 262.487L149.52 262.697C149.52 262.747 149.99 263.577 150.15 263.847C150.294 264.106 150.424 264.373 150.54 264.647C150.66 264.927 150.78 265.197 150.92 265.457L151.13 265.847C151.18 265.927 151.13 265.847 151.13 265.847C151.13 265.987 151.24 266.097 151.27 265.997C151.3 265.897 151.27 265.997 151.27 265.917C151.27 265.837 151.18 265.827 151.2 265.797C151.118 265.363 151.058 264.926 151.02 264.487C151 264.425 151 264.359 151.02 264.297C151.064 264.16 151.064 264.013 151.02 263.877C151.005 263.687 151.005 263.496 151.02 263.307C151.047 263.21 151.091 263.118 151.15 263.037C151.2 262.957 151.34 263.037 151.36 263.037C151.38 263.037 151.47 263.037 151.53 263.037H151.6C151.6 263.037 151.89 263.987 151.93 264.037C151.97 264.087 151.93 264.127 151.99 264.257C152.029 264.416 152.075 264.573 152.13 264.727C152.19 264.907 152.26 265.087 152.32 265.227L152.53 265.737C152.582 265.891 152.625 266.048 152.66 266.207C152.772 266.528 152.829 266.866 152.83 267.207C152.823 267.442 152.722 267.665 152.55 267.827C152.431 267.943 152.28 268.021 152.117 268.053C151.954 268.085 151.785 268.069 151.63 268.007C151.573 267.982 151.512 267.965 151.45 267.957C150.84 267.701 150.35 267.222 150.08 266.617C150 266.477 149.94 266.357 149.86 266.227C149.78 266.097 149.75 266.027 149.7 265.927C149.65 265.827 149.7 265.847 149.7 265.807C149.69 265.758 149.673 265.711 149.65 265.667C149.41 265.187 149.25 264.667 149.02 264.217C148.96 264.107 148.86 263.537 148.8 263.417C148.74 263.297 148.8 263.117 148.8 263.117Z" fill="#133D1C"/>
<path d="M152.89 261.117C152.89 261.027 152.97 260.967 153.22 260.937C153.336 260.914 153.455 260.914 153.57 260.937C153.62 260.991 153.667 261.048 153.71 261.107C153.753 261.345 153.783 261.586 153.8 261.827C153.82 261.987 153.82 262.148 153.8 262.307C153.8 262.627 153.75 262.937 153.74 263.247C153.746 263.314 153.746 263.381 153.74 263.447C153.681 263.67 153.681 263.904 153.74 264.127C153.732 264.145 153.728 264.163 153.728 264.182C153.728 264.201 153.732 264.22 153.74 264.237C153.816 264.447 153.879 264.66 153.93 264.877C153.924 265.045 153.955 265.212 154.02 265.367C154.02 265.367 154.02 265.367 154.02 265.447C154.02 265.527 154.02 265.577 154.08 265.617L154.23 265.797C154.234 265.851 154.234 265.904 154.23 265.957C154.223 266.029 154.191 266.096 154.14 266.147C154.08 266.147 154.08 266.247 154.06 266.297V266.357C153.938 266.383 153.812 266.383 153.69 266.357C153.549 266.321 153.414 266.263 153.29 266.187C153.156 266.064 153.033 265.93 152.92 265.787C152.806 265.621 152.702 265.447 152.61 265.267C152.595 265.208 152.595 265.146 152.61 265.087C152.514 264.837 152.437 264.579 152.38 264.317C152.38 264.167 152.32 264.017 152.38 263.877C152.39 263.848 152.39 263.816 152.38 263.787C152.37 263.542 152.39 263.297 152.44 263.057C152.44 262.937 152.44 262.817 152.44 262.697C152.44 262.577 152.44 262.647 152.44 262.627C152.446 262.601 152.446 262.574 152.44 262.547C152.44 262.267 152.54 261.997 152.53 261.717C152.53 261.647 152.68 261.367 152.67 261.287C152.66 261.207 152.92 261.117 152.89 261.117Z" fill="#133D1C"/>
<path d="M154.54 257.977C154.49 257.897 154.62 257.867 154.88 257.857C154.974 257.844 155.069 257.86 155.153 257.903C155.237 257.946 155.306 258.014 155.35 258.097C155.35 258.097 155.35 258.567 155.4 258.707C155.421 258.84 155.421 258.974 155.4 259.107C155.342 259.35 155.302 259.598 155.28 259.847C155.289 259.897 155.289 259.947 155.28 259.997C155.198 260.15 155.176 260.329 155.22 260.497C155.22 260.497 155.22 260.547 155.27 260.557C155.338 260.675 155.395 260.799 155.44 260.927C155.44 261.043 155.479 261.156 155.55 261.247C155.55 261.247 155.55 261.247 155.55 261.307C155.55 261.367 155.55 261.417 155.62 261.447C155.684 261.477 155.741 261.517 155.79 261.567C155.816 261.611 155.836 261.658 155.85 261.707C155.864 261.739 155.871 261.773 155.871 261.807C155.871 261.841 155.864 261.875 155.85 261.907C155.85 261.907 155.85 262.017 155.85 262.077V262.137C155.64 262.219 155.412 262.243 155.19 262.207C155.039 262.148 154.898 262.067 154.77 261.967C154.611 261.855 154.47 261.72 154.35 261.567C154.32 261.515 154.299 261.457 154.29 261.397C154.162 261.174 154.065 260.936 154 260.687C153.95 260.551 153.95 260.403 154 260.267C154 260.267 154 260.267 154 260.197C153.999 259.98 154.029 259.765 154.09 259.557C154.096 259.454 154.096 259.35 154.09 259.247V259.197C154.09 259.197 154.09 259.197 154.09 259.137C154.153 258.91 154.203 258.68 154.24 258.447C154.24 258.397 154.4 258.177 154.4 258.117C154.4 258.057 154.56 258.017 154.54 257.977Z" fill="#133D1C"/>
<path d="M192.56 124.797C192.807 125.333 192.925 125.92 192.906 126.51C192.887 127.1 192.731 127.677 192.45 128.197C191.713 129.688 191.182 131.273 190.87 132.907C190.744 133.67 190.717 134.447 190.79 135.217C190.891 135.916 191.111 136.592 191.44 137.217C192.015 138.286 192.983 139.089 194.14 139.457C195.408 139.747 196.734 139.642 197.94 139.157C200.229 138.236 202.298 136.843 204.01 135.067C205.87 133.317 207.61 131.377 209.59 129.567C210.769 128.468 212.052 127.487 213.42 126.637C214.73 125.819 216.109 125.116 217.54 124.537C217.771 124.418 218.016 124.33 218.27 124.277C218.94 124.197 219.27 124.707 218.93 125.277C218.86 125.407 218.8 125.597 218.7 125.637C217.62 126.037 217.09 127.057 216.05 127.547C215.089 127.997 214.186 128.561 213.36 129.227C212.53 129.897 211.76 130.647 210.99 131.407C210.37 132.007 209.74 132.627 209.1 133.227L206.57 135.537C205.123 136.968 203.561 138.279 201.9 139.457C200.479 140.419 198.898 141.12 197.23 141.527C196.271 141.76 195.277 141.808 194.3 141.667C193.262 141.523 192.278 141.117 191.44 140.487C190.641 139.86 189.978 139.078 189.49 138.187C189.051 137.327 188.77 136.396 188.66 135.437C188.544 133.817 188.762 132.19 189.3 130.657C189.804 129.162 190.457 127.721 191.25 126.357C191.647 125.805 192.085 125.283 192.56 124.797Z" fill="#133D1C"/>
<path d="M187.12 136.257C187.569 136.59 187.943 137.012 188.219 137.498C188.494 137.983 188.665 138.522 188.72 139.077C188.791 139.785 189.004 140.471 189.348 141.093C189.692 141.715 190.159 142.261 190.72 142.697C191.917 143.527 193.325 143.998 194.78 144.057C197.445 144.047 200.031 143.15 202.13 141.507C206.07 138.747 209.33 134.957 213.13 131.597C214.281 130.572 215.519 129.648 216.83 128.837C218.122 128.109 219.458 127.461 220.83 126.897C221.047 126.779 221.279 126.691 221.52 126.637C221.649 126.599 221.787 126.602 221.914 126.648C222.04 126.694 222.149 126.778 222.224 126.89C222.299 127.002 222.336 127.135 222.33 127.269C222.324 127.404 222.275 127.533 222.19 127.637C222.13 127.757 222.08 127.947 221.98 127.987C220.98 128.387 220.45 129.397 219.43 129.847C217.593 130.737 215.938 131.961 214.55 133.457C213.95 134.027 213.33 134.597 212.7 135.157L210.24 137.297C209.68 137.797 208.17 139.297 206.02 141.147C204.829 142.173 203.566 143.112 202.24 143.957C200.743 144.937 199.084 145.645 197.34 146.047C195.559 146.42 193.71 146.302 191.99 145.707C191.197 145.432 190.443 145.052 189.75 144.577C189.109 144.122 188.554 143.556 188.11 142.907C187.469 141.931 187.056 140.824 186.9 139.667C186.832 139.2 186.792 138.729 186.78 138.257C186.822 137.58 186.935 136.91 187.12 136.257Z" fill="#133D1C"/>
<path d="M16.0704 42.2971C20.4804 50.0471 22.3404 59.5371 29.3504 65.5771C35.3504 70.7571 43.7203 72.3971 51.4803 71.4871C67.1803 69.6371 79.9203 56.5871 83.4803 41.5471C83.7303 40.4771 80.8204 40.9071 80.5804 41.9071C77.2004 56.1071 65.1504 69.2871 49.9004 69.9971C41.7804 70.3771 33.9003 67.5771 28.8103 61.0471C24.3003 55.2571 22.5503 47.8471 18.9503 41.5171C18.3903 40.5171 15.6004 41.5171 16.0504 42.2971H16.0704Z" fill="#133D1C"/>
<path d="M25.0501 33.9873C24.1816 35.2509 22.9759 36.2452 21.5701 36.8573C21.3718 36.9676 21.1928 37.1095 21.0401 37.2773C20.9009 37.4113 20.7888 37.5708 20.7101 37.7473C20.6301 37.9973 20.6301 38.0573 20.8801 38.4073C21.6409 39.1575 22.5504 39.74 23.5501 40.1173C25.8217 41.0632 28.1617 41.8354 30.5501 42.4273L32.1101 42.8473L33.7101 43.2873C34.7101 43.5973 35.7101 43.8773 36.7801 44.1373C38.8506 44.6511 40.9469 45.055 43.0601 45.3473C50.3499 46.3071 57.7477 46.0673 64.9601 44.6373C67.0894 44.2312 69.1931 43.7003 71.2601 43.0473C73.2601 42.4273 75.2101 41.6973 77.1501 40.9373C77.4702 40.7807 77.8052 40.6568 78.1501 40.5673C79.0301 40.3973 79.4601 40.8973 79.0101 41.5673C78.9101 41.7273 78.8201 41.9473 78.6601 42.0073C77.1401 42.6173 76.1801 43.8173 74.5101 44.3573C71.4501 45.3573 68.3801 46.4573 65.1701 47.1273C63.898 47.3988 62.6131 47.6057 61.3201 47.7473C59.6601 47.9373 58.0001 47.9873 56.3201 48.0673C53.4587 48.2145 50.5915 48.2145 47.7301 48.0673C42.8739 47.7832 38.0626 46.9752 33.3801 45.6573C31.0101 44.9873 28.5301 44.3973 26.2801 43.6573C24.1267 43.0308 22.0827 42.0763 20.2201 40.8273C19.7741 40.4859 19.38 40.0817 19.0501 39.6273C18.6729 39.0836 18.4929 38.4273 18.5401 37.7673C18.6065 37.2028 18.8319 36.6687 19.1901 36.2273C19.4506 35.9084 19.7496 35.6229 20.0801 35.3773C20.5256 35.0745 21.0057 34.8261 21.5101 34.6373C21.7123 34.5519 21.9193 34.4785 22.1301 34.4173C23.0867 34.177 24.0649 34.0329 25.0501 33.9873Z" fill="#133D1C"/>
<path d="M38.9905 43.3071C38.7996 42.9346 38.7364 42.5097 38.8104 42.0978C38.8845 41.6859 39.0918 41.3097 39.4005 41.0271C40.9559 39.6233 42.6287 38.3553 44.4005 37.2371C45.9874 36.27 47.6867 35.501 49.4605 34.9471C49.8565 34.8168 50.2607 34.7132 50.6705 34.6371C51.0947 34.5454 51.5267 34.4952 51.9605 34.4871C52.4229 34.462 52.8866 34.4956 53.3405 34.5871C53.7782 34.6778 54.2067 34.8083 54.6205 34.9771C56.2019 35.6888 57.5328 36.8595 58.4405 38.3371C58.9369 39.1325 59.3909 39.9537 59.8005 40.7971C60.1248 41.492 60.5346 42.1438 61.0205 42.7371C61.0905 42.7371 61.1805 42.8471 61.1805 42.8971C61.1805 42.9471 61.0605 43.6571 60.6405 43.8971C60.5505 43.8971 60.3905 44.0171 60.3305 43.9771C59.7805 43.5371 58.9105 43.3771 58.5605 42.7071C58.0051 41.5685 57.3349 40.4896 56.5605 39.4871C56.2805 39.1171 56.0005 38.7471 55.7105 38.4071C55.3621 37.9586 54.959 37.5555 54.5105 37.2071C53.7024 36.6882 52.7488 36.4428 51.7905 36.5071C49.9887 36.7712 48.258 37.3934 46.7005 38.3371C44.372 39.6796 42.1489 41.1973 40.0505 42.8771C39.7095 43.0491 39.355 43.1929 38.9905 43.3071Z" fill="#133D1C"/>
<path d="M45.6906 43.1171C46.8306 42.1971 49.0006 39.8171 50.4606 41.0271C51.3541 42.0009 52.0745 43.1203 52.5906 44.3371C52.9306 44.9271 54.9906 44.1471 54.7606 43.7571C53.8506 42.1671 53.0306 39.8071 50.9306 39.5771C48.3306 39.2771 45.8606 41.4771 44.0006 42.9671C43.1206 43.6771 45.2706 43.4571 45.6906 43.1171Z" fill="#133D1C"/>
<path d="M30.8901 41.7571C30.0101 40.7571 30.0901 40.0571 30.3501 39.4971C31.2139 37.5824 32.241 35.7456 33.4201 34.0071C34.4791 32.4807 35.7255 31.0932 37.1301 29.8772C37.4439 29.5991 37.7782 29.345 38.1301 29.1171C38.478 28.8565 38.8536 28.6351 39.2501 28.4571C39.6595 28.2431 40.0972 28.0882 40.5501 27.9972C40.9868 27.8969 41.4323 27.84 41.8801 27.8271C43.6151 27.8492 45.3039 28.3889 46.7301 29.3772C47.5115 29.901 48.2627 30.4686 48.9801 31.0771C49.5574 31.5816 50.1958 32.0116 50.8801 32.3571C50.9601 32.3571 51.0701 32.3572 51.0901 32.4472C51.1502 32.6262 51.1715 32.8161 51.1526 33.004C51.1336 33.1919 51.0748 33.3737 50.9801 33.5371C50.9101 33.6171 50.8001 33.7572 50.7201 33.7372C50.0501 33.5572 49.1801 33.7371 48.5901 33.2871C47.6217 32.4566 46.5694 31.7294 45.4501 31.1171C45.0301 30.8971 44.6401 30.6671 44.2301 30.4671C43.7321 30.1938 43.2011 29.9855 42.6501 29.8472C41.7014 29.7011 40.7308 29.8623 39.8801 30.3072C38.3349 31.2687 37.0012 32.5343 35.9601 34.0272C34.3616 36.1895 32.9339 38.4731 31.6901 40.8571C31.444 41.1748 31.1767 41.4755 30.8901 41.7571Z" fill="#133D1C"/>
<path d="M37.2105 38.5571C37.7781 37.3494 38.4472 36.1919 39.2105 35.0971C39.9105 34.1771 40.3205 34.2171 41.2105 34.7571C41.7639 35.085 42.2951 35.4492 42.8005 35.8471C43.2505 36.1971 45.1105 35.3271 44.8505 35.1271C43.1705 33.8071 41.6505 32.9271 39.5105 33.6871C37.3705 34.4471 36.1505 36.9771 35.1205 38.9571C35.0005 39.1971 36.9805 39.0971 37.2605 38.5571H37.2105Z" fill="#133D1C"/>
<path d="M57.0505 35.9271C56.5305 34.7371 56.8505 34.1272 57.2705 33.7372C58.7127 32.3738 60.3635 31.2496 62.1605 30.4072C63.7943 29.6687 65.5793 29.3261 67.3705 29.4072C68.9646 29.5151 70.4978 30.0619 71.8005 30.9872C73.0753 31.942 74.0531 33.2389 74.6205 34.7272C74.9358 35.5523 75.1833 36.4018 75.3605 37.2672C75.5505 38.0572 75.7305 38.8472 75.9305 39.5572C75.9305 39.6772 76.0305 39.7872 76.0105 39.8972C75.9505 40.2171 75.4505 40.4572 75.0105 40.3372C74.9005 40.3372 74.7405 40.3372 74.7205 40.2272C74.5505 39.6372 73.7705 39.2271 73.7205 38.6371C73.5291 37.5258 73.1611 36.4522 72.6305 35.4571L72.0705 34.3472C71.843 33.8775 71.5537 33.4403 71.2105 33.0472C70.9805 32.8075 70.7257 32.593 70.4505 32.4072C69.9646 32.0941 69.4402 31.8454 68.8905 31.6672C67.3449 31.2455 65.7068 31.3118 64.2005 31.8571C62.6565 32.3997 61.1984 33.1607 59.8705 34.1172C58.7705 34.8872 58.1005 35.4871 58.0205 35.5371C57.7067 35.6897 57.3825 35.82 57.0505 35.9271Z" fill="#133D1C"/>
<path d="M62.8002 39.7968C64.0802 39.0868 66.3402 37.1968 67.8802 37.4868C70.7102 38.0368 66.6102 41.4868 65.9602 42.1068C64.9602 43.1068 67.0902 43.4368 67.7702 42.7468C69.2602 41.2568 73.1002 38.0268 69.6902 36.2768C67.0602 34.9168 64.0502 37.2768 61.8402 38.5068C60.5502 39.2268 61.7202 40.3968 62.8402 39.7968H62.8002Z" fill="#133D1C"/>
<path d="M32.8004 33.2971C29.6504 33.5771 22.4304 35.2371 25.0904 39.8071C25.7904 41.0171 28.5304 39.8671 27.7304 38.4871C26.3904 36.1771 31.3604 35.6771 32.5804 35.5671C34.2604 35.4271 34.7704 33.1271 32.8004 33.2971Z" fill="#133D1C"/>
<path d="M55.6106 181.217C55.5306 187.427 47.8506 189.217 44.8206 183.857C44.3054 182.922 44.0614 181.861 44.1159 180.795C44.1704 179.728 44.5212 178.698 45.129 177.82C45.7368 176.942 46.5774 176.252 47.5564 175.825C48.5353 175.399 49.6138 175.254 50.6706 175.407C52.0853 175.549 53.39 176.233 54.3111 177.317C55.2321 178.4 55.6978 179.798 55.6106 181.217Z" fill="#133D1C"/>
<path d="M54.1604 181.397C54.0704 183.397 53.1604 185.887 50.9204 186.217C48.6804 186.547 46.4704 184.457 45.8004 182.417C44.9604 179.877 46.4204 176.067 49.5304 176.157C52.6404 176.247 54.0904 178.907 54.1604 181.597C54.1604 182.467 57.0804 181.917 57.0604 180.827C56.8004 171.117 40.8004 173.817 42.8004 182.657C44.5604 190.587 56.7404 188.657 57.1104 181.027C57.1104 179.877 54.2104 180.467 54.1604 181.397Z" fill="#133D1C"/>
<path d="M35.9303 169.377C35.8503 168.287 35.3603 165.687 36.0103 164.717L40.6603 162.717C41.7603 162.987 42.8503 163.297 43.9203 163.657C45.6522 164.297 47.4613 164.704 49.3003 164.867C53.7203 164.967 60.6003 160.867 62.5703 166.607C63.7003 169.887 63.0503 173.477 64.4403 176.747C66.4903 181.607 71.7203 187.187 66.0103 191.897C64.0103 193.517 61.4903 194.167 59.2603 195.287C57.0303 196.407 55.6403 198.067 53.6503 199.207C48.9603 201.887 46.3203 195.567 41.9303 194.847C35.8003 193.847 28.8103 189.657 31.3803 182.167C32.2003 179.777 34.3303 178.047 35.3203 175.757C36.2303 173.657 36.0803 171.667 35.9303 169.417C35.8703 168.557 32.9303 169.137 33.0303 170.197C33.3203 174.547 31.8203 176.727 29.7103 180.197C28.5782 181.865 27.9881 183.842 28.0203 185.857C28.2503 190.587 31.8103 194.307 36.1803 195.697C39.1803 196.637 42.1803 196.427 44.4603 198.817C45.8203 200.217 46.9503 201.747 48.9403 202.197C53.3903 203.197 56.3603 198.677 59.7603 196.717C63.5503 194.527 68.6803 193.647 70.7603 189.307C73.2503 184.137 68.8403 179.987 67.1203 175.437C65.8203 172.007 66.7903 167.667 64.9303 164.437C63.2203 161.507 59.7103 161.577 56.7203 162.067C54.3203 162.467 51.9103 163.297 49.4303 163.067C47.6103 162.937 45.7403 161.967 43.9803 161.497C41.8852 160.8 39.6437 160.666 37.4803 161.107C32.9803 162.277 32.7403 166.047 33.0203 170.107C33.0903 171.017 36.0003 170.437 35.9303 169.377Z" fill="#133D1C"/>
<path d="M97.3403 49.8671C97.6891 51.3306 97.9529 52.8131 98.1303 54.3071C98.2183 55.8965 98.2016 57.4899 98.0803 59.0771C98.0199 59.8981 97.8996 60.7136 97.7203 61.5171L97.2203 63.9671C97.0284 64.7862 96.7812 65.5914 96.4803 66.3771L95.6503 68.7671C92.4835 76.6794 87.3168 83.634 80.6558 88.9505C73.9949 94.267 66.0678 97.7632 57.6503 99.0971C52.0454 100.042 46.3176 99.9917 40.7303 98.9471L39.8203 98.8071C39.5303 98.7471 39.2303 98.6671 38.9403 98.5871L37.1603 98.1371C35.9698 97.8724 34.8 97.5215 33.6603 97.0871C32.5103 96.6671 31.3603 96.2671 30.2303 95.8171L26.9303 94.2171C25.8391 93.6728 24.7806 93.0651 23.7603 92.3971L22.2003 91.3971C21.6803 91.0771 21.2003 90.6771 20.7203 90.3171C19.7203 89.5771 18.7203 88.8771 17.8203 88.0971L15.1203 85.6271C8.07104 78.7872 3.20038 70.0166 1.12034 60.4171C-0.616137 52.186 -0.293252 43.6534 2.06033 35.5771C2.31033 34.5771 2.75033 33.5771 3.06033 32.5771L3.61034 31.0971L3.88034 30.3671L4.22034 29.6571C5.06587 27.7394 6.04148 25.8817 7.14034 24.0971C9.2973 20.5081 11.8941 17.2025 14.8703 14.2571C16.3709 12.7959 17.9642 11.4331 19.6403 10.1771C20.4803 9.55708 21.3003 8.89708 22.1703 8.31708L24.8503 6.68708C25.3003 6.42708 25.7403 6.12708 26.2003 5.88708L27.6203 5.20708L30.4503 3.85708L33.4003 2.76708L34.8803 2.23708L36.3903 1.83708C44.4977 -0.433528 53.0498 -0.602162 61.2403 1.34708C66.0685 2.46625 70.6936 4.32844 74.9503 6.86708C75.9503 7.52708 77.0903 8.10708 78.0803 8.86708L81.0803 11.0871C82.0803 11.8471 82.9203 12.7271 83.8503 13.5471C84.3003 13.9671 84.7903 14.3571 85.2003 14.8071L86.4503 16.1771L87.6503 17.4871L88.2503 18.1471L88.7803 18.8571L90.9203 21.6971C91.5903 22.6971 92.1803 23.6971 92.8103 24.6971C93.1103 25.2071 93.4503 25.6971 93.7203 26.2271L94.5003 27.8271L95.2803 29.4271C95.559 29.9491 95.7996 30.4905 96.0003 31.0471L97.2403 34.3871C97.6503 35.4971 97.8803 36.6771 98.2403 37.8171L98.7003 39.5371C98.8303 40.1171 98.8903 40.7071 98.9903 41.2971C99.3258 42.8567 99.5232 44.4428 99.5803 46.0371C99.5803 50.1171 98.8903 50.9771 98.1903 48.0971C97.9771 47.4155 97.8265 46.716 97.7403 46.0071C97.7403 45.5671 97.7403 45.1271 97.6403 44.6971C97.5403 44.2671 97.4903 43.8571 97.4103 43.4371C97.2503 42.6071 97.0803 41.7971 96.9203 40.9871C96.7514 40.1915 96.5241 39.4093 96.2403 38.6471L95.4703 36.3671C95.2068 35.6019 94.8962 34.8539 94.5403 34.1271L93.5403 31.8671C93.2303 31.0971 92.7603 30.3771 92.3803 29.5971L91.1803 27.2071C87.8847 21.2541 83.3161 16.1016 77.8003 12.1171C72.318 8.12621 66.0436 5.3573 59.4003 3.99708C54.0948 2.97326 48.66 2.8011 43.3003 3.48708C36.4282 4.37593 29.8357 6.76574 23.9903 10.4871C23.3664 10.8632 22.7683 11.2808 22.2003 11.7371L19.8403 13.4871L17.1203 15.9471C16.8703 16.1771 16.6103 16.3871 16.3703 16.6371L15.6503 17.4271L14.1703 19.1171C13.9203 19.4071 13.6403 19.6871 13.3903 19.9971C13.1403 20.3071 12.9003 20.6371 12.6603 20.9971L11.1403 22.9971C10.6135 23.7181 10.1293 24.4694 9.69034 25.2471C9.22034 26.0271 8.69034 26.8171 8.25034 27.6471C7.81034 28.4771 7.41033 29.3971 6.98033 30.2871C6.77033 30.7371 6.53034 31.1871 6.33034 31.6571C6.13034 32.1271 5.98034 32.6571 5.80034 33.0971C5.45034 34.0971 5.06033 35.0971 4.73033 36.0971C4.40033 37.0971 4.19033 38.1871 3.92033 39.2571C2.45354 45.5037 2.28358 51.9848 3.42094 58.2997C4.55831 64.6146 6.97882 70.6291 10.5329 75.9714C14.0869 81.3137 18.6989 85.8703 24.0839 89.3595C29.4688 92.8486 35.5121 95.1962 41.8403 96.2571L43.7603 96.5571C44.3978 96.6753 45.0427 96.7488 45.6903 96.7771L49.5303 96.9671C52.0383 96.951 54.5418 96.7504 57.0203 96.3671C58.2349 96.221 59.4378 95.9904 60.6203 95.6771C61.7903 95.3571 62.9703 95.1071 64.1003 94.7471L67.4003 93.5371C67.9462 93.3493 68.4776 93.1221 68.9903 92.8571L70.5203 92.1071L72.0403 91.3771C72.5403 91.1271 73.0403 90.8171 73.4703 90.5371C74.4003 89.9571 75.3403 89.4171 76.2303 88.8371C77.1203 88.2571 77.9203 87.5771 78.7503 86.9571C79.1503 86.6471 79.5803 86.3671 79.9503 86.0271L81.0603 85.0271C85.905 80.7367 89.8043 75.4855 92.5103 69.6071C92.7603 69.0571 93.0303 68.6071 93.2403 68.0571C93.4503 67.5071 93.6003 67.0571 93.7603 66.6171L94.6203 64.2771C95.0503 62.9471 95.2103 62.0871 95.3003 61.8371L96.0003 59.3671C96.1603 58.5071 96.3303 57.6171 96.5103 56.6671C96.9349 54.4209 97.2121 52.1494 97.3403 49.8671Z" fill="#133D1C"/>
<path d="M49.8005 91.6169C44.8905 93.2869 38.6205 92.6169 33.1305 90.3569C23.7639 86.5937 15.9876 79.7059 11.1209 70.8622C6.25433 62.0184 4.59714 51.7634 6.43053 41.8369L6.56052 41.0369L6.75052 40.2569L7.15053 38.6869C7.38907 37.6335 7.6998 36.5977 8.08052 35.5869C8.46052 34.5869 8.81052 33.5869 9.21052 32.5869L10.6205 29.6769C11.1046 28.7143 11.6421 27.7795 12.2305 26.8769L13.0805 25.5069C13.3605 25.0369 13.7105 24.6369 14.0805 24.1969C14.7405 23.3469 15.3505 22.4569 16.0805 21.6369L18.2605 19.2569C21.2877 16.187 24.7314 13.558 28.4905 11.4469C32.2628 9.39136 36.301 7.86694 40.4905 6.91692C47.7616 5.38777 55.2977 5.6763 62.4305 7.75692C63.3305 7.98692 64.1705 8.36692 65.0505 8.66692C65.9265 8.94832 66.7847 9.28226 67.6205 9.66692C69.3117 10.419 70.9518 11.2809 72.5305 12.2469C75.6756 14.1735 78.5708 16.481 81.1505 19.1169C82.4485 20.4301 83.6673 21.8192 84.8005 23.2769C85.3405 24.0269 85.9205 24.7469 86.4405 25.5169L87.8005 27.8769C88.0305 28.2769 88.2905 28.6669 88.5005 29.0769L89.1105 30.3269L90.3105 32.8269L91.2605 35.4269L91.7405 36.7269C91.8705 37.1769 91.9805 37.6269 92.0905 38.0769C94.1049 45.2332 94.2563 52.7856 92.5305 60.0169C91.5409 64.2804 89.891 68.363 87.6405 72.1169C87.0505 73.0369 86.5505 74.0169 85.8905 74.8869L83.8905 77.5169C83.2205 78.3669 82.4405 79.1469 81.7205 79.9669C81.3405 80.3569 81.0005 80.7869 80.6005 81.1569L79.3905 82.2669L78.2305 83.3269L77.6505 83.8469L77.0305 84.3169L74.5205 86.2169C73.6605 86.8069 72.7505 87.3269 71.8605 87.8769C71.4105 88.1469 70.9805 88.4469 70.5105 88.6869L69.1005 89.3769C68.1505 89.8169 67.2505 90.3769 66.2605 90.7069L63.3105 91.8069C62.3105 92.1769 61.3105 92.3769 60.3105 92.6669L58.8005 93.1169C58.2905 93.2369 57.8005 93.2969 57.2505 93.3869C55.8712 93.6794 54.4695 93.8533 53.0605 93.9069C49.4505 93.9069 48.7005 93.1869 51.2405 92.4969C51.8353 92.2951 52.4481 92.1511 53.0705 92.0669C53.4605 92.0669 53.8405 92.0669 54.2205 91.9769L55.3305 91.7669L57.4805 91.3269C58.1784 91.1719 58.8637 90.9646 59.5305 90.7069L61.5305 90.0069C62.1978 89.7688 62.8491 89.4882 63.4805 89.1669L65.4805 88.2869C66.7905 87.6469 68.1105 86.8969 69.5605 86.2069C74.7837 83.3065 79.3041 79.2914 82.8005 74.4469C86.2901 69.6379 88.7109 64.1383 89.9005 58.3169C90.7946 53.6702 90.9464 48.9112 90.3505 44.2169C89.5819 38.1965 87.4957 32.4195 84.2405 27.2969C83.7205 26.3969 82.7505 25.2269 81.6105 23.6569L79.4605 21.2769C79.0637 20.815 78.6324 20.3838 78.1705 19.9869L76.8005 18.6669C76.5505 18.4369 76.3005 18.1969 76.0305 17.9769L75.1805 17.3369L73.4005 16.0069C72.7602 15.5435 72.0923 15.1194 71.4005 14.7369C70.7105 14.3269 70.0305 13.8669 69.2905 13.4669L66.9805 12.3569C66.5805 12.1669 66.1905 11.9569 65.7805 11.7869L64.5205 11.3169C63.6605 11.0169 62.8005 10.6669 61.9105 10.3769L59.1405 9.66692C50.7998 7.74655 42.0698 8.44495 34.1405 11.6669C25.4809 15.2808 18.2788 21.6874 13.6805 29.8669C9.24153 37.8954 7.60197 47.1733 9.02052 56.2369C9.14661 57.3037 9.35049 58.3599 9.63052 59.3969C9.91052 60.3969 10.1305 61.3969 10.4505 62.3969C10.7705 63.3969 11.1605 64.3369 11.5105 65.2969C11.6751 65.7748 11.8757 66.2394 12.1105 66.6869C12.3305 67.1369 12.5405 67.5869 12.7605 68.0269C12.9805 68.4669 13.1905 68.9169 13.4005 69.3569C13.6105 69.7969 13.9005 70.1969 14.1405 70.6069C14.6505 71.4269 15.1405 72.2469 15.6305 73.0269C16.6632 74.5014 17.7818 75.9139 18.9805 77.2569C22.7496 81.4867 27.3527 84.8913 32.5005 87.2569C32.9805 87.4869 33.4205 87.7169 33.8605 87.8969L35.1105 88.3669L37.1705 89.1169C38.3305 89.4969 39.0905 89.6369 39.3005 89.7169L41.4705 90.3369L43.8405 90.7969C45.8061 91.2059 47.7975 91.4799 49.8005 91.6169Z" fill="#133D1C"/>
<path d="M97.3403 181.197C97.69 182.657 97.9538 184.136 98.1303 185.627C98.2182 187.22 98.2015 188.816 98.0803 190.407C98.0199 191.225 97.8996 192.037 97.7203 192.837L97.2203 195.287C97.0298 196.107 96.7825 196.912 96.4803 197.697L95.6503 200.087C92.4835 207.999 87.3167 214.954 80.6558 220.27C73.9949 225.587 66.0678 229.083 57.6503 230.417C52.0454 231.362 46.3176 231.312 40.7303 230.267L39.8003 230.117C39.5103 230.057 39.2103 229.977 38.9203 229.897L37.1403 229.447C35.9521 229.194 34.7827 228.86 33.6403 228.447C32.4903 228.017 31.3403 227.617 30.2103 227.167L26.9103 225.567C25.8191 225.023 24.7606 224.415 23.7403 223.747L22.1803 222.747C21.6603 222.427 21.1803 222.027 20.7003 221.677C19.7003 220.927 18.7003 220.227 17.8003 219.447L15.1003 216.977C8.05101 210.137 3.18035 201.366 1.10032 191.767C-0.63616 183.536 -0.313267 175.003 2.04032 166.927C2.29032 165.927 2.73032 164.927 3.04032 163.927L3.59031 162.447L3.86031 161.717L4.20031 161.007C5.04786 159.094 6.02341 157.239 7.12032 155.457C9.2746 151.863 11.8716 148.554 14.8503 145.607C16.356 144.151 17.949 142.789 19.6203 141.527C20.4603 140.907 21.2803 140.247 22.1503 139.667L24.8303 138.037C25.2803 137.777 25.7203 137.477 26.1803 137.247L27.6003 136.557L30.4303 135.207L33.3803 134.127L34.8603 133.587L36.3703 133.187C44.4784 130.921 53.0292 130.753 61.2203 132.697C66.0485 133.816 70.6736 135.678 74.9303 138.217C75.9303 138.877 77.0703 139.457 78.0603 140.217L81.0603 142.437C82.0603 143.197 82.9003 144.077 83.8303 144.897C84.2803 145.317 84.7703 145.707 85.1803 146.157L86.4303 147.527L87.6303 148.847L88.2303 149.507L88.7603 150.207L90.9003 153.047C91.5703 154.047 92.1603 155.047 92.7903 156.047C93.0903 156.557 93.4303 157.047 93.7003 157.567L94.4803 159.167L95.2603 160.767C95.5409 161.292 95.7815 161.836 95.9803 162.397L97.2203 165.727C97.6303 166.847 97.8603 168.017 98.2203 169.157L98.6803 170.877C98.8103 171.457 98.8703 172.047 98.9703 172.637C99.3058 174.197 99.5032 175.783 99.5603 177.377C99.5603 181.457 98.8703 182.317 98.1703 179.437C97.9561 178.756 97.8054 178.056 97.7203 177.347C97.7203 176.907 97.7203 176.467 97.6203 176.047C97.5203 175.627 97.4703 175.197 97.3903 174.777C97.2303 173.947 97.0603 173.137 96.9003 172.327C96.7299 171.532 96.5027 170.75 96.2203 169.987L95.4503 167.707C95.1868 166.942 94.8762 166.194 94.5203 165.467L93.5203 163.217C93.2103 162.437 92.7403 161.717 92.3603 160.937L91.1603 158.547C87.8653 152.605 83.3044 147.46 77.8003 143.477C72.318 139.486 66.0436 136.717 59.4003 135.357C54.0948 134.333 48.66 134.161 43.3003 134.847C36.4271 135.732 29.8338 138.122 23.9903 141.847C23.364 142.216 22.7657 142.63 22.2003 143.087L19.8403 144.847L17.1203 147.297C16.8703 147.527 16.6103 147.737 16.3703 147.987L15.6503 148.777L14.1403 150.427C13.8903 150.717 13.6103 150.997 13.3603 151.307C13.1103 151.617 12.8703 151.947 12.6303 152.307L11.1103 154.307C10.5834 155.028 10.0993 155.779 9.66031 156.557C9.19031 157.337 8.66031 158.127 8.22031 158.967L6.95031 161.607C6.74031 162.057 6.50031 162.497 6.30031 162.967C6.10031 163.437 5.95031 163.967 5.77031 164.407C5.42031 165.407 5.03031 166.407 4.70031 167.407C4.37031 168.407 4.16031 169.497 3.89031 170.567C1.55332 180.535 2.53525 190.994 6.68677 200.353C10.8383 209.712 17.9323 217.459 26.8903 222.417C31.5403 224.959 36.578 226.716 41.8003 227.617L43.7203 227.907C44.357 228.03 45.0023 228.104 45.6503 228.127L49.4903 228.317C51.9985 228.306 54.5023 228.105 56.9803 227.717C58.1949 227.571 59.3978 227.34 60.5803 227.027C61.7503 226.707 62.9303 226.457 64.0603 226.097L67.3603 224.887C67.9078 224.704 68.4395 224.476 68.9503 224.207L70.4803 223.467L72.0003 222.737C72.5003 222.477 73.0003 222.167 73.4303 221.887C74.3603 221.317 75.3003 220.767 76.1903 220.197L78.7103 218.307C79.1103 217.997 79.5403 217.717 79.9103 217.377L81.0203 216.377C85.865 212.087 89.7643 206.835 92.4703 200.957C92.7203 200.417 92.9903 199.907 93.2003 199.407C93.4103 198.907 93.5603 198.407 93.7203 197.967L94.5803 195.627C95.0103 194.297 95.1703 193.437 95.2603 193.187L95.9603 190.717C96.1203 189.857 96.2903 188.967 96.4703 188.017C96.9104 185.765 97.2011 183.487 97.3403 181.197Z" fill="#133D1C"/>
<path d="M49.8002 222.937C44.8902 224.607 38.6202 223.937 33.1302 221.677C23.7519 217.916 15.9655 211.024 11.0944 202.171C6.22329 193.318 4.56809 183.052 6.41015 173.117L6.54016 172.317L6.73014 171.537L7.13015 169.967C7.3701 168.917 7.6808 167.885 8.06015 166.877C8.44015 165.877 8.79015 164.877 9.19015 163.877L10.6002 160.967C11.0799 160.002 11.6175 159.067 12.2102 158.167L13.0601 156.787C13.3401 156.327 13.6901 155.917 14.0601 155.477C14.7201 154.627 15.3301 153.737 16.0601 152.917L18.2402 150.537C24.2874 144.329 32.0298 140.041 40.5001 138.207C47.7698 136.668 55.3075 136.953 62.4402 139.037C63.3402 139.267 64.1801 139.647 65.0601 139.947C65.9361 140.229 66.7944 140.563 67.6302 140.947C69.3213 141.699 70.9615 142.561 72.5402 143.527C77.3138 146.363 81.4912 150.099 84.8401 154.527C85.3801 155.277 85.9602 155.997 86.4801 156.767L87.9202 159.137C88.1502 159.537 88.4102 159.917 88.6202 160.327L89.2301 161.577L90.4302 164.077L91.3802 166.677L91.8602 167.987C91.9902 168.427 92.1002 168.877 92.2102 169.327C94.2245 176.484 94.376 184.036 92.6502 191.267C91.6606 195.531 90.0107 199.613 87.7602 203.367C87.1702 204.297 86.6702 205.267 86.0102 206.137L84.0102 208.767C83.3402 209.627 82.5602 210.397 81.8401 211.217C81.4602 211.607 81.1202 212.037 80.7202 212.407L79.5102 213.517L78.3502 214.577L77.7702 215.097L77.1502 215.577L74.6402 217.467C73.7802 218.057 72.8701 218.577 71.9801 219.137C71.5302 219.397 71.1002 219.697 70.6302 219.937L69.2201 220.637C68.2701 221.067 67.3702 221.637 66.3802 221.957L63.3901 223.117C62.3901 223.477 61.3901 223.677 60.3901 223.967L58.8702 224.367C58.3602 224.487 57.8702 224.547 57.3202 224.637C55.9417 224.935 54.5395 225.109 53.1302 225.157C49.5202 225.157 48.7701 224.437 51.3101 223.747C51.9049 223.545 52.5177 223.401 53.1401 223.317C53.5301 223.317 53.9102 223.317 54.2902 223.227L55.4002 223.027L57.5502 222.577C58.2481 222.422 58.9333 222.215 59.6002 221.957L61.6002 221.257C62.2656 221.018 62.9166 220.741 63.5502 220.427L65.5502 219.537C66.8602 218.897 68.1802 218.147 69.6302 217.457C74.8208 214.569 79.3161 210.579 82.8002 205.767C86.2897 200.958 88.7105 195.459 89.9002 189.637C90.7941 184.994 90.946 180.238 90.3502 175.547C89.5813 169.524 87.4952 163.743 84.2402 158.617C83.7202 157.727 82.7502 156.547 81.6102 154.977L79.4602 152.597C79.0657 152.136 78.6343 151.708 78.1702 151.317L76.8002 149.987C76.5502 149.767 76.3001 149.527 76.0302 149.297L75.1802 148.657L73.4002 147.327C72.7598 146.864 72.0919 146.44 71.4002 146.057C70.7102 145.647 70.0302 145.197 69.2902 144.787L66.9801 143.677C66.5801 143.487 66.1901 143.287 65.7801 143.107L64.5202 142.637C63.6602 142.337 62.8002 141.997 61.9102 141.697L59.1401 140.987C50.7998 139.062 42.0684 139.761 34.1401 142.987C25.48 146.595 18.2772 152.999 13.6802 161.177C9.24116 169.206 7.6016 178.484 9.02015 187.547C9.14624 188.614 9.35012 189.67 9.63015 190.707C9.91015 191.707 10.1301 192.707 10.4501 193.707C10.7701 194.707 11.1602 195.647 11.5102 196.607C11.6747 197.085 11.8753 197.55 12.1101 197.997C12.3301 198.447 12.5402 198.897 12.7602 199.337C12.9802 199.777 13.1902 200.227 13.4002 200.667C13.6102 201.107 13.9001 201.507 14.1401 201.917C14.6501 202.737 15.1402 203.557 15.6302 204.347C16.6678 205.818 17.7862 207.23 18.9801 208.577C22.7521 212.804 27.3545 216.208 32.5001 218.577C32.9801 218.797 33.4201 219.037 33.8601 219.217L35.1101 219.677L37.1701 220.427C38.3301 220.807 39.0902 220.947 39.3002 221.027L41.4701 221.647L43.8401 222.107C45.8047 222.525 47.7964 222.802 49.8002 222.937Z" fill="#133D1C"/>
<path d="M44.6203 77.5271L51.5503 82.8271L51.8403 80.8271L44.9103 85.8271C42.5303 87.5571 46.1203 88.7171 47.7303 87.5571L54.6503 82.5571C55.3903 82.0271 55.7803 81.1571 54.9403 80.5571L48.0203 75.2571C46.6403 74.2571 42.7403 76.1771 44.6203 77.6171V77.5271Z" fill="#133D1C"/>
<path d="M51.5101 207.357L44.5901 212.657C44.3201 212.867 43.8701 213.487 44.3001 213.797L51.2201 218.797C52.4101 219.657 56.3701 217.927 55.2701 217.127L48.3401 212.127L48.0501 213.267L54.9701 207.967C55.7501 207.377 55.3601 206.757 54.5901 206.527C54.0479 206.445 53.4947 206.476 52.9649 206.617C52.4351 206.758 51.9399 207.007 51.5101 207.347V207.357Z" fill="#133D1C"/>
<path d="M206.461 108.947C206.091 108.947 205.721 109.017 205.351 109.037H204.231C203.48 109.02 202.732 108.953 201.991 108.837C201.451 108.767 200.911 108.657 200.371 108.537C198.515 107.991 196.806 107.034 195.371 105.737C195.044 105.469 194.733 105.182 194.441 104.877C194.127 104.597 193.833 104.297 193.561 103.977L193.021 103.377L192.531 102.727C192.212 102.286 191.975 101.792 191.831 101.267C191.661 100.627 193.881 100.487 194.411 101.267C195.424 102.815 196.688 104.184 198.151 105.317C199.134 105.958 200.241 106.384 201.401 106.567C202.04 106.711 202.688 106.815 203.341 106.877C204.001 106.927 204.671 106.877 205.341 106.877C206.173 106.835 207.001 106.738 207.821 106.587C209.077 106.374 210.309 106.039 211.501 105.587C212.405 105.195 213.277 104.734 214.111 104.207C214.291 104.097 214.461 103.967 214.651 103.867C215.361 103.487 215.651 103.497 216.071 103.937C216.175 104.026 216.272 104.123 216.361 104.227C216.631 104.587 216.491 105.057 216.001 105.437C215.254 106.028 214.442 106.532 213.581 106.937C212.691 107.414 211.761 107.809 210.801 108.117L209.801 108.447C209.441 108.537 209.071 108.607 208.711 108.677L207.611 108.897C207.241 108.957 206.861 108.987 206.491 109.037L206.461 108.947Z" fill="#133D1C"/>
<path d="M191.45 151.857C190.874 152.248 190.469 152.846 190.32 153.527C190.223 153.758 190.187 154.009 190.215 154.258C190.243 154.507 190.334 154.744 190.48 154.947C190.714 155.113 190.982 155.223 191.266 155.266C191.549 155.31 191.838 155.286 192.11 155.197C192.93 155.129 193.692 154.749 194.24 154.137C194.523 153.511 194.633 152.82 194.56 152.137C194.569 151.99 194.541 151.844 194.478 151.711C194.415 151.578 194.32 151.463 194.2 151.377C193.53 150.997 192.35 151.467 191.72 151.727C191.45 151.847 190.77 152.277 191.36 152.457C192.05 152.534 192.747 152.402 193.36 152.077C191.6 151.897 190.99 152.007 191.54 152.407C191.568 152.486 191.592 152.566 191.61 152.647C191.63 152.82 191.63 152.994 191.61 153.167C191.603 153.504 191.563 153.839 191.49 154.167C191.466 154.269 191.436 154.369 191.4 154.467L191.35 154.567C191.27 155.257 191.93 155.097 193.35 154.087C193.249 153.985 193.17 153.862 193.12 153.727C193.054 153.417 193.078 153.094 193.19 152.797C193.26 152.577 193.43 151.997 193.63 151.867C193.83 151.737 194.02 151.627 193.97 151.457C193.92 151.287 193.58 151.267 193.47 151.267C192.754 151.264 192.052 151.469 191.45 151.857Z" fill="#133D1C"/>
<path d="M188.68 162.117C187.86 162.657 186.97 164.387 187.68 165.287C187.902 165.478 188.168 165.612 188.454 165.677C188.74 165.741 189.037 165.734 189.32 165.657C190.109 165.6 190.847 165.242 191.38 164.657C191.717 164.015 191.857 163.288 191.78 162.567C191.798 162.41 191.778 162.251 191.722 162.104C191.667 161.956 191.577 161.824 191.46 161.717C190.9 161.297 189.82 161.577 189.25 161.827C188.99 161.937 188.01 162.357 188.42 162.767C188.83 163.177 189.91 162.837 190.3 162.667C190.075 162.803 189.821 162.884 189.559 162.905C189.297 162.925 189.034 162.885 188.79 162.787C188.79 162.737 188.79 162.727 188.79 162.787C188.79 162.847 188.85 162.947 188.86 163.017C188.88 163.193 188.88 163.371 188.86 163.547C188.847 163.884 188.803 164.218 188.73 164.547C188.688 164.686 188.638 164.823 188.58 164.957C188.821 164.695 189.131 164.507 189.474 164.415C189.818 164.322 190.181 164.33 190.52 164.437C190.483 164.416 190.449 164.389 190.42 164.357C190.381 164.276 190.347 164.193 190.32 164.107C190.281 163.796 190.31 163.48 190.405 163.182C190.5 162.883 190.658 162.608 190.87 162.377C191.35 162.057 191.2 161.667 190.67 161.607C189.969 161.558 189.271 161.736 188.68 162.117Z" fill="#133D1C"/>
<path d="M18.8003 38.6973L20.1803 38.7773C20.5354 38.7697 20.8904 38.7965 21.2403 38.8573C21.8466 38.9709 22.4328 39.173 22.9803 39.4573C26.8157 41.1648 30.8123 42.4847 34.9103 43.3973C38.4221 44.3146 41.9943 44.9829 45.6003 45.3973C48.7224 45.6708 51.8588 45.7443 54.9903 45.6173C58.1135 45.5062 61.2248 45.172 64.3003 44.6173C66.0982 44.3114 67.8725 43.8804 69.6103 43.3273C71.22 42.7753 72.7683 42.0582 74.2303 41.1873C74.4453 41.0082 74.6843 40.8601 74.9403 40.7473C75.0851 40.69 75.2431 40.6741 75.3964 40.7013C75.5498 40.7286 75.6926 40.798 75.8088 40.9018C75.925 41.0055 76.01 41.1395 76.0544 41.2888C76.0989 41.4382 76.1009 41.5969 76.0603 41.7473C76.0603 41.9173 76.0603 42.1673 75.9003 42.2473C75.6124 42.4475 75.3475 42.6789 75.1103 42.9373C74.8703 43.1773 74.6303 43.4273 74.3903 43.6873C73.9558 44.2981 73.3746 44.7898 72.7003 45.1173C70.0755 46.1804 67.3703 47.0331 64.6103 47.6673C63.5123 47.9019 62.3998 48.0622 61.2803 48.1473C59.8603 48.2773 58.4303 48.2773 57.0103 48.3073C56.0103 48.3073 53.2703 48.4673 49.6603 48.3673C47.8603 48.3073 45.8303 48.1873 43.6603 47.9373C41.4903 47.6873 39.3703 47.2973 37.2303 46.8473C33.3438 46.0362 29.5258 44.9263 25.8103 43.5273C23.9755 42.8667 22.221 42.0013 20.5803 40.9473C20.282 40.7092 20.0194 40.4297 19.8003 40.1173C19.6355 39.9333 19.4819 39.7396 19.3403 39.5373C19.1603 39.2473 19.0003 38.9873 18.8003 38.6973Z" fill="#133D1C"/>
<path d="M19.3804 43.8168C26.6304 49.1668 37.6104 51.0668 46.3804 51.6668C55.7604 52.3068 65.9104 51.6668 74.5404 47.6668C76.3504 46.8268 74.7304 45.4968 73.3104 46.1568C65.0604 49.9768 55.0904 50.3868 46.1404 49.5868C38.2404 48.8868 28.1404 47.0268 21.6304 42.2068C20.7104 41.5168 18.1104 42.8368 19.3704 43.7668L19.3804 43.8168Z" fill="#133D1C"/>
<path d="M202.31 62.6869C202.956 62.7003 203.585 62.8905 204.13 63.2369C204.33 63.3869 204.58 63.4669 204.73 63.6769C205.035 64.0089 205.246 64.4162 205.34 64.8569C205.411 65.2403 205.411 65.6335 205.34 66.0169C205.275 66.3041 205.195 66.5878 205.1 66.8669C204.962 67.2034 204.754 67.5067 204.49 67.7569C204.4 67.8369 204.49 67.8369 204.49 67.7569C204.435 67.5838 204.372 67.4136 204.3 67.2469C204.087 66.7325 203.933 66.1958 203.84 65.6469C203.84 65.4069 203.62 65.3469 203.44 65.1969C203.206 65.0015 202.934 64.8583 202.64 64.7769C202.408 64.7116 202.17 64.6681 201.93 64.6469C201.535 64.5974 201.135 64.5974 200.74 64.6469C200.441 64.74 200.137 64.8167 199.83 64.8769H199.61C199.34 64.8769 199.22 64.8769 199.16 64.8769C199.231 64.7966 199.288 64.7054 199.33 64.6069C199.53 64.3369 199.72 64.0169 199.96 63.7169C200.198 63.4366 200.482 63.1998 200.8 63.0169C201.295 62.7341 201.851 62.573 202.42 62.5469L202.31 62.6869Z" fill="#133D1C"/>
<path d="M212.8 70.9573C213.01 70.2173 212.98 69.5173 213.64 68.9573C213.845 68.7904 214.108 68.7113 214.37 68.7373C214.8 68.8173 215.42 70.5573 213.91 71.6173C213.34 72.0173 212.53 72.1973 212.61 71.2873C212.739 70.5502 213.059 69.8602 213.54 69.2873" fill="#133D1C"/>
<path d="M214.02 70.6972C214.02 70.6972 214.15 70.6972 214.22 70.5572C214.29 70.4172 214.22 70.4772 214.22 70.4172C214.247 70.3306 214.255 70.2392 214.243 70.1494C214.231 70.0595 214.199 69.9734 214.15 69.8972C214.101 69.8709 214.046 69.8572 213.99 69.8572C213.934 69.8572 213.879 69.8709 213.83 69.8972C213.765 69.9342 213.709 69.9861 213.667 70.0486C213.626 70.1111 213.599 70.1825 213.59 70.2572C213.585 70.3471 213.585 70.4372 213.59 70.5272C213.562 70.7208 213.49 70.9054 213.38 71.0672C213.29 71.1872 212.9 71.0672 212.54 70.8472C212.18 70.6272 211.83 70.4172 211.86 70.1972C212.07 68.5572 213.41 67.5872 214.52 67.9972C214.809 68.1442 215.054 68.365 215.23 68.6372C215.42 68.9393 215.537 69.2818 215.57 69.6372C215.607 70.1314 215.507 70.6263 215.28 71.0672C215.043 71.5083 214.699 71.883 214.28 72.1572C213.908 72.3882 213.479 72.5127 213.04 72.5172C212.89 72.5211 212.742 72.4853 212.61 72.4133C212.478 72.3413 212.368 72.2356 212.29 72.1072C212.167 71.8277 212.122 71.5201 212.16 71.2172C212.199 70.6891 212.317 70.1699 212.51 69.6772C212.51 69.5872 212.57 69.4872 212.61 69.4072C212.79 69.0972 212.95 69.0672 213.33 69.2772L213.59 69.4172C213.707 69.4824 213.805 69.5783 213.872 69.6945C213.939 69.8108 213.973 69.943 213.97 70.0772C213.951 70.2324 213.921 70.3861 213.88 70.5372C213.88 70.6172 213.88 70.6172 213.95 70.6272C214.02 70.6372 214.01 70.6272 214.01 70.6272C214.01 70.6272 214.01 70.6772 214.01 70.6872L214.02 70.6972Z" fill="#133D1C"/>
<path d="M215.29 65.9169C215.83 66.0536 216.319 66.3415 216.7 66.7469C216.851 66.8692 216.985 67.0104 217.1 67.1669C217.408 67.732 217.541 68.3762 217.48 69.0169C217.463 69.2688 217.43 69.5193 217.38 69.7669C217.315 70.0746 217.146 70.3502 216.9 70.5469C216.82 70.6069 216.9 70.6169 216.85 70.5469C216.8 70.4769 216.7 70.2869 216.62 70.1369C216.25 69.5969 215.96 69.3569 215.93 68.9869C215.9 68.6169 215.67 68.6369 215.54 68.4869C215.398 68.2968 215.226 68.1313 215.03 67.9969C214.893 67.8967 214.741 67.8191 214.58 67.7669C214.297 67.672 213.997 67.6379 213.7 67.6669C213.46 67.7294 213.216 67.7795 212.97 67.8169H212.8C212.67 67.8247 212.54 67.8247 212.41 67.8169C212.467 67.7427 212.508 67.6576 212.53 67.5669C212.673 67.2824 212.829 67.0054 213 66.7369C213.202 66.4755 213.458 66.2606 213.75 66.1069C214.237 65.8574 214.793 65.7765 215.33 65.8769L215.29 65.9169Z" fill="#133D1C"/>
<path d="M196.041 58.1774C196.186 57.7266 196.466 57.3313 196.844 57.0451C197.221 56.7589 197.677 56.5956 198.151 56.5774C199.461 56.4625 200.78 56.4625 202.091 56.5774C203.492 56.6936 204.854 57.0988 206.091 57.7674C207.24 58.4386 208.133 59.4728 208.631 60.7074C209.063 61.8582 209.284 63.078 209.281 64.3074C209.254 66.3768 208.663 68.3996 207.571 70.1574C206.541 71.854 205.244 73.3735 203.731 74.6574C202.842 75.4071 201.888 76.0764 200.881 76.6574C199.932 77.2605 198.928 77.7696 197.881 78.1774C197.703 78.2595 197.514 78.3135 197.321 78.3374C196.801 78.3374 196.591 77.8374 196.811 77.3374C196.861 77.2274 196.901 77.0474 196.981 77.0274C197.354 76.8824 197.679 76.6366 197.921 76.3174C198.171 76.0148 198.472 75.7577 198.811 75.5574C200.166 74.875 201.396 73.969 202.451 72.8774L203.761 71.6274C204.021 71.3574 204.301 71.0874 204.581 70.8174L205.341 69.9574C206.108 68.9004 206.69 67.7202 207.061 66.4674C207.189 65.992 207.279 65.5071 207.331 65.0174C207.375 64.4884 207.375 63.9565 207.331 63.4274C207.265 62.3413 206.883 61.2983 206.231 60.4274C204.901 58.8374 202.411 58.4974 200.671 58.4274C198.931 58.3574 197.671 58.4274 197.521 58.4274C197.022 58.3802 196.527 58.2966 196.041 58.1774Z" fill="#133D1C"/>
<path d="M213.421 62.767C213.311 61.537 213.621 61.187 213.961 61.077C215.087 60.6974 216.272 60.5181 217.461 60.547C218.476 60.5946 219.483 60.759 220.461 61.037C222.22 61.4117 223.867 62.1925 225.271 63.3169C225.692 63.6783 226.08 64.0766 226.431 64.507C226.777 64.9299 227.082 65.3854 227.341 65.867C227.341 65.947 227.471 66.017 227.461 66.117C227.461 66.387 226.921 66.5969 226.461 66.6069C226.361 66.6069 226.201 66.6069 226.181 66.6069C226.001 66.2969 225.301 66.3569 225.181 66.1069C225.037 65.8444 224.835 65.6185 224.591 65.447C224.357 65.261 224.11 65.0938 223.851 64.947C223.661 64.807 223.471 64.677 223.281 64.517C223.056 64.2924 222.811 64.0882 222.551 63.907C221.191 63.1791 219.69 62.756 218.151 62.667C217.226 62.5694 216.295 62.5694 215.371 62.667C214.621 62.767 214.141 62.887 214.091 62.897C213.863 62.8813 213.638 62.8376 213.421 62.767Z" fill="#133D1C"/>
<path d="M201.15 91.4569C200.535 91.5626 199.905 91.5387 199.3 91.3869C199.072 91.3482 198.847 91.2879 198.63 91.2069C197.928 90.8465 197.343 90.2954 196.94 89.6169C196.767 89.3391 196.623 89.0442 196.51 88.7369C196.365 88.3535 196.365 87.9302 196.51 87.5469C196.56 87.4369 196.51 87.4569 196.56 87.5469C196.61 87.6369 196.79 87.7969 196.94 87.9369C197.435 88.2442 197.912 88.578 198.37 88.9369C198.639 89.1376 198.957 89.262 199.29 89.2969C199.66 89.4119 200.043 89.4759 200.43 89.4869C200.696 89.5116 200.964 89.5116 201.23 89.4869C201.664 89.4474 202.09 89.3533 202.5 89.2069C202.81 89.0639 203.127 88.9371 203.45 88.8269L203.68 88.7569C203.84 88.7421 204.001 88.7421 204.16 88.7569C204.088 88.8432 204.03 88.9413 203.99 89.0469C203.8 89.3469 203.63 89.6969 203.43 90.0469C202.877 90.8518 202.042 91.4193 201.09 91.6369L201.15 91.4569Z" fill="#133D1C"/>
<path d="M165.307 232.633C166.004 232.439 166.462 231.897 166.329 231.424C166.197 230.95 165.525 230.724 164.828 230.919C164.131 231.114 163.674 231.655 163.806 232.129C163.938 232.602 164.61 232.828 165.307 232.633Z" fill="#133D1C"/>
<path d="M121.431 328.482C122.739 327.902 123.481 326.716 123.089 325.832C122.697 324.949 121.32 324.703 120.012 325.283C118.705 325.863 117.962 327.049 118.354 327.933C118.746 328.816 120.124 329.062 121.431 328.482Z" fill="#133D1C"/>
<path d="M69.1733 341.858C69.8701 341.663 70.3277 341.122 70.1955 340.648C70.0632 340.175 69.3911 339.949 68.6943 340.144C67.9975 340.338 67.5398 340.88 67.6721 341.353C67.8044 341.827 68.4765 342.053 69.1733 341.858Z" fill="#133D1C"/>
<path d="M20.8802 317.456C21.5365 317.152 21.901 316.544 21.6942 316.098C21.4874 315.652 20.7876 315.537 20.1313 315.841C19.475 316.146 19.1105 316.754 19.3173 317.2C19.5241 317.646 20.2238 317.761 20.8802 317.456Z" fill="#133D1C"/>
<path d="M63.058 308.935C64.3556 308.333 65.078 307.135 64.6713 306.258C64.2647 305.381 62.8831 305.158 61.5855 305.76C60.2878 306.362 59.5655 307.56 59.9721 308.437C60.3787 309.314 61.7603 309.537 63.058 308.935Z" fill="#133D1C"/>
<path d="M53.2209 262.753C54.1278 262.333 54.6313 261.492 54.3455 260.876C54.0597 260.26 53.0928 260.101 52.186 260.522C51.2791 260.942 50.7756 261.783 51.0614 262.399C51.3472 263.015 52.3141 263.174 53.2209 262.753Z" fill="#133D1C"/>
<path d="M33.7161 210.486C34.3041 210.215 34.6322 209.673 34.449 209.276C34.2658 208.879 33.6405 208.777 33.0525 209.048C32.4645 209.32 32.1363 209.861 32.3196 210.258C32.5028 210.655 33.1281 210.757 33.7161 210.486Z" fill="#133D1C"/>
<path d="M26.7893 242.744C27.4457 242.439 27.8101 241.831 27.6033 241.385C27.3965 240.939 26.6968 240.825 26.0405 241.129C25.3841 241.433 25.0197 242.042 25.2265 242.488C25.4333 242.933 26.133 243.048 26.7893 242.744Z" fill="#133D1C"/>
<path d="M123.288 145.456C123.985 145.261 124.442 144.72 124.31 144.246C124.178 143.773 123.506 143.547 122.809 143.742C122.112 143.936 121.655 144.478 121.787 144.951C121.919 145.425 122.591 145.651 123.288 145.456Z" fill="#133D1C"/>
<path d="M109.102 140.244C110.009 139.823 110.513 138.983 110.227 138.366C109.941 137.75 108.974 137.591 108.067 138.012C107.16 138.433 106.657 139.273 106.943 139.889C107.229 140.506 108.195 140.664 109.102 140.244Z" fill="#133D1C"/>
<path d="M82.6844 120.239C83.3407 119.935 83.7052 119.326 83.4984 118.88C83.2916 118.434 82.5918 118.32 81.9355 118.624C81.2791 118.929 80.9147 119.537 81.1215 119.983C81.3283 120.429 82.028 120.543 82.6844 120.239Z" fill="#133D1C"/>
<path d="M7.42656 293.828C8.0829 293.524 8.44735 292.916 8.24055 292.47C8.03376 292.024 7.33402 291.909 6.67768 292.214C6.02133 292.518 5.65691 293.126 5.8637 293.572C6.0705 294.018 6.77021 294.133 7.42656 293.828Z" fill="#133D1C"/>
<path d="M140.947 361.025C141.538 360.763 141.873 360.227 141.696 359.828C141.519 359.429 140.897 359.318 140.306 359.58C139.716 359.842 139.38 360.378 139.557 360.777C139.734 361.176 140.356 361.287 140.947 361.025Z" fill="#133D1C"/>
<path d="M122.412 295.113C123.109 294.918 123.567 294.377 123.434 293.903C123.302 293.43 122.63 293.204 121.933 293.398C121.236 293.593 120.779 294.135 120.911 294.608C121.043 295.082 121.715 295.307 122.412 295.113Z" fill="#133D1C"/>
<path d="M102.945 207.879C103.642 207.685 104.1 207.143 103.967 206.67C103.835 206.196 103.163 205.97 102.466 206.165C101.769 206.36 101.312 206.901 101.444 207.375C101.576 207.848 102.248 208.074 102.945 207.879Z" fill="#133D1C"/>
<path d="M113.699 284.761C114.395 284.567 114.853 284.025 114.721 283.552C114.589 283.078 113.916 282.852 113.22 283.047C112.523 283.242 112.065 283.783 112.197 284.257C112.33 284.73 113.002 284.956 113.699 284.761Z" fill="#133D1C"/>
<path d="M190.308 285.518C191.004 285.323 191.462 284.782 191.33 284.308C191.197 283.835 190.525 283.609 189.829 283.804C189.132 283.998 188.674 284.54 188.806 285.013C188.939 285.487 189.611 285.713 190.308 285.518Z" fill="#133D1C"/>
<path d="M168.871 296.422C169.568 296.228 170.025 295.686 169.893 295.213C169.761 294.739 169.089 294.513 168.392 294.708C167.695 294.903 167.238 295.444 167.37 295.918C167.502 296.391 168.174 296.617 168.871 296.422Z" fill="#133D1C"/>
<path d="M182.913 278.832C183.264 278.733 183.496 278.464 183.43 278.23C183.365 277.996 183.027 277.886 182.676 277.984C182.325 278.082 182.094 278.351 182.159 278.585C182.224 278.819 182.562 278.93 182.913 278.832Z" fill="#133D1C"/>
<path d="M148.939 232.031C149.636 231.836 150.094 231.294 149.962 230.821C149.829 230.348 149.157 230.122 148.46 230.316C147.764 230.511 147.306 231.053 147.438 231.526C147.57 232 148.243 232.225 148.939 232.031Z" fill="#133D1C"/>
<path d="M206.37 338.967C206.56 338.167 206.66 337.967 206.75 337.967C207.07 337.867 207.38 337.737 207.69 337.657C207.954 337.612 208.222 337.592 208.49 337.597C208.948 337.524 209.4 337.413 209.84 337.267C209.97 337.234 210.097 337.191 210.22 337.137C210.336 337.071 210.441 336.987 210.53 336.887C210.53 336.887 210.53 336.757 210.53 336.777C210.735 337.124 210.89 337.497 210.99 337.887C210.99 337.987 211.07 338.147 211.05 338.147C211.03 338.147 211.1 338.897 210.96 338.907C210.82 338.917 210.55 339.177 210.33 339.287C210.246 339.337 210.147 339.358 210.05 339.347C209.92 339.347 209.79 339.267 209.66 339.257C209.53 339.247 208.74 339.377 208.01 339.377C207.513 339.371 207.017 339.318 206.53 339.217C206.468 339.14 206.414 339.056 206.37 338.967Z" fill="#133D1C"/>
<path d="M253 463.881C253 463.881 239.387 452.722 230.389 453.013C221.958 453.285 217.67 465.316 209.258 463.881C202.925 462.801 199.966 452.59 193.621 453.013C187.828 453.399 185.243 462.896 179.463 463.881C172.015 465.151 168.332 453.235 160.867 453.013C153 452.778 149.068 465.07 141.215 463.881C135.037 462.946 126 453.013 126 453.013" stroke="#133D1C"/>
<path d="M253 465.881C253 465.881 239.387 454.722 230.389 455.013C221.958 455.285 217.67 467.316 209.258 465.881C202.925 464.801 199.966 454.59 193.621 455.013C187.828 455.399 185.243 464.896 179.463 465.881C172.015 467.151 168.332 455.235 160.867 455.013C153 454.778 149.068 467.07 141.215 465.881C135.037 464.946 126 455.013 126 455.013" stroke="#133D1C"/>
</svg>
