<svg width="262" height="63" viewBox="0 0 262 63" fill="none" xmlns="http://www.w3.org/2000/svg">
<rect width="257" height="57" transform="translate(3 3)" fill="#E2FFE8"/>
<rect width="93" height="41" transform="translate(11 11)" fill="#133D1C"/>
<path d="M24.036 27.004H26.5L29.258 34.83H29.286L31.974 27.004H34.41V37H32.744V29.286H32.716L29.944 37H28.502L25.73 29.286H25.702V37H24.036V27.004ZM35.4834 29.762H37.2334L39.1234 35.166H39.1514L40.9854 29.762H42.6514L39.8374 37.392C39.7067 37.7187 39.5761 38.0313 39.4454 38.33C39.3241 38.6287 39.1701 38.89 38.9834 39.114C38.8061 39.3473 38.5821 39.5293 38.3114 39.66C38.0407 39.8 37.6954 39.87 37.2754 39.87C36.9021 39.87 36.5334 39.842 36.1694 39.786V38.442C36.3001 38.4607 36.4261 38.4793 36.5474 38.498C36.6687 38.526 36.7947 38.54 36.9254 38.54C37.1121 38.54 37.2661 38.5167 37.3874 38.47C37.5087 38.4233 37.6067 38.3533 37.6814 38.26C37.7654 38.176 37.8354 38.0733 37.8914 37.952C37.9474 37.8307 37.9987 37.6907 38.0454 37.532L38.2274 36.972L35.4834 29.762ZM47.4377 29.762H48.9497V30.77H48.9917C49.113 30.5927 49.2437 30.4293 49.3837 30.28C49.5237 30.1307 49.6777 30.0047 49.8457 29.902C50.023 29.7993 50.2237 29.72 50.4477 29.664C50.6717 29.5987 50.9283 29.566 51.2177 29.566C51.6563 29.566 52.0623 29.664 52.4357 29.86C52.8183 30.056 53.089 30.3593 53.2477 30.77C53.5183 30.3967 53.831 30.1027 54.1857 29.888C54.5403 29.6733 54.9837 29.566 55.5157 29.566C56.281 29.566 56.8737 29.7527 57.2937 30.126C57.723 30.4993 57.9377 31.1247 57.9377 32.002V37H56.3417V32.772C56.3417 32.4827 56.3323 32.2213 56.3137 31.988C56.295 31.7453 56.239 31.54 56.1457 31.372C56.0617 31.1947 55.931 31.0593 55.7537 30.966C55.5763 30.8727 55.3337 30.826 55.0257 30.826C54.4843 30.826 54.0923 30.994 53.8497 31.33C53.607 31.666 53.4857 32.142 53.4857 32.758V37H51.8897V32.352C51.8897 31.848 51.7963 31.47 51.6097 31.218C51.4323 30.9567 51.101 30.826 50.6157 30.826C50.4103 30.826 50.2097 30.868 50.0137 30.952C49.827 31.036 49.659 31.1573 49.5097 31.316C49.3697 31.4747 49.253 31.6707 49.1597 31.904C49.0757 32.1373 49.0337 32.4033 49.0337 32.702V37H47.4377V29.762ZM65.6813 35.39C65.6813 35.586 65.7046 35.726 65.7513 35.81C65.8073 35.894 65.91 35.936 66.0593 35.936C66.106 35.936 66.162 35.936 66.2273 35.936C66.2926 35.936 66.3673 35.9267 66.4513 35.908V37.014C66.3953 37.0327 66.3206 37.0513 66.2273 37.07C66.1433 37.098 66.0546 37.1213 65.9613 37.14C65.868 37.1587 65.7746 37.1727 65.6813 37.182C65.588 37.1913 65.5086 37.196 65.4433 37.196C65.1166 37.196 64.846 37.1307 64.6313 37C64.4166 36.8693 64.2766 36.6407 64.2113 36.314C63.894 36.622 63.502 36.846 63.0353 36.986C62.578 37.126 62.1346 37.196 61.7053 37.196C61.3786 37.196 61.066 37.1493 60.7673 37.056C60.4686 36.972 60.2026 36.846 59.9693 36.678C59.7453 36.5007 59.5633 36.2813 59.4233 36.02C59.2926 35.7493 59.2273 35.4367 59.2273 35.082C59.2273 34.634 59.3066 34.27 59.4653 33.99C59.6333 33.71 59.848 33.4907 60.1093 33.332C60.38 33.1733 60.6786 33.0613 61.0053 32.996C61.3413 32.9213 61.6773 32.8653 62.0133 32.828C62.3026 32.772 62.578 32.7347 62.8393 32.716C63.1006 32.688 63.3293 32.646 63.5253 32.59C63.7306 32.534 63.8893 32.45 64.0013 32.338C64.1226 32.2167 64.1833 32.0393 64.1833 31.806C64.1833 31.6007 64.132 31.4327 64.0293 31.302C63.936 31.1713 63.8146 31.0733 63.6653 31.008C63.5253 30.9333 63.3666 30.8867 63.1893 30.868C63.012 30.84 62.844 30.826 62.6853 30.826C62.2373 30.826 61.8686 30.9193 61.5793 31.106C61.29 31.2927 61.1266 31.582 61.0893 31.974H59.4933C59.5213 31.5073 59.6333 31.12 59.8293 30.812C60.0253 30.504 60.2726 30.2567 60.5713 30.07C60.8793 29.8833 61.2246 29.7527 61.6073 29.678C61.99 29.6033 62.382 29.566 62.7833 29.566C63.138 29.566 63.488 29.6033 63.8333 29.678C64.1786 29.7527 64.4866 29.874 64.7573 30.042C65.0373 30.21 65.2613 30.4293 65.4293 30.7C65.5973 30.9613 65.6813 31.2833 65.6813 31.666V35.39ZM64.0853 33.374C63.8426 33.5327 63.544 33.6307 63.1893 33.668C62.8346 33.696 62.48 33.7427 62.1253 33.808C61.9573 33.836 61.794 33.878 61.6353 33.934C61.4766 33.9807 61.3366 34.0507 61.2153 34.144C61.094 34.228 60.996 34.3447 60.9213 34.494C60.856 34.634 60.8233 34.8067 60.8233 35.012C60.8233 35.1893 60.8746 35.3387 60.9773 35.46C61.08 35.5813 61.2013 35.6793 61.3413 35.754C61.4906 35.8193 61.6493 35.866 61.8173 35.894C61.9946 35.922 62.1533 35.936 62.2933 35.936C62.4706 35.936 62.662 35.9127 62.8673 35.866C63.0726 35.8193 63.264 35.74 63.4413 35.628C63.628 35.516 63.782 35.376 63.9033 35.208C64.0246 35.0307 64.0853 34.816 64.0853 34.564V33.374ZM67.3986 29.762H68.9106V30.826L68.9386 30.854C69.1813 30.4527 69.4986 30.14 69.8906 29.916C70.2826 29.6827 70.7166 29.566 71.1926 29.566C71.9859 29.566 72.6113 29.7713 73.0686 30.182C73.5259 30.5927 73.7546 31.2087 73.7546 32.03V37H72.1586V32.45C72.1399 31.8807 72.0186 31.47 71.7946 31.218C71.5706 30.9567 71.2206 30.826 70.7446 30.826C70.4739 30.826 70.2313 30.8773 70.0166 30.98C69.8019 31.0733 69.6199 31.2087 69.4706 31.386C69.3213 31.554 69.2046 31.7547 69.1206 31.988C69.0366 32.2213 68.9946 32.4687 68.9946 32.73V37H67.3986V29.762ZM74.7097 29.762H75.9137V27.592H77.5097V29.762H78.9517V30.952H77.5097V34.816C77.5097 34.984 77.5143 35.1287 77.5237 35.25C77.5423 35.3713 77.575 35.474 77.6217 35.558C77.6777 35.642 77.757 35.7073 77.8597 35.754C77.9623 35.7913 78.1023 35.81 78.2797 35.81C78.3917 35.81 78.5037 35.81 78.6157 35.81C78.7277 35.8007 78.8397 35.782 78.9517 35.754V36.986C78.7743 37.0047 78.6017 37.0233 78.4337 37.042C78.2657 37.0607 78.093 37.07 77.9157 37.07C77.4957 37.07 77.155 37.0327 76.8937 36.958C76.6417 36.874 76.441 36.7573 76.2917 36.608C76.1517 36.4493 76.0537 36.2533 75.9977 36.02C75.951 35.7867 75.923 35.5207 75.9137 35.222V30.952H74.7097V29.762ZM80.0998 29.762H81.5978V31.162H81.6258C81.6724 30.966 81.7611 30.7747 81.8918 30.588C82.0318 30.4013 82.1951 30.2333 82.3818 30.084C82.5778 29.9253 82.7924 29.7993 83.0258 29.706C83.2591 29.6127 83.4971 29.566 83.7398 29.566C83.9264 29.566 84.0524 29.5707 84.1178 29.58C84.1924 29.5893 84.2671 29.5987 84.3418 29.608V31.148C84.2298 31.1293 84.1131 31.1153 83.9918 31.106C83.8798 31.0873 83.7678 31.078 83.6558 31.078C83.3851 31.078 83.1284 31.134 82.8858 31.246C82.6524 31.3487 82.4471 31.5073 82.2698 31.722C82.0924 31.9273 81.9524 32.184 81.8498 32.492C81.7471 32.8 81.6958 33.1547 81.6958 33.556V37H80.0998V29.762ZM91.0836 35.39C91.0836 35.586 91.107 35.726 91.1536 35.81C91.2096 35.894 91.3123 35.936 91.4616 35.936C91.5083 35.936 91.5643 35.936 91.6296 35.936C91.695 35.936 91.7696 35.9267 91.8536 35.908V37.014C91.7976 37.0327 91.723 37.0513 91.6296 37.07C91.5456 37.098 91.457 37.1213 91.3636 37.14C91.2703 37.1587 91.177 37.1727 91.0836 37.182C90.9903 37.1913 90.911 37.196 90.8456 37.196C90.519 37.196 90.2483 37.1307 90.0336 37C89.819 36.8693 89.679 36.6407 89.6136 36.314C89.2963 36.622 88.9043 36.846 88.4376 36.986C87.9803 37.126 87.537 37.196 87.1076 37.196C86.781 37.196 86.4683 37.1493 86.1696 37.056C85.871 36.972 85.605 36.846 85.3716 36.678C85.1476 36.5007 84.9656 36.2813 84.8256 36.02C84.695 35.7493 84.6296 35.4367 84.6296 35.082C84.6296 34.634 84.709 34.27 84.8676 33.99C85.0356 33.71 85.2503 33.4907 85.5116 33.332C85.7823 33.1733 86.081 33.0613 86.4076 32.996C86.7436 32.9213 87.0796 32.8653 87.4156 32.828C87.705 32.772 87.9803 32.7347 88.2416 32.716C88.503 32.688 88.7316 32.646 88.9276 32.59C89.133 32.534 89.2916 32.45 89.4036 32.338C89.525 32.2167 89.5856 32.0393 89.5856 31.806C89.5856 31.6007 89.5343 31.4327 89.4316 31.302C89.3383 31.1713 89.217 31.0733 89.0676 31.008C88.9276 30.9333 88.769 30.8867 88.5916 30.868C88.4143 30.84 88.2463 30.826 88.0876 30.826C87.6396 30.826 87.271 30.9193 86.9816 31.106C86.6923 31.2927 86.529 31.582 86.4916 31.974H84.8956C84.9236 31.5073 85.0356 31.12 85.2316 30.812C85.4276 30.504 85.675 30.2567 85.9736 30.07C86.2816 29.8833 86.627 29.7527 87.0096 29.678C87.3923 29.6033 87.7843 29.566 88.1856 29.566C88.5403 29.566 88.8903 29.6033 89.2356 29.678C89.581 29.7527 89.889 29.874 90.1596 30.042C90.4396 30.21 90.6636 30.4293 90.8316 30.7C90.9996 30.9613 91.0836 31.2833 91.0836 31.666V35.39ZM89.4876 33.374C89.245 33.5327 88.9463 33.6307 88.5916 33.668C88.237 33.696 87.8823 33.7427 87.5276 33.808C87.3596 33.836 87.1963 33.878 87.0376 33.934C86.879 33.9807 86.739 34.0507 86.6176 34.144C86.4963 34.228 86.3983 34.3447 86.3236 34.494C86.2583 34.634 86.2256 34.8067 86.2256 35.012C86.2256 35.1893 86.277 35.3387 86.3796 35.46C86.4823 35.5813 86.6036 35.6793 86.7436 35.754C86.893 35.8193 87.0516 35.866 87.2196 35.894C87.397 35.922 87.5556 35.936 87.6956 35.936C87.873 35.936 88.0643 35.9127 88.2696 35.866C88.475 35.8193 88.6663 35.74 88.8436 35.628C89.0303 35.516 89.1843 35.376 89.3056 35.208C89.427 35.0307 89.4876 34.816 89.4876 34.564V33.374Z" fill="#E2FFE8"/>
<path d="M113.064 27.004H117.208C117.973 27.004 118.636 27.1347 119.196 27.396C119.756 27.6573 120.213 28.0167 120.568 28.474C120.923 28.922 121.184 29.4493 121.352 30.056C121.529 30.6627 121.618 31.3113 121.618 32.002C121.618 32.6927 121.529 33.3413 121.352 33.948C121.184 34.5547 120.923 35.0867 120.568 35.544C120.213 35.992 119.756 36.3467 119.196 36.608C118.636 36.8693 117.973 37 117.208 37H113.064V27.004ZM114.814 35.572H116.536C117.217 35.572 117.773 35.4833 118.202 35.306C118.641 35.1193 118.981 34.8673 119.224 34.55C119.476 34.2233 119.644 33.8453 119.728 33.416C119.821 32.9773 119.868 32.506 119.868 32.002C119.868 31.498 119.821 31.0313 119.728 30.602C119.644 30.1633 119.476 29.7853 119.224 29.468C118.981 29.1413 118.641 28.8893 118.202 28.712C117.773 28.5253 117.217 28.432 116.536 28.432H114.814V35.572ZM127.914 32.744C127.895 32.492 127.839 32.2493 127.746 32.016C127.662 31.7827 127.54 31.582 127.382 31.414C127.232 31.2367 127.046 31.0967 126.822 30.994C126.607 30.882 126.364 30.826 126.094 30.826C125.814 30.826 125.557 30.8773 125.324 30.98C125.1 31.0733 124.904 31.2087 124.736 31.386C124.577 31.554 124.446 31.7547 124.344 31.988C124.25 32.2213 124.199 32.4733 124.19 32.744H127.914ZM124.19 33.794C124.19 34.074 124.227 34.3447 124.302 34.606C124.386 34.8673 124.507 35.096 124.666 35.292C124.824 35.488 125.025 35.6467 125.268 35.768C125.51 35.88 125.8 35.936 126.136 35.936C126.602 35.936 126.976 35.838 127.256 35.642C127.545 35.4367 127.76 35.1333 127.9 34.732H129.412C129.328 35.124 129.183 35.474 128.978 35.782C128.772 36.09 128.525 36.3513 128.236 36.566C127.946 36.7713 127.62 36.9253 127.256 37.028C126.901 37.14 126.528 37.196 126.136 37.196C125.566 37.196 125.062 37.1027 124.624 36.916C124.185 36.7293 123.812 36.468 123.504 36.132C123.205 35.796 122.976 35.3947 122.818 34.928C122.668 34.4613 122.594 33.948 122.594 33.388C122.594 32.8747 122.673 32.3893 122.832 31.932C123 31.4653 123.233 31.0593 123.532 30.714C123.84 30.3593 124.208 30.0793 124.638 29.874C125.067 29.6687 125.552 29.566 126.094 29.566C126.663 29.566 127.172 29.6873 127.62 29.93C128.077 30.1633 128.455 30.476 128.754 30.868C129.052 31.26 129.267 31.7127 129.398 32.226C129.538 32.73 129.575 33.2527 129.51 33.794H124.19ZM131.927 34.676C131.973 35.1427 132.151 35.4693 132.459 35.656C132.767 35.8427 133.135 35.936 133.565 35.936C133.714 35.936 133.882 35.9267 134.069 35.908C134.265 35.88 134.447 35.8333 134.615 35.768C134.783 35.7027 134.918 35.6093 135.021 35.488C135.133 35.3573 135.184 35.1893 135.175 34.984C135.165 34.7787 135.091 34.6107 134.951 34.48C134.811 34.3493 134.629 34.2467 134.405 34.172C134.19 34.088 133.943 34.018 133.663 33.962C133.383 33.906 133.098 33.8453 132.809 33.78C132.51 33.7147 132.221 33.6353 131.941 33.542C131.67 33.4487 131.423 33.3227 131.199 33.164C130.984 33.0053 130.811 32.8047 130.681 32.562C130.55 32.31 130.485 32.002 130.485 31.638C130.485 31.246 130.578 30.9193 130.765 30.658C130.961 30.3873 131.203 30.1727 131.493 30.014C131.791 29.846 132.118 29.7293 132.473 29.664C132.837 29.5987 133.182 29.566 133.509 29.566C133.882 29.566 134.237 29.608 134.573 29.692C134.918 29.7667 135.226 29.8927 135.497 30.07C135.777 30.2473 136.005 30.4807 136.183 30.77C136.369 31.05 136.486 31.3907 136.533 31.792H134.867C134.792 31.4093 134.615 31.1527 134.335 31.022C134.064 30.8913 133.751 30.826 133.397 30.826C133.285 30.826 133.149 30.8353 132.991 30.854C132.841 30.8727 132.697 30.91 132.557 30.966C132.426 31.0127 132.314 31.0873 132.221 31.19C132.127 31.2833 132.081 31.4093 132.081 31.568C132.081 31.764 132.146 31.9227 132.277 32.044C132.417 32.1653 132.594 32.268 132.809 32.352C133.033 32.4267 133.285 32.492 133.565 32.548C133.845 32.604 134.134 32.6647 134.433 32.73C134.722 32.7953 135.007 32.8747 135.287 32.968C135.567 33.0613 135.814 33.1873 136.029 33.346C136.253 33.5047 136.43 33.7053 136.561 33.948C136.701 34.1907 136.771 34.4893 136.771 34.844C136.771 35.2733 136.673 35.6373 136.477 35.936C136.281 36.2347 136.024 36.4773 135.707 36.664C135.399 36.8507 135.053 36.986 134.671 37.07C134.288 37.154 133.91 37.196 133.537 37.196C133.079 37.196 132.655 37.1447 132.263 37.042C131.88 36.9393 131.544 36.7853 131.255 36.58C130.975 36.3653 130.751 36.104 130.583 35.796C130.424 35.4787 130.34 35.1053 130.331 34.676H131.927ZM138.025 27.004H139.621V28.516H138.025V27.004ZM138.025 29.762H139.621V37H138.025V29.762ZM148.052 36.622C148.052 37.714 147.744 38.526 147.128 39.058C146.521 39.5993 145.644 39.87 144.496 39.87C144.132 39.87 143.763 39.8327 143.39 39.758C143.026 39.6833 142.69 39.5573 142.382 39.38C142.083 39.2027 141.831 38.9693 141.626 38.68C141.42 38.3907 141.299 38.036 141.262 37.616H142.858C142.904 37.84 142.984 38.022 143.096 38.162C143.208 38.302 143.338 38.4093 143.488 38.484C143.646 38.568 143.819 38.6193 144.006 38.638C144.192 38.666 144.388 38.68 144.594 38.68C145.238 38.68 145.709 38.5213 146.008 38.204C146.306 37.8867 146.456 37.4293 146.456 36.832V35.726H146.428C146.204 36.1273 145.896 36.44 145.504 36.664C145.121 36.888 144.706 37 144.258 37C143.679 37 143.184 36.902 142.774 36.706C142.372 36.5007 142.036 36.2253 141.766 35.88C141.504 35.5253 141.313 35.1193 141.192 34.662C141.07 34.2047 141.01 33.7147 141.01 33.192C141.01 32.7067 141.084 32.2447 141.234 31.806C141.383 31.3673 141.598 30.9847 141.878 30.658C142.158 30.322 142.498 30.056 142.9 29.86C143.31 29.664 143.772 29.566 144.286 29.566C144.743 29.566 145.163 29.664 145.546 29.86C145.928 30.0467 146.222 30.3453 146.428 30.756H146.456V29.762H148.052V36.622ZM144.51 35.74C144.864 35.74 145.163 35.67 145.406 35.53C145.658 35.3807 145.858 35.1893 146.008 34.956C146.166 34.7133 146.278 34.4427 146.344 34.144C146.418 33.836 146.456 33.528 146.456 33.22C146.456 32.912 146.418 32.6133 146.344 32.324C146.269 32.0347 146.152 31.778 145.994 31.554C145.844 31.33 145.644 31.1527 145.392 31.022C145.149 30.8913 144.855 30.826 144.51 30.826C144.155 30.826 143.856 30.9007 143.614 31.05C143.371 31.1993 143.175 31.3953 143.026 31.638C142.876 31.8713 142.769 32.142 142.704 32.45C142.638 32.7487 142.606 33.0473 142.606 33.346C142.606 33.6447 142.643 33.9387 142.718 34.228C142.792 34.508 142.904 34.76 143.054 34.984C143.212 35.208 143.408 35.39 143.642 35.53C143.884 35.67 144.174 35.74 144.51 35.74ZM149.658 29.762H151.17V30.826L151.198 30.854C151.441 30.4527 151.758 30.14 152.15 29.916C152.542 29.6827 152.976 29.566 153.452 29.566C154.246 29.566 154.871 29.7713 155.328 30.182C155.786 30.5927 156.014 31.2087 156.014 32.03V37H154.418V32.45C154.4 31.8807 154.278 31.47 154.054 31.218C153.83 30.9567 153.48 30.826 153.004 30.826C152.734 30.826 152.491 30.8773 152.276 30.98C152.062 31.0733 151.88 31.2087 151.73 31.386C151.581 31.554 151.464 31.7547 151.38 31.988C151.296 32.2213 151.254 32.4687 151.254 32.73V37H149.658V29.762ZM157.739 27.004H159.335V28.516H157.739V27.004ZM157.739 29.762H159.335V37H157.739V29.762ZM161.074 29.762H162.586V30.826L162.614 30.854C162.857 30.4527 163.174 30.14 163.566 29.916C163.958 29.6827 164.392 29.566 164.868 29.566C165.662 29.566 166.287 29.7713 166.744 30.182C167.202 30.5927 167.43 31.2087 167.43 32.03V37H165.834V32.45C165.816 31.8807 165.694 31.47 165.47 31.218C165.246 30.9567 164.896 30.826 164.42 30.826C164.15 30.826 163.907 30.8773 163.692 30.98C163.478 31.0733 163.296 31.2087 163.146 31.386C162.997 31.554 162.88 31.7547 162.796 31.988C162.712 32.2213 162.67 32.4687 162.67 32.73V37H161.074V29.762ZM175.805 36.622C175.805 37.714 175.497 38.526 174.881 39.058C174.275 39.5993 173.397 39.87 172.249 39.87C171.885 39.87 171.517 39.8327 171.143 39.758C170.779 39.6833 170.443 39.5573 170.135 39.38C169.837 39.2027 169.585 38.9693 169.379 38.68C169.174 38.3907 169.053 38.036 169.015 37.616H170.611C170.658 37.84 170.737 38.022 170.849 38.162C170.961 38.302 171.092 38.4093 171.241 38.484C171.4 38.568 171.573 38.6193 171.759 38.638C171.946 38.666 172.142 38.68 172.347 38.68C172.991 38.68 173.463 38.5213 173.761 38.204C174.06 37.8867 174.209 37.4293 174.209 36.832V35.726H174.181C173.957 36.1273 173.649 36.44 173.257 36.664C172.875 36.888 172.459 37 172.011 37C171.433 37 170.938 36.902 170.527 36.706C170.126 36.5007 169.79 36.2253 169.519 35.88C169.258 35.5253 169.067 35.1193 168.945 34.662C168.824 34.2047 168.763 33.7147 168.763 33.192C168.763 32.7067 168.838 32.2447 168.987 31.806C169.137 31.3673 169.351 30.9847 169.631 30.658C169.911 30.322 170.252 30.056 170.653 29.86C171.064 29.664 171.526 29.566 172.039 29.566C172.497 29.566 172.917 29.664 173.299 29.86C173.682 30.0467 173.976 30.3453 174.181 30.756H174.209V29.762H175.805V36.622ZM172.263 35.74C172.618 35.74 172.917 35.67 173.159 35.53C173.411 35.3807 173.612 35.1893 173.761 34.956C173.92 34.7133 174.032 34.4427 174.097 34.144C174.172 33.836 174.209 33.528 174.209 33.22C174.209 32.912 174.172 32.6133 174.097 32.324C174.023 32.0347 173.906 31.778 173.747 31.554C173.598 31.33 173.397 31.1527 173.145 31.022C172.903 30.8913 172.609 30.826 172.263 30.826C171.909 30.826 171.61 30.9007 171.367 31.05C171.125 31.1993 170.929 31.3953 170.779 31.638C170.63 31.8713 170.523 32.142 170.457 32.45C170.392 32.7487 170.359 33.0473 170.359 33.346C170.359 33.6447 170.397 33.9387 170.471 34.228C170.546 34.508 170.658 34.76 170.807 34.984C170.966 35.208 171.162 35.39 171.395 35.53C171.638 35.67 171.927 35.74 172.263 35.74ZM180.595 29.762H181.785V29.16C181.785 28.7027 181.841 28.334 181.953 28.054C182.065 27.7647 182.214 27.5453 182.401 27.396C182.587 27.2373 182.797 27.1347 183.031 27.088C183.273 27.032 183.525 27.004 183.787 27.004C184.3 27.004 184.673 27.0367 184.907 27.102V28.348C184.804 28.32 184.692 28.3013 184.571 28.292C184.459 28.2733 184.323 28.264 184.165 28.264C183.95 28.264 183.763 28.3153 183.605 28.418C183.455 28.5207 183.381 28.7213 183.381 29.02V29.762H184.739V30.952H183.381V37H181.785V30.952H180.595V29.762ZM189.043 37.196C188.464 37.196 187.946 37.1027 187.489 36.916C187.041 36.72 186.658 36.454 186.341 36.118C186.033 35.782 185.795 35.3807 185.627 34.914C185.468 34.4473 185.389 33.934 185.389 33.374C185.389 32.8233 185.468 32.3147 185.627 31.848C185.795 31.3813 186.033 30.98 186.341 30.644C186.658 30.308 187.041 30.0467 187.489 29.86C187.946 29.664 188.464 29.566 189.043 29.566C189.621 29.566 190.135 29.664 190.583 29.86C191.04 30.0467 191.423 30.308 191.731 30.644C192.048 30.98 192.286 31.3813 192.445 31.848C192.613 32.3147 192.697 32.8233 192.697 33.374C192.697 33.934 192.613 34.4473 192.445 34.914C192.286 35.3807 192.048 35.782 191.731 36.118C191.423 36.454 191.04 36.72 190.583 36.916C190.135 37.1027 189.621 37.196 189.043 37.196ZM189.043 35.936C189.397 35.936 189.705 35.8613 189.967 35.712C190.228 35.5627 190.443 35.3667 190.611 35.124C190.779 34.8813 190.9 34.6107 190.975 34.312C191.059 34.004 191.101 33.6913 191.101 33.374C191.101 33.066 191.059 32.758 190.975 32.45C190.9 32.142 190.779 31.8713 190.611 31.638C190.443 31.3953 190.228 31.1993 189.967 31.05C189.705 30.9007 189.397 30.826 189.043 30.826C188.688 30.826 188.38 30.9007 188.119 31.05C187.857 31.1993 187.643 31.3953 187.475 31.638C187.307 31.8713 187.181 32.142 187.097 32.45C187.022 32.758 186.985 33.066 186.985 33.374C186.985 33.6913 187.022 34.004 187.097 34.312C187.181 34.6107 187.307 34.8813 187.475 35.124C187.643 35.3667 187.857 35.5627 188.119 35.712C188.38 35.8613 188.688 35.936 189.043 35.936ZM194.024 29.762H195.522V31.162H195.55C195.596 30.966 195.685 30.7747 195.816 30.588C195.956 30.4013 196.119 30.2333 196.306 30.084C196.502 29.9253 196.716 29.7993 196.95 29.706C197.183 29.6127 197.421 29.566 197.664 29.566C197.85 29.566 197.976 29.5707 198.042 29.58C198.116 29.5893 198.191 29.5987 198.266 29.608V31.148C198.154 31.1293 198.037 31.1153 197.916 31.106C197.804 31.0873 197.692 31.078 197.58 31.078C197.309 31.078 197.052 31.134 196.81 31.246C196.576 31.3487 196.371 31.5073 196.194 31.722C196.016 31.9273 195.876 32.184 195.774 32.492C195.671 32.8 195.62 33.1547 195.62 33.556V37H194.024V29.762ZM208.904 35.39C208.904 35.586 208.927 35.726 208.974 35.81C209.03 35.894 209.133 35.936 209.282 35.936C209.329 35.936 209.385 35.936 209.45 35.936C209.515 35.936 209.59 35.9267 209.674 35.908V37.014C209.618 37.0327 209.543 37.0513 209.45 37.07C209.366 37.098 209.277 37.1213 209.184 37.14C209.091 37.1587 208.997 37.1727 208.904 37.182C208.811 37.1913 208.731 37.196 208.666 37.196C208.339 37.196 208.069 37.1307 207.854 37C207.639 36.8693 207.499 36.6407 207.434 36.314C207.117 36.622 206.725 36.846 206.258 36.986C205.801 37.126 205.357 37.196 204.928 37.196C204.601 37.196 204.289 37.1493 203.99 37.056C203.691 36.972 203.425 36.846 203.192 36.678C202.968 36.5007 202.786 36.2813 202.646 36.02C202.515 35.7493 202.45 35.4367 202.45 35.082C202.45 34.634 202.529 34.27 202.688 33.99C202.856 33.71 203.071 33.4907 203.332 33.332C203.603 33.1733 203.901 33.0613 204.228 32.996C204.564 32.9213 204.9 32.8653 205.236 32.828C205.525 32.772 205.801 32.7347 206.062 32.716C206.323 32.688 206.552 32.646 206.748 32.59C206.953 32.534 207.112 32.45 207.224 32.338C207.345 32.2167 207.406 32.0393 207.406 31.806C207.406 31.6007 207.355 31.4327 207.252 31.302C207.159 31.1713 207.037 31.0733 206.888 31.008C206.748 30.9333 206.589 30.8867 206.412 30.868C206.235 30.84 206.067 30.826 205.908 30.826C205.46 30.826 205.091 30.9193 204.802 31.106C204.513 31.2927 204.349 31.582 204.312 31.974H202.716C202.744 31.5073 202.856 31.12 203.052 30.812C203.248 30.504 203.495 30.2567 203.794 30.07C204.102 29.8833 204.447 29.7527 204.83 29.678C205.213 29.6033 205.605 29.566 206.006 29.566C206.361 29.566 206.711 29.6033 207.056 29.678C207.401 29.7527 207.709 29.874 207.98 30.042C208.26 30.21 208.484 30.4293 208.652 30.7C208.82 30.9613 208.904 31.2833 208.904 31.666V35.39ZM207.308 33.374C207.065 33.5327 206.767 33.6307 206.412 33.668C206.057 33.696 205.703 33.7427 205.348 33.808C205.18 33.836 205.017 33.878 204.858 33.934C204.699 33.9807 204.559 34.0507 204.438 34.144C204.317 34.228 204.219 34.3447 204.144 34.494C204.079 34.634 204.046 34.8067 204.046 35.012C204.046 35.1893 204.097 35.3387 204.2 35.46C204.303 35.5813 204.424 35.6793 204.564 35.754C204.713 35.8193 204.872 35.866 205.04 35.894C205.217 35.922 205.376 35.936 205.516 35.936C205.693 35.936 205.885 35.9127 206.09 35.866C206.295 35.8193 206.487 35.74 206.664 35.628C206.851 35.516 207.005 35.376 207.126 35.208C207.247 35.0307 207.308 34.816 207.308 34.564V33.374ZM210.663 27.004H212.259V37H210.663V27.004ZM214.04 27.004H215.636V37H214.04V27.004ZM217.501 35.11H219.447V37H217.501V35.11ZM221.398 35.11H223.344V37H221.398V35.11ZM225.294 35.11H227.24V37H225.294V35.11ZM229.191 35.11H231.137V37H229.191V35.11ZM233.087 35.11H235.033V37H233.087V35.11ZM236.984 35.11H238.93V37H236.984V35.11ZM240.88 35.11H242.826V37H240.88V35.11ZM244.777 35.11H246.723V37H244.777V35.11Z" fill="#133D1C"/>
<rect x="0.5" y="0.5" width="260" height="62" stroke="#133D1C"/>
</svg>
