<svg width="988" height="162" viewBox="0 0 988 162" fill="none" xmlns="http://www.w3.org/2000/svg">
<rect x="14.5156" y="14" width="958.97" height="133.014" rx="40.9477" fill="#133D1C"/>
<path d="M81.0621 65.2835V60.5899H84.3942C85.3616 60.5899 86.0663 60.7929 86.5082 61.199C86.962 61.5931 87.1889 62.1724 87.1889 62.9367C87.1889 63.7011 86.962 64.2863 86.5082 64.6923C86.0663 65.0984 85.3616 65.2955 84.3942 65.2835H81.0621ZM79.3602 59.1567V71.9478H81.0621V66.7167H84.9675C86.2574 66.7286 87.2307 66.4002 87.8876 65.7314C88.5564 65.0626 88.8908 64.131 88.8908 62.9367C88.8908 61.7424 88.5564 60.8168 87.8876 60.1599C87.2307 59.4911 86.2574 59.1567 84.9675 59.1567H79.3602ZM90.6722 62.6859V71.9478H92.1949V67.8274C92.1949 67.2302 92.2546 66.7047 92.3741 66.2509C92.4935 65.7851 92.6846 65.391 92.9473 65.0685C93.2101 64.7461 93.5564 64.5013 93.9864 64.334C94.4163 64.1668 94.9359 64.0832 95.545 64.0832V62.4709C94.7209 62.447 94.0401 62.6142 93.5027 62.9725C92.9652 63.3308 92.5114 63.8862 92.1412 64.6386H92.1053V62.6859H90.6722ZM97.4874 67.3258C97.4874 66.7645 97.5591 66.2688 97.7024 65.8389C97.8577 65.397 98.0667 65.0267 98.3294 64.7282C98.5922 64.4296 98.8967 64.2027 99.2431 64.0474C99.6013 63.8922 99.9776 63.8145 100.372 63.8145C100.766 63.8145 101.136 63.8922 101.482 64.0474C101.841 64.2027 102.151 64.4296 102.414 64.7282C102.677 65.0267 102.88 65.397 103.023 65.8389C103.178 66.2688 103.256 66.7645 103.256 67.3258C103.256 67.8871 103.178 68.3887 103.023 68.8306C102.88 69.2606 102.677 69.6248 102.414 69.9234C102.151 70.21 101.841 70.431 101.482 70.5862C101.136 70.7415 100.766 70.8191 100.372 70.8191C99.9776 70.8191 99.6013 70.7415 99.2431 70.5862C98.8967 70.431 98.5922 70.21 98.3294 69.9234C98.0667 69.6248 97.8577 69.2606 97.7024 68.8306C97.5591 68.3887 97.4874 67.8871 97.4874 67.3258ZM95.8751 67.3258C95.8751 68.0065 95.9707 68.6395 96.1617 69.2247C96.3528 69.8099 96.6395 70.3235 97.0216 70.7654C97.4038 71.1953 97.8756 71.5357 98.4369 71.7865C98.9982 72.0254 99.6431 72.1448 100.372 72.1448C101.112 72.1448 101.757 72.0254 102.306 71.7865C102.868 71.5357 103.34 71.1953 103.722 70.7654C104.104 70.3235 104.391 69.8099 104.582 69.2247C104.773 68.6395 104.868 68.0065 104.868 67.3258C104.868 66.645 104.773 66.012 104.582 65.4268C104.391 64.8297 104.104 64.3161 103.722 63.8862C103.34 63.4443 102.868 63.0979 102.306 62.8471C101.757 62.5963 101.112 62.4709 100.372 62.4709C99.6431 62.4709 98.9982 62.5963 98.4369 62.8471C97.8756 63.0979 97.4038 63.4443 97.0216 63.8862C96.6395 64.3161 96.3528 64.8297 96.1617 65.4268C95.9707 66.012 95.8751 66.645 95.8751 67.3258ZM107.774 67.3974C107.774 66.9436 107.822 66.5017 107.918 66.0718C108.013 65.6418 108.168 65.2596 108.383 64.9252C108.598 64.5908 108.885 64.3221 109.243 64.1191C109.602 63.916 110.038 63.8145 110.551 63.8145C111.077 63.8145 111.524 63.916 111.895 64.1191C112.265 64.3102 112.563 64.5669 112.79 64.8894C113.029 65.2119 113.202 65.5881 113.31 66.018C113.417 66.436 113.471 66.872 113.471 67.3258C113.471 67.7557 113.417 68.1797 113.31 68.5977C113.214 69.0157 113.053 69.3919 112.826 69.7263C112.599 70.0488 112.307 70.3116 111.948 70.5146C111.59 70.7176 111.154 70.8191 110.641 70.8191C110.151 70.8191 109.721 70.7236 109.351 70.5325C108.993 70.3414 108.694 70.0846 108.455 69.7622C108.228 69.4397 108.055 69.0754 107.936 68.6694C107.828 68.2514 107.774 67.8274 107.774 67.3974ZM114.94 71.9478V59.1567H113.417V63.922H113.382C113.214 63.6473 113.005 63.4204 112.755 63.2413C112.516 63.0502 112.259 62.9009 111.984 62.7934C111.71 62.674 111.435 62.5904 111.16 62.5426C110.885 62.4948 110.629 62.4709 110.39 62.4709C109.685 62.4709 109.064 62.6023 108.527 62.8651C108.001 63.1159 107.559 63.4622 107.201 63.9041C106.855 64.334 106.592 64.8416 106.413 65.4268C106.246 66.012 106.162 66.6331 106.162 67.29C106.162 67.9468 106.252 68.5679 106.431 69.1531C106.61 69.7383 106.873 70.2518 107.219 70.6937C107.577 71.1356 108.019 71.4879 108.545 71.7507C109.082 72.0134 109.709 72.1448 110.426 72.1448C111.071 72.1448 111.662 72.0314 112.199 71.8044C112.737 71.5775 113.131 71.2073 113.382 70.6937H113.417V71.9478H114.94ZM124.95 71.9478V62.6859H123.428V67.917C123.428 68.335 123.368 68.7231 123.248 69.0814C123.141 69.4278 122.974 69.7323 122.747 69.9951C122.52 70.2578 122.233 70.4608 121.887 70.6042C121.553 70.7475 121.152 70.8191 120.687 70.8191C120.101 70.8191 119.642 70.6519 119.307 70.3175C118.973 69.9831 118.806 69.5293 118.806 68.956V62.6859H117.283V68.7769C117.283 69.2785 117.331 69.7383 117.426 70.1563C117.534 70.5624 117.713 70.9147 117.964 71.2133C118.214 71.5118 118.543 71.7447 118.949 71.9119C119.355 72.0672 119.863 72.1448 120.472 72.1448C121.152 72.1448 121.744 72.0134 122.245 71.7507C122.747 71.476 123.159 71.052 123.481 70.4788H123.517V71.9478H124.95ZM133.525 65.6597H135.102C135.042 65.1103 134.899 64.6386 134.672 64.2445C134.445 63.8384 134.152 63.504 133.794 63.2413C133.448 62.9785 133.042 62.7874 132.576 62.668C132.122 62.5366 131.632 62.4709 131.107 62.4709C130.378 62.4709 129.739 62.6023 129.19 62.8651C128.641 63.1159 128.181 63.4682 127.811 63.922C127.452 64.3639 127.184 64.8894 127.005 65.4985C126.825 66.0957 126.736 66.7406 126.736 67.4333C126.736 68.126 126.825 68.7649 127.005 69.3501C127.196 69.9234 127.47 70.419 127.829 70.837C128.199 71.2551 128.653 71.5775 129.19 71.8044C129.739 72.0314 130.367 72.1448 131.071 72.1448C132.254 72.1448 133.185 71.8343 133.866 71.2133C134.559 70.5922 134.988 69.7084 135.156 68.5619H133.597C133.502 69.2785 133.239 69.8338 132.809 70.228C132.391 70.6221 131.806 70.8191 131.053 70.8191C130.576 70.8191 130.163 70.7236 129.817 70.5325C129.471 70.3414 129.19 70.0906 128.975 69.7801C128.76 69.4576 128.599 69.0934 128.491 68.6873C128.396 68.2812 128.348 67.8632 128.348 67.4333C128.348 66.9675 128.396 66.5196 128.491 66.0897C128.587 65.6478 128.742 65.2596 128.957 64.9252C129.184 64.5908 129.483 64.3221 129.853 64.1191C130.223 63.916 130.683 63.8145 131.232 63.8145C131.877 63.8145 132.391 63.9758 132.773 64.2982C133.155 64.6207 133.406 65.0745 133.525 65.6597ZM138.973 62.6859V59.9091H137.451V62.6859H135.874V64.0295H137.451V69.9234C137.451 70.3534 137.492 70.6997 137.576 70.9625C137.66 71.2252 137.785 71.4282 137.952 71.5715C138.131 71.7149 138.358 71.8164 138.633 71.8761C138.92 71.9239 139.26 71.9478 139.654 71.9478H140.819V70.6042H140.12C139.881 70.6042 139.684 70.5982 139.529 70.5862C139.385 70.5624 139.272 70.5206 139.188 70.4608C139.105 70.4011 139.045 70.3175 139.009 70.21C138.985 70.1025 138.973 69.9592 138.973 69.7801V64.0295H140.819V62.6859H138.973Z" fill="#E1F8E6"/>
<path d="M56.978 86.4478H60.5813L64.6147 97.8927H64.6556L68.5866 86.4478H72.1491V101.066H69.7127V89.7851H69.6717L65.6179 101.066H63.5091L59.4553 89.7851H59.4143V101.066H56.978V86.4478ZM79.7381 101.353C78.8919 101.353 78.1344 101.216 77.4655 100.943C76.8104 100.657 76.2508 100.268 75.7867 99.7763C75.3363 99.2849 74.9882 98.698 74.7425 98.0156C74.5105 97.3331 74.3945 96.5824 74.3945 95.7634C74.3945 94.9581 74.5105 94.2143 74.7425 93.5318C74.9882 92.8493 75.3363 92.2624 75.7867 91.771C76.2508 91.2797 76.8104 90.8975 77.4655 90.6245C78.1344 90.3379 78.8919 90.1946 79.7381 90.1946C80.5844 90.1946 81.3351 90.3379 81.9903 90.6245C82.6591 90.8975 83.2187 91.2797 83.6691 91.771C84.1332 92.2624 84.4812 92.8493 84.7133 93.5318C84.959 94.2143 85.0818 94.9581 85.0818 95.7634C85.0818 96.5824 84.959 97.3331 84.7133 98.0156C84.4812 98.698 84.1332 99.2849 83.6691 99.7763C83.2187 100.268 82.6591 100.657 81.9903 100.943C81.3351 101.216 80.5844 101.353 79.7381 101.353ZM79.7381 99.5102C80.2568 99.5102 80.7072 99.401 81.0894 99.1826C81.4716 98.9642 81.7855 98.6775 82.0312 98.3227C82.2769 97.9678 82.4543 97.572 82.5635 97.1352C82.6864 96.6848 82.7478 96.2275 82.7478 95.7634C82.7478 95.313 82.6864 94.8626 82.5635 94.4122C82.4543 93.9617 82.2769 93.5659 82.0312 93.2247C81.7855 92.8698 81.4716 92.5832 81.0894 92.3648C80.7072 92.1464 80.2568 92.0372 79.7381 92.0372C79.2195 92.0372 78.769 92.1464 78.3869 92.3648C78.0047 92.5832 77.6908 92.8698 77.4451 93.2247C77.1994 93.5659 77.0151 93.9617 76.8923 94.4122C76.7831 94.8626 76.7285 95.313 76.7285 95.7634C76.7285 96.2275 76.7831 96.6848 76.8923 97.1352C77.0151 97.572 77.1994 97.9678 77.4451 98.3227C77.6908 98.6775 78.0047 98.9642 78.3869 99.1826C78.769 99.401 79.2195 99.5102 79.7381 99.5102ZM87.0222 90.4812H89.2129V92.5286H89.2538C89.3221 92.2419 89.4517 91.9621 89.6428 91.6891C89.8476 91.4162 90.0864 91.1705 90.3594 90.9521C90.646 90.7201 90.96 90.5358 91.3012 90.3993C91.6424 90.2628 91.9905 90.1946 92.3454 90.1946C92.6184 90.1946 92.8026 90.2014 92.8982 90.215C93.0074 90.2287 93.1166 90.2423 93.2258 90.256V92.5081C93.062 92.4808 92.8913 92.4603 92.7139 92.4467C92.5501 92.4194 92.3863 92.4057 92.2225 92.4057C91.8267 92.4057 91.4514 92.4876 91.0965 92.6514C90.7552 92.8016 90.455 93.0336 90.1956 93.3475C89.9363 93.6478 89.7316 94.0232 89.5814 94.4736C89.4313 94.924 89.3562 95.4427 89.3562 96.0296V101.066H87.0222V90.4812ZM101.128 94.8421C101.101 94.4736 101.019 94.1187 100.883 93.7775C100.76 93.4362 100.582 93.1428 100.35 92.8971C100.132 92.6378 99.8589 92.433 99.5314 92.2829C99.2174 92.1191 98.8626 92.0372 98.4667 92.0372C98.0573 92.0372 97.6819 92.1123 97.3407 92.2624C97.0131 92.3989 96.7265 92.5968 96.4808 92.8562C96.2487 93.1018 96.0576 93.3953 95.9075 93.7365C95.771 94.0778 95.6959 94.4463 95.6823 94.8421H101.128ZM95.6823 96.3777C95.6823 96.7871 95.7369 97.183 95.8461 97.5651C95.9689 97.9473 96.1464 98.2817 96.3784 98.5684C96.6104 98.855 96.9039 99.087 97.2588 99.2645C97.6137 99.4283 98.0368 99.5102 98.5282 99.5102C99.2106 99.5102 99.7566 99.3668 100.166 99.0802C100.589 98.7799 100.903 98.3363 101.108 97.7494H103.319C103.196 98.3227 102.985 98.8345 102.684 99.2849C102.384 99.7354 102.022 100.118 101.599 100.431C101.176 100.732 100.698 100.957 100.166 101.107C99.6474 101.271 99.1014 101.353 98.5282 101.353C97.6955 101.353 96.9585 101.216 96.317 100.943C95.6755 100.67 95.1295 100.288 94.6791 99.7968C94.2423 99.3054 93.9079 98.7185 93.6759 98.036C93.4575 97.3536 93.3483 96.6029 93.3483 95.7839C93.3483 95.0332 93.4643 94.3234 93.6963 93.6546C93.942 92.9722 94.2832 92.3784 94.72 91.8734C95.1704 91.3547 95.7096 90.9453 96.3375 90.645C96.9653 90.3447 97.6751 90.1946 98.4667 90.1946C99.2993 90.1946 100.043 90.372 100.698 90.7269C101.367 91.0681 101.92 91.5254 102.357 92.0986C102.794 92.6719 103.107 93.3339 103.299 94.0846C103.503 94.8216 103.558 95.586 103.462 96.3777H95.6823ZM111.16 86.4478H113.863L120.537 97.2171H120.578V86.4478H123.015V101.066H120.312L113.658 90.3174H113.597V101.066H111.16V86.4478ZM125.772 86.4478H128.106V88.659H125.772V86.4478ZM125.772 90.4812H128.106V101.066H125.772V90.4812ZM137.794 94.0232C137.699 93.368 137.433 92.8766 136.996 92.549C136.573 92.2078 136.034 92.0372 135.378 92.0372C135.078 92.0372 134.757 92.0918 134.416 92.201C134.075 92.2965 133.761 92.4876 133.474 92.7743C133.188 93.0472 132.949 93.4362 132.758 93.9413C132.567 94.4326 132.471 95.081 132.471 95.8863C132.471 96.3231 132.519 96.7598 132.615 97.1966C132.724 97.6334 132.888 98.0224 133.106 98.3636C133.338 98.7048 133.631 98.9847 133.986 99.203C134.341 99.4078 134.771 99.5102 135.276 99.5102C135.959 99.5102 136.518 99.2986 136.955 98.8755C137.405 98.4523 137.685 97.8586 137.794 97.0942H140.128C139.91 98.4728 139.385 99.5306 138.552 100.268C137.733 100.991 136.641 101.353 135.276 101.353C134.444 101.353 133.706 101.216 133.065 100.943C132.437 100.657 131.905 100.275 131.468 99.7968C131.031 99.3054 130.697 98.7253 130.465 98.0565C130.246 97.3877 130.137 96.6643 130.137 95.8863C130.137 95.0946 130.246 94.3507 130.465 93.6546C130.683 92.9585 131.011 92.358 131.448 91.8529C131.884 91.3343 132.423 90.9316 133.065 90.645C133.72 90.3447 134.484 90.1946 135.358 90.1946C135.972 90.1946 136.552 90.2765 137.098 90.4402C137.658 90.5904 138.149 90.8224 138.572 91.1364C139.009 91.4503 139.364 91.8461 139.637 92.3238C139.91 92.8016 140.074 93.368 140.128 94.0232H137.794ZM142.026 86.4478H144.36V91.8734H144.401C144.687 91.3957 145.11 90.9999 145.67 90.6859C146.243 90.3583 146.878 90.1946 147.574 90.1946C148.734 90.1946 149.649 90.4948 150.318 91.0954C150.986 91.696 151.321 92.5968 151.321 93.798V101.066H148.987V94.4122C148.959 93.5796 148.782 92.979 148.454 92.6105C148.127 92.2283 147.615 92.0372 146.919 92.0372C146.523 92.0372 146.168 92.1123 145.854 92.2624C145.54 92.3989 145.274 92.5968 145.056 92.8562C144.837 93.1018 144.667 93.3953 144.544 93.7365C144.421 94.0778 144.36 94.4395 144.36 94.8216V101.066H142.026V86.4478ZM161.05 94.8421C161.023 94.4736 160.941 94.1187 160.805 93.7775C160.682 93.4362 160.504 93.1428 160.272 92.8971C160.054 92.6378 159.781 92.433 159.453 92.2829C159.139 92.1191 158.784 92.0372 158.389 92.0372C157.979 92.0372 157.604 92.1123 157.263 92.2624C156.935 92.3989 156.648 92.5968 156.403 92.8562C156.171 93.1018 155.98 93.3953 155.829 93.7365C155.693 94.0778 155.618 94.4463 155.604 94.8421H161.05ZM155.604 96.3777C155.604 96.7871 155.659 97.183 155.768 97.5651C155.891 97.9473 156.068 98.2817 156.3 98.5684C156.532 98.855 156.826 99.087 157.181 99.2645C157.536 99.4283 157.959 99.5102 158.45 99.5102C159.133 99.5102 159.679 99.3668 160.088 99.0802C160.511 98.7799 160.825 98.3363 161.03 97.7494H163.241C163.118 98.3227 162.907 98.8345 162.606 99.2849C162.306 99.7354 161.944 100.118 161.521 100.431C161.098 100.732 160.62 100.957 160.088 101.107C159.569 101.271 159.023 101.353 158.45 101.353C157.617 101.353 156.88 101.216 156.239 100.943C155.597 100.67 155.051 100.288 154.601 99.7968C154.164 99.3054 153.83 98.7185 153.598 98.036C153.379 97.3536 153.27 96.6029 153.27 95.7839C153.27 95.0332 153.386 94.3234 153.618 93.6546C153.864 92.9722 154.205 92.3784 154.642 91.8734C155.092 91.3547 155.632 90.9453 156.259 90.645C156.887 90.3447 157.597 90.1946 158.389 90.1946C159.221 90.1946 159.965 90.372 160.62 90.7269C161.289 91.0681 161.842 91.5254 162.279 92.0986C162.715 92.6719 163.029 93.3339 163.22 94.0846C163.425 94.8216 163.48 95.586 163.384 96.3777H155.604Z" fill="#E1F8E6"/>
<path d="M205.411 54.9478V94.9478" stroke="#E1F8E6"/>
<path d="M268.249 63.0084H269.951C269.855 62.3276 269.652 61.7305 269.342 61.2169C269.031 60.6914 268.643 60.2555 268.177 59.9091C267.711 59.5628 267.18 59.3 266.583 59.1209C265.986 58.9418 265.353 58.8522 264.684 58.8522C263.705 58.8522 262.833 59.0313 262.068 59.3896C261.316 59.736 260.683 60.2137 260.169 60.8228C259.668 61.4319 259.286 62.1485 259.023 62.9725C258.76 63.7847 258.629 64.6565 258.629 65.5881C258.629 66.5196 258.748 67.3915 258.987 68.2036C259.238 69.0157 259.608 69.7204 260.098 70.3175C260.587 70.9147 261.202 71.3864 261.943 71.7328C262.683 72.0672 263.549 72.2344 264.541 72.2344C266.177 72.2344 267.467 71.7865 268.41 70.8908C269.354 69.9951 269.909 68.741 270.076 67.1287H268.374C268.338 67.6542 268.231 68.1439 268.052 68.5977C267.873 69.0516 267.622 69.4457 267.299 69.7801C266.989 70.1025 266.613 70.3593 266.171 70.5504C265.741 70.7296 265.245 70.8191 264.684 70.8191C263.92 70.8191 263.263 70.6758 262.713 70.3892C262.164 70.1025 261.71 69.7204 261.352 69.2426C261.005 68.753 260.749 68.1857 260.581 67.5408C260.414 66.8839 260.331 66.1912 260.331 65.4627C260.331 64.7939 260.414 64.1489 260.581 63.5279C260.749 62.9069 261.005 62.3575 261.352 61.8797C261.71 61.3901 262.158 61.0019 262.695 60.7153C263.245 60.4287 263.902 60.2853 264.666 60.2853C265.562 60.2853 266.332 60.5123 266.977 60.9661C267.634 61.4199 268.058 62.1007 268.249 63.0084ZM273.044 67.3258C273.044 66.7645 273.116 66.2688 273.259 65.8389C273.414 65.397 273.623 65.0267 273.886 64.7282C274.149 64.4296 274.454 64.2027 274.8 64.0474C275.158 63.8922 275.534 63.8145 275.928 63.8145C276.323 63.8145 276.693 63.8922 277.039 64.0474C277.397 64.2027 277.708 64.4296 277.971 64.7282C278.234 65.0267 278.437 65.397 278.58 65.8389C278.735 66.2688 278.813 66.7645 278.813 67.3258C278.813 67.8871 278.735 68.3887 278.58 68.8306C278.437 69.2606 278.234 69.6248 277.971 69.9234C277.708 70.21 277.397 70.431 277.039 70.5862C276.693 70.7415 276.323 70.8191 275.928 70.8191C275.534 70.8191 275.158 70.7415 274.8 70.5862C274.454 70.431 274.149 70.21 273.886 69.9234C273.623 69.6248 273.414 69.2606 273.259 68.8306C273.116 68.3887 273.044 67.8871 273.044 67.3258ZM271.432 67.3258C271.432 68.0065 271.527 68.6395 271.719 69.2247C271.91 69.8099 272.196 70.3235 272.578 70.7654C272.961 71.1953 273.432 71.5357 273.994 71.7865C274.555 72.0254 275.2 72.1448 275.928 72.1448C276.669 72.1448 277.314 72.0254 277.863 71.7865C278.425 71.5357 278.896 71.1953 279.279 70.7654C279.661 70.3235 279.947 69.8099 280.138 69.2247C280.33 68.6395 280.425 68.0065 280.425 67.3258C280.425 66.645 280.33 66.012 280.138 65.4268C279.947 64.8297 279.661 64.3161 279.279 63.8862C278.896 63.4443 278.425 63.0979 277.863 62.8471C277.314 62.5963 276.669 62.4709 275.928 62.4709C275.2 62.4709 274.555 62.5963 273.994 62.8471C273.432 63.0979 272.961 63.4443 272.578 63.8862C272.196 64.3161 271.91 64.8297 271.719 65.4268C271.527 66.012 271.432 66.645 271.432 67.3258ZM282.22 62.6859V71.9478H283.743V66.1793C283.743 66.0001 283.785 65.7792 283.869 65.5164C283.964 65.2417 284.107 64.979 284.299 64.7282C284.502 64.4774 284.758 64.2624 285.069 64.0832C285.391 63.9041 285.773 63.8145 286.215 63.8145C286.562 63.8145 286.842 63.8683 287.057 63.9758C287.284 64.0713 287.463 64.2146 287.595 64.4057C287.726 64.5849 287.816 64.7998 287.864 65.0506C287.923 65.3014 287.953 65.5761 287.953 65.8747V71.9478H289.476V66.1793C289.476 65.4627 289.691 64.8894 290.121 64.4595C290.551 64.0295 291.142 63.8145 291.894 63.8145C292.265 63.8145 292.563 63.8683 292.79 63.9758C293.029 64.0832 293.214 64.2325 293.345 64.4236C293.477 64.6028 293.566 64.8177 293.614 65.0685C293.662 65.3194 293.686 65.5881 293.686 65.8747V71.9478H295.209V65.1581C295.209 64.6804 295.131 64.2743 294.976 63.9399C294.832 63.5936 294.623 63.3129 294.349 63.0979C294.086 62.883 293.763 62.7277 293.381 62.6322C293.011 62.5247 292.593 62.4709 292.127 62.4709C291.518 62.4709 290.957 62.6083 290.443 62.883C289.942 63.1577 289.536 63.5458 289.225 64.0474C289.034 63.4741 288.706 63.0681 288.24 62.8292C287.774 62.5904 287.254 62.4709 286.681 62.4709C285.379 62.4709 284.382 62.9964 283.689 64.0474H283.654V62.6859H282.22ZM297.547 62.6859V75.4769H299.07V70.7116H299.106C299.273 70.9863 299.476 71.2192 299.715 71.4103C299.966 71.5895 300.228 71.7328 300.503 71.8403C300.778 71.9478 301.052 72.0254 301.327 72.0732C301.614 72.1209 301.87 72.1448 302.097 72.1448C302.802 72.1448 303.417 72.0194 303.943 71.7686C304.48 71.5178 304.922 71.1774 305.268 70.7475C305.627 70.3056 305.889 69.792 306.057 69.2068C306.236 68.6216 306.325 68.0006 306.325 67.3437C306.325 66.6868 306.236 66.0658 306.057 65.4806C305.877 64.8954 305.609 64.3818 305.25 63.9399C304.904 63.4861 304.462 63.1278 303.925 62.8651C303.399 62.6023 302.778 62.4709 302.062 62.4709C301.417 62.4709 300.825 62.5904 300.288 62.8292C299.751 63.0561 299.356 63.4264 299.106 63.9399H299.07V62.6859H297.547ZM304.713 67.2362C304.713 67.6901 304.665 68.1319 304.57 68.5619C304.474 68.9918 304.319 69.374 304.104 69.7084C303.889 70.0428 303.602 70.3116 303.244 70.5146C302.898 70.7176 302.462 70.8191 301.936 70.8191C301.411 70.8191 300.963 70.7236 300.593 70.5325C300.222 70.3295 299.918 70.0667 299.679 69.7443C299.452 69.4218 299.285 69.0516 299.177 68.6336C299.07 68.2036 299.016 67.7617 299.016 67.3079C299.016 66.8779 299.064 66.4539 299.159 66.0359C299.267 65.6179 299.434 65.2477 299.661 64.9252C299.888 64.5908 300.181 64.3221 300.539 64.1191C300.897 63.916 301.333 63.8145 301.847 63.8145C302.336 63.8145 302.76 63.9101 303.119 64.1012C303.489 64.2922 303.787 64.549 304.014 64.8715C304.253 65.1939 304.426 65.5642 304.534 65.9822C304.653 66.3883 304.713 66.8063 304.713 67.2362ZM316.318 71.9119C316.055 72.0672 315.691 72.1448 315.225 72.1448C314.831 72.1448 314.514 72.0373 314.275 71.8224C314.048 71.5954 313.935 71.2312 313.935 70.7296C313.517 71.2312 313.027 71.5954 312.466 71.8224C311.916 72.0373 311.319 72.1448 310.674 72.1448C310.256 72.1448 309.856 72.097 309.474 72.0015C309.104 71.906 308.781 71.7567 308.507 71.5536C308.232 71.3506 308.011 71.0879 307.844 70.7654C307.689 70.431 307.611 70.0309 307.611 69.5651C307.611 69.0396 307.701 68.6097 307.88 68.2753C308.059 67.9409 308.292 67.6721 308.578 67.4691C308.877 67.2541 309.211 67.0929 309.582 66.9854C309.964 66.8779 310.352 66.7883 310.746 66.7167C311.164 66.6331 311.558 66.5734 311.928 66.5375C312.311 66.4898 312.645 66.4301 312.932 66.3584C313.218 66.2748 313.445 66.1613 313.612 66.018C313.78 65.8628 313.863 65.6418 313.863 65.3552C313.863 65.0208 313.798 64.7521 313.666 64.549C313.547 64.346 313.385 64.1907 313.182 64.0832C312.991 63.9758 312.77 63.9041 312.52 63.8683C312.281 63.8324 312.042 63.8145 311.803 63.8145C311.158 63.8145 310.621 63.9399 310.191 64.1907C309.761 64.4296 309.528 64.8894 309.492 65.5702H307.969C307.993 64.9969 308.113 64.5132 308.328 64.1191C308.543 63.725 308.829 63.4085 309.188 63.1696C309.546 62.9188 309.952 62.7396 310.406 62.6322C310.871 62.5247 311.367 62.4709 311.893 62.4709C312.311 62.4709 312.723 62.5008 313.129 62.5605C313.547 62.6202 313.923 62.7456 314.257 62.9367C314.592 63.1159 314.86 63.3726 315.063 63.707C315.267 64.0414 315.368 64.4774 315.368 65.0148V69.7801C315.368 70.1384 315.386 70.4011 315.422 70.5683C315.47 70.7355 315.613 70.8191 315.852 70.8191C315.983 70.8191 316.138 70.7893 316.318 70.7296V71.9119ZM313.845 67.1646C313.654 67.3079 313.403 67.4154 313.093 67.487C312.782 67.5467 312.454 67.6005 312.108 67.6482C311.773 67.6841 311.433 67.7319 311.086 67.7916C310.74 67.8393 310.43 67.9229 310.155 68.0424C309.88 68.1618 309.653 68.335 309.474 68.5619C309.307 68.7769 309.223 69.0754 309.223 69.4576C309.223 69.7084 309.271 69.9234 309.367 70.1025C309.474 70.2698 309.606 70.4071 309.761 70.5146C309.928 70.6221 310.119 70.6997 310.334 70.7475C310.549 70.7952 310.776 70.8191 311.015 70.8191C311.516 70.8191 311.946 70.7534 312.305 70.6221C312.663 70.4788 312.956 70.3056 313.182 70.1025C313.409 69.8876 313.577 69.6607 313.684 69.4218C313.792 69.171 313.845 68.9381 313.845 68.7231V67.1646ZM317.735 62.6859V71.9478H319.257V66.7167C319.257 66.2987 319.311 65.9165 319.419 65.5702C319.538 65.2119 319.711 64.9013 319.938 64.6386C320.165 64.3758 320.446 64.1728 320.78 64.0295C321.127 63.8862 321.533 63.8145 321.998 63.8145C322.584 63.8145 323.043 63.9817 323.378 64.3161C323.712 64.6505 323.879 65.1044 323.879 65.6776V71.9478H325.402V65.8568C325.402 65.3552 325.348 64.9013 325.241 64.4953C325.145 64.0773 324.972 63.719 324.721 63.4204C324.471 63.1218 324.142 62.8889 323.736 62.7217C323.33 62.5545 322.822 62.4709 322.213 62.4709C320.84 62.4709 319.837 63.0323 319.204 64.1549H319.168V62.6859H317.735ZM331.326 73.1839C331.147 73.6377 330.968 74.0199 330.788 74.3304C330.621 74.6409 330.43 74.8917 330.215 75.0828C330.012 75.2858 329.779 75.4292 329.517 75.5128C329.266 75.6083 328.973 75.6561 328.639 75.6561C328.46 75.6561 328.28 75.6441 328.101 75.6202C327.922 75.5964 327.749 75.5546 327.582 75.4948V74.0975C327.713 74.1572 327.862 74.205 328.03 74.2408C328.209 74.2886 328.358 74.3125 328.477 74.3125C328.788 74.3125 329.045 74.2349 329.248 74.0796C329.463 73.9363 329.624 73.7273 329.731 73.4526L330.359 71.894L326.686 62.6859H328.406L331.111 70.2638H331.147L333.744 62.6859H335.357L331.326 73.1839Z" fill="#E1F8E6"/>
<path d="M255.797 96.3572C255.797 96.9987 255.742 97.6197 255.633 98.2203C255.524 98.8209 255.299 99.36 254.957 99.8377C254.63 100.315 254.145 100.698 253.504 100.984C252.876 101.271 252.036 101.414 250.985 101.414C250.207 101.414 249.545 101.298 249 101.066C248.454 100.82 248.003 100.493 247.648 100.083C247.293 99.6603 247.034 99.1621 246.87 98.5888C246.706 98.0156 246.625 97.3945 246.625 96.7257V95.9477H249.184V96.7052C249.184 97.5378 249.32 98.1862 249.593 98.6503C249.88 99.1007 250.412 99.3259 251.19 99.3259C251.6 99.3259 251.934 99.2645 252.193 99.1416C252.466 99.0188 252.678 98.8413 252.828 98.6093C252.992 98.3636 253.101 98.0633 253.156 97.7085C253.21 97.3536 253.238 96.9509 253.238 96.5005V86.4478H255.797V96.3572ZM267.879 101.066H265.586V99.592H265.545C265.258 100.124 264.828 100.554 264.255 100.882C263.695 101.196 263.122 101.353 262.535 101.353C261.143 101.353 260.133 101.012 259.505 100.329C258.891 99.633 258.584 98.5888 258.584 97.1966V90.4812H260.918V96.9714C260.918 97.8995 261.095 98.5547 261.45 98.9369C261.805 99.3191 262.303 99.5102 262.944 99.5102C263.436 99.5102 263.845 99.4351 264.173 99.2849C264.5 99.1348 264.767 98.9369 264.971 98.6912C265.176 98.4319 265.319 98.1248 265.401 97.7699C265.497 97.415 265.545 97.0328 265.545 96.6233V90.4812H267.879V101.066ZM270.401 86.4478H272.735V88.659H270.401V86.4478ZM270.401 90.4812H272.735V101.066H270.401V90.4812ZM282.424 94.0232C282.328 93.368 282.062 92.8766 281.625 92.549C281.202 92.2078 280.663 92.0372 280.008 92.0372C279.708 92.0372 279.387 92.0918 279.046 92.201C278.704 92.2965 278.391 92.4876 278.104 92.7743C277.817 93.0472 277.578 93.4362 277.387 93.9413C277.196 94.4326 277.101 95.081 277.101 95.8863C277.101 96.3231 277.148 96.7598 277.244 97.1966C277.353 97.6334 277.517 98.0224 277.735 98.3636C277.967 98.7048 278.261 98.9847 278.616 99.203C278.971 99.4078 279.401 99.5102 279.906 99.5102C280.588 99.5102 281.148 99.2986 281.584 98.8755C282.035 98.4523 282.315 97.8586 282.424 97.0942H284.758C284.539 98.4728 284.014 99.5306 283.181 100.268C282.362 100.991 281.27 101.353 279.906 101.353C279.073 101.353 278.336 101.216 277.694 100.943C277.067 100.657 276.534 100.275 276.097 99.7968C275.661 99.3054 275.326 98.7253 275.094 98.0565C274.876 97.3877 274.767 96.6643 274.767 95.8863C274.767 95.0946 274.876 94.3507 275.094 93.6546C275.313 92.9585 275.64 92.358 276.077 91.8529C276.514 91.3343 277.053 90.9316 277.694 90.645C278.35 90.3447 279.114 90.1946 279.987 90.1946C280.602 90.1946 281.182 90.2765 281.728 90.4402C282.287 90.5904 282.779 90.8224 283.202 91.1364C283.639 91.4503 283.994 91.8461 284.266 92.3238C284.539 92.8016 284.703 93.368 284.758 94.0232H282.424ZM285.488 90.4812H288.047L290.811 98.3841H290.852L293.534 90.4812H295.971L291.855 101.639C291.664 102.117 291.473 102.574 291.282 103.011C291.105 103.448 290.879 103.83 290.607 104.158C290.347 104.499 290.02 104.765 289.624 104.956C289.228 105.161 288.723 105.263 288.109 105.263C287.563 105.263 287.024 105.222 286.491 105.14V103.175C286.682 103.202 286.867 103.23 287.044 103.257C287.221 103.298 287.406 103.318 287.597 103.318C287.87 103.318 288.095 103.284 288.272 103.216C288.45 103.148 288.593 103.045 288.702 102.909C288.825 102.786 288.928 102.636 289.01 102.458C289.091 102.281 289.167 102.076 289.235 101.844L289.501 101.025L285.488 90.4812ZM297.333 86.4478H299.667V101.066H297.333V86.4478ZM302.272 86.4478H304.606V101.066H302.272V86.4478ZM316.014 98.7117C316.014 98.9983 316.048 99.203 316.116 99.3259C316.198 99.4487 316.348 99.5102 316.567 99.5102C316.635 99.5102 316.717 99.5102 316.813 99.5102C316.908 99.5102 317.017 99.4965 317.14 99.4692V101.087C317.058 101.114 316.949 101.141 316.813 101.169C316.69 101.209 316.56 101.244 316.424 101.271C316.287 101.298 316.151 101.319 316.014 101.332C315.878 101.346 315.762 101.353 315.666 101.353C315.188 101.353 314.792 101.257 314.479 101.066C314.165 100.875 313.96 100.541 313.864 100.063C313.4 100.513 312.827 100.841 312.144 101.046C311.476 101.25 310.827 101.353 310.199 101.353C309.722 101.353 309.265 101.285 308.828 101.148C308.391 101.025 308.002 100.841 307.661 100.595C307.333 100.336 307.067 100.015 306.862 99.633C306.671 99.2372 306.576 98.7799 306.576 98.2612C306.576 97.6061 306.692 97.0738 306.924 96.6643C307.169 96.2548 307.483 95.9341 307.865 95.702C308.261 95.47 308.698 95.3062 309.176 95.2106C309.667 95.1015 310.159 95.0196 310.65 94.965C311.073 94.8831 311.476 94.8285 311.858 94.8012C312.24 94.7602 312.574 94.6988 312.861 94.6169C313.161 94.535 313.393 94.4122 313.557 94.2484C313.735 94.0709 313.823 93.8116 313.823 93.4704C313.823 93.1701 313.748 92.9244 313.598 92.7333C313.462 92.5422 313.284 92.3989 313.066 92.3034C312.861 92.1942 312.629 92.1259 312.37 92.0986C312.11 92.0577 311.865 92.0372 311.633 92.0372C310.977 92.0372 310.438 92.1737 310.015 92.4467C309.592 92.7197 309.353 93.1428 309.299 93.7161H306.965C307.006 93.0336 307.169 92.4672 307.456 92.0167C307.743 91.5663 308.104 91.2046 308.541 90.9316C308.992 90.6586 309.497 90.4675 310.056 90.3583C310.616 90.2492 311.189 90.1946 311.776 90.1946C312.295 90.1946 312.806 90.2492 313.311 90.3583C313.817 90.4675 314.267 90.645 314.663 90.8907C315.072 91.1364 315.4 91.4571 315.646 91.8529C315.891 92.2351 316.014 92.706 316.014 93.2656V98.7117ZM313.68 95.7634C313.325 95.9955 312.888 96.1388 312.37 96.1934C311.851 96.2343 311.332 96.3026 310.814 96.3981C310.568 96.4391 310.329 96.5005 310.097 96.5824C309.865 96.6506 309.66 96.753 309.483 96.8895C309.305 97.0123 309.162 97.183 309.053 97.4013C308.957 97.6061 308.91 97.8586 308.91 98.1589C308.91 98.4182 308.985 98.6366 309.135 98.814C309.285 98.9915 309.462 99.1348 309.667 99.244C309.886 99.3395 310.118 99.4078 310.363 99.4487C310.623 99.4897 310.855 99.5102 311.059 99.5102C311.319 99.5102 311.599 99.476 311.899 99.4078C312.199 99.3395 312.479 99.2235 312.738 99.0597C313.011 98.8959 313.236 98.6912 313.414 98.4455C313.591 98.1862 313.68 97.8722 313.68 97.5037V95.7634ZM318.525 90.4812H320.737V91.9553H320.798C320.975 91.696 321.167 91.4571 321.371 91.2387C321.576 91.0203 321.801 90.8361 322.047 90.6859C322.306 90.5358 322.6 90.4198 322.927 90.3379C323.255 90.2423 323.63 90.1946 324.053 90.1946C324.695 90.1946 325.289 90.3379 325.835 90.6245C326.394 90.9111 326.79 91.3547 327.022 91.9553C327.418 91.4093 327.875 90.9794 328.394 90.6655C328.913 90.3515 329.561 90.1946 330.339 90.1946C331.458 90.1946 332.325 90.4675 332.939 91.0135C333.567 91.5595 333.881 92.474 333.881 93.757V101.066H331.547V94.8831C331.547 94.4599 331.533 94.0778 331.506 93.7365C331.479 93.3817 331.397 93.0814 331.26 92.8357C331.137 92.5763 330.946 92.3784 330.687 92.2419C330.428 92.1054 330.073 92.0372 329.622 92.0372C328.831 92.0372 328.257 92.2829 327.902 92.7743C327.548 93.2656 327.37 93.9617 327.37 94.8626V101.066H325.036V94.2689C325.036 93.5318 324.9 92.979 324.627 92.6105C324.367 92.2283 323.883 92.0372 323.173 92.0372C322.873 92.0372 322.579 92.0986 322.293 92.2215C322.02 92.3443 321.774 92.5218 321.556 92.7538C321.351 92.9858 321.18 93.2725 321.044 93.6137C320.921 93.9549 320.859 94.3439 320.859 94.7807V101.066H318.525V90.4812ZM345.205 98.7117C345.205 98.9983 345.239 99.203 345.308 99.3259C345.39 99.4487 345.54 99.5102 345.758 99.5102C345.826 99.5102 345.908 99.5102 346.004 99.5102C346.099 99.5102 346.208 99.4965 346.331 99.4692V101.087C346.249 101.114 346.14 101.141 346.004 101.169C345.881 101.209 345.751 101.244 345.615 101.271C345.478 101.298 345.342 101.319 345.205 101.332C345.069 101.346 344.953 101.353 344.857 101.353C344.379 101.353 343.984 101.257 343.67 101.066C343.356 100.875 343.151 100.541 343.055 100.063C342.591 100.513 342.018 100.841 341.336 101.046C340.667 101.25 340.019 101.353 339.391 101.353C338.913 101.353 338.456 101.285 338.019 101.148C337.582 101.025 337.193 100.841 336.852 100.595C336.524 100.336 336.258 100.015 336.053 99.633C335.862 99.2372 335.767 98.7799 335.767 98.2612C335.767 97.6061 335.883 97.0738 336.115 96.6643C336.361 96.2548 336.674 95.9341 337.057 95.702C337.452 95.47 337.889 95.3062 338.367 95.2106C338.858 95.1015 339.35 95.0196 339.841 94.965C340.264 94.8831 340.667 94.8285 341.049 94.8012C341.431 94.7602 341.766 94.6988 342.052 94.6169C342.353 94.535 342.585 94.4122 342.748 94.2484C342.926 94.0709 343.015 93.8116 343.015 93.4704C343.015 93.1701 342.939 92.9244 342.789 92.7333C342.653 92.5422 342.475 92.3989 342.257 92.3034C342.052 92.1942 341.82 92.1259 341.561 92.0986C341.302 92.0577 341.056 92.0372 340.824 92.0372C340.169 92.0372 339.63 92.1737 339.206 92.4467C338.783 92.7197 338.544 93.1428 338.49 93.7161H336.156C336.197 93.0336 336.361 92.4672 336.647 92.0167C336.934 91.5663 337.296 91.2046 337.732 90.9316C338.183 90.6586 338.688 90.4675 339.247 90.3583C339.807 90.2492 340.38 90.1946 340.967 90.1946C341.486 90.1946 341.998 90.2492 342.503 90.3583C343.008 90.4675 343.458 90.645 343.854 90.8907C344.263 91.1364 344.591 91.4571 344.837 91.8529C345.082 92.2351 345.205 92.706 345.205 93.2656V98.7117ZM342.871 95.7634C342.516 95.9955 342.08 96.1388 341.561 96.1934C341.042 96.2343 340.524 96.3026 340.005 96.3981C339.759 96.4391 339.52 96.5005 339.288 96.5824C339.056 96.6506 338.852 96.753 338.674 96.8895C338.497 97.0123 338.353 97.183 338.244 97.4013C338.149 97.6061 338.101 97.8586 338.101 98.1589C338.101 98.4182 338.176 98.6366 338.326 98.814C338.476 98.9915 338.654 99.1348 338.858 99.244C339.077 99.3395 339.309 99.4078 339.554 99.4487C339.814 99.4897 340.046 99.5102 340.251 99.5102C340.51 99.5102 340.79 99.476 341.09 99.4078C341.39 99.3395 341.67 99.2235 341.929 99.0597C342.202 98.8959 342.428 98.6912 342.605 98.4455C342.783 98.1862 342.871 97.8722 342.871 97.5037V95.7634Z" fill="#E1F8E6"/>
<path d="M388.307 54.9478V94.9478" stroke="#E1F8E6"/>
<path d="M542.151 59.1567V71.9478H543.853V66.4838H548.009C548.427 66.4838 548.762 66.5495 549.013 66.6809C549.263 66.8003 549.466 66.9675 549.622 67.1825C549.777 67.3855 549.89 67.6303 549.962 67.917C550.034 68.1917 550.093 68.4843 550.141 68.7948C550.201 69.1053 550.237 69.4218 550.249 69.7443C550.261 70.0667 550.273 70.3713 550.284 70.6579C550.296 70.9326 550.32 71.1834 550.356 71.4103C550.404 71.6372 550.488 71.8164 550.607 71.9478H552.506C552.327 71.7328 552.189 71.4879 552.094 71.2133C552.01 70.9266 551.945 70.628 551.897 70.3175C551.849 70.007 551.819 69.6905 551.807 69.3681C551.795 69.0456 551.777 68.7291 551.753 68.4186C551.718 68.1081 551.664 67.8095 551.592 67.5228C551.533 67.2362 551.431 66.9794 551.288 66.7525C551.156 66.5137 550.971 66.3106 550.732 66.1434C550.505 65.9762 550.207 65.8568 549.837 65.7851V65.7493C550.613 65.5343 551.174 65.1342 551.521 64.549C551.879 63.9638 552.058 63.2831 552.058 62.5068C552.058 61.4677 551.712 60.6496 551.019 60.0525C550.338 59.4553 549.389 59.1567 548.171 59.1567H542.151ZM547.4 65.0506H543.853V60.5899H548.081C548.881 60.5899 549.46 60.7929 549.819 61.199C550.177 61.6051 550.356 62.1306 550.356 62.7755C550.356 63.2413 550.273 63.6234 550.105 63.922C549.95 64.2086 549.735 64.4415 549.46 64.6207C549.198 64.7879 548.887 64.9013 548.529 64.9611C548.171 65.0208 547.794 65.0506 547.4 65.0506ZM555.275 67.3258C555.275 66.7645 555.347 66.2688 555.49 65.8389C555.645 65.397 555.854 65.0267 556.117 64.7282C556.38 64.4296 556.684 64.2027 557.031 64.0474C557.389 63.8922 557.765 63.8145 558.159 63.8145C558.553 63.8145 558.924 63.8922 559.27 64.0474C559.628 64.2027 559.939 64.4296 560.201 64.7282C560.464 65.0267 560.667 65.397 560.811 65.8389C560.966 66.2688 561.043 66.7645 561.043 67.3258C561.043 67.8871 560.966 68.3887 560.811 68.8306C560.667 69.2606 560.464 69.6248 560.201 69.9234C559.939 70.21 559.628 70.431 559.27 70.5862C558.924 70.7415 558.553 70.8191 558.159 70.8191C557.765 70.8191 557.389 70.7415 557.031 70.5862C556.684 70.431 556.38 70.21 556.117 69.9234C555.854 69.6248 555.645 69.2606 555.49 68.8306C555.347 68.3887 555.275 67.8871 555.275 67.3258ZM553.663 67.3258C553.663 68.0065 553.758 68.6395 553.949 69.2247C554.14 69.8099 554.427 70.3235 554.809 70.7654C555.191 71.1953 555.663 71.5357 556.224 71.7865C556.786 72.0254 557.431 72.1448 558.159 72.1448C558.9 72.1448 559.545 72.0254 560.094 71.7865C560.655 71.5357 561.127 71.1953 561.509 70.7654C561.891 70.3235 562.178 69.8099 562.369 69.2247C562.56 68.6395 562.656 68.0065 562.656 67.3258C562.656 66.645 562.56 66.012 562.369 65.4268C562.178 64.8297 561.891 64.3161 561.509 63.8862C561.127 63.4443 560.655 63.0979 560.094 62.8471C559.545 62.5963 558.9 62.4709 558.159 62.4709C557.431 62.4709 556.786 62.5963 556.224 62.8471C555.663 63.0979 555.191 63.4443 554.809 63.8862C554.427 64.3161 554.14 64.8297 553.949 65.4268C553.758 66.012 553.663 66.645 553.663 67.3258ZM564.541 59.1567V71.9478H566.063V59.1567H564.541ZM574.854 66.4301H569.533C569.557 66.0718 569.635 65.7374 569.766 65.4268C569.897 65.1044 570.077 64.8237 570.303 64.5849C570.53 64.346 570.799 64.1609 571.11 64.0295C571.432 63.8862 571.79 63.8145 572.185 63.8145C572.567 63.8145 572.913 63.8862 573.224 64.0295C573.546 64.1609 573.821 64.346 574.048 64.5849C574.286 64.8118 574.472 65.0865 574.603 65.4089C574.746 65.7314 574.83 66.0718 574.854 66.4301ZM576.323 69.0098H574.818C574.687 69.6189 574.412 70.0727 573.994 70.3713C573.588 70.6698 573.062 70.8191 572.417 70.8191C571.916 70.8191 571.48 70.7355 571.11 70.5683C570.739 70.4011 570.435 70.1802 570.196 69.9055C569.957 69.6189 569.784 69.2964 569.676 68.9381C569.569 68.5679 569.521 68.1797 569.533 67.7737H576.466C576.49 67.2123 576.436 66.6211 576.305 66.0001C576.185 65.3791 575.959 64.8058 575.624 64.2803C575.302 63.7548 574.866 63.3249 574.316 62.9905C573.779 62.6441 573.098 62.4709 572.274 62.4709C571.641 62.4709 571.056 62.5904 570.518 62.8292C569.993 63.0681 569.533 63.4025 569.139 63.8324C568.757 64.2624 568.458 64.77 568.243 65.3552C568.028 65.9404 567.921 66.5853 567.921 67.29C567.945 67.9946 568.046 68.6455 568.225 69.2426C568.416 69.8398 568.697 70.3534 569.067 70.7833C569.438 71.2133 569.891 71.5477 570.429 71.7865C570.978 72.0254 571.623 72.1448 572.364 72.1448C573.415 72.1448 574.286 71.8821 574.979 71.3566C575.672 70.8311 576.12 70.0488 576.323 69.0098Z" fill="#E1F8E6"/>
<path d="M430.646 86.4478H433.205V94.965C433.205 95.4563 433.226 95.9545 433.267 96.4596C433.321 96.9646 433.458 97.4218 433.676 97.8313C433.908 98.2271 434.25 98.5547 434.7 98.814C435.164 99.0734 435.812 99.203 436.645 99.203C437.478 99.203 438.119 99.0734 438.569 98.814C439.034 98.5547 439.375 98.2271 439.593 97.8313C439.825 97.4218 439.962 96.9646 440.003 96.4596C440.057 95.9545 440.085 95.4563 440.085 94.965V86.4478H442.644V95.8044C442.644 96.7462 442.5 97.5651 442.214 98.2612C441.927 98.9574 441.518 99.5443 440.985 100.022C440.467 100.486 439.839 100.834 439.102 101.066C438.365 101.298 437.546 101.414 436.645 101.414C435.744 101.414 434.925 101.298 434.188 101.066C433.451 100.834 432.816 100.486 432.284 100.022C431.765 99.5443 431.363 98.9574 431.076 98.2612C430.789 97.5651 430.646 96.7462 430.646 95.8044V86.4478ZM445.585 86.4478H448.145V101.066H445.585V86.4478ZM455.153 86.0998H457.385L451.509 101.414H449.277L455.153 86.0998ZM458.318 86.4478H460.877V94.965C460.877 95.4563 460.897 95.9545 460.938 96.4596C460.993 96.9646 461.13 97.4218 461.348 97.8313C461.58 98.2271 461.921 98.5547 462.372 98.814C462.836 99.0734 463.484 99.203 464.317 99.203C465.149 99.203 465.791 99.0734 466.241 98.814C466.705 98.5547 467.046 98.2271 467.265 97.8313C467.497 97.4218 467.633 96.9646 467.674 96.4596C467.729 95.9545 467.756 95.4563 467.756 94.965V86.4478H470.315V95.8044C470.315 96.7462 470.172 97.5651 469.886 98.2612C469.599 98.9574 469.189 99.5443 468.657 100.022C468.138 100.486 467.511 100.834 466.773 101.066C466.036 101.298 465.217 101.414 464.317 101.414C463.416 101.414 462.597 101.298 461.86 101.066C461.123 100.834 460.488 100.486 459.956 100.022C459.437 99.5443 459.034 98.9574 458.748 98.2612C458.461 97.5651 458.318 96.7462 458.318 95.8044V86.4478ZM471.988 86.4478H475.038L478.355 91.6073L481.815 86.4478H484.682L479.85 93.4908L485.03 101.066H481.918L478.273 95.4768L474.567 101.066H471.64L476.82 93.4908L471.988 86.4478ZM501.875 101.066H499.663V99.633H499.622C499.309 100.247 498.851 100.691 498.251 100.964C497.65 101.223 497.015 101.353 496.347 101.353C495.514 101.353 494.784 101.209 494.156 100.923C493.542 100.623 493.03 100.22 492.62 99.7149C492.211 99.2099 491.904 98.6161 491.699 97.9337C491.494 97.2376 491.392 96.4937 491.392 95.702C491.392 94.7466 491.522 93.9208 491.781 93.2247C492.04 92.5286 492.382 91.9553 492.805 91.5049C493.241 91.0545 493.733 90.7269 494.279 90.5221C494.838 90.3038 495.405 90.1946 495.978 90.1946C496.306 90.1946 496.64 90.2287 496.981 90.2969C497.323 90.3515 497.65 90.4471 497.964 90.5836C498.278 90.7201 498.565 90.8975 498.824 91.1159C499.097 91.3206 499.322 91.5663 499.5 91.8529H499.541V86.4478H501.875V101.066ZM493.726 95.8863C493.726 96.3367 493.781 96.7803 493.89 97.2171C494.013 97.6539 494.19 98.0429 494.422 98.3841C494.668 98.7253 494.975 98.9983 495.343 99.203C495.712 99.4078 496.149 99.5102 496.654 99.5102C497.172 99.5102 497.616 99.401 497.985 99.1826C498.367 98.9642 498.674 98.6775 498.906 98.3227C499.152 97.9678 499.329 97.572 499.438 97.1352C499.561 96.6848 499.622 96.2275 499.622 95.7634C499.622 94.5896 499.356 93.6751 498.824 93.0199C498.305 92.3648 497.596 92.0372 496.695 92.0372C496.149 92.0372 495.685 92.1532 495.302 92.3853C494.934 92.6036 494.627 92.8971 494.381 93.2656C494.149 93.6205 493.979 94.03 493.869 94.4941C493.774 94.9445 493.726 95.4086 493.726 95.8863ZM511.688 94.8421C511.661 94.4736 511.579 94.1187 511.443 93.7775C511.32 93.4362 511.142 93.1428 510.91 92.8971C510.692 92.6378 510.419 92.433 510.091 92.2829C509.777 92.1191 509.422 92.0372 509.027 92.0372C508.617 92.0372 508.242 92.1123 507.901 92.2624C507.573 92.3989 507.286 92.5968 507.041 92.8562C506.809 93.1018 506.618 93.3953 506.467 93.7365C506.331 94.0778 506.256 94.4463 506.242 94.8421H511.688ZM506.242 96.3777C506.242 96.7871 506.297 97.183 506.406 97.5651C506.529 97.9473 506.706 98.2817 506.938 98.5684C507.17 98.855 507.464 99.087 507.819 99.2645C508.174 99.4283 508.597 99.5102 509.088 99.5102C509.771 99.5102 510.317 99.3668 510.726 99.0802C511.149 98.7799 511.463 98.3363 511.668 97.7494H513.879C513.756 98.3227 513.545 98.8345 513.244 99.2849C512.944 99.7354 512.582 100.118 512.159 100.431C511.736 100.732 511.258 100.957 510.726 101.107C510.207 101.271 509.661 101.353 509.088 101.353C508.255 101.353 507.518 101.216 506.877 100.943C506.235 100.67 505.689 100.288 505.239 99.7968C504.802 99.3054 504.468 98.7185 504.236 98.036C504.017 97.3536 503.908 96.6029 503.908 95.7839C503.908 95.0332 504.024 94.3234 504.256 93.6546C504.502 92.9722 504.843 92.3784 505.28 91.8734C505.73 91.3547 506.27 90.9453 506.897 90.645C507.525 90.3447 508.235 90.1946 509.027 90.1946C509.859 90.1946 510.603 90.372 511.258 90.7269C511.927 91.0681 512.48 91.5254 512.917 92.0986C513.353 92.6719 513.667 93.3339 513.858 94.0846C514.063 94.8216 514.118 95.586 514.022 96.3777H506.242ZM517.557 97.6675C517.626 98.35 517.885 98.8277 518.335 99.1007C518.786 99.3737 519.325 99.5102 519.953 99.5102C520.171 99.5102 520.417 99.4965 520.69 99.4692C520.977 99.4283 521.243 99.36 521.488 99.2645C521.734 99.1689 521.932 99.0324 522.082 98.855C522.246 98.6639 522.321 98.4182 522.307 98.1179C522.294 97.8176 522.184 97.572 521.98 97.3809C521.775 97.1898 521.509 97.0396 521.181 96.9304C520.867 96.8076 520.506 96.7052 520.096 96.6233C519.687 96.5414 519.27 96.4527 518.847 96.3572C518.41 96.2616 517.987 96.1456 517.578 96.0091C517.182 95.8726 516.82 95.6884 516.493 95.4563C516.179 95.2243 515.926 94.9308 515.735 94.576C515.544 94.2074 515.449 93.757 515.449 93.2247C515.449 92.6514 515.585 92.1737 515.858 91.7915C516.145 91.3957 516.5 91.0818 516.923 90.8497C517.359 90.604 517.837 90.4334 518.356 90.3379C518.888 90.2423 519.393 90.1946 519.871 90.1946C520.417 90.1946 520.936 90.256 521.427 90.3788C521.932 90.488 522.382 90.6723 522.778 90.9316C523.188 91.191 523.522 91.5322 523.781 91.9553C524.054 92.3648 524.225 92.863 524.293 93.4499H521.857C521.748 92.8903 521.488 92.5149 521.079 92.3238C520.683 92.1327 520.226 92.0372 519.707 92.0372C519.543 92.0372 519.345 92.0509 519.113 92.0782C518.895 92.1054 518.683 92.16 518.479 92.2419C518.288 92.3102 518.124 92.4194 517.987 92.5695C517.851 92.706 517.783 92.8903 517.783 93.1223C517.783 93.4089 517.878 93.641 518.069 93.8184C518.274 93.9959 518.533 94.146 518.847 94.2689C519.175 94.378 519.543 94.4736 519.953 94.5555C520.362 94.6374 520.785 94.7261 521.222 94.8216C521.645 94.9172 522.062 95.0332 522.471 95.1697C522.881 95.3062 523.242 95.4905 523.556 95.7225C523.884 95.9545 524.143 96.248 524.334 96.6029C524.539 96.9577 524.641 97.3945 524.641 97.9132C524.641 98.5411 524.498 99.0734 524.211 99.5102C523.925 99.9469 523.549 100.302 523.085 100.575C522.635 100.848 522.13 101.046 521.57 101.169C521.011 101.291 520.458 101.353 519.912 101.353C519.243 101.353 518.622 101.278 518.049 101.128C517.489 100.977 516.998 100.752 516.575 100.452C516.165 100.138 515.838 99.7558 515.592 99.3054C515.36 98.8413 515.237 98.2954 515.223 97.6675H517.557ZM526.475 86.4478H528.809V88.659H526.475V86.4478ZM526.475 90.4812H528.809V101.066H526.475V90.4812ZM541.138 100.513C541.138 102.11 540.688 103.298 539.787 104.076C538.9 104.867 537.617 105.263 535.938 105.263C535.406 105.263 534.867 105.209 534.321 105.1C533.788 104.99 533.297 104.806 532.847 104.547C532.41 104.287 532.041 103.946 531.741 103.523C531.441 103.1 531.263 102.581 531.209 101.967H533.543C533.611 102.295 533.727 102.561 533.891 102.765C534.054 102.97 534.246 103.127 534.464 103.236C534.696 103.359 534.949 103.434 535.221 103.462C535.494 103.503 535.781 103.523 536.081 103.523C537.023 103.523 537.712 103.291 538.149 102.827C538.586 102.363 538.804 101.694 538.804 100.82V99.203H538.763C538.436 99.79 537.985 100.247 537.412 100.575C536.853 100.902 536.245 101.066 535.59 101.066C534.744 101.066 534.02 100.923 533.42 100.636C532.833 100.336 532.342 99.9333 531.946 99.4283C531.563 98.9096 531.284 98.3158 531.106 97.647C530.929 96.9782 530.84 96.2616 530.84 95.4973C530.84 94.7875 530.949 94.1119 531.168 93.4704C531.386 92.8289 531.7 92.2692 532.109 91.7915C532.519 91.3001 533.017 90.9111 533.604 90.6245C534.205 90.3379 534.88 90.1946 535.631 90.1946C536.3 90.1946 536.914 90.3379 537.474 90.6245C538.033 90.8975 538.463 91.3343 538.763 91.9348H538.804V90.4812H541.138V100.513ZM535.959 99.2235C536.477 99.2235 536.914 99.1211 537.269 98.9164C537.637 98.698 537.931 98.4182 538.149 98.077C538.381 97.7221 538.545 97.3263 538.641 96.8895C538.75 96.4391 538.804 95.9887 538.804 95.5382C538.804 95.0878 538.75 94.651 538.641 94.2279C538.531 93.8048 538.361 93.4294 538.129 93.1018C537.91 92.7743 537.617 92.5149 537.248 92.3238C536.894 92.1327 536.464 92.0372 535.959 92.0372C535.44 92.0372 535.003 92.1464 534.648 92.3648C534.293 92.5832 534.007 92.8698 533.788 93.2247C533.57 93.5659 533.413 93.9617 533.317 94.4122C533.222 94.8489 533.174 95.2857 533.174 95.7225C533.174 96.1593 533.229 96.5892 533.338 97.0123C533.447 97.4218 533.611 97.7903 533.829 98.1179C534.061 98.4455 534.348 98.7117 534.689 98.9164C535.044 99.1211 535.467 99.2235 535.959 99.2235ZM543.488 90.4812H545.699V92.0372L545.74 92.0782C546.095 91.4912 546.559 91.034 547.133 90.7064C547.706 90.3652 548.341 90.1946 549.037 90.1946C550.197 90.1946 551.111 90.4948 551.78 91.0954C552.449 91.696 552.783 92.5968 552.783 93.798V101.066H550.449V94.4122C550.422 93.5796 550.245 92.979 549.917 92.6105C549.589 92.2283 549.078 92.0372 548.382 92.0372C547.986 92.0372 547.631 92.1123 547.317 92.2624C547.003 92.3989 546.737 92.5968 546.518 92.8562C546.3 93.1018 546.129 93.3953 546.007 93.7365C545.884 94.0778 545.822 94.4395 545.822 94.8216V101.066H543.488V90.4812ZM555.429 98.3022H558.275V101.066C558.261 101.912 558.002 102.622 557.497 103.195C556.992 103.769 556.33 104.137 555.511 104.301V103.052C555.961 102.943 556.296 102.69 556.514 102.295C556.746 101.912 556.855 101.503 556.842 101.066H555.429V98.3022ZM566.805 86.4478H569.364V94.965C569.364 95.4563 569.385 95.9545 569.426 96.4596C569.48 96.9646 569.617 97.4218 569.835 97.8313C570.067 98.2271 570.408 98.5547 570.859 98.814C571.323 99.0734 571.971 99.203 572.804 99.203C573.637 99.203 574.278 99.0734 574.728 98.814C575.193 98.5547 575.534 98.2271 575.752 97.8313C575.984 97.4218 576.121 96.9646 576.162 96.4596C576.216 95.9545 576.244 95.4563 576.244 94.965V86.4478H578.803V95.8044C578.803 96.7462 578.659 97.5651 578.373 98.2612C578.086 98.9574 577.677 99.5443 577.144 100.022C576.626 100.486 575.998 100.834 575.261 101.066C574.524 101.298 573.705 101.414 572.804 101.414C571.903 101.414 571.084 101.298 570.347 101.066C569.61 100.834 568.975 100.486 568.443 100.022C567.924 99.5443 567.522 98.9574 567.235 98.2612C566.948 97.5651 566.805 96.7462 566.805 95.8044V86.4478ZM580.475 86.4478H583.526L586.842 91.6073L590.302 86.4478H593.169L588.337 93.4908L593.517 101.066H590.405L586.761 95.4768L583.055 101.066H580.127L585.307 93.4908L580.475 86.4478ZM600.719 86.4478H607.7C609.311 86.4478 610.519 86.7959 611.324 87.492C612.129 88.1881 612.532 89.1572 612.532 90.3993C612.532 91.0954 612.43 91.6755 612.225 92.1396C612.02 92.59 611.781 92.9585 611.508 93.2452C611.235 93.5181 610.962 93.7161 610.689 93.8389C610.43 93.9617 610.239 94.0436 610.116 94.0846V94.1255C610.335 94.1528 610.567 94.2211 610.812 94.3303C611.072 94.4395 611.311 94.6169 611.529 94.8626C611.747 95.0946 611.925 95.4017 612.061 95.7839C612.211 96.1661 612.286 96.6438 612.286 97.2171C612.286 98.077 612.348 98.8618 612.471 99.5716C612.607 100.268 612.812 100.766 613.085 101.066H610.341C610.15 100.752 610.034 100.404 609.993 100.022C609.966 99.6398 609.952 99.2713 609.952 98.9164C609.952 98.2476 609.911 97.6743 609.83 97.1966C609.748 96.7052 609.598 96.3026 609.379 95.9887C609.161 95.6611 608.86 95.4222 608.478 95.2721C608.11 95.1219 607.632 95.0469 607.045 95.0469H603.278V101.066H600.719V86.4478ZM603.278 93.1018H607.475C608.294 93.1018 608.915 92.9108 609.338 92.5286C609.761 92.1327 609.973 91.5458 609.973 90.7678C609.973 90.3038 609.905 89.9284 609.768 89.6418C609.632 89.3415 609.441 89.1094 609.195 88.9457C608.963 88.7819 608.69 88.6727 608.376 88.6181C608.076 88.5635 607.762 88.5362 607.434 88.5362H603.278V93.1018ZM622.075 94.8421C622.048 94.4736 621.966 94.1187 621.829 93.7775C621.706 93.4362 621.529 93.1428 621.297 92.8971C621.079 92.6378 620.806 92.433 620.478 92.2829C620.164 92.1191 619.809 92.0372 619.413 92.0372C619.004 92.0372 618.629 92.1123 618.287 92.2624C617.96 92.3989 617.673 92.5968 617.427 92.8562C617.195 93.1018 617.004 93.3953 616.854 93.7365C616.718 94.0778 616.643 94.4463 616.629 94.8421H622.075ZM616.629 96.3777C616.629 96.7871 616.684 97.183 616.793 97.5651C616.916 97.9473 617.093 98.2817 617.325 98.5684C617.557 98.855 617.851 99.087 618.205 99.2645C618.56 99.4283 618.983 99.5102 619.475 99.5102C620.157 99.5102 620.703 99.3668 621.113 99.0802C621.536 98.7799 621.85 98.3363 622.055 97.7494H624.266C624.143 98.3227 623.931 98.8345 623.631 99.2849C623.331 99.7354 622.969 100.118 622.546 100.431C622.123 100.732 621.645 100.957 621.113 101.107C620.594 101.271 620.048 101.353 619.475 101.353C618.642 101.353 617.905 101.216 617.264 100.943C616.622 100.67 616.076 100.288 615.626 99.7968C615.189 99.3054 614.855 98.7185 614.623 98.036C614.404 97.3536 614.295 96.6029 614.295 95.7839C614.295 95.0332 614.411 94.3234 614.643 93.6546C614.889 92.9722 615.23 92.3784 615.667 91.8734C616.117 91.3547 616.656 90.9453 617.284 90.645C617.912 90.3447 618.622 90.1946 619.413 90.1946C620.246 90.1946 620.99 90.372 621.645 90.7269C622.314 91.0681 622.867 91.5254 623.303 92.0986C623.74 92.6719 624.054 93.3339 624.245 94.0846C624.45 94.8216 624.505 95.586 624.409 96.3777H616.629ZM627.944 97.6675C628.012 98.35 628.272 98.8277 628.722 99.1007C629.173 99.3737 629.712 99.5102 630.34 99.5102C630.558 99.5102 630.804 99.4965 631.077 99.4692C631.363 99.4283 631.629 99.36 631.875 99.2645C632.121 99.1689 632.319 99.0324 632.469 98.855C632.633 98.6639 632.708 98.4182 632.694 98.1179C632.68 97.8176 632.571 97.572 632.366 97.3809C632.162 97.1898 631.896 97.0396 631.568 96.9304C631.254 96.8076 630.892 96.7052 630.483 96.6233C630.073 96.5414 629.657 96.4527 629.234 96.3572C628.797 96.2616 628.374 96.1456 627.965 96.0091C627.569 95.8726 627.207 95.6884 626.879 95.4563C626.566 95.2243 626.313 94.9308 626.122 94.576C625.931 94.2074 625.835 93.757 625.835 93.2247C625.835 92.6514 625.972 92.1737 626.245 91.7915C626.531 91.3957 626.886 91.0818 627.309 90.8497C627.746 90.604 628.224 90.4334 628.743 90.3379C629.275 90.2423 629.78 90.1946 630.258 90.1946C630.804 90.1946 631.322 90.256 631.814 90.3788C632.319 90.488 632.769 90.6723 633.165 90.9316C633.574 91.191 633.909 91.5322 634.168 91.9553C634.441 92.3648 634.612 92.863 634.68 93.4499H632.244C632.134 92.8903 631.875 92.5149 631.466 92.3238C631.07 92.1327 630.613 92.0372 630.094 92.0372C629.93 92.0372 629.732 92.0509 629.5 92.0782C629.282 92.1054 629.07 92.16 628.865 92.2419C628.674 92.3102 628.511 92.4194 628.374 92.5695C628.238 92.706 628.169 92.8903 628.169 93.1223C628.169 93.4089 628.265 93.641 628.456 93.8184C628.661 93.9959 628.92 94.146 629.234 94.2689C629.562 94.378 629.93 94.4736 630.34 94.5555C630.749 94.6374 631.172 94.7261 631.609 94.8216C632.032 94.9172 632.448 95.0332 632.858 95.1697C633.267 95.3062 633.629 95.4905 633.943 95.7225C634.271 95.9545 634.53 96.248 634.721 96.6029C634.926 96.9577 635.028 97.3945 635.028 97.9132C635.028 98.5411 634.885 99.0734 634.598 99.5102C634.311 99.9469 633.936 100.302 633.472 100.575C633.022 100.848 632.517 101.046 631.957 101.169C631.397 101.291 630.845 101.353 630.299 101.353C629.63 101.353 629.009 101.278 628.435 101.128C627.876 100.977 627.384 100.752 626.961 100.452C626.552 100.138 626.224 99.7558 625.979 99.3054C625.747 98.8413 625.624 98.2954 625.61 97.6675H627.944ZM644.068 94.8421C644.041 94.4736 643.959 94.1187 643.823 93.7775C643.7 93.4362 643.522 93.1428 643.29 92.8971C643.072 92.6378 642.799 92.433 642.471 92.2829C642.157 92.1191 641.803 92.0372 641.407 92.0372C640.997 92.0372 640.622 92.1123 640.281 92.2624C639.953 92.3989 639.666 92.5968 639.421 92.8562C639.189 93.1018 638.998 93.3953 638.848 93.7365C638.711 94.0778 638.636 94.4463 638.622 94.8421H644.068ZM638.622 96.3777C638.622 96.7871 638.677 97.183 638.786 97.5651C638.909 97.9473 639.086 98.2817 639.318 98.5684C639.55 98.855 639.844 99.087 640.199 99.2645C640.554 99.4283 640.977 99.5102 641.468 99.5102C642.151 99.5102 642.697 99.3668 643.106 99.0802C643.529 98.7799 643.843 98.3363 644.048 97.7494H646.259C646.136 98.3227 645.925 98.8345 645.624 99.2849C645.324 99.7354 644.962 100.118 644.539 100.431C644.116 100.732 643.638 100.957 643.106 101.107C642.587 101.271 642.041 101.353 641.468 101.353C640.636 101.353 639.899 101.216 639.257 100.943C638.616 100.67 638.07 100.288 637.619 99.7968C637.182 99.3054 636.848 98.7185 636.616 98.036C636.398 97.3536 636.288 96.6029 636.288 95.7839C636.288 95.0332 636.404 94.3234 636.636 93.6546C636.882 92.9722 637.223 92.3784 637.66 91.8734C638.11 91.3547 638.65 90.9453 639.277 90.645C639.905 90.3447 640.615 90.1946 641.407 90.1946C642.239 90.1946 642.983 90.372 643.638 90.7269C644.307 91.0681 644.86 91.5254 645.297 92.0986C645.734 92.6719 646.048 93.3339 646.239 94.0846C646.443 94.8216 646.498 95.586 646.402 96.3777H638.622ZM657.042 98.7117C657.042 98.9983 657.076 99.203 657.144 99.3259C657.226 99.4487 657.376 99.5102 657.595 99.5102C657.663 99.5102 657.745 99.5102 657.84 99.5102C657.936 99.5102 658.045 99.4965 658.168 99.4692V101.087C658.086 101.114 657.977 101.141 657.84 101.169C657.718 101.209 657.588 101.244 657.451 101.271C657.315 101.298 657.178 101.319 657.042 101.332C656.905 101.346 656.789 101.353 656.694 101.353C656.216 101.353 655.82 101.257 655.506 101.066C655.192 100.875 654.988 100.541 654.892 100.063C654.428 100.513 653.855 100.841 653.172 101.046C652.504 101.25 651.855 101.353 651.227 101.353C650.75 101.353 650.292 101.285 649.856 101.148C649.419 101.025 649.03 100.841 648.689 100.595C648.361 100.336 648.095 100.015 647.89 99.633C647.699 99.2372 647.603 98.7799 647.603 98.2612C647.603 97.6061 647.719 97.0738 647.952 96.6643C648.197 96.2548 648.511 95.9341 648.893 95.702C649.289 95.47 649.726 95.3062 650.204 95.2106C650.695 95.1015 651.186 95.0196 651.678 94.965C652.101 94.8831 652.504 94.8285 652.886 94.8012C653.268 94.7602 653.602 94.6988 653.889 94.6169C654.189 94.535 654.421 94.4122 654.585 94.2484C654.762 94.0709 654.851 93.8116 654.851 93.4704C654.851 93.1701 654.776 92.9244 654.626 92.7333C654.489 92.5422 654.312 92.3989 654.094 92.3034C653.889 92.1942 653.657 92.1259 653.398 92.0986C653.138 92.0577 652.893 92.0372 652.66 92.0372C652.005 92.0372 651.466 92.1737 651.043 92.4467C650.62 92.7197 650.381 93.1428 650.326 93.7161H647.992C648.033 93.0336 648.197 92.4672 648.484 92.0167C648.77 91.5663 649.132 91.2046 649.569 90.9316C650.019 90.6586 650.524 90.4675 651.084 90.3583C651.644 90.2492 652.217 90.1946 652.804 90.1946C653.322 90.1946 653.834 90.2492 654.339 90.3583C654.844 90.4675 655.295 90.645 655.691 90.8907C656.1 91.1364 656.428 91.4571 656.673 91.8529C656.919 92.2351 657.042 92.706 657.042 93.2656V98.7117ZM654.708 95.7634C654.353 95.9955 653.916 96.1388 653.398 96.1934C652.879 96.2343 652.36 96.3026 651.842 96.3981C651.596 96.4391 651.357 96.5005 651.125 96.5824C650.893 96.6506 650.688 96.753 650.511 96.8895C650.333 97.0123 650.19 97.183 650.081 97.4013C649.985 97.6061 649.937 97.8586 649.937 98.1589C649.937 98.4182 650.013 98.6366 650.163 98.814C650.313 98.9915 650.49 99.1348 650.695 99.244C650.913 99.3395 651.145 99.4078 651.391 99.4487C651.65 99.4897 651.882 99.5102 652.087 99.5102C652.347 99.5102 652.626 99.476 652.927 99.4078C653.227 99.3395 653.507 99.2235 653.766 99.0597C654.039 98.8959 654.264 98.6912 654.442 98.4455C654.619 98.1862 654.708 97.8722 654.708 97.5037V95.7634ZM659.553 90.4812H661.744V92.5286H661.785C661.853 92.2419 661.983 91.9621 662.174 91.6891C662.379 91.4162 662.618 91.1705 662.891 90.9521C663.177 90.7201 663.491 90.5358 663.832 90.3993C664.174 90.2628 664.522 90.1946 664.876 90.1946C665.149 90.1946 665.334 90.2014 665.429 90.215C665.538 90.2287 665.648 90.2423 665.757 90.256V92.5081C665.593 92.4808 665.422 92.4603 665.245 92.4467C665.081 92.4194 664.917 92.4057 664.754 92.4057C664.358 92.4057 663.982 92.4876 663.628 92.6514C663.286 92.8016 662.986 93.0336 662.727 93.3475C662.467 93.6478 662.263 94.0232 662.113 94.4736C661.962 94.924 661.887 95.4427 661.887 96.0296V101.066H659.553V90.4812ZM673.537 94.0232C673.441 93.368 673.175 92.8766 672.738 92.549C672.315 92.2078 671.776 92.0372 671.121 92.0372C670.82 92.0372 670.5 92.0918 670.158 92.201C669.817 92.2965 669.503 92.4876 669.217 92.7743C668.93 93.0472 668.691 93.4362 668.5 93.9413C668.309 94.4326 668.213 95.081 668.213 95.8863C668.213 96.3231 668.261 96.7598 668.357 97.1966C668.466 97.6334 668.63 98.0224 668.848 98.3636C669.08 98.7048 669.374 98.9847 669.728 99.203C670.083 99.4078 670.513 99.5102 671.018 99.5102C671.701 99.5102 672.26 99.2986 672.697 98.8755C673.148 98.4523 673.427 97.8586 673.537 97.0942H675.871C675.652 98.4728 675.127 99.5306 674.294 100.268C673.475 100.991 672.383 101.353 671.018 101.353C670.186 101.353 669.449 101.216 668.807 100.943C668.179 100.657 667.647 100.275 667.21 99.7968C666.773 99.3054 666.439 98.7253 666.207 98.0565C665.989 97.3877 665.879 96.6643 665.879 95.8863C665.879 95.0946 665.989 94.3507 666.207 93.6546C666.425 92.9585 666.753 92.358 667.19 91.8529C667.626 91.3343 668.166 90.9316 668.807 90.645C669.462 90.3447 670.227 90.1946 671.1 90.1946C671.714 90.1946 672.295 90.2765 672.84 90.4402C673.4 90.5904 673.891 90.8224 674.315 91.1364C674.751 91.4503 675.106 91.8461 675.379 92.3238C675.652 92.8016 675.816 93.368 675.871 94.0232H673.537ZM677.768 86.4478H680.102V91.8734H680.143C680.429 91.3957 680.853 90.9999 681.412 90.6859C681.985 90.3583 682.62 90.1946 683.316 90.1946C684.476 90.1946 685.391 90.4948 686.06 91.0954C686.729 91.696 687.063 92.5968 687.063 93.798V101.066H684.729V94.4122C684.702 93.5796 684.524 92.979 684.197 92.6105C683.869 92.2283 683.357 92.0372 682.661 92.0372C682.265 92.0372 681.91 92.1123 681.596 92.2624C681.282 92.3989 681.016 92.5968 680.798 92.8562C680.58 93.1018 680.409 93.3953 680.286 93.7365C680.163 94.0778 680.102 94.4395 680.102 94.8216V101.066H677.768V86.4478Z" fill="#E1F8E6"/>
<path d="M730.201 54.9478V94.9478" stroke="#E1F8E6"/>
<path d="M832.296 71.9478L835.718 59.1567H834.016L831.418 69.798H831.382L828.552 59.1567H826.707L823.84 69.798H823.804L821.296 59.1567H819.559L822.837 71.9478H824.611L827.567 61.199H827.602L830.522 71.9478H832.296ZM842.492 66.4301H837.171C837.195 66.0718 837.273 65.7374 837.404 65.4268C837.536 65.1044 837.715 64.8237 837.942 64.5849C838.169 64.346 838.437 64.1609 838.748 64.0295C839.07 63.8862 839.429 63.8145 839.823 63.8145C840.205 63.8145 840.551 63.8862 840.862 64.0295C841.184 64.1609 841.459 64.346 841.686 64.5849C841.925 64.8118 842.11 65.0865 842.241 65.4089C842.384 65.7314 842.468 66.0718 842.492 66.4301ZM843.961 69.0098H842.456C842.325 69.6189 842.05 70.0727 841.632 70.3713C841.226 70.6698 840.7 70.8191 840.056 70.8191C839.554 70.8191 839.118 70.7355 838.748 70.5683C838.378 70.4011 838.073 70.1802 837.834 69.9055C837.595 69.6189 837.422 69.2964 837.315 68.9381C837.207 68.5679 837.159 68.1797 837.171 67.7737H844.104C844.128 67.2123 844.074 66.6211 843.943 66.0001C843.824 65.3791 843.597 64.8058 843.262 64.2803C842.94 63.7548 842.504 63.3249 841.954 62.9905C841.417 62.6441 840.736 62.4709 839.912 62.4709C839.279 62.4709 838.694 62.5904 838.157 62.8292C837.631 63.0681 837.171 63.4025 836.777 63.8324C836.395 64.2624 836.096 64.77 835.881 65.3552C835.666 65.9404 835.559 66.5853 835.559 67.29C835.583 67.9946 835.684 68.6455 835.864 69.2426C836.055 69.8398 836.335 70.3534 836.706 70.7833C837.076 71.2133 837.53 71.5477 838.067 71.7865C838.616 72.0254 839.261 72.1448 840.002 72.1448C841.053 72.1448 841.925 71.8821 842.617 71.3566C843.31 70.8311 843.758 70.0488 843.961 69.0098ZM845.736 59.1567V71.9478H847.259V70.7116H847.295C847.462 70.9863 847.665 71.2192 847.904 71.4103C848.155 71.5895 848.418 71.7328 848.692 71.8403C848.967 71.9478 849.242 72.0254 849.516 72.0732C849.803 72.1209 850.06 72.1448 850.287 72.1448C850.991 72.1448 851.606 72.0194 852.132 71.7686C852.669 71.5178 853.111 71.1774 853.458 70.7475C853.816 70.3056 854.079 69.792 854.246 69.2068C854.425 68.6216 854.515 68.0006 854.515 67.3437C854.515 66.6868 854.425 66.0658 854.246 65.4806C854.067 64.8954 853.798 64.3818 853.44 63.9399C853.093 63.4861 852.651 63.1278 852.114 62.8651C851.589 62.6023 850.967 62.4709 850.251 62.4709C849.606 62.4709 849.015 62.5904 848.477 62.8292C847.94 63.0561 847.546 63.4264 847.295 63.9399H847.259V59.1567H845.736ZM852.902 67.2362C852.902 67.6901 852.855 68.1319 852.759 68.5619C852.663 68.9918 852.508 69.374 852.293 69.7084C852.078 70.0428 851.792 70.3116 851.433 70.5146C851.087 70.7176 850.651 70.8191 850.126 70.8191C849.6 70.8191 849.152 70.7236 848.782 70.5325C848.412 70.3295 848.107 70.0667 847.868 69.7443C847.641 69.4218 847.474 69.0516 847.367 68.6336C847.259 68.2036 847.205 67.7617 847.205 67.3079C847.205 66.8779 847.253 66.4539 847.349 66.0359C847.456 65.6179 847.623 65.2477 847.85 64.9252C848.077 64.5908 848.37 64.3221 848.728 64.1191C849.086 63.916 849.522 63.8145 850.036 63.8145C850.526 63.8145 850.95 63.9101 851.308 64.1012C851.678 64.2922 851.977 64.549 852.204 64.8715C852.442 65.1939 852.616 65.5642 852.723 65.9822C852.843 66.3883 852.902 66.8063 852.902 67.2362ZM857.234 69.0277H855.711C855.735 69.6009 855.854 70.0906 856.069 70.4967C856.284 70.8908 856.571 71.2133 856.929 71.4641C857.287 71.7029 857.699 71.8761 858.165 71.9836C858.631 72.0911 859.121 72.1448 859.634 72.1448C860.1 72.1448 860.566 72.097 861.031 72.0015C861.509 71.9179 861.933 71.7626 862.303 71.5357C862.686 71.3088 862.99 71.0102 863.217 70.64C863.456 70.2698 863.575 69.804 863.575 69.2426C863.575 68.8008 863.486 68.4305 863.307 68.1319C863.139 67.8334 862.912 67.5885 862.626 67.3974C862.351 67.1944 862.029 67.0332 861.658 66.9138C861.3 66.7943 860.93 66.6928 860.548 66.6092C860.189 66.5256 859.831 66.448 859.473 66.3763C859.115 66.2927 858.792 66.1972 858.505 66.0897C858.219 65.9702 857.98 65.8269 857.789 65.6597C857.61 65.4806 857.52 65.2596 857.52 64.9969C857.52 64.758 857.58 64.5669 857.699 64.4236C857.819 64.2684 857.974 64.1489 858.165 64.0653C858.356 63.9698 858.565 63.9041 858.792 63.8683C859.031 63.8324 859.264 63.8145 859.491 63.8145C859.742 63.8145 859.986 63.8444 860.225 63.9041C860.476 63.9519 860.703 64.0355 860.906 64.1549C861.109 64.2743 861.276 64.4356 861.408 64.6386C861.539 64.8297 861.617 65.0745 861.641 65.3731H863.163C863.127 64.8118 863.008 64.346 862.805 63.9758C862.602 63.5936 862.327 63.295 861.981 63.08C861.647 62.8531 861.258 62.6978 860.816 62.6142C860.375 62.5187 859.891 62.4709 859.365 62.4709C858.959 62.4709 858.547 62.5247 858.129 62.6322C857.723 62.7277 857.353 62.883 857.019 63.0979C856.696 63.301 856.427 63.5697 856.212 63.9041C856.009 64.2385 855.908 64.6386 855.908 65.1044C855.908 65.7015 856.057 66.1673 856.356 66.5017C856.654 66.8361 857.025 67.0989 857.466 67.29C857.92 67.4691 858.41 67.6124 858.935 67.7199C859.461 67.8155 859.945 67.9289 860.387 68.0603C860.84 68.1797 861.217 68.3409 861.515 68.544C861.814 68.747 861.963 69.0456 861.963 69.4397C861.963 69.7263 861.891 69.9652 861.748 70.1563C861.605 70.3354 861.42 70.4728 861.193 70.5683C860.978 70.6639 860.739 70.7296 860.476 70.7654C860.213 70.8012 859.963 70.8191 859.724 70.8191C859.413 70.8191 859.109 70.7893 858.81 70.7296C858.523 70.6698 858.261 70.5743 858.022 70.4429C857.795 70.2996 857.61 70.1145 857.466 69.8876C857.323 69.6487 857.245 69.3621 857.234 69.0277ZM866.872 61.0198V59.1567H865.349V61.0198H866.872ZM865.349 62.6859V71.9478H866.872V62.6859H865.349ZM871.345 62.6859V59.9091H869.822V62.6859H868.245V64.0295H869.822V69.9234C869.822 70.3534 869.864 70.6997 869.947 70.9625C870.031 71.2252 870.156 71.4282 870.323 71.5715C870.503 71.7149 870.729 71.8164 871.004 71.8761C871.291 71.9239 871.631 71.9478 872.025 71.9478H873.19V70.6042H872.491C872.252 70.6042 872.055 70.5982 871.9 70.5862C871.757 70.5624 871.643 70.5206 871.559 70.4608C871.476 70.4011 871.416 70.3175 871.38 70.21C871.356 70.1025 871.345 69.9592 871.345 69.7801V64.0295H873.19V62.6859H871.345ZM881.313 66.4301H875.992C876.016 66.0718 876.094 65.7374 876.225 65.4268C876.356 65.1044 876.536 64.8237 876.762 64.5849C876.989 64.346 877.258 64.1609 877.569 64.0295C877.891 63.8862 878.249 63.8145 878.643 63.8145C879.026 63.8145 879.372 63.8862 879.683 64.0295C880.005 64.1609 880.28 64.346 880.507 64.5849C880.745 64.8118 880.931 65.0865 881.062 65.4089C881.205 65.7314 881.289 66.0718 881.313 66.4301ZM882.782 69.0098H881.277C881.146 69.6189 880.871 70.0727 880.453 70.3713C880.047 70.6698 879.521 70.8191 878.876 70.8191C878.375 70.8191 877.939 70.7355 877.569 70.5683C877.198 70.4011 876.894 70.1802 876.655 69.9055C876.416 69.6189 876.243 69.2964 876.135 68.9381C876.028 68.5679 875.98 68.1797 875.992 67.7737H882.925C882.949 67.2123 882.895 66.6211 882.764 66.0001C882.644 65.3791 882.417 64.8058 882.083 64.2803C881.761 63.7548 881.325 63.3249 880.775 62.9905C880.238 62.6441 879.557 62.4709 878.733 62.4709C878.1 62.4709 877.515 62.5904 876.977 62.8292C876.452 63.0681 875.992 63.4025 875.598 63.8324C875.216 64.2624 874.917 64.77 874.702 65.3552C874.487 65.9404 874.38 66.5853 874.38 67.29C874.404 67.9946 874.505 68.6455 874.684 69.2426C874.875 69.8398 875.156 70.3534 875.526 70.7833C875.897 71.2133 876.35 71.5477 876.888 71.7865C877.437 72.0254 878.082 72.1448 878.823 72.1448C879.874 72.1448 880.745 71.8821 881.438 71.3566C882.131 70.8311 882.579 70.0488 882.782 69.0098Z" fill="#E1F8E6"/>
<path d="M771.047 86.4478H773.709L777.373 98.0156H777.414L781.161 86.4478H783.761L778.766 101.066H775.92L771.047 86.4478ZM785.155 86.4478H787.489V88.659H785.155V86.4478ZM785.155 90.4812H787.489V101.066H785.155V90.4812ZM791.793 97.6675C791.862 98.35 792.121 98.8277 792.571 99.1007C793.022 99.3737 793.561 99.5102 794.189 99.5102C794.407 99.5102 794.653 99.4965 794.926 99.4692C795.212 99.4283 795.479 99.36 795.724 99.2645C795.97 99.1689 796.168 99.0324 796.318 98.855C796.482 98.6639 796.557 98.4182 796.543 98.1179C796.53 97.8176 796.42 97.572 796.216 97.3809C796.011 97.1898 795.745 97.0396 795.417 96.9304C795.103 96.8076 794.742 96.7052 794.332 96.6233C793.923 96.5414 793.506 96.4527 793.083 96.3572C792.646 96.2616 792.223 96.1456 791.814 96.0091C791.418 95.8726 791.056 95.6884 790.729 95.4563C790.415 95.2243 790.162 94.9308 789.971 94.576C789.78 94.2074 789.684 93.757 789.684 93.2247C789.684 92.6514 789.821 92.1737 790.094 91.7915C790.381 91.3957 790.735 91.0818 791.159 90.8497C791.595 90.604 792.073 90.4334 792.592 90.3379C793.124 90.2423 793.629 90.1946 794.107 90.1946C794.653 90.1946 795.171 90.256 795.663 90.3788C796.168 90.488 796.618 90.6723 797.014 90.9316C797.424 91.191 797.758 91.5322 798.017 91.9553C798.29 92.3648 798.461 92.863 798.529 93.4499H796.093C795.984 92.8903 795.724 92.5149 795.315 92.3238C794.919 92.1327 794.462 92.0372 793.943 92.0372C793.779 92.0372 793.581 92.0509 793.349 92.0782C793.131 92.1054 792.919 92.16 792.715 92.2419C792.524 92.3102 792.36 92.4194 792.223 92.5695C792.087 92.706 792.018 92.8903 792.018 93.1223C792.018 93.4089 792.114 93.641 792.305 93.8184C792.51 93.9959 792.769 94.146 793.083 94.2689C793.411 94.378 793.779 94.4736 794.189 94.5555C794.598 94.6374 795.021 94.7261 795.458 94.8216C795.881 94.9172 796.298 95.0332 796.707 95.1697C797.116 95.3062 797.478 95.4905 797.792 95.7225C798.12 95.9545 798.379 96.248 798.57 96.6029C798.775 96.9577 798.877 97.3945 798.877 97.9132C798.877 98.5411 798.734 99.0734 798.447 99.5102C798.161 99.9469 797.785 100.302 797.321 100.575C796.871 100.848 796.366 101.046 795.806 101.169C795.247 101.291 794.694 101.353 794.148 101.353C793.479 101.353 792.858 101.278 792.285 101.128C791.725 100.977 791.234 100.752 790.811 100.452C790.401 100.138 790.073 99.7558 789.828 99.3054C789.596 98.8413 789.473 98.2954 789.459 97.6675H791.793ZM800.711 86.4478H803.045V88.659H800.711V86.4478ZM800.711 90.4812H803.045V101.066H800.711V90.4812ZM804.523 90.4812H806.284V87.3077H808.618V90.4812H810.727V92.2215H808.618V97.8722C808.618 98.1179 808.625 98.3295 808.638 98.5069C808.666 98.6844 808.714 98.8345 808.782 98.9574C808.864 99.0802 808.98 99.1757 809.13 99.244C809.28 99.2986 809.485 99.3259 809.744 99.3259C809.908 99.3259 810.072 99.3259 810.235 99.3259C810.399 99.3122 810.563 99.2849 810.727 99.244V101.046C810.467 101.073 810.215 101.1 809.969 101.128C809.724 101.155 809.471 101.169 809.212 101.169C808.597 101.169 808.099 101.114 807.717 101.005C807.349 100.882 807.055 100.711 806.837 100.493C806.632 100.261 806.489 99.9742 806.407 99.633C806.339 99.2918 806.298 98.9028 806.284 98.466V92.2215H804.523V90.4812ZM816.998 86.4478H819.599L822.24 97.6266H822.281L825.229 86.4478H827.85L830.716 97.6266H830.757L833.48 86.4478H836.08L832.047 101.066H829.447L826.519 89.8875H826.478L823.489 101.066H820.848L816.998 86.4478ZM844.347 94.8421C844.319 94.4736 844.237 94.1187 844.101 93.7775C843.978 93.4362 843.801 93.1428 843.569 92.8971C843.35 92.6378 843.077 92.433 842.75 92.2829C842.436 92.1191 842.081 92.0372 841.685 92.0372C841.275 92.0372 840.9 92.1123 840.559 92.2624C840.231 92.3989 839.945 92.5968 839.699 92.8562C839.467 93.1018 839.276 93.3953 839.126 93.7365C838.989 94.0778 838.914 94.4463 838.901 94.8421H844.347ZM838.901 96.3777C838.901 96.7871 838.955 97.183 839.064 97.5651C839.187 97.9473 839.365 98.2817 839.597 98.5684C839.829 98.855 840.122 99.087 840.477 99.2645C840.832 99.4283 841.255 99.5102 841.746 99.5102C842.429 99.5102 842.975 99.3668 843.384 99.0802C843.807 98.7799 844.121 98.3363 844.326 97.7494H846.537C846.414 98.3227 846.203 98.8345 845.903 99.2849C845.602 99.7354 845.241 100.118 844.817 100.431C844.394 100.732 843.917 100.957 843.384 101.107C842.866 101.271 842.32 101.353 841.746 101.353C840.914 101.353 840.177 101.216 839.535 100.943C838.894 100.67 838.348 100.288 837.897 99.7968C837.461 99.3054 837.126 98.7185 836.894 98.036C836.676 97.3536 836.566 96.6029 836.566 95.7839C836.566 95.0332 836.683 94.3234 836.915 93.6546C837.16 92.9722 837.501 92.3784 837.938 91.8734C838.389 91.3547 838.928 90.9453 839.556 90.645C840.184 90.3447 840.893 90.1946 841.685 90.1946C842.518 90.1946 843.261 90.372 843.917 90.7269C844.585 91.0681 845.138 91.5254 845.575 92.0986C846.012 92.6719 846.326 93.3339 846.517 94.0846C846.722 94.8216 846.776 95.586 846.681 96.3777H838.901ZM848.516 86.4478H850.85V91.8529H850.891C851.055 91.5936 851.253 91.3616 851.485 91.1568C851.717 90.9521 851.97 90.7815 852.243 90.645C852.529 90.4948 852.823 90.3856 853.123 90.3174C853.437 90.2355 853.744 90.1946 854.044 90.1946C854.877 90.1946 855.6 90.3447 856.214 90.645C856.842 90.9316 857.361 91.3343 857.771 91.8529C858.18 92.358 858.487 92.9517 858.692 93.6342C858.897 94.3166 858.999 95.0469 858.999 95.8249C858.999 96.5346 858.903 97.2239 858.712 97.8927C858.535 98.5615 858.255 99.1553 857.873 99.6739C857.504 100.179 857.033 100.588 856.46 100.902C855.887 101.203 855.211 101.353 854.433 101.353C854.078 101.353 853.717 101.325 853.348 101.271C852.993 101.23 852.652 101.141 852.324 101.005C851.997 100.868 851.697 100.691 851.424 100.472C851.164 100.254 850.946 99.9674 850.768 99.6125H850.728V101.066H848.516V86.4478ZM856.665 95.7839C856.665 95.3062 856.604 94.8421 856.481 94.3917C856.358 93.9413 856.174 93.5454 855.928 93.2042C855.682 92.8493 855.375 92.5695 855.007 92.3648C854.638 92.1464 854.215 92.0372 853.737 92.0372C852.754 92.0372 852.011 92.3784 851.506 93.0609C851.014 93.7434 850.768 94.651 850.768 95.7839C850.768 96.3162 850.83 96.8144 850.953 97.2785C851.089 97.7289 851.287 98.1179 851.546 98.4455C851.806 98.7731 852.113 99.0324 852.468 99.2235C852.836 99.4146 853.259 99.5102 853.737 99.5102C854.269 99.5102 854.72 99.401 855.088 99.1826C855.457 98.9642 855.757 98.6844 855.989 98.3431C856.235 97.9883 856.406 97.5924 856.501 97.1557C856.61 96.7052 856.665 96.248 856.665 95.7839ZM862.732 97.6675C862.8 98.35 863.059 98.8277 863.51 99.1007C863.96 99.3737 864.499 99.5102 865.127 99.5102C865.346 99.5102 865.591 99.4965 865.864 99.4692C866.151 99.4283 866.417 99.36 866.663 99.2645C866.909 99.1689 867.106 99.0324 867.257 98.855C867.42 98.6639 867.495 98.4182 867.482 98.1179C867.468 97.8176 867.359 97.572 867.154 97.3809C866.95 97.1898 866.683 97.0396 866.356 96.9304C866.042 96.8076 865.68 96.7052 865.271 96.6233C864.861 96.5414 864.445 96.4527 864.022 96.3572C863.585 96.2616 863.162 96.1456 862.752 96.0091C862.357 95.8726 861.995 95.6884 861.667 95.4563C861.353 95.2243 861.101 94.9308 860.91 94.576C860.719 94.2074 860.623 93.757 860.623 93.2247C860.623 92.6514 860.76 92.1737 861.033 91.7915C861.319 91.3957 861.674 91.0818 862.097 90.8497C862.534 90.604 863.012 90.4334 863.53 90.3379C864.063 90.2423 864.568 90.1946 865.045 90.1946C865.591 90.1946 866.11 90.256 866.601 90.3788C867.106 90.488 867.557 90.6723 867.953 90.9316C868.362 91.191 868.697 91.5322 868.956 91.9553C869.229 92.3648 869.4 92.863 869.468 93.4499H867.031C866.922 92.8903 866.663 92.5149 866.253 92.3238C865.858 92.1327 865.4 92.0372 864.882 92.0372C864.718 92.0372 864.52 92.0509 864.288 92.0782C864.07 92.1054 863.858 92.16 863.653 92.2419C863.462 92.3102 863.298 92.4194 863.162 92.5695C863.025 92.706 862.957 92.8903 862.957 93.1223C862.957 93.4089 863.053 93.641 863.244 93.8184C863.448 93.9959 863.708 94.146 864.022 94.2689C864.349 94.378 864.718 94.4736 865.127 94.5555C865.537 94.6374 865.96 94.7261 866.397 94.8216C866.82 94.9172 867.236 95.0332 867.646 95.1697C868.055 95.3062 868.417 95.4905 868.731 95.7225C869.058 95.9545 869.318 96.248 869.509 96.6029C869.713 96.9577 869.816 97.3945 869.816 97.9132C869.816 98.5411 869.673 99.0734 869.386 99.5102C869.099 99.9469 868.724 100.302 868.26 100.575C867.809 100.848 867.304 101.046 866.745 101.169C866.185 101.291 865.632 101.353 865.086 101.353C864.418 101.353 863.797 101.278 863.223 101.128C862.664 100.977 862.172 100.752 861.749 100.452C861.34 100.138 861.012 99.7558 860.766 99.3054C860.534 98.8413 860.412 98.2954 860.398 97.6675H862.732ZM871.649 86.4478H873.983V88.659H871.649V86.4478ZM871.649 90.4812H873.983V101.066H871.649V90.4812ZM875.462 90.4812H877.223V87.3077H879.557V90.4812H881.665V92.2215H879.557V97.8722C879.557 98.1179 879.563 98.3295 879.577 98.5069C879.604 98.6844 879.652 98.8345 879.72 98.9574C879.802 99.0802 879.918 99.1757 880.068 99.244C880.219 99.2986 880.423 99.3259 880.683 99.3259C880.846 99.3259 881.01 99.3259 881.174 99.3259C881.338 99.3122 881.502 99.2849 881.665 99.244V101.046C881.406 101.073 881.154 101.1 880.908 101.128C880.662 101.155 880.41 101.169 880.15 101.169C879.536 101.169 879.038 101.114 878.656 101.005C878.287 100.882 877.994 100.711 877.775 100.493C877.571 100.261 877.427 99.9742 877.345 99.633C877.277 99.2918 877.236 98.9028 877.223 98.466V92.2215H875.462V90.4812ZM890.613 94.8421C890.585 94.4736 890.503 94.1187 890.367 93.7775C890.244 93.4362 890.067 93.1428 889.835 92.8971C889.616 92.6378 889.343 92.433 889.016 92.2829C888.702 92.1191 888.347 92.0372 887.951 92.0372C887.542 92.0372 887.166 92.1123 886.825 92.2624C886.497 92.3989 886.211 92.5968 885.965 92.8562C885.733 93.1018 885.542 93.3953 885.392 93.7365C885.255 94.0778 885.18 94.4463 885.167 94.8421H890.613ZM885.167 96.3777C885.167 96.7871 885.221 97.183 885.33 97.5651C885.453 97.9473 885.631 98.2817 885.863 98.5684C886.095 98.855 886.388 99.087 886.743 99.2645C887.098 99.4283 887.521 99.5102 888.012 99.5102C888.695 99.5102 889.241 99.3668 889.65 99.0802C890.073 98.7799 890.387 98.3363 890.592 97.7494H892.803C892.68 98.3227 892.469 98.8345 892.169 99.2849C891.868 99.7354 891.507 100.118 891.084 100.431C890.66 100.732 890.183 100.957 889.65 101.107C889.132 101.271 888.586 101.353 888.012 101.353C887.18 101.353 886.443 101.216 885.801 100.943C885.16 100.67 884.614 100.288 884.163 99.7968C883.727 99.3054 883.392 98.7185 883.16 98.036C882.942 97.3536 882.833 96.6029 882.833 95.7839C882.833 95.0332 882.949 94.3234 883.181 93.6546C883.426 92.9722 883.768 92.3784 884.204 91.8734C884.655 91.3547 885.194 90.9453 885.822 90.645C886.45 90.3447 887.159 90.1946 887.951 90.1946C888.784 90.1946 889.527 90.372 890.183 90.7269C890.851 91.0681 891.404 91.5254 891.841 92.0986C892.278 92.6719 892.592 93.3339 892.783 94.0846C892.988 94.8216 893.042 95.586 892.947 96.3777H885.167Z" fill="#E1F8E6"/>
<path d="M771.149 103.114H893.499V104.137H771.149V103.114Z" fill="#E1F8E6"/>
<g clip-path="url(#clip0_291_33224)">
<path d="M919.102 84.9287V86.8481H914.303V100.284H927.739V95.4855H929.659V101.244C929.659 101.498 929.557 101.742 929.377 101.922C929.198 102.102 928.953 102.204 928.699 102.204H913.343C913.089 102.204 912.845 102.102 912.665 101.922C912.485 101.742 912.384 101.498 912.384 101.244V85.8884C912.384 85.6339 912.485 85.3898 912.665 85.2098C912.845 85.0298 913.089 84.9287 913.343 84.9287H919.102ZM926.382 86.8481H921.981V84.9287H929.659V92.6064H927.739V88.2052L921.021 94.9231L919.664 93.5661L926.382 86.8481Z" fill="#E1F8E6"/>
</g>
<rect x="7.51562" y="7" width="972.97" height="147.014" rx="47.9477" stroke="#133D1C" stroke-opacity="0.2" stroke-width="14"/>
<defs>
<clipPath id="clip0_291_33224">
<rect width="23.0331" height="23.0331" fill="white" transform="translate(909.505 82.0496)"/>
</clipPath>
</defs>
</svg>
