<svg width="326" height="256" viewBox="0 0 326 256" fill="none" xmlns="http://www.w3.org/2000/svg">
<path d="M190.723 81.7409C190.651 81.8716 190.579 82.0067 190.498 82.1373C190.462 82.2049 190.417 82.2725 190.386 82.3355C190.363 82.3941 190.341 82.4616 190.323 82.5247C190.241 82.7905 190.169 83.0788 190.102 83.3581L189.687 85.0563C189.557 85.6238 189.431 86.1914 189.314 86.759C189.241 87.1374 189.169 87.5112 189.124 87.9076L203.052 74.358C201.807 71.6868 200.988 68.8369 200.624 65.912C198.462 66.939 195.696 68.2138 191.962 69.7634C185.759 72.3355 184.093 85.6509 184.093 85.6509C184.093 85.6509 186.953 86.2815 188.566 85.813C188.592 85.4861 188.639 85.1612 188.705 84.8401C188.827 84.2291 189.018 83.6337 189.273 83.0653C189.402 82.774 189.557 82.4951 189.737 82.2319C189.782 82.1644 189.836 82.0968 189.895 82.0247L190.016 81.84C190.102 81.7184 190.178 81.5923 190.255 81.4662C190.886 80.4526 191.485 79.4031 192.075 78.358L193.854 75.2094C193.368 76.313 192.868 77.4106 192.354 78.5022C191.832 79.5878 191.309 80.6734 190.723 81.7409ZM184.989 85.5247C184.814 85.5185 184.648 85.4446 184.527 85.3186C184.405 85.1925 184.337 85.0242 184.337 84.849C184.337 84.6739 184.405 84.5056 184.527 84.3796C184.648 84.2535 184.814 84.1796 184.989 84.1734C185.164 84.1796 185.33 84.2535 185.452 84.3796C185.573 84.5056 185.641 84.6739 185.641 84.849C185.641 85.0242 185.573 85.1925 185.452 85.3186C185.33 85.4446 185.164 85.5185 184.989 85.5247ZM187.205 85.5247C187.03 85.5185 186.865 85.4446 186.743 85.3186C186.621 85.1925 186.553 85.0242 186.553 84.849C186.553 84.6739 186.621 84.5056 186.743 84.3796C186.865 84.2535 187.03 84.1796 187.205 84.1734C187.38 84.1796 187.546 84.2535 187.668 84.3796C187.789 84.5056 187.857 84.6739 187.857 84.849C187.857 85.0242 187.789 85.1925 187.668 85.3186C187.546 85.4446 187.38 85.5185 187.205 85.5247Z" fill="#133D1C"/>
<path d="M189.087 88.5237C189.837 88.8512 190.634 89.0598 191.449 89.1419C191.839 89.1753 192.232 89.1606 192.619 89.098C193.02 89.0493 193.41 88.9244 193.852 88.8263C193.559 89.1735 193.184 89.4416 192.76 89.6059C192.329 89.7842 191.861 89.856 191.397 89.8153C190.935 89.7804 190.486 89.646 190.082 89.4213C189.68 89.2096 189.339 88.9011 189.087 88.5237Z" fill="#133D1C"/>
<path d="M149.268 110.061C149.196 109.443 149.16 108.822 149.16 108.2L149.268 110.061Z" fill="#133D1C"/>
<path d="M149.299 110.61L149.268 110.061C149.381 111.293 149.75 112.488 150.349 113.57C149.209 111.899 149.299 110.61 149.299 110.61Z" fill="#133D1C"/>
<path d="M150.39 113.633C150.534 113.845 150.7 114.061 150.885 114.282C150.699 114.082 150.533 113.865 150.39 113.633Z" fill="#133D1C"/>
<path d="M245.381 121.881L78.7134 120.75V118.025C92.5828 118.246 106.452 118.412 120.322 118.525C134.191 118.678 148.061 118.728 161.93 118.809C175.8 118.908 189.674 118.912 203.543 118.939L224.35 118.962L244.994 118.917L245.381 121.881Z" fill="#133D1C"/>
<path d="M271.931 102.592V105.39L245.381 121.881L245.332 118.858L251.972 114.822L258.629 110.754L271.931 102.592Z" fill="#133D1C"/>
<path d="M182.936 110.145L183.836 110.161" stroke="#133D1C" stroke-width="2.09862" stroke-miterlimit="10"/>
<path d="M185.689 110.195L207 110.579" stroke="#133D1C" stroke-width="2.09862" stroke-miterlimit="10" stroke-dasharray="4.32 4.32"/>
<path d="M207.927 110.595L208.827 110.612" stroke="#133D1C" stroke-width="2.09862" stroke-miterlimit="10"/>
<path d="M183.921 108.533L184.822 108.549" stroke="#133D1C" stroke-width="2.09862" stroke-miterlimit="10"/>
<path d="M186.675 108.583L207.986 108.967" stroke="#133D1C" stroke-width="2.09862" stroke-miterlimit="10" stroke-dasharray="4.32 4.32"/>
<path d="M208.913 108.984L209.813 109" stroke="#133D1C" stroke-width="2.09862" stroke-miterlimit="10"/>
<path d="M185.11 106.941L186.011 106.958" stroke="#133D1C" stroke-width="2.09862" stroke-miterlimit="10"/>
<path d="M187.864 106.991L209.175 107.375" stroke="#133D1C" stroke-width="2.09862" stroke-miterlimit="10" stroke-dasharray="4.32 4.32"/>
<path d="M210.102 107.392L211.002 107.408" stroke="#133D1C" stroke-width="2.09862" stroke-miterlimit="10"/>
<path d="M108.372 105.18C108.604 111.714 108.757 118.248 108.952 124.782L109.387 144.385C109.467 147.652 109.559 150.919 109.663 154.186C109.755 157.453 109.76 160.72 109.677 163.987L109.507 168.887C109.421 170.521 109.363 172.154 109.247 173.788C109.045 177.055 108.788 180.322 108.372 183.589C108.368 183.624 108.351 183.657 108.324 183.68C108.297 183.704 108.263 183.717 108.227 183.717C108.192 183.717 108.157 183.704 108.131 183.68C108.104 183.657 108.087 183.624 108.082 183.589C107.667 180.322 107.409 177.055 107.207 173.788C107.091 172.154 107.034 170.521 106.947 168.887L106.777 163.987C106.693 160.72 106.698 157.453 106.792 154.186C106.899 150.919 106.991 147.652 107.067 144.385L107.502 124.782C107.697 118.248 107.851 111.714 108.082 105.18C108.084 105.143 108.099 105.107 108.126 105.081C108.154 105.055 108.19 105.04 108.227 105.04C108.265 105.04 108.301 105.055 108.328 105.081C108.355 105.107 108.371 105.143 108.372 105.18H108.372Z" fill="#133D1C"/>
<path d="M82.4262 121.831C82.6578 128.365 82.8109 134.899 83.0062 141.433L83.4413 161.035C83.5208 164.302 83.6126 167.569 83.7167 170.836C83.8092 174.103 83.8141 177.37 83.7313 180.637L83.5609 185.538C83.4748 187.171 83.4172 188.805 83.3012 190.438C83.0994 193.705 82.8418 196.972 82.4262 200.239C82.4217 200.274 82.4045 200.307 82.3778 200.33C82.3511 200.354 82.3167 200.367 82.2812 200.367C82.2456 200.367 82.2112 200.354 82.1845 200.33C82.1578 200.307 82.1406 200.274 82.1362 200.239C81.7206 196.972 81.4629 193.705 81.2613 190.438C81.1451 188.805 81.0875 187.171 81.0014 185.538L80.831 180.637C80.7471 177.37 80.7519 174.103 80.8456 170.836C80.9531 167.569 81.0449 164.302 81.121 161.035L81.5561 141.433C81.7514 134.899 81.9045 128.365 82.1361 121.831C82.1375 121.793 82.1533 121.757 82.1804 121.731C82.2074 121.705 82.2435 121.691 82.2811 121.691C82.3187 121.691 82.3549 121.705 82.3819 121.731C82.409 121.757 82.4248 121.793 82.4261 121.831H82.4262Z" fill="#133D1C"/>
<path d="M268.554 105.18C268.785 111.714 268.938 118.248 269.134 124.782L269.569 144.385C269.648 147.652 269.74 150.919 269.844 154.186C269.937 157.453 269.941 160.72 269.859 163.987L269.688 168.887C269.602 170.521 269.545 172.154 269.428 173.788C269.227 177.055 268.969 180.322 268.554 183.589C268.549 183.624 268.532 183.657 268.505 183.68C268.479 183.704 268.444 183.717 268.409 183.717C268.373 183.717 268.339 183.704 268.312 183.68C268.285 183.657 268.268 183.624 268.264 183.589C267.848 180.322 267.59 177.055 267.389 173.788C267.272 172.154 267.215 170.521 267.129 168.887L266.958 163.987C266.874 160.72 266.879 157.453 266.973 154.186C267.081 150.919 267.172 147.652 267.248 144.385L267.683 124.782C267.879 118.248 268.032 111.714 268.264 105.18C268.265 105.143 268.281 105.107 268.308 105.081C268.335 105.055 268.371 105.04 268.409 105.04C268.446 105.04 268.482 105.055 268.509 105.081C268.536 105.107 268.552 105.143 268.554 105.18H268.554Z" fill="#133D1C"/>
<path d="M242.608 121.83C242.839 128.364 242.993 134.899 243.188 141.433L243.623 161.035C243.702 164.302 243.794 167.569 243.898 170.836C243.991 174.103 243.996 177.37 243.913 180.637L243.743 185.537C243.656 187.171 243.599 188.805 243.483 190.438C243.281 193.705 243.023 196.972 242.608 200.239C242.603 200.274 242.586 200.307 242.559 200.33C242.533 200.354 242.498 200.367 242.463 200.367C242.427 200.367 242.393 200.354 242.366 200.33C242.339 200.307 242.322 200.274 242.318 200.239C241.902 196.972 241.645 193.705 241.443 190.438C241.327 188.805 241.269 187.171 241.183 185.537L241.013 180.637C240.929 177.37 240.934 174.103 241.027 170.836C241.135 167.569 241.227 164.302 241.303 161.035L241.738 141.433C241.933 134.899 242.086 128.364 242.318 121.83C242.319 121.793 242.335 121.757 242.362 121.731C242.389 121.705 242.425 121.691 242.463 121.691C242.5 121.691 242.536 121.705 242.563 121.731C242.59 121.757 242.606 121.793 242.608 121.83H242.608Z" fill="#133D1C"/>
<path d="M206.179 62.4018C205.42 62.3773 204.695 62.0776 204.139 61.5583C203.575 61.0729 203.076 60.5154 202.656 59.9002C202.233 59.2979 201.853 58.6666 201.519 58.0109C201.178 57.3577 200.876 56.6854 200.613 55.9973L201.332 56.1883C201.209 56.2936 201.065 56.3721 200.91 56.4188C200.754 56.4654 200.591 56.4792 200.43 56.4593C200.161 56.4178 199.906 56.3099 199.688 56.1454C199.31 55.8652 199.011 55.4913 198.822 55.0604C198.623 54.6432 198.533 54.1831 198.558 53.7219C198.585 53.2561 198.746 52.8081 199.022 52.4322C199.29 52.0801 199.633 51.7923 200.027 51.5899C200.231 51.4803 200.454 51.4102 200.685 51.383C200.936 51.3543 201.189 51.4155 201.399 51.5557C201.737 51.8432 201.971 52.2344 202.063 52.6683C202.168 53.0618 202.233 53.4651 202.255 53.8718L202.132 53.7245C202.644 53.8305 203.178 53.7566 203.642 53.5153C204.117 53.2703 204.545 52.9441 204.907 52.5515C205.632 51.7442 206.25 50.8464 206.745 49.8804C207.257 48.9203 207.721 47.932 208.152 46.9288C208.583 45.929 208.981 44.8986 209.317 43.8775C209.352 43.7735 209.418 43.6829 209.506 43.6185C209.595 43.5542 209.702 43.5194 209.811 43.519C209.921 43.5187 210.027 43.5528 210.116 43.6165C210.206 43.6802 210.272 43.7704 210.307 43.8741L210.314 43.8957C210.787 45.3256 211.31 46.7616 211.882 48.1539C212.182 48.8446 212.494 49.5267 212.846 50.1774C213.156 50.8022 213.589 51.3581 214.119 51.8116L214.167 51.8466C214.208 51.8766 214.243 51.9152 214.268 51.9596C214.293 52.0041 214.309 52.0534 214.314 52.1044C214.401 53.0773 214.425 54.0416 214.417 55.0129C214.412 55.4995 214.381 55.9855 214.322 56.4687C214.282 56.9596 214.161 57.4404 213.964 57.8915C213.958 57.9029 213.948 57.9118 213.937 57.9165C213.925 57.9212 213.912 57.9213 213.9 57.9168C213.888 57.9124 213.878 57.9036 213.872 57.8923C213.867 57.881 213.865 57.868 213.869 57.8557L213.87 57.8517C213.976 57.3931 214.019 56.9218 213.995 56.4516C213.983 55.9781 213.942 55.5053 213.903 55.0323C213.818 54.0879 213.674 53.1402 213.52 52.2112L213.715 52.5038C213.017 52.0293 212.439 51.4001 212.024 50.6651C211.611 49.9935 211.242 49.2961 210.918 48.5773C210.275 47.1579 209.738 45.6929 209.312 44.1943L210.309 44.2125C209.914 45.2782 209.477 46.2975 208.996 47.3121C208.519 48.3281 207.969 49.3083 207.35 50.2449C206.738 51.1956 206.015 52.0695 205.195 52.8481C204.774 53.2388 204.297 53.5632 203.779 53.8103C203.246 54.0665 202.644 54.1445 202.063 54.0328C202.03 54.0261 202.001 54.0089 201.978 53.9838C201.956 53.9588 201.943 53.9272 201.94 53.8939L201.939 53.8855C201.915 53.5069 201.843 53.1329 201.725 52.7725C201.639 52.4346 201.44 52.1362 201.162 51.9265C200.657 51.6694 199.914 52.2807 199.588 52.8109C199.432 53.0978 199.352 53.4201 199.357 53.7467C199.362 54.0733 199.45 54.3932 199.614 54.6756C199.758 54.9603 199.965 55.2087 200.218 55.4025C200.315 55.4765 200.428 55.5266 200.548 55.5488C200.582 55.5556 200.617 55.555 200.651 55.547C200.685 55.539 200.717 55.5239 200.744 55.5026L200.784 55.4749C200.882 55.4069 201.002 55.3804 201.119 55.4013C201.236 55.4221 201.34 55.4887 201.408 55.5862C201.431 55.6195 201.45 55.6556 201.463 55.6936C201.693 56.3452 201.978 57.0044 202.264 57.6477C202.558 58.2902 202.878 58.9207 203.231 59.5285C203.577 60.1359 203.986 60.7055 204.45 61.2277C204.892 61.7698 205.503 62.1475 206.185 62.2998C206.191 62.3009 206.198 62.3032 206.203 62.3067C206.209 62.3102 206.214 62.3149 206.218 62.3203C206.222 62.3258 206.225 62.3319 206.227 62.3385C206.228 62.3451 206.228 62.3519 206.227 62.3585C206.225 62.3701 206.22 62.3807 206.211 62.3885C206.202 62.3964 206.191 62.401 206.179 62.4018Z" fill="#133D1C"/>
<path d="M203.661 60.6436C203.705 61.0025 203.742 61.3614 203.776 61.7203C203.82 62.0936 203.817 62.4709 203.767 62.8435C203.652 63.6153 203.322 64.339 202.814 64.932C202.557 65.2317 202.26 65.4938 201.93 65.7108C201.767 65.8184 201.598 65.9164 201.424 66.0045L200.941 66.2454C200.295 66.5613 199.651 66.8826 198.993 67.1734C197.682 67.7669 196.321 68.2483 194.972 68.7511C194.295 68.9955 193.622 69.2507 192.957 69.5223C192.287 69.7551 191.647 70.0655 191.05 70.4472C189.927 71.2943 189.012 72.386 188.374 73.6394C187.696 74.8724 187.121 76.1591 186.653 77.4863C185.748 80.1717 185.027 82.9156 184.495 85.699L184.181 85.2551C184.965 85.4568 185.76 85.6083 186.563 85.7087C186.964 85.76 187.368 85.7855 187.772 85.7852C188.176 85.7911 188.577 85.7298 188.961 85.6037C188.967 85.6012 188.974 85.6 188.98 85.6001C188.987 85.6002 188.994 85.6016 189 85.6042C189.006 85.6069 189.012 85.6108 189.016 85.6156C189.021 85.6204 189.025 85.6261 189.027 85.6324C189.031 85.6435 189.032 85.6556 189.028 85.6668C189.025 85.6781 189.017 85.6878 189.007 85.6944C188.638 85.9116 188.229 86.0543 187.805 86.1143C187.387 86.1902 186.963 86.2297 186.538 86.2324C186.115 86.2413 185.693 86.228 185.271 86.1927C184.849 86.1588 184.436 86.1167 184.007 86.043C183.913 86.0267 183.828 85.9754 183.769 85.8994C183.71 85.8233 183.683 85.728 183.691 85.6323L183.694 85.599C183.831 84.15 184.066 82.712 184.4 81.2952C184.724 79.8743 185.162 78.4814 185.707 77.1296C186.232 75.7592 186.91 74.4522 187.728 73.2334C188.555 72.008 189.621 70.9618 190.861 70.1572C191.494 69.7974 192.152 69.4855 192.831 69.2241C193.489 68.939 194.135 68.6256 194.774 68.297C196.057 67.6516 197.316 66.9569 198.612 66.3477C199.258 66.0373 199.915 65.7512 200.566 65.4533L201.056 65.2326C201.207 65.1685 201.354 65.0955 201.497 65.0142C201.777 64.8515 202.036 64.6539 202.267 64.4261C202.741 63.9586 203.088 63.3777 203.275 62.7385C203.371 62.4067 203.428 62.0651 203.445 61.7203C203.478 61.3614 203.516 61.0025 203.559 60.6436C203.561 60.6311 203.567 60.6196 203.576 60.6113C203.586 60.603 203.598 60.5984 203.61 60.5984C203.623 60.5984 203.635 60.603 203.644 60.6113C203.654 60.6196 203.66 60.6311 203.661 60.6436L203.661 60.6436Z" fill="#133D1C"/>
<path d="M189.087 88.5237C189.375 89.5279 189.528 90.5659 189.543 91.6105C189.598 92.6521 189.606 93.6948 189.567 94.7384C189.536 95.7815 189.468 96.824 189.347 97.8654C189.245 98.9243 189.05 99.972 188.762 100.996L188.311 100.4L194.694 100.044L201.08 99.7416L207.466 99.4668C209.594 99.3654 211.723 99.307 213.851 99.1197C212.809 99.3564 211.75 99.5263 210.693 99.6761C209.635 99.8365 208.575 99.9658 207.513 100.083C205.39 100.317 203.263 100.505 201.134 100.662C199.007 100.83 196.876 100.941 194.746 101.061C192.614 101.158 190.484 101.257 188.35 101.308L188.343 101.308C188.283 101.309 188.223 101.299 188.168 101.277C188.112 101.256 188.061 101.223 188.018 101.182C187.974 101.141 187.94 101.092 187.915 101.037C187.891 100.982 187.878 100.923 187.877 100.863C187.875 100.812 187.883 100.76 187.899 100.711C188.193 99.7441 188.417 98.7572 188.569 97.7581C188.735 96.7464 188.856 95.7229 188.966 94.6982C189.064 93.6725 189.155 92.6436 189.203 91.612C189.277 90.5814 189.238 89.5459 189.087 88.5237Z" fill="#133D1C"/>
<path d="M214.95 101.062C213.13 101.371 205.058 101.205 200.882 101.096C200.882 101.096 209.813 93.6177 209.841 90.8123C209.841 90.8123 212.954 98.8241 213.851 99.1196L214.95 101.062Z" fill="#133D1C"/>
<path d="M184.558 85.7391C184.465 86.538 184.326 87.3234 184.171 88.1043C184.019 88.8862 183.841 89.6605 183.655 90.4322C183.467 91.2035 183.265 91.9706 183.047 92.7335C182.844 93.5004 182.595 94.2538 182.37 95.0142L182.365 95.0295C182.354 95.0647 182.339 95.0982 182.319 95.1293C181.781 95.9668 181.232 96.7979 180.657 97.6131C180.076 98.4246 179.483 99.2291 178.829 99.997C179.198 99.0584 179.629 98.1566 180.072 97.2617C180.52 96.3704 180.995 95.4952 181.481 94.6263L181.431 94.7412C181.648 93.9785 181.842 93.2088 182.082 92.4526C182.306 91.6919 182.547 90.9359 182.804 90.1847C183.06 89.4332 183.326 88.6845 183.617 87.9432C183.905 87.201 184.209 86.4634 184.558 85.7391Z" fill="#133D1C"/>
<path d="M188.712 98.5531C188.851 98.8344 188.929 99.142 188.94 99.4557C188.951 99.7693 188.896 100.082 188.777 100.372C188.74 100.479 188.682 100.578 188.605 100.661C188.528 100.743 188.434 100.809 188.33 100.854C188.372 100.665 188.392 100.472 188.39 100.279C188.392 100.091 188.406 99.9039 188.422 99.7144C188.451 99.3135 188.549 98.9207 188.712 98.5531Z" fill="#133D1C"/>
<path d="M198.924 101.062C200.087 100.599 201.194 100.006 202.223 99.2922C203.237 98.5923 204.19 97.8092 205.074 96.9512C205.511 96.5166 205.952 96.0857 206.349 95.6105C206.785 95.1688 207.146 94.6636 207.553 94.1901C207.762 93.9571 207.932 93.6951 208.122 93.4466L208.693 92.6958C209.062 92.1849 209.41 91.6573 209.813 91.1509C209.613 91.7582 209.379 92.3574 209.126 92.9496C208.827 93.5159 208.56 94.1082 208.205 94.6477C207.522 95.7528 206.709 96.7722 205.784 97.684C204.844 98.5907 203.782 99.3617 202.629 99.9744C201.489 100.604 200.224 100.976 198.924 101.062Z" fill="#133D1C"/>
<path d="M193.803 68.7109C194.292 65.847 194.89 63.0145 195.499 60.1889L196.417 55.96C196.573 55.2577 196.734 54.5575 196.849 53.8591C196.902 53.5145 196.924 53.1898 196.968 52.7892C197.017 52.4202 197.087 52.0542 197.178 51.693C197.536 50.2732 198.023 48.889 198.632 47.5574C198.938 46.8909 199.29 46.2465 199.685 45.6289C200.076 44.9982 200.534 44.4115 201.05 43.8788C202.102 42.7404 203.537 42.0297 205.079 41.8824C205.467 41.853 205.856 41.8549 206.243 41.8882C206.625 41.932 207.004 42.003 207.376 42.1006C208.112 42.2955 208.825 42.5679 209.503 42.9134L209.152 42.8669C209.951 42.7037 210.775 42.6908 211.579 42.8289C212.4 42.9643 213.175 43.2995 213.835 43.8051C214.164 44.0618 214.462 44.3554 214.724 44.6801C214.842 44.8487 214.947 45.0255 215.058 45.1985C215.175 45.3653 215.272 45.5455 215.347 45.7351C215.52 46.0965 215.655 46.4754 215.747 46.8654C215.853 47.2438 215.926 47.6305 215.967 48.0213C215.995 48.4079 216.059 48.7941 216.055 49.1788L216.023 50.3291C215.986 51.0824 215.905 51.798 215.889 52.5386C215.863 53.2717 215.875 54.0057 215.926 54.7375C215.922 55.4626 216.122 56.1741 216.503 56.7906L216.508 56.797C216.516 56.8069 216.52 56.8193 216.519 56.8318C216.518 56.8442 216.512 56.8559 216.503 56.8645C216.494 56.8732 216.482 56.8782 216.47 56.8787C216.457 56.8791 216.445 56.8749 216.436 56.8669C216.154 56.598 215.944 56.2639 215.822 55.8942C215.699 55.5343 215.6 55.1666 215.526 54.7934C215.388 54.0515 215.3 53.3009 215.265 52.5469C215.215 51.8012 215.216 51.0312 215.212 50.2997L215.171 49.2208C215.148 48.8634 215.076 48.5147 215.033 48.1624C214.981 47.8159 214.9 47.4745 214.789 47.1422C214.693 46.8134 214.568 46.494 214.414 46.1882C214.351 46.0329 214.267 45.8867 214.165 45.7535C214.071 45.6166 213.984 45.4744 213.887 45.3407C213.674 45.0937 213.435 44.8708 213.174 44.676C212.651 44.2714 212.035 44.0034 211.383 43.8964C210.721 43.7678 210.043 43.756 209.377 43.8614L209.346 43.8667C209.236 43.8855 209.124 43.8672 209.026 43.8148C207.845 43.1206 206.5 42.7524 205.13 42.7479C203.753 42.802 202.439 43.3425 201.422 44.2734C200.364 45.2314 199.512 46.3946 198.918 47.6923C198.295 48.9863 197.868 50.3659 197.652 51.7856C197.597 52.1339 197.562 52.485 197.547 52.8372C197.541 53.1584 197.548 53.5589 197.523 53.9339C197.461 54.6727 197.377 55.4007 197.257 56.1197C197.03 57.561 196.698 58.9758 196.355 60.3857C195.66 63.2036 194.864 65.9934 193.901 68.7367C193.897 68.7488 193.888 68.7589 193.877 68.7649C193.866 68.7709 193.853 68.7725 193.84 68.7692C193.828 68.766 193.817 68.7582 193.81 68.7474C193.803 68.7366 193.8 68.7235 193.803 68.7109L193.803 68.7109Z" fill="#133D1C"/>
<path d="M175.66 101.791C175.807 101.457 176.008 101.149 176.254 100.879C176.505 100.601 176.796 100.361 177.117 100.167C177.774 99.7847 178.512 99.5637 179.271 99.5227L179.233 99.5256C179.752 99.4691 180.276 99.4766 180.794 99.5478C181.305 99.6174 181.806 99.7502 182.285 99.9433C182.764 100.139 183.209 100.409 183.603 100.744C183.991 101.071 184.308 101.475 184.534 101.93C184.144 101.655 183.731 101.414 183.299 101.211C182.886 101.02 182.454 100.872 182.011 100.769C181.14 100.561 180.243 100.476 179.348 100.515L179.311 100.518C178.67 100.518 178.034 100.618 177.424 100.815C177.113 100.919 176.812 101.053 176.525 101.214C176.224 101.386 175.935 101.579 175.66 101.791Z" fill="#133D1C"/>
<path d="M184.559 105.389C181.506 112.724 176.776 109.83 176.776 109.83C176.776 109.83 178.899 108.551 179.264 102.414C179.264 102.414 180.186 101.065 181.376 102.414C182.371 103.474 183.434 104.468 184.559 105.389Z" fill="white"/>
<path d="M184.602 105.378C184.497 105.755 184.367 106.191 184.208 106.639C184.032 107.059 183.832 107.435 183.629 107.831C183.515 108.021 183.384 108.201 183.257 108.383C183.136 108.571 183 108.75 182.851 108.916L182.382 109.406C182.214 109.56 182.036 109.704 181.85 109.837C181.1 110.385 180.189 110.668 179.261 110.64C178.367 110.611 177.491 110.374 176.704 109.948C176.684 109.937 176.668 109.922 176.656 109.904C176.643 109.885 176.636 109.864 176.634 109.842C176.632 109.82 176.636 109.797 176.645 109.777C176.655 109.757 176.669 109.739 176.686 109.726L176.705 109.712C177.19 109.292 177.557 108.751 177.768 108.144C178.006 107.538 178.186 106.911 178.307 106.272C178.384 105.957 178.426 105.631 178.492 105.313C178.538 104.99 178.59 104.668 178.628 104.344C178.657 104.017 178.694 103.693 178.717 103.366C178.73 103.038 178.76 102.712 178.784 102.385L178.786 102.357C178.792 102.279 178.82 102.205 178.867 102.143C179.087 101.825 179.397 101.582 179.758 101.446C179.951 101.374 180.157 101.343 180.363 101.355C180.569 101.366 180.77 101.421 180.954 101.514C181.258 101.681 181.523 101.91 181.733 102.186C181.91 102.399 182.09 102.613 182.276 102.825C182.648 103.248 183.033 103.667 183.421 104.086L184.003 104.719C184.204 104.941 184.38 105.115 184.602 105.378ZM184.515 105.4C184.268 105.267 184.03 105.117 183.802 104.952C183.562 104.791 183.325 104.624 183.095 104.45C182.631 104.104 182.18 103.741 181.747 103.35C181.527 103.157 181.315 102.955 181.109 102.742C180.957 102.573 180.773 102.435 180.568 102.335C180.495 102.3 180.415 102.281 180.334 102.28C180.253 102.279 180.172 102.296 180.099 102.33C179.927 102.414 179.778 102.535 179.661 102.685L179.744 102.443C179.715 102.781 179.691 103.121 179.65 103.459C179.607 103.797 179.549 104.134 179.499 104.47C179.439 104.806 179.366 105.141 179.298 105.475C179.207 105.807 179.134 106.141 179.019 106.466C178.804 107.12 178.52 107.751 178.172 108.346C177.84 108.961 177.39 109.506 176.847 109.948L176.848 109.713C177.21 109.91 177.602 110.047 178.009 110.116C178.212 110.149 178.418 110.164 178.623 110.16C178.827 110.164 179.03 110.148 179.23 110.112C180.009 109.969 180.745 109.649 181.382 109.178C182.034 108.697 182.614 108.124 183.104 107.478C183.331 107.137 183.597 106.794 183.821 106.46L184.515 105.4Z" fill="#133D1C"/>
<path d="M181.9 94.8777C182.153 94.7249 182.431 94.6182 182.721 94.5625C183.005 94.5018 183.294 94.4715 183.584 94.472C184.17 94.464 184.749 94.6035 185.267 94.8777C184.984 94.9283 184.697 94.9578 184.41 94.9661C184.131 94.9794 183.857 94.9811 183.582 94.9822C183.02 94.9846 182.458 94.9497 181.9 94.8777Z" fill="#133D1C"/>
<path d="M159.363 121.314C158.913 121.427 158.49 121.627 158.116 121.901C157.735 122.168 157.378 122.467 157.048 122.795C156.386 123.454 155.776 124.164 155.223 124.918C154.123 126.436 153.105 128.012 152.174 129.639C150.286 132.885 148.64 136.267 147.015 139.655C145.403 143.051 143.881 146.491 142.415 149.954C140.945 153.415 139.483 156.885 138.113 160.383L138.035 159.957C139.304 161.393 140.654 162.784 142.042 164.12C143.426 165.46 144.884 166.723 146.408 167.903C147.9 169.109 149.565 170.084 151.347 170.795C152.219 171.144 153.169 171.252 154.097 171.108C154.547 171.01 154.97 170.811 155.332 170.526C155.694 170.24 155.986 169.876 156.187 169.461L156.188 169.457C156.199 169.436 156.216 169.417 156.236 169.403C156.255 169.388 156.279 169.379 156.303 169.375C157.188 169.257 158.086 169.268 158.968 169.409C159.852 169.541 160.707 169.823 161.495 170.244C161.89 170.455 162.264 170.702 162.614 170.981C162.957 171.269 163.272 171.589 163.556 171.935C163.844 172.277 164.1 172.645 164.321 173.034C164.55 173.417 164.707 173.837 164.902 174.237L164.762 174.121C166.676 174.298 168.606 174.112 170.451 173.575C172.304 173.056 174.081 172.298 175.737 171.318L176.955 170.547C177.365 170.297 177.73 169.98 178.12 169.7C178.889 169.124 179.627 168.507 180.329 167.851C180.7 167.545 181.02 167.183 181.359 166.842L182.365 165.809C182.995 165.082 183.603 164.335 184.223 163.6L184.135 163.919L182.104 148.726L181.105 141.127L180.146 133.523C180.136 133.444 180.144 133.363 180.17 133.287C180.195 133.212 180.238 133.143 180.294 133.086C180.351 133.029 180.419 132.986 180.495 132.96C180.57 132.933 180.651 132.925 180.73 132.934L180.737 132.935C184.36 133.358 188.004 133.584 191.652 133.611C195.301 133.672 198.948 133.453 202.563 132.955C206.154 132.418 209.753 131.591 212.978 129.916C214.599 129.101 216.058 127.998 217.285 126.661C218.501 125.298 219.355 123.651 219.77 121.872C219.773 121.859 219.781 121.848 219.792 121.841C219.803 121.833 219.817 121.831 219.83 121.834C219.843 121.837 219.855 121.844 219.862 121.855C219.869 121.867 219.872 121.88 219.87 121.893C219.518 123.722 218.713 125.433 217.529 126.869C216.328 128.298 214.867 129.486 213.223 130.369C211.593 131.259 209.873 131.974 208.092 132.501C206.32 133.038 204.513 133.453 202.685 133.743C199.034 134.308 195.345 134.592 191.651 134.593C189.806 134.609 187.961 134.557 186.12 134.452C184.276 134.346 182.446 134.203 180.598 133.978L181.189 133.389L182.176 140.99L183.122 148.596L184.983 163.811L184.986 163.832C184.992 163.886 184.987 163.94 184.971 163.991C184.956 164.042 184.929 164.089 184.894 164.13C184.248 164.872 183.614 165.625 182.958 166.357L181.91 167.399C181.57 167.755 181.212 168.093 180.837 168.412C180.1 169.066 179.329 169.68 178.526 170.251C178.119 170.529 177.737 170.843 177.31 171.09L176.042 171.849C174.32 172.81 172.481 173.546 170.571 174.038C168.656 174.543 166.666 174.695 164.697 174.487C164.669 174.483 164.643 174.473 164.621 174.457C164.598 174.441 164.58 174.42 164.568 174.395L164.556 174.371C164.371 173.986 164.224 173.579 164.008 173.212C163.8 172.839 163.558 172.487 163.286 172.158C163.019 171.826 162.722 171.52 162.398 171.243C162.067 170.975 161.712 170.737 161.338 170.533C160.585 170.124 159.767 169.846 158.92 169.714C158.073 169.582 157.211 169.578 156.363 169.701L156.479 169.616L156.074 170.254C155.898 170.436 155.737 170.637 155.544 170.802C155.147 171.13 154.677 171.356 154.174 171.462C153.181 171.632 152.16 171.53 151.22 171.167C149.385 170.468 147.66 169.511 146.094 168.327C144.52 167.176 143.012 165.938 141.576 164.618C140.137 163.303 138.749 161.946 137.413 160.511C137.362 160.456 137.328 160.388 137.313 160.314C137.299 160.241 137.305 160.164 137.332 160.094L137.335 160.086C138.685 156.559 140.089 153.062 141.585 149.598C143.09 146.14 144.652 142.706 146.305 139.314C147.956 135.921 149.742 132.588 151.71 129.361C152.687 127.74 153.768 126.184 154.946 124.702C155.537 123.958 156.185 123.262 156.884 122.619C157.235 122.295 157.615 122.006 158.021 121.754C158.423 121.49 158.872 121.307 159.345 121.214C159.358 121.212 159.371 121.215 159.382 121.223C159.393 121.23 159.4 121.242 159.403 121.255C159.405 121.268 159.403 121.282 159.395 121.293C159.388 121.304 159.376 121.312 159.363 121.315L159.363 121.314Z" fill="#133D1C"/>
<path d="M230.87 71.2768C231.619 71.027 232.404 70.904 233.193 70.9129C234 70.9097 234.8 71.0595 235.551 71.3545C236.312 71.676 236.99 72.1659 237.534 72.7872C238.069 73.4124 238.488 74.1279 238.773 74.9002C239.308 76.4223 239.563 78.0286 239.528 79.6416C239.495 81.2189 239.366 82.7927 239.139 84.354C238.733 87.4513 238.242 90.5406 237.581 93.5971C236.963 96.6645 236.087 99.674 234.962 102.593C235.357 101.084 235.694 99.5645 235.975 98.0358C236.275 96.5107 236.54 94.9797 236.798 93.4483C237.296 90.382 237.739 87.3074 238.127 84.2245C238.36 82.7037 238.506 81.1707 238.564 79.6332C238.635 78.1252 238.453 76.6158 238.025 75.1679C237.824 74.4573 237.483 73.794 237.023 73.2168C236.562 72.6396 235.991 72.16 235.342 71.8062C233.948 71.1497 232.379 70.9639 230.87 71.2768Z" fill="#133D1C"/>
<path d="M181.089 136.584C184.331 137.246 187.568 137.859 190.815 138.396L195.691 139.159C197.316 139.42 198.949 139.636 200.589 139.806C202.231 139.954 203.881 140.001 205.529 139.946C207.173 139.879 208.81 139.701 210.43 139.413C212.038 139.134 213.622 138.735 215.17 138.218C216.705 137.723 218.172 137.04 219.538 136.184L219.557 136.173L219.623 136.14C220.25 135.817 220.838 135.422 221.376 134.965C221.937 134.493 222.47 133.988 222.972 133.454C223.972 132.354 224.862 131.16 225.632 129.888C226.417 128.607 227.123 127.28 227.747 125.913L228.629 123.824C228.894 123.115 229.152 122.402 229.431 121.692L229.432 121.69C229.437 121.678 229.446 121.668 229.457 121.662C229.469 121.657 229.482 121.656 229.495 121.66C229.507 121.663 229.517 121.672 229.524 121.683C229.53 121.694 229.532 121.707 229.53 121.72C229.362 122.463 229.174 123.203 228.993 123.946C228.778 124.679 228.541 125.408 228.299 126.135C227.788 127.589 227.16 128.998 226.42 130.35C225.682 131.72 224.791 133.003 223.764 134.173C223.497 134.459 223.231 134.748 222.953 135.025C222.658 135.286 222.382 135.567 222.066 135.808C221.448 136.34 220.758 136.784 220.016 137.125L220.101 137.081C217.163 138.761 213.889 139.767 210.515 140.027C207.205 140.289 203.883 140.357 200.565 140.231C198.906 140.199 197.248 140.115 195.59 139.979C193.936 139.829 192.292 139.578 190.661 139.268C187.394 138.674 184.182 137.809 181.059 136.681C181.047 136.677 181.036 136.667 181.031 136.655C181.025 136.642 181.024 136.628 181.029 136.616C181.034 136.604 181.042 136.595 181.053 136.589C181.064 136.583 181.076 136.581 181.089 136.584Z" fill="#133D1C"/>
<path d="M183.583 101.062C186.217 100.851 188.851 100.741 191.485 100.665C194.118 100.584 196.752 100.562 199.386 100.552C202.019 100.561 204.653 100.583 207.287 100.664C209.92 100.739 212.554 100.85 215.188 101.062C212.554 101.275 209.92 101.386 207.287 101.461C204.653 101.542 202.019 101.564 199.386 101.572C196.752 101.562 194.118 101.541 191.485 101.459C188.851 101.384 186.217 101.274 183.583 101.062Z" fill="#133D1C"/>
<path d="M226.273 102.592L224.949 102.57C223.912 103.466 222.627 104.027 221.264 104.178C220.371 104.254 219.473 104.138 218.629 103.838C217.785 103.537 217.015 103.058 216.372 102.435L184.534 101.93C185.268 102.851 185.707 103.972 185.795 105.146C185.795 105.146 185.268 107.209 181.183 102.178C181.183 102.178 179.557 101.534 179.214 102.516C178.876 103.502 179.178 111.29 174.183 110.272C174.183 110.272 173.345 104.723 175.66 101.79L171.537 101.725V102.343C171.537 102.716 171.464 103.085 171.321 103.429C171.179 103.773 170.97 104.086 170.706 104.349C170.443 104.613 170.13 104.821 169.786 104.964C169.442 105.107 169.073 105.18 168.701 105.18H148.987L149.16 108.2C149.16 108.002 149.169 107.89 149.169 107.89H157.241L150.885 114.282H140.993C140.122 114.281 139.287 113.937 138.667 113.325C138.048 112.713 137.694 111.882 137.682 111.011L137.61 105.18H118.095C117.722 105.18 117.353 105.107 117.009 104.964C116.665 104.822 116.352 104.613 116.089 104.349C115.826 104.086 115.617 103.773 115.474 103.429C115.332 103.085 115.258 102.716 115.258 102.343V100.854H107.534L78.7136 118.025C92.5831 117.903 106.453 117.837 120.322 117.827C134.196 117.777 148.065 117.827 161.935 117.845C175.804 117.849 189.674 117.944 203.548 118.016L224.35 118.146L245.08 118.34L251.728 114.417L258.458 110.471L271.931 102.592L226.273 102.592ZM210.872 112.277L178.773 112.047L180.669 110.056L184.426 105.696H215.94L210.872 112.277Z" fill="#133D1C"/>
<path d="M148.989 105.11C150.977 105.042 152.965 104.994 154.954 104.948C156.942 104.901 158.931 104.847 160.919 104.824L166.884 104.732L168.376 104.709C168.496 104.706 168.632 104.708 168.74 104.701C168.844 104.697 168.947 104.687 169.049 104.669C169.253 104.636 169.451 104.576 169.638 104.491C170.01 104.32 170.332 104.055 170.571 103.722C170.81 103.39 170.958 103.001 171.001 102.593L170.94 90.719C170.921 86.7422 170.933 82.7654 170.976 78.7886L171.162 66.8583L171.261 60.8931C171.285 60.5519 171.242 60.2092 171.133 59.8849C171.024 59.5606 170.852 59.2611 170.627 59.0037C170.402 58.7464 170.127 58.5363 169.82 58.3857C169.513 58.2351 169.179 58.147 168.838 58.1264C168.365 58.1066 167.85 58.1121 167.358 58.1084C159.405 58.0688 151.451 58.1433 143.498 58.2593C135.544 58.3891 127.591 58.4776 119.637 58.5249L118.146 58.5335C117.757 58.5305 117.373 58.6288 117.034 58.8187C116.701 59.0083 116.424 59.282 116.23 59.6124C116.036 59.9428 115.933 60.3184 115.93 60.7014L115.963 66.66L115.979 78.5904L115.91 90.5208L115.792 102.431C115.804 102.841 115.922 103.239 116.136 103.588C116.35 103.937 116.652 104.224 117.011 104.42C117.383 104.62 117.801 104.72 118.223 104.711L119.715 104.736L125.68 104.836C129.657 104.907 133.634 104.998 137.61 105.11C137.628 105.111 137.645 105.118 137.657 105.131C137.669 105.143 137.676 105.16 137.676 105.178C137.676 105.196 137.669 105.212 137.657 105.225C137.645 105.238 137.628 105.245 137.61 105.246C133.633 105.358 129.657 105.449 125.68 105.52L119.715 105.62L118.223 105.645C117.647 105.67 117.074 105.549 116.557 105.292C116.03 105.026 115.584 104.624 115.264 104.128C114.944 103.632 114.762 103.06 114.736 102.471L114.608 90.5208L114.538 78.5904L114.555 66.66L114.59 60.6884C114.601 60.0722 114.774 59.4697 115.091 58.9414C115.408 58.4131 115.859 57.9776 116.398 57.6787C116.934 57.3866 117.536 57.2373 118.146 57.2452L119.637 57.2538C127.59 57.2932 135.544 57.3817 143.498 57.5194C151.451 57.6353 159.405 57.7098 167.358 57.6702C167.861 57.6733 168.341 57.657 168.861 57.6673C169.403 57.6888 169.929 57.8543 170.385 58.1466C170.843 58.4403 171.215 58.8494 171.465 59.3329C171.59 59.5748 171.683 59.8317 171.742 60.0973C171.792 60.3596 171.817 60.626 171.816 60.893L171.915 66.8582L172.101 78.7886C172.141 82.7654 172.153 86.7422 172.137 90.719L172.112 96.6842L172.088 99.6668L172.075 101.158L172.069 101.904L172.065 102.277C172.064 102.399 172.054 102.564 172.042 102.704C171.974 103.29 171.752 103.848 171.399 104.32C171.046 104.792 170.574 105.162 170.031 105.393C169.762 105.505 169.479 105.581 169.19 105.619C169.046 105.639 168.901 105.65 168.756 105.65C168.616 105.653 168.503 105.648 168.376 105.647L166.884 105.624L160.919 105.532C158.931 105.509 156.942 105.455 154.954 105.408C152.965 105.362 150.977 105.314 148.989 105.246C148.971 105.245 148.955 105.238 148.942 105.225C148.93 105.212 148.923 105.196 148.923 105.178C148.923 105.16 148.93 105.144 148.942 105.131C148.955 105.118 148.971 105.111 148.989 105.11V105.11Z" fill="#133D1C"/>
<path d="M148.273 80.5978C148.287 82.0654 147.792 83.4926 146.874 84.6373C146.38 85.2209 145.759 85.684 145.059 85.9912C144.359 86.2985 143.598 86.4418 142.834 86.4102C141.331 86.312 139.924 85.6363 138.908 84.5244C137.884 83.4609 137.268 82.0706 137.167 80.5978C137.115 79.8385 137.224 79.0767 137.485 78.3619C137.747 77.6471 138.156 76.9953 138.685 76.4488C139.221 75.8898 139.861 75.4415 140.569 75.1293C141.282 74.8173 142.053 74.6594 142.831 74.6658C143.609 74.6723 144.377 74.8429 145.084 75.1667C145.781 75.4857 146.395 75.959 146.882 76.5507C147.802 77.6966 148.294 79.1279 148.273 80.5978ZM148.171 80.5978C148.165 79.8997 147.998 79.2123 147.683 78.5895C147.37 77.9855 146.936 77.453 146.406 77.0258C145.398 76.2031 144.136 75.7541 142.834 75.7547C141.546 75.7598 140.307 76.25 139.364 77.1277C138.411 78.0441 137.828 79.2792 137.726 80.5978C137.682 81.276 137.781 81.9559 138.017 82.593C138.261 83.2354 138.646 83.8152 139.142 84.2903C139.639 84.7409 140.223 85.0858 140.858 85.3041C141.493 85.5224 142.165 85.6096 142.834 85.5604C144.145 85.4945 145.4 85.0097 146.414 84.1774C146.944 83.7489 147.378 83.2148 147.691 82.6093C148.006 81.9855 148.17 81.2966 148.171 80.5978Z" fill="#133D1C"/>
<path d="M167.453 101.061C165.893 101.24 164.334 101.331 162.774 101.391C161.215 101.456 159.656 101.468 158.097 101.47C156.538 101.456 154.979 101.43 153.421 101.351C151.862 101.279 150.304 101.174 148.745 100.98C150.305 100.799 151.864 100.708 153.424 100.648C154.983 100.584 156.542 100.571 158.101 100.57C159.66 100.586 161.219 100.612 162.777 100.69C164.336 100.763 165.895 100.868 167.453 101.061Z" fill="#133D1C"/>
<path d="M137.556 100.93C136.038 101.11 134.52 101.201 133.002 101.261C131.484 101.327 129.966 101.339 128.448 101.342C126.931 101.328 125.413 101.302 123.896 101.224C122.378 101.152 120.861 101.047 119.344 100.854C120.863 100.672 122.381 100.581 123.899 100.521C125.417 100.456 126.934 100.443 128.452 100.442C129.97 100.457 131.487 100.483 133.005 100.561C134.522 100.633 136.039 100.737 137.556 100.93Z" fill="#133D1C"/>
<path d="M156.333 169.538C156.909 166.951 157.606 164.399 158.351 161.861C159.092 159.322 159.907 156.806 160.762 154.302C161.637 151.806 162.544 149.318 163.58 146.877C164.093 145.655 164.638 144.444 165.233 143.256C165.542 142.667 165.848 142.076 166.2 141.509C166.519 140.92 166.943 140.395 167.452 139.961C167.226 140.199 167.035 140.468 166.886 140.761C166.727 141.048 166.583 141.341 166.45 141.642C166.178 142.239 165.929 142.848 165.691 143.461C165.209 144.685 164.768 145.926 164.323 147.165L163.018 150.897L161.726 154.636C160.855 157.125 160.001 159.622 159.106 162.107C158.219 164.594 157.313 167.076 156.333 169.538Z" fill="#133D1C"/>
<path d="M164.729 174.304C164.427 172.106 164.226 169.905 164.06 167.702C163.888 165.499 163.775 163.294 163.674 161.089C163.592 158.882 163.523 156.675 163.513 154.466C163.497 152.257 163.517 150.046 163.638 147.831C163.942 150.029 164.144 152.23 164.309 154.433C164.481 156.636 164.594 158.841 164.694 161.047C164.774 163.253 164.844 165.46 164.853 167.669C164.869 169.879 164.85 172.089 164.729 174.304Z" fill="#133D1C"/>
<path d="M207.7 54.41C207.898 54.4033 208.087 54.3196 208.225 54.1768C208.363 54.0339 208.44 53.843 208.44 53.6444C208.44 53.4457 208.363 53.2548 208.225 53.1119C208.087 52.9691 207.898 52.8854 207.7 52.8787C207.501 52.8854 207.313 52.9691 207.175 53.1119C207.037 53.2548 206.96 53.4457 206.96 53.6444C206.96 53.843 207.037 54.0339 207.175 54.1768C207.313 54.3196 207.501 54.4033 207.7 54.41Z" fill="#133D1C"/>
<path d="M212.248 54.41C212.447 54.4033 212.635 54.3196 212.773 54.1768C212.911 54.0339 212.988 53.843 212.988 53.6444C212.988 53.4457 212.911 53.2548 212.773 53.1119C212.635 52.9691 212.447 52.8854 212.248 52.8787C212.05 52.8854 211.862 52.9691 211.724 53.1119C211.585 53.2548 211.508 53.4457 211.508 53.6444C211.508 53.843 211.585 54.0339 211.724 54.1768C211.862 54.3196 212.05 54.4033 212.248 54.41Z" fill="#133D1C"/>
<path d="M213.58 51.8988C213.345 51.9366 213.107 51.9618 212.869 51.9744C212.654 51.9923 212.452 51.9926 212.25 51.9972C212.048 51.9999 211.847 51.9929 211.631 51.9815C211.391 51.9736 211.151 51.9459 210.916 51.8988C211.058 51.6771 211.263 51.5027 211.505 51.3975C211.738 51.2892 211.991 51.2327 212.248 51.2317C212.504 51.2307 212.758 51.2853 212.991 51.3918C213.237 51.4934 213.443 51.6711 213.58 51.8988Z" fill="#133D1C"/>
<path d="M208.297 51.8986C208.098 51.9581 207.894 51.9999 207.688 52.0236C207.516 52.0466 207.343 52.0581 207.17 52.0581C206.998 52.0579 206.826 52.0465 206.655 52.024C206.449 52.0019 206.244 51.9599 206.045 51.8986C206.156 51.6957 206.329 51.534 206.539 51.438C206.735 51.3387 206.952 51.2889 207.172 51.2927C207.391 51.2911 207.607 51.3414 207.802 51.4394C208.013 51.5339 208.187 51.6953 208.297 51.8986Z" fill="#133D1C"/>
<path d="M211.513 55.2982C211.513 55.4201 211.488 55.5407 211.439 55.6524C211.39 55.7642 211.319 55.8646 211.23 55.9475C211.052 56.1209 210.829 56.2409 210.586 56.2937C210.354 56.3429 210.113 56.3412 209.881 56.2885C209.654 56.2368 209.442 56.1338 209.262 55.9874C209.474 55.9413 209.69 55.9091 209.906 55.891C210.105 55.8552 210.298 55.8461 210.474 55.7959C210.857 55.721 211.215 55.5497 211.513 55.2982Z" fill="#133D1C"/>
<path d="M208.598 58.4005C208.645 58.2883 208.716 58.1872 208.804 58.1034C208.893 58.0197 208.998 57.9551 209.112 57.9138C209.344 57.8237 209.596 57.8004 209.84 57.8467C210.073 57.8924 210.294 57.9882 210.487 58.1274C210.675 58.2636 210.83 58.4413 210.939 58.6467C210.725 58.606 210.515 58.5514 210.308 58.4833C210.111 58.4384 209.931 58.3716 209.748 58.3486C209.366 58.2679 208.971 58.2857 208.598 58.4005Z" fill="#133D1C"/>
<path d="M209.768 51.5574C209.967 51.5506 210.155 51.4669 210.293 51.3241C210.431 51.1812 210.508 50.9903 210.508 50.7917C210.508 50.593 210.431 50.4022 210.293 50.2593C210.155 50.1165 209.967 50.0328 209.768 50.026C209.57 50.0328 209.382 50.1165 209.244 50.2593C209.105 50.4022 209.028 50.593 209.028 50.7917C209.028 50.9903 209.105 51.1812 209.244 51.3241C209.382 51.4669 209.57 51.5506 209.768 51.5574Z" fill="#133D1C"/>
<path d="M197.356 139.761V176.843C197.356 176.843 205.074 179.898 209.813 176.843V139.761" fill="#133D1C"/>
<path d="M221.224 177.031C221.206 177.221 221.149 177.405 221.057 177.572C220.965 177.739 220.84 177.885 220.69 178.003C220.398 178.248 220.078 178.457 219.735 178.624C219.051 178.959 218.338 179.231 217.605 179.436C216.14 179.855 214.649 180.175 213.142 180.394C210.127 180.849 207.084 181.101 204.035 181.147C200.978 181.216 197.919 181.072 194.882 180.715C193.352 180.53 191.837 180.236 190.349 179.835C189.588 179.629 188.848 179.353 188.138 179.01C187.761 178.829 187.408 178.602 187.087 178.333C186.874 178.189 186.7 177.995 186.579 177.768C186.459 177.541 186.396 177.288 186.396 177.031C186.395 176.773 186.458 176.52 186.579 176.293C186.699 176.066 186.874 175.872 187.087 175.728C187.408 175.459 187.761 175.232 188.138 175.05C188.848 174.708 189.588 174.432 190.349 174.225C191.837 173.823 193.351 173.529 194.882 173.344C197.919 172.987 200.977 172.842 204.035 172.912C207.084 172.959 210.127 173.211 213.142 173.667C214.65 173.886 216.14 174.206 217.605 174.625C218.338 174.83 219.051 175.102 219.735 175.437C220.078 175.604 220.399 175.813 220.69 176.059C220.84 176.176 220.965 176.323 221.057 176.49C221.149 176.657 221.206 176.841 221.224 177.031ZM221.224 177.031C221.205 176.842 221.147 176.658 221.054 176.492C220.961 176.326 220.835 176.181 220.684 176.065C220.392 175.822 220.071 175.617 219.728 175.452C219.043 175.123 218.329 174.857 217.595 174.658C216.127 174.263 214.634 173.974 213.125 173.792C210.108 173.438 207.071 173.295 204.035 173.365C201.007 173.412 197.985 173.662 194.991 174.114C193.505 174.331 192.035 174.646 190.591 175.058C189.884 175.255 189.197 175.517 188.538 175.839C188.23 175.989 187.941 176.176 187.678 176.397C187.563 176.457 187.466 176.549 187.399 176.66C187.331 176.772 187.296 176.9 187.296 177.031C187.295 177.161 187.331 177.29 187.398 177.401C187.466 177.513 187.562 177.605 187.678 177.665C187.941 177.886 188.23 178.073 188.538 178.223C189.197 178.545 189.884 178.807 190.591 179.004C192.034 179.418 193.504 179.734 194.99 179.95C197.985 180.402 201.007 180.653 204.035 180.698C207.071 180.768 210.108 180.625 213.125 180.27C214.634 180.088 216.128 179.799 217.595 179.403C218.329 179.204 219.043 178.938 219.728 178.609C220.071 178.445 220.392 178.239 220.684 177.996C220.835 177.881 220.961 177.735 221.054 177.569C221.147 177.403 221.205 177.22 221.224 177.031Z" fill="#133D1C"/>
<path d="M226.003 65.3758L219.818 64.092V66.9254C219.819 70.5822 219.209 74.2134 218.012 77.6687L216.581 81.7963L221.374 90.5545C221.374 90.5545 231.372 91.3219 232.278 91.2454C232.278 91.2454 234.093 66.511 226.003 65.3758ZM220.309 85.1282C220.246 84.4165 220.197 83.7048 220.192 82.9886C220.172 82.2722 220.222 81.5556 220.341 80.8489C220.386 81.5606 220.476 82.2633 220.543 82.9705L220.76 85.0832C220.886 86.4976 221.012 87.912 221.03 89.3445C220.678 87.9604 220.437 86.5506 220.309 85.1282ZM222.539 89.2769C222.364 89.2711 222.197 89.1974 222.075 89.0713C221.953 88.9452 221.885 88.7766 221.885 88.6012C221.885 88.4258 221.953 88.2572 222.075 88.1312C222.197 88.0051 222.364 87.9313 222.539 87.9255C222.714 87.9313 222.881 88.005 223.003 88.1311C223.125 88.2571 223.193 88.4257 223.193 88.6012C223.193 88.7767 223.125 88.9453 223.003 89.0714C222.881 89.1975 222.714 89.2712 222.539 89.2769V89.2769ZM225.345 89.6508C225.17 89.6446 225.004 89.5707 224.883 89.4446C224.761 89.3186 224.693 89.1503 224.693 88.9751C224.693 88.7999 224.761 88.6316 224.883 88.5056C225.004 88.3795 225.17 88.3056 225.345 88.2994C225.52 88.3056 225.686 88.3795 225.808 88.5056C225.929 88.6316 225.997 88.7999 225.997 88.9751C225.997 89.1503 225.929 89.3186 225.808 89.4446C225.686 89.5707 225.52 89.6446 225.345 89.6508V89.6508ZM227.976 89.7949C227.801 89.7891 227.634 89.7154 227.512 89.5893C227.39 89.4632 227.322 89.2947 227.322 89.1192C227.322 88.9438 227.39 88.7753 227.512 88.6492C227.634 88.5231 227.801 88.4494 227.976 88.4436C228.151 88.4494 228.317 88.5231 228.439 88.6492C228.561 88.7752 228.63 88.9438 228.63 89.1192C228.63 89.2947 228.561 89.4633 228.439 89.5893C228.317 89.7154 228.151 89.7891 227.976 89.7949V89.7949ZM230.616 90.0202C230.44 90.0144 230.274 89.9406 230.152 89.8145C230.03 89.6885 229.962 89.5199 229.962 89.3445C229.962 89.1691 230.03 89.0005 230.152 88.8744C230.274 88.7483 230.44 88.6746 230.616 88.6688C230.791 88.6746 230.957 88.7483 231.079 88.8744C231.201 89.0005 231.269 89.169 231.269 89.3445C231.269 89.5199 231.201 89.6885 231.079 89.8146C230.957 89.9407 230.791 90.0144 230.616 90.0202Z" fill="#133D1C"/>
<path d="M215.774 62.5356C216.478 62.7128 217.168 62.9421 217.837 63.2218C218.503 63.4932 219.153 63.7666 219.82 64.0941C219.08 64.0873 218.349 63.9328 217.67 63.6397C216.984 63.3737 216.344 63.0011 215.774 62.5356Z" fill="#133D1C"/>
<path d="M203.053 74.3562C203.569 73.4337 204.159 72.5541 204.817 71.7259C205.458 70.8853 206.167 70.0982 206.936 69.3723C206.42 70.2954 205.83 71.1751 205.172 72.0026C204.53 72.8426 203.821 73.6297 203.053 74.3562Z" fill="#133D1C"/>
<path d="M139.827 160.416C140.002 160.41 140.168 160.336 140.29 160.21C140.412 160.084 140.48 159.915 140.48 159.74C140.48 159.565 140.412 159.396 140.29 159.27C140.168 159.144 140.002 159.07 139.827 159.064C139.652 159.07 139.486 159.144 139.364 159.27C139.242 159.396 139.174 159.565 139.174 159.74C139.174 159.915 139.242 160.084 139.364 160.21C139.486 160.336 139.652 160.41 139.827 160.416Z" fill="#133D1C"/>
<path d="M142.016 162.767C142.191 162.761 142.357 162.687 142.479 162.561C142.601 162.435 142.669 162.266 142.669 162.091C142.669 161.916 142.601 161.748 142.479 161.621C142.357 161.495 142.191 161.422 142.016 161.416C141.841 161.422 141.675 161.495 141.553 161.621C141.431 161.748 141.363 161.916 141.363 162.091C141.363 162.266 141.431 162.435 141.553 162.561C141.675 162.687 141.841 162.761 142.016 162.767Z" fill="#133D1C"/>
<path d="M144.53 165.118C144.705 165.112 144.871 165.038 144.993 164.912C145.114 164.786 145.182 164.618 145.182 164.443C145.182 164.267 145.114 164.099 144.993 163.973C144.871 163.847 144.705 163.773 144.53 163.767C144.355 163.773 144.189 163.847 144.067 163.973C143.945 164.099 143.877 164.267 143.877 164.443C143.877 164.618 143.945 164.786 144.067 164.912C144.189 165.038 144.355 165.112 144.53 165.118Z" fill="#133D1C"/>
<path d="M147.286 167.388C147.462 167.382 147.628 167.309 147.749 167.183C147.871 167.056 147.939 166.888 147.939 166.713C147.939 166.538 147.871 166.369 147.749 166.243C147.628 166.117 147.462 166.043 147.286 166.037C147.111 166.043 146.945 166.117 146.824 166.243C146.702 166.369 146.634 166.538 146.634 166.713C146.634 166.888 146.702 167.056 146.824 167.183C146.945 167.309 147.111 167.382 147.286 167.388Z" fill="#133D1C"/>
<path d="M150.449 169.416C150.624 169.41 150.79 169.336 150.912 169.21C151.033 169.084 151.101 168.915 151.101 168.74C151.101 168.565 151.033 168.396 150.912 168.27C150.79 168.144 150.624 168.07 150.449 168.064C150.273 168.07 150.108 168.144 149.986 168.27C149.864 168.396 149.796 168.565 149.796 168.74C149.796 168.915 149.864 169.084 149.986 169.21C150.108 169.336 150.273 169.41 150.449 169.416Z" fill="#133D1C"/>
<path d="M153.935 169.983C154.11 169.977 154.276 169.903 154.398 169.777C154.52 169.651 154.588 169.483 154.588 169.308C154.588 169.132 154.52 168.964 154.398 168.838C154.276 168.712 154.11 168.638 153.935 168.632C153.76 168.638 153.594 168.712 153.472 168.838C153.351 168.964 153.282 169.132 153.282 169.308C153.282 169.483 153.351 169.651 153.472 169.777C153.594 169.903 153.76 169.977 153.935 169.983Z" fill="#133D1C"/>
<path d="M157.503 168.443C157.678 168.437 157.844 168.363 157.966 168.237C158.088 168.111 158.156 167.942 158.156 167.767C158.156 167.592 158.088 167.423 157.966 167.297C157.844 167.171 157.678 167.097 157.503 167.091C157.328 167.097 157.162 167.171 157.04 167.297C156.918 167.423 156.85 167.592 156.85 167.767C156.85 167.942 156.918 168.111 157.04 168.237C157.162 168.363 157.328 168.437 157.503 168.443Z" fill="#133D1C"/>
<path d="M160.584 169.172C160.759 169.166 160.925 169.092 161.047 168.966C161.169 168.84 161.237 168.672 161.237 168.497C161.237 168.321 161.169 168.153 161.047 168.027C160.925 167.901 160.759 167.827 160.584 167.821C160.409 167.827 160.243 167.901 160.121 168.027C159.999 168.153 159.931 168.321 159.931 168.497C159.931 168.672 159.999 168.84 160.121 168.966C160.243 169.092 160.409 169.166 160.584 169.172Z" fill="#133D1C"/>
<path d="M163.341 170.713C163.516 170.707 163.682 170.633 163.804 170.507C163.925 170.381 163.993 170.213 163.993 170.037C163.993 169.862 163.925 169.694 163.804 169.568C163.682 169.441 163.516 169.368 163.341 169.362C163.166 169.368 163 169.441 162.878 169.568C162.756 169.694 162.688 169.862 162.688 170.037C162.688 170.213 162.756 170.381 162.878 170.507C163 170.633 163.166 170.707 163.341 170.713Z" fill="#133D1C"/>
<path d="M165.935 173.551C166.111 173.545 166.277 173.471 166.398 173.345C166.52 173.219 166.588 173.05 166.588 172.875C166.588 172.7 166.52 172.531 166.398 172.405C166.277 172.279 166.111 172.205 165.935 172.199C165.76 172.205 165.594 172.279 165.473 172.405C165.351 172.531 165.283 172.7 165.283 172.875C165.283 173.05 165.351 173.219 165.473 173.345C165.594 173.471 165.76 173.545 165.935 173.551Z" fill="#133D1C"/>
<path d="M169.26 173.064C169.435 173.058 169.601 172.984 169.723 172.858C169.844 172.732 169.912 172.564 169.912 172.389C169.912 172.213 169.844 172.045 169.723 171.919C169.601 171.793 169.435 171.719 169.26 171.713C169.085 171.719 168.919 171.793 168.797 171.919C168.675 172.045 168.607 172.213 168.607 172.389C168.607 172.564 168.675 172.732 168.797 172.858C168.919 172.984 169.085 173.058 169.26 173.064Z" fill="#133D1C"/>
<path d="M172.584 172.172C172.759 172.166 172.925 172.093 173.047 171.966C173.169 171.84 173.237 171.672 173.237 171.497C173.237 171.321 173.169 171.153 173.047 171.027C172.925 170.901 172.759 170.827 172.584 170.821C172.409 170.827 172.243 170.901 172.121 171.027C171.999 171.153 171.931 171.321 171.931 171.497C171.931 171.672 171.999 171.84 172.121 171.966C172.243 172.093 172.409 172.166 172.584 172.172Z" fill="#133D1C"/>
<path d="M175.26 170.956C175.435 170.95 175.601 170.876 175.723 170.75C175.844 170.624 175.912 170.456 175.912 170.28C175.912 170.105 175.844 169.937 175.723 169.811C175.601 169.685 175.435 169.611 175.26 169.605C175.085 169.611 174.919 169.685 174.797 169.811C174.675 169.937 174.607 170.105 174.607 170.28C174.607 170.456 174.675 170.624 174.797 170.75C174.919 170.876 175.085 170.95 175.26 170.956Z" fill="#133D1C"/>
<path d="M178.179 168.929C178.354 168.923 178.52 168.849 178.642 168.723C178.764 168.597 178.832 168.429 178.832 168.253C178.832 168.078 178.764 167.91 178.642 167.784C178.52 167.658 178.354 167.584 178.179 167.578C178.004 167.584 177.838 167.658 177.716 167.784C177.594 167.91 177.526 168.078 177.526 168.253C177.526 168.429 177.594 168.597 177.716 168.723C177.838 168.849 178.004 168.923 178.179 168.929Z" fill="#133D1C"/>
<path d="M180.692 166.497C180.867 166.491 181.033 166.417 181.155 166.291C181.277 166.165 181.345 165.996 181.345 165.821C181.345 165.646 181.277 165.477 181.155 165.351C181.033 165.225 180.867 165.151 180.692 165.145C180.517 165.151 180.351 165.225 180.229 165.351C180.108 165.477 180.04 165.646 180.04 165.821C180.04 165.996 180.108 166.165 180.229 166.291C180.351 166.417 180.517 166.491 180.692 166.497Z" fill="#133D1C"/>
<path d="M182.719 164.064C182.894 164.058 183.06 163.984 183.182 163.858C183.304 163.732 183.372 163.564 183.372 163.388C183.372 163.213 183.304 163.045 183.182 162.919C183.06 162.793 182.894 162.719 182.719 162.713C182.544 162.719 182.378 162.793 182.256 162.919C182.134 163.045 182.066 163.213 182.066 163.388C182.066 163.564 182.134 163.732 182.256 163.858C182.378 163.984 182.544 164.058 182.719 164.064Z" fill="#133D1C"/>
<path d="M230.818 91.1633C230.557 92.4111 230.233 93.645 229.848 94.8604C229.471 96.086 228.998 97.2801 228.435 98.4318C227.874 99.6022 227.171 100.699 226.343 101.699C225.5 102.733 224.426 103.555 223.209 104.101C221.952 104.648 220.554 104.778 219.218 104.471C217.889 104.155 216.684 103.451 215.754 102.45L215.406 102.08L215.107 101.696C214.91 101.439 214.703 101.189 214.523 100.921L213.967 100.128L213.448 99.3126C212.774 98.2186 212.163 97.0875 211.616 95.9249C210.521 93.6125 209.61 91.2175 208.89 88.7622C208.164 86.3171 207.595 83.8282 207.185 81.3107C206.783 78.7924 206.548 76.2501 206.483 73.7007C206.443 72.4206 206.481 71.1392 206.598 69.8637C206.671 69.2249 206.746 68.5846 206.881 67.9491C207 67.2901 207.198 66.648 207.472 66.0368L207.444 66.0976C207.6 65.6607 207.792 65.2377 208.019 64.8332C208.243 64.4289 208.502 64.0449 208.793 63.6857C209.088 63.3203 209.422 62.9879 209.788 62.6944C210.164 62.3972 210.576 62.1494 211.014 61.9571L210.906 62.0219C211.274 61.6967 211.614 61.3418 211.924 60.9608C212.229 60.5929 212.485 60.1873 212.686 59.7541C212.776 59.5547 212.841 59.3442 212.877 59.1281C212.897 58.8559 212.931 58.5849 212.98 58.3162L213.061 58.0671C213.101 57.9747 213.149 57.8861 213.205 57.8022C213.279 57.6951 213.373 57.6042 213.483 57.5352C213.593 57.4662 213.716 57.4206 213.844 57.4011C214.087 57.3721 214.331 57.4297 214.535 57.5639C214.632 57.6247 214.718 57.6999 214.792 57.7869C214.911 57.9197 214.98 58.0896 214.986 58.2676L214.02 58.2406C214.034 58.0481 214.071 57.8581 214.133 57.6751C214.199 57.465 214.31 57.2718 214.458 57.1091C214.647 56.9115 214.904 56.7931 215.177 56.7777C215.402 56.769 215.627 56.8114 215.834 56.9019L215.15 57.2671C215.178 57.1255 215.217 56.9866 215.269 56.8519C215.328 56.6887 215.415 56.5374 215.527 56.405C215.616 56.3019 215.728 56.222 215.854 56.1722C216.008 56.1121 216.177 56.1045 216.335 56.1507C216.535 56.2148 216.714 56.334 216.85 56.4947L216.189 56.4107C216.357 56.2996 216.542 56.2193 216.738 56.1737C216.867 56.1447 217.002 56.1409 217.133 56.1624C217.302 56.1902 217.458 56.2692 217.581 56.3886C217.756 56.5747 217.862 56.8155 217.88 57.0702C217.888 57.1616 217.892 57.2534 217.891 57.3453L217.883 57.5589C217.854 58.1193 217.796 58.6778 217.708 59.232C217.573 60.4006 217.163 61.5207 216.512 62.5005C216.305 62.7739 216.142 62.9343 215.958 63.149L215.421 63.757L214.345 64.9731L212.181 67.3936L212.306 66.9495C213.03 71.2944 214.26 75.5395 215.972 79.5981C216.831 81.6243 217.818 83.6088 218.838 85.575L220.381 88.5209L221.969 91.4752C221.974 91.4848 221.975 91.496 221.972 91.5066C221.969 91.5171 221.963 91.5261 221.953 91.5318C221.944 91.5374 221.933 91.5393 221.922 91.5369C221.911 91.5346 221.902 91.5282 221.896 91.5191L221.867 91.4752C221.278 90.5949 220.682 89.6137 220.108 88.6763C219.533 87.7265 218.955 86.7769 218.405 85.8116C217.301 83.8828 216.223 81.9357 215.269 79.9112C214.334 77.8781 213.531 75.7868 212.866 73.6504C212.532 72.5824 212.23 71.5052 211.958 70.419C211.696 69.3307 211.464 68.2363 211.259 67.1358C211.244 67.0585 211.248 66.979 211.268 66.9031C211.289 66.8272 211.326 66.757 211.378 66.6977L211.383 66.6915L213.529 64.2465L214.609 63.0298L215.149 62.4215C215.318 62.2256 215.535 61.9985 215.652 61.8364C216.189 60.9953 216.534 60.0464 216.663 59.0569C216.753 58.5423 216.815 58.0232 216.849 57.5019L216.86 57.3097C216.864 57.2569 216.855 57.2234 216.856 57.179C216.852 57.1077 216.818 57.059 216.865 57.1195C216.89 57.1434 216.922 57.1601 216.956 57.1678C216.981 57.1678 216.967 57.1679 216.949 57.1695C216.88 57.1872 216.814 57.2146 216.754 57.2509L216.738 57.2608C216.637 57.3246 216.516 57.3502 216.398 57.3329C216.28 57.3157 216.172 57.2568 216.093 57.1668C216.057 57.1256 215.996 57.0882 216.065 57.1209C216.115 57.1304 216.167 57.1266 216.215 57.1098C216.236 57.1017 216.256 57.0898 216.273 57.0747C216.241 57.1172 216.216 57.164 216.198 57.2137C216.168 57.29 216.144 57.3685 216.126 57.4485C216.111 57.5191 216.08 57.5856 216.037 57.6435C215.994 57.7014 215.939 57.7495 215.875 57.7846C215.812 57.8196 215.742 57.8409 215.67 57.8468C215.598 57.8528 215.526 57.8434 215.457 57.8193L215.442 57.8137C215.377 57.7835 215.307 57.766 215.236 57.762C215.197 57.7655 215.199 57.76 215.164 57.7886C215.114 57.8476 215.076 57.9164 215.053 57.9906C215.019 58.0891 214.997 58.1912 214.986 58.2948L214.02 58.2678C214.024 58.4093 214.064 58.4059 214.051 58.4033C214.041 58.3913 214.029 58.381 214.016 58.3726C213.981 58.3482 213.952 58.349 213.971 58.3483C213.991 58.3493 214.006 58.3203 213.978 58.3553C213.966 58.3713 213.952 58.4038 213.936 58.4301L213.895 58.5501C213.845 58.7462 213.849 58.9308 213.798 59.2783C213.745 59.5731 213.654 59.8598 213.527 60.1311C213.284 60.6353 212.973 61.1046 212.605 61.5267C212.251 61.9416 211.862 62.326 211.443 62.6758C211.414 62.6995 211.383 62.7192 211.349 62.7342L211.334 62.7406C210.961 62.8943 210.609 63.0946 210.287 63.3367C209.959 63.5864 209.659 63.8709 209.392 64.1852C209.122 64.5055 208.876 64.846 208.657 65.2036C208.439 65.5599 208.251 65.9336 208.094 66.3208C208.086 66.3411 208.076 66.3628 208.066 66.3817C207.807 66.9251 207.611 67.4961 207.481 68.0838C207.335 68.6917 207.221 69.3067 207.139 69.9264C206.982 71.1773 206.902 72.4367 206.901 73.6973C206.906 76.2301 207.104 78.7588 207.491 81.2618C207.902 83.7609 208.524 86.2209 209.349 88.6154C210.16 91.0076 211.154 93.3333 212.324 95.5717C212.904 96.689 213.532 97.7768 214.206 98.8351L214.72 99.6214L215.26 100.386C215.436 100.645 215.636 100.883 215.826 101.129L216.114 101.497L216.419 101.819C217.219 102.702 218.264 103.328 219.421 103.617C220.579 103.894 221.796 103.802 222.899 103.353C224.017 102.87 225.014 102.148 225.82 101.236C226.651 100.307 227.364 99.2802 227.945 98.1779C228.536 97.0654 229.058 95.9177 229.509 94.7412C229.963 93.561 230.351 92.3539 230.719 91.1384C230.721 91.1319 230.725 91.1259 230.729 91.1207C230.733 91.1155 230.738 91.1112 230.744 91.108C230.75 91.1047 230.756 91.1027 230.763 91.102C230.77 91.1013 230.776 91.1019 230.783 91.1038C230.795 91.1076 230.806 91.1158 230.812 91.1268C230.819 91.1378 230.821 91.1508 230.818 91.1633Z" fill="#133D1C"/>
<path d="M141.646 164.179C141.067 166.523 139.99 168.714 138.488 170.605C137.715 171.564 136.775 172.376 135.714 173.001C135.176 173.327 134.672 173.558 134.157 173.865L132.626 174.753C130.595 175.96 128.549 177.161 126.524 178.399C124.491 179.623 122.504 180.926 120.562 182.288L120.621 182.198C120.523 182.863 120.616 183.543 120.89 184.158C121.173 184.755 121.656 185.234 122.255 185.511C122.401 185.587 122.554 185.65 122.711 185.7L123.192 185.829C123.522 185.888 123.856 185.928 124.19 185.95C124.53 185.941 124.867 185.958 125.207 185.931L126.224 185.822L126.113 185.856C128.133 184.791 130.171 183.762 132.226 182.769C134.281 181.771 136.341 180.786 138.48 179.937C139.013 179.722 139.559 179.526 140.114 179.339L140.547 179.215C140.699 179.165 140.855 179.13 141.014 179.109L141.275 179.074L141.404 179.059L141.497 179.055C141.623 179.056 141.75 179.048 141.875 179.032C142.949 178.876 143.979 178.502 144.901 177.932C145.847 177.367 146.69 176.644 147.392 175.795C148.089 174.925 148.624 173.938 148.974 172.88L148.98 172.864L148.984 172.854C149.19 172.459 149.389 172.056 149.575 171.65C149.771 171.25 149.93 170.834 150.05 170.406L150.051 170.402C150.054 170.391 150.061 170.381 150.07 170.375C150.08 170.369 150.092 170.366 150.103 170.368C150.114 170.37 150.124 170.377 150.131 170.386C150.138 170.395 150.141 170.407 150.14 170.418C150.068 170.868 149.949 171.309 149.784 171.734C149.632 172.161 149.469 172.581 149.295 173L149.305 172.974C148.739 175.285 147.304 177.289 145.298 178.569C144.802 178.895 144.276 179.174 143.727 179.402C143.171 179.642 142.587 179.812 141.989 179.908C141.833 179.934 141.675 179.95 141.516 179.956L141.396 179.962L141.314 179.978L141.152 180.007C141.028 180.025 140.907 180.056 140.789 180.099L140.402 180.217C139.88 180.404 139.357 180.601 138.836 180.822C137.794 181.253 136.75 181.702 135.715 182.17C134.678 182.632 133.638 183.094 132.606 183.572L126.42 186.469L126.393 186.481C126.367 186.494 126.338 186.501 126.309 186.503L125.232 186.561C124.872 186.569 124.508 186.531 124.148 186.518C123.786 186.474 123.427 186.409 123.072 186.324L122.547 186.151C122.373 186.086 122.206 186.006 122.045 185.913C121.381 185.563 120.859 184.991 120.571 184.297C120.295 183.614 120.216 182.868 120.34 182.142C120.343 182.124 120.349 182.107 120.359 182.092C120.368 182.077 120.381 182.064 120.396 182.054L120.399 182.052C122.371 180.726 124.326 179.376 126.265 178.003C128.217 176.647 130.164 175.278 132.215 174.06C133.22 173.436 134.32 172.885 135.339 172.33C136.341 171.77 137.24 171.044 137.997 170.182C138.773 169.309 139.455 168.357 140.032 167.342C140.628 166.323 141.139 165.257 141.56 164.154L141.561 164.151C141.565 164.141 141.573 164.132 141.583 164.127C141.594 164.122 141.606 164.121 141.617 164.125C141.627 164.128 141.637 164.136 141.642 164.146C141.648 164.156 141.649 164.168 141.646 164.179L141.646 164.179Z" fill="#133D1C"/>
<path d="M120.481 182.17C120.481 182.17 117.037 187.546 124.305 189.826C124.305 189.826 128.583 190.96 135.468 184.06C135.468 184.06 138.612 181.058 139.457 181.168L138.43 183.955L142.125 185.228L146.609 183.159L148.845 173.798C148.172 175.291 147.139 176.594 145.84 177.591C144.54 178.588 143.014 179.248 141.397 179.511C135.696 180.555 131.248 184.027 126.266 186.163C126.266 186.163 119.834 187.292 120.481 182.17Z" fill="#133D1C"/>
<path d="M125.058 179.081C125.058 179.081 129.395 179.397 130.122 184.267L134.259 182.307C134.259 182.307 133.496 176.337 128.209 177.023C128.209 177.023 126.444 176.72 125.058 179.081Z" fill="#133D1C"/>
<path d="M169.905 169.809C170.55 172.135 170.69 174.573 170.315 176.958C170.112 178.172 169.692 179.34 169.075 180.406C168.752 180.946 168.441 181.404 168.141 181.923L167.248 183.451C166.072 185.5 164.88 187.553 163.726 189.626C162.56 191.693 161.461 193.799 160.453 195.947L160.461 195.834C160.701 196.462 161.112 197.01 161.648 197.416C162.186 197.802 162.844 197.983 163.505 197.928C164.171 197.866 164.818 197.67 165.406 197.351C166.007 197.031 166.579 196.659 167.114 196.238L167.033 196.322C168.684 193.754 170.4 191.233 172.159 188.735C173.045 187.49 173.948 186.257 174.914 185.059C175.399 184.445 175.919 183.859 176.473 183.306C176.637 183.146 176.818 183.005 177.013 182.884C177.16 182.804 177.3 182.713 177.434 182.613C177.716 182.397 177.977 182.156 178.216 181.893C179.192 180.793 179.901 179.482 180.287 178.063C180.692 176.624 180.778 175.114 180.539 173.639C180.068 170.619 179.696 167.598 179.325 164.571C179.324 164.56 179.327 164.548 179.334 164.538C179.342 164.529 179.352 164.523 179.364 164.521C179.376 164.52 179.388 164.523 179.397 164.53C179.407 164.537 179.413 164.547 179.415 164.559C179.887 167.568 180.327 170.589 180.874 173.578C181.233 175.103 181.245 176.689 180.912 178.22C180.567 179.773 179.858 181.221 178.842 182.445C178.58 182.757 178.29 183.045 177.977 183.306C177.811 183.441 177.635 183.563 177.451 183.673C177.326 183.759 177.21 183.858 177.103 183.966C176.589 184.5 176.107 185.064 175.658 185.654C174.725 186.84 173.824 188.064 172.921 189.286C171.115 191.73 169.363 194.223 167.603 196.705L167.594 196.719C167.574 196.746 167.55 196.77 167.523 196.79C166.935 197.21 166.308 197.571 165.65 197.868C164.981 198.179 164.258 198.354 163.521 198.383C162.767 198.407 162.029 198.163 161.437 197.695C160.862 197.233 160.425 196.622 160.173 195.928C160.167 195.91 160.164 195.89 160.166 195.871C160.167 195.851 160.172 195.832 160.181 195.815C161.26 193.697 162.293 191.56 163.307 189.409C164.339 187.268 165.362 185.119 166.55 183.05C167.119 182.013 167.803 180.99 168.437 180.018C169.028 179.034 169.449 177.956 169.682 176.832C169.936 175.691 170.061 174.526 170.057 173.357C170.074 172.177 169.994 170.997 169.817 169.83L169.817 169.828C169.815 169.816 169.818 169.805 169.824 169.795C169.831 169.786 169.841 169.779 169.852 169.777C169.863 169.774 169.875 169.777 169.885 169.783C169.895 169.789 169.902 169.798 169.905 169.809L169.905 169.809Z" fill="#133D1C"/>
<path d="M160.317 195.881C160.317 195.881 159.961 202.256 167.411 200.668C167.411 200.668 171.694 199.552 174.297 190.159C174.297 190.159 175.559 185.999 176.35 185.68L176.826 188.612L180.669 187.904L183.557 183.898L180.902 174.647C181.05 176.278 180.791 177.921 180.15 179.428C179.508 180.935 178.503 182.259 177.224 183.283C172.773 186.995 170.607 192.205 167.318 196.514C167.318 196.514 162.271 200.66 160.317 195.881Z" fill="#133D1C"/>
<path d="M162.785 190.94C162.785 190.94 166.716 189.084 169.744 192.967L172.383 189.227C172.383 189.227 168.784 184.403 164.517 187.6C164.517 187.6 162.831 188.204 162.785 190.94Z" fill="#133D1C"/>
<path d="M150.396 113.551C150.408 113.564 150.42 113.578 150.429 113.593L150.432 113.597L150.436 113.601L150.972 114.209C150.985 114.225 150.994 114.244 150.998 114.265C151.001 114.285 150.999 114.306 150.991 114.326C150.983 114.345 150.969 114.361 150.952 114.374C150.935 114.386 150.915 114.393 150.895 114.394L150.885 114.394C148.345 114.545 145.804 114.636 143.264 114.685L141.358 114.718C141.015 114.733 140.671 114.715 140.331 114.665C139.795 114.574 139.286 114.366 138.839 114.057C138.392 113.747 138.02 113.343 137.747 112.872C137.39 112.251 137.218 111.54 137.253 110.824C137.29 108.283 137.385 105.741 137.409 103.2C137.42 100.66 137.367 98.1198 137.247 95.5806C137.221 95.2485 137.227 94.9147 137.265 94.5837C137.309 94.2408 137.403 93.9062 137.544 93.5907C137.827 92.9461 138.289 92.3968 138.876 92.0088C139.472 91.6152 140.167 91.4004 140.881 91.3899L142.786 91.3542L144.692 91.3298C145.788 91.3169 146.846 91.7301 147.644 92.4823C148.442 93.2344 148.916 94.2668 148.968 95.362C149.266 100.434 149.45 105.513 149.523 110.598L149.523 110.615L149.522 110.626C149.508 110.872 149.521 111.12 149.563 111.363C149.604 111.617 149.664 111.868 149.742 112.114C149.907 112.611 150.125 113.09 150.391 113.541C150.395 113.547 150.397 113.553 150.398 113.56C150.399 113.567 150.399 113.573 150.397 113.58C150.396 113.586 150.393 113.593 150.389 113.598C150.385 113.603 150.38 113.608 150.374 113.612C150.363 113.618 150.351 113.62 150.338 113.618C150.326 113.615 150.315 113.609 150.307 113.599C150.143 113.386 149.99 113.164 149.849 112.936C149.709 112.703 149.585 112.462 149.476 112.214C149.367 111.962 149.276 111.703 149.205 111.438C149.128 111.163 149.085 110.88 149.077 110.595L149.076 110.623C148.563 105.564 148.165 100.497 147.882 95.4243C147.857 94.8762 147.699 94.3424 147.422 93.8687C147.141 93.3964 146.744 93.0043 146.268 92.73C145.788 92.4535 145.245 92.3043 144.692 92.2964L142.786 92.2719L140.881 92.2362C140.311 92.2162 139.747 92.3574 139.255 92.6437C138.762 92.9299 138.36 93.3496 138.095 93.8543C137.957 94.1104 137.86 94.386 137.805 94.6715C137.754 94.9697 137.731 95.2722 137.739 95.5747C137.679 98.116 137.687 100.656 137.762 103.196C137.849 105.736 138.007 108.274 138.107 110.814C138.1 111.375 138.247 111.928 138.531 112.412C138.814 112.884 139.224 113.269 139.713 113.522C139.956 113.649 140.217 113.739 140.487 113.79C140.775 113.837 141.067 113.855 141.358 113.846L143.264 113.879C145.804 113.927 148.345 114.019 150.885 114.169L150.799 114.354L150.343 113.665L150.35 113.673C150.332 113.645 150.316 113.617 150.302 113.589C150.296 113.578 150.295 113.566 150.298 113.555C150.301 113.543 150.308 113.533 150.317 113.527C150.327 113.52 150.339 113.517 150.351 113.518C150.362 113.52 150.373 113.525 150.381 113.534L150.396 113.551Z" fill="#133D1C"/>
<path d="M162.767 125.816C162.973 126.143 163.13 126.498 163.235 126.871C163.337 127.224 163.409 127.586 163.448 127.952C163.488 128.318 163.495 128.687 163.468 129.055C163.445 129.441 163.365 129.821 163.232 130.184C163.026 129.857 162.868 129.502 162.764 129.13C162.661 128.776 162.59 128.414 162.552 128.048C162.513 127.682 162.506 127.313 162.533 126.945C162.556 126.559 162.635 126.179 162.767 125.816Z" fill="white"/>
<path d="M322.5 228.512C322.5 228.512 290.29 217.731 269 218.012C249.05 218.276 238.904 229.898 219 228.512C204.016 227.469 197.014 217.604 182 218.012C168.295 218.386 162.177 227.561 148.5 228.512C130.877 229.739 122.164 218.227 104.5 218.012C85.8848 217.786 76.5811 229.66 58 228.512C43.3832 227.609 22 218.012 22 218.012" stroke="#133D1C"/>
</svg>
