<svg width="1079" height="162" viewBox="0 0 1079 162" fill="none" xmlns="http://www.w3.org/2000/svg">
<rect x="14.0151" y="14" width="1050.97" height="133.014" rx="40.9477" fill="#133D1C"/>
<path d="M136.562 65.2833V60.5897H139.894C140.862 60.5897 141.566 60.7927 142.008 61.1987C142.462 61.5929 142.689 62.1721 142.689 62.9365C142.689 63.7008 142.462 64.286 142.008 64.6921C141.566 65.0982 140.862 65.2952 139.894 65.2833H136.562ZM134.86 59.1565V71.9475H136.562V66.7164H140.467C141.757 66.7284 142.731 66.4 143.388 65.7311C144.056 65.0623 144.391 64.1308 144.391 62.9365C144.391 61.7422 144.056 60.8166 143.388 60.1597C142.731 59.4909 141.757 59.1565 140.467 59.1565H134.86ZM146.172 62.6857V71.9475H147.695V67.8272C147.695 67.23 147.755 66.7045 147.874 66.2507C147.993 65.7849 148.185 65.3908 148.447 65.0683C148.71 64.7458 149.056 64.501 149.486 64.3338C149.916 64.1666 150.436 64.083 151.045 64.083V62.4707C150.221 62.4468 149.54 62.614 149.003 62.9723C148.465 63.3306 148.011 63.8859 147.641 64.6384H147.605V62.6857H146.172ZM152.987 67.3255C152.987 66.7642 153.059 66.2686 153.202 65.8386C153.358 65.3967 153.567 65.0265 153.829 64.7279C154.092 64.4293 154.397 64.2024 154.743 64.0472C155.101 63.8919 155.478 63.8143 155.872 63.8143C156.266 63.8143 156.636 63.8919 156.982 64.0472C157.341 64.2024 157.651 64.4293 157.914 64.7279C158.177 65.0265 158.38 65.3967 158.523 65.8386C158.678 66.2686 158.756 66.7642 158.756 67.3255C158.756 67.8869 158.678 68.3885 158.523 68.8304C158.38 69.2603 158.177 69.6246 157.914 69.9232C157.651 70.2098 157.341 70.4307 156.982 70.586C156.636 70.7413 156.266 70.8189 155.872 70.8189C155.478 70.8189 155.101 70.7413 154.743 70.586C154.397 70.4307 154.092 70.2098 153.829 69.9232C153.567 69.6246 153.358 69.2603 153.202 68.8304C153.059 68.3885 152.987 67.8869 152.987 67.3255ZM151.375 67.3255C151.375 68.0063 151.471 68.6393 151.662 69.2245C151.853 69.8097 152.139 70.3233 152.522 70.7651C152.904 71.1951 153.376 71.5355 153.937 71.7863C154.498 72.0251 155.143 72.1446 155.872 72.1446C156.612 72.1446 157.257 72.0251 157.806 71.7863C158.368 71.5355 158.84 71.1951 159.222 70.7651C159.604 70.3233 159.891 69.8097 160.082 69.2245C160.273 68.6393 160.368 68.0063 160.368 67.3255C160.368 66.6448 160.273 66.0118 160.082 65.4266C159.891 64.8294 159.604 64.3159 159.222 63.8859C158.84 63.444 158.368 63.0977 157.806 62.8469C157.257 62.5961 156.612 62.4707 155.872 62.4707C155.143 62.4707 154.498 62.5961 153.937 62.8469C153.376 63.0977 152.904 63.444 152.522 63.8859C152.139 64.3159 151.853 64.8294 151.662 65.4266C151.471 66.0118 151.375 66.6448 151.375 67.3255ZM163.274 67.3972C163.274 66.9434 163.322 66.5015 163.418 66.0715C163.513 65.6416 163.668 65.2594 163.883 64.925C164.098 64.5906 164.385 64.3219 164.743 64.1188C165.102 63.9158 165.538 63.8143 166.051 63.8143C166.577 63.8143 167.024 63.9158 167.395 64.1188C167.765 64.3099 168.063 64.5667 168.29 64.8892C168.529 65.2116 168.702 65.5878 168.81 66.0178C168.917 66.4358 168.971 66.8717 168.971 67.3255C168.971 67.7555 168.917 68.1795 168.81 68.5975C168.714 69.0155 168.553 69.3917 168.326 69.7261C168.099 70.0486 167.807 70.3113 167.448 70.5143C167.09 70.7174 166.654 70.8189 166.141 70.8189C165.651 70.8189 165.221 70.7233 164.851 70.5323C164.493 70.3412 164.194 70.0844 163.955 69.7619C163.728 69.4395 163.555 69.0752 163.436 68.6691C163.328 68.2511 163.274 67.8272 163.274 67.3972ZM170.44 71.9475V59.1565H168.917V63.9218H168.882C168.714 63.6471 168.505 63.4202 168.255 63.241C168.016 63.0499 167.759 62.9006 167.484 62.7931C167.21 62.6737 166.935 62.5901 166.66 62.5423C166.385 62.4946 166.129 62.4707 165.89 62.4707C165.185 62.4707 164.564 62.6021 164.027 62.8648C163.501 63.1156 163.059 63.462 162.701 63.9039C162.355 64.3338 162.092 64.8414 161.913 65.4266C161.746 66.0118 161.662 66.6328 161.662 67.2897C161.662 67.9466 161.752 68.5676 161.931 69.1528C162.11 69.738 162.373 70.2516 162.719 70.6935C163.077 71.1354 163.519 71.4877 164.045 71.7504C164.582 72.0132 165.209 72.1446 165.926 72.1446C166.571 72.1446 167.162 72.0311 167.699 71.8042C168.237 71.5773 168.631 71.207 168.882 70.6935H168.917V71.9475H170.44ZM180.45 71.9475V62.6857H178.928V67.9167C178.928 68.3347 178.868 68.7229 178.748 69.0812C178.641 69.4275 178.474 69.7321 178.247 69.9948C178.02 70.2576 177.733 70.4606 177.387 70.6039C177.053 70.7472 176.652 70.8189 176.187 70.8189C175.601 70.8189 175.142 70.6517 174.807 70.3173C174.473 69.9829 174.306 69.529 174.306 68.9558V62.6857H172.783V68.7766C172.783 69.2782 172.831 69.738 172.926 70.156C173.034 70.5621 173.213 70.9144 173.464 71.213C173.714 71.5116 174.043 71.7445 174.449 71.9117C174.855 72.0669 175.363 72.1446 175.972 72.1446C176.652 72.1446 177.244 72.0132 177.745 71.7504C178.247 71.4758 178.659 71.0518 178.981 70.4785H179.017V71.9475H180.45ZM189.025 65.6595H190.602C190.542 65.1101 190.399 64.6384 190.172 64.2442C189.945 63.8382 189.652 63.5038 189.294 63.241C188.948 62.9783 188.542 62.7872 188.076 62.6677C187.622 62.5364 187.132 62.4707 186.607 62.4707C185.878 62.4707 185.239 62.6021 184.69 62.8648C184.141 63.1156 183.681 63.4679 183.311 63.9218C182.952 64.3637 182.684 64.8892 182.505 65.4983C182.325 66.0954 182.236 66.7403 182.236 67.433C182.236 68.1257 182.325 68.7647 182.505 69.3499C182.696 69.9232 182.97 70.4188 183.329 70.8368C183.699 71.2548 184.153 71.5773 184.69 71.8042C185.239 72.0311 185.867 72.1446 186.571 72.1446C187.754 72.1446 188.685 71.8341 189.366 71.213C190.059 70.592 190.488 69.7082 190.656 68.5617H189.097C189.002 69.2782 188.739 69.8336 188.309 70.2277C187.891 70.6218 187.306 70.8189 186.553 70.8189C186.076 70.8189 185.663 70.7233 185.317 70.5323C184.971 70.3412 184.69 70.0904 184.475 69.7798C184.26 69.4574 184.099 69.0931 183.991 68.6871C183.896 68.281 183.848 67.863 183.848 67.433C183.848 66.9673 183.896 66.5194 183.991 66.0894C184.087 65.6475 184.242 65.2594 184.457 64.925C184.684 64.5906 184.983 64.3219 185.353 64.1188C185.723 63.9158 186.183 63.8143 186.732 63.8143C187.377 63.8143 187.891 63.9755 188.273 64.298C188.655 64.6204 188.906 65.0743 189.025 65.6595ZM194.473 62.6857V59.9089H192.951V62.6857H191.374V64.0293H192.951V69.9232C192.951 70.3531 192.992 70.6995 193.076 70.9622C193.16 71.225 193.285 71.428 193.452 71.5713C193.631 71.7146 193.858 71.8161 194.133 71.8759C194.42 71.9236 194.76 71.9475 195.154 71.9475H196.319V70.6039H195.62C195.381 70.6039 195.184 70.5979 195.029 70.586C194.885 70.5621 194.772 70.5203 194.688 70.4606C194.605 70.4009 194.545 70.3173 194.509 70.2098C194.485 70.1023 194.473 69.959 194.473 69.7798V64.0293H196.319V62.6857H194.473Z" fill="#E1F8E6"/>
<path d="M62.7429 88.1879C61.9649 88.1879 61.2893 88.3448 60.716 88.6588C60.1564 88.9727 59.6992 89.3958 59.3443 89.9282C58.9894 90.4468 58.7233 91.0406 58.5458 91.7094C58.382 92.3782 58.3001 93.0607 58.3001 93.7568C58.3001 94.4529 58.382 95.1353 58.5458 95.8041C58.7233 96.473 58.9894 97.0735 59.3443 97.6058C59.6992 98.1245 60.1564 98.5408 60.716 98.8547C61.2893 99.1687 61.9649 99.3256 62.7429 99.3256C63.521 99.3256 64.1898 99.1687 64.7494 98.8547C65.3226 98.5408 65.7867 98.1245 66.1416 97.6058C66.4965 97.0735 66.7558 96.473 66.9196 95.8041C67.097 95.1353 67.1858 94.4529 67.1858 93.7568C67.1858 93.0607 67.097 92.3782 66.9196 91.7094C66.7558 91.0406 66.4965 90.4468 66.1416 89.9282C65.7867 89.3958 65.3226 88.9727 64.7494 88.6588C64.1898 88.3448 63.521 88.1879 62.7429 88.1879ZM62.7429 86.0995C63.8349 86.0995 64.8108 86.3043 65.6707 86.7138C66.5443 87.1232 67.2813 87.676 67.8819 88.3721C68.4824 89.0683 68.9397 89.8804 69.2536 90.8085C69.5812 91.7367 69.745 92.7194 69.745 93.7568C69.745 94.8078 69.5812 95.7973 69.2536 96.7255C68.9397 97.6536 68.4824 98.4657 67.8819 99.1619C67.2813 99.858 66.5443 100.411 65.6707 100.82C64.8108 101.216 63.8349 101.414 62.7429 101.414C61.651 101.414 60.6683 101.216 59.7947 100.82C58.9348 100.411 58.2046 99.858 57.604 99.1619C57.0034 98.4657 56.5394 97.6536 56.2118 96.7255C55.8979 95.7973 55.7409 94.8078 55.7409 93.7568C55.7409 92.7194 55.8979 91.7367 56.2118 90.8085C56.5394 89.8804 57.0034 89.0683 57.604 88.3721C58.2046 87.676 58.9348 87.1232 59.7947 86.7138C60.6683 86.3043 61.651 86.0995 62.7429 86.0995ZM81.0418 101.066H78.7487V99.5918H78.7077C78.4211 100.124 77.9912 100.554 77.4179 100.882C76.8583 101.196 76.285 101.353 75.6981 101.353C74.3059 101.353 73.2958 101.011 72.668 100.329C72.0537 99.6327 71.7466 98.5886 71.7466 97.1964V90.4809H74.0806V96.9712C74.0806 97.8993 74.2581 98.5545 74.613 98.9366C74.9678 99.3188 75.466 99.5099 76.1076 99.5099C76.5989 99.5099 77.0084 99.4348 77.336 99.2847C77.6636 99.1346 77.9297 98.9366 78.1345 98.691C78.3392 98.4316 78.4825 98.1245 78.5644 97.7696C78.66 97.4148 78.7077 97.0326 78.7077 96.6231V90.4809H81.0418V101.066ZM83.5031 90.4809H85.6938V92.5283H85.7347C85.803 92.2417 85.9326 91.9619 86.1237 91.6889C86.3285 91.4159 86.5673 91.1702 86.8403 90.9518C87.127 90.7198 87.4409 90.5355 87.7821 90.3991C88.1233 90.2626 88.4714 90.1943 88.8263 90.1943C89.0993 90.1943 89.2835 90.2011 89.3791 90.2148C89.4883 90.2284 89.5975 90.2421 89.7067 90.2557V92.5079C89.5429 92.4806 89.3723 92.4601 89.1948 92.4464C89.031 92.4191 88.8672 92.4055 88.7034 92.4055C88.3076 92.4055 87.9323 92.4874 87.5774 92.6512C87.2361 92.8013 86.9359 93.0334 86.6765 93.3473C86.4172 93.6476 86.2125 94.0229 86.0623 94.4733C85.9122 94.9238 85.8371 95.4424 85.8371 96.0294V101.066H83.5031V90.4809ZM91.0285 86.4476H97.4778C98.5151 86.4476 99.3613 86.5977 100.017 86.898C100.672 87.1983 101.177 87.5737 101.532 88.0241C101.886 88.4745 102.125 88.9659 102.248 89.4982C102.385 90.0305 102.453 90.5219 102.453 90.9723C102.453 91.4227 102.385 91.9141 102.248 92.4464C102.125 92.9651 101.886 93.4497 101.532 93.9001C101.177 94.3505 100.672 94.7259 100.017 95.0261C99.3613 95.3128 98.5151 95.4561 97.4778 95.4561H93.5877V101.066H91.0285V86.4476ZM93.5877 93.3678H97.3344C97.6211 93.3678 97.9145 93.3268 98.2148 93.2449C98.5151 93.163 98.7881 93.0334 99.0338 92.8559C99.2931 92.6648 99.4978 92.4191 99.648 92.1189C99.8118 91.8049 99.8937 91.4159 99.8937 90.9518C99.8937 90.4741 99.8254 90.0783 99.6889 89.7644C99.5524 89.4504 99.3682 89.2047 99.1361 89.0273C98.9041 88.8362 98.6379 88.7065 98.3377 88.6383C98.0374 88.5701 97.7166 88.5359 97.3754 88.5359H93.5877V93.3678ZM113.222 98.7114C113.222 98.9981 113.256 99.2028 113.324 99.3256C113.406 99.4485 113.556 99.5099 113.775 99.5099C113.843 99.5099 113.925 99.5099 114.02 99.5099C114.116 99.5099 114.225 99.4963 114.348 99.469V101.086C114.266 101.114 114.157 101.141 114.02 101.168C113.898 101.209 113.768 101.243 113.631 101.271C113.495 101.298 113.358 101.318 113.222 101.332C113.085 101.346 112.969 101.353 112.874 101.353C112.396 101.353 112 101.257 111.686 101.066C111.373 100.875 111.168 100.54 111.072 100.063C110.608 100.513 110.035 100.841 109.352 101.045C108.684 101.25 108.035 101.353 107.407 101.353C106.93 101.353 106.472 101.284 106.036 101.148C105.599 101.025 105.21 100.841 104.869 100.595C104.541 100.336 104.275 100.015 104.07 99.6327C103.879 99.2369 103.784 98.7797 103.784 98.261C103.784 97.6058 103.9 97.0735 104.132 96.664C104.377 96.2546 104.691 95.9338 105.073 95.7018C105.469 95.4697 105.906 95.3059 106.384 95.2104C106.875 95.1012 107.366 95.0193 107.858 94.9647C108.281 94.8828 108.684 94.8282 109.066 94.8009C109.448 94.76 109.782 94.6986 110.069 94.6167C110.369 94.5348 110.601 94.4119 110.765 94.2481C110.943 94.0707 111.031 93.8114 111.031 93.4701C111.031 93.1698 110.956 92.9242 110.806 92.7331C110.67 92.542 110.492 92.3987 110.274 92.3031C110.069 92.1939 109.837 92.1257 109.578 92.0984C109.318 92.0574 109.073 92.037 108.841 92.037C108.185 92.037 107.646 92.1735 107.223 92.4464C106.8 92.7194 106.561 93.1425 106.507 93.7158H104.173C104.213 93.0334 104.377 92.4669 104.664 92.0165C104.951 91.5661 105.312 91.2044 105.749 90.9314C106.199 90.6584 106.704 90.4673 107.264 90.3581C107.824 90.2489 108.397 90.1943 108.984 90.1943C109.503 90.1943 110.014 90.2489 110.519 90.3581C111.024 90.4673 111.475 90.6447 111.871 90.8904C112.28 91.1361 112.608 91.4569 112.853 91.8527C113.099 92.2349 113.222 92.7058 113.222 93.2654V98.7114ZM110.888 95.7632C110.533 95.9952 110.096 96.1385 109.578 96.1931C109.059 96.2341 108.54 96.3023 108.022 96.3979C107.776 96.4388 107.537 96.5003 107.305 96.5821C107.073 96.6504 106.868 96.7528 106.691 96.8893C106.513 97.0121 106.37 97.1827 106.261 97.4011C106.165 97.6058 106.118 97.8584 106.118 98.1586C106.118 98.418 106.193 98.6364 106.343 98.8138C106.493 98.9912 106.67 99.1346 106.875 99.2437C107.093 99.3393 107.326 99.4075 107.571 99.4485C107.831 99.4894 108.063 99.5099 108.267 99.5099C108.527 99.5099 108.806 99.4758 109.107 99.4075C109.407 99.3393 109.687 99.2233 109.946 99.0595C110.219 98.8957 110.444 98.691 110.622 98.4453C110.799 98.1859 110.888 97.872 110.888 97.5035V95.7632ZM117.494 97.6673C117.562 98.3497 117.822 98.8274 118.272 99.1004C118.723 99.3734 119.262 99.5099 119.89 99.5099C120.108 99.5099 120.354 99.4963 120.627 99.469C120.913 99.428 121.179 99.3598 121.425 99.2642C121.671 99.1687 121.869 99.0322 122.019 98.8547C122.183 98.6637 122.258 98.418 122.244 98.1177C122.23 97.8174 122.121 97.5717 121.916 97.3806C121.712 97.1895 121.446 97.0394 121.118 96.9302C120.804 96.8074 120.442 96.705 120.033 96.6231C119.623 96.5412 119.207 96.4525 118.784 96.3569C118.347 96.2614 117.924 96.1454 117.515 96.0089C117.119 95.8724 116.757 95.6881 116.429 95.4561C116.116 95.2241 115.863 94.9306 115.672 94.5757C115.481 94.2072 115.385 93.7568 115.385 93.2244C115.385 92.6512 115.522 92.1735 115.795 91.7913C116.081 91.3954 116.436 91.0815 116.859 90.8495C117.296 90.6038 117.774 90.4332 118.293 90.3376C118.825 90.2421 119.33 90.1943 119.808 90.1943C120.354 90.1943 120.872 90.2557 121.364 90.3786C121.869 90.4878 122.319 90.672 122.715 90.9314C123.124 91.1907 123.459 91.5319 123.718 91.9551C123.991 92.3645 124.162 92.8627 124.23 93.4497H121.794C121.684 92.89 121.425 92.5147 121.016 92.3236C120.62 92.1325 120.163 92.037 119.644 92.037C119.48 92.037 119.282 92.0506 119.05 92.0779C118.832 92.1052 118.62 92.1598 118.415 92.2417C118.224 92.3099 118.061 92.4191 117.924 92.5693C117.788 92.7058 117.719 92.89 117.719 93.1221C117.719 93.4087 117.815 93.6407 118.006 93.8182C118.211 93.9956 118.47 94.1458 118.784 94.2686C119.112 94.3778 119.48 94.4733 119.89 94.5552C120.299 94.6371 120.722 94.7259 121.159 94.8214C121.582 94.9169 121.998 95.033 122.408 95.1695C122.817 95.3059 123.179 95.4902 123.493 95.7222C123.821 95.9543 124.08 96.2477 124.271 96.6026C124.476 96.9575 124.578 97.3943 124.578 97.9129C124.578 98.5408 124.435 99.0731 124.148 99.5099C123.861 99.9467 123.486 100.302 123.022 100.575C122.572 100.848 122.067 101.045 121.507 101.168C120.947 101.291 120.395 101.353 119.849 101.353C119.18 101.353 118.559 101.277 117.985 101.127C117.426 100.977 116.935 100.752 116.511 100.452C116.102 100.138 115.774 99.7556 115.529 99.3052C115.297 98.8411 115.174 98.2951 115.16 97.6673H117.494ZM128.111 97.6673C128.179 98.3497 128.439 98.8274 128.889 99.1004C129.339 99.3734 129.878 99.5099 130.506 99.5099C130.725 99.5099 130.97 99.4963 131.243 99.469C131.53 99.428 131.796 99.3598 132.042 99.2642C132.288 99.1687 132.485 99.0322 132.636 98.8547C132.799 98.6637 132.874 98.418 132.861 98.1177C132.847 97.8174 132.738 97.5717 132.533 97.3806C132.329 97.1895 132.062 97.0394 131.735 96.9302C131.421 96.8074 131.059 96.705 130.65 96.6231C130.24 96.5412 129.824 96.4525 129.401 96.3569C128.964 96.2614 128.541 96.1454 128.131 96.0089C127.736 95.8724 127.374 95.6881 127.046 95.4561C126.732 95.2241 126.48 94.9306 126.289 94.5757C126.098 94.2072 126.002 93.7568 126.002 93.2244C126.002 92.6512 126.139 92.1735 126.412 91.7913C126.698 91.3954 127.053 91.0815 127.476 90.8495C127.913 90.6038 128.391 90.4332 128.909 90.3376C129.442 90.2421 129.947 90.1943 130.424 90.1943C130.97 90.1943 131.489 90.2557 131.98 90.3786C132.485 90.4878 132.936 90.672 133.332 90.9314C133.741 91.1907 134.076 91.5319 134.335 91.9551C134.608 92.3645 134.779 92.8627 134.847 93.4497H132.41C132.301 92.89 132.042 92.5147 131.632 92.3236C131.237 92.1325 130.779 92.037 130.261 92.037C130.097 92.037 129.899 92.0506 129.667 92.0779C129.449 92.1052 129.237 92.1598 129.032 92.2417C128.841 92.3099 128.677 92.4191 128.541 92.5693C128.404 92.7058 128.336 92.89 128.336 93.1221C128.336 93.4087 128.432 93.6407 128.623 93.8182C128.828 93.9956 129.087 94.1458 129.401 94.2686C129.728 94.3778 130.097 94.4733 130.506 94.5552C130.916 94.6371 131.339 94.7259 131.776 94.8214C132.199 94.9169 132.615 95.033 133.025 95.1695C133.434 95.3059 133.796 95.4902 134.11 95.7222C134.437 95.9543 134.697 96.2477 134.888 96.6026C135.092 96.9575 135.195 97.3943 135.195 97.9129C135.195 98.5408 135.052 99.0731 134.765 99.5099C134.478 99.9467 134.103 100.302 133.639 100.575C133.188 100.848 132.683 101.045 132.124 101.168C131.564 101.291 131.011 101.353 130.465 101.353C129.797 101.353 129.176 101.277 128.602 101.127C128.043 100.977 127.551 100.752 127.128 100.452C126.719 100.138 126.391 99.7556 126.145 99.3052C125.913 98.8411 125.791 98.2951 125.777 97.6673H128.111ZM142.952 86.4476H146.555L150.589 97.8925H150.63L154.561 86.4476H158.123V101.066H155.687V89.7848H155.646L151.592 101.066H149.483L145.429 89.7848H145.388V101.066H142.952V86.4476ZM168.128 94.8419C168.101 94.4733 168.019 94.1185 167.882 93.7772C167.759 93.436 167.582 93.1425 167.35 92.8969C167.132 92.6375 166.859 92.4328 166.531 92.2826C166.217 92.1189 165.862 92.037 165.466 92.037C165.057 92.037 164.682 92.112 164.34 92.2622C164.013 92.3987 163.726 92.5966 163.48 92.8559C163.248 93.1016 163.057 93.3951 162.907 93.7363C162.771 94.0775 162.696 94.446 162.682 94.8419H168.128ZM162.682 96.3774C162.682 96.7869 162.737 97.1827 162.846 97.5649C162.969 97.9471 163.146 98.2815 163.378 98.5681C163.61 98.8547 163.904 99.0868 164.258 99.2642C164.613 99.428 165.036 99.5099 165.528 99.5099C166.21 99.5099 166.756 99.3666 167.166 99.08C167.589 98.7797 167.903 98.3361 168.108 97.7492H170.319C170.196 98.3224 169.984 98.8343 169.684 99.2847C169.384 99.7351 169.022 100.117 168.599 100.431C168.176 100.732 167.698 100.957 167.166 101.107C166.647 101.271 166.101 101.353 165.528 101.353C164.695 101.353 163.958 101.216 163.317 100.943C162.675 100.67 162.129 100.288 161.679 99.7965C161.242 99.3052 160.908 98.7183 160.676 98.0358C160.457 97.3533 160.348 96.6026 160.348 95.7837C160.348 95.033 160.464 94.3232 160.696 93.6544C160.942 92.9719 161.283 92.3782 161.72 91.8732C162.17 91.3545 162.709 90.945 163.337 90.6447C163.965 90.3445 164.675 90.1943 165.466 90.1943C166.299 90.1943 167.043 90.3718 167.698 90.7266C168.367 91.0679 168.92 91.5251 169.356 92.0984C169.793 92.6716 170.107 93.3336 170.298 94.0843C170.503 94.8214 170.558 95.5858 170.462 96.3774H162.682ZM172.236 90.4809H174.427V92.5283H174.468C174.536 92.2417 174.666 91.9619 174.857 91.6889C175.062 91.4159 175.301 91.1702 175.574 90.9518C175.86 90.7198 176.174 90.5355 176.515 90.3991C176.857 90.2626 177.205 90.1943 177.56 90.1943C177.833 90.1943 178.017 90.2011 178.112 90.2148C178.222 90.2284 178.331 90.2421 178.44 90.2557V92.5079C178.276 92.4806 178.106 92.4601 177.928 92.4464C177.764 92.4191 177.6 92.4055 177.437 92.4055C177.041 92.4055 176.666 92.4874 176.311 92.6512C175.969 92.8013 175.669 93.0334 175.41 93.3473C175.15 93.6476 174.946 94.0229 174.796 94.4733C174.645 94.9238 174.57 95.4424 174.57 96.0294V101.066H172.236V90.4809ZM186.22 94.0229C186.124 93.3678 185.858 92.8764 185.421 92.5488C184.998 92.2076 184.459 92.037 183.804 92.037C183.503 92.037 183.183 92.0916 182.841 92.2007C182.5 92.2963 182.186 92.4874 181.9 92.774C181.613 93.047 181.374 93.436 181.183 93.941C180.992 94.4324 180.896 95.0807 180.896 95.886C180.896 96.3228 180.944 96.7596 181.04 97.1964C181.149 97.6331 181.313 98.0221 181.531 98.3634C181.763 98.7046 182.057 98.9844 182.412 99.2028C182.766 99.4075 183.196 99.5099 183.701 99.5099C184.384 99.5099 184.943 99.2983 185.38 98.8752C185.831 98.4521 186.11 97.8584 186.22 97.094H188.554C188.335 98.4726 187.81 99.5304 186.977 100.267C186.158 100.991 185.066 101.353 183.701 101.353C182.869 101.353 182.132 101.216 181.49 100.943C180.862 100.656 180.33 100.274 179.893 99.7965C179.456 99.3052 179.122 98.7251 178.89 98.0563C178.672 97.3875 178.562 96.664 178.562 95.886C178.562 95.0944 178.672 94.3505 178.89 93.6544C179.108 92.9583 179.436 92.3577 179.873 91.8527C180.31 91.334 180.849 90.9314 181.49 90.6447C182.145 90.3445 182.91 90.1943 183.783 90.1943C184.397 90.1943 184.978 90.2762 185.524 90.44C186.083 90.5901 186.575 90.8222 186.998 91.1361C187.434 91.45 187.789 91.8459 188.062 92.3236C188.335 92.8013 188.499 93.3678 188.554 94.0229H186.22ZM190.451 86.4476H192.785V91.8732H192.826C193.112 91.3954 193.536 90.9996 194.095 90.6857C194.668 90.3581 195.303 90.1943 195.999 90.1943C197.159 90.1943 198.074 90.4946 198.743 91.0952C199.412 91.6957 199.746 92.5966 199.746 93.7977V101.066H197.412V94.4119C197.385 93.5793 197.207 92.9788 196.88 92.6102C196.552 92.228 196.04 92.037 195.344 92.037C194.948 92.037 194.593 92.112 194.279 92.2622C193.966 92.3987 193.699 92.5966 193.481 92.8559C193.263 93.1016 193.092 93.3951 192.969 93.7363C192.846 94.0775 192.785 94.4392 192.785 94.8214V101.066H190.451V86.4476ZM211.072 98.7114C211.072 98.9981 211.107 99.2028 211.175 99.3256C211.257 99.4485 211.407 99.5099 211.625 99.5099C211.694 99.5099 211.775 99.5099 211.871 99.5099C211.967 99.5099 212.076 99.4963 212.199 99.469V101.086C212.117 101.114 212.007 101.141 211.871 101.168C211.748 101.209 211.618 101.243 211.482 101.271C211.345 101.298 211.209 101.318 211.072 101.332C210.936 101.346 210.82 101.353 210.724 101.353C210.247 101.353 209.851 101.257 209.537 101.066C209.223 100.875 209.018 100.54 208.923 100.063C208.459 100.513 207.885 100.841 207.203 101.045C206.534 101.25 205.886 101.353 205.258 101.353C204.78 101.353 204.323 101.284 203.886 101.148C203.449 101.025 203.06 100.841 202.719 100.595C202.392 100.336 202.125 100.015 201.921 99.6327C201.73 99.2369 201.634 98.7797 201.634 98.261C201.634 97.6058 201.75 97.0735 201.982 96.664C202.228 96.2546 202.542 95.9338 202.924 95.7018C203.32 95.4697 203.756 95.3059 204.234 95.2104C204.726 95.1012 205.217 95.0193 205.708 94.9647C206.131 94.8828 206.534 94.8282 206.916 94.8009C207.298 94.76 207.633 94.6986 207.92 94.6167C208.22 94.5348 208.452 94.4119 208.616 94.2481C208.793 94.0707 208.882 93.8114 208.882 93.4701C208.882 93.1698 208.807 92.9242 208.657 92.7331C208.52 92.542 208.343 92.3987 208.124 92.3031C207.92 92.1939 207.687 92.1257 207.428 92.0984C207.169 92.0574 206.923 92.037 206.691 92.037C206.036 92.037 205.497 92.1735 205.074 92.4464C204.651 92.7194 204.412 93.1425 204.357 93.7158H202.023C202.064 93.0334 202.228 92.4669 202.514 92.0165C202.801 91.5661 203.163 91.2044 203.6 90.9314C204.05 90.6584 204.555 90.4673 205.115 90.3581C205.674 90.2489 206.247 90.1943 206.834 90.1943C207.353 90.1943 207.865 90.2489 208.37 90.3581C208.875 90.4673 209.325 90.6447 209.721 90.8904C210.131 91.1361 210.458 91.4569 210.704 91.8527C210.95 92.2349 211.072 92.7058 211.072 93.2654V98.7114ZM208.738 95.7632C208.384 95.9952 207.947 96.1385 207.428 96.1931C206.909 96.2341 206.391 96.3023 205.872 96.3979C205.626 96.4388 205.388 96.5003 205.156 96.5821C204.924 96.6504 204.719 96.7528 204.541 96.8893C204.364 97.0121 204.221 97.1827 204.111 97.4011C204.016 97.6058 203.968 97.8584 203.968 98.1586C203.968 98.418 204.043 98.6364 204.193 98.8138C204.343 98.9912 204.521 99.1346 204.726 99.2437C204.944 99.3393 205.176 99.4075 205.422 99.4485C205.681 99.4894 205.913 99.5099 206.118 99.5099C206.377 99.5099 206.657 99.4758 206.957 99.4075C207.258 99.3393 207.537 99.2233 207.797 99.0595C208.07 98.8957 208.295 98.691 208.472 98.4453C208.65 98.1859 208.738 97.872 208.738 97.5035V95.7632ZM213.584 90.4809H215.795V92.037L215.836 92.0779C216.191 91.491 216.655 91.0337 217.228 90.7062C217.801 90.3649 218.436 90.1943 219.132 90.1943C220.292 90.1943 221.207 90.4946 221.876 91.0952C222.545 91.6957 222.879 92.5966 222.879 93.7977V101.066H220.545V94.4119C220.518 93.5793 220.34 92.9788 220.013 92.6102C219.685 92.228 219.173 92.037 218.477 92.037C218.081 92.037 217.726 92.112 217.412 92.2622C217.099 92.3987 216.832 92.5966 216.614 92.8559C216.396 93.1016 216.225 93.3951 216.102 93.7363C215.979 94.0775 215.918 94.4392 215.918 94.8214V101.066H213.584V90.4809ZM224.276 90.4809H226.036V87.3075H228.37V90.4809H230.479V92.2212H228.37V97.872C228.37 98.1177 228.377 98.3292 228.391 98.5067C228.418 98.6841 228.466 98.8343 228.534 98.9571C228.616 99.08 228.732 99.1755 228.882 99.2437C229.032 99.2983 229.237 99.3256 229.497 99.3256C229.66 99.3256 229.824 99.3256 229.988 99.3256C230.152 99.312 230.315 99.2847 230.479 99.2437V101.045C230.22 101.073 229.967 101.1 229.722 101.127C229.476 101.155 229.224 101.168 228.964 101.168C228.35 101.168 227.852 101.114 227.47 101.004C227.101 100.882 226.808 100.711 226.589 100.493C226.385 100.261 226.241 99.974 226.159 99.6327C226.091 99.2915 226.05 98.9025 226.036 98.4657V92.2212H224.276V90.4809ZM242.095 86.4476H244.818L250.448 101.066H247.704L246.333 97.1964H240.498L239.126 101.066H236.485L242.095 86.4476ZM241.194 95.2514H245.657L243.466 88.9659H243.405L241.194 95.2514ZM251.574 90.4809H253.785V91.9141H253.826C254.154 91.2999 254.611 90.8631 255.198 90.6038C255.785 90.3308 256.419 90.1943 257.102 90.1943C257.934 90.1943 258.658 90.3445 259.272 90.6447C259.9 90.9314 260.419 91.334 260.828 91.8527C261.238 92.3577 261.545 92.9515 261.749 93.6339C261.954 94.3164 262.056 95.0466 262.056 95.8246C262.056 96.5344 261.961 97.2237 261.77 97.8925C261.592 98.5613 261.313 99.155 260.93 99.6737C260.562 100.179 260.091 100.588 259.518 100.902C258.944 101.202 258.269 101.353 257.491 101.353C257.15 101.353 256.808 101.318 256.467 101.25C256.126 101.196 255.798 101.1 255.484 100.964C255.17 100.827 254.877 100.656 254.604 100.452C254.345 100.233 254.126 99.9808 253.949 99.6942H253.908V104.976H251.574V90.4809ZM259.722 95.7837C259.722 95.3059 259.661 94.8419 259.538 94.3914C259.415 93.941 259.231 93.5452 258.985 93.204C258.74 92.8491 258.433 92.5693 258.064 92.3645C257.696 92.1462 257.272 92.037 256.795 92.037C255.812 92.037 255.068 92.3782 254.563 93.0607C254.072 93.7431 253.826 94.6508 253.826 95.7837C253.826 96.316 253.887 96.8142 254.01 97.2783C254.147 97.7287 254.345 98.1177 254.604 98.4453C254.863 98.7728 255.17 99.0322 255.525 99.2233C255.894 99.4144 256.317 99.5099 256.795 99.5099C257.327 99.5099 257.777 99.4007 258.146 99.1823C258.515 98.9639 258.815 98.6841 259.047 98.3429C259.293 97.988 259.463 97.5922 259.559 97.1554C259.668 96.705 259.722 96.2477 259.722 95.7837ZM264.09 90.4809H266.301V91.9141H266.342C266.67 91.2999 267.127 90.8631 267.714 90.6038C268.301 90.3308 268.936 90.1943 269.618 90.1943C270.451 90.1943 271.174 90.3445 271.788 90.6447C272.416 90.9314 272.935 91.334 273.344 91.8527C273.754 92.3577 274.061 92.9515 274.266 93.6339C274.47 94.3164 274.573 95.0466 274.573 95.8246C274.573 96.5344 274.477 97.2237 274.286 97.8925C274.109 98.5613 273.829 99.155 273.447 99.6737C273.078 100.179 272.607 100.588 272.034 100.902C271.461 101.202 270.785 101.353 270.007 101.353C269.666 101.353 269.325 101.318 268.983 101.25C268.642 101.196 268.315 101.1 268.001 100.964C267.687 100.827 267.393 100.656 267.12 100.452C266.861 100.233 266.643 99.9808 266.465 99.6942H266.424V104.976H264.09V90.4809ZM272.239 95.7837C272.239 95.3059 272.177 94.8419 272.054 94.3914C271.932 93.941 271.747 93.5452 271.502 93.204C271.256 92.8491 270.949 92.5693 270.58 92.3645C270.212 92.1462 269.789 92.037 269.311 92.037C268.328 92.037 267.584 92.3782 267.079 93.0607C266.588 93.7431 266.342 94.6508 266.342 95.7837C266.342 96.316 266.404 96.8142 266.526 97.2783C266.663 97.7287 266.861 98.1177 267.12 98.4453C267.38 98.7728 267.687 99.0322 268.042 99.2233C268.41 99.4144 268.833 99.5099 269.311 99.5099C269.843 99.5099 270.294 99.4007 270.662 99.1823C271.031 98.9639 271.331 98.6841 271.563 98.3429C271.809 97.988 271.979 97.5922 272.075 97.1554C272.184 96.705 272.239 96.2477 272.239 95.7837Z" fill="#E1F8E6"/>
<path d="M316.911 54.9478V94.9478" stroke="#E1F8E6"/>
<path d="M369.748 63.0084H371.45C371.355 62.3276 371.152 61.7305 370.841 61.2169C370.531 60.6914 370.142 60.2555 369.677 59.9091C369.211 59.5628 368.679 59.3 368.082 59.1209C367.485 58.9418 366.852 58.8522 366.183 58.8522C365.204 58.8522 364.332 59.0313 363.568 59.3896C362.815 59.736 362.182 60.2137 361.669 60.8228C361.167 61.4319 360.785 62.1485 360.522 62.9725C360.26 63.7847 360.128 64.6565 360.128 65.5881C360.128 66.5196 360.248 67.3915 360.487 68.2036C360.737 69.0157 361.108 69.7204 361.597 70.3175C362.087 70.9147 362.702 71.3864 363.442 71.7328C364.183 72.0672 365.049 72.2344 366.04 72.2344C367.676 72.2344 368.966 71.7865 369.91 70.8908C370.853 69.9951 371.408 68.741 371.576 67.1287H369.874C369.838 67.6542 369.73 68.1439 369.551 68.5977C369.372 69.0516 369.121 69.4457 368.799 69.7801C368.488 70.1025 368.112 70.3593 367.67 70.5504C367.24 70.7296 366.745 70.8191 366.183 70.8191C365.419 70.8191 364.762 70.6758 364.213 70.3892C363.663 70.1025 363.21 69.7204 362.851 69.2426C362.505 68.753 362.248 68.1857 362.081 67.5408C361.914 66.8839 361.83 66.1912 361.83 65.4627C361.83 64.7939 361.914 64.1489 362.081 63.5279C362.248 62.9069 362.505 62.3575 362.851 61.8797C363.21 61.3901 363.657 61.0019 364.195 60.7153C364.744 60.4287 365.401 60.2853 366.165 60.2853C367.061 60.2853 367.832 60.5123 368.476 60.9661C369.133 61.4199 369.557 62.1007 369.748 63.0084ZM374.544 67.3258C374.544 66.7645 374.615 66.2688 374.759 65.8389C374.914 65.397 375.123 65.0267 375.386 64.7282C375.648 64.4296 375.953 64.2027 376.299 64.0474C376.658 63.8922 377.034 63.8145 377.428 63.8145C377.822 63.8145 378.192 63.8922 378.539 64.0474C378.897 64.2027 379.208 64.4296 379.47 64.7282C379.733 65.0267 379.936 65.397 380.079 65.8389C380.235 66.2688 380.312 66.7645 380.312 67.3258C380.312 67.8871 380.235 68.3887 380.079 68.8306C379.936 69.2606 379.733 69.6248 379.47 69.9234C379.208 70.21 378.897 70.431 378.539 70.5862C378.192 70.7415 377.822 70.8191 377.428 70.8191C377.034 70.8191 376.658 70.7415 376.299 70.5862C375.953 70.431 375.648 70.21 375.386 69.9234C375.123 69.6248 374.914 69.2606 374.759 68.8306C374.615 68.3887 374.544 67.8871 374.544 67.3258ZM372.931 67.3258C372.931 68.0065 373.027 68.6395 373.218 69.2247C373.409 69.8099 373.696 70.3235 374.078 70.7654C374.46 71.1953 374.932 71.5357 375.493 71.7865C376.055 72.0254 376.699 72.1448 377.428 72.1448C378.168 72.1448 378.813 72.0254 379.363 71.7865C379.924 71.5357 380.396 71.1953 380.778 70.7654C381.16 70.3235 381.447 69.8099 381.638 69.2247C381.829 68.6395 381.925 68.0065 381.925 67.3258C381.925 66.645 381.829 66.012 381.638 65.4268C381.447 64.8297 381.16 64.3161 380.778 63.8862C380.396 63.4443 379.924 63.0979 379.363 62.8471C378.813 62.5963 378.168 62.4709 377.428 62.4709C376.699 62.4709 376.055 62.5963 375.493 62.8471C374.932 63.0979 374.46 63.4443 374.078 63.8862C373.696 64.3161 373.409 64.8297 373.218 65.4268C373.027 66.012 372.931 66.645 372.931 67.3258ZM383.72 62.6859V71.9478H385.243V66.1793C385.243 66.0001 385.284 65.7792 385.368 65.5164C385.464 65.2417 385.607 64.979 385.798 64.7282C386.001 64.4774 386.258 64.2624 386.568 64.0832C386.891 63.9041 387.273 63.8145 387.715 63.8145C388.061 63.8145 388.342 63.8683 388.557 63.9758C388.784 64.0713 388.963 64.2146 389.094 64.4057C389.226 64.5849 389.315 64.7998 389.363 65.0506C389.423 65.3014 389.453 65.5761 389.453 65.8747V71.9478H390.975V66.1793C390.975 65.4627 391.19 64.8894 391.62 64.4595C392.05 64.0295 392.641 63.8145 393.394 63.8145C393.764 63.8145 394.063 63.8683 394.29 63.9758C394.528 64.0832 394.714 64.2325 394.845 64.4236C394.976 64.6028 395.066 64.8177 395.114 65.0685C395.161 65.3194 395.185 65.5881 395.185 65.8747V71.9478H396.708V65.1581C396.708 64.6804 396.63 64.2743 396.475 63.9399C396.332 63.5936 396.123 63.3129 395.848 63.0979C395.585 62.883 395.263 62.7277 394.881 62.6322C394.511 62.5247 394.093 62.4709 393.627 62.4709C393.018 62.4709 392.456 62.6083 391.943 62.883C391.441 63.1577 391.035 63.5458 390.725 64.0474C390.533 63.4741 390.205 63.0681 389.739 62.8292C389.273 62.5904 388.754 62.4709 388.181 62.4709C386.879 62.4709 385.882 62.9964 385.189 64.0474H385.153V62.6859H383.72ZM399.047 62.6859V75.4769H400.569V70.7116H400.605C400.772 70.9863 400.975 71.2192 401.214 71.4103C401.465 71.5895 401.728 71.7328 402.002 71.8403C402.277 71.9478 402.552 72.0254 402.827 72.0732C403.113 72.1209 403.37 72.1448 403.597 72.1448C404.302 72.1448 404.917 72.0194 405.442 71.7686C405.98 71.5178 406.421 71.1774 406.768 70.7475C407.126 70.3056 407.389 69.792 407.556 69.2068C407.735 68.6216 407.825 68.0006 407.825 67.3437C407.825 66.6868 407.735 66.0658 407.556 65.4806C407.377 64.8954 407.108 64.3818 406.75 63.9399C406.404 63.4861 405.962 63.1278 405.424 62.8651C404.899 62.6023 404.278 62.4709 403.561 62.4709C402.916 62.4709 402.325 62.5904 401.788 62.8292C401.25 63.0561 400.856 63.4264 400.605 63.9399H400.569V62.6859H399.047ZM406.212 67.2362C406.212 67.6901 406.165 68.1319 406.069 68.5619C405.974 68.9918 405.818 69.374 405.603 69.7084C405.388 70.0428 405.102 70.3116 404.743 70.5146C404.397 70.7176 403.961 70.8191 403.436 70.8191C402.91 70.8191 402.462 70.7236 402.092 70.5325C401.722 70.3295 401.417 70.0667 401.178 69.7443C400.952 69.4218 400.784 69.0516 400.677 68.6336C400.569 68.2036 400.516 67.7617 400.516 67.3079C400.516 66.8779 400.563 66.4539 400.659 66.0359C400.766 65.6179 400.934 65.2477 401.161 64.9252C401.387 64.5908 401.68 64.3221 402.038 64.1191C402.397 63.916 402.833 63.8145 403.346 63.8145C403.836 63.8145 404.26 63.9101 404.618 64.1012C404.988 64.2922 405.287 64.549 405.514 64.8715C405.753 65.1939 405.926 65.5642 406.033 65.9822C406.153 66.3883 406.212 66.8063 406.212 67.2362ZM417.817 71.9119C417.554 72.0672 417.19 72.1448 416.724 72.1448C416.33 72.1448 416.014 72.0373 415.775 71.8224C415.548 71.5954 415.434 71.2312 415.434 70.7296C415.016 71.2312 414.527 71.5954 413.965 71.8224C413.416 72.0373 412.819 72.1448 412.174 72.1448C411.756 72.1448 411.356 72.097 410.974 72.0015C410.603 71.906 410.281 71.7567 410.006 71.5536C409.732 71.3506 409.511 71.0879 409.343 70.7654C409.188 70.431 409.111 70.0309 409.111 69.5651C409.111 69.0396 409.2 68.6097 409.379 68.2753C409.558 67.9409 409.791 67.6721 410.078 67.4691C410.376 67.2541 410.711 67.0929 411.081 66.9854C411.463 66.8779 411.851 66.7883 412.246 66.7167C412.664 66.6331 413.058 66.5734 413.428 66.5375C413.81 66.4898 414.145 66.4301 414.431 66.3584C414.718 66.2748 414.945 66.1613 415.112 66.018C415.279 65.8628 415.363 65.6418 415.363 65.3552C415.363 65.0208 415.297 64.7521 415.166 64.549C415.046 64.346 414.885 64.1907 414.682 64.0832C414.491 63.9758 414.27 63.9041 414.019 63.8683C413.78 63.8324 413.541 63.8145 413.303 63.8145C412.658 63.8145 412.12 63.9399 411.69 64.1907C411.26 64.4296 411.027 64.8894 410.992 65.5702H409.469C409.493 64.9969 409.612 64.5132 409.827 64.1191C410.042 63.725 410.329 63.4085 410.687 63.1696C411.045 62.9188 411.451 62.7396 411.905 62.6322C412.371 62.5247 412.867 62.4709 413.392 62.4709C413.81 62.4709 414.222 62.5008 414.628 62.5605C415.046 62.6202 415.422 62.7456 415.757 62.9367C416.091 63.1159 416.36 63.3726 416.563 63.707C416.766 64.0414 416.868 64.4774 416.868 65.0148V69.7801C416.868 70.1384 416.885 70.4011 416.921 70.5683C416.969 70.7355 417.112 70.8191 417.351 70.8191C417.483 70.8191 417.638 70.7893 417.817 70.7296V71.9119ZM415.345 67.1646C415.154 67.3079 414.903 67.4154 414.592 67.487C414.282 67.5467 413.953 67.6005 413.607 67.6482C413.273 67.6841 412.932 67.7319 412.586 67.7916C412.24 67.8393 411.929 67.9229 411.654 68.0424C411.38 68.1618 411.153 68.335 410.974 68.5619C410.806 68.7769 410.723 69.0754 410.723 69.4576C410.723 69.7084 410.771 69.9234 410.866 70.1025C410.974 70.2698 411.105 70.4071 411.26 70.5146C411.427 70.6221 411.619 70.6997 411.834 70.7475C412.049 70.7952 412.275 70.8191 412.514 70.8191C413.016 70.8191 413.446 70.7534 413.804 70.6221C414.162 70.4788 414.455 70.3056 414.682 70.1025C414.909 69.8876 415.076 69.6607 415.184 69.4218C415.291 69.171 415.345 68.9381 415.345 68.7231V67.1646ZM419.234 62.6859V71.9478H420.757V66.7167C420.757 66.2987 420.811 65.9165 420.918 65.5702C421.038 65.2119 421.211 64.9013 421.438 64.6386C421.665 64.3758 421.945 64.1728 422.28 64.0295C422.626 63.8862 423.032 63.8145 423.498 63.8145C424.083 63.8145 424.543 63.9817 424.877 64.3161C425.212 64.6505 425.379 65.1044 425.379 65.6776V71.9478H426.902V65.8568C426.902 65.3552 426.848 64.9013 426.74 64.4953C426.645 64.0773 426.472 63.719 426.221 63.4204C425.97 63.1218 425.642 62.8889 425.236 62.7217C424.83 62.5545 424.322 62.4709 423.713 62.4709C422.339 62.4709 421.336 63.0323 420.703 64.1549H420.667V62.6859H419.234ZM432.825 73.1839C432.646 73.6377 432.467 74.0199 432.288 74.3304C432.121 74.6409 431.93 74.8917 431.715 75.0828C431.512 75.2858 431.279 75.4292 431.016 75.5128C430.765 75.6083 430.473 75.6561 430.138 75.6561C429.959 75.6561 429.78 75.6441 429.601 75.6202C429.422 75.5964 429.248 75.5546 429.081 75.4948V74.0975C429.213 74.1572 429.362 74.205 429.529 74.2408C429.708 74.2886 429.858 74.3125 429.977 74.3125C430.288 74.3125 430.544 74.2349 430.747 74.0796C430.962 73.9363 431.124 73.7273 431.231 73.4526L431.858 71.894L428.186 62.6859H429.905L432.61 70.2638H432.646L435.244 62.6859H436.856L432.825 73.1839Z" fill="#E1F8E6"/>
<path d="M365.638 88.1881C364.86 88.1881 364.184 88.3451 363.611 88.659C363.051 88.973 362.594 89.3961 362.239 89.9284C361.884 90.4471 361.618 91.0408 361.441 91.7096C361.277 92.3784 361.195 93.0609 361.195 93.757C361.195 94.4531 361.277 95.1356 361.441 95.8044C361.618 96.4732 361.884 97.0738 362.239 97.6061C362.594 98.1248 363.051 98.5411 363.611 98.855C364.184 99.1689 364.86 99.3259 365.638 99.3259C366.416 99.3259 367.085 99.1689 367.644 98.855C368.218 98.5411 368.682 98.1248 369.037 97.6061C369.392 97.0738 369.651 96.4732 369.815 95.8044C369.992 95.1356 370.081 94.4531 370.081 93.757C370.081 93.0609 369.992 92.3784 369.815 91.7096C369.651 91.0408 369.392 90.4471 369.037 89.9284C368.682 89.3961 368.218 88.973 367.644 88.659C367.085 88.3451 366.416 88.1881 365.638 88.1881ZM365.638 86.0998C366.73 86.0998 367.706 86.3045 368.566 86.714C369.439 87.1235 370.176 87.6763 370.777 88.3724C371.377 89.0685 371.835 89.8806 372.149 90.8088C372.476 91.7369 372.64 92.7197 372.64 93.757C372.64 94.808 372.476 95.7976 372.149 96.7257C371.835 97.6539 371.377 98.466 370.777 99.1621C370.176 99.8582 369.439 100.411 368.566 100.82C367.706 101.216 366.73 101.414 365.638 101.414C364.546 101.414 363.563 101.216 362.69 100.82C361.83 100.411 361.1 99.8582 360.499 99.1621C359.898 98.466 359.434 97.6539 359.107 96.7257C358.793 95.7976 358.636 94.808 358.636 93.757C358.636 92.7197 358.793 91.7369 359.107 90.8088C359.434 89.8806 359.898 89.0685 360.499 88.3724C361.1 87.6763 361.83 87.1235 362.69 86.714C363.563 86.3045 364.546 86.0998 365.638 86.0998ZM383.937 101.066H381.644V99.592H381.603C381.316 100.124 380.886 100.554 380.313 100.882C379.753 101.196 379.18 101.353 378.593 101.353C377.201 101.353 376.191 101.012 375.563 100.329C374.949 99.633 374.642 98.5888 374.642 97.1966V90.4812H376.976V96.9714C376.976 97.8995 377.153 98.5547 377.508 98.9369C377.863 99.3191 378.361 99.5102 379.003 99.5102C379.494 99.5102 379.903 99.4351 380.231 99.2849C380.559 99.1348 380.825 98.9369 381.029 98.6912C381.234 98.4319 381.378 98.1248 381.459 97.7699C381.555 97.415 381.603 97.0328 381.603 96.6233V90.4812H383.937V101.066ZM386.398 90.4812H388.589V92.5286H388.63C388.698 92.2419 388.828 91.9621 389.019 91.6891C389.223 91.4162 389.462 91.1705 389.735 90.9521C390.022 90.7201 390.336 90.5358 390.677 90.3993C391.018 90.2628 391.366 90.1946 391.721 90.1946C391.994 90.1946 392.179 90.2014 392.274 90.215C392.383 90.2287 392.492 90.2423 392.602 90.256V92.5081C392.438 92.4808 392.267 92.4603 392.09 92.4467C391.926 92.4194 391.762 92.4057 391.598 92.4057C391.203 92.4057 390.827 92.4876 390.472 92.6514C390.131 92.8016 389.831 93.0336 389.572 93.3475C389.312 93.6478 389.107 94.0232 388.957 94.4736C388.807 94.924 388.732 95.4427 388.732 96.0296V101.066H386.398V90.4812ZM393.924 86.4478H400.373C401.41 86.4478 402.256 86.598 402.912 86.8983C403.567 87.1986 404.072 87.5739 404.427 88.0243C404.781 88.4748 405.02 88.9661 405.143 89.4984C405.28 90.0308 405.348 90.5221 405.348 90.9726C405.348 91.423 405.28 91.9144 405.143 92.4467C405.02 92.9653 404.781 93.4499 404.427 93.9003C404.072 94.3507 403.567 94.7261 402.912 95.0264C402.256 95.313 401.41 95.4563 400.373 95.4563H396.483V101.066H393.924V86.4478ZM396.483 93.368H400.229C400.516 93.368 400.81 93.3271 401.11 93.2452C401.41 93.1633 401.683 93.0336 401.929 92.8562C402.188 92.6651 402.393 92.4194 402.543 92.1191C402.707 91.8052 402.789 91.4162 402.789 90.9521C402.789 90.4744 402.72 90.0785 402.584 89.7646C402.447 89.4507 402.263 89.205 402.031 89.0276C401.799 88.8365 401.533 88.7068 401.233 88.6385C400.932 88.5703 400.612 88.5362 400.27 88.5362H396.483V93.368ZM416.117 98.7117C416.117 98.9983 416.151 99.203 416.219 99.3259C416.301 99.4487 416.451 99.5102 416.67 99.5102C416.738 99.5102 416.82 99.5102 416.915 99.5102C417.011 99.5102 417.12 99.4965 417.243 99.4692V101.087C417.161 101.114 417.052 101.141 416.915 101.169C416.793 101.209 416.663 101.244 416.526 101.271C416.39 101.298 416.253 101.319 416.117 101.332C415.98 101.346 415.864 101.353 415.769 101.353C415.291 101.353 414.895 101.257 414.581 101.066C414.268 100.875 414.063 100.541 413.967 100.063C413.503 100.513 412.93 100.841 412.247 101.046C411.579 101.25 410.93 101.353 410.302 101.353C409.825 101.353 409.367 101.285 408.931 101.148C408.494 101.025 408.105 100.841 407.764 100.595C407.436 100.336 407.17 100.015 406.965 99.633C406.774 99.2372 406.679 98.7799 406.679 98.2612C406.679 97.6061 406.795 97.0738 407.027 96.6643C407.272 96.2548 407.586 95.9341 407.968 95.702C408.364 95.47 408.801 95.3062 409.279 95.2106C409.77 95.1015 410.261 95.0196 410.753 94.965C411.176 94.8831 411.579 94.8285 411.961 94.8012C412.343 94.7602 412.677 94.6988 412.964 94.6169C413.264 94.535 413.496 94.4122 413.66 94.2484C413.838 94.0709 413.926 93.8116 413.926 93.4704C413.926 93.1701 413.851 92.9244 413.701 92.7333C413.565 92.5422 413.387 92.3989 413.169 92.3034C412.964 92.1942 412.732 92.1259 412.473 92.0986C412.213 92.0577 411.968 92.0372 411.736 92.0372C411.08 92.0372 410.541 92.1737 410.118 92.4467C409.695 92.7197 409.456 93.1428 409.402 93.7161H407.068C407.109 93.0336 407.272 92.4672 407.559 92.0167C407.846 91.5663 408.207 91.2046 408.644 90.9316C409.094 90.6586 409.599 90.4675 410.159 90.3583C410.719 90.2492 411.292 90.1946 411.879 90.1946C412.398 90.1946 412.909 90.2492 413.414 90.3583C413.919 90.4675 414.37 90.645 414.766 90.8907C415.175 91.1364 415.503 91.4571 415.748 91.8529C415.994 92.2351 416.117 92.706 416.117 93.2656V98.7117ZM413.783 95.7634C413.428 95.9955 412.991 96.1388 412.473 96.1934C411.954 96.2343 411.435 96.3026 410.917 96.3981C410.671 96.4391 410.432 96.5005 410.2 96.5824C409.968 96.6506 409.763 96.753 409.586 96.8895C409.408 97.0123 409.265 97.183 409.156 97.4013C409.06 97.6061 409.013 97.8586 409.013 98.1589C409.013 98.4182 409.088 98.6366 409.238 98.814C409.388 98.9915 409.565 99.1348 409.77 99.244C409.988 99.3395 410.221 99.4078 410.466 99.4487C410.726 99.4897 410.958 99.5102 411.162 99.5102C411.422 99.5102 411.701 99.476 412.002 99.4078C412.302 99.3395 412.582 99.2235 412.841 99.0597C413.114 98.8959 413.339 98.6912 413.517 98.4455C413.694 98.1862 413.783 97.8722 413.783 97.5037V95.7634ZM420.389 97.6675C420.457 98.35 420.717 98.8277 421.167 99.1007C421.618 99.3737 422.157 99.5102 422.785 99.5102C423.003 99.5102 423.249 99.4965 423.522 99.4692C423.808 99.4283 424.074 99.36 424.32 99.2645C424.566 99.1689 424.764 99.0324 424.914 98.855C425.078 98.6639 425.153 98.4182 425.139 98.1179C425.125 97.8176 425.016 97.572 424.811 97.3809C424.607 97.1898 424.341 97.0396 424.013 96.9304C423.699 96.8076 423.337 96.7052 422.928 96.6233C422.518 96.5414 422.102 96.4527 421.679 96.3572C421.242 96.2616 420.819 96.1456 420.41 96.0091C420.014 95.8726 419.652 95.6884 419.325 95.4563C419.011 95.2243 418.758 94.9308 418.567 94.576C418.376 94.2074 418.28 93.757 418.28 93.2247C418.28 92.6514 418.417 92.1737 418.69 91.7915C418.976 91.3957 419.331 91.0818 419.754 90.8497C420.191 90.604 420.669 90.4334 421.188 90.3379C421.72 90.2423 422.225 90.1946 422.703 90.1946C423.249 90.1946 423.767 90.256 424.259 90.3788C424.764 90.488 425.214 90.6723 425.61 90.9316C426.019 91.191 426.354 91.5322 426.613 91.9553C426.886 92.3648 427.057 92.863 427.125 93.4499H424.689C424.579 92.8903 424.32 92.5149 423.911 92.3238C423.515 92.1327 423.058 92.0372 422.539 92.0372C422.375 92.0372 422.177 92.0509 421.945 92.0782C421.727 92.1054 421.515 92.16 421.31 92.2419C421.119 92.3102 420.956 92.4194 420.819 92.5695C420.683 92.706 420.614 92.8903 420.614 93.1223C420.614 93.4089 420.71 93.641 420.901 93.8184C421.106 93.9959 421.365 94.146 421.679 94.2689C422.007 94.378 422.375 94.4736 422.785 94.5555C423.194 94.6374 423.617 94.7261 424.054 94.8216C424.477 94.9172 424.893 95.0332 425.303 95.1697C425.712 95.3062 426.074 95.4905 426.388 95.7225C426.716 95.9545 426.975 96.248 427.166 96.6029C427.371 96.9577 427.473 97.3945 427.473 97.9132C427.473 98.5411 427.33 99.0734 427.043 99.5102C426.757 99.9469 426.381 100.302 425.917 100.575C425.467 100.848 424.962 101.046 424.402 101.169C423.842 101.291 423.29 101.353 422.744 101.353C422.075 101.353 421.454 101.278 420.881 101.128C420.321 100.977 419.83 100.752 419.406 100.452C418.997 100.138 418.669 99.7558 418.424 99.3054C418.192 98.8413 418.069 98.2954 418.055 97.6675H420.389ZM431.006 97.6675C431.074 98.35 431.334 98.8277 431.784 99.1007C432.234 99.3737 432.774 99.5102 433.401 99.5102C433.62 99.5102 433.865 99.4965 434.138 99.4692C434.425 99.4283 434.691 99.36 434.937 99.2645C435.183 99.1689 435.381 99.0324 435.531 98.855C435.694 98.6639 435.77 98.4182 435.756 98.1179C435.742 97.8176 435.633 97.572 435.428 97.3809C435.224 97.1898 434.957 97.0396 434.63 96.9304C434.316 96.8076 433.954 96.7052 433.545 96.6233C433.135 96.5414 432.719 96.4527 432.296 96.3572C431.859 96.2616 431.436 96.1456 431.026 96.0091C430.631 95.8726 430.269 95.6884 429.941 95.4563C429.627 95.2243 429.375 94.9308 429.184 94.576C428.993 94.2074 428.897 93.757 428.897 93.2247C428.897 92.6514 429.034 92.1737 429.307 91.7915C429.593 91.3957 429.948 91.0818 430.371 90.8497C430.808 90.604 431.286 90.4334 431.804 90.3379C432.337 90.2423 432.842 90.1946 433.319 90.1946C433.865 90.1946 434.384 90.256 434.875 90.3788C435.381 90.488 435.831 90.6723 436.227 90.9316C436.636 91.191 436.971 91.5322 437.23 91.9553C437.503 92.3648 437.674 92.863 437.742 93.4499H435.305C435.196 92.8903 434.937 92.5149 434.527 92.3238C434.132 92.1327 433.674 92.0372 433.156 92.0372C432.992 92.0372 432.794 92.0509 432.562 92.0782C432.344 92.1054 432.132 92.16 431.927 92.2419C431.736 92.3102 431.572 92.4194 431.436 92.5695C431.299 92.706 431.231 92.8903 431.231 93.1223C431.231 93.4089 431.327 93.641 431.518 93.8184C431.723 93.9959 431.982 94.146 432.296 94.2689C432.623 94.378 432.992 94.4736 433.401 94.5555C433.811 94.6374 434.234 94.7261 434.671 94.8216C435.094 94.9172 435.51 95.0332 435.92 95.1697C436.329 95.3062 436.691 95.4905 437.005 95.7225C437.332 95.9545 437.592 96.248 437.783 96.6029C437.988 96.9577 438.09 97.3945 438.09 97.9132C438.09 98.5411 437.947 99.0734 437.66 99.5102C437.373 99.9469 436.998 100.302 436.534 100.575C436.083 100.848 435.578 101.046 435.019 101.169C434.459 101.291 433.906 101.353 433.36 101.353C432.692 101.353 432.071 101.278 431.497 101.128C430.938 100.977 430.446 100.752 430.023 100.452C429.614 100.138 429.286 99.7558 429.04 99.3054C428.808 98.8413 428.686 98.2954 428.672 97.6675H431.006Z" fill="#E1F8E6"/>
<path d="M479.806 54.9478V94.9478" stroke="#E1F8E6"/>
<path d="M633.651 59.1567V71.9478H635.353V66.4838H639.509C639.927 66.4838 640.261 66.5495 640.512 66.6809C640.763 66.8003 640.966 66.9675 641.121 67.1825C641.276 67.3855 641.39 67.6303 641.462 67.917C641.533 68.1917 641.593 68.4843 641.641 68.7948C641.7 69.1053 641.736 69.4218 641.748 69.7443C641.76 70.0667 641.772 70.3713 641.784 70.6579C641.796 70.9326 641.82 71.1834 641.856 71.4103C641.903 71.6372 641.987 71.8164 642.106 71.9478H644.005C643.826 71.7328 643.689 71.4879 643.593 71.2133C643.51 70.9266 643.444 70.628 643.396 70.3175C643.349 70.007 643.319 69.6905 643.307 69.3681C643.295 69.0456 643.277 68.7291 643.253 68.4186C643.217 68.1081 643.163 67.8095 643.092 67.5228C643.032 67.2362 642.931 66.9794 642.787 66.7525C642.656 66.5137 642.471 66.3106 642.232 66.1434C642.005 65.9762 641.706 65.8568 641.336 65.7851V65.7493C642.112 65.5343 642.674 65.1342 643.02 64.549C643.378 63.9638 643.558 63.2831 643.558 62.5068C643.558 61.4677 643.211 60.6496 642.518 60.0525C641.838 59.4553 640.888 59.1567 639.67 59.1567H633.651ZM638.9 65.0506H635.353V60.5899H639.58C640.381 60.5899 640.96 60.7929 641.318 61.199C641.676 61.6051 641.856 62.1306 641.856 62.7755C641.856 63.2413 641.772 63.6234 641.605 63.922C641.45 64.2086 641.235 64.4415 640.96 64.6207C640.697 64.7879 640.387 64.9013 640.028 64.9611C639.67 65.0208 639.294 65.0506 638.9 65.0506ZM646.774 67.3258C646.774 66.7645 646.846 66.2688 646.989 65.8389C647.145 65.397 647.354 65.0267 647.616 64.7282C647.879 64.4296 648.184 64.2027 648.53 64.0474C648.888 63.8922 649.265 63.8145 649.659 63.8145C650.053 63.8145 650.423 63.8922 650.769 64.0474C651.128 64.2027 651.438 64.4296 651.701 64.7282C651.964 65.0267 652.167 65.397 652.31 65.8389C652.465 66.2688 652.543 66.7645 652.543 67.3258C652.543 67.8871 652.465 68.3887 652.31 68.8306C652.167 69.2606 651.964 69.6248 651.701 69.9234C651.438 70.21 651.128 70.431 650.769 70.5862C650.423 70.7415 650.053 70.8191 649.659 70.8191C649.265 70.8191 648.888 70.7415 648.53 70.5862C648.184 70.431 647.879 70.21 647.616 69.9234C647.354 69.6248 647.145 69.2606 646.989 68.8306C646.846 68.3887 646.774 67.8871 646.774 67.3258ZM645.162 67.3258C645.162 68.0065 645.258 68.6395 645.449 69.2247C645.64 69.8099 645.927 70.3235 646.309 70.7654C646.691 71.1953 647.163 71.5357 647.724 71.7865C648.285 72.0254 648.93 72.1448 649.659 72.1448C650.399 72.1448 651.044 72.0254 651.593 71.7865C652.155 71.5357 652.627 71.1953 653.009 70.7654C653.391 70.3235 653.678 69.8099 653.869 69.2247C654.06 68.6395 654.155 68.0065 654.155 67.3258C654.155 66.645 654.06 66.012 653.869 65.4268C653.678 64.8297 653.391 64.3161 653.009 63.8862C652.627 63.4443 652.155 63.0979 651.593 62.8471C651.044 62.5963 650.399 62.4709 649.659 62.4709C648.93 62.4709 648.285 62.5963 647.724 62.8471C647.163 63.0979 646.691 63.4443 646.309 63.8862C645.927 64.3161 645.64 64.8297 645.449 65.4268C645.258 66.012 645.162 66.645 645.162 67.3258ZM656.04 59.1567V71.9478H657.563V59.1567H656.04ZM666.353 66.4301H661.033C661.057 66.0718 661.134 65.7374 661.266 65.4268C661.397 65.1044 661.576 64.8237 661.803 64.5849C662.03 64.346 662.299 64.1609 662.609 64.0295C662.932 63.8862 663.29 63.8145 663.684 63.8145C664.066 63.8145 664.413 63.8862 664.723 64.0295C665.046 64.1609 665.32 64.346 665.547 64.5849C665.786 64.8118 665.971 65.0865 666.102 65.4089C666.246 65.7314 666.329 66.0718 666.353 66.4301ZM667.822 69.0098H666.317C666.186 69.6189 665.911 70.0727 665.493 70.3713C665.087 70.6698 664.562 70.8191 663.917 70.8191C663.415 70.8191 662.979 70.7355 662.609 70.5683C662.239 70.4011 661.934 70.1802 661.696 69.9055C661.457 69.6189 661.283 69.2964 661.176 68.9381C661.068 68.5679 661.021 68.1797 661.033 67.7737H667.966C667.99 67.2123 667.936 66.6211 667.804 66.0001C667.685 65.3791 667.458 64.8058 667.124 64.2803C666.801 63.7548 666.365 63.3249 665.816 62.9905C665.278 62.6441 664.598 62.4709 663.774 62.4709C663.141 62.4709 662.555 62.5904 662.018 62.8292C661.492 63.0681 661.033 63.4025 660.639 63.8324C660.256 64.2624 659.958 64.77 659.743 65.3552C659.528 65.9404 659.42 66.5853 659.42 67.29C659.444 67.9946 659.546 68.6455 659.725 69.2426C659.916 69.8398 660.197 70.3534 660.567 70.7833C660.937 71.2133 661.391 71.5477 661.928 71.7865C662.478 72.0254 663.123 72.1448 663.863 72.1448C664.914 72.1448 665.786 71.8821 666.479 71.3566C667.171 70.8311 667.619 70.0488 667.822 69.0098Z" fill="#E1F8E6"/>
<path d="M522.146 86.4478H524.705V94.965C524.705 95.4563 524.725 95.9545 524.766 96.4596C524.821 96.9646 524.957 97.4218 525.176 97.8313C525.408 98.2271 525.749 98.5547 526.199 98.814C526.664 99.0734 527.312 99.203 528.144 99.203C528.977 99.203 529.619 99.0734 530.069 98.814C530.533 98.5547 530.874 98.2271 531.093 97.8313C531.325 97.4218 531.461 96.9646 531.502 96.4596C531.557 95.9545 531.584 95.4563 531.584 94.965V86.4478H534.143V95.8044C534.143 96.7462 534 97.5651 533.713 98.2612C533.427 98.9574 533.017 99.5443 532.485 100.022C531.966 100.486 531.338 100.834 530.601 101.066C529.864 101.298 529.045 101.414 528.144 101.414C527.244 101.414 526.425 101.298 525.688 101.066C524.951 100.834 524.316 100.486 523.784 100.022C523.265 99.5443 522.862 98.9574 522.576 98.2612C522.289 97.5651 522.146 96.7462 522.146 95.8044V86.4478ZM537.085 86.4478H539.644V101.066H537.085V86.4478ZM546.653 86.0998H548.884L543.008 101.414H540.777L546.653 86.0998ZM549.817 86.4478H552.377V94.965C552.377 95.4563 552.397 95.9545 552.438 96.4596C552.493 96.9646 552.629 97.4218 552.847 97.8313C553.079 98.2271 553.421 98.5547 553.871 98.814C554.335 99.0734 554.984 99.203 555.816 99.203C556.649 99.203 557.29 99.0734 557.741 98.814C558.205 98.5547 558.546 98.2271 558.764 97.8313C558.996 97.4218 559.133 96.9646 559.174 96.4596C559.228 95.9545 559.256 95.4563 559.256 94.965V86.4478H561.815V95.8044C561.815 96.7462 561.672 97.5651 561.385 98.2612C561.098 98.9574 560.689 99.5443 560.157 100.022C559.638 100.486 559.01 100.834 558.273 101.066C557.536 101.298 556.717 101.414 555.816 101.414C554.915 101.414 554.096 101.298 553.359 101.066C552.622 100.834 551.988 100.486 551.455 100.022C550.937 99.5443 550.534 98.9574 550.247 98.2612C549.961 97.5651 549.817 96.7462 549.817 95.8044V86.4478ZM563.487 86.4478H566.538L569.855 91.6073L573.315 86.4478H576.181L571.349 93.4908L576.529 101.066H573.417L569.773 95.4768L566.067 101.066H563.139L568.319 93.4908L563.487 86.4478ZM593.374 101.066H591.163V99.633H591.122C590.808 100.247 590.351 100.691 589.75 100.964C589.15 101.223 588.515 101.353 587.846 101.353C587.014 101.353 586.283 101.209 585.655 100.923C585.041 100.623 584.529 100.22 584.12 99.7149C583.71 99.2099 583.403 98.6161 583.199 97.9337C582.994 97.2376 582.891 96.4937 582.891 95.702C582.891 94.7466 583.021 93.9208 583.28 93.2247C583.54 92.5286 583.881 91.9553 584.304 91.5049C584.741 91.0545 585.232 90.7269 585.778 90.5221C586.338 90.3038 586.904 90.1946 587.478 90.1946C587.805 90.1946 588.14 90.2287 588.481 90.2969C588.822 90.3515 589.15 90.4471 589.464 90.5836C589.778 90.7201 590.064 90.8975 590.323 91.1159C590.596 91.3206 590.822 91.5663 590.999 91.8529H591.04V86.4478H593.374V101.066ZM585.226 95.8863C585.226 96.3367 585.28 96.7803 585.389 97.2171C585.512 97.6539 585.69 98.0429 585.922 98.3841C586.167 98.7253 586.474 98.9983 586.843 99.203C587.211 99.4078 587.648 99.5102 588.153 99.5102C588.672 99.5102 589.116 99.401 589.484 99.1826C589.866 98.9642 590.173 98.6775 590.405 98.3227C590.651 97.9678 590.829 97.572 590.938 97.1352C591.061 96.6848 591.122 96.2275 591.122 95.7634C591.122 94.5896 590.856 93.6751 590.323 93.0199C589.805 92.3648 589.095 92.0372 588.194 92.0372C587.648 92.0372 587.184 92.1532 586.802 92.3853C586.433 92.6036 586.126 92.8971 585.881 93.2656C585.649 93.6205 585.478 94.03 585.369 94.4941C585.273 94.9445 585.226 95.4086 585.226 95.8863ZM603.188 94.8421C603.16 94.4736 603.079 94.1187 602.942 93.7775C602.819 93.4362 602.642 93.1428 602.41 92.8971C602.191 92.6378 601.918 92.433 601.591 92.2829C601.277 92.1191 600.922 92.0372 600.526 92.0372C600.117 92.0372 599.741 92.1123 599.4 92.2624C599.073 92.3989 598.786 92.5968 598.54 92.8562C598.308 93.1018 598.117 93.3953 597.967 93.7365C597.83 94.0778 597.755 94.4463 597.742 94.8421H603.188ZM597.742 96.3777C597.742 96.7871 597.796 97.183 597.906 97.5651C598.028 97.9473 598.206 98.2817 598.438 98.5684C598.67 98.855 598.963 99.087 599.318 99.2645C599.673 99.4283 600.096 99.5102 600.588 99.5102C601.27 99.5102 601.816 99.3668 602.226 99.0802C602.649 98.7799 602.963 98.3363 603.167 97.7494H605.378C605.256 98.3227 605.044 98.8345 604.744 99.2849C604.443 99.7354 604.082 100.118 603.659 100.431C603.236 100.732 602.758 100.957 602.226 101.107C601.707 101.271 601.161 101.353 600.588 101.353C599.755 101.353 599.018 101.216 598.376 100.943C597.735 100.67 597.189 100.288 596.739 99.7968C596.302 99.3054 595.967 98.7185 595.735 98.036C595.517 97.3536 595.408 96.6029 595.408 95.7839C595.408 95.0332 595.524 94.3234 595.756 93.6546C596.001 92.9722 596.343 92.3784 596.779 91.8734C597.23 91.3547 597.769 90.9453 598.397 90.645C599.025 90.3447 599.735 90.1946 600.526 90.1946C601.359 90.1946 602.103 90.372 602.758 90.7269C603.427 91.0681 603.979 91.5254 604.416 92.0986C604.853 92.6719 605.167 93.3339 605.358 94.0846C605.563 94.8216 605.617 95.586 605.522 96.3777H597.742ZM609.057 97.6675C609.125 98.35 609.384 98.8277 609.835 99.1007C610.285 99.3737 610.824 99.5102 611.452 99.5102C611.671 99.5102 611.916 99.4965 612.189 99.4692C612.476 99.4283 612.742 99.36 612.988 99.2645C613.234 99.1689 613.431 99.0324 613.582 98.855C613.745 98.6639 613.82 98.4182 613.807 98.1179C613.793 97.8176 613.684 97.572 613.479 97.3809C613.274 97.1898 613.008 97.0396 612.681 96.9304C612.367 96.8076 612.005 96.7052 611.596 96.6233C611.186 96.5414 610.77 96.4527 610.347 96.3572C609.91 96.2616 609.487 96.1456 609.077 96.0091C608.682 95.8726 608.32 95.6884 607.992 95.4563C607.678 95.2243 607.426 94.9308 607.235 94.576C607.044 94.2074 606.948 93.757 606.948 93.2247C606.948 92.6514 607.085 92.1737 607.358 91.7915C607.644 91.3957 607.999 91.0818 608.422 90.8497C608.859 90.604 609.337 90.4334 609.855 90.3379C610.388 90.2423 610.893 90.1946 611.37 90.1946C611.916 90.1946 612.435 90.256 612.926 90.3788C613.431 90.488 613.882 90.6723 614.278 90.9316C614.687 91.191 615.022 91.5322 615.281 91.9553C615.554 92.3648 615.725 92.863 615.793 93.4499H613.356C613.247 92.8903 612.988 92.5149 612.578 92.3238C612.183 92.1327 611.725 92.0372 611.207 92.0372C611.043 92.0372 610.845 92.0509 610.613 92.0782C610.395 92.1054 610.183 92.16 609.978 92.2419C609.787 92.3102 609.623 92.4194 609.487 92.5695C609.35 92.706 609.282 92.8903 609.282 93.1223C609.282 93.4089 609.378 93.641 609.569 93.8184C609.773 93.9959 610.033 94.146 610.347 94.2689C610.674 94.378 611.043 94.4736 611.452 94.5555C611.862 94.6374 612.285 94.7261 612.722 94.8216C613.145 94.9172 613.561 95.0332 613.971 95.1697C614.38 95.3062 614.742 95.4905 615.056 95.7225C615.383 95.9545 615.643 96.248 615.834 96.6029C616.038 96.9577 616.141 97.3945 616.141 97.9132C616.141 98.5411 615.998 99.0734 615.711 99.5102C615.424 99.9469 615.049 100.302 614.585 100.575C614.134 100.848 613.629 101.046 613.07 101.169C612.51 101.291 611.957 101.353 611.411 101.353C610.743 101.353 610.122 101.278 609.548 101.128C608.989 100.977 608.497 100.752 608.074 100.452C607.665 100.138 607.337 99.7558 607.091 99.3054C606.859 98.8413 606.737 98.2954 606.723 97.6675H609.057ZM617.974 86.4478H620.308V88.659H617.974V86.4478ZM617.974 90.4812H620.308V101.066H617.974V90.4812ZM632.638 100.513C632.638 102.11 632.188 103.298 631.287 104.076C630.399 104.867 629.116 105.263 627.438 105.263C626.905 105.263 626.366 105.209 625.82 105.1C625.288 104.99 624.796 104.806 624.346 104.547C623.909 104.287 623.541 103.946 623.24 103.523C622.94 103.1 622.763 102.581 622.708 101.967H625.042C625.11 102.295 625.226 102.561 625.39 102.765C625.554 102.97 625.745 103.127 625.963 103.236C626.196 103.359 626.448 103.434 626.721 103.462C626.994 103.503 627.281 103.523 627.581 103.523C628.523 103.523 629.212 103.291 629.649 102.827C630.086 102.363 630.304 101.694 630.304 100.82V99.203H630.263C629.935 99.79 629.485 100.247 628.912 100.575C628.352 100.902 627.745 101.066 627.09 101.066C626.243 101.066 625.52 100.923 624.919 100.636C624.332 100.336 623.841 99.9333 623.445 99.4283C623.063 98.9096 622.783 98.3158 622.606 97.647C622.428 96.9782 622.34 96.2616 622.34 95.4973C622.34 94.7875 622.449 94.1119 622.667 93.4704C622.886 92.8289 623.2 92.2692 623.609 91.7915C624.018 91.3001 624.517 90.9111 625.104 90.6245C625.704 90.3379 626.38 90.1946 627.13 90.1946C627.799 90.1946 628.414 90.3379 628.973 90.6245C629.533 90.8975 629.963 91.3343 630.263 91.9348H630.304V90.4812H632.638V100.513ZM627.458 99.2235C627.977 99.2235 628.414 99.1211 628.768 98.9164C629.137 98.698 629.43 98.4182 629.649 98.077C629.881 97.7221 630.045 97.3263 630.14 96.8895C630.249 96.4391 630.304 95.9887 630.304 95.5382C630.304 95.0878 630.249 94.651 630.14 94.2279C630.031 93.8048 629.86 93.4294 629.628 93.1018C629.41 92.7743 629.116 92.5149 628.748 92.3238C628.393 92.1327 627.963 92.0372 627.458 92.0372C626.939 92.0372 626.503 92.1464 626.148 92.3648C625.793 92.5832 625.506 92.8698 625.288 93.2247C625.069 93.5659 624.912 93.9617 624.817 94.4122C624.721 94.8489 624.674 95.2857 624.674 95.7225C624.674 96.1593 624.728 96.5892 624.837 97.0123C624.947 97.4218 625.11 97.7903 625.329 98.1179C625.561 98.4455 625.847 98.7117 626.189 98.9164C626.544 99.1211 626.967 99.2235 627.458 99.2235ZM634.988 90.4812H637.199V92.0372L637.24 92.0782C637.595 91.4912 638.059 91.034 638.632 90.7064C639.205 90.3652 639.84 90.1946 640.536 90.1946C641.696 90.1946 642.611 90.4948 643.28 91.0954C643.949 91.696 644.283 92.5968 644.283 93.798V101.066H641.949V94.4122C641.922 93.5796 641.744 92.979 641.417 92.6105C641.089 92.2283 640.577 92.0372 639.881 92.0372C639.485 92.0372 639.13 92.1123 638.816 92.2624C638.502 92.3989 638.236 92.5968 638.018 92.8562C637.8 93.1018 637.629 93.3953 637.506 93.7365C637.383 94.0778 637.322 94.4395 637.322 94.8216V101.066H634.988V90.4812ZM646.929 98.3022H649.774V101.066C649.761 101.912 649.501 102.622 648.996 103.195C648.491 103.769 647.829 104.137 647.01 104.301V103.052C647.461 102.943 647.795 102.69 648.014 102.295C648.246 101.912 648.355 101.503 648.341 101.066H646.929V98.3022ZM658.305 86.4478H660.864V94.965C660.864 95.4563 660.884 95.9545 660.925 96.4596C660.98 96.9646 661.116 97.4218 661.335 97.8313C661.567 98.2271 661.908 98.5547 662.358 98.814C662.822 99.0734 663.471 99.203 664.303 99.203C665.136 99.203 665.778 99.0734 666.228 98.814C666.692 98.5547 667.033 98.2271 667.252 97.8313C667.484 97.4218 667.62 96.9646 667.661 96.4596C667.716 95.9545 667.743 95.4563 667.743 94.965V86.4478H670.302V95.8044C670.302 96.7462 670.159 97.5651 669.872 98.2612C669.586 98.9574 669.176 99.5443 668.644 100.022C668.125 100.486 667.497 100.834 666.76 101.066C666.023 101.298 665.204 101.414 664.303 101.414C663.403 101.414 662.584 101.298 661.847 101.066C661.11 100.834 660.475 100.486 659.943 100.022C659.424 99.5443 659.021 98.9574 658.735 98.2612C658.448 97.5651 658.305 96.7462 658.305 95.8044V86.4478ZM671.975 86.4478H675.025L678.342 91.6073L681.802 86.4478H684.668L679.837 93.4908L685.016 101.066H681.904L678.26 95.4768L674.554 101.066H671.627L676.806 93.4908L671.975 86.4478ZM692.218 86.4478H699.2C700.81 86.4478 702.018 86.7959 702.824 87.492C703.629 88.1881 704.032 89.1572 704.032 90.3993C704.032 91.0954 703.929 91.6755 703.725 92.1396C703.52 92.59 703.281 92.9585 703.008 93.2452C702.735 93.5181 702.462 93.7161 702.189 93.8389C701.93 93.9617 701.739 94.0436 701.616 94.0846V94.1255C701.834 94.1528 702.066 94.2211 702.312 94.3303C702.571 94.4395 702.81 94.6169 703.028 94.8626C703.247 95.0946 703.424 95.4017 703.561 95.7839C703.711 96.1661 703.786 96.6438 703.786 97.2171C703.786 98.077 703.847 98.8618 703.97 99.5716C704.107 100.268 704.311 100.766 704.584 101.066H701.841C701.65 100.752 701.534 100.404 701.493 100.022C701.466 99.6398 701.452 99.2713 701.452 98.9164C701.452 98.2476 701.411 97.6743 701.329 97.1966C701.247 96.7052 701.097 96.3026 700.879 95.9887C700.66 95.6611 700.36 95.4222 699.978 95.2721C699.609 95.1219 699.132 95.0469 698.545 95.0469H694.777V101.066H692.218V86.4478ZM694.777 93.1018H698.975C699.794 93.1018 700.415 92.9108 700.838 92.5286C701.261 92.1327 701.472 91.5458 701.472 90.7678C701.472 90.3038 701.404 89.9284 701.268 89.6418C701.131 89.3415 700.94 89.1094 700.694 88.9457C700.462 88.7819 700.189 88.6727 699.875 88.6181C699.575 88.5635 699.261 88.5362 698.934 88.5362H694.777V93.1018ZM713.575 94.8421C713.547 94.4736 713.465 94.1187 713.329 93.7775C713.206 93.4362 713.029 93.1428 712.796 92.8971C712.578 92.6378 712.305 92.433 711.978 92.2829C711.664 92.1191 711.309 92.0372 710.913 92.0372C710.503 92.0372 710.128 92.1123 709.787 92.2624C709.459 92.3989 709.173 92.5968 708.927 92.8562C708.695 93.1018 708.504 93.3953 708.354 93.7365C708.217 94.0778 708.142 94.4463 708.128 94.8421H713.575ZM708.128 96.3777C708.128 96.7871 708.183 97.183 708.292 97.5651C708.415 97.9473 708.593 98.2817 708.825 98.5684C709.057 98.855 709.35 99.087 709.705 99.2645C710.06 99.4283 710.483 99.5102 710.974 99.5102C711.657 99.5102 712.203 99.3668 712.612 99.0802C713.035 98.7799 713.349 98.3363 713.554 97.7494H715.765C715.642 98.3227 715.431 98.8345 715.131 99.2849C714.83 99.7354 714.469 100.118 714.045 100.431C713.622 100.732 713.145 100.957 712.612 101.107C712.094 101.271 711.548 101.353 710.974 101.353C710.142 101.353 709.405 101.216 708.763 100.943C708.122 100.67 707.576 100.288 707.125 99.7968C706.688 99.3054 706.354 98.7185 706.122 98.036C705.904 97.3536 705.794 96.6029 705.794 95.7839C705.794 95.0332 705.91 94.3234 706.143 93.6546C706.388 92.9722 706.729 92.3784 707.166 91.8734C707.617 91.3547 708.156 90.9453 708.784 90.645C709.411 90.3447 710.121 90.1946 710.913 90.1946C711.746 90.1946 712.489 90.372 713.145 90.7269C713.813 91.0681 714.366 91.5254 714.803 92.0986C715.24 92.6719 715.554 93.3339 715.745 94.0846C715.949 94.8216 716.004 95.586 715.909 96.3777H708.128ZM719.444 97.6675C719.512 98.35 719.771 98.8277 720.222 99.1007C720.672 99.3737 721.211 99.5102 721.839 99.5102C722.057 99.5102 722.303 99.4965 722.576 99.4692C722.863 99.4283 723.129 99.36 723.375 99.2645C723.62 99.1689 723.818 99.0324 723.968 98.855C724.132 98.6639 724.207 98.4182 724.194 98.1179C724.18 97.8176 724.071 97.572 723.866 97.3809C723.661 97.1898 723.395 97.0396 723.067 96.9304C722.754 96.8076 722.392 96.7052 721.982 96.6233C721.573 96.5414 721.157 96.4527 720.733 96.3572C720.297 96.2616 719.874 96.1456 719.464 96.0091C719.068 95.8726 718.707 95.6884 718.379 95.4563C718.065 95.2243 717.813 94.9308 717.621 94.576C717.43 94.2074 717.335 93.757 717.335 93.2247C717.335 92.6514 717.471 92.1737 717.744 91.7915C718.031 91.3957 718.386 91.0818 718.809 90.8497C719.246 90.604 719.723 90.4334 720.242 90.3379C720.774 90.2423 721.279 90.1946 721.757 90.1946C722.303 90.1946 722.822 90.256 723.313 90.3788C723.818 90.488 724.269 90.6723 724.664 90.9316C725.074 91.191 725.408 91.5322 725.668 91.9553C725.941 92.3648 726.111 92.863 726.18 93.4499H723.743C723.634 92.8903 723.375 92.5149 722.965 92.3238C722.569 92.1327 722.112 92.0372 721.593 92.0372C721.43 92.0372 721.232 92.0509 721 92.0782C720.781 92.1054 720.57 92.16 720.365 92.2419C720.174 92.3102 720.01 92.4194 719.874 92.5695C719.737 92.706 719.669 92.8903 719.669 93.1223C719.669 93.4089 719.764 93.641 719.955 93.8184C720.16 93.9959 720.42 94.146 720.733 94.2689C721.061 94.378 721.43 94.4736 721.839 94.5555C722.249 94.6374 722.672 94.7261 723.108 94.8216C723.532 94.9172 723.948 95.0332 724.357 95.1697C724.767 95.3062 725.129 95.4905 725.442 95.7225C725.77 95.9545 726.029 96.248 726.22 96.6029C726.425 96.9577 726.528 97.3945 726.528 97.9132C726.528 98.5411 726.384 99.0734 726.098 99.5102C725.811 99.9469 725.436 100.302 724.972 100.575C724.521 100.848 724.016 101.046 723.456 101.169C722.897 101.291 722.344 101.353 721.798 101.353C721.129 101.353 720.508 101.278 719.935 101.128C719.375 100.977 718.884 100.752 718.461 100.452C718.051 100.138 717.724 99.7558 717.478 99.3054C717.246 98.8413 717.123 98.2954 717.11 97.6675H719.444ZM735.568 94.8421C735.541 94.4736 735.459 94.1187 735.322 93.7775C735.199 93.4362 735.022 93.1428 734.79 92.8971C734.571 92.6378 734.299 92.433 733.971 92.2829C733.657 92.1191 733.302 92.0372 732.906 92.0372C732.497 92.0372 732.121 92.1123 731.78 92.2624C731.453 92.3989 731.166 92.5968 730.92 92.8562C730.688 93.1018 730.497 93.3953 730.347 93.7365C730.211 94.0778 730.135 94.4463 730.122 94.8421H735.568ZM730.122 96.3777C730.122 96.7871 730.176 97.183 730.286 97.5651C730.408 97.9473 730.586 98.2817 730.818 98.5684C731.05 98.855 731.343 99.087 731.698 99.2645C732.053 99.4283 732.476 99.5102 732.968 99.5102C733.65 99.5102 734.196 99.3668 734.606 99.0802C735.029 98.7799 735.343 98.3363 735.547 97.7494H737.759C737.636 98.3227 737.424 98.8345 737.124 99.2849C736.824 99.7354 736.462 100.118 736.039 100.431C735.616 100.732 735.138 100.957 734.606 101.107C734.087 101.271 733.541 101.353 732.968 101.353C732.135 101.353 731.398 101.216 730.757 100.943C730.115 100.67 729.569 100.288 729.119 99.7968C728.682 99.3054 728.347 98.7185 728.115 98.036C727.897 97.3536 727.788 96.6029 727.788 95.7839C727.788 95.0332 727.904 94.3234 728.136 93.6546C728.382 92.9722 728.723 92.3784 729.16 91.8734C729.61 91.3547 730.149 90.9453 730.777 90.645C731.405 90.3447 732.115 90.1946 732.906 90.1946C733.739 90.1946 734.483 90.372 735.138 90.7269C735.807 91.0681 736.36 91.5254 736.796 92.0986C737.233 92.6719 737.547 93.3339 737.738 94.0846C737.943 94.8216 737.997 95.586 737.902 96.3777H730.122ZM748.541 98.7117C748.541 98.9983 748.576 99.203 748.644 99.3259C748.726 99.4487 748.876 99.5102 749.094 99.5102C749.162 99.5102 749.244 99.5102 749.34 99.5102C749.435 99.5102 749.545 99.4965 749.667 99.4692V101.087C749.586 101.114 749.476 101.141 749.34 101.169C749.217 101.209 749.087 101.244 748.951 101.271C748.814 101.298 748.678 101.319 748.541 101.332C748.405 101.346 748.289 101.353 748.193 101.353C747.716 101.353 747.32 101.257 747.006 101.066C746.692 100.875 746.487 100.541 746.392 100.063C745.928 100.513 745.354 100.841 744.672 101.046C744.003 101.25 743.355 101.353 742.727 101.353C742.249 101.353 741.792 101.285 741.355 101.148C740.918 101.025 740.529 100.841 740.188 100.595C739.86 100.336 739.594 100.015 739.39 99.633C739.199 99.2372 739.103 98.7799 739.103 98.2612C739.103 97.6061 739.219 97.0738 739.451 96.6643C739.697 96.2548 740.011 95.9341 740.393 95.702C740.789 95.47 741.225 95.3062 741.703 95.2106C742.195 95.1015 742.686 95.0196 743.177 94.965C743.6 94.8831 744.003 94.8285 744.385 94.8012C744.767 94.7602 745.102 94.6988 745.388 94.6169C745.689 94.535 745.921 94.4122 746.085 94.2484C746.262 94.0709 746.351 93.8116 746.351 93.4704C746.351 93.1701 746.276 92.9244 746.125 92.7333C745.989 92.5422 745.812 92.3989 745.593 92.3034C745.388 92.1942 745.156 92.1259 744.897 92.0986C744.638 92.0577 744.392 92.0372 744.16 92.0372C743.505 92.0372 742.966 92.1737 742.543 92.4467C742.119 92.7197 741.881 93.1428 741.826 93.7161H739.492C739.533 93.0336 739.697 92.4672 739.983 92.0167C740.27 91.5663 740.632 91.2046 741.068 90.9316C741.519 90.6586 742.024 90.4675 742.584 90.3583C743.143 90.2492 743.716 90.1946 744.303 90.1946C744.822 90.1946 745.334 90.2492 745.839 90.3583C746.344 90.4675 746.794 90.645 747.19 90.8907C747.6 91.1364 747.927 91.4571 748.173 91.8529C748.419 92.2351 748.541 92.706 748.541 93.2656V98.7117ZM746.207 95.7634C745.853 95.9955 745.416 96.1388 744.897 96.1934C744.378 96.2343 743.86 96.3026 743.341 96.3981C743.095 96.4391 742.856 96.5005 742.624 96.5824C742.392 96.6506 742.188 96.753 742.01 96.8895C741.833 97.0123 741.689 97.183 741.58 97.4013C741.485 97.6061 741.437 97.8586 741.437 98.1589C741.437 98.4182 741.512 98.6366 741.662 98.814C741.812 98.9915 741.99 99.1348 742.195 99.244C742.413 99.3395 742.645 99.4078 742.891 99.4487C743.15 99.4897 743.382 99.5102 743.587 99.5102C743.846 99.5102 744.126 99.476 744.426 99.4078C744.726 99.3395 745.006 99.2235 745.266 99.0597C745.539 98.8959 745.764 98.6912 745.941 98.4455C746.119 98.1862 746.207 97.8722 746.207 97.5037V95.7634ZM751.053 90.4812H753.244V92.5286H753.284C753.353 92.2419 753.482 91.9621 753.673 91.6891C753.878 91.4162 754.117 91.1705 754.39 90.9521C754.677 90.7201 754.991 90.5358 755.332 90.3993C755.673 90.2628 756.021 90.1946 756.376 90.1946C756.649 90.1946 756.833 90.2014 756.929 90.215C757.038 90.2287 757.147 90.2423 757.256 90.256V92.5081C757.093 92.4808 756.922 92.4603 756.745 92.4467C756.581 92.4194 756.417 92.4057 756.253 92.4057C755.857 92.4057 755.482 92.4876 755.127 92.6514C754.786 92.8016 754.486 93.0336 754.226 93.3475C753.967 93.6478 753.762 94.0232 753.612 94.4736C753.462 94.924 753.387 95.4427 753.387 96.0296V101.066H751.053V90.4812ZM765.036 94.0232C764.941 93.368 764.674 92.8766 764.238 92.549C763.815 92.2078 763.275 92.0372 762.62 92.0372C762.32 92.0372 761.999 92.0918 761.658 92.201C761.317 92.2965 761.003 92.4876 760.716 92.7743C760.43 93.0472 760.191 93.4362 760 93.9413C759.808 94.4326 759.713 95.081 759.713 95.8863C759.713 96.3231 759.761 96.7598 759.856 97.1966C759.965 97.6334 760.129 98.0224 760.348 98.3636C760.58 98.7048 760.873 98.9847 761.228 99.203C761.583 99.4078 762.013 99.5102 762.518 99.5102C763.2 99.5102 763.76 99.2986 764.197 98.8755C764.647 98.4523 764.927 97.8586 765.036 97.0942H767.37C767.152 98.4728 766.626 99.5306 765.794 100.268C764.975 100.991 763.883 101.353 762.518 101.353C761.685 101.353 760.948 101.216 760.307 100.943C759.679 100.657 759.146 100.275 758.71 99.7968C758.273 99.3054 757.939 98.7253 757.706 98.0565C757.488 97.3877 757.379 96.6643 757.379 95.8863C757.379 95.0946 757.488 94.3507 757.706 93.6546C757.925 92.9585 758.252 92.358 758.689 91.8529C759.126 91.3343 759.665 90.9316 760.307 90.645C760.962 90.3447 761.726 90.1946 762.6 90.1946C763.214 90.1946 763.794 90.2765 764.34 90.4402C764.9 90.5904 765.391 90.8224 765.814 91.1364C766.251 91.4503 766.606 91.8461 766.879 92.3238C767.152 92.8016 767.316 93.368 767.37 94.0232H765.036ZM769.267 86.4478H771.601V91.8734H771.642C771.929 91.3957 772.352 90.9999 772.912 90.6859C773.485 90.3583 774.12 90.1946 774.816 90.1946C775.976 90.1946 776.89 90.4948 777.559 91.0954C778.228 91.696 778.562 92.5968 778.562 93.798V101.066H776.228V94.4122C776.201 93.5796 776.024 92.979 775.696 92.6105C775.369 92.2283 774.857 92.0372 774.161 92.0372C773.765 92.0372 773.41 92.1123 773.096 92.2624C772.782 92.3989 772.516 92.5968 772.297 92.8562C772.079 93.1018 771.908 93.3953 771.786 93.7365C771.663 94.0778 771.601 94.4395 771.601 94.8216V101.066H769.267V86.4478Z" fill="#E1F8E6"/>
<path d="M821.701 54.9478V94.9478" stroke="#E1F8E6"/>
<path d="M923.796 71.9478L927.217 59.1567H925.515L922.918 69.798H922.882L920.051 59.1567H918.206L915.34 69.798H915.304L912.796 59.1567H911.058L914.337 71.9478H916.11L919.066 61.199H919.102L922.022 71.9478H923.796ZM933.991 66.4301H928.671C928.695 66.0718 928.772 65.7374 928.904 65.4268C929.035 65.1044 929.214 64.8237 929.441 64.5849C929.668 64.346 929.937 64.1609 930.247 64.0295C930.57 63.8862 930.928 63.8145 931.322 63.8145C931.704 63.8145 932.051 63.8862 932.361 64.0295C932.684 64.1609 932.958 64.346 933.185 64.5849C933.424 64.8118 933.609 65.0865 933.741 65.4089C933.884 65.7314 933.968 66.0718 933.991 66.4301ZM935.46 69.0098H933.956C933.824 69.6189 933.55 70.0727 933.132 70.3713C932.725 70.6698 932.2 70.8191 931.555 70.8191C931.053 70.8191 930.618 70.7355 930.247 70.5683C929.877 70.4011 929.573 70.1802 929.334 69.9055C929.095 69.6189 928.922 69.2964 928.814 68.9381C928.707 68.5679 928.659 68.1797 928.671 67.7737H935.604C935.628 67.2123 935.574 66.6211 935.443 66.0001C935.323 65.3791 935.096 64.8058 934.762 64.2803C934.439 63.7548 934.003 63.3249 933.454 62.9905C932.917 62.6441 932.236 62.4709 931.412 62.4709C930.779 62.4709 930.194 62.5904 929.656 62.8292C929.131 63.0681 928.671 63.4025 928.277 63.8324C927.895 64.2624 927.596 64.77 927.381 65.3552C927.166 65.9404 927.058 66.5853 927.058 67.29C927.082 67.9946 927.184 68.6455 927.363 69.2426C927.554 69.8398 927.835 70.3534 928.205 70.7833C928.575 71.2133 929.029 71.5477 929.567 71.7865C930.116 72.0254 930.761 72.1448 931.501 72.1448C932.552 72.1448 933.424 71.8821 934.117 71.3566C934.81 70.8311 935.257 70.0488 935.46 69.0098ZM937.236 59.1567V71.9478H938.759V70.7116H938.795C938.962 70.9863 939.165 71.2192 939.404 71.4103C939.654 71.5895 939.917 71.7328 940.192 71.8403C940.467 71.9478 940.741 72.0254 941.016 72.0732C941.303 72.1209 941.559 72.1448 941.786 72.1448C942.491 72.1448 943.106 72.0194 943.631 71.7686C944.169 71.5178 944.611 71.1774 944.957 70.7475C945.315 70.3056 945.578 69.792 945.745 69.2068C945.925 68.6216 946.014 68.0006 946.014 67.3437C946.014 66.6868 945.925 66.0658 945.745 65.4806C945.566 64.8954 945.298 64.3818 944.939 63.9399C944.593 63.4861 944.151 63.1278 943.614 62.8651C943.088 62.6023 942.467 62.4709 941.75 62.4709C941.105 62.4709 940.514 62.5904 939.977 62.8292C939.439 63.0561 939.045 63.4264 938.795 63.9399H938.759V59.1567H937.236ZM944.402 67.2362C944.402 67.6901 944.354 68.1319 944.258 68.5619C944.163 68.9918 944.008 69.374 943.793 69.7084C943.578 70.0428 943.291 70.3116 942.933 70.5146C942.586 70.7176 942.151 70.8191 941.625 70.8191C941.1 70.8191 940.652 70.7236 940.281 70.5325C939.911 70.3295 939.607 70.0667 939.368 69.7443C939.141 69.4218 938.974 69.0516 938.866 68.6336C938.759 68.2036 938.705 67.7617 938.705 67.3079C938.705 66.8779 938.753 66.4539 938.848 66.0359C938.956 65.6179 939.123 65.2477 939.35 64.9252C939.577 64.5908 939.869 64.3221 940.228 64.1191C940.586 63.916 941.022 63.8145 941.535 63.8145C942.025 63.8145 942.449 63.9101 942.807 64.1012C943.178 64.2922 943.476 64.549 943.703 64.8715C943.942 65.1939 944.115 65.5642 944.223 65.9822C944.342 66.3883 944.402 66.8063 944.402 67.2362ZM948.733 69.0277H947.21C947.234 69.6009 947.354 70.0906 947.569 70.4967C947.784 70.8908 948.07 71.2133 948.429 71.4641C948.787 71.7029 949.199 71.8761 949.665 71.9836C950.13 72.0911 950.62 72.1448 951.134 72.1448C951.599 72.1448 952.065 72.097 952.531 72.0015C953.009 71.9179 953.433 71.7626 953.803 71.5357C954.185 71.3088 954.49 71.0102 954.717 70.64C954.955 70.2698 955.075 69.804 955.075 69.2426C955.075 68.8008 954.985 68.4305 954.806 68.1319C954.639 67.8334 954.412 67.5885 954.125 67.3974C953.851 67.1944 953.528 67.0332 953.158 66.9138C952.8 66.7943 952.429 66.6928 952.047 66.6092C951.689 66.5256 951.331 66.448 950.972 66.3763C950.614 66.2927 950.292 66.1972 950.005 66.0897C949.718 65.9702 949.48 65.8269 949.288 65.6597C949.109 65.4806 949.02 65.2596 949.02 64.9969C949.02 64.758 949.079 64.5669 949.199 64.4236C949.318 64.2684 949.474 64.1489 949.665 64.0653C949.856 63.9698 950.065 63.9041 950.292 63.8683C950.53 63.8324 950.763 63.8145 950.99 63.8145C951.241 63.8145 951.486 63.8444 951.725 63.9041C951.976 63.9519 952.203 64.0355 952.406 64.1549C952.609 64.2743 952.776 64.4356 952.907 64.6386C953.039 64.8297 953.116 65.0745 953.14 65.3731H954.663C954.627 64.8118 954.508 64.346 954.305 63.9758C954.101 63.5936 953.827 63.295 953.48 63.08C953.146 62.8531 952.758 62.6978 952.316 62.6142C951.874 62.5187 951.39 62.4709 950.865 62.4709C950.459 62.4709 950.047 62.5247 949.629 62.6322C949.223 62.7277 948.852 62.883 948.518 63.0979C948.196 63.301 947.927 63.5697 947.712 63.9041C947.509 64.2385 947.407 64.6386 947.407 65.1044C947.407 65.7015 947.557 66.1673 947.855 66.5017C948.154 66.8361 948.524 67.0989 948.966 67.29C949.42 67.4691 949.909 67.6124 950.435 67.7199C950.96 67.8155 951.444 67.9289 951.886 68.0603C952.34 68.1797 952.716 68.3409 953.015 68.544C953.313 68.747 953.463 69.0456 953.463 69.4397C953.463 69.7263 953.391 69.9652 953.248 70.1563C953.104 70.3354 952.919 70.4728 952.692 70.5683C952.477 70.6639 952.238 70.7296 951.976 70.7654C951.713 70.8012 951.462 70.8191 951.223 70.8191C950.913 70.8191 950.608 70.7893 950.31 70.7296C950.023 70.6698 949.76 70.5743 949.521 70.4429C949.294 70.2996 949.109 70.1145 948.966 69.8876C948.823 69.6487 948.745 69.3621 948.733 69.0277ZM958.371 61.0198V59.1567H956.848V61.0198H958.371ZM956.848 62.6859V71.9478H958.371V62.6859H956.848ZM962.844 62.6859V59.9091H961.321V62.6859H959.745V64.0295H961.321V69.9234C961.321 70.3534 961.363 70.6997 961.447 70.9625C961.53 71.2252 961.656 71.4282 961.823 71.5715C962.002 71.7149 962.229 71.8164 962.504 71.8761C962.79 71.9239 963.131 71.9478 963.525 71.9478H964.689V70.6042H963.991C963.752 70.6042 963.555 70.5982 963.399 70.5862C963.256 70.5624 963.143 70.5206 963.059 70.4608C962.975 70.4011 962.916 70.3175 962.88 70.21C962.856 70.1025 962.844 69.9592 962.844 69.7801V64.0295H964.689V62.6859H962.844ZM972.812 66.4301H967.492C967.515 66.0718 967.593 65.7374 967.724 65.4268C967.856 65.1044 968.035 64.8237 968.262 64.5849C968.489 64.346 968.758 64.1609 969.068 64.0295C969.391 63.8862 969.749 63.8145 970.143 63.8145C970.525 63.8145 970.871 63.8862 971.182 64.0295C971.504 64.1609 971.779 64.346 972.006 64.5849C972.245 64.8118 972.43 65.0865 972.561 65.4089C972.705 65.7314 972.788 66.0718 972.812 66.4301ZM974.281 69.0098H972.776C972.645 69.6189 972.37 70.0727 971.952 70.3713C971.546 70.6698 971.021 70.8191 970.376 70.8191C969.874 70.8191 969.438 70.7355 969.068 70.5683C968.698 70.4011 968.393 70.1802 968.154 69.9055C967.916 69.6189 967.742 69.2964 967.635 68.9381C967.527 68.5679 967.48 68.1797 967.492 67.7737H974.425C974.448 67.2123 974.395 66.6211 974.263 66.0001C974.144 65.3791 973.917 64.8058 973.583 64.2803C973.26 63.7548 972.824 63.3249 972.275 62.9905C971.737 62.6441 971.057 62.4709 970.233 62.4709C969.6 62.4709 969.014 62.5904 968.477 62.8292C967.951 63.0681 967.492 63.4025 967.097 63.8324C966.715 64.2624 966.417 64.77 966.202 65.3552C965.987 65.9404 965.879 66.5853 965.879 67.29C965.903 67.9946 966.005 68.6455 966.184 69.2426C966.375 69.8398 966.656 70.3534 967.026 70.7833C967.396 71.2133 967.85 71.5477 968.387 71.7865C968.937 72.0254 969.582 72.1448 970.322 72.1448C971.373 72.1448 972.245 71.8821 972.938 71.3566C973.63 70.8311 974.078 70.0488 974.281 69.0098Z" fill="#E1F8E6"/>
<path d="M862.547 86.4478H865.208L868.873 98.0156H868.914L872.661 86.4478H875.261L870.265 101.066H867.419L862.547 86.4478ZM876.655 86.4478H878.989V88.659H876.655V86.4478ZM876.655 90.4812H878.989V101.066H876.655V90.4812ZM883.293 97.6675C883.361 98.35 883.62 98.8277 884.071 99.1007C884.521 99.3737 885.06 99.5102 885.688 99.5102C885.907 99.5102 886.152 99.4965 886.425 99.4692C886.712 99.4283 886.978 99.36 887.224 99.2645C887.469 99.1689 887.667 99.0324 887.817 98.855C887.981 98.6639 888.056 98.4182 888.043 98.1179C888.029 97.8176 887.92 97.572 887.715 97.3809C887.51 97.1898 887.244 97.0396 886.917 96.9304C886.603 96.8076 886.241 96.7052 885.832 96.6233C885.422 96.5414 885.006 96.4527 884.583 96.3572C884.146 96.2616 883.723 96.1456 883.313 96.0091C882.917 95.8726 882.556 95.6884 882.228 95.4563C881.914 95.2243 881.662 94.9308 881.471 94.576C881.28 94.2074 881.184 93.757 881.184 93.2247C881.184 92.6514 881.32 92.1737 881.593 91.7915C881.88 91.3957 882.235 91.0818 882.658 90.8497C883.095 90.604 883.573 90.4334 884.091 90.3379C884.624 90.2423 885.129 90.1946 885.606 90.1946C886.152 90.1946 886.671 90.256 887.162 90.3788C887.667 90.488 888.118 90.6723 888.514 90.9316C888.923 91.191 889.257 91.5322 889.517 91.9553C889.79 92.3648 889.96 92.863 890.029 93.4499H887.592C887.483 92.8903 887.224 92.5149 886.814 92.3238C886.418 92.1327 885.961 92.0372 885.443 92.0372C885.279 92.0372 885.081 92.0509 884.849 92.0782C884.63 92.1054 884.419 92.16 884.214 92.2419C884.023 92.3102 883.859 92.4194 883.723 92.5695C883.586 92.706 883.518 92.8903 883.518 93.1223C883.518 93.4089 883.614 93.641 883.805 93.8184C884.009 93.9959 884.269 94.146 884.583 94.2689C884.91 94.378 885.279 94.4736 885.688 94.5555C886.098 94.6374 886.521 94.7261 886.958 94.8216C887.381 94.9172 887.797 95.0332 888.207 95.1697C888.616 95.3062 888.978 95.4905 889.292 95.7225C889.619 95.9545 889.879 96.248 890.07 96.6029C890.274 96.9577 890.377 97.3945 890.377 97.9132C890.377 98.5411 890.233 99.0734 889.947 99.5102C889.66 99.9469 889.285 100.302 888.821 100.575C888.37 100.848 887.865 101.046 887.306 101.169C886.746 101.291 886.193 101.353 885.647 101.353C884.978 101.353 884.357 101.278 883.784 101.128C883.225 100.977 882.733 100.752 882.31 100.452C881.901 100.138 881.573 99.7558 881.327 99.3054C881.095 98.8413 880.972 98.2954 880.959 97.6675H883.293ZM892.21 86.4478H894.544V88.659H892.21V86.4478ZM892.21 90.4812H894.544V101.066H892.21V90.4812ZM896.023 90.4812H897.783V87.3077H900.117V90.4812H902.226V92.2215H900.117V97.8722C900.117 98.1179 900.124 98.3295 900.138 98.5069C900.165 98.6844 900.213 98.8345 900.281 98.9574C900.363 99.0802 900.479 99.1757 900.629 99.244C900.779 99.2986 900.984 99.3259 901.244 99.3259C901.407 99.3259 901.571 99.3259 901.735 99.3259C901.899 99.3122 902.062 99.2849 902.226 99.244V101.046C901.967 101.073 901.714 101.1 901.469 101.128C901.223 101.155 900.971 101.169 900.711 101.169C900.097 101.169 899.599 101.114 899.217 101.005C898.848 100.882 898.555 100.711 898.336 100.493C898.132 100.261 897.988 99.9742 897.906 99.633C897.838 99.2918 897.797 98.9028 897.783 98.466V92.2215H896.023V90.4812ZM908.498 86.4478H911.098L913.739 97.6266H913.78L916.728 86.4478H919.349L922.215 97.6266H922.256L924.979 86.4478H927.58L923.546 101.066H920.946L918.018 89.8875H917.977L914.988 101.066H912.347L908.498 86.4478ZM935.846 94.8421C935.819 94.4736 935.737 94.1187 935.6 93.7775C935.478 93.4362 935.3 93.1428 935.068 92.8971C934.85 92.6378 934.577 92.433 934.249 92.2829C933.935 92.1191 933.58 92.0372 933.184 92.0372C932.775 92.0372 932.4 92.1123 932.058 92.2624C931.731 92.3989 931.444 92.5968 931.199 92.8562C930.966 93.1018 930.775 93.3953 930.625 93.7365C930.489 94.0778 930.414 94.4463 930.4 94.8421H935.846ZM930.4 96.3777C930.4 96.7871 930.455 97.183 930.564 97.5651C930.687 97.9473 930.864 98.2817 931.096 98.5684C931.328 98.855 931.622 99.087 931.977 99.2645C932.331 99.4283 932.755 99.5102 933.246 99.5102C933.928 99.5102 934.474 99.3668 934.884 99.0802C935.307 98.7799 935.621 98.3363 935.826 97.7494H938.037C937.914 98.3227 937.702 98.8345 937.402 99.2849C937.102 99.7354 936.74 100.118 936.317 100.431C935.894 100.732 935.416 100.957 934.884 101.107C934.365 101.271 933.819 101.353 933.246 101.353C932.413 101.353 931.676 101.216 931.035 100.943C930.393 100.67 929.847 100.288 929.397 99.7968C928.96 99.3054 928.626 98.7185 928.394 98.036C928.175 97.3536 928.066 96.6029 928.066 95.7839C928.066 95.0332 928.182 94.3234 928.414 93.6546C928.66 92.9722 929.001 92.3784 929.438 91.8734C929.888 91.3547 930.427 90.9453 931.055 90.645C931.683 90.3447 932.393 90.1946 933.184 90.1946C934.017 90.1946 934.761 90.372 935.416 90.7269C936.085 91.0681 936.638 91.5254 937.074 92.0986C937.511 92.6719 937.825 93.3339 938.016 94.0846C938.221 94.8216 938.276 95.586 938.18 96.3777H930.4ZM940.016 86.4478H942.35V91.8529H942.391C942.555 91.5936 942.753 91.3616 942.985 91.1568C943.217 90.9521 943.469 90.7815 943.742 90.645C944.029 90.4948 944.322 90.3856 944.622 90.3174C944.936 90.2355 945.244 90.1946 945.544 90.1946C946.376 90.1946 947.1 90.3447 947.714 90.645C948.342 90.9316 948.861 91.3343 949.27 91.8529C949.679 92.358 949.987 92.9517 950.191 93.6342C950.396 94.3166 950.498 95.0469 950.498 95.8249C950.498 96.5346 950.403 97.2239 950.212 97.8927C950.034 98.5615 949.755 99.1553 949.372 99.6739C949.004 100.179 948.533 100.588 947.96 100.902C947.386 101.203 946.711 101.353 945.933 101.353C945.578 101.353 945.216 101.325 944.848 101.271C944.493 101.23 944.152 101.141 943.824 101.005C943.496 100.868 943.196 100.691 942.923 100.472C942.664 100.254 942.445 99.9674 942.268 99.6125H942.227V101.066H940.016V86.4478ZM948.164 95.7839C948.164 95.3062 948.103 94.8421 947.98 94.3917C947.857 93.9413 947.673 93.5454 947.427 93.2042C947.182 92.8493 946.875 92.5695 946.506 92.3648C946.138 92.1464 945.714 92.0372 945.237 92.0372C944.254 92.0372 943.51 92.3784 943.005 93.0609C942.514 93.7434 942.268 94.651 942.268 95.7839C942.268 96.3162 942.329 96.8144 942.452 97.2785C942.589 97.7289 942.787 98.1179 943.046 98.4455C943.305 98.7731 943.612 99.0324 943.967 99.2235C944.336 99.4146 944.759 99.5102 945.237 99.5102C945.769 99.5102 946.219 99.401 946.588 99.1826C946.956 98.9642 947.257 98.6844 947.489 98.3431C947.734 97.9883 947.905 97.5924 948.001 97.1557C948.11 96.7052 948.164 96.248 948.164 95.7839ZM954.231 97.6675C954.3 98.35 954.559 98.8277 955.009 99.1007C955.46 99.3737 955.999 99.5102 956.627 99.5102C956.845 99.5102 957.091 99.4965 957.364 99.4692C957.651 99.4283 957.917 99.36 958.162 99.2645C958.408 99.1689 958.606 99.0324 958.756 98.855C958.92 98.6639 958.995 98.4182 958.981 98.1179C958.968 97.8176 958.858 97.572 958.654 97.3809C958.449 97.1898 958.183 97.0396 957.855 96.9304C957.541 96.8076 957.18 96.7052 956.77 96.6233C956.361 96.5414 955.944 96.4527 955.521 96.3572C955.084 96.2616 954.661 96.1456 954.252 96.0091C953.856 95.8726 953.494 95.6884 953.167 95.4563C952.853 95.2243 952.6 94.9308 952.409 94.576C952.218 94.2074 952.123 93.757 952.123 93.2247C952.123 92.6514 952.259 92.1737 952.532 91.7915C952.819 91.3957 953.174 91.0818 953.597 90.8497C954.033 90.604 954.511 90.4334 955.03 90.3379C955.562 90.2423 956.067 90.1946 956.545 90.1946C957.091 90.1946 957.61 90.256 958.101 90.3788C958.606 90.488 959.056 90.6723 959.452 90.9316C959.862 91.191 960.196 91.5322 960.455 91.9553C960.728 92.3648 960.899 92.863 960.967 93.4499H958.531C958.422 92.8903 958.162 92.5149 957.753 92.3238C957.357 92.1327 956.9 92.0372 956.381 92.0372C956.217 92.0372 956.019 92.0509 955.787 92.0782C955.569 92.1054 955.357 92.16 955.153 92.2419C954.962 92.3102 954.798 92.4194 954.661 92.5695C954.525 92.706 954.457 92.8903 954.457 93.1223C954.457 93.4089 954.552 93.641 954.743 93.8184C954.948 93.9959 955.207 94.146 955.521 94.2689C955.849 94.378 956.217 94.4736 956.627 94.5555C957.036 94.6374 957.459 94.7261 957.896 94.8216C958.319 94.9172 958.736 95.0332 959.145 95.1697C959.555 95.3062 959.916 95.4905 960.23 95.7225C960.558 95.9545 960.817 96.248 961.008 96.6029C961.213 96.9577 961.315 97.3945 961.315 97.9132C961.315 98.5411 961.172 99.0734 960.885 99.5102C960.599 99.9469 960.223 100.302 959.759 100.575C959.309 100.848 958.804 101.046 958.244 101.169C957.685 101.291 957.132 101.353 956.586 101.353C955.917 101.353 955.296 101.278 954.723 101.128C954.163 100.977 953.672 100.752 953.249 100.452C952.839 100.138 952.512 99.7558 952.266 99.3054C952.034 98.8413 951.911 98.2954 951.897 97.6675H954.231ZM963.149 86.4478H965.483V88.659H963.149V86.4478ZM963.149 90.4812H965.483V101.066H963.149V90.4812ZM966.961 90.4812H968.722V87.3077H971.056V90.4812H973.165V92.2215H971.056V97.8722C971.056 98.1179 971.063 98.3295 971.077 98.5069C971.104 98.6844 971.152 98.8345 971.22 98.9574C971.302 99.0802 971.418 99.1757 971.568 99.244C971.718 99.2986 971.923 99.3259 972.182 99.3259C972.346 99.3259 972.51 99.3259 972.674 99.3259C972.837 99.3122 973.001 99.2849 973.165 99.244V101.046C972.906 101.073 972.653 101.1 972.407 101.128C972.162 101.155 971.909 101.169 971.65 101.169C971.036 101.169 970.537 101.114 970.155 101.005C969.787 100.882 969.493 100.711 969.275 100.493C969.07 100.261 968.927 99.9742 968.845 99.633C968.777 99.2918 968.736 98.9028 968.722 98.466V92.2215H966.961V90.4812ZM982.112 94.8421C982.085 94.4736 982.003 94.1187 981.866 93.7775C981.744 93.4362 981.566 93.1428 981.334 92.8971C981.116 92.6378 980.843 92.433 980.515 92.2829C980.201 92.1191 979.846 92.0372 979.451 92.0372C979.041 92.0372 978.666 92.1123 978.324 92.2624C977.997 92.3989 977.71 92.5968 977.465 92.8562C977.233 93.1018 977.041 93.3953 976.891 93.7365C976.755 94.0778 976.68 94.4463 976.666 94.8421H982.112ZM976.666 96.3777C976.666 96.7871 976.721 97.183 976.83 97.5651C976.953 97.9473 977.13 98.2817 977.362 98.5684C977.594 98.855 977.888 99.087 978.243 99.2645C978.597 99.4283 979.021 99.5102 979.512 99.5102C980.194 99.5102 980.74 99.3668 981.15 99.0802C981.573 98.7799 981.887 98.3363 982.092 97.7494H984.303C984.18 98.3227 983.968 98.8345 983.668 99.2849C983.368 99.7354 983.006 100.118 982.583 100.431C982.16 100.732 981.682 100.957 981.15 101.107C980.631 101.271 980.085 101.353 979.512 101.353C978.679 101.353 977.942 101.216 977.301 100.943C976.659 100.67 976.113 100.288 975.663 99.7968C975.226 99.3054 974.892 98.7185 974.66 98.036C974.441 97.3536 974.332 96.6029 974.332 95.7839C974.332 95.0332 974.448 94.3234 974.68 93.6546C974.926 92.9722 975.267 92.3784 975.704 91.8734C976.154 91.3547 976.693 90.9453 977.321 90.645C977.949 90.3447 978.659 90.1946 979.451 90.1946C980.283 90.1946 981.027 90.372 981.682 90.7269C982.351 91.0681 982.904 91.5254 983.341 92.0986C983.777 92.6719 984.091 93.3339 984.282 94.0846C984.487 94.8216 984.542 95.586 984.446 96.3777H976.666Z" fill="#E1F8E6"/>
<path d="M862.649 103.114H984.999V104.137H862.649V103.114Z" fill="#E1F8E6"/>
<g clip-path="url(#clip0_13_1390)">
<path d="M1010.6 84.9287V86.8481H1005.8V100.284H1019.24V95.4855H1021.16V101.244C1021.16 101.498 1021.06 101.742 1020.88 101.922C1020.7 102.102 1020.45 102.204 1020.2 102.204H1004.84C1004.59 102.204 1004.34 102.102 1004.16 101.922C1003.98 101.742 1003.88 101.498 1003.88 101.244V85.8884C1003.88 85.6339 1003.98 85.3898 1004.16 85.2098C1004.34 85.0298 1004.59 84.9287 1004.84 84.9287H1010.6ZM1017.88 86.8481H1013.48V84.9287H1021.16V92.6064H1019.24V88.2052L1012.52 94.9231L1011.16 93.5661L1017.88 86.8481Z" fill="#E1F8E6"/>
</g>
<rect x="7.01514" y="7" width="1064.97" height="147.014" rx="47.9477" stroke="#133D1C" stroke-opacity="0.2" stroke-width="14"/>
<defs>
<clipPath id="clip0_13_1390">
<rect width="23.0331" height="23.0331" fill="white" transform="translate(1001 82.0496)"/>
</clipPath>
</defs>
</svg>
