<svg width="930" height="162" viewBox="0 0 930 162" fill="none" xmlns="http://www.w3.org/2000/svg">
<rect x="14.209" y="14.6296" width="901.581" height="133.014" rx="40.9477" fill="#133D1C"/>
<path d="M121.255 65.9132V61.2195H124.588C125.555 61.2195 126.26 61.4226 126.702 61.8286C127.155 62.2228 127.382 62.802 127.382 63.5663C127.382 64.3307 127.155 64.9159 126.702 65.322C126.26 65.728 125.555 65.9251 124.588 65.9132H121.255ZM119.554 59.7864V72.5774H121.255V67.3463H125.161C126.451 67.3583 127.424 67.0298 128.081 66.361C128.75 65.6922 129.084 64.7607 129.084 63.5663C129.084 62.372 128.75 61.4465 128.081 60.7896C127.424 60.1208 126.451 59.7864 125.161 59.7864H119.554ZM130.866 63.3155V72.5774H132.388V68.457C132.388 67.8599 132.448 67.3344 132.567 66.8805C132.687 66.4148 132.878 66.0206 133.141 65.6982C133.403 65.3757 133.75 65.1309 134.18 64.9637C134.61 64.7965 135.129 64.7129 135.738 64.7129V63.1006C134.914 63.0767 134.233 63.2439 133.696 63.6022C133.159 63.9605 132.705 64.5158 132.335 65.2682H132.299V63.3155H130.866ZM137.681 67.9554C137.681 67.3941 137.752 66.8985 137.896 66.4685C138.051 66.0266 138.26 65.6564 138.523 65.3578C138.786 65.0592 139.09 64.8323 139.436 64.6771C139.795 64.5218 140.171 64.4442 140.565 64.4442C140.959 64.4442 141.329 64.5218 141.676 64.6771C142.034 64.8323 142.345 65.0592 142.607 65.3578C142.87 65.6564 143.073 66.0266 143.216 66.4685C143.372 66.8985 143.449 67.3941 143.449 67.9554C143.449 68.5167 143.372 69.0184 143.216 69.4603C143.073 69.8902 142.87 70.2545 142.607 70.553C142.345 70.8397 142.034 71.0606 141.676 71.2159C141.329 71.3711 140.959 71.4488 140.565 71.4488C140.171 71.4488 139.795 71.3711 139.436 71.2159C139.09 71.0606 138.786 70.8397 138.523 70.553C138.26 70.2545 138.051 69.8902 137.896 69.4603C137.752 69.0184 137.681 68.5167 137.681 67.9554ZM136.068 67.9554C136.068 68.6362 136.164 69.2692 136.355 69.8544C136.546 70.4396 136.833 70.9531 137.215 71.395C137.597 71.825 138.069 72.1654 138.63 72.4162C139.192 72.655 139.837 72.7745 140.565 72.7745C141.306 72.7745 141.95 72.655 142.5 72.4162C143.061 72.1654 143.533 71.825 143.915 71.395C144.297 70.9531 144.584 70.4396 144.775 69.8544C144.966 69.2692 145.062 68.6362 145.062 67.9554C145.062 67.2747 144.966 66.6417 144.775 66.0565C144.584 65.4593 144.297 64.9458 143.915 64.5158C143.533 64.0739 143.061 63.7276 142.5 63.4768C141.95 63.226 141.306 63.1006 140.565 63.1006C139.837 63.1006 139.192 63.226 138.63 63.4768C138.069 63.7276 137.597 64.0739 137.215 64.5158C136.833 64.9458 136.546 65.4593 136.355 66.0565C136.164 66.6417 136.068 67.2747 136.068 67.9554ZM147.968 68.0271C147.968 67.5732 148.015 67.1314 148.111 66.7014C148.207 66.2715 148.362 65.8893 148.577 65.5549C148.792 65.2205 149.078 64.9517 149.437 64.7487C149.795 64.5457 150.231 64.4442 150.744 64.4442C151.27 64.4442 151.718 64.5457 152.088 64.7487C152.458 64.9398 152.757 65.1966 152.984 65.519C153.223 65.8415 153.396 66.2177 153.503 66.6477C153.611 67.0657 153.665 67.5016 153.665 67.9554C153.665 68.3854 153.611 68.8094 153.503 69.2274C153.408 69.6454 153.247 70.0216 153.02 70.356C152.793 70.6784 152.5 70.9412 152.142 71.1442C151.783 71.3473 151.348 71.4488 150.834 71.4488C150.344 71.4488 149.914 71.3532 149.544 71.1621C149.186 70.971 148.887 70.7143 148.648 70.3918C148.422 70.0693 148.248 69.7051 148.129 69.299C148.021 68.881 147.968 68.457 147.968 68.0271ZM155.134 72.5774V59.7864H153.611V64.5517H153.575C153.408 64.277 153.199 64.05 152.948 63.8709C152.709 63.6798 152.452 63.5305 152.178 63.423C151.903 63.3036 151.628 63.22 151.354 63.1722C151.079 63.1245 150.822 63.1006 150.583 63.1006C149.879 63.1006 149.258 63.2319 148.72 63.4947C148.195 63.7455 147.753 64.0918 147.394 64.5337C147.048 64.9637 146.785 65.4713 146.606 66.0565C146.439 66.6417 146.355 67.2627 146.355 67.9196C146.355 68.5765 146.445 69.1975 146.624 69.7827C146.803 70.3679 147.066 70.8815 147.412 71.3234C147.771 71.7653 148.213 72.1176 148.738 72.3803C149.275 72.6431 149.902 72.7745 150.619 72.7745C151.264 72.7745 151.855 72.661 152.393 72.4341C152.93 72.2072 153.324 71.8369 153.575 71.3234H153.611V72.5774H155.134ZM165.144 72.5774V63.3155H163.621V68.5466C163.621 68.9646 163.561 69.3528 163.442 69.7111C163.334 70.0574 163.167 70.362 162.94 70.6247C162.713 70.8874 162.427 71.0905 162.08 71.2338C161.746 71.3771 161.346 71.4488 160.88 71.4488C160.295 71.4488 159.835 71.2816 159.501 70.9472C159.166 70.6128 158.999 70.1589 158.999 69.5857V63.3155H157.476V69.4065C157.476 69.9081 157.524 70.3679 157.62 70.7859C157.727 71.192 157.906 71.5443 158.157 71.8429C158.408 72.1415 158.736 72.3744 159.142 72.5416C159.548 72.6968 160.056 72.7745 160.665 72.7745C161.346 72.7745 161.937 72.6431 162.439 72.3803C162.94 72.1056 163.352 71.6817 163.675 71.1084H163.711V72.5774H165.144ZM173.719 66.2894H175.295C175.236 65.74 175.092 65.2682 174.865 64.8741C174.638 64.468 174.346 64.1336 173.988 63.8709C173.641 63.6081 173.235 63.4171 172.769 63.2976C172.315 63.1663 171.826 63.1006 171.3 63.1006C170.572 63.1006 169.933 63.2319 169.383 63.4947C168.834 63.7455 168.374 64.0978 168.004 64.5517C167.646 64.9935 167.377 65.519 167.198 66.1281C167.019 66.7253 166.929 67.3702 166.929 68.0629C166.929 68.7556 167.019 69.3946 167.198 69.9798C167.389 70.553 167.664 71.0487 168.022 71.4667C168.392 71.8847 168.846 72.2072 169.383 72.4341C169.933 72.661 170.56 72.7745 171.265 72.7745C172.447 72.7745 173.378 72.4639 174.059 71.8429C174.752 71.2219 175.182 70.3381 175.349 69.1915H173.79C173.695 69.9081 173.432 70.4635 173.002 70.8576C172.584 71.2517 171.999 71.4488 171.247 71.4488C170.769 71.4488 170.357 71.3532 170.01 71.1621C169.664 70.971 169.383 70.7202 169.168 70.4097C168.954 70.0873 168.792 69.723 168.685 69.3169C168.589 68.9109 168.541 68.4929 168.541 68.0629C168.541 67.5971 168.589 67.1493 168.685 66.7193C168.78 66.2774 168.936 65.8893 169.151 65.5549C169.377 65.2205 169.676 64.9517 170.046 64.7487C170.417 64.5457 170.876 64.4442 171.426 64.4442C172.071 64.4442 172.584 64.6054 172.966 64.9279C173.349 65.2503 173.599 65.7042 173.719 66.2894ZM179.167 63.3155V60.5388H177.644V63.3155H176.068V64.6591H177.644V70.553C177.644 70.983 177.686 71.3293 177.769 71.5921C177.853 71.8548 177.978 72.0579 178.146 72.2012C178.325 72.3445 178.552 72.446 178.826 72.5057C179.113 72.5535 179.453 72.5774 179.848 72.5774H181.012V71.2338H180.313C180.074 71.2338 179.877 71.2278 179.722 71.2159C179.579 71.192 179.465 71.1502 179.382 71.0905C179.298 71.0308 179.238 70.9472 179.203 70.8397C179.179 70.7322 179.167 70.5889 179.167 70.4097V64.6591H181.012V63.3155H179.167Z" fill="#E1F8E6"/>
<path d="M66.5806 91.725C66.4715 91.3019 66.3213 90.9129 66.1302 90.558C65.9391 90.2032 65.6934 89.896 65.3932 89.6367C65.0929 89.3774 64.738 89.1795 64.3285 89.043C63.9327 88.8928 63.4686 88.8178 62.9363 88.8178C62.1583 88.8178 61.4827 88.9747 60.9094 89.2887C60.3498 89.6026 59.8925 90.0257 59.5376 90.558C59.1828 91.0767 58.9166 91.6704 58.7392 92.3393C58.5754 93.0081 58.4935 93.6905 58.4935 94.3866C58.4935 95.0828 58.5754 95.7652 58.7392 96.434C58.9166 97.1028 59.1828 97.7034 59.5376 98.2357C59.8925 98.7544 60.3498 99.1707 60.9094 99.4846C61.4827 99.7986 62.1583 99.9555 62.9363 99.9555C63.5096 99.9555 64.0146 99.86 64.4514 99.6689C64.8881 99.4642 65.2635 99.1912 65.5774 98.8499C65.8914 98.4951 66.137 98.0856 66.3145 97.6215C66.4919 97.1574 66.6079 96.6592 66.6625 96.1269H69.1603C69.1058 97.0005 68.9147 97.7989 68.5871 98.5224C68.2732 99.2458 67.8432 99.8736 67.2972 100.406C66.7513 100.925 66.1097 101.327 65.3727 101.614C64.6356 101.901 63.8235 102.044 62.9363 102.044C61.8444 102.044 60.8616 101.846 59.9881 101.45C59.1282 101.041 58.3979 100.488 57.7974 99.7917C57.1968 99.0956 56.7327 98.2835 56.4052 97.3553C56.0912 96.4272 55.9343 95.4376 55.9343 94.3866C55.9343 93.3493 56.0912 92.3666 56.4052 91.4384C56.7327 90.5103 57.1968 89.6981 57.7974 89.002C58.3979 88.3059 59.1282 87.7531 59.9881 87.3436C60.8616 86.9342 61.8444 86.7294 62.9363 86.7294C63.7553 86.7294 64.5264 86.8454 65.2498 87.0775C65.9733 87.2959 66.6079 87.6235 67.1539 88.0602C67.7135 88.4834 68.164 89.002 68.5052 89.6162C68.8464 90.2305 69.058 90.9334 69.1399 91.725H66.5806ZM71.1602 91.1108H73.3509V93.1582H73.3919C73.4601 92.8716 73.5898 92.5918 73.7809 92.3188C73.9856 92.0458 74.2245 91.8001 74.4975 91.5817C74.7841 91.3497 75.098 91.1654 75.4393 91.0289C75.7805 90.8924 76.1285 90.8242 76.4834 90.8242C76.7564 90.8242 76.9407 90.831 77.0362 90.8447C77.1454 90.8583 77.2546 90.872 77.3638 90.8856V93.1377C77.2 93.1104 77.0294 93.09 76.852 93.0763C76.6882 93.049 76.5244 93.0354 76.3606 93.0354C75.9648 93.0354 75.5894 93.1173 75.2345 93.2811C74.8933 93.4312 74.593 93.6632 74.3337 93.9772C74.0743 94.2774 73.8696 94.6528 73.7195 95.1032C73.5693 95.5537 73.4942 96.0723 73.4942 96.6592V101.696H71.1602V91.1108ZM87.2232 99.3413C87.2232 99.6279 87.2573 99.8327 87.3256 99.9555C87.4075 100.078 87.5576 100.14 87.776 100.14C87.8443 100.14 87.9262 100.14 88.0217 100.14C88.1172 100.14 88.2264 100.126 88.3493 100.099V101.716C88.2674 101.744 88.1582 101.771 88.0217 101.798C87.8989 101.839 87.7692 101.873 87.6327 101.901C87.4962 101.928 87.3597 101.948 87.2232 101.962C87.0867 101.976 86.9707 101.982 86.8752 101.982C86.3974 101.982 86.0016 101.887 85.6877 101.696C85.3738 101.505 85.169 101.17 85.0735 100.693C84.6094 101.143 84.0361 101.471 83.3537 101.675C82.6849 101.88 82.0365 101.982 81.4087 101.982C80.9309 101.982 80.4737 101.914 80.0369 101.778C79.6001 101.655 79.2111 101.471 78.8699 101.225C78.5423 100.966 78.2762 100.645 78.0714 100.263C77.8803 99.8668 77.7848 99.4096 77.7848 98.8909C77.7848 98.2357 77.9008 97.7034 78.1328 97.2939C78.3785 96.8845 78.6925 96.5637 79.0746 96.3317C79.4705 96.0996 79.9072 95.9358 80.385 95.8403C80.8763 95.7311 81.3677 95.6492 81.8591 95.5946C82.2822 95.5127 82.6849 95.4581 83.067 95.4308C83.4492 95.3899 83.7836 95.3284 84.0703 95.2465C84.3705 95.1646 84.6026 95.0418 84.7664 94.878C84.9438 94.7006 85.0325 94.4412 85.0325 94.1C85.0325 93.7997 84.9575 93.554 84.8073 93.363C84.6708 93.1719 84.4934 93.0285 84.275 92.933C84.0703 92.8238 83.8382 92.7556 83.5789 92.7283C83.3195 92.6873 83.0739 92.6668 82.8418 92.6668C82.1867 92.6668 81.6475 92.8033 81.2244 93.0763C80.8013 93.3493 80.5624 93.7724 80.5078 94.3457H78.1738C78.2147 93.6632 78.3785 93.0968 78.6652 92.6464C78.9518 92.1959 79.3135 91.8342 79.7503 91.5613C80.2007 91.2883 80.7057 91.0972 81.2653 90.988C81.825 90.8788 82.3982 90.8242 82.9851 90.8242C83.5038 90.8242 84.0157 90.8788 84.5207 90.988C85.0257 91.0972 85.4761 91.2746 85.872 91.5203C86.2814 91.766 86.609 92.0867 86.8547 92.4826C87.1004 92.8648 87.2232 93.3357 87.2232 93.8953V99.3413ZM84.8892 96.3931C84.5343 96.6251 84.0976 96.7684 83.5789 96.823C83.0602 96.864 82.5415 96.9322 82.0229 97.0278C81.7772 97.0687 81.5383 97.1301 81.3063 97.212C81.0743 97.2803 80.8695 97.3826 80.6921 97.5191C80.5146 97.642 80.3713 97.8126 80.2621 98.031C80.1666 98.2357 80.1188 98.4882 80.1188 98.7885C80.1188 99.0479 80.1939 99.2662 80.344 99.4437C80.4942 99.6211 80.6716 99.7644 80.8763 99.8736C81.0947 99.9692 81.3268 100.037 81.5724 100.078C81.8318 100.119 82.0638 100.14 82.2686 100.14C82.5279 100.14 82.8077 100.106 83.108 100.037C83.4083 99.9692 83.6881 99.8532 83.9474 99.6894C84.2204 99.5256 84.4456 99.3208 84.623 99.0752C84.8005 98.8158 84.8892 98.5019 84.8892 98.1334V96.3931ZM88.5676 91.1108H91.1268L93.8908 99.0137H93.9318L96.6138 91.1108H99.0502L94.935 102.269C94.7439 102.747 94.5528 103.204 94.3617 103.641C94.1843 104.078 93.9591 104.46 93.6861 104.787C93.4267 105.129 93.0992 105.395 92.7033 105.586C92.3075 105.791 91.8025 105.893 91.1883 105.893C90.6423 105.893 90.1032 105.852 89.5708 105.77V103.805C89.7619 103.832 89.9462 103.859 90.1236 103.887C90.3011 103.927 90.4853 103.948 90.6764 103.948C90.9494 103.948 91.1746 103.914 91.3521 103.846C91.5295 103.777 91.6728 103.675 91.782 103.538C91.9049 103.416 92.0072 103.265 92.0891 103.088C92.171 102.911 92.2461 102.706 92.3143 102.474L92.5805 101.655L88.5676 91.1108ZM100.413 91.1108H102.624V92.544H102.665C102.993 91.9298 103.45 91.493 104.037 91.2337C104.624 90.9607 105.258 90.8242 105.941 90.8242C106.773 90.8242 107.497 90.9743 108.111 91.2746C108.739 91.5613 109.258 91.9639 109.667 92.4826C110.076 92.9876 110.384 93.5813 110.588 94.2638C110.793 94.9463 110.895 95.6765 110.895 96.4545C110.895 97.1643 110.8 97.8535 110.609 98.5224C110.431 99.1912 110.152 99.7849 109.769 100.304C109.401 100.809 108.93 101.218 108.357 101.532C107.783 101.832 107.108 101.982 106.33 101.982C105.989 101.982 105.647 101.948 105.306 101.88C104.965 101.825 104.637 101.73 104.323 101.593C104.009 101.457 103.716 101.286 103.443 101.082C103.184 100.863 102.965 100.611 102.788 100.324H102.747V105.606H100.413V91.1108ZM108.561 96.4136C108.561 95.9358 108.5 95.4718 108.377 95.0213C108.254 94.5709 108.07 94.1751 107.824 93.8339C107.579 93.479 107.272 93.1992 106.903 92.9944C106.535 92.776 106.111 92.6668 105.634 92.6668C104.651 92.6668 103.907 93.0081 103.402 93.6905C102.911 94.373 102.665 95.2807 102.665 96.4136C102.665 96.9459 102.726 97.4441 102.849 97.9081C102.986 98.3586 103.184 98.7476 103.443 99.0752C103.702 99.4027 104.009 99.6621 104.364 99.8532C104.733 100.044 105.156 100.14 105.634 100.14C106.166 100.14 106.616 100.031 106.985 99.8122C107.353 99.5938 107.654 99.314 107.886 98.9728C108.131 98.6179 108.302 98.2221 108.398 97.7853C108.507 97.3349 108.561 96.8776 108.561 96.4136ZM111.803 91.1108H113.564V87.9374H115.898V91.1108H118.007V92.8511H115.898V98.5019C115.898 98.7476 115.905 98.9591 115.918 99.1366C115.946 99.314 115.993 99.4642 116.062 99.587C116.143 99.7098 116.259 99.8054 116.41 99.8736C116.56 99.9282 116.765 99.9555 117.024 99.9555C117.188 99.9555 117.351 99.9555 117.515 99.9555C117.679 99.9419 117.843 99.9146 118.007 99.8736V101.675C117.747 101.703 117.495 101.73 117.249 101.757C117.003 101.785 116.751 101.798 116.492 101.798C115.877 101.798 115.379 101.744 114.997 101.634C114.628 101.512 114.335 101.341 114.117 101.123C113.912 100.89 113.769 100.604 113.687 100.263C113.618 99.9214 113.577 99.5324 113.564 99.0956V92.8511H111.803V91.1108ZM124.538 101.982C123.692 101.982 122.934 101.846 122.265 101.573C121.61 101.286 121.051 100.897 120.586 100.406C120.136 99.9146 119.788 99.3277 119.542 98.6452C119.31 97.9627 119.194 97.212 119.194 96.3931C119.194 95.5878 119.31 94.8439 119.542 94.1614C119.788 93.479 120.136 92.8921 120.586 92.4007C121.051 91.9093 121.61 91.5271 122.265 91.2541C122.934 90.9675 123.692 90.8242 124.538 90.8242C125.384 90.8242 126.135 90.9675 126.79 91.2541C127.459 91.5271 128.018 91.9093 128.469 92.4007C128.933 92.8921 129.281 93.479 129.513 94.1614C129.759 94.8439 129.882 95.5878 129.882 96.3931C129.882 97.212 129.759 97.9627 129.513 98.6452C129.281 99.3277 128.933 99.9146 128.469 100.406C128.018 100.897 127.459 101.286 126.79 101.573C126.135 101.846 125.384 101.982 124.538 101.982ZM124.538 100.14C125.057 100.14 125.507 100.031 125.889 99.8122C126.271 99.5938 126.585 99.3072 126.831 98.9523C127.077 98.5974 127.254 98.2016 127.363 97.7648C127.486 97.3144 127.548 96.8572 127.548 96.3931C127.548 95.9427 127.486 95.4922 127.363 95.0418C127.254 94.5914 127.077 94.1956 126.831 93.8543C126.585 93.4994 126.271 93.2128 125.889 92.9944C125.507 92.776 125.057 92.6668 124.538 92.6668C124.019 92.6668 123.569 92.776 123.187 92.9944C122.804 93.2128 122.491 93.4994 122.245 93.8543C121.999 94.1956 121.815 94.5914 121.692 95.0418C121.583 95.4922 121.528 95.9427 121.528 96.3931C121.528 96.8572 121.583 97.3144 121.692 97.7648C121.815 98.2016 121.999 98.5974 122.245 98.9523C122.491 99.3072 122.804 99.5938 123.187 99.8122C123.569 100.031 124.019 100.14 124.538 100.14ZM137.807 87.0775H141.41L145.444 98.5224H145.485L149.416 87.0775H152.978V101.696H150.542V90.4147H150.501L146.447 101.696H144.338L140.284 90.4147H140.243V101.696H137.807V87.0775ZM160.567 101.982C159.721 101.982 158.963 101.846 158.294 101.573C157.639 101.286 157.08 100.897 156.616 100.406C156.165 99.9146 155.817 99.3277 155.571 98.6452C155.339 97.9627 155.223 97.212 155.223 96.3931C155.223 95.5878 155.339 94.8439 155.571 94.1614C155.817 93.479 156.165 92.8921 156.616 92.4007C157.08 91.9093 157.639 91.5271 158.294 91.2541C158.963 90.9675 159.721 90.8242 160.567 90.8242C161.413 90.8242 162.164 90.9675 162.819 91.2541C163.488 91.5271 164.048 91.9093 164.498 92.4007C164.962 92.8921 165.31 93.479 165.542 94.1614C165.788 94.8439 165.911 95.5878 165.911 96.3931C165.911 97.212 165.788 97.9627 165.542 98.6452C165.31 99.3277 164.962 99.9146 164.498 100.406C164.048 100.897 163.488 101.286 162.819 101.573C162.164 101.846 161.413 101.982 160.567 101.982ZM160.567 100.14C161.086 100.14 161.536 100.031 161.918 99.8122C162.3 99.5938 162.614 99.3072 162.86 98.9523C163.106 98.5974 163.283 98.2016 163.392 97.7648C163.515 97.3144 163.577 96.8572 163.577 96.3931C163.577 95.9427 163.515 95.4922 163.392 95.0418C163.283 94.5914 163.106 94.1956 162.86 93.8543C162.614 93.4994 162.3 93.2128 161.918 92.9944C161.536 92.776 161.086 92.6668 160.567 92.6668C160.048 92.6668 159.598 92.776 159.216 92.9944C158.834 93.2128 158.52 93.4994 158.274 93.8543C158.028 94.1956 157.844 94.5914 157.721 95.0418C157.612 95.4922 157.557 95.9427 157.557 96.3931C157.557 96.8572 157.612 97.3144 157.721 97.7648C157.844 98.2016 158.028 98.5974 158.274 98.9523C158.52 99.3072 158.834 99.5938 159.216 99.8122C159.598 100.031 160.048 100.14 160.567 100.14ZM167.913 87.0775H170.247V92.4826H170.287C170.451 92.2232 170.649 91.9912 170.881 91.7865C171.113 91.5817 171.366 91.4111 171.639 91.2746C171.925 91.1245 172.219 91.0153 172.519 90.947C172.833 90.8651 173.14 90.8242 173.44 90.8242C174.273 90.8242 174.996 90.9743 175.611 91.2746C176.239 91.5613 176.757 91.9639 177.167 92.4826C177.576 92.9876 177.883 93.5813 178.088 94.2638C178.293 94.9463 178.395 95.6765 178.395 96.4545C178.395 97.1643 178.3 97.8535 178.108 98.5224C177.931 99.1912 177.651 99.7849 177.269 100.304C176.901 100.809 176.43 101.218 175.856 101.532C175.283 101.832 174.607 101.982 173.829 101.982C173.475 101.982 173.113 101.955 172.744 101.901C172.389 101.86 172.048 101.771 171.721 101.634C171.393 101.498 171.093 101.32 170.82 101.102C170.56 100.884 170.342 100.597 170.165 100.242H170.124V101.696H167.913V87.0775ZM176.061 96.4136C176.061 95.9358 176 95.4718 175.877 95.0213C175.754 94.5709 175.57 94.1751 175.324 93.8339C175.078 93.479 174.771 93.1992 174.403 92.9944C174.034 92.776 173.611 92.6668 173.133 92.6668C172.151 92.6668 171.407 93.0081 170.902 93.6905C170.41 94.373 170.165 95.2807 170.165 96.4136C170.165 96.9459 170.226 97.4441 170.349 97.9081C170.485 98.3586 170.683 98.7476 170.943 99.0752C171.202 99.4027 171.509 99.6621 171.864 99.8532C172.232 100.044 172.656 100.14 173.133 100.14C173.666 100.14 174.116 100.031 174.485 99.8122C174.853 99.5938 175.153 99.314 175.385 98.9728C175.631 98.6179 175.802 98.2221 175.897 97.7853C176.006 97.3349 176.061 96.8776 176.061 96.4136ZM180.429 87.0775H182.763V89.2887H180.429V87.0775ZM180.429 91.1108H182.763V101.696H180.429V91.1108ZM185.367 87.0775H187.701V101.696H185.367V87.0775ZM197.513 95.4718C197.485 95.1032 197.403 94.7483 197.267 94.4071C197.144 94.0659 196.967 93.7724 196.735 93.5267C196.516 93.2674 196.243 93.0627 195.916 92.9125C195.602 92.7487 195.247 92.6668 194.851 92.6668C194.441 92.6668 194.066 92.7419 193.725 92.8921C193.397 93.0285 193.111 93.2265 192.865 93.4858C192.633 93.7315 192.442 94.0249 192.292 94.3662C192.155 94.7074 192.08 95.0759 192.067 95.4718H197.513ZM192.067 97.0073C192.067 97.4168 192.121 97.8126 192.23 98.1948C192.353 98.577 192.531 98.9114 192.763 99.198C192.995 99.4846 193.288 99.7167 193.643 99.8941C193.998 100.058 194.421 100.14 194.912 100.14C195.595 100.14 196.141 99.9965 196.55 99.7098C196.973 99.4096 197.287 98.966 197.492 98.379H199.703C199.58 98.9523 199.369 99.4642 199.069 99.9146C198.768 100.365 198.407 100.747 197.983 101.061C197.56 101.361 197.083 101.587 196.55 101.737C196.032 101.901 195.486 101.982 194.912 101.982C194.08 101.982 193.343 101.846 192.701 101.573C192.06 101.3 191.514 100.918 191.063 100.426C190.627 99.9351 190.292 99.3481 190.06 98.6657C189.842 97.9832 189.732 97.2325 189.732 96.4136C189.732 95.6628 189.849 94.9531 190.081 94.2843C190.326 93.6018 190.667 93.0081 191.104 92.5031C191.555 91.9844 192.094 91.5749 192.722 91.2746C193.35 90.9743 194.059 90.8242 194.851 90.8242C195.684 90.8242 196.427 91.0016 197.083 91.3565C197.751 91.6977 198.304 92.155 198.741 92.7283C199.178 93.3015 199.492 93.9635 199.683 94.7142C199.888 95.4513 199.942 96.2156 199.847 97.0073H192.067ZM211.557 87.0775H214.28L219.911 101.696H217.167L215.795 97.8262H209.96L208.589 101.696H205.947L211.557 87.0775ZM210.656 95.8812H215.12L212.929 89.5958H212.868L210.656 95.8812ZM221.036 91.1108H223.248V92.544H223.289C223.616 91.9298 224.073 91.493 224.66 91.2337C225.247 90.9607 225.882 90.8242 226.564 90.8242C227.397 90.8242 228.12 90.9743 228.735 91.2746C229.363 91.5613 229.881 91.9639 230.291 92.4826C230.7 92.9876 231.007 93.5813 231.212 94.2638C231.417 94.9463 231.519 95.6765 231.519 96.4545C231.519 97.1643 231.424 97.8535 231.232 98.5224C231.055 99.1912 230.775 99.7849 230.393 100.304C230.025 100.809 229.554 101.218 228.98 101.532C228.407 101.832 227.731 101.982 226.953 101.982C226.612 101.982 226.271 101.948 225.93 101.88C225.589 101.825 225.261 101.73 224.947 101.593C224.633 101.457 224.34 101.286 224.067 101.082C223.807 100.863 223.589 100.611 223.411 100.324H223.371V105.606H221.036V91.1108ZM229.185 96.4136C229.185 95.9358 229.124 95.4718 229.001 95.0213C228.878 94.5709 228.694 94.1751 228.448 93.8339C228.202 93.479 227.895 93.1992 227.527 92.9944C227.158 92.776 226.735 92.6668 226.257 92.6668C225.275 92.6668 224.531 93.0081 224.026 93.6905C223.534 94.373 223.289 95.2807 223.289 96.4136C223.289 96.9459 223.35 97.4441 223.473 97.9081C223.609 98.3586 223.807 98.7476 224.067 99.0752C224.326 99.4027 224.633 99.6621 224.988 99.8532C225.356 100.044 225.78 100.14 226.257 100.14C226.79 100.14 227.24 100.031 227.609 99.8122C227.977 99.5938 228.277 99.314 228.509 98.9728C228.755 98.6179 228.926 98.2221 229.021 97.7853C229.13 97.3349 229.185 96.8776 229.185 96.4136ZM233.553 91.1108H235.764V92.544H235.805C236.132 91.9298 236.59 91.493 237.177 91.2337C237.764 90.9607 238.398 90.8242 239.081 90.8242C239.913 90.8242 240.637 90.9743 241.251 91.2746C241.879 91.5613 242.397 91.9639 242.807 92.4826C243.216 92.9876 243.523 93.5813 243.728 94.2638C243.933 94.9463 244.035 95.6765 244.035 96.4545C244.035 97.1643 243.94 97.8535 243.749 98.5224C243.571 99.1912 243.291 99.7849 242.909 100.304C242.541 100.809 242.07 101.218 241.497 101.532C240.923 101.832 240.248 101.982 239.47 101.982C239.128 101.982 238.787 101.948 238.446 101.88C238.105 101.825 237.777 101.73 237.463 101.593C237.149 101.457 236.856 101.286 236.583 101.082C236.324 100.863 236.105 100.611 235.928 100.324H235.887V105.606H233.553V91.1108ZM241.701 96.4136C241.701 95.9358 241.64 95.4718 241.517 95.0213C241.394 94.5709 241.21 94.1751 240.964 93.8339C240.719 93.479 240.411 93.1992 240.043 92.9944C239.674 92.776 239.251 92.6668 238.774 92.6668C237.791 92.6668 237.047 93.0081 236.542 93.6905C236.051 94.373 235.805 95.2807 235.805 96.4136C235.805 96.9459 235.866 97.4441 235.989 97.9081C236.126 98.3586 236.324 98.7476 236.583 99.0752C236.842 99.4027 237.149 99.6621 237.504 99.8532C237.873 100.044 238.296 100.14 238.774 100.14C239.306 100.14 239.756 100.031 240.125 99.8122C240.493 99.5938 240.794 99.314 241.026 98.9728C241.271 98.6179 241.442 98.2221 241.538 97.7853C241.647 97.3349 241.701 96.8776 241.701 96.4136Z" fill="#E1F8E6"/>
<path d="M286.104 55.5774V95.5774" stroke="#E1F8E6"/>
<path d="M337.442 63.638H339.144C339.049 62.9573 338.846 62.3601 338.535 61.8465C338.224 61.3211 337.836 60.8851 337.371 60.5388C336.905 60.1924 336.373 59.9297 335.776 59.7505C335.179 59.5714 334.546 59.4818 333.877 59.4818C332.898 59.4818 332.026 59.661 331.262 60.0193C330.509 60.3656 329.876 60.8433 329.363 61.4524C328.861 62.0615 328.479 62.7781 328.216 63.6022C327.953 64.4143 327.822 65.2861 327.822 66.2177C327.822 67.1493 327.942 68.0211 328.18 68.8332C328.431 69.6454 328.801 70.35 329.291 70.9472C329.781 71.5443 330.396 72.0161 331.136 72.3624C331.877 72.6968 332.743 72.864 333.734 72.864C335.37 72.864 336.66 72.4162 337.603 71.5204C338.547 70.6247 339.102 69.3707 339.27 67.7584H337.568C337.532 68.2839 337.424 68.7735 337.245 69.2274C337.066 69.6812 336.815 70.0753 336.493 70.4097C336.182 70.7322 335.806 70.989 335.364 71.1801C334.934 71.3592 334.439 71.4488 333.877 71.4488C333.113 71.4488 332.456 71.3055 331.907 71.0188C331.357 70.7322 330.903 70.35 330.545 69.8723C330.199 69.3826 329.942 68.8153 329.775 68.1704C329.608 67.5135 329.524 66.8208 329.524 66.0923C329.524 65.4235 329.608 64.7786 329.775 64.1575C329.942 63.5365 330.199 62.9871 330.545 62.5094C330.903 62.0197 331.351 61.6316 331.889 61.3449C332.438 61.0583 333.095 60.915 333.859 60.915C334.755 60.915 335.525 61.1419 336.17 61.5957C336.827 62.0496 337.251 62.7303 337.442 63.638ZM342.238 67.9554C342.238 67.3941 342.309 66.8985 342.453 66.4685C342.608 66.0266 342.817 65.6564 343.08 65.3578C343.342 65.0592 343.647 64.8323 343.993 64.6771C344.352 64.5218 344.728 64.4442 345.122 64.4442C345.516 64.4442 345.886 64.5218 346.233 64.6771C346.591 64.8323 346.901 65.0592 347.164 65.3578C347.427 65.6564 347.63 66.0266 347.773 66.4685C347.928 66.8985 348.006 67.3941 348.006 67.9554C348.006 68.5167 347.928 69.0184 347.773 69.4603C347.63 69.8902 347.427 70.2545 347.164 70.553C346.901 70.8397 346.591 71.0606 346.233 71.2159C345.886 71.3711 345.516 71.4488 345.122 71.4488C344.728 71.4488 344.352 71.3711 343.993 71.2159C343.647 71.0606 343.342 70.8397 343.08 70.553C342.817 70.2545 342.608 69.8902 342.453 69.4603C342.309 69.0184 342.238 68.5167 342.238 67.9554ZM340.625 67.9554C340.625 68.6362 340.721 69.2692 340.912 69.8544C341.103 70.4396 341.39 70.9531 341.772 71.395C342.154 71.825 342.626 72.1654 343.187 72.4162C343.748 72.655 344.393 72.7745 345.122 72.7745C345.862 72.7745 346.507 72.655 347.057 72.4162C347.618 72.1654 348.09 71.825 348.472 71.395C348.854 70.9531 349.141 70.4396 349.332 69.8544C349.523 69.2692 349.618 68.6362 349.618 67.9554C349.618 67.2747 349.523 66.6417 349.332 66.0565C349.141 65.4593 348.854 64.9458 348.472 64.5158C348.09 64.0739 347.618 63.7276 347.057 63.4768C346.507 63.226 345.862 63.1006 345.122 63.1006C344.393 63.1006 343.748 63.226 343.187 63.4768C342.626 63.7276 342.154 64.0739 341.772 64.5158C341.39 64.9458 341.103 65.4593 340.912 66.0565C340.721 66.6417 340.625 67.2747 340.625 67.9554ZM351.414 63.3155V72.5774H352.937V66.8089C352.937 66.6297 352.978 66.4088 353.062 66.1461C353.157 65.8714 353.301 65.6086 353.492 65.3578C353.695 65.107 353.952 64.892 354.262 64.7129C354.585 64.5337 354.967 64.4442 355.409 64.4442C355.755 64.4442 356.036 64.4979 356.251 64.6054C356.478 64.7009 356.657 64.8443 356.788 65.0353C356.92 65.2145 357.009 65.4295 357.057 65.6803C357.117 65.9311 357.146 66.2058 357.146 66.5043V72.5774H358.669V66.8089C358.669 66.0923 358.884 65.519 359.314 65.0891C359.744 64.6591 360.335 64.4442 361.088 64.4442C361.458 64.4442 361.756 64.4979 361.983 64.6054C362.222 64.7129 362.407 64.8622 362.539 65.0533C362.67 65.2324 362.76 65.4474 362.807 65.6982C362.855 65.949 362.879 66.2177 362.879 66.5043V72.5774H364.402V65.7878C364.402 65.31 364.324 64.904 364.169 64.5696C364.026 64.2232 363.817 63.9426 363.542 63.7276C363.279 63.5126 362.957 63.3573 362.575 63.2618C362.204 63.1543 361.786 63.1006 361.321 63.1006C360.711 63.1006 360.15 63.2379 359.637 63.5126C359.135 63.7873 358.729 64.1754 358.418 64.6771C358.227 64.1038 357.899 63.6977 357.433 63.4589C356.967 63.22 356.448 63.1006 355.875 63.1006C354.573 63.1006 353.575 63.6261 352.883 64.6771H352.847V63.3155H351.414ZM366.74 63.3155V76.1066H368.263V71.3413H368.299C368.466 71.616 368.669 71.8489 368.908 72.04C369.159 72.2191 369.422 72.3624 369.696 72.4699C369.971 72.5774 370.246 72.655 370.52 72.7028C370.807 72.7506 371.064 72.7745 371.291 72.7745C371.995 72.7745 372.61 72.6491 373.136 72.3982C373.673 72.1474 374.115 71.8071 374.462 71.3771C374.82 70.9352 375.083 70.4217 375.25 69.8365C375.429 69.2512 375.519 68.6302 375.519 67.9733C375.519 67.3165 375.429 66.6954 375.25 66.1102C375.071 65.525 374.802 65.0115 374.444 64.5696C374.097 64.1157 373.655 63.7574 373.118 63.4947C372.593 63.2319 371.971 63.1006 371.255 63.1006C370.61 63.1006 370.019 63.22 369.481 63.4589C368.944 63.6858 368.55 64.056 368.299 64.5696H368.263V63.3155H366.74ZM373.906 67.8659C373.906 68.3197 373.859 68.7616 373.763 69.1915C373.667 69.6215 373.512 70.0037 373.297 70.3381C373.082 70.6725 372.796 70.9412 372.437 71.1442C372.091 71.3473 371.655 71.4488 371.13 71.4488C370.604 71.4488 370.156 71.3532 369.786 71.1621C369.416 70.9591 369.111 70.6964 368.872 70.3739C368.645 70.0514 368.478 69.6812 368.371 69.2632C368.263 68.8332 368.209 68.3913 368.209 67.9375C368.209 67.5076 368.257 67.0836 368.353 66.6656C368.46 66.2476 368.627 65.8773 368.854 65.5549C369.081 65.2205 369.374 64.9517 369.732 64.7487C370.09 64.5457 370.526 64.4442 371.04 64.4442C371.53 64.4442 371.954 64.5397 372.312 64.7308C372.682 64.9219 372.981 65.1787 373.208 65.5011C373.446 65.8236 373.62 66.1938 373.727 66.6118C373.847 67.0179 373.906 67.4359 373.906 67.8659ZM385.511 72.5416C385.248 72.6968 384.884 72.7745 384.418 72.7745C384.024 72.7745 383.707 72.667 383.469 72.452C383.242 72.2251 383.128 71.8608 383.128 71.3592C382.71 71.8608 382.221 72.2251 381.659 72.452C381.11 72.667 380.513 72.7745 379.868 72.7745C379.45 72.7745 379.05 72.7267 378.667 72.6311C378.297 72.5356 377.975 72.3863 377.7 72.1833C377.425 71.9802 377.204 71.7175 377.037 71.395C376.882 71.0606 376.804 70.6605 376.804 70.1948C376.804 69.6693 376.894 69.2393 377.073 68.9049C377.252 68.5705 377.485 68.3018 377.772 68.0987C378.07 67.8838 378.405 67.7225 378.775 67.615C379.157 67.5076 379.545 67.418 379.939 67.3463C380.357 67.2627 380.752 67.203 381.122 67.1672C381.504 67.1194 381.838 67.0597 382.125 66.988C382.412 66.9044 382.639 66.791 382.806 66.6477C382.973 66.4924 383.057 66.2715 383.057 65.9848C383.057 65.6504 382.991 65.3817 382.86 65.1787C382.74 64.9756 382.579 64.8204 382.376 64.7129C382.185 64.6054 381.964 64.5337 381.713 64.4979C381.474 64.4621 381.235 64.4442 380.996 64.4442C380.351 64.4442 379.814 64.5696 379.384 64.8204C378.954 65.0592 378.721 65.519 378.685 66.1998H377.163C377.187 65.6265 377.306 65.1428 377.521 64.7487C377.736 64.3546 378.023 64.0381 378.381 63.7992C378.739 63.5484 379.145 63.3693 379.599 63.2618C380.065 63.1543 380.56 63.1006 381.086 63.1006C381.504 63.1006 381.916 63.1304 382.322 63.1901C382.74 63.2499 383.116 63.3753 383.451 63.5663C383.785 63.7455 384.054 64.0023 384.257 64.3367C384.46 64.6711 384.561 65.107 384.561 65.6444V70.4097C384.561 70.768 384.579 71.0308 384.615 71.198C384.663 71.3652 384.806 71.4488 385.045 71.4488C385.176 71.4488 385.332 71.4189 385.511 71.3592V72.5416ZM383.039 67.7942C382.848 67.9375 382.597 68.045 382.286 68.1167C381.976 68.1764 381.647 68.2301 381.301 68.2779C380.967 68.3137 380.626 68.3615 380.28 68.4212C379.933 68.469 379.623 68.5526 379.348 68.672C379.074 68.7914 378.847 68.9646 378.667 69.1915C378.5 69.4065 378.417 69.7051 378.417 70.0873C378.417 70.3381 378.464 70.553 378.56 70.7322C378.667 70.8994 378.799 71.0367 378.954 71.1442C379.121 71.2517 379.312 71.3293 379.527 71.3771C379.742 71.4249 379.969 71.4488 380.208 71.4488C380.71 71.4488 381.14 71.3831 381.498 71.2517C381.856 71.1084 382.149 70.9352 382.376 70.7322C382.603 70.5172 382.77 70.2903 382.877 70.0514C382.985 69.8006 383.039 69.5677 383.039 69.3528V67.7942ZM386.928 63.3155V72.5774H388.451V67.3463C388.451 66.9283 388.505 66.5461 388.612 66.1998C388.731 65.8415 388.905 65.531 389.132 65.2682C389.359 65.0055 389.639 64.8025 389.974 64.6591C390.32 64.5158 390.726 64.4442 391.192 64.4442C391.777 64.4442 392.237 64.6114 392.571 64.9458C392.906 65.2802 393.073 65.734 393.073 66.3073V72.5774H394.596V66.4864C394.596 65.9848 394.542 65.531 394.434 65.1249C394.339 64.7069 394.166 64.3486 393.915 64.05C393.664 63.7515 393.336 63.5186 392.929 63.3514C392.523 63.1842 392.016 63.1006 391.407 63.1006C390.033 63.1006 389.03 63.6619 388.397 64.7845H388.361V63.3155H386.928ZM400.519 73.8135C400.34 74.2673 400.161 74.6495 399.982 74.96C399.815 75.2706 399.624 75.5214 399.409 75.7124C399.206 75.9155 398.973 76.0588 398.71 76.1424C398.459 76.2379 398.166 76.2857 397.832 76.2857C397.653 76.2857 397.474 76.2738 397.295 76.2499C397.115 76.226 396.942 76.1842 396.775 76.1245V74.7271C396.906 74.7869 397.056 74.8346 397.223 74.8705C397.402 74.9182 397.551 74.9421 397.671 74.9421C397.981 74.9421 398.238 74.8645 398.441 74.7092C398.656 74.5659 398.817 74.3569 398.925 74.0822L399.552 72.5236L395.879 63.3155H397.599L400.304 70.8934H400.34L402.938 63.3155H404.55L400.519 73.8135Z" fill="#E1F8E6"/>
<path d="M335.637 89.7391C336.128 89.7391 336.606 89.6981 337.07 89.6162C337.534 89.5343 337.95 89.3979 338.319 89.2068C338.701 89.0157 339.022 88.77 339.281 88.4697C339.554 88.1694 339.732 87.8009 339.814 87.3641H341.718V101.696H339.158V91.5817H335.637V89.7391ZM357.128 101.696H354.916V100.263H354.875C354.561 100.877 354.104 101.32 353.504 101.593C352.903 101.853 352.268 101.982 351.6 101.982C350.767 101.982 350.037 101.839 349.409 101.552C348.795 101.252 348.283 100.85 347.873 100.345C347.464 99.8395 347.157 99.2458 346.952 98.5633C346.747 97.8672 346.645 97.1233 346.645 96.3317C346.645 95.3762 346.775 94.5504 347.034 93.8543C347.293 93.1582 347.634 92.5849 348.058 92.1345C348.494 91.6841 348.986 91.3565 349.532 91.1518C350.091 90.9334 350.658 90.8242 351.231 90.8242C351.559 90.8242 351.893 90.8583 352.234 90.9266C352.575 90.9812 352.903 91.0767 353.217 91.2132C353.531 91.3497 353.818 91.5271 354.077 91.7455C354.35 91.9503 354.575 92.1959 354.753 92.4826H354.793V87.0775H357.128V101.696ZM348.979 96.5159C348.979 96.9663 349.034 97.4099 349.143 97.8467C349.266 98.2835 349.443 98.6725 349.675 99.0137C349.921 99.355 350.228 99.6279 350.596 99.8327C350.965 100.037 351.402 100.14 351.907 100.14C352.425 100.14 352.869 100.031 353.237 99.8122C353.62 99.5938 353.927 99.3072 354.159 98.9523C354.404 98.5974 354.582 98.2016 354.691 97.7648C354.814 97.3144 354.875 96.8572 354.875 96.3931C354.875 95.2192 354.609 94.3047 354.077 93.6496C353.558 92.9944 352.848 92.6668 351.948 92.6668C351.402 92.6668 350.938 92.7829 350.555 93.0149C350.187 93.2333 349.88 93.5267 349.634 93.8953C349.402 94.2502 349.231 94.6596 349.122 95.1237C349.027 95.5741 348.979 96.0382 348.979 96.5159ZM359.734 87.0775H362.068V89.2887H359.734V87.0775ZM359.734 91.1108H362.068V101.696H359.734V91.1108ZM374.398 101.143C374.398 102.74 373.948 103.927 373.047 104.705C372.16 105.497 370.876 105.893 369.198 105.893C368.665 105.893 368.126 105.838 367.58 105.729C367.048 105.62 366.557 105.436 366.106 105.176C365.669 104.917 365.301 104.576 365.001 104.153C364.7 103.73 364.523 103.211 364.468 102.597H366.802C366.87 102.924 366.986 103.19 367.15 103.395C367.314 103.6 367.505 103.757 367.724 103.866C367.956 103.989 368.208 104.064 368.481 104.091C368.754 104.132 369.041 104.153 369.341 104.153C370.283 104.153 370.972 103.921 371.409 103.457C371.846 102.992 372.064 102.324 372.064 101.45V99.8327H372.023C371.695 100.42 371.245 100.877 370.672 101.204C370.112 101.532 369.505 101.696 368.85 101.696C368.003 101.696 367.28 101.552 366.679 101.266C366.092 100.966 365.601 100.563 365.205 100.058C364.823 99.5392 364.543 98.9455 364.366 98.2767C364.188 97.6079 364.1 96.8913 364.1 96.1269C364.1 95.4172 364.209 94.7415 364.427 94.1C364.646 93.4585 364.96 92.8989 365.369 92.4212C365.779 91.9298 366.277 91.5408 366.864 91.2541C367.464 90.9675 368.14 90.8242 368.891 90.8242C369.559 90.8242 370.174 90.9675 370.733 91.2541C371.293 91.5271 371.723 91.9639 372.023 92.5645H372.064V91.1108H374.398V101.143ZM369.218 99.8532C369.737 99.8532 370.174 99.7508 370.528 99.546C370.897 99.3277 371.19 99.0479 371.409 98.7066C371.641 98.3517 371.805 97.9559 371.9 97.5191C372.009 97.0687 372.064 96.6183 372.064 96.1679C372.064 95.7174 372.009 95.2807 371.9 94.8575C371.791 94.4344 371.62 94.0591 371.388 93.7315C371.17 93.4039 370.876 93.1446 370.508 92.9535C370.153 92.7624 369.723 92.6668 369.218 92.6668C368.699 92.6668 368.263 92.776 367.908 92.9944C367.553 93.2128 367.266 93.4994 367.048 93.8543C366.829 94.1956 366.673 94.5914 366.577 95.0418C366.481 95.4786 366.434 95.9154 366.434 96.3521C366.434 96.7889 366.488 97.2189 366.597 97.642C366.707 98.0515 366.87 98.42 367.089 98.7476C367.321 99.0752 367.608 99.3413 367.949 99.546C368.304 99.7508 368.727 99.8532 369.218 99.8532ZM376.809 87.0775H379.143V89.2887H376.809V87.0775ZM376.809 91.1108H379.143V101.696H376.809V91.1108ZM380.622 91.1108H382.382V87.9374H384.716V91.1108H386.825V92.8511H384.716V98.5019C384.716 98.7476 384.723 98.9591 384.737 99.1366C384.764 99.314 384.812 99.4642 384.88 99.587C384.962 99.7098 385.078 99.8054 385.228 99.8736C385.378 99.9282 385.583 99.9555 385.843 99.9555C386.006 99.9555 386.17 99.9555 386.334 99.9555C386.498 99.9419 386.661 99.9146 386.825 99.8736V101.675C386.566 101.703 386.313 101.73 386.068 101.757C385.822 101.785 385.57 101.798 385.31 101.798C384.696 101.798 384.198 101.744 383.816 101.634C383.447 101.512 383.154 101.341 382.935 101.123C382.731 100.89 382.587 100.604 382.505 100.263C382.437 99.9214 382.396 99.5324 382.382 99.0956V92.8511H380.622V91.1108ZM388.136 91.1108H396.735V92.7487L390.675 99.8532H397.042V101.696H387.726V100.058L393.582 92.9535H388.136V91.1108Z" fill="#E1F8E6"/>
<path d="M446 55.5774V95.5774" stroke="#E1F8E6"/>
<path d="M599.845 59.7864V72.5774H601.546V67.1134H605.703C606.121 67.1134 606.455 67.1791 606.706 67.3105C606.957 67.4299 607.16 67.5971 607.315 67.8121C607.47 68.0151 607.584 68.26 607.655 68.5466C607.727 68.8213 607.787 69.1139 607.835 69.4244C607.894 69.7349 607.93 70.0514 607.942 70.3739C607.954 70.6964 607.966 71.0009 607.978 71.2875C607.99 71.5622 608.014 71.813 608.049 72.04C608.097 72.2669 608.181 72.446 608.3 72.5774H610.199C610.02 72.3624 609.883 72.1176 609.787 71.8429C609.704 71.5563 609.638 71.2577 609.59 70.9472C609.542 70.6366 609.513 70.3202 609.501 69.9977C609.489 69.6752 609.471 69.3587 609.447 69.0482C609.411 68.7377 609.357 68.4391 609.286 68.1525C609.226 67.8659 609.124 67.6091 608.981 67.3822C608.85 67.1433 608.665 66.9403 608.426 66.7731C608.199 66.6059 607.9 66.4864 607.53 66.4148V66.3789C608.306 66.164 608.868 65.7639 609.214 65.1787C609.572 64.5935 609.751 63.9127 609.751 63.1364C609.751 62.0974 609.405 61.2793 608.712 60.6821C608.032 60.0849 607.082 59.7864 605.864 59.7864H599.845ZM605.094 65.6803H601.546V61.2195H605.774C606.575 61.2195 607.154 61.4226 607.512 61.8286C607.87 62.2347 608.049 62.7602 608.049 63.4051C608.049 63.8709 607.966 64.2531 607.799 64.5517C607.643 64.8383 607.428 65.0712 607.154 65.2503C606.891 65.4175 606.58 65.531 606.222 65.5907C605.864 65.6504 605.488 65.6803 605.094 65.6803ZM612.968 67.9554C612.968 67.3941 613.04 66.8985 613.183 66.4685C613.339 66.0266 613.548 65.6564 613.81 65.3578C614.073 65.0592 614.378 64.8323 614.724 64.6771C615.082 64.5218 615.458 64.4442 615.853 64.4442C616.247 64.4442 616.617 64.5218 616.963 64.6771C617.322 64.8323 617.632 65.0592 617.895 65.3578C618.158 65.6564 618.361 66.0266 618.504 66.4685C618.659 66.8985 618.737 67.3941 618.737 67.9554C618.737 68.5167 618.659 69.0184 618.504 69.4603C618.361 69.8902 618.158 70.2545 617.895 70.553C617.632 70.8397 617.322 71.0606 616.963 71.2159C616.617 71.3711 616.247 71.4488 615.853 71.4488C615.458 71.4488 615.082 71.3711 614.724 71.2159C614.378 71.0606 614.073 70.8397 613.81 70.553C613.548 70.2545 613.339 69.8902 613.183 69.4603C613.04 69.0184 612.968 68.5167 612.968 67.9554ZM611.356 67.9554C611.356 68.6362 611.452 69.2692 611.643 69.8544C611.834 70.4396 612.12 70.9531 612.503 71.395C612.885 71.825 613.356 72.1654 613.918 72.4162C614.479 72.655 615.124 72.7745 615.853 72.7745C616.593 72.7745 617.238 72.655 617.787 72.4162C618.349 72.1654 618.82 71.825 619.203 71.395C619.585 70.9531 619.871 70.4396 620.062 69.8544C620.254 69.2692 620.349 68.6362 620.349 67.9554C620.349 67.2747 620.254 66.6417 620.062 66.0565C619.871 65.4593 619.585 64.9458 619.203 64.5158C618.82 64.0739 618.349 63.7276 617.787 63.4768C617.238 63.226 616.593 63.1006 615.853 63.1006C615.124 63.1006 614.479 63.226 613.918 63.4768C613.356 63.7276 612.885 64.0739 612.503 64.5158C612.12 64.9458 611.834 65.4593 611.643 66.0565C611.452 66.6417 611.356 67.2747 611.356 67.9554ZM622.234 59.7864V72.5774H623.757V59.7864H622.234ZM632.547 67.0597H627.227C627.25 66.7014 627.328 66.367 627.459 66.0565C627.591 65.734 627.77 65.4534 627.997 65.2145C628.224 64.9756 628.492 64.7905 628.803 64.6591C629.125 64.5158 629.484 64.4442 629.878 64.4442C630.26 64.4442 630.606 64.5158 630.917 64.6591C631.239 64.7905 631.514 64.9756 631.741 65.2145C631.98 65.4414 632.165 65.7161 632.296 66.0386C632.44 66.361 632.523 66.7014 632.547 67.0597ZM634.016 69.6394H632.511C632.38 70.2485 632.105 70.7023 631.687 71.0009C631.281 71.2995 630.756 71.4488 630.111 71.4488C629.609 71.4488 629.173 71.3652 628.803 71.198C628.433 71.0308 628.128 70.8098 627.889 70.5351C627.65 70.2485 627.477 69.926 627.37 69.5677C627.262 69.1975 627.215 68.8094 627.227 68.4033H634.159C634.183 67.842 634.13 67.2508 633.998 66.6297C633.879 66.0087 633.652 65.4354 633.317 64.9099C632.995 64.3844 632.559 63.9545 632.01 63.6201C631.472 63.2737 630.792 63.1006 629.967 63.1006C629.334 63.1006 628.749 63.22 628.212 63.4589C627.686 63.6977 627.227 64.0321 626.832 64.4621C626.45 64.892 626.152 65.3996 625.937 65.9848C625.722 66.57 625.614 67.215 625.614 67.9196C625.638 68.6242 625.74 69.2751 625.919 69.8723C626.11 70.4694 626.39 70.983 626.761 71.4129C627.131 71.8429 627.585 72.1773 628.122 72.4162C628.672 72.655 629.317 72.7745 630.057 72.7745C631.108 72.7745 631.98 72.5117 632.673 71.9862C633.365 71.4607 633.813 70.6784 634.016 69.6394Z" fill="#E1F8E6"/>
<path d="M488.339 87.0775H490.899V95.5946C490.899 96.086 490.919 96.5842 490.96 97.0892C491.015 97.5942 491.151 98.0515 491.37 98.4609C491.602 98.8568 491.943 99.1843 492.393 99.4437C492.857 99.703 493.506 99.8327 494.338 99.8327C495.171 99.8327 495.812 99.703 496.263 99.4437C496.727 99.1843 497.068 98.8568 497.287 98.4609C497.519 98.0515 497.655 97.5942 497.696 97.0892C497.751 96.5842 497.778 96.086 497.778 95.5946V87.0775H500.337V96.434C500.337 97.3758 500.194 98.1948 499.907 98.8909C499.621 99.587 499.211 100.174 498.679 100.652C498.16 101.116 497.532 101.464 496.795 101.696C496.058 101.928 495.239 102.044 494.338 102.044C493.437 102.044 492.619 101.928 491.881 101.696C491.144 101.464 490.51 101.116 489.977 100.652C489.459 100.174 489.056 99.587 488.769 98.8909C488.483 98.1948 488.339 97.3758 488.339 96.434V87.0775ZM503.279 87.0775H505.838V101.696H503.279V87.0775ZM512.847 86.7294H515.078L509.202 102.044H506.971L512.847 86.7294ZM516.011 87.0775H518.57V95.5946C518.57 96.086 518.591 96.5842 518.632 97.0892C518.686 97.5942 518.823 98.0515 519.041 98.4609C519.273 98.8568 519.615 99.1843 520.065 99.4437C520.529 99.703 521.177 99.8327 522.01 99.8327C522.843 99.8327 523.484 99.703 523.935 99.4437C524.399 99.1843 524.74 98.8568 524.958 98.4609C525.19 98.0515 525.327 97.5942 525.368 97.0892C525.422 96.5842 525.45 96.086 525.45 95.5946V87.0775H528.009V96.434C528.009 97.3758 527.865 98.1948 527.579 98.8909C527.292 99.587 526.883 100.174 526.35 100.652C525.832 101.116 525.204 101.464 524.467 101.696C523.73 101.928 522.911 102.044 522.01 102.044C521.109 102.044 520.29 101.928 519.553 101.696C518.816 101.464 518.181 101.116 517.649 100.652C517.13 100.174 516.728 99.587 516.441 98.8909C516.154 98.1948 516.011 97.3758 516.011 96.434V87.0775ZM529.681 87.0775H532.732L536.048 92.2369L539.509 87.0775H542.375L537.543 94.1205L542.723 101.696H539.611L535.967 96.1064L532.261 101.696H529.333L534.513 94.1205L529.681 87.0775ZM559.568 101.696H557.357V100.263H557.316C557.002 100.877 556.545 101.32 555.944 101.593C555.344 101.853 554.709 101.982 554.04 101.982C553.207 101.982 552.477 101.839 551.849 101.552C551.235 101.252 550.723 100.85 550.314 100.345C549.904 99.8395 549.597 99.2458 549.392 98.5633C549.188 97.8672 549.085 97.1233 549.085 96.3317C549.085 95.3762 549.215 94.5504 549.474 93.8543C549.734 93.1582 550.075 92.5849 550.498 92.1345C550.935 91.6841 551.426 91.3565 551.972 91.1518C552.532 90.9334 553.098 90.8242 553.671 90.8242C553.999 90.8242 554.333 90.8583 554.675 90.9266C555.016 90.9812 555.344 91.0767 555.657 91.2132C555.971 91.3497 556.258 91.5271 556.517 91.7455C556.79 91.9503 557.016 92.1959 557.193 92.4826H557.234V87.0775H559.568V101.696ZM551.419 96.5159C551.419 96.9663 551.474 97.4099 551.583 97.8467C551.706 98.2835 551.883 98.6725 552.115 99.0137C552.361 99.355 552.668 99.6279 553.037 99.8327C553.405 100.037 553.842 100.14 554.347 100.14C554.866 100.14 555.309 100.031 555.678 99.8122C556.06 99.5938 556.367 99.3072 556.599 98.9523C556.845 98.5974 557.022 98.2016 557.132 97.7648C557.254 97.3144 557.316 96.8572 557.316 96.3931C557.316 95.2192 557.05 94.3047 556.517 93.6496C555.999 92.9944 555.289 92.6668 554.388 92.6668C553.842 92.6668 553.378 92.7829 552.996 93.0149C552.627 93.2333 552.32 93.5267 552.075 93.8953C551.842 94.2502 551.672 94.6596 551.563 95.1237C551.467 95.5741 551.419 96.0382 551.419 96.5159ZM569.382 95.4718C569.354 95.1032 569.272 94.7483 569.136 94.4071C569.013 94.0659 568.836 93.7724 568.604 93.5267C568.385 93.2674 568.112 93.0627 567.785 92.9125C567.471 92.7487 567.116 92.6668 566.72 92.6668C566.311 92.6668 565.935 92.7419 565.594 92.8921C565.266 93.0285 564.98 93.2265 564.734 93.4858C564.502 93.7315 564.311 94.0249 564.161 94.3662C564.024 94.7074 563.949 95.0759 563.936 95.4718H569.382ZM563.936 97.0073C563.936 97.4168 563.99 97.8126 564.099 98.1948C564.222 98.577 564.4 98.9114 564.632 99.198C564.864 99.4846 565.157 99.7167 565.512 99.8941C565.867 100.058 566.29 100.14 566.781 100.14C567.464 100.14 568.01 99.9965 568.419 99.7098C568.842 99.4096 569.156 98.966 569.361 98.379H571.572C571.449 98.9523 571.238 99.4642 570.938 99.9146C570.637 100.365 570.276 100.747 569.853 101.061C569.429 101.361 568.952 101.587 568.419 101.737C567.901 101.901 567.355 101.982 566.781 101.982C565.949 101.982 565.212 101.846 564.57 101.573C563.929 101.3 563.383 100.918 562.932 100.426C562.496 99.9351 562.161 99.3481 561.929 98.6657C561.711 97.9832 561.602 97.2325 561.602 96.4136C561.602 95.6628 561.718 94.9531 561.95 94.2843C562.195 93.6018 562.537 93.0081 562.973 92.5031C563.424 91.9844 563.963 91.5749 564.591 91.2746C565.219 90.9743 565.928 90.8242 566.72 90.8242C567.553 90.8242 568.297 91.0016 568.952 91.3565C569.62 91.6977 570.173 92.155 570.61 92.7283C571.047 93.3015 571.361 93.9635 571.552 94.7142C571.757 95.4513 571.811 96.2156 571.716 97.0073H563.936ZM575.251 98.2971C575.319 98.9796 575.578 99.4573 576.029 99.7303C576.479 100.003 577.018 100.14 577.646 100.14C577.865 100.14 578.11 100.126 578.383 100.099C578.67 100.058 578.936 99.9896 579.182 99.8941C579.427 99.7986 579.625 99.6621 579.775 99.4846C579.939 99.2935 580.014 99.0479 580.001 98.7476C579.987 98.4473 579.878 98.2016 579.673 98.0105C579.468 97.8194 579.202 97.6693 578.875 97.5601C578.561 97.4372 578.199 97.3349 577.789 97.253C577.38 97.1711 576.964 97.0824 576.541 96.9868C576.104 96.8913 575.681 96.7753 575.271 96.6388C574.875 96.5023 574.514 96.318 574.186 96.086C573.872 95.8539 573.62 95.5605 573.429 95.2056C573.237 94.8371 573.142 94.3866 573.142 93.8543C573.142 93.2811 573.278 92.8033 573.551 92.4212C573.838 92.0253 574.193 91.7114 574.616 91.4794C575.053 91.2337 575.531 91.0631 576.049 90.9675C576.582 90.872 577.087 90.8242 577.564 90.8242C578.11 90.8242 578.629 90.8856 579.12 91.0085C579.625 91.1177 580.076 91.3019 580.472 91.5613C580.881 91.8206 581.215 92.1618 581.475 92.5849C581.748 92.9944 581.918 93.4926 581.987 94.0795H579.55C579.441 93.5199 579.182 93.1446 578.772 92.9535C578.376 92.7624 577.919 92.6668 577.4 92.6668C577.237 92.6668 577.039 92.6805 576.807 92.7078C576.588 92.7351 576.377 92.7897 576.172 92.8716C575.981 92.9398 575.817 93.049 575.681 93.1992C575.544 93.3357 575.476 93.5199 575.476 93.752C575.476 94.0386 575.571 94.2706 575.763 94.4481C575.967 94.6255 576.227 94.7756 576.541 94.8985C576.868 95.0077 577.237 95.1032 577.646 95.1851C578.056 95.267 578.479 95.3557 578.916 95.4513C579.339 95.5468 579.755 95.6628 580.164 95.7993C580.574 95.9358 580.936 96.1201 581.25 96.3521C581.577 96.5842 581.836 96.8776 582.028 97.2325C582.232 97.5874 582.335 98.0242 582.335 98.5428C582.335 99.1707 582.191 99.703 581.905 100.14C581.618 100.577 581.243 100.931 580.779 101.204C580.328 101.477 579.823 101.675 579.264 101.798C578.704 101.921 578.151 101.982 577.605 101.982C576.936 101.982 576.315 101.907 575.742 101.757C575.182 101.607 574.691 101.382 574.268 101.082C573.859 100.768 573.531 100.385 573.285 99.9351C573.053 99.471 572.93 98.925 572.917 98.2971H575.251ZM584.168 87.0775H586.502V89.2887H584.168V87.0775ZM584.168 91.1108H586.502V101.696H584.168V91.1108ZM598.832 101.143C598.832 102.74 598.381 103.927 597.481 104.705C596.593 105.497 595.31 105.893 593.631 105.893C593.099 105.893 592.56 105.838 592.014 105.729C591.482 105.62 590.99 105.436 590.54 105.176C590.103 104.917 589.735 104.576 589.434 104.153C589.134 103.73 588.957 103.211 588.902 102.597H591.236C591.304 102.924 591.42 103.19 591.584 103.395C591.748 103.6 591.939 103.757 592.157 103.866C592.389 103.989 592.642 104.064 592.915 104.091C593.188 104.132 593.474 104.153 593.775 104.153C594.717 104.153 595.406 103.921 595.843 103.457C596.279 102.992 596.498 102.324 596.498 101.45V99.8327H596.457C596.129 100.42 595.679 100.877 595.106 101.204C594.546 101.532 593.939 101.696 593.283 101.696C592.437 101.696 591.714 101.552 591.113 101.266C590.526 100.966 590.035 100.563 589.639 100.058C589.257 99.5392 588.977 98.9455 588.8 98.2767C588.622 97.6079 588.533 96.8913 588.533 96.1269C588.533 95.4172 588.643 94.7415 588.861 94.1C589.079 93.4585 589.393 92.8989 589.803 92.4212C590.212 91.9298 590.71 91.5408 591.297 91.2541C591.898 90.9675 592.574 90.8242 593.324 90.8242C593.993 90.8242 594.607 90.9675 595.167 91.2541C595.727 91.5271 596.157 91.9639 596.457 92.5645H596.498V91.1108H598.832V101.143ZM593.652 99.8532C594.171 99.8532 594.607 99.7508 594.962 99.546C595.331 99.3277 595.624 99.0479 595.843 98.7066C596.075 98.3517 596.238 97.9559 596.334 97.5191C596.443 97.0687 596.498 96.6183 596.498 96.1679C596.498 95.7174 596.443 95.2807 596.334 94.8575C596.225 94.4344 596.054 94.0591 595.822 93.7315C595.604 93.4039 595.31 93.1446 594.942 92.9535C594.587 92.7624 594.157 92.6668 593.652 92.6668C593.133 92.6668 592.696 92.776 592.342 92.9944C591.987 93.2128 591.7 93.4994 591.482 93.8543C591.263 94.1956 591.106 94.5914 591.011 95.0418C590.915 95.4786 590.867 95.9154 590.867 96.3521C590.867 96.7889 590.922 97.2189 591.031 97.642C591.14 98.0515 591.304 98.42 591.523 98.7476C591.755 99.0752 592.041 99.3413 592.383 99.546C592.737 99.7508 593.161 99.8532 593.652 99.8532ZM601.182 91.1108H603.393V92.6668L603.434 92.7078C603.789 92.1209 604.253 91.6636 604.826 91.336C605.399 90.9948 606.034 90.8242 606.73 90.8242C607.89 90.8242 608.805 91.1245 609.474 91.725C610.142 92.3256 610.477 93.2265 610.477 94.4276V101.696H608.143V95.0418C608.115 94.2092 607.938 93.6086 607.61 93.2401C607.283 92.8579 606.771 92.6668 606.075 92.6668C605.679 92.6668 605.324 92.7419 605.01 92.8921C604.696 93.0285 604.43 93.2265 604.212 93.4858C603.993 93.7315 603.823 94.0249 603.7 94.3662C603.577 94.7074 603.516 95.0691 603.516 95.4513V101.696H601.182V91.1108ZM613.122 98.9318H615.968V101.696C615.955 102.542 615.695 103.252 615.19 103.825C614.685 104.398 614.023 104.767 613.204 104.931V103.682C613.655 103.573 613.989 103.32 614.207 102.924C614.44 102.542 614.549 102.133 614.535 101.696H613.122V98.9318ZM624.498 87.0775H627.058V95.5946C627.058 96.086 627.078 96.5842 627.119 97.0892C627.174 97.5942 627.31 98.0515 627.529 98.4609C627.761 98.8568 628.102 99.1843 628.552 99.4437C629.016 99.703 629.665 99.8327 630.497 99.8327C631.33 99.8327 631.971 99.703 632.422 99.4437C632.886 99.1843 633.227 98.8568 633.446 98.4609C633.678 98.0515 633.814 97.5942 633.855 97.0892C633.91 96.5842 633.937 96.086 633.937 95.5946V87.0775H636.496V96.434C636.496 97.3758 636.353 98.1948 636.066 98.8909C635.78 99.587 635.37 100.174 634.838 100.652C634.319 101.116 633.691 101.464 632.954 101.696C632.217 101.928 631.398 102.044 630.497 102.044C629.596 102.044 628.777 101.928 628.04 101.696C627.303 101.464 626.669 101.116 626.136 100.652C625.618 100.174 625.215 99.587 624.928 98.8909C624.642 98.1948 624.498 97.3758 624.498 96.434V87.0775ZM638.168 87.0775H641.219L644.536 92.2369L647.996 87.0775H650.862L646.03 94.1205L651.21 101.696H648.098L644.454 96.1064L640.748 101.696H637.82L643 94.1205L638.168 87.0775ZM658.412 87.0775H665.394C667.004 87.0775 668.212 87.4255 669.018 88.1217C669.823 88.8178 670.225 89.7869 670.225 91.0289C670.225 91.725 670.123 92.3051 669.918 92.7692C669.714 93.2196 669.475 93.5882 669.202 93.8748C668.929 94.1478 668.656 94.3457 668.383 94.4685C668.123 94.5914 667.932 94.6733 667.81 94.7142V94.7552C668.028 94.7825 668.26 94.8507 668.506 94.9599C668.765 95.0691 669.004 95.2465 669.222 95.4922C669.441 95.7243 669.618 96.0314 669.755 96.4136C669.905 96.7957 669.98 97.2735 669.98 97.8467C669.98 98.7066 670.041 99.4915 670.164 100.201C670.301 100.897 670.505 101.396 670.778 101.696H668.035C667.844 101.382 667.728 101.034 667.687 100.652C667.659 100.269 667.646 99.9009 667.646 99.546C667.646 98.8772 667.605 98.304 667.523 97.8262C667.441 97.3349 667.291 96.9322 667.073 96.6183C666.854 96.2907 666.554 96.0518 666.172 95.9017C665.803 95.7516 665.325 95.6765 664.738 95.6765H660.971V101.696H658.412V87.0775ZM660.971 93.7315H665.168C665.987 93.7315 666.608 93.5404 667.032 93.1582C667.455 92.7624 667.666 92.1755 667.666 91.3975C667.666 90.9334 667.598 90.558 667.462 90.2714C667.325 89.9711 667.134 89.7391 666.888 89.5753C666.656 89.4115 666.383 89.3023 666.069 89.2477C665.769 89.1931 665.455 89.1658 665.127 89.1658H660.971V93.7315ZM679.768 95.4718C679.741 95.1032 679.659 94.7483 679.523 94.4071C679.4 94.0659 679.222 93.7724 678.99 93.5267C678.772 93.2674 678.499 93.0627 678.171 92.9125C677.857 92.7487 677.503 92.6668 677.107 92.6668C676.697 92.6668 676.322 92.7419 675.981 92.8921C675.653 93.0285 675.366 93.2265 675.121 93.4858C674.889 93.7315 674.698 94.0249 674.548 94.3662C674.411 94.7074 674.336 95.0759 674.322 95.4718H679.768ZM674.322 97.0073C674.322 97.4168 674.377 97.8126 674.486 98.1948C674.609 98.577 674.786 98.9114 675.018 99.198C675.25 99.4846 675.544 99.7167 675.899 99.8941C676.254 100.058 676.677 100.14 677.168 100.14C677.851 100.14 678.397 99.9965 678.806 99.7098C679.229 99.4096 679.543 98.966 679.748 98.379H681.959C681.836 98.9523 681.625 99.4642 681.324 99.9146C681.024 100.365 680.662 100.747 680.239 101.061C679.816 101.361 679.338 101.587 678.806 101.737C678.287 101.901 677.741 101.982 677.168 101.982C676.336 101.982 675.599 101.846 674.957 101.573C674.315 101.3 673.77 100.918 673.319 100.426C672.882 99.9351 672.548 99.3481 672.316 98.6657C672.097 97.9832 671.988 97.2325 671.988 96.4136C671.988 95.6628 672.104 94.9531 672.336 94.2843C672.582 93.6018 672.923 93.0081 673.36 92.5031C673.81 91.9844 674.35 91.5749 674.977 91.2746C675.605 90.9743 676.315 90.8242 677.107 90.8242C677.939 90.8242 678.683 91.0016 679.338 91.3565C680.007 91.6977 680.56 92.155 680.997 92.7283C681.434 93.3015 681.747 93.9635 681.939 94.7142C682.143 95.4513 682.198 96.2156 682.102 97.0073H674.322ZM685.637 98.2971C685.706 98.9796 685.965 99.4573 686.415 99.7303C686.866 100.003 687.405 100.14 688.033 100.14C688.251 100.14 688.497 100.126 688.77 100.099C689.057 100.058 689.323 99.9896 689.568 99.8941C689.814 99.7986 690.012 99.6621 690.162 99.4846C690.326 99.2935 690.401 99.0479 690.387 98.7476C690.374 98.4473 690.265 98.2016 690.06 98.0105C689.855 97.8194 689.589 97.6693 689.261 97.5601C688.947 97.4372 688.586 97.3349 688.176 97.253C687.767 97.1711 687.35 97.0824 686.927 96.9868C686.491 96.8913 686.067 96.7753 685.658 96.6388C685.262 96.5023 684.9 96.318 684.573 96.086C684.259 95.8539 684.006 95.5605 683.815 95.2056C683.624 94.8371 683.529 94.3866 683.529 93.8543C683.529 93.2811 683.665 92.8033 683.938 92.4212C684.225 92.0253 684.58 91.7114 685.003 91.4794C685.44 91.2337 685.917 91.0631 686.436 90.9675C686.968 90.872 687.473 90.8242 687.951 90.8242C688.497 90.8242 689.016 90.8856 689.507 91.0085C690.012 91.1177 690.462 91.3019 690.858 91.5613C691.268 91.8206 691.602 92.1618 691.862 92.5849C692.134 92.9944 692.305 93.4926 692.373 94.0795H689.937C689.828 93.5199 689.568 93.1446 689.159 92.9535C688.763 92.7624 688.306 92.6668 687.787 92.6668C687.623 92.6668 687.426 92.6805 687.193 92.7078C686.975 92.7351 686.764 92.7897 686.559 92.8716C686.368 92.9398 686.204 93.049 686.067 93.1992C685.931 93.3357 685.863 93.5199 685.863 93.752C685.863 94.0386 685.958 94.2706 686.149 94.4481C686.354 94.6255 686.613 94.7756 686.927 94.8985C687.255 95.0077 687.623 95.1032 688.033 95.1851C688.442 95.267 688.866 95.3557 689.302 95.4513C689.725 95.5468 690.142 95.6628 690.551 95.7993C690.961 95.9358 691.322 96.1201 691.636 96.3521C691.964 96.5842 692.223 96.8776 692.414 97.2325C692.619 97.5874 692.721 98.0242 692.721 98.5428C692.721 99.1707 692.578 99.703 692.291 100.14C692.005 100.577 691.629 100.931 691.165 101.204C690.715 101.477 690.21 101.675 689.65 101.798C689.091 101.921 688.538 101.982 687.992 101.982C687.323 101.982 686.702 101.907 686.129 101.757C685.569 101.607 685.078 101.382 684.655 101.082C684.245 100.768 683.918 100.385 683.672 99.9351C683.44 99.471 683.317 98.925 683.303 98.2971H685.637ZM701.762 95.4718C701.734 95.1032 701.653 94.7483 701.516 94.4071C701.393 94.0659 701.216 93.7724 700.984 93.5267C700.765 93.2674 700.492 93.0627 700.165 92.9125C699.851 92.7487 699.496 92.6668 699.1 92.6668C698.691 92.6668 698.315 92.7419 697.974 92.8921C697.646 93.0285 697.36 93.2265 697.114 93.4858C696.882 93.7315 696.691 94.0249 696.541 94.3662C696.404 94.7074 696.329 95.0759 696.316 95.4718H701.762ZM696.316 97.0073C696.316 97.4168 696.37 97.8126 696.479 98.1948C696.602 98.577 696.78 98.9114 697.012 99.198C697.244 99.4846 697.537 99.7167 697.892 99.8941C698.247 100.058 698.67 100.14 699.162 100.14C699.844 100.14 700.39 99.9965 700.799 99.7098C701.223 99.4096 701.537 98.966 701.741 98.379H703.952C703.83 98.9523 703.618 99.4642 703.318 99.9146C703.017 100.365 702.656 100.747 702.233 101.061C701.81 101.361 701.332 101.587 700.799 101.737C700.281 101.901 699.735 101.982 699.162 101.982C698.329 101.982 697.592 101.846 696.95 101.573C696.309 101.3 695.763 100.918 695.312 100.426C694.876 99.9351 694.541 99.3481 694.309 98.6657C694.091 97.9832 693.982 97.2325 693.982 96.4136C693.982 95.6628 694.098 94.9531 694.33 94.2843C694.575 93.6018 694.917 93.0081 695.353 92.5031C695.804 91.9844 696.343 91.5749 696.971 91.2746C697.599 90.9743 698.308 90.8242 699.1 90.8242C699.933 90.8242 700.677 91.0016 701.332 91.3565C702.001 91.6977 702.553 92.155 702.99 92.7283C703.427 93.3015 703.741 93.9635 703.932 94.7142C704.137 95.4513 704.191 96.2156 704.096 97.0073H696.316ZM714.735 99.3413C714.735 99.6279 714.769 99.8327 714.838 99.9555C714.92 100.078 715.07 100.14 715.288 100.14C715.356 100.14 715.438 100.14 715.534 100.14C715.629 100.14 715.738 100.126 715.861 100.099V101.716C715.779 101.744 715.67 101.771 715.534 101.798C715.411 101.839 715.281 101.873 715.145 101.901C715.008 101.928 714.872 101.948 714.735 101.962C714.599 101.976 714.483 101.982 714.387 101.982C713.909 101.982 713.514 101.887 713.2 101.696C712.886 101.505 712.681 101.17 712.585 100.693C712.121 101.143 711.548 101.471 710.866 101.675C710.197 101.88 709.549 101.982 708.921 101.982C708.443 101.982 707.986 101.914 707.549 101.778C707.112 101.655 706.723 101.471 706.382 101.225C706.054 100.966 705.788 100.645 705.583 100.263C705.392 99.8668 705.297 99.4096 705.297 98.8909C705.297 98.2357 705.413 97.7034 705.645 97.2939C705.891 96.8845 706.204 96.5637 706.587 96.3317C706.982 96.0996 707.419 95.9358 707.897 95.8403C708.388 95.7311 708.88 95.6492 709.371 95.5946C709.794 95.5127 710.197 95.4581 710.579 95.4308C710.961 95.3899 711.296 95.3284 711.582 95.2465C711.883 95.1646 712.115 95.0418 712.278 94.878C712.456 94.7006 712.545 94.4412 712.545 94.1C712.545 93.7997 712.469 93.554 712.319 93.363C712.183 93.1719 712.005 93.0285 711.787 92.933C711.582 92.8238 711.35 92.7556 711.091 92.7283C710.832 92.6873 710.586 92.6668 710.354 92.6668C709.699 92.6668 709.16 92.8033 708.736 93.0763C708.313 93.3493 708.074 93.7724 708.02 94.3457H705.686C705.727 93.6632 705.891 93.0968 706.177 92.6464C706.464 92.1959 706.826 91.8342 707.262 91.5613C707.713 91.2883 708.218 91.0972 708.777 90.988C709.337 90.8788 709.91 90.8242 710.497 90.8242C711.016 90.8242 711.528 90.8788 712.033 90.988C712.538 91.0972 712.988 91.2746 713.384 91.5203C713.793 91.766 714.121 92.0867 714.367 92.4826C714.612 92.8648 714.735 93.3357 714.735 93.8953V99.3413ZM712.401 96.3931C712.046 96.6251 711.61 96.7684 711.091 96.823C710.572 96.864 710.054 96.9322 709.535 97.0278C709.289 97.0687 709.05 97.1301 708.818 97.212C708.586 97.2803 708.382 97.3826 708.204 97.5191C708.027 97.642 707.883 97.8126 707.774 98.031C707.679 98.2357 707.631 98.4882 707.631 98.7885C707.631 99.0479 707.706 99.2662 707.856 99.4437C708.006 99.6211 708.184 99.7644 708.388 99.8736C708.607 99.9692 708.839 100.037 709.084 100.078C709.344 100.119 709.576 100.14 709.781 100.14C710.04 100.14 710.32 100.106 710.62 100.037C710.92 99.9692 711.2 99.8532 711.459 99.6894C711.732 99.5256 711.958 99.3208 712.135 99.0752C712.313 98.8158 712.401 98.5019 712.401 98.1334V96.3931ZM717.247 91.1108H719.437V93.1582H719.478C719.547 92.8716 719.676 92.5918 719.867 92.3188C720.072 92.0458 720.311 91.8001 720.584 91.5817C720.871 91.3497 721.184 91.1654 721.526 91.0289C721.867 90.8924 722.215 90.8242 722.57 90.8242C722.843 90.8242 723.027 90.831 723.123 90.8447C723.232 90.8583 723.341 90.872 723.45 90.8856V93.1377C723.286 93.1104 723.116 93.09 722.938 93.0763C722.775 93.049 722.611 93.0354 722.447 93.0354C722.051 93.0354 721.676 93.1173 721.321 93.2811C720.98 93.4312 720.679 93.6632 720.42 93.9772C720.161 94.2774 719.956 94.6528 719.806 95.1032C719.656 95.5537 719.581 96.0723 719.581 96.6592V101.696H717.247V91.1108ZM731.23 94.6528C731.134 93.9976 730.868 93.5063 730.431 93.1787C730.008 92.8375 729.469 92.6668 728.814 92.6668C728.514 92.6668 728.193 92.7214 727.852 92.8306C727.511 92.9262 727.197 93.1173 726.91 93.4039C726.623 93.6769 726.384 94.0659 726.193 94.5709C726.002 95.0623 725.907 95.7106 725.907 96.5159C725.907 96.9527 725.955 97.3895 726.05 97.8262C726.159 98.263 726.323 98.652 726.541 98.9933C726.773 99.3345 727.067 99.6143 727.422 99.8327C727.777 100.037 728.207 100.14 728.712 100.14C729.394 100.14 729.954 99.9282 730.391 99.5051C730.841 99.082 731.121 98.4882 731.23 97.7239H733.564C733.346 99.1024 732.82 100.16 731.987 100.897C731.169 101.621 730.077 101.982 728.712 101.982C727.879 101.982 727.142 101.846 726.501 101.573C725.873 101.286 725.34 100.904 724.904 100.426C724.467 99.9351 724.132 99.355 723.9 98.6861C723.682 98.0173 723.573 97.2939 723.573 96.5159C723.573 95.7243 723.682 94.9804 723.9 94.2843C724.119 93.5882 724.446 92.9876 724.883 92.4826C725.32 91.9639 725.859 91.5613 726.501 91.2746C727.156 90.9743 727.92 90.8242 728.794 90.8242C729.408 90.8242 729.988 90.9061 730.534 91.0699C731.093 91.22 731.585 91.4521 732.008 91.766C732.445 92.0799 732.8 92.4758 733.073 92.9535C733.346 93.4312 733.509 93.9976 733.564 94.6528H731.23ZM735.461 87.0775H737.795V92.5031H737.836C738.123 92.0253 738.546 91.6295 739.106 91.3156C739.679 90.988 740.313 90.8242 741.01 90.8242C742.17 90.8242 743.084 91.1245 743.753 91.725C744.422 92.3256 744.756 93.2265 744.756 94.4276V101.696H742.422V95.0418C742.395 94.2092 742.218 93.6086 741.89 93.2401C741.562 92.8579 741.051 92.6668 740.354 92.6668C739.959 92.6668 739.604 92.7419 739.29 92.8921C738.976 93.0285 738.71 93.2265 738.491 93.4858C738.273 93.7315 738.102 94.0249 737.979 94.3662C737.857 94.7074 737.795 95.0691 737.795 95.4513V101.696H735.461V87.0775Z" fill="#E1F8E6"/>
<path d="M787.895 55.5774V95.5774" stroke="#E1F8E6"/>
<path d="M841.025 67.3463L845.916 59.7864H843.981L840.237 65.8773L836.403 59.7864H834.379L839.323 67.3463V72.5774H841.025V67.3463ZM851.543 67.0597H846.222C846.246 66.7014 846.324 66.367 846.455 66.0565C846.586 65.734 846.766 65.4534 846.992 65.2145C847.219 64.9756 847.488 64.7905 847.799 64.6591C848.121 64.5158 848.479 64.4442 848.873 64.4442C849.256 64.4442 849.602 64.5158 849.913 64.6591C850.235 64.7905 850.51 64.9756 850.737 65.2145C850.975 65.4414 851.161 65.7161 851.292 66.0386C851.435 66.361 851.519 66.7014 851.543 67.0597ZM853.012 69.6394H851.507C851.376 70.2485 851.101 70.7023 850.683 71.0009C850.277 71.2995 849.751 71.4488 849.106 71.4488C848.605 71.4488 848.169 71.3652 847.799 71.198C847.428 71.0308 847.124 70.8098 846.885 70.5351C846.646 70.2485 846.473 69.926 846.365 69.5677C846.258 69.1975 846.21 68.8094 846.222 68.4033H853.155C853.179 67.842 853.125 67.2508 852.994 66.6297C852.874 66.0087 852.647 65.4354 852.313 64.9099C851.991 64.3844 851.555 63.9545 851.005 63.6201C850.468 63.2737 849.787 63.1006 848.963 63.1006C848.33 63.1006 847.745 63.22 847.207 63.4589C846.682 63.6977 846.222 64.0321 845.828 64.4621C845.446 64.892 845.147 65.3996 844.932 65.9848C844.717 66.57 844.61 67.215 844.61 67.9196C844.634 68.6242 844.735 69.2751 844.914 69.8723C845.105 70.4694 845.386 70.983 845.756 71.4129C846.127 71.8429 846.58 72.1773 847.118 72.4162C847.667 72.655 848.312 72.7745 849.053 72.7745C850.104 72.7745 850.975 72.5117 851.668 71.9862C852.361 71.4607 852.809 70.6784 853.012 69.6394ZM862.938 72.5416C862.676 72.6968 862.311 72.7745 861.846 72.7745C861.451 72.7745 861.135 72.667 860.896 72.452C860.669 72.2251 860.556 71.8608 860.556 71.3592C860.138 71.8608 859.648 72.2251 859.087 72.452C858.537 72.667 857.94 72.7745 857.295 72.7745C856.877 72.7745 856.477 72.7267 856.095 72.6311C855.725 72.5356 855.402 72.3863 855.128 72.1833C854.853 71.9802 854.632 71.7175 854.465 71.395C854.31 71.0606 854.232 70.6605 854.232 70.1948C854.232 69.6693 854.321 69.2393 854.501 68.9049C854.68 68.5705 854.913 68.3018 855.199 68.0987C855.498 67.8838 855.832 67.7225 856.203 67.615C856.585 67.5076 856.973 67.418 857.367 67.3463C857.785 67.2627 858.179 67.203 858.549 67.1672C858.931 67.1194 859.266 67.0597 859.553 66.988C859.839 66.9044 860.066 66.791 860.233 66.6477C860.4 66.4924 860.484 66.2715 860.484 65.9848C860.484 65.6504 860.418 65.3817 860.287 65.1787C860.168 64.9756 860.006 64.8204 859.803 64.7129C859.612 64.6054 859.391 64.5337 859.14 64.4979C858.902 64.4621 858.663 64.4442 858.424 64.4442C857.779 64.4442 857.242 64.5696 856.812 64.8204C856.382 65.0592 856.149 65.519 856.113 66.1998H854.59C854.614 65.6265 854.734 65.1428 854.948 64.7487C855.163 64.3546 855.45 64.0381 855.808 63.7992C856.167 63.5484 856.573 63.3693 857.027 63.2618C857.492 63.1543 857.988 63.1006 858.513 63.1006C858.931 63.1006 859.344 63.1304 859.75 63.1901C860.168 63.2499 860.544 63.3753 860.878 63.5663C861.213 63.7455 861.481 64.0023 861.684 64.3367C861.887 64.6711 861.989 65.107 861.989 65.6444V70.4097C861.989 70.768 862.007 71.0308 862.043 71.198C862.09 71.3652 862.234 71.4488 862.473 71.4488C862.604 71.4488 862.759 71.4189 862.938 71.3592V72.5416ZM860.466 67.7942C860.275 67.9375 860.024 68.045 859.714 68.1167C859.403 68.1764 859.075 68.2301 858.728 68.2779C858.394 68.3137 858.054 68.3615 857.707 68.4212C857.361 68.469 857.05 68.5526 856.776 68.672C856.501 68.7914 856.274 68.9646 856.095 69.1915C855.928 69.4065 855.844 69.7051 855.844 70.0873C855.844 70.3381 855.892 70.553 855.988 70.7322C856.095 70.8994 856.226 71.0367 856.382 71.1442C856.549 71.2517 856.74 71.3293 856.955 71.3771C857.17 71.4249 857.397 71.4488 857.636 71.4488C858.137 71.4488 858.567 71.3831 858.926 71.2517C859.284 71.1084 859.576 70.9352 859.803 70.7322C860.03 70.5172 860.197 70.2903 860.305 70.0514C860.412 69.8006 860.466 69.5677 860.466 69.3528V67.7942ZM864.302 63.3155V72.5774H865.825V68.457C865.825 67.8599 865.884 67.3344 866.004 66.8805C866.123 66.4148 866.314 66.0206 866.577 65.6982C866.84 65.3757 867.186 65.1309 867.616 64.9637C868.046 64.7965 868.566 64.7129 869.175 64.7129V63.1006C868.351 63.0767 867.67 63.2439 867.132 63.6022C866.595 63.9605 866.141 64.5158 865.771 65.2682H865.735V63.3155H864.302Z" fill="#E1F8E6"/>
<path d="M839.428 101.696H829.641C829.655 100.508 829.942 99.471 830.501 98.5838C831.061 97.6966 831.825 96.9254 832.794 96.2702C833.258 95.929 833.743 95.6014 834.248 95.2875C834.753 94.9599 835.217 94.6119 835.64 94.2433C836.063 93.8748 836.411 93.479 836.684 93.0558C836.957 92.6191 837.101 92.1209 837.114 91.5613C837.114 91.3019 837.08 91.0289 837.012 90.7423C836.957 90.442 836.841 90.169 836.664 89.9233C836.486 89.664 836.241 89.4525 835.927 89.2887C835.613 89.1112 835.203 89.0225 834.698 89.0225C834.234 89.0225 833.845 89.118 833.531 89.3091C833.231 89.4866 832.985 89.7391 832.794 90.0667C832.617 90.3806 832.48 90.756 832.385 91.1927C832.303 91.6295 832.255 92.1004 832.241 92.6054H829.907C829.907 91.8138 830.01 91.0835 830.215 90.4147C830.433 89.7323 830.754 89.1453 831.177 88.654C831.6 88.1626 832.112 87.7804 832.712 87.5074C833.327 87.2208 834.036 87.0775 834.842 87.0775C835.715 87.0775 836.445 87.2208 837.032 87.5074C837.619 87.7941 838.09 88.1558 838.445 88.5925C838.814 89.0293 839.073 89.507 839.223 90.0257C839.373 90.5307 839.448 91.0153 839.448 91.4794C839.448 92.0526 839.359 92.5713 839.182 93.0354C839.005 93.4994 838.766 93.9294 838.465 94.3252C838.165 94.7074 837.824 95.0623 837.442 95.3899C837.06 95.7174 836.664 96.0245 836.254 96.3112C835.845 96.5978 835.435 96.8708 835.026 97.1301C834.616 97.3895 834.234 97.6488 833.879 97.9081C833.538 98.1675 833.238 98.4405 832.978 98.7271C832.719 99.0001 832.542 99.2935 832.446 99.6075H839.428V101.696ZM845.911 87.0775C846.935 87.0775 847.767 87.3163 848.409 87.7941C849.064 88.2581 849.569 88.8587 849.924 89.5958C850.292 90.3192 850.538 91.1177 850.661 91.9912C850.797 92.8648 850.866 93.711 850.866 94.53C850.866 95.3489 850.797 96.1952 850.661 97.0687C850.538 97.9423 850.292 98.7476 849.924 99.4846C849.569 100.208 849.064 100.809 848.409 101.286C847.767 101.75 846.935 101.982 845.911 101.982C844.887 101.982 844.048 101.75 843.393 101.286C842.751 100.809 842.246 100.208 841.878 99.4846C841.523 98.7476 841.277 97.9423 841.141 97.0687C841.018 96.1952 840.956 95.3489 840.956 94.53C840.956 93.711 841.018 92.8648 841.141 91.9912C841.277 91.1177 841.523 90.3192 841.878 89.5958C842.246 88.8587 842.751 88.2581 843.393 87.7941C844.048 87.3163 844.887 87.0775 845.911 87.0775ZM845.911 100.037C846.416 100.037 846.839 99.8941 847.18 99.6075C847.522 99.3072 847.788 98.9114 847.979 98.42C848.184 97.915 848.327 97.3281 848.409 96.6592C848.491 95.9904 848.532 95.2807 848.532 94.53C848.532 93.7793 848.491 93.0763 848.409 92.4212C848.327 91.7523 848.184 91.1654 847.979 90.6604C847.788 90.1554 847.522 89.7596 847.18 89.4729C846.839 89.1726 846.416 89.0225 845.911 89.0225C845.392 89.0225 844.962 89.1726 844.621 89.4729C844.294 89.7596 844.027 90.1554 843.823 90.6604C843.632 91.1654 843.495 91.7523 843.413 92.4212C843.331 93.0763 843.29 93.7793 843.29 94.53C843.29 95.2807 843.331 95.9904 843.413 96.6592C843.495 97.3281 843.632 97.915 843.823 98.42C844.027 98.9114 844.294 99.3072 844.621 99.6075C844.962 99.8941 845.392 100.037 845.911 100.037ZM862.181 101.696H852.394C852.408 100.508 852.695 99.471 853.254 98.5838C853.814 97.6966 854.578 96.9254 855.547 96.2702C856.011 95.929 856.496 95.6014 857.001 95.2875C857.506 94.9599 857.97 94.6119 858.393 94.2433C858.816 93.8748 859.164 93.479 859.437 93.0558C859.71 92.6191 859.854 92.1209 859.867 91.5613C859.867 91.3019 859.833 91.0289 859.765 90.7423C859.71 90.442 859.594 90.169 859.417 89.9233C859.239 89.664 858.994 89.4525 858.68 89.2887C858.366 89.1112 857.956 89.0225 857.451 89.0225C856.987 89.0225 856.598 89.118 856.284 89.3091C855.984 89.4866 855.738 89.7391 855.547 90.0667C855.37 90.3806 855.233 90.756 855.138 91.1927C855.056 91.6295 855.008 92.1004 854.995 92.6054H852.661C852.661 91.8138 852.763 91.0835 852.968 90.4147C853.186 89.7323 853.507 89.1453 853.93 88.654C854.353 88.1626 854.865 87.7804 855.465 87.5074C856.08 87.2208 856.789 87.0775 857.595 87.0775C858.468 87.0775 859.199 87.2208 859.785 87.5074C860.372 87.7941 860.843 88.1558 861.198 88.5925C861.567 89.0293 861.826 89.507 861.976 90.0257C862.126 90.5307 862.201 91.0153 862.201 91.4794C862.201 92.0526 862.113 92.5713 861.935 93.0354C861.758 93.4994 861.519 93.9294 861.219 94.3252C860.918 94.7074 860.577 95.0623 860.195 95.3899C859.813 95.7174 859.417 96.0245 859.007 96.3112C858.598 96.5978 858.188 96.8708 857.779 97.1301C857.37 97.3895 856.987 97.6488 856.632 97.9081C856.291 98.1675 855.991 98.4405 855.732 98.7271C855.472 99.0001 855.295 99.2935 855.199 99.6075H862.181V101.696ZM873.557 101.696H863.771C863.785 100.508 864.071 99.471 864.631 98.5838C865.19 97.6966 865.955 96.9254 866.924 96.2702C867.388 95.929 867.873 95.6014 868.378 95.2875C868.883 94.9599 869.347 94.6119 869.77 94.2433C870.193 93.8748 870.541 93.479 870.814 93.0558C871.087 92.6191 871.23 92.1209 871.244 91.5613C871.244 91.3019 871.21 91.0289 871.142 90.7423C871.087 90.442 870.971 90.169 870.793 89.9233C870.616 89.664 870.37 89.4525 870.056 89.2887C869.742 89.1112 869.333 89.0225 868.828 89.0225C868.364 89.0225 867.975 89.118 867.661 89.3091C867.361 89.4866 867.115 89.7391 866.924 90.0667C866.746 90.3806 866.61 90.756 866.514 91.1927C866.433 91.6295 866.385 92.1004 866.371 92.6054H864.037C864.037 91.8138 864.139 91.0835 864.344 90.4147C864.563 89.7323 864.883 89.1453 865.307 88.654C865.73 88.1626 866.241 87.7804 866.842 87.5074C867.456 87.2208 868.166 87.0775 868.971 87.0775C869.845 87.0775 870.575 87.2208 871.162 87.5074C871.749 87.7941 872.22 88.1558 872.575 88.5925C872.943 89.0293 873.203 89.507 873.353 90.0257C873.503 90.5307 873.578 91.0153 873.578 91.4794C873.578 92.0526 873.489 92.5713 873.312 93.0354C873.134 93.4994 872.895 93.9294 872.595 94.3252C872.295 94.7074 871.954 95.0623 871.571 95.3899C871.189 95.7174 870.793 96.0245 870.384 96.3112C869.975 96.5978 869.565 96.8708 869.156 97.1301C868.746 97.3895 868.364 97.6488 868.009 97.9081C867.668 98.1675 867.368 98.4405 867.108 98.7271C866.849 99.0001 866.671 99.2935 866.576 99.6075H873.557V101.696Z" fill="#E1F8E6"/>
<rect x="7.20898" y="7.62964" width="915.581" height="147.014" rx="47.9477" stroke="#133D1C" stroke-opacity="0.2" stroke-width="14"/>
</svg>
