<svg width="960" height="162" viewBox="0 0 960 162" fill="none" xmlns="http://www.w3.org/2000/svg">
<rect x="14.7095" y="14" width="930.581" height="133.014" rx="40.9477" fill="#133D1C"/>
<path d="M105.256 65.2833V60.5897H108.589C109.556 60.5897 110.261 60.7927 110.702 61.1987C111.156 61.5929 111.383 62.1721 111.383 62.9365C111.383 63.7008 111.156 64.286 110.702 64.6921C110.261 65.0982 109.556 65.2952 108.589 65.2833H105.256ZM103.555 59.1565V71.9475H105.256V66.7164H109.162C110.452 66.7284 111.425 66.4 112.082 65.7311C112.751 65.0623 113.085 64.1308 113.085 62.9365C113.085 61.7422 112.751 60.8166 112.082 60.1597C111.425 59.4909 110.452 59.1565 109.162 59.1565H103.555ZM114.867 62.6857V71.9475H116.389V67.8272C116.389 67.23 116.449 66.7045 116.568 66.2507C116.688 65.7849 116.879 65.3908 117.142 65.0683C117.404 64.7458 117.751 64.501 118.181 64.3338C118.611 64.1666 119.13 64.083 119.739 64.083V62.4707C118.915 62.4468 118.234 62.614 117.697 62.9723C117.16 63.3306 116.706 63.8859 116.336 64.6384H116.3V62.6857H114.867ZM121.682 67.3255C121.682 66.7642 121.753 66.2686 121.897 65.8386C122.052 65.3967 122.261 65.0265 122.524 64.7279C122.786 64.4293 123.091 64.2024 123.437 64.0472C123.796 63.8919 124.172 63.8143 124.566 63.8143C124.96 63.8143 125.33 63.8919 125.677 64.0472C126.035 64.2024 126.346 64.4293 126.608 64.7279C126.871 65.0265 127.074 65.3967 127.217 65.8386C127.373 66.2686 127.45 66.7642 127.45 67.3255C127.45 67.8869 127.373 68.3885 127.217 68.8304C127.074 69.2603 126.871 69.6246 126.608 69.9232C126.346 70.2098 126.035 70.4307 125.677 70.586C125.33 70.7413 124.96 70.8189 124.566 70.8189C124.172 70.8189 123.796 70.7413 123.437 70.586C123.091 70.4307 122.786 70.2098 122.524 69.9232C122.261 69.6246 122.052 69.2603 121.897 68.8304C121.753 68.3885 121.682 67.8869 121.682 67.3255ZM120.069 67.3255C120.069 68.0063 120.165 68.6393 120.356 69.2245C120.547 69.8097 120.834 70.3233 121.216 70.7651C121.598 71.1951 122.07 71.5355 122.631 71.7863C123.193 72.0251 123.837 72.1446 124.566 72.1446C125.306 72.1446 125.951 72.0251 126.501 71.7863C127.062 71.5355 127.534 71.1951 127.916 70.7651C128.298 70.3233 128.585 69.8097 128.776 69.2245C128.967 68.6393 129.063 68.0063 129.063 67.3255C129.063 66.6448 128.967 66.0118 128.776 65.4266C128.585 64.8294 128.298 64.3159 127.916 63.8859C127.534 63.444 127.062 63.0977 126.501 62.8469C125.951 62.5961 125.306 62.4707 124.566 62.4707C123.837 62.4707 123.193 62.5961 122.631 62.8469C122.07 63.0977 121.598 63.444 121.216 63.8859C120.834 64.3159 120.547 64.8294 120.356 65.4266C120.165 66.0118 120.069 66.6448 120.069 67.3255ZM131.969 67.3972C131.969 66.9434 132.016 66.5015 132.112 66.0715C132.208 65.6416 132.363 65.2594 132.578 64.925C132.793 64.5906 133.079 64.3219 133.438 64.1188C133.796 63.9158 134.232 63.8143 134.745 63.8143C135.271 63.8143 135.719 63.9158 136.089 64.1188C136.459 64.3099 136.758 64.5667 136.985 64.8892C137.224 65.2116 137.397 65.5878 137.504 66.0178C137.612 66.4358 137.666 66.8717 137.666 67.3255C137.666 67.7555 137.612 68.1795 137.504 68.5975C137.409 69.0155 137.247 69.3917 137.021 69.7261C136.794 70.0486 136.501 70.3113 136.143 70.5143C135.784 70.7174 135.349 70.8189 134.835 70.8189C134.345 70.8189 133.915 70.7233 133.545 70.5323C133.187 70.3412 132.888 70.0844 132.649 69.7619C132.422 69.4395 132.249 69.0752 132.13 68.6691C132.022 68.2511 131.969 67.8272 131.969 67.3972ZM139.135 71.9475V59.1565H137.612V63.9218H137.576C137.409 63.6471 137.2 63.4202 136.949 63.241C136.71 63.0499 136.453 62.9006 136.179 62.7931C135.904 62.6737 135.629 62.5901 135.355 62.5423C135.08 62.4946 134.823 62.4707 134.584 62.4707C133.88 62.4707 133.259 62.6021 132.721 62.8648C132.196 63.1156 131.754 63.462 131.395 63.9039C131.049 64.3338 130.786 64.8414 130.607 65.4266C130.44 66.0118 130.356 66.6328 130.356 67.2897C130.356 67.9466 130.446 68.5676 130.625 69.1528C130.804 69.738 131.067 70.2516 131.413 70.6935C131.772 71.1354 132.213 71.4877 132.739 71.7504C133.276 72.0132 133.903 72.1446 134.62 72.1446C135.265 72.1446 135.856 72.0311 136.394 71.8042C136.931 71.5773 137.325 71.207 137.576 70.6935H137.612V71.9475H139.135ZM149.145 71.9475V62.6857H147.622V67.9167C147.622 68.3347 147.562 68.7229 147.443 69.0812C147.335 69.4275 147.168 69.7321 146.941 69.9948C146.714 70.2576 146.428 70.4606 146.081 70.6039C145.747 70.7472 145.347 70.8189 144.881 70.8189C144.296 70.8189 143.836 70.6517 143.502 70.3173C143.167 69.9829 143 69.529 143 68.9558V62.6857H141.477V68.7766C141.477 69.2782 141.525 69.738 141.621 70.156C141.728 70.5621 141.907 70.9144 142.158 71.213C142.409 71.5116 142.737 71.7445 143.143 71.9117C143.549 72.0669 144.057 72.1446 144.666 72.1446C145.347 72.1446 145.938 72.0132 146.44 71.7504C146.941 71.4758 147.353 71.0518 147.676 70.4785H147.712V71.9475H149.145ZM157.72 65.6595H159.296C159.237 65.1101 159.093 64.6384 158.866 64.2442C158.639 63.8382 158.347 63.5038 157.988 63.241C157.642 62.9783 157.236 62.7872 156.77 62.6677C156.316 62.5364 155.827 62.4707 155.301 62.4707C154.573 62.4707 153.934 62.6021 153.384 62.8648C152.835 63.1156 152.375 63.4679 152.005 63.9218C151.647 64.3637 151.378 64.8892 151.199 65.4983C151.02 66.0954 150.93 66.7403 150.93 67.433C150.93 68.1257 151.02 68.7647 151.199 69.3499C151.39 69.9232 151.665 70.4188 152.023 70.8368C152.393 71.2548 152.847 71.5773 153.384 71.8042C153.934 72.0311 154.561 72.1446 155.265 72.1446C156.448 72.1446 157.379 71.8341 158.06 71.213C158.753 70.592 159.183 69.7082 159.35 68.5617H157.791C157.696 69.2782 157.433 69.8336 157.003 70.2277C156.585 70.6218 156 70.8189 155.248 70.8189C154.77 70.8189 154.358 70.7233 154.011 70.5323C153.665 70.3412 153.384 70.0904 153.169 69.7798C152.954 69.4574 152.793 69.0931 152.686 68.6871C152.59 68.281 152.542 67.863 152.542 67.433C152.542 66.9673 152.59 66.5194 152.686 66.0894C152.781 65.6475 152.937 65.2594 153.152 64.925C153.378 64.5906 153.677 64.3219 154.047 64.1188C154.418 63.9158 154.877 63.8143 155.427 63.8143C156.072 63.8143 156.585 63.9755 156.967 64.298C157.35 64.6204 157.6 65.0743 157.72 65.6595ZM163.168 62.6857V59.9089H161.645V62.6857H160.069V64.0293H161.645V69.9232C161.645 70.3531 161.687 70.6995 161.77 70.9622C161.854 71.225 161.979 71.428 162.147 71.5713C162.326 71.7146 162.553 71.8161 162.827 71.8759C163.114 71.9236 163.454 71.9475 163.849 71.9475H165.013V70.6039H164.314C164.075 70.6039 163.878 70.5979 163.723 70.586C163.58 70.5621 163.466 70.5203 163.383 70.4606C163.299 70.4009 163.239 70.3173 163.204 70.2098C163.18 70.1023 163.168 69.959 163.168 69.7798V64.0293H165.013V62.6857H163.168Z" fill="#E1F8E6"/>
<path d="M57.1518 86.4476H59.711V92.2622H66.365V86.4476H68.9243V101.066H66.365V94.4733H59.711V101.066H57.1518V86.4476ZM78.9294 94.8419C78.9021 94.4733 78.8202 94.1185 78.6837 93.7772C78.5609 93.436 78.3834 93.1425 78.1514 92.8969C77.933 92.6375 77.66 92.4328 77.3325 92.2826C77.0185 92.1189 76.6636 92.037 76.2678 92.037C75.8583 92.037 75.483 92.112 75.1418 92.2622C74.8142 92.3987 74.5275 92.5966 74.2819 92.8559C74.0498 93.1016 73.8587 93.3951 73.7086 93.7363C73.5721 94.0775 73.497 94.446 73.4834 94.8419H78.9294ZM73.4834 96.3774C73.4834 96.7869 73.538 97.1827 73.6472 97.5649C73.77 97.9471 73.9474 98.2815 74.1795 98.5681C74.4115 98.8547 74.705 99.0868 75.0599 99.2642C75.4147 99.428 75.8379 99.5099 76.3292 99.5099C77.0117 99.5099 77.5577 99.3666 77.9671 99.08C78.3903 98.7797 78.7042 98.3361 78.9089 97.7492H81.1201C80.9973 98.3224 80.7857 98.8343 80.4854 99.2847C80.1851 99.7351 79.8234 100.117 79.4003 100.431C78.9772 100.732 78.4995 100.957 77.9671 101.107C77.4485 101.271 76.9025 101.353 76.3292 101.353C75.4966 101.353 74.7596 101.216 74.1181 100.943C73.4765 100.67 72.9306 100.288 72.4802 99.7965C72.0434 99.3052 71.709 98.7183 71.4769 98.0358C71.2586 97.3533 71.1494 96.6026 71.1494 95.7837C71.1494 95.033 71.2654 94.3232 71.4974 93.6544C71.7431 92.9719 72.0843 92.3782 72.5211 91.8732C72.9715 91.3545 73.5107 90.945 74.1385 90.6447C74.7664 90.3445 75.4762 90.1943 76.2678 90.1943C77.1004 90.1943 77.8443 90.3718 78.4995 90.7266C79.1683 91.0679 79.7211 91.5251 80.1578 92.0984C80.5946 92.6716 80.9086 93.3336 81.0996 94.0843C81.3044 94.8214 81.359 95.5858 81.2634 96.3774H73.4834ZM81.8708 90.4809H84.43L87.194 98.3838H87.2349L89.917 90.4809H92.3534L88.2381 101.639C88.047 102.117 87.8559 102.574 87.6649 103.011C87.4874 103.448 87.2622 103.83 86.9892 104.157C86.7299 104.499 86.4023 104.765 86.0065 104.956C85.6107 105.161 85.1056 105.263 84.4914 105.263C83.9454 105.263 83.4063 105.222 82.874 105.14V103.175C83.0651 103.202 83.2493 103.229 83.4268 103.257C83.6042 103.298 83.7885 103.318 83.9796 103.318C84.2526 103.318 84.4778 103.284 84.6552 103.216C84.8326 103.147 84.976 103.045 85.0852 102.909C85.208 102.786 85.3104 102.636 85.3923 102.458C85.4742 102.281 85.5492 102.076 85.6175 101.844L85.8836 101.025L81.8708 90.4809ZM99.6804 86.4476H102.24V93.1016L108.75 86.4476H111.903L106.068 92.2826L112.313 101.066H109.119L104.328 94.0843L102.24 96.1522V101.066H99.6804V86.4476ZM122.234 98.7114C122.234 98.9981 122.268 99.2028 122.336 99.3256C122.418 99.4485 122.568 99.5099 122.787 99.5099C122.855 99.5099 122.937 99.5099 123.032 99.5099C123.128 99.5099 123.237 99.4963 123.36 99.469V101.086C123.278 101.114 123.169 101.141 123.032 101.168C122.909 101.209 122.78 101.243 122.643 101.271C122.507 101.298 122.37 101.318 122.234 101.332C122.097 101.346 121.981 101.353 121.886 101.353C121.408 101.353 121.012 101.257 120.698 101.066C120.384 100.875 120.18 100.54 120.084 100.063C119.62 100.513 119.047 100.841 118.364 101.045C117.695 101.25 117.047 101.353 116.419 101.353C115.942 101.353 115.484 101.284 115.047 101.148C114.611 101.025 114.222 100.841 113.88 100.595C113.553 100.336 113.287 100.015 113.082 99.6327C112.891 99.2369 112.795 98.7797 112.795 98.261C112.795 97.6058 112.911 97.0735 113.143 96.664C113.389 96.2546 113.703 95.9338 114.085 95.7018C114.481 95.4697 114.918 95.3059 115.396 95.2104C115.887 95.1012 116.378 95.0193 116.87 94.9647C117.293 94.8828 117.695 94.8282 118.078 94.8009C118.46 94.76 118.794 94.6986 119.081 94.6167C119.381 94.5348 119.613 94.4119 119.777 94.2481C119.954 94.0707 120.043 93.8114 120.043 93.4701C120.043 93.1698 119.968 92.9242 119.818 92.7331C119.681 92.542 119.504 92.3987 119.286 92.3031C119.081 92.1939 118.849 92.1257 118.589 92.0984C118.33 92.0574 118.084 92.037 117.852 92.037C117.197 92.037 116.658 92.1735 116.235 92.4464C115.812 92.7194 115.573 93.1425 115.518 93.7158H113.184C113.225 93.0334 113.389 92.4669 113.676 92.0165C113.962 91.5661 114.324 91.2044 114.761 90.9314C115.211 90.6584 115.716 90.4673 116.276 90.3581C116.836 90.2489 117.409 90.1943 117.996 90.1943C118.514 90.1943 119.026 90.2489 119.531 90.3581C120.036 90.4673 120.487 90.6447 120.883 90.8904C121.292 91.1361 121.62 91.4569 121.865 91.8527C122.111 92.2349 122.234 92.7058 122.234 93.2654V98.7114ZM119.9 95.7632C119.545 95.9952 119.108 96.1385 118.589 96.1931C118.071 96.2341 117.552 96.3023 117.033 96.3979C116.788 96.4388 116.549 96.5003 116.317 96.5821C116.085 96.6504 115.88 96.7528 115.703 96.8893C115.525 97.0121 115.382 97.1827 115.273 97.4011C115.177 97.6058 115.129 97.8584 115.129 98.1586C115.129 98.418 115.204 98.6364 115.355 98.8138C115.505 98.9912 115.682 99.1346 115.887 99.2437C116.105 99.3393 116.337 99.4075 116.583 99.4485C116.842 99.4894 117.074 99.5099 117.279 99.5099C117.538 99.5099 117.818 99.4758 118.119 99.4075C118.419 99.3393 118.699 99.2233 118.958 99.0595C119.231 98.8957 119.456 98.691 119.634 98.4453C119.811 98.1859 119.9 97.872 119.9 97.5035V95.7632ZM124.745 90.4809H126.936V92.5283H126.977C127.045 92.2417 127.175 91.9619 127.366 91.6889C127.571 91.4159 127.809 91.1702 128.082 90.9518C128.369 90.7198 128.683 90.5355 129.024 90.3991C129.365 90.2626 129.714 90.1943 130.068 90.1943C130.341 90.1943 130.526 90.2011 130.621 90.2148C130.73 90.2284 130.84 90.2421 130.949 90.2557V92.5079C130.785 92.4806 130.614 92.4601 130.437 92.4464C130.273 92.4191 130.109 92.4055 129.946 92.4055C129.55 92.4055 129.174 92.4874 128.819 92.6512C128.478 92.8013 128.178 93.0334 127.919 93.3473C127.659 93.6476 127.455 94.0229 127.304 94.4733C127.154 94.9238 127.079 95.4424 127.079 96.0294V101.066H124.745V90.4809ZM140.808 98.7114C140.808 98.9981 140.842 99.2028 140.911 99.3256C140.992 99.4485 141.143 99.5099 141.361 99.5099C141.429 99.5099 141.511 99.5099 141.607 99.5099C141.702 99.5099 141.811 99.4963 141.934 99.469V101.086C141.852 101.114 141.743 101.141 141.607 101.168C141.484 101.209 141.354 101.243 141.218 101.271C141.081 101.298 140.945 101.318 140.808 101.332C140.672 101.346 140.556 101.353 140.46 101.353C139.982 101.353 139.587 101.257 139.273 101.066C138.959 100.875 138.754 100.54 138.658 100.063C138.194 100.513 137.621 100.841 136.939 101.045C136.27 101.25 135.622 101.353 134.994 101.353C134.516 101.353 134.059 101.284 133.622 101.148C133.185 101.025 132.796 100.841 132.455 100.595C132.127 100.336 131.861 100.015 131.656 99.6327C131.465 99.2369 131.37 98.7797 131.37 98.261C131.37 97.6058 131.486 97.0735 131.718 96.664C131.964 96.2546 132.277 95.9338 132.66 95.7018C133.055 95.4697 133.492 95.3059 133.97 95.2104C134.461 95.1012 134.953 95.0193 135.444 94.9647C135.867 94.8828 136.27 94.8282 136.652 94.8009C137.034 94.76 137.369 94.6986 137.655 94.6167C137.956 94.5348 138.188 94.4119 138.351 94.2481C138.529 94.0707 138.618 93.8114 138.618 93.4701C138.618 93.1698 138.542 92.9242 138.392 92.7331C138.256 92.542 138.078 92.3987 137.86 92.3031C137.655 92.1939 137.423 92.1257 137.164 92.0984C136.905 92.0574 136.659 92.037 136.427 92.037C135.772 92.037 135.232 92.1735 134.809 92.4464C134.386 92.7194 134.147 93.1425 134.093 93.7158H131.759C131.8 93.0334 131.964 92.4669 132.25 92.0165C132.537 91.5661 132.898 91.2044 133.335 90.9314C133.786 90.6584 134.291 90.4673 134.85 90.3581C135.41 90.2489 135.983 90.1943 136.57 90.1943C137.089 90.1943 137.601 90.2489 138.106 90.3581C138.611 90.4673 139.061 90.6447 139.457 90.8904C139.866 91.1361 140.194 91.4569 140.44 91.8527C140.685 92.2349 140.808 92.7058 140.808 93.2654V98.7114ZM138.474 95.7632C138.119 95.9952 137.683 96.1385 137.164 96.1931C136.645 96.2341 136.127 96.3023 135.608 96.3979C135.362 96.4388 135.123 96.5003 134.891 96.5821C134.659 96.6504 134.454 96.7528 134.277 96.8893C134.1 97.0121 133.956 97.1827 133.847 97.4011C133.752 97.6058 133.704 97.8584 133.704 98.1586C133.704 98.418 133.779 98.6364 133.929 98.8138C134.079 98.9912 134.257 99.1346 134.461 99.2437C134.68 99.3393 134.912 99.4075 135.157 99.4485C135.417 99.4894 135.649 99.5099 135.854 99.5099C136.113 99.5099 136.393 99.4758 136.693 99.4075C136.993 99.3393 137.273 99.2233 137.532 99.0595C137.805 98.8957 138.031 98.691 138.208 98.4453C138.385 98.1859 138.474 97.872 138.474 97.5035V95.7632ZM149.305 86.4476H152.908L156.941 97.8925H156.982L160.913 86.4476H164.476V101.066H162.039V89.7848H161.998L157.944 101.066H155.836L151.782 89.7848H151.741V101.066H149.305V86.4476ZM172.065 101.353C171.218 101.353 170.461 101.216 169.792 100.943C169.137 100.656 168.577 100.267 168.113 99.7761C167.663 99.2847 167.315 98.6978 167.069 98.0153C166.837 97.3329 166.721 96.5821 166.721 95.7632C166.721 94.9579 166.837 94.214 167.069 93.5315C167.315 92.8491 167.663 92.2622 168.113 91.7708C168.577 91.2794 169.137 90.8972 169.792 90.6243C170.461 90.3376 171.218 90.1943 172.065 90.1943C172.911 90.1943 173.662 90.3376 174.317 90.6243C174.986 90.8972 175.545 91.2794 175.996 91.7708C176.46 92.2622 176.808 92.8491 177.04 93.5315C177.286 94.214 177.408 94.9579 177.408 95.7632C177.408 96.5821 177.286 97.3329 177.04 98.0153C176.808 98.6978 176.46 99.2847 175.996 99.7761C175.545 100.267 174.986 100.656 174.317 100.943C173.662 101.216 172.911 101.353 172.065 101.353ZM172.065 99.5099C172.583 99.5099 173.034 99.4007 173.416 99.1823C173.798 98.9639 174.112 98.6773 174.358 98.3224C174.603 97.9675 174.781 97.5717 174.89 97.1349C175.013 96.6845 175.074 96.2273 175.074 95.7632C175.074 95.3128 175.013 94.8623 174.89 94.4119C174.781 93.9615 174.603 93.5657 174.358 93.2244C174.112 92.8696 173.798 92.5829 173.416 92.3645C173.034 92.1462 172.583 92.037 172.065 92.037C171.546 92.037 171.096 92.1462 170.713 92.3645C170.331 92.5829 170.017 92.8696 169.772 93.2244C169.526 93.5657 169.342 93.9615 169.219 94.4119C169.11 94.8623 169.055 95.3128 169.055 95.7632C169.055 96.2273 169.11 96.6845 169.219 97.1349C169.342 97.5717 169.526 97.9675 169.772 98.3224C170.017 98.6773 170.331 98.9639 170.713 99.1823C171.096 99.4007 171.546 99.5099 172.065 99.5099ZM179.41 86.4476H181.744V91.8527H181.785C181.949 91.5934 182.147 91.3613 182.379 91.1566C182.611 90.9518 182.863 90.7812 183.136 90.6447C183.423 90.4946 183.716 90.3854 184.017 90.3172C184.331 90.2353 184.638 90.1943 184.938 90.1943C185.771 90.1943 186.494 90.3445 187.108 90.6447C187.736 90.9314 188.255 91.334 188.664 91.8527C189.074 92.3577 189.381 92.9515 189.586 93.6339C189.79 94.3164 189.893 95.0466 189.893 95.8246C189.893 96.5344 189.797 97.2237 189.606 97.8925C189.429 98.5613 189.149 99.155 188.767 99.6737C188.398 100.179 187.927 100.588 187.354 100.902C186.781 101.202 186.105 101.353 185.327 101.353C184.972 101.353 184.611 101.325 184.242 101.271C183.887 101.23 183.546 101.141 183.218 101.004C182.891 100.868 182.59 100.691 182.317 100.472C182.058 100.254 181.84 99.9672 181.662 99.6123H181.621V101.066H179.41V86.4476ZM187.559 95.7837C187.559 95.3059 187.497 94.8419 187.374 94.3914C187.252 93.941 187.067 93.5452 186.822 93.204C186.576 92.8491 186.269 92.5693 185.9 92.3645C185.532 92.1462 185.109 92.037 184.631 92.037C183.648 92.037 182.904 92.3782 182.399 93.0607C181.908 93.7431 181.662 94.6508 181.662 95.7837C181.662 96.316 181.724 96.8142 181.847 97.2783C181.983 97.7287 182.181 98.1177 182.44 98.4453C182.7 98.7728 183.007 99.0322 183.362 99.2233C183.73 99.4144 184.153 99.5099 184.631 99.5099C185.163 99.5099 185.614 99.4007 185.982 99.1823C186.351 98.9639 186.651 98.6841 186.883 98.3429C187.129 97.988 187.299 97.5922 187.395 97.1554C187.504 96.705 187.559 96.2477 187.559 95.7837ZM191.926 86.4476H194.26V88.6588H191.926V86.4476ZM191.926 90.4809H194.26V101.066H191.926V90.4809ZM196.865 86.4476H199.199V101.066H196.865V86.4476ZM209.01 94.8419C208.983 94.4733 208.901 94.1185 208.765 93.7772C208.642 93.436 208.464 93.1425 208.232 92.8969C208.014 92.6375 207.741 92.4328 207.413 92.2826C207.099 92.1189 206.744 92.037 206.349 92.037C205.939 92.037 205.564 92.112 205.223 92.2622C204.895 92.3987 204.608 92.5966 204.363 92.8559C204.131 93.1016 203.94 93.3951 203.789 93.7363C203.653 94.0775 203.578 94.446 203.564 94.8419H209.01ZM203.564 96.3774C203.564 96.7869 203.619 97.1827 203.728 97.5649C203.851 97.9471 204.028 98.2815 204.26 98.5681C204.492 98.8547 204.786 99.0868 205.141 99.2642C205.496 99.428 205.919 99.5099 206.41 99.5099C207.092 99.5099 207.638 99.3666 208.048 99.08C208.471 98.7797 208.785 98.3361 208.99 97.7492H211.201C211.078 98.3224 210.866 98.8343 210.566 99.2847C210.266 99.7351 209.904 100.117 209.481 100.431C209.058 100.732 208.58 100.957 208.048 101.107C207.529 101.271 206.983 101.353 206.41 101.353C205.577 101.353 204.84 101.216 204.199 100.943C203.557 100.67 203.011 100.288 202.561 99.7965C202.124 99.3052 201.79 98.7183 201.558 98.0358C201.339 97.3533 201.23 96.6026 201.23 95.7837C201.23 95.033 201.346 94.3232 201.578 93.6544C201.824 92.9719 202.165 92.3782 202.602 91.8732C203.052 91.3545 203.591 90.945 204.219 90.6447C204.847 90.3445 205.557 90.1943 206.349 90.1943C207.181 90.1943 207.925 90.3718 208.58 90.7266C209.249 91.0679 209.802 91.5251 210.239 92.0984C210.675 92.6716 210.989 93.3336 211.18 94.0843C211.385 94.8214 211.44 95.5858 211.344 96.3774H203.564Z" fill="#E1F8E6"/>
<path d="M253.605 54.9478V94.9478" stroke="#E1F8E6"/>
<path d="M306.443 63.0084H308.145C308.049 62.3276 307.846 61.7305 307.536 61.2169C307.225 60.6914 306.837 60.2555 306.371 59.9091C305.905 59.5628 305.374 59.3 304.777 59.1209C304.18 58.9418 303.547 58.8522 302.878 58.8522C301.898 58.8522 301.027 59.0313 300.262 59.3896C299.51 59.736 298.877 60.2137 298.363 60.8228C297.862 61.4319 297.479 62.1485 297.217 62.9725C296.954 63.7847 296.823 64.6565 296.823 65.5881C296.823 66.5196 296.942 67.3915 297.181 68.2036C297.432 69.0157 297.802 69.7204 298.292 70.3175C298.781 70.9147 299.396 71.3864 300.137 71.7328C300.877 72.0672 301.743 72.2344 302.734 72.2344C304.371 72.2344 305.66 71.7865 306.604 70.8908C307.547 69.9951 308.103 68.741 308.27 67.1287H306.568C306.532 67.6542 306.425 68.1439 306.246 68.5977C306.067 69.0516 305.816 69.4457 305.493 69.7801C305.183 70.1025 304.807 70.3593 304.365 70.5504C303.935 70.7296 303.439 70.8191 302.878 70.8191C302.113 70.8191 301.456 70.6758 300.907 70.3892C300.358 70.1025 299.904 69.7204 299.546 69.2426C299.199 68.753 298.942 68.1857 298.775 67.5408C298.608 66.8839 298.524 66.1912 298.524 65.4627C298.524 64.7939 298.608 64.1489 298.775 63.5279C298.942 62.9069 299.199 62.3575 299.546 61.8797C299.904 61.3901 300.352 61.0019 300.889 60.7153C301.439 60.4287 302.095 60.2853 302.86 60.2853C303.756 60.2853 304.526 60.5123 305.171 60.9661C305.828 61.4199 306.252 62.1007 306.443 63.0084ZM311.238 67.3258C311.238 66.7645 311.31 66.2688 311.453 65.8389C311.608 65.397 311.817 65.0267 312.08 64.7282C312.343 64.4296 312.647 64.2027 312.994 64.0474C313.352 63.8922 313.728 63.8145 314.122 63.8145C314.516 63.8145 314.887 63.8922 315.233 64.0474C315.591 64.2027 315.902 64.4296 316.165 64.7282C316.427 65.0267 316.63 65.397 316.774 65.8389C316.929 66.2688 317.007 66.7645 317.007 67.3258C317.007 67.8871 316.929 68.3887 316.774 68.8306C316.63 69.2606 316.427 69.6248 316.165 69.9234C315.902 70.21 315.591 70.431 315.233 70.5862C314.887 70.7415 314.516 70.8191 314.122 70.8191C313.728 70.8191 313.352 70.7415 312.994 70.5862C312.647 70.431 312.343 70.21 312.08 69.9234C311.817 69.6248 311.608 69.2606 311.453 68.8306C311.31 68.3887 311.238 67.8871 311.238 67.3258ZM309.626 67.3258C309.626 68.0065 309.721 68.6395 309.912 69.2247C310.103 69.8099 310.39 70.3235 310.772 70.7654C311.154 71.1953 311.626 71.5357 312.188 71.7865C312.749 72.0254 313.394 72.1448 314.122 72.1448C314.863 72.1448 315.508 72.0254 316.057 71.7865C316.618 71.5357 317.09 71.1953 317.472 70.7654C317.855 70.3235 318.141 69.8099 318.332 69.2247C318.523 68.6395 318.619 68.0065 318.619 67.3258C318.619 66.645 318.523 66.012 318.332 65.4268C318.141 64.8297 317.855 64.3161 317.472 63.8862C317.09 63.4443 316.618 63.0979 316.057 62.8471C315.508 62.5963 314.863 62.4709 314.122 62.4709C313.394 62.4709 312.749 62.5963 312.188 62.8471C311.626 63.0979 311.154 63.4443 310.772 63.8862C310.39 64.3161 310.103 64.8297 309.912 65.4268C309.721 66.012 309.626 66.645 309.626 67.3258ZM320.414 62.6859V71.9478H321.937V66.1793C321.937 66.0001 321.979 65.7792 322.062 65.5164C322.158 65.2417 322.301 64.979 322.492 64.7282C322.695 64.4774 322.952 64.2624 323.263 64.0832C323.585 63.9041 323.967 63.8145 324.409 63.8145C324.756 63.8145 325.036 63.8683 325.251 63.9758C325.478 64.0713 325.657 64.2146 325.789 64.4057C325.92 64.5849 326.01 64.7998 326.057 65.0506C326.117 65.3014 326.147 65.5761 326.147 65.8747V71.9478H327.67V66.1793C327.67 65.4627 327.885 64.8894 328.315 64.4595C328.745 64.0295 329.336 63.8145 330.088 63.8145C330.458 63.8145 330.757 63.8683 330.984 63.9758C331.223 64.0832 331.408 64.2325 331.539 64.4236C331.671 64.6028 331.76 64.8177 331.808 65.0685C331.856 65.3194 331.88 65.5881 331.88 65.8747V71.9478H333.402V65.1581C333.402 64.6804 333.325 64.2743 333.169 63.9399C333.026 63.5936 332.817 63.3129 332.542 63.0979C332.28 62.883 331.957 62.7277 331.575 62.6322C331.205 62.5247 330.787 62.4709 330.321 62.4709C329.712 62.4709 329.151 62.6083 328.637 62.883C328.135 63.1577 327.729 63.5458 327.419 64.0474C327.228 63.4741 326.899 63.0681 326.434 62.8292C325.968 62.5904 325.448 62.4709 324.875 62.4709C323.573 62.4709 322.576 62.9964 321.883 64.0474H321.847V62.6859H320.414ZM335.741 62.6859V75.4769H337.264V70.7116H337.299C337.467 70.9863 337.67 71.2192 337.909 71.4103C338.159 71.5895 338.422 71.7328 338.697 71.8403C338.972 71.9478 339.246 72.0254 339.521 72.0732C339.808 72.1209 340.064 72.1448 340.291 72.1448C340.996 72.1448 341.611 72.0194 342.136 71.7686C342.674 71.5178 343.116 71.1774 343.462 70.7475C343.82 70.3056 344.083 69.792 344.25 69.2068C344.43 68.6216 344.519 68.0006 344.519 67.3437C344.519 66.6868 344.43 66.0658 344.25 65.4806C344.071 64.8954 343.802 64.3818 343.444 63.9399C343.098 63.4861 342.656 63.1278 342.119 62.8651C341.593 62.6023 340.972 62.4709 340.255 62.4709C339.61 62.4709 339.019 62.5904 338.482 62.8292C337.944 63.0561 337.55 63.4264 337.299 63.9399H337.264V62.6859H335.741ZM342.907 67.2362C342.907 67.6901 342.859 68.1319 342.763 68.5619C342.668 68.9918 342.513 69.374 342.298 69.7084C342.083 70.0428 341.796 70.3116 341.438 70.5146C341.091 70.7176 340.655 70.8191 340.13 70.8191C339.605 70.8191 339.157 70.7236 338.786 70.5325C338.416 70.3295 338.112 70.0667 337.873 69.7443C337.646 69.4218 337.479 69.0516 337.371 68.6336C337.264 68.2036 337.21 67.7617 337.21 67.3079C337.21 66.8779 337.258 66.4539 337.353 66.0359C337.461 65.6179 337.628 65.2477 337.855 64.9252C338.082 64.5908 338.374 64.3221 338.733 64.1191C339.091 63.916 339.527 63.8145 340.04 63.8145C340.53 63.8145 340.954 63.9101 341.312 64.1012C341.683 64.2922 341.981 64.549 342.208 64.8715C342.447 65.1939 342.62 65.5642 342.728 65.9822C342.847 66.3883 342.907 66.8063 342.907 67.2362ZM354.511 71.9119C354.249 72.0672 353.884 72.1448 353.419 72.1448C353.024 72.1448 352.708 72.0373 352.469 71.8224C352.242 71.5954 352.129 71.2312 352.129 70.7296C351.711 71.2312 351.221 71.5954 350.66 71.8224C350.11 72.0373 349.513 72.1448 348.868 72.1448C348.45 72.1448 348.05 72.097 347.668 72.0015C347.298 71.906 346.975 71.7567 346.701 71.5536C346.426 71.3506 346.205 71.0879 346.038 70.7654C345.882 70.431 345.805 70.0309 345.805 69.5651C345.805 69.0396 345.894 68.6097 346.074 68.2753C346.253 67.9409 346.486 67.6721 346.772 67.4691C347.071 67.2541 347.405 67.0929 347.775 66.9854C348.158 66.8779 348.546 66.7883 348.94 66.7167C349.358 66.6331 349.752 66.5734 350.122 66.5375C350.504 66.4898 350.839 66.4301 351.126 66.3584C351.412 66.2748 351.639 66.1613 351.806 66.018C351.973 65.8628 352.057 65.6418 352.057 65.3552C352.057 65.0208 351.991 64.7521 351.86 64.549C351.741 64.346 351.579 64.1907 351.376 64.0832C351.185 63.9758 350.964 63.9041 350.713 63.8683C350.475 63.8324 350.236 63.8145 349.997 63.8145C349.352 63.8145 348.815 63.9399 348.385 64.1907C347.955 64.4296 347.722 64.8894 347.686 65.5702H346.163C346.187 64.9969 346.306 64.5132 346.521 64.1191C346.736 63.725 347.023 63.4085 347.381 63.1696C347.74 62.9188 348.146 62.7396 348.6 62.6322C349.065 62.5247 349.561 62.4709 350.086 62.4709C350.504 62.4709 350.917 62.5008 351.323 62.5605C351.741 62.6202 352.117 62.7456 352.451 62.9367C352.786 63.1159 353.054 63.3726 353.257 63.707C353.46 64.0414 353.562 64.4774 353.562 65.0148V69.7801C353.562 70.1384 353.58 70.4011 353.616 70.5683C353.663 70.7355 353.807 70.8191 354.046 70.8191C354.177 70.8191 354.332 70.7893 354.511 70.7296V71.9119ZM352.039 67.1646C351.848 67.3079 351.597 67.4154 351.287 67.487C350.976 67.5467 350.648 67.6005 350.301 67.6482C349.967 67.6841 349.627 67.7319 349.28 67.7916C348.934 67.8393 348.623 67.9229 348.349 68.0424C348.074 68.1618 347.847 68.335 347.668 68.5619C347.501 68.7769 347.417 69.0754 347.417 69.4576C347.417 69.7084 347.465 69.9234 347.56 70.1025C347.668 70.2698 347.799 70.4071 347.955 70.5146C348.122 70.6221 348.313 70.6997 348.528 70.7475C348.743 70.7952 348.97 70.8191 349.209 70.8191C349.71 70.8191 350.14 70.7534 350.498 70.6221C350.857 70.4788 351.149 70.3056 351.376 70.1025C351.603 69.8876 351.77 69.6607 351.878 69.4218C351.985 69.171 352.039 68.9381 352.039 68.7231V67.1646ZM355.929 62.6859V71.9478H357.451V66.7167C357.451 66.2987 357.505 65.9165 357.613 65.5702C357.732 65.2119 357.905 64.9013 358.132 64.6386C358.359 64.3758 358.64 64.1728 358.974 64.0295C359.32 63.8862 359.726 63.8145 360.192 63.8145C360.777 63.8145 361.237 63.9817 361.572 64.3161C361.906 64.6505 362.073 65.1044 362.073 65.6776V71.9478H363.596V65.8568C363.596 65.3552 363.542 64.9013 363.435 64.4953C363.339 64.0773 363.166 63.719 362.915 63.4204C362.664 63.1218 362.336 62.8889 361.93 62.7217C361.524 62.5545 361.016 62.4709 360.407 62.4709C359.034 62.4709 358.031 63.0323 357.398 64.1549H357.362V62.6859H355.929ZM369.52 73.1839C369.341 73.6377 369.161 74.0199 368.982 74.3304C368.815 74.6409 368.624 74.8917 368.409 75.0828C368.206 75.2858 367.973 75.4292 367.71 75.5128C367.46 75.6083 367.167 75.6561 366.833 75.6561C366.653 75.6561 366.474 75.6441 366.295 75.6202C366.116 75.5964 365.943 75.5546 365.776 75.4948V74.0975C365.907 74.1572 366.056 74.205 366.223 74.2408C366.403 74.2886 366.552 74.3125 366.671 74.3125C366.982 74.3125 367.239 74.2349 367.442 74.0796C367.657 73.9363 367.818 73.7273 367.925 73.4526L368.552 71.894L364.88 62.6859H366.6L369.305 70.2638H369.341L371.938 62.6859H373.551L369.52 73.1839Z" fill="#E1F8E6"/>
<path d="M296.047 86.4478H298.606V92.2624H305.26V86.4478H307.819V101.066H305.26V94.4736H298.606V101.066H296.047V86.4478ZM317.824 94.8421C317.797 94.4736 317.715 94.1187 317.579 93.7775C317.456 93.4362 317.278 93.1428 317.046 92.8971C316.828 92.6378 316.555 92.433 316.227 92.2829C315.914 92.1191 315.559 92.0372 315.163 92.0372C314.753 92.0372 314.378 92.1123 314.037 92.2624C313.709 92.3989 313.423 92.5968 313.177 92.8562C312.945 93.1018 312.754 93.3953 312.604 93.7365C312.467 94.0778 312.392 94.4463 312.378 94.8421H317.824ZM312.378 96.3777C312.378 96.7871 312.433 97.183 312.542 97.5651C312.665 97.9473 312.842 98.2817 313.075 98.5684C313.307 98.855 313.6 99.087 313.955 99.2645C314.31 99.4283 314.733 99.5102 315.224 99.5102C315.907 99.5102 316.453 99.3668 316.862 99.0802C317.285 98.7799 317.599 98.3363 317.804 97.7494H320.015C319.892 98.3227 319.681 98.8345 319.38 99.2849C319.08 99.7354 318.718 100.118 318.295 100.431C317.872 100.732 317.394 100.957 316.862 101.107C316.343 101.271 315.798 101.353 315.224 101.353C314.392 101.353 313.655 101.216 313.013 100.943C312.372 100.67 311.826 100.288 311.375 99.7968C310.938 99.3054 310.604 98.7185 310.372 98.036C310.154 97.3536 310.044 96.6029 310.044 95.7839C310.044 95.0332 310.16 94.3234 310.392 93.6546C310.638 92.9722 310.979 92.3784 311.416 91.8734C311.867 91.3547 312.406 90.9453 313.034 90.645C313.661 90.3447 314.371 90.1946 315.163 90.1946C315.995 90.1946 316.739 90.372 317.394 90.7269C318.063 91.0681 318.616 91.5254 319.053 92.0986C319.49 92.6719 319.804 93.3339 319.995 94.0846C320.199 94.8216 320.254 95.586 320.158 96.3777H312.378ZM320.766 90.4812H323.325L326.089 98.3841H326.13L328.812 90.4812H331.248L327.133 101.639C326.942 102.117 326.751 102.574 326.56 103.011C326.382 103.448 326.157 103.83 325.884 104.158C325.625 104.499 325.297 104.765 324.902 104.956C324.506 105.161 324.001 105.263 323.386 105.263C322.84 105.263 322.301 105.222 321.769 105.14V103.175C321.96 103.202 322.144 103.23 322.322 103.257C322.499 103.298 322.684 103.318 322.875 103.318C323.148 103.318 323.373 103.284 323.55 103.216C323.728 103.148 323.871 103.045 323.98 102.909C324.103 102.786 324.205 102.636 324.287 102.458C324.369 102.281 324.444 102.076 324.512 101.844L324.779 101.025L320.766 90.4812ZM332.877 86.4478H335.436V93.1018L341.947 86.4478H345.1L339.265 92.2829L345.51 101.066H342.316L337.525 94.0846L335.436 96.1524V101.066H332.877V86.4478ZM355.431 98.7117C355.431 98.9983 355.465 99.203 355.533 99.3259C355.615 99.4487 355.765 99.5102 355.983 99.5102C356.052 99.5102 356.133 99.5102 356.229 99.5102C356.325 99.5102 356.434 99.4965 356.557 99.4692V101.087C356.475 101.114 356.366 101.141 356.229 101.169C356.106 101.209 355.977 101.244 355.84 101.271C355.704 101.298 355.567 101.319 355.431 101.332C355.294 101.346 355.178 101.353 355.082 101.353C354.605 101.353 354.209 101.257 353.895 101.066C353.581 100.875 353.376 100.541 353.281 100.063C352.817 100.513 352.243 100.841 351.561 101.046C350.892 101.25 350.244 101.353 349.616 101.353C349.138 101.353 348.681 101.285 348.244 101.148C347.807 101.025 347.418 100.841 347.077 100.595C346.75 100.336 346.483 100.015 346.279 99.633C346.088 99.2372 345.992 98.7799 345.992 98.2612C345.992 97.6061 346.108 97.0738 346.34 96.6643C346.586 96.2548 346.9 95.9341 347.282 95.702C347.678 95.47 348.115 95.3062 348.592 95.2106C349.084 95.1015 349.575 95.0196 350.066 94.965C350.49 94.8831 350.892 94.8285 351.274 94.8012C351.657 94.7602 351.991 94.6988 352.278 94.6169C352.578 94.535 352.81 94.4122 352.974 94.2484C353.151 94.0709 353.24 93.8116 353.24 93.4704C353.24 93.1701 353.165 92.9244 353.015 92.7333C352.878 92.5422 352.701 92.3989 352.482 92.3034C352.278 92.1942 352.046 92.1259 351.786 92.0986C351.527 92.0577 351.281 92.0372 351.049 92.0372C350.394 92.0372 349.855 92.1737 349.432 92.4467C349.009 92.7197 348.77 93.1428 348.715 93.7161H346.381C346.422 93.0336 346.586 92.4672 346.872 92.0167C347.159 91.5663 347.521 91.2046 347.958 90.9316C348.408 90.6586 348.913 90.4675 349.473 90.3583C350.032 90.2492 350.606 90.1946 351.192 90.1946C351.711 90.1946 352.223 90.2492 352.728 90.3583C353.233 90.4675 353.683 90.645 354.079 90.8907C354.489 91.1364 354.816 91.4571 355.062 91.8529C355.308 92.2351 355.431 92.706 355.431 93.2656V98.7117ZM353.097 95.7634C352.742 95.9955 352.305 96.1388 351.786 96.1934C351.268 96.2343 350.749 96.3026 350.23 96.3981C349.985 96.4391 349.746 96.5005 349.514 96.5824C349.282 96.6506 349.077 96.753 348.899 96.8895C348.722 97.0123 348.579 97.183 348.469 97.4013C348.374 97.6061 348.326 97.8586 348.326 98.1589C348.326 98.4182 348.401 98.6366 348.551 98.814C348.701 98.9915 348.879 99.1348 349.084 99.244C349.302 99.3395 349.534 99.4078 349.78 99.4487C350.039 99.4897 350.271 99.5102 350.476 99.5102C350.735 99.5102 351.015 99.476 351.315 99.4078C351.616 99.3395 351.895 99.2235 352.155 99.0597C352.428 98.8959 352.653 98.6912 352.83 98.4455C353.008 98.1862 353.097 97.8722 353.097 97.5037V95.7634ZM357.942 90.4812H360.133V92.5286H360.174C360.242 92.2419 360.371 91.9621 360.563 91.6891C360.767 91.4162 361.006 91.1705 361.279 90.9521C361.566 90.7201 361.88 90.5358 362.221 90.3993C362.562 90.2628 362.91 90.1946 363.265 90.1946C363.538 90.1946 363.722 90.2014 363.818 90.215C363.927 90.2287 364.036 90.2423 364.146 90.256V92.5081C363.982 92.4808 363.811 92.4603 363.634 92.4467C363.47 92.4194 363.306 92.4057 363.142 92.4057C362.746 92.4057 362.371 92.4876 362.016 92.6514C361.675 92.8016 361.375 93.0336 361.115 93.3475C360.856 93.6478 360.651 94.0232 360.501 94.4736C360.351 94.924 360.276 95.4427 360.276 96.0296V101.066H357.942V90.4812ZM374.005 98.7117C374.005 98.9983 374.039 99.203 374.107 99.3259C374.189 99.4487 374.339 99.5102 374.558 99.5102C374.626 99.5102 374.708 99.5102 374.803 99.5102C374.899 99.5102 375.008 99.4965 375.131 99.4692V101.087C375.049 101.114 374.94 101.141 374.803 101.169C374.681 101.209 374.551 101.244 374.414 101.271C374.278 101.298 374.141 101.319 374.005 101.332C373.868 101.346 373.752 101.353 373.657 101.353C373.179 101.353 372.783 101.257 372.469 101.066C372.155 100.875 371.951 100.541 371.855 100.063C371.391 100.513 370.818 100.841 370.135 101.046C369.467 101.25 368.818 101.353 368.19 101.353C367.713 101.353 367.255 101.285 366.819 101.148C366.382 101.025 365.993 100.841 365.652 100.595C365.324 100.336 365.058 100.015 364.853 99.633C364.662 99.2372 364.567 98.7799 364.567 98.2612C364.567 97.6061 364.683 97.0738 364.915 96.6643C365.16 96.2548 365.474 95.9341 365.856 95.702C366.252 95.47 366.689 95.3062 367.167 95.2106C367.658 95.1015 368.149 95.0196 368.641 94.965C369.064 94.8831 369.467 94.8285 369.849 94.8012C370.231 94.7602 370.565 94.6988 370.852 94.6169C371.152 94.535 371.384 94.4122 371.548 94.2484C371.726 94.0709 371.814 93.8116 371.814 93.4704C371.814 93.1701 371.739 92.9244 371.589 92.7333C371.453 92.5422 371.275 92.3989 371.057 92.3034C370.852 92.1942 370.62 92.1259 370.361 92.0986C370.101 92.0577 369.856 92.0372 369.624 92.0372C368.968 92.0372 368.429 92.1737 368.006 92.4467C367.583 92.7197 367.344 93.1428 367.29 93.7161H364.956C364.996 93.0336 365.16 92.4672 365.447 92.0167C365.734 91.5663 366.095 91.2046 366.532 90.9316C366.982 90.6586 367.487 90.4675 368.047 90.3583C368.607 90.2492 369.18 90.1946 369.767 90.1946C370.286 90.1946 370.797 90.2492 371.302 90.3583C371.807 90.4675 372.258 90.645 372.654 90.8907C373.063 91.1364 373.391 91.4571 373.636 91.8529C373.882 92.2351 374.005 92.706 374.005 93.2656V98.7117ZM371.671 95.7634C371.316 95.9955 370.879 96.1388 370.361 96.1934C369.842 96.2343 369.323 96.3026 368.805 96.3981C368.559 96.4391 368.32 96.5005 368.088 96.5824C367.856 96.6506 367.651 96.753 367.474 96.8895C367.296 97.0123 367.153 97.183 367.044 97.4013C366.948 97.6061 366.901 97.8586 366.901 98.1589C366.901 98.4182 366.976 98.6366 367.126 98.814C367.276 98.9915 367.453 99.1348 367.658 99.244C367.876 99.3395 368.108 99.4078 368.354 99.4487C368.613 99.4897 368.846 99.5102 369.05 99.5102C369.31 99.5102 369.589 99.476 369.89 99.4078C370.19 99.3395 370.47 99.2235 370.729 99.0597C371.002 98.8959 371.227 98.6912 371.405 98.4455C371.582 98.1862 371.671 97.8722 371.671 97.5037V95.7634Z" fill="#E1F8E6"/>
<path d="M416.5 54.9478V94.9478" stroke="#E1F8E6"/>
<path d="M599.845 59.1567V71.9478H601.547V66.4838H605.703C606.121 66.4838 606.456 66.5495 606.706 66.6809C606.957 66.8003 607.16 66.9675 607.315 67.1825C607.471 67.3855 607.584 67.6303 607.656 67.917C607.728 68.1917 607.787 68.4843 607.835 68.7948C607.895 69.1053 607.931 69.4218 607.942 69.7443C607.954 70.0667 607.966 70.3713 607.978 70.6579C607.99 70.9326 608.014 71.1834 608.05 71.4103C608.098 71.6372 608.181 71.8164 608.301 71.9478H610.2C610.021 71.7328 609.883 71.4879 609.788 71.2133C609.704 70.9266 609.638 70.628 609.591 70.3175C609.543 70.007 609.513 69.6905 609.501 69.3681C609.489 69.0456 609.471 68.7291 609.447 68.4186C609.411 68.1081 609.358 67.8095 609.286 67.5228C609.226 67.2362 609.125 66.9794 608.982 66.7525C608.85 66.5137 608.665 66.3106 608.426 66.1434C608.199 65.9762 607.901 65.8568 607.53 65.7851V65.7493C608.307 65.5343 608.868 65.1342 609.214 64.549C609.573 63.9638 609.752 63.2831 609.752 62.5068C609.752 61.4677 609.406 60.6496 608.713 60.0525C608.032 59.4553 607.083 59.1567 605.864 59.1567H599.845ZM605.094 65.0506H601.547V60.5899H605.775C606.575 60.5899 607.154 60.7929 607.513 61.199C607.871 61.6051 608.05 62.1306 608.05 62.7755C608.05 63.2413 607.966 63.6234 607.799 63.922C607.644 64.2086 607.429 64.4415 607.154 64.6207C606.892 64.7879 606.581 64.9013 606.223 64.9611C605.864 65.0208 605.488 65.0506 605.094 65.0506ZM612.969 67.3258C612.969 66.7645 613.04 66.2688 613.184 65.8389C613.339 65.397 613.548 65.0267 613.811 64.7282C614.074 64.4296 614.378 64.2027 614.724 64.0474C615.083 63.8922 615.459 63.8145 615.853 63.8145C616.247 63.8145 616.617 63.8922 616.964 64.0474C617.322 64.2027 617.633 64.4296 617.895 64.7282C618.158 65.0267 618.361 65.397 618.504 65.8389C618.66 66.2688 618.737 66.7645 618.737 67.3258C618.737 67.8871 618.66 68.3887 618.504 68.8306C618.361 69.2606 618.158 69.6248 617.895 69.9234C617.633 70.21 617.322 70.431 616.964 70.5862C616.617 70.7415 616.247 70.8191 615.853 70.8191C615.459 70.8191 615.083 70.7415 614.724 70.5862C614.378 70.431 614.074 70.21 613.811 69.9234C613.548 69.6248 613.339 69.2606 613.184 68.8306C613.04 68.3887 612.969 67.8871 612.969 67.3258ZM611.356 67.3258C611.356 68.0065 611.452 68.6395 611.643 69.2247C611.834 69.8099 612.121 70.3235 612.503 70.7654C612.885 71.1953 613.357 71.5357 613.918 71.7865C614.48 72.0254 615.125 72.1448 615.853 72.1448C616.594 72.1448 617.238 72.0254 617.788 71.7865C618.349 71.5357 618.821 71.1953 619.203 70.7654C619.585 70.3235 619.872 69.8099 620.063 69.2247C620.254 68.6395 620.35 68.0065 620.35 67.3258C620.35 66.645 620.254 66.012 620.063 65.4268C619.872 64.8297 619.585 64.3161 619.203 63.8862C618.821 63.4443 618.349 63.0979 617.788 62.8471C617.238 62.5963 616.594 62.4709 615.853 62.4709C615.125 62.4709 614.48 62.5963 613.918 62.8471C613.357 63.0979 612.885 63.4443 612.503 63.8862C612.121 64.3161 611.834 64.8297 611.643 65.4268C611.452 66.012 611.356 66.645 611.356 67.3258ZM622.235 59.1567V71.9478H623.757V59.1567H622.235ZM632.548 66.4301H627.227C627.251 66.0718 627.329 65.7374 627.46 65.4268C627.591 65.1044 627.77 64.8237 627.997 64.5849C628.224 64.346 628.493 64.1609 628.803 64.0295C629.126 63.8862 629.484 63.8145 629.878 63.8145C630.261 63.8145 630.607 63.8862 630.917 64.0295C631.24 64.1609 631.515 64.346 631.741 64.5849C631.98 64.8118 632.165 65.0865 632.297 65.4089C632.44 65.7314 632.524 66.0718 632.548 66.4301ZM634.017 69.0098H632.512C632.38 69.6189 632.106 70.0727 631.688 70.3713C631.282 70.6698 630.756 70.8191 630.111 70.8191C629.61 70.8191 629.174 70.7355 628.803 70.5683C628.433 70.4011 628.129 70.1802 627.89 69.9055C627.651 69.6189 627.478 69.2964 627.37 68.9381C627.263 68.5679 627.215 68.1797 627.227 67.7737H634.16C634.184 67.2123 634.13 66.6211 633.999 66.0001C633.879 65.3791 633.652 64.8058 633.318 64.2803C632.996 63.7548 632.56 63.3249 632.01 62.9905C631.473 62.6441 630.792 62.4709 629.968 62.4709C629.335 62.4709 628.75 62.5904 628.212 62.8292C627.687 63.0681 627.227 63.4025 626.833 63.8324C626.451 64.2624 626.152 64.77 625.937 65.3552C625.722 65.9404 625.615 66.5853 625.615 67.29C625.639 67.9946 625.74 68.6455 625.919 69.2426C626.11 69.8398 626.391 70.3534 626.761 70.7833C627.131 71.2133 627.585 71.5477 628.123 71.7865C628.672 72.0254 629.317 72.1448 630.058 72.1448C631.108 72.1448 631.98 71.8821 632.673 71.3566C633.366 70.8311 633.814 70.0488 634.017 69.0098Z" fill="#E1F8E6"/>
<path d="M459.004 86.4478H465.453C466.49 86.4478 467.337 86.598 467.992 86.8983C468.647 87.1986 469.152 87.5739 469.507 88.0243C469.862 88.4748 470.101 88.9661 470.223 89.4984C470.36 90.0308 470.428 90.5221 470.428 90.9726C470.428 91.423 470.36 91.9144 470.223 92.4467C470.101 92.9653 469.862 93.4499 469.507 93.9003C469.152 94.3507 468.647 94.7261 467.992 95.0264C467.337 95.313 466.49 95.4563 465.453 95.4563H461.563V101.066H459.004V86.4478ZM461.563 93.368H465.31C465.596 93.368 465.89 93.3271 466.19 93.2452C466.49 93.1633 466.763 93.0336 467.009 92.8562C467.268 92.6651 467.473 92.4194 467.623 92.1191C467.787 91.8052 467.869 91.4162 467.869 90.9521C467.869 90.4744 467.801 90.0785 467.664 89.7646C467.528 89.4507 467.343 89.205 467.111 89.0276C466.879 88.8365 466.613 88.7068 466.313 88.6385C466.013 88.5703 465.692 88.5362 465.351 88.5362H461.563V93.368ZM472.332 90.4812H474.523V92.5286H474.564C474.632 92.2419 474.762 91.9621 474.953 91.6891C475.157 91.4162 475.396 91.1705 475.669 90.9521C475.956 90.7201 476.27 90.5358 476.611 90.3993C476.952 90.2628 477.3 90.1946 477.655 90.1946C477.928 90.1946 478.113 90.2014 478.208 90.215C478.317 90.2287 478.426 90.2423 478.536 90.256V92.5081C478.372 92.4808 478.201 92.4603 478.024 92.4467C477.86 92.4194 477.696 92.4057 477.532 92.4057C477.137 92.4057 476.761 92.4876 476.406 92.6514C476.065 92.8016 475.765 93.0336 475.506 93.3475C475.246 93.6478 475.041 94.0232 474.891 94.4736C474.741 94.924 474.666 95.4427 474.666 96.0296V101.066H472.332V90.4812ZM484.022 101.353C483.176 101.353 482.419 101.216 481.75 100.943C481.095 100.657 480.535 100.268 480.071 99.7763C479.62 99.2849 479.272 98.698 479.027 98.0156C478.795 97.3331 478.679 96.5824 478.679 95.7634C478.679 94.9581 478.795 94.2143 479.027 93.5318C479.272 92.8493 479.62 92.2624 480.071 91.771C480.535 91.2797 481.095 90.8975 481.75 90.6245C482.419 90.3379 483.176 90.1946 484.022 90.1946C484.869 90.1946 485.619 90.3379 486.274 90.6245C486.943 90.8975 487.503 91.2797 487.953 91.771C488.417 92.2624 488.765 92.8493 488.997 93.5318C489.243 94.2143 489.366 94.9581 489.366 95.7634C489.366 96.5824 489.243 97.3331 488.997 98.0156C488.765 98.698 488.417 99.2849 487.953 99.7763C487.503 100.268 486.943 100.657 486.274 100.943C485.619 101.216 484.869 101.353 484.022 101.353ZM484.022 99.5102C484.541 99.5102 484.991 99.401 485.374 99.1826C485.756 98.9642 486.07 98.6775 486.315 98.3227C486.561 97.9678 486.738 97.572 486.848 97.1352C486.971 96.6848 487.032 96.2275 487.032 95.7634C487.032 95.313 486.971 94.8626 486.848 94.4122C486.738 93.9617 486.561 93.5659 486.315 93.2247C486.07 92.8698 485.756 92.5832 485.374 92.3648C484.991 92.1464 484.541 92.0372 484.022 92.0372C483.504 92.0372 483.053 92.1464 482.671 92.3648C482.289 92.5832 481.975 92.8698 481.729 93.2247C481.484 93.5659 481.299 93.9617 481.176 94.4122C481.067 94.8626 481.013 95.313 481.013 95.7634C481.013 96.2275 481.067 96.6848 481.176 97.1352C481.299 97.572 481.484 97.9678 481.729 98.3227C481.975 98.6775 482.289 98.9642 482.671 99.1826C483.053 99.401 483.504 99.5102 484.022 99.5102ZM501.277 101.066H499.066V99.633H499.025C498.711 100.247 498.254 100.691 497.653 100.964C497.053 101.223 496.418 101.353 495.749 101.353C494.917 101.353 494.186 101.209 493.558 100.923C492.944 100.623 492.432 100.22 492.023 99.7149C491.613 99.2099 491.306 98.6161 491.102 97.9337C490.897 97.2376 490.795 96.4937 490.795 95.702C490.795 94.7466 490.924 93.9208 491.184 93.2247C491.443 92.5286 491.784 91.9553 492.207 91.5049C492.644 91.0545 493.135 90.7269 493.681 90.5221C494.241 90.3038 494.807 90.1946 495.381 90.1946C495.708 90.1946 496.043 90.2287 496.384 90.2969C496.725 90.3515 497.053 90.4471 497.367 90.5836C497.681 90.7201 497.967 90.8975 498.227 91.1159C498.499 91.3206 498.725 91.5663 498.902 91.8529H498.943V86.4478H501.277V101.066ZM493.129 95.8863C493.129 96.3367 493.183 96.7803 493.292 97.2171C493.415 97.6539 493.593 98.0429 493.825 98.3841C494.07 98.7253 494.377 98.9983 494.746 99.203C495.114 99.4078 495.551 99.5102 496.056 99.5102C496.575 99.5102 497.019 99.401 497.387 99.1826C497.769 98.9642 498.076 98.6775 498.308 98.3227C498.554 97.9678 498.732 97.572 498.841 97.1352C498.964 96.6848 499.025 96.2275 499.025 95.7634C499.025 94.5896 498.759 93.6751 498.227 93.0199C497.708 92.3648 496.998 92.0372 496.097 92.0372C495.551 92.0372 495.087 92.1532 494.705 92.3853C494.336 92.6036 494.029 92.8971 493.784 93.2656C493.552 93.6205 493.381 94.03 493.272 94.4941C493.176 94.9445 493.129 95.4086 493.129 95.8863ZM513.118 101.066H510.825V99.592H510.784C510.497 100.124 510.067 100.554 509.494 100.882C508.934 101.196 508.361 101.353 507.774 101.353C506.382 101.353 505.372 101.012 504.744 100.329C504.13 99.633 503.823 98.5888 503.823 97.1966V90.4812H506.157V96.9714C506.157 97.8995 506.334 98.5547 506.689 98.9369C507.044 99.3191 507.542 99.5102 508.184 99.5102C508.675 99.5102 509.084 99.4351 509.412 99.2849C509.74 99.1348 510.006 98.9369 510.21 98.6912C510.415 98.4319 510.558 98.1248 510.64 97.7699C510.736 97.415 510.784 97.0328 510.784 96.6233V90.4812H513.118V101.066ZM522.724 94.0232C522.629 93.368 522.363 92.8766 521.926 92.549C521.503 92.2078 520.964 92.0372 520.308 92.0372C520.008 92.0372 519.687 92.0918 519.346 92.201C519.005 92.2965 518.691 92.4876 518.404 92.7743C518.118 93.0472 517.879 93.4362 517.688 93.9413C517.497 94.4326 517.401 95.081 517.401 95.8863C517.401 96.3231 517.449 96.7598 517.545 97.1966C517.654 97.6334 517.818 98.0224 518.036 98.3636C518.268 98.7048 518.561 98.9847 518.916 99.203C519.271 99.4078 519.701 99.5102 520.206 99.5102C520.889 99.5102 521.448 99.2986 521.885 98.8755C522.335 98.4523 522.615 97.8586 522.724 97.0942H525.058C524.84 98.4728 524.315 99.5306 523.482 100.268C522.663 100.991 521.571 101.353 520.206 101.353C519.374 101.353 518.636 101.216 517.995 100.943C517.367 100.657 516.835 100.275 516.398 99.7968C515.961 99.3054 515.627 98.7253 515.395 98.0565C515.176 97.3877 515.067 96.6643 515.067 95.8863C515.067 95.0946 515.176 94.3507 515.395 93.6546C515.613 92.9585 515.941 92.358 516.378 91.8529C516.814 91.3343 517.353 90.9316 517.995 90.645C518.65 90.3447 519.414 90.1946 520.288 90.1946C520.902 90.1946 521.482 90.2765 522.028 90.4402C522.588 90.5904 523.079 90.8224 523.502 91.1364C523.939 91.4503 524.294 91.8461 524.567 92.3238C524.84 92.8016 525.004 93.368 525.058 94.0232H522.724ZM525.891 90.4812H527.652V87.3077H529.986V90.4812H532.095V92.2215H529.986V97.8722C529.986 98.1179 529.993 98.3295 530.006 98.5069C530.034 98.6844 530.081 98.8345 530.15 98.9574C530.231 99.0802 530.347 99.1757 530.498 99.244C530.648 99.2986 530.852 99.3259 531.112 99.3259C531.276 99.3259 531.439 99.3259 531.603 99.3259C531.767 99.3122 531.931 99.2849 532.095 99.244V101.046C531.835 101.073 531.583 101.1 531.337 101.128C531.091 101.155 530.839 101.169 530.579 101.169C529.965 101.169 529.467 101.114 529.085 101.005C528.716 100.882 528.423 100.711 528.205 100.493C528 100.261 527.856 99.9742 527.775 99.633C527.706 99.2918 527.665 98.9028 527.652 98.466V92.2215H525.891V90.4812ZM539.799 86.4478H545.86C546.979 86.4478 547.948 86.6389 548.767 87.0211C549.586 87.4033 550.255 87.9288 550.773 88.5976C551.292 89.2528 551.674 90.0239 551.92 90.9111C552.179 91.7983 552.309 92.747 552.309 93.757C552.309 94.767 552.179 95.7157 551.92 96.6029C551.674 97.4901 551.292 98.2681 550.773 98.9369C550.255 99.592 549.586 100.111 548.767 100.493C547.948 100.875 546.979 101.066 545.86 101.066H539.799V86.4478ZM542.359 98.9778H544.877C545.873 98.9778 546.685 98.8482 547.313 98.5888C547.955 98.3158 548.453 97.9473 548.808 97.4832C549.176 97.0055 549.422 96.4527 549.545 95.8249C549.681 95.1833 549.75 94.4941 549.75 93.757C549.75 93.0199 549.681 92.3375 549.545 91.7096C549.422 91.0681 549.176 90.5153 548.808 90.0512C548.453 89.5735 547.955 89.205 547.313 88.9457C546.685 88.6727 545.873 88.5362 544.877 88.5362H542.359V98.9778ZM561.516 94.8421C561.488 94.4736 561.406 94.1187 561.27 93.7775C561.147 93.4362 560.97 93.1428 560.738 92.8971C560.519 92.6378 560.246 92.433 559.919 92.2829C559.605 92.1191 559.25 92.0372 558.854 92.0372C558.445 92.0372 558.069 92.1123 557.728 92.2624C557.4 92.3989 557.114 92.5968 556.868 92.8562C556.636 93.1018 556.445 93.3953 556.295 93.7365C556.158 94.0778 556.083 94.4463 556.07 94.8421H561.516ZM556.07 96.3777C556.07 96.7871 556.124 97.183 556.233 97.5651C556.356 97.9473 556.534 98.2817 556.766 98.5684C556.998 98.855 557.291 99.087 557.646 99.2645C558.001 99.4283 558.424 99.5102 558.915 99.5102C559.598 99.5102 560.144 99.3668 560.553 99.0802C560.976 98.7799 561.29 98.3363 561.495 97.7494H563.706C563.583 98.3227 563.372 98.8345 563.072 99.2849C562.771 99.7354 562.41 100.118 561.986 100.431C561.563 100.732 561.086 100.957 560.553 101.107C560.035 101.271 559.489 101.353 558.915 101.353C558.083 101.353 557.346 101.216 556.704 100.943C556.063 100.67 555.517 100.288 555.066 99.7968C554.63 99.3054 554.295 98.7185 554.063 98.036C553.845 97.3536 553.736 96.6029 553.736 95.7839C553.736 95.0332 553.852 94.3234 554.084 93.6546C554.329 92.9722 554.671 92.3784 555.107 91.8734C555.558 91.3547 556.097 90.9453 556.725 90.645C557.353 90.3447 558.062 90.1946 558.854 90.1946C559.687 90.1946 560.43 90.372 561.086 90.7269C561.754 91.0681 562.307 91.5254 562.744 92.0986C563.181 92.6719 563.495 93.3339 563.686 94.0846C563.891 94.8216 563.945 95.586 563.85 96.3777H556.07ZM567.385 97.6675C567.453 98.35 567.712 98.8277 568.163 99.1007C568.613 99.3737 569.152 99.5102 569.78 99.5102C569.999 99.5102 570.244 99.4965 570.517 99.4692C570.804 99.4283 571.07 99.36 571.316 99.2645C571.561 99.1689 571.759 99.0324 571.909 98.855C572.073 98.6639 572.148 98.4182 572.135 98.1179C572.121 97.8176 572.012 97.572 571.807 97.3809C571.602 97.1898 571.336 97.0396 571.009 96.9304C570.695 96.8076 570.333 96.7052 569.923 96.6233C569.514 96.5414 569.098 96.4527 568.675 96.3572C568.238 96.2616 567.815 96.1456 567.405 96.0091C567.009 95.8726 566.648 95.6884 566.32 95.4563C566.006 95.2243 565.754 94.9308 565.563 94.576C565.371 94.2074 565.276 93.757 565.276 93.2247C565.276 92.6514 565.412 92.1737 565.685 91.7915C565.972 91.3957 566.327 91.0818 566.75 90.8497C567.187 90.604 567.665 90.4334 568.183 90.3379C568.715 90.2423 569.221 90.1946 569.698 90.1946C570.244 90.1946 570.763 90.256 571.254 90.3788C571.759 90.488 572.21 90.6723 572.606 90.9316C573.015 91.191 573.349 91.5322 573.609 91.9553C573.882 92.3648 574.052 92.863 574.121 93.4499H571.684C571.575 92.8903 571.316 92.5149 570.906 92.3238C570.51 92.1327 570.053 92.0372 569.534 92.0372C569.371 92.0372 569.173 92.0509 568.941 92.0782C568.722 92.1054 568.511 92.16 568.306 92.2419C568.115 92.3102 567.951 92.4194 567.815 92.5695C567.678 92.706 567.61 92.8903 567.61 93.1223C567.61 93.4089 567.705 93.641 567.897 93.8184C568.101 93.9959 568.361 94.146 568.675 94.2689C569.002 94.378 569.371 94.4736 569.78 94.5555C570.19 94.6374 570.613 94.7261 571.05 94.8216C571.473 94.9172 571.889 95.0332 572.298 95.1697C572.708 95.3062 573.07 95.4905 573.384 95.7225C573.711 95.9545 573.97 96.248 574.162 96.6029C574.366 96.9577 574.469 97.3945 574.469 97.9132C574.469 98.5411 574.325 99.0734 574.039 99.5102C573.752 99.9469 573.377 100.302 572.913 100.575C572.462 100.848 571.957 101.046 571.398 101.169C570.838 101.291 570.285 101.353 569.739 101.353C569.07 101.353 568.449 101.278 567.876 101.128C567.316 100.977 566.825 100.752 566.402 100.452C565.992 100.138 565.665 99.7558 565.419 99.3054C565.187 98.8413 565.064 98.2954 565.051 97.6675H567.385ZM576.302 86.4478H578.636V88.659H576.302V86.4478ZM576.302 90.4812H578.636V101.066H576.302V90.4812ZM590.966 100.513C590.966 102.11 590.515 103.298 589.614 104.076C588.727 104.867 587.444 105.263 585.765 105.263C585.233 105.263 584.694 105.209 584.148 105.1C583.616 104.99 583.124 104.806 582.674 104.547C582.237 104.287 581.869 103.946 581.568 103.523C581.268 103.1 581.091 102.581 581.036 101.967H583.37C583.438 102.295 583.554 102.561 583.718 102.765C583.882 102.97 584.073 103.127 584.291 103.236C584.523 103.359 584.776 103.434 585.049 103.462C585.322 103.503 585.608 103.523 585.909 103.523C586.851 103.523 587.54 103.291 587.977 102.827C588.413 102.363 588.632 101.694 588.632 100.82V99.203H588.591C588.263 99.79 587.813 100.247 587.24 100.575C586.68 100.902 586.073 101.066 585.417 101.066C584.571 101.066 583.848 100.923 583.247 100.636C582.66 100.336 582.169 99.9333 581.773 99.4283C581.391 98.9096 581.111 98.3158 580.934 97.647C580.756 96.9782 580.667 96.2616 580.667 95.4973C580.667 94.7875 580.777 94.1119 580.995 93.4704C581.213 92.8289 581.527 92.2692 581.937 91.7915C582.346 91.3001 582.844 90.9111 583.431 90.6245C584.032 90.3379 584.708 90.1946 585.458 90.1946C586.127 90.1946 586.741 90.3379 587.301 90.6245C587.861 90.8975 588.291 91.3343 588.591 91.9348H588.632V90.4812H590.966V100.513ZM585.786 99.2235C586.305 99.2235 586.741 99.1211 587.096 98.9164C587.465 98.698 587.758 98.4182 587.977 98.077C588.209 97.7221 588.372 97.3263 588.468 96.8895C588.577 96.4391 588.632 95.9887 588.632 95.5382C588.632 95.0878 588.577 94.651 588.468 94.2279C588.359 93.8048 588.188 93.4294 587.956 93.1018C587.738 92.7743 587.444 92.5149 587.076 92.3238C586.721 92.1327 586.291 92.0372 585.786 92.0372C585.267 92.0372 584.83 92.1464 584.476 92.3648C584.121 92.5832 583.834 92.8698 583.616 93.2247C583.397 93.5659 583.24 93.9617 583.145 94.4122C583.049 94.8489 583.001 95.2857 583.001 95.7225C583.001 96.1593 583.056 96.5892 583.165 97.0123C583.274 97.4218 583.438 97.7903 583.657 98.1179C583.889 98.4455 584.175 98.7117 584.516 98.9164C584.871 99.1211 585.294 99.2235 585.786 99.2235ZM593.316 90.4812H595.527V92.0372L595.568 92.0782C595.923 91.4912 596.387 91.034 596.96 90.7064C597.533 90.3652 598.168 90.1946 598.864 90.1946C600.024 90.1946 600.939 90.4948 601.608 91.0954C602.276 91.696 602.611 92.5968 602.611 93.798V101.066H600.277V94.4122C600.249 93.5796 600.072 92.979 599.744 92.6105C599.417 92.2283 598.905 92.0372 598.209 92.0372C597.813 92.0372 597.458 92.1123 597.144 92.2624C596.83 92.3989 596.564 92.5968 596.346 92.8562C596.127 93.1018 595.957 93.3953 595.834 93.7365C595.711 94.0778 595.65 94.4395 595.65 94.8216V101.066H593.316V90.4812ZM605.256 98.3022H608.102V101.066C608.089 101.912 607.829 102.622 607.324 103.195C606.819 103.769 606.157 104.137 605.338 104.301V103.052C605.789 102.943 606.123 102.69 606.341 102.295C606.573 101.912 606.683 101.503 606.669 101.066H605.256V98.3022ZM616.796 86.4478H623.245C624.283 86.4478 625.129 86.598 625.784 86.8983C626.439 87.1986 626.944 87.5739 627.299 88.0243C627.654 88.4748 627.893 88.9661 628.016 89.4984C628.152 90.0308 628.221 90.5221 628.221 90.9726C628.221 91.423 628.152 91.9144 628.016 92.4467C627.893 92.9653 627.654 93.4499 627.299 93.9003C626.944 94.3507 626.439 94.7261 625.784 95.0264C625.129 95.313 624.283 95.4563 623.245 95.4563H619.355V101.066H616.796V86.4478ZM619.355 93.368H623.102C623.389 93.368 623.682 93.3271 623.983 93.2452C624.283 93.1633 624.556 93.0336 624.801 92.8562C625.061 92.6651 625.266 92.4194 625.416 92.1191C625.579 91.8052 625.661 91.4162 625.661 90.9521C625.661 90.4744 625.593 90.0785 625.457 89.7646C625.32 89.4507 625.136 89.205 624.904 89.0276C624.672 88.8365 624.406 88.7068 624.105 88.6385C623.805 88.5703 623.484 88.5362 623.143 88.5362H619.355V93.368ZM630.125 90.4812H632.315V92.5286H632.356C632.424 92.2419 632.554 91.9621 632.745 91.6891C632.95 91.4162 633.189 91.1705 633.462 90.9521C633.748 90.7201 634.062 90.5358 634.404 90.3993C634.745 90.2628 635.093 90.1946 635.448 90.1946C635.721 90.1946 635.905 90.2014 636 90.215C636.11 90.2287 636.219 90.2423 636.328 90.256V92.5081C636.164 92.4808 635.994 92.4603 635.816 92.4467C635.652 92.4194 635.489 92.4057 635.325 92.4057C634.929 92.4057 634.554 92.4876 634.199 92.6514C633.858 92.8016 633.557 93.0336 633.298 93.3475C633.039 93.6478 632.834 94.0232 632.684 94.4736C632.534 94.924 632.459 95.4427 632.459 96.0296V101.066H630.125V90.4812ZM641.815 101.353C640.969 101.353 640.211 101.216 639.542 100.943C638.887 100.657 638.327 100.268 637.863 99.7763C637.413 99.2849 637.065 98.698 636.819 98.0156C636.587 97.3331 636.471 96.5824 636.471 95.7634C636.471 94.9581 636.587 94.2143 636.819 93.5318C637.065 92.8493 637.413 92.2624 637.863 91.771C638.327 91.2797 638.887 90.8975 639.542 90.6245C640.211 90.3379 640.969 90.1946 641.815 90.1946C642.661 90.1946 643.412 90.3379 644.067 90.6245C644.736 90.8975 645.295 91.2797 645.746 91.771C646.21 92.2624 646.558 92.8493 646.79 93.5318C647.036 94.2143 647.158 94.9581 647.158 95.7634C647.158 96.5824 647.036 97.3331 646.79 98.0156C646.558 98.698 646.21 99.2849 645.746 99.7763C645.295 100.268 644.736 100.657 644.067 100.943C643.412 101.216 642.661 101.353 641.815 101.353ZM641.815 99.5102C642.333 99.5102 642.784 99.401 643.166 99.1826C643.548 98.9642 643.862 98.6775 644.108 98.3227C644.354 97.9678 644.531 97.572 644.64 97.1352C644.763 96.6848 644.824 96.2275 644.824 95.7634C644.824 95.313 644.763 94.8626 644.64 94.4122C644.531 93.9617 644.354 93.5659 644.108 93.2247C643.862 92.8698 643.548 92.5832 643.166 92.3648C642.784 92.1464 642.333 92.0372 641.815 92.0372C641.296 92.0372 640.846 92.1464 640.463 92.3648C640.081 92.5832 639.767 92.8698 639.522 93.2247C639.276 93.5659 639.092 93.9617 638.969 94.4122C638.86 94.8626 638.805 95.313 638.805 95.7634C638.805 96.2275 638.86 96.6848 638.969 97.1352C639.092 97.572 639.276 97.9678 639.522 98.3227C639.767 98.6775 640.081 98.9642 640.463 99.1826C640.846 99.401 641.296 99.5102 641.815 99.5102ZM659.07 101.066H656.858V99.633H656.817C656.503 100.247 656.046 100.691 655.446 100.964C654.845 101.223 654.21 101.353 653.542 101.353C652.709 101.353 651.979 101.209 651.351 100.923C650.737 100.623 650.225 100.22 649.815 99.7149C649.406 99.2099 649.099 98.6161 648.894 97.9337C648.689 97.2376 648.587 96.4937 648.587 95.702C648.587 94.7466 648.717 93.9208 648.976 93.2247C649.235 92.5286 649.577 91.9553 650 91.5049C650.436 91.0545 650.928 90.7269 651.474 90.5221C652.033 90.3038 652.6 90.1946 653.173 90.1946C653.501 90.1946 653.835 90.2287 654.176 90.2969C654.518 90.3515 654.845 90.4471 655.159 90.5836C655.473 90.7201 655.76 90.8975 656.019 91.1159C656.292 91.3206 656.517 91.5663 656.695 91.8529H656.736V86.4478H659.07V101.066ZM650.921 95.8863C650.921 96.3367 650.976 96.7803 651.085 97.2171C651.208 97.6539 651.385 98.0429 651.617 98.3841C651.863 98.7253 652.17 98.9983 652.538 99.203C652.907 99.4078 653.344 99.5102 653.849 99.5102C654.367 99.5102 654.811 99.401 655.18 99.1826C655.562 98.9642 655.869 98.6775 656.101 98.3227C656.347 97.9678 656.524 97.572 656.633 97.1352C656.756 96.6848 656.817 96.2275 656.817 95.7634C656.817 94.5896 656.551 93.6751 656.019 93.0199C655.5 92.3648 654.791 92.0372 653.89 92.0372C653.344 92.0372 652.88 92.1532 652.497 92.3853C652.129 92.6036 651.822 92.8971 651.576 93.2656C651.344 93.6205 651.173 94.03 651.064 94.4941C650.969 94.9445 650.921 95.4086 650.921 95.8863ZM670.91 101.066H668.617V99.592H668.576C668.289 100.124 667.86 100.554 667.286 100.882C666.727 101.196 666.153 101.353 665.566 101.353C664.174 101.353 663.164 101.012 662.536 100.329C661.922 99.633 661.615 98.5888 661.615 97.1966V90.4812H663.949V96.9714C663.949 97.8995 664.126 98.5547 664.481 98.9369C664.836 99.3191 665.334 99.5102 665.976 99.5102C666.467 99.5102 666.877 99.4351 667.204 99.2849C667.532 99.1348 667.798 98.9369 668.003 98.6912C668.208 98.4319 668.351 98.1248 668.433 97.7699C668.528 97.415 668.576 97.0328 668.576 96.6233V90.4812H670.91V101.066ZM680.517 94.0232C680.421 93.368 680.155 92.8766 679.718 92.549C679.295 92.2078 678.756 92.0372 678.101 92.0372C677.801 92.0372 677.48 92.0918 677.139 92.201C676.797 92.2965 676.483 92.4876 676.197 92.7743C675.91 93.0472 675.671 93.4362 675.48 93.9413C675.289 94.4326 675.194 95.081 675.194 95.8863C675.194 96.3231 675.241 96.7598 675.337 97.1966C675.446 97.6334 675.61 98.0224 675.828 98.3636C676.06 98.7048 676.354 98.9847 676.709 99.203C677.064 99.4078 677.494 99.5102 677.999 99.5102C678.681 99.5102 679.241 99.2986 679.677 98.8755C680.128 98.4523 680.408 97.8586 680.517 97.0942H682.851C682.632 98.4728 682.107 99.5306 681.274 100.268C680.455 100.991 679.363 101.353 677.999 101.353C677.166 101.353 676.429 101.216 675.787 100.943C675.16 100.657 674.627 100.275 674.19 99.7968C673.754 99.3054 673.419 98.7253 673.187 98.0565C672.969 97.3877 672.86 96.6643 672.86 95.8863C672.86 95.0946 672.969 94.3507 673.187 93.6546C673.406 92.9585 673.733 92.358 674.17 91.8529C674.607 91.3343 675.146 90.9316 675.787 90.645C676.443 90.3447 677.207 90.1946 678.08 90.1946C678.695 90.1946 679.275 90.2765 679.821 90.4402C680.38 90.5904 680.872 90.8224 681.295 91.1364C681.732 91.4503 682.086 91.8461 682.359 92.3238C682.632 92.8016 682.796 93.368 682.851 94.0232H680.517ZM683.683 90.4812H685.444V87.3077H687.778V90.4812H689.887V92.2215H687.778V97.8722C687.778 98.1179 687.785 98.3295 687.799 98.5069C687.826 98.6844 687.874 98.8345 687.942 98.9574C688.024 99.0802 688.14 99.1757 688.29 99.244C688.44 99.2986 688.645 99.3259 688.904 99.3259C689.068 99.3259 689.232 99.3259 689.396 99.3259C689.559 99.3122 689.723 99.2849 689.887 99.244V101.046C689.628 101.073 689.375 101.1 689.129 101.128C688.884 101.155 688.631 101.169 688.372 101.169C687.758 101.169 687.259 101.114 686.877 101.005C686.509 100.882 686.215 100.711 685.997 100.493C685.792 100.261 685.649 99.9742 685.567 99.633C685.499 99.2918 685.458 98.9028 685.444 98.466V92.2215H683.683V90.4812ZM699.271 96.1934C699.271 96.753 699.366 97.2307 699.557 97.6266C699.748 98.0224 700.015 98.35 700.356 98.6093C700.697 98.855 701.086 99.0393 701.523 99.1621C701.973 99.2713 702.458 99.3259 702.976 99.3259C703.536 99.3259 704.014 99.2645 704.41 99.1416C704.805 99.0051 705.126 98.8345 705.372 98.6298C705.618 98.425 705.795 98.193 705.904 97.9337C706.013 97.6607 706.068 97.3877 706.068 97.1147C706.068 96.5551 705.938 96.1456 705.679 95.8863C705.433 95.6133 705.16 95.4222 704.86 95.313C704.341 95.1219 703.734 94.9445 703.038 94.7807C702.355 94.6033 701.509 94.378 700.499 94.1051C699.871 93.9413 699.346 93.7297 698.923 93.4704C698.513 93.1974 698.186 92.8971 697.94 92.5695C697.694 92.2419 697.517 91.8939 697.408 91.5254C697.312 91.1568 697.264 90.7815 697.264 90.3993C697.264 89.6622 697.414 89.0275 697.715 88.4952C698.029 87.9493 698.438 87.4988 698.943 87.144C699.448 86.7891 700.021 86.5297 700.663 86.366C701.304 86.1885 701.953 86.0998 702.608 86.0998C703.372 86.0998 704.089 86.2022 704.758 86.4069C705.44 86.598 706.034 86.8914 706.539 87.2873C707.058 87.6831 707.467 88.1745 707.767 88.7614C708.068 89.3347 708.218 90.0035 708.218 90.7678H705.659C705.59 89.826 705.27 89.164 704.696 88.7819C704.123 88.386 703.393 88.1881 702.506 88.1881C702.205 88.1881 701.898 88.2222 701.584 88.2905C701.27 88.3451 700.984 88.4475 700.724 88.5976C700.465 88.7341 700.247 88.9252 700.069 89.1709C699.905 89.4166 699.824 89.7237 699.824 90.0922C699.824 90.6109 699.98 91.0203 700.294 91.3206C700.622 91.6073 701.045 91.8256 701.564 91.9758C701.618 91.9894 701.83 92.0509 702.198 92.16C702.581 92.2556 703.004 92.3648 703.468 92.4876C703.932 92.6105 704.382 92.7333 704.819 92.8562C705.27 92.9654 705.59 93.0472 705.781 93.1018C706.259 93.252 706.675 93.4567 707.03 93.7161C707.385 93.9754 707.679 94.2757 707.911 94.6169C708.156 94.9445 708.334 95.2994 708.443 95.6815C708.566 96.0637 708.627 96.4459 708.627 96.8281C708.627 97.647 708.457 98.35 708.115 98.9369C707.788 99.5102 707.351 99.981 706.805 100.35C706.259 100.718 705.638 100.984 704.942 101.148C704.246 101.325 703.536 101.414 702.813 101.414C701.98 101.414 701.195 101.312 700.458 101.107C699.721 100.902 699.08 100.588 698.534 100.165C697.988 99.7422 697.551 99.203 697.223 98.5479C696.896 97.8791 696.725 97.0942 696.711 96.1934H699.271ZM709.476 90.4812H711.236V87.3077H713.57V90.4812H715.679V92.2215H713.57V97.8722C713.57 98.1179 713.577 98.3295 713.591 98.5069C713.618 98.6844 713.666 98.8345 713.734 98.9574C713.816 99.0802 713.932 99.1757 714.082 99.244C714.232 99.2986 714.437 99.3259 714.696 99.3259C714.86 99.3259 715.024 99.3259 715.188 99.3259C715.352 99.3122 715.515 99.2849 715.679 99.244V101.046C715.42 101.073 715.167 101.1 714.922 101.128C714.676 101.155 714.423 101.169 714.164 101.169C713.55 101.169 713.052 101.114 712.67 101.005C712.301 100.882 712.008 100.711 711.789 100.493C711.584 100.261 711.441 99.9742 711.359 99.633C711.291 99.2918 711.25 98.9028 711.236 98.466V92.2215H709.476V90.4812ZM717.358 90.4812H719.549V92.5286H719.59C719.658 92.2419 719.788 91.9621 719.979 91.6891C720.184 91.4162 720.422 91.1705 720.695 90.9521C720.982 90.7201 721.296 90.5358 721.637 90.3993C721.978 90.2628 722.327 90.1946 722.681 90.1946C722.954 90.1946 723.139 90.2014 723.234 90.215C723.343 90.2287 723.453 90.2423 723.562 90.256V92.5081C723.398 92.4808 723.227 92.4603 723.05 92.4467C722.886 92.4194 722.722 92.4057 722.559 92.4057C722.163 92.4057 721.787 92.4876 721.433 92.6514C721.091 92.8016 720.791 93.0336 720.532 93.3475C720.272 93.6478 720.068 94.0232 719.917 94.4736C719.767 94.924 719.692 95.4427 719.692 96.0296V101.066H717.358V90.4812ZM733.421 98.7117C733.421 98.9983 733.455 99.203 733.524 99.3259C733.605 99.4487 733.756 99.5102 733.974 99.5102C734.042 99.5102 734.124 99.5102 734.22 99.5102C734.315 99.5102 734.424 99.4965 734.547 99.4692V101.087C734.465 101.114 734.356 101.141 734.22 101.169C734.097 101.209 733.967 101.244 733.831 101.271C733.694 101.298 733.558 101.319 733.421 101.332C733.285 101.346 733.169 101.353 733.073 101.353C732.595 101.353 732.2 101.257 731.886 101.066C731.572 100.875 731.367 100.541 731.271 100.063C730.807 100.513 730.234 100.841 729.552 101.046C728.883 101.25 728.235 101.353 727.607 101.353C727.129 101.353 726.672 101.285 726.235 101.148C725.798 101.025 725.409 100.841 725.068 100.595C724.74 100.336 724.474 100.015 724.269 99.633C724.078 99.2372 723.983 98.7799 723.983 98.2612C723.983 97.6061 724.099 97.0738 724.331 96.6643C724.577 96.2548 724.89 95.9341 725.273 95.702C725.668 95.47 726.105 95.3062 726.583 95.2106C727.074 95.1015 727.566 95.0196 728.057 94.965C728.48 94.8831 728.883 94.8285 729.265 94.8012C729.647 94.7602 729.982 94.6988 730.268 94.6169C730.569 94.535 730.801 94.4122 730.964 94.2484C731.142 94.0709 731.231 93.8116 731.231 93.4704C731.231 93.1701 731.155 92.9244 731.005 92.7333C730.869 92.5422 730.691 92.3989 730.473 92.3034C730.268 92.1942 730.036 92.1259 729.777 92.0986C729.518 92.0577 729.272 92.0372 729.04 92.0372C728.385 92.0372 727.845 92.1737 727.422 92.4467C726.999 92.7197 726.76 93.1428 726.706 93.7161H724.372C724.413 93.0336 724.577 92.4672 724.863 92.0167C725.15 91.5663 725.511 91.2046 725.948 90.9316C726.399 90.6586 726.904 90.4675 727.463 90.3583C728.023 90.2492 728.596 90.1946 729.183 90.1946C729.702 90.1946 730.214 90.2492 730.719 90.3583C731.224 90.4675 731.674 90.645 732.07 90.8907C732.479 91.1364 732.807 91.4571 733.053 91.8529C733.298 92.2351 733.421 92.706 733.421 93.2656V98.7117ZM731.087 95.7634C730.732 95.9955 730.296 96.1388 729.777 96.1934C729.258 96.2343 728.74 96.3026 728.221 96.3981C727.975 96.4391 727.736 96.5005 727.504 96.5824C727.272 96.6506 727.067 96.753 726.89 96.8895C726.713 97.0123 726.569 97.183 726.46 97.4013C726.365 97.6061 726.317 97.8586 726.317 98.1589C726.317 98.4182 726.392 98.6366 726.542 98.814C726.692 98.9915 726.87 99.1348 727.074 99.244C727.293 99.3395 727.525 99.4078 727.77 99.4487C728.03 99.4897 728.262 99.5102 728.467 99.5102C728.726 99.5102 729.006 99.476 729.306 99.4078C729.606 99.3395 729.886 99.2235 730.145 99.0597C730.418 98.8959 730.644 98.6912 730.821 98.4455C730.998 98.1862 731.087 97.8722 731.087 97.5037V95.7634ZM734.868 90.4812H736.629V87.3077H738.963V90.4812H741.072V92.2215H738.963V97.8722C738.963 98.1179 738.97 98.3295 738.983 98.5069C739.011 98.6844 739.058 98.8345 739.127 98.9574C739.208 99.0802 739.324 99.1757 739.475 99.244C739.625 99.2986 739.829 99.3259 740.089 99.3259C740.253 99.3259 740.416 99.3259 740.58 99.3259C740.744 99.3122 740.908 99.2849 741.072 99.244V101.046C740.812 101.073 740.56 101.1 740.314 101.128C740.068 101.155 739.816 101.169 739.556 101.169C738.942 101.169 738.444 101.114 738.062 101.005C737.693 100.882 737.4 100.711 737.182 100.493C736.977 100.261 736.833 99.9742 736.752 99.633C736.683 99.2918 736.642 98.9028 736.629 98.466V92.2215H734.868V90.4812ZM750.019 94.8421C749.991 94.4736 749.91 94.1187 749.773 93.7775C749.65 93.4362 749.473 93.1428 749.241 92.8971C749.022 92.6378 748.749 92.433 748.422 92.2829C748.108 92.1191 747.753 92.0372 747.357 92.0372C746.948 92.0372 746.572 92.1123 746.231 92.2624C745.904 92.3989 745.617 92.5968 745.371 92.8562C745.139 93.1018 744.948 93.3953 744.798 93.7365C744.661 94.0778 744.586 94.4463 744.573 94.8421H750.019ZM744.573 96.3777C744.573 96.7871 744.627 97.183 744.737 97.5651C744.859 97.9473 745.037 98.2817 745.269 98.5684C745.501 98.855 745.794 99.087 746.149 99.2645C746.504 99.4283 746.927 99.5102 747.419 99.5102C748.101 99.5102 748.647 99.3668 749.056 99.0802C749.48 98.7799 749.794 98.3363 749.998 97.7494H752.209C752.087 98.3227 751.875 98.8345 751.575 99.2849C751.274 99.7354 750.913 100.118 750.49 100.431C750.067 100.732 749.589 100.957 749.056 101.107C748.538 101.271 747.992 101.353 747.419 101.353C746.586 101.353 745.849 101.216 745.207 100.943C744.566 100.67 744.02 100.288 743.57 99.7968C743.133 99.3054 742.798 98.7185 742.566 98.036C742.348 97.3536 742.239 96.6029 742.239 95.7839C742.239 95.0332 742.355 94.3234 742.587 93.6546C742.832 92.9722 743.174 92.3784 743.61 91.8734C744.061 91.3547 744.6 90.9453 745.228 90.645C745.856 90.3447 746.566 90.1946 747.357 90.1946C748.19 90.1946 748.934 90.372 749.589 90.7269C750.258 91.0681 750.81 91.5254 751.247 92.0986C751.684 92.6719 751.998 93.3339 752.189 94.0846C752.394 94.8216 752.448 95.586 752.353 96.3777H744.573ZM763.914 100.513C763.914 102.11 763.463 103.298 762.562 104.076C761.675 104.867 760.392 105.263 758.713 105.263C758.181 105.263 757.642 105.209 757.096 105.1C756.564 104.99 756.072 104.806 755.622 104.547C755.185 104.287 754.816 103.946 754.516 103.523C754.216 103.1 754.038 102.581 753.984 101.967H756.318C756.386 102.295 756.502 102.561 756.666 102.765C756.83 102.97 757.021 103.127 757.239 103.236C757.471 103.359 757.724 103.434 757.997 103.462C758.27 103.503 758.556 103.523 758.857 103.523C759.798 103.523 760.488 103.291 760.924 102.827C761.361 102.363 761.58 101.694 761.58 100.82V99.203H761.539C761.211 99.79 760.761 100.247 760.187 100.575C759.628 100.902 759.02 101.066 758.365 101.066C757.519 101.066 756.796 100.923 756.195 100.636C755.608 100.336 755.117 99.9333 754.721 99.4283C754.339 98.9096 754.059 98.3158 753.881 97.647C753.704 96.9782 753.615 96.2616 753.615 95.4973C753.615 94.7875 753.724 94.1119 753.943 93.4704C754.161 92.8289 754.475 92.2692 754.885 91.7915C755.294 91.3001 755.792 90.9111 756.379 90.6245C756.98 90.3379 757.655 90.1946 758.406 90.1946C759.075 90.1946 759.689 90.3379 760.249 90.6245C760.808 90.8975 761.238 91.3343 761.539 91.9348H761.58V90.4812H763.914V100.513ZM758.734 99.2235C759.252 99.2235 759.689 99.1211 760.044 98.9164C760.413 98.698 760.706 98.4182 760.924 98.077C761.156 97.7221 761.32 97.3263 761.416 96.8895C761.525 96.4391 761.58 95.9887 761.58 95.5382C761.58 95.0878 761.525 94.651 761.416 94.2279C761.307 93.8048 761.136 93.4294 760.904 93.1018C760.686 92.7743 760.392 92.5149 760.024 92.3238C759.669 92.1327 759.239 92.0372 758.734 92.0372C758.215 92.0372 757.778 92.1464 757.423 92.3648C757.069 92.5832 756.782 92.8698 756.564 93.2247C756.345 93.5659 756.188 93.9617 756.093 94.4122C755.997 94.8489 755.949 95.2857 755.949 95.7225C755.949 96.1593 756.004 96.5892 756.113 97.0123C756.222 97.4218 756.386 97.7903 756.604 98.1179C756.837 98.4455 757.123 98.7117 757.464 98.9164C757.819 99.1211 758.242 99.2235 758.734 99.2235ZM765.096 90.4812H767.656L770.42 98.3841H770.461L773.143 90.4812H775.579L771.464 101.639C771.273 102.117 771.082 102.574 770.891 103.011C770.713 103.448 770.488 103.83 770.215 104.158C769.956 104.499 769.628 104.765 769.232 104.956C768.836 105.161 768.331 105.263 767.717 105.263C767.171 105.263 766.632 105.222 766.1 105.14V103.175C766.291 103.202 766.475 103.23 766.652 103.257C766.83 103.298 767.014 103.318 767.205 103.318C767.478 103.318 767.703 103.284 767.881 103.216C768.058 103.148 768.202 103.045 768.311 102.909C768.434 102.786 768.536 102.636 768.618 102.458C768.7 102.281 768.775 102.076 768.843 101.844L769.109 101.025L765.096 90.4812Z" fill="#E1F8E6"/>
<path d="M817.396 54.9478V94.9478" stroke="#E1F8E6"/>
<path d="M870.525 66.7167L875.416 59.1567H873.481L869.737 65.2477L865.903 59.1567H863.879L868.824 66.7167V71.9478H870.525V66.7167ZM881.043 66.4301H875.723C875.746 66.0718 875.824 65.7374 875.955 65.4268C876.087 65.1044 876.266 64.8237 876.493 64.5849C876.72 64.346 876.989 64.1609 877.299 64.0295C877.622 63.8862 877.98 63.8145 878.374 63.8145C878.756 63.8145 879.102 63.8862 879.413 64.0295C879.735 64.1609 880.01 64.346 880.237 64.5849C880.476 64.8118 880.661 65.0865 880.792 65.4089C880.936 65.7314 881.019 66.0718 881.043 66.4301ZM882.512 69.0098H881.007C880.876 69.6189 880.601 70.0727 880.183 70.3713C879.777 70.6698 879.252 70.8191 878.607 70.8191C878.105 70.8191 877.669 70.7355 877.299 70.5683C876.929 70.4011 876.624 70.1802 876.385 69.9055C876.147 69.6189 875.973 69.2964 875.866 68.9381C875.758 68.5679 875.711 68.1797 875.723 67.7737H882.656C882.679 67.2123 882.626 66.6211 882.494 66.0001C882.375 65.3791 882.148 64.8058 881.814 64.2803C881.491 63.7548 881.055 63.3249 880.506 62.9905C879.968 62.6441 879.288 62.4709 878.464 62.4709C877.831 62.4709 877.245 62.5904 876.708 62.8292C876.182 63.0681 875.723 63.4025 875.328 63.8324C874.946 64.2624 874.648 64.77 874.433 65.3552C874.218 65.9404 874.11 66.5853 874.11 67.29C874.134 67.9946 874.236 68.6455 874.415 69.2426C874.606 69.8398 874.887 70.3534 875.257 70.7833C875.627 71.2133 876.081 71.5477 876.618 71.7865C877.168 72.0254 877.813 72.1448 878.553 72.1448C879.604 72.1448 880.476 71.8821 881.169 71.3566C881.861 70.8311 882.309 70.0488 882.512 69.0098ZM892.439 71.9119C892.176 72.0672 891.812 72.1448 891.346 72.1448C890.952 72.1448 890.635 72.0373 890.397 71.8224C890.17 71.5954 890.056 71.2312 890.056 70.7296C889.638 71.2312 889.149 71.5954 888.587 71.8224C888.038 72.0373 887.441 72.1448 886.796 72.1448C886.378 72.1448 885.978 72.097 885.596 72.0015C885.225 71.906 884.903 71.7567 884.628 71.5536C884.353 71.3506 884.132 71.0879 883.965 70.7654C883.81 70.431 883.732 70.0309 883.732 69.5651C883.732 69.0396 883.822 68.6097 884.001 68.2753C884.18 67.9409 884.413 67.6721 884.7 67.4691C884.998 67.2541 885.333 67.0929 885.703 66.9854C886.085 66.8779 886.473 66.7883 886.867 66.7167C887.285 66.6331 887.68 66.5734 888.05 66.5375C888.432 66.4898 888.766 66.4301 889.053 66.3584C889.34 66.2748 889.567 66.1613 889.734 66.018C889.901 65.8628 889.985 65.6418 889.985 65.3552C889.985 65.0208 889.919 64.7521 889.788 64.549C889.668 64.346 889.507 64.1907 889.304 64.0832C889.113 63.9758 888.892 63.9041 888.641 63.8683C888.402 63.8324 888.163 63.8145 887.924 63.8145C887.279 63.8145 886.742 63.9399 886.312 64.1907C885.882 64.4296 885.649 64.8894 885.613 65.5702H884.091C884.115 64.9969 884.234 64.5132 884.449 64.1191C884.664 63.725 884.951 63.4085 885.309 63.1696C885.667 62.9188 886.073 62.7396 886.527 62.6322C886.993 62.5247 887.488 62.4709 888.014 62.4709C888.432 62.4709 888.844 62.5008 889.25 62.5605C889.668 62.6202 890.044 62.7456 890.379 62.9367C890.713 63.1159 890.982 63.3726 891.185 63.707C891.388 64.0414 891.489 64.4774 891.489 65.0148V69.7801C891.489 70.1384 891.507 70.4011 891.543 70.5683C891.591 70.7355 891.734 70.8191 891.973 70.8191C892.104 70.8191 892.26 70.7893 892.439 70.7296V71.9119ZM889.967 67.1646C889.776 67.3079 889.525 67.4154 889.214 67.487C888.904 67.5467 888.575 67.6005 888.229 67.6482C887.895 67.6841 887.554 67.7319 887.208 67.7916C886.861 67.8393 886.551 67.9229 886.276 68.0424C886.002 68.1618 885.775 68.335 885.596 68.5619C885.428 68.7769 885.345 69.0754 885.345 69.4576C885.345 69.7084 885.392 69.9234 885.488 70.1025C885.596 70.2698 885.727 70.4071 885.882 70.5146C886.049 70.6221 886.24 70.6997 886.455 70.7475C886.67 70.7952 886.897 70.8191 887.136 70.8191C887.638 70.8191 888.068 70.7534 888.426 70.6221C888.784 70.4788 889.077 70.3056 889.304 70.1025C889.531 69.8876 889.698 69.6607 889.805 69.4218C889.913 69.171 889.967 68.9381 889.967 68.7231V67.1646ZM893.802 62.6859V71.9478H895.325V67.8274C895.325 67.2302 895.385 66.7047 895.504 66.2509C895.624 65.7851 895.815 65.391 896.078 65.0685C896.34 64.7461 896.687 64.5013 897.117 64.334C897.547 64.1668 898.066 64.0832 898.675 64.0832V62.4709C897.851 62.447 897.17 62.6142 896.633 62.9725C896.095 63.3308 895.642 63.8862 895.271 64.6386H895.236V62.6859H893.802Z" fill="#E1F8E6"/>
<path d="M868.928 101.066H859.142C859.155 99.8787 859.442 98.8413 860.002 97.9541C860.561 97.0669 861.326 96.2958 862.295 95.6406C862.759 95.2994 863.243 94.9718 863.748 94.6579C864.253 94.3303 864.717 93.9822 865.141 93.6137C865.564 93.2452 865.912 92.8493 866.185 92.4262C866.458 91.9894 866.601 91.4912 866.615 90.9316C866.615 90.6723 866.581 90.3993 866.512 90.1127C866.458 89.8124 866.342 89.5394 866.164 89.2937C865.987 89.0344 865.741 88.8228 865.427 88.659C865.113 88.4816 864.704 88.3929 864.199 88.3929C863.735 88.3929 863.346 88.4884 863.032 88.6795C862.731 88.8569 862.486 89.1094 862.295 89.437C862.117 89.751 861.981 90.1263 861.885 90.5631C861.803 90.9999 861.756 91.4708 861.742 91.9758H859.408C859.408 91.1841 859.51 90.4539 859.715 89.7851C859.933 89.1026 860.254 88.5157 860.677 88.0243C861.1 87.533 861.612 87.1508 862.213 86.8778C862.827 86.5912 863.537 86.4478 864.342 86.4478C865.216 86.4478 865.946 86.5912 866.533 86.8778C867.12 87.1644 867.591 87.5261 867.945 87.9629C868.314 88.3997 868.573 88.8774 868.723 89.3961C868.874 89.9011 868.949 90.3856 868.949 90.8497C868.949 91.423 868.86 91.9417 868.683 92.4057C868.505 92.8698 868.266 93.2998 867.966 93.6956C867.666 94.0778 867.324 94.4326 866.942 94.7602C866.56 95.0878 866.164 95.3949 865.755 95.6815C865.345 95.9682 864.936 96.2412 864.526 96.5005C864.117 96.7598 863.735 97.0192 863.38 97.2785C863.039 97.5378 862.738 97.8108 862.479 98.0975C862.22 98.3704 862.042 98.6639 861.947 98.9778H868.928V101.066ZM875.412 86.4478C876.435 86.4478 877.268 86.6867 877.909 87.1644C878.565 87.6285 879.07 88.2291 879.424 88.9661C879.793 89.6895 880.039 90.488 880.161 91.3616C880.298 92.2351 880.366 93.0814 880.366 93.9003C880.366 94.7193 880.298 95.5655 880.161 96.4391C880.039 97.3126 879.793 98.1179 879.424 98.855C879.07 99.5784 878.565 100.179 877.909 100.657C877.268 101.121 876.435 101.353 875.412 101.353C874.388 101.353 873.548 101.121 872.893 100.657C872.252 100.179 871.747 99.5784 871.378 98.855C871.023 98.1179 870.778 97.3126 870.641 96.4391C870.518 95.5655 870.457 94.7193 870.457 93.9003C870.457 93.0814 870.518 92.2351 870.641 91.3616C870.778 90.488 871.023 89.6895 871.378 88.9661C871.747 88.2291 872.252 87.6285 872.893 87.1644C873.548 86.6867 874.388 86.4478 875.412 86.4478ZM875.412 99.4078C875.917 99.4078 876.34 99.2645 876.681 98.9778C877.022 98.6775 877.288 98.2817 877.479 97.7903C877.684 97.2853 877.827 96.6984 877.909 96.0296C877.991 95.3608 878.032 94.651 878.032 93.9003C878.032 93.1496 877.991 92.4467 877.909 91.7915C877.827 91.1227 877.684 90.5358 877.479 90.0308C877.288 89.5257 877.022 89.1299 876.681 88.8433C876.34 88.543 875.917 88.3929 875.412 88.3929C874.893 88.3929 874.463 88.543 874.122 88.8433C873.794 89.1299 873.528 89.5257 873.323 90.0308C873.132 90.5358 872.996 91.1227 872.914 91.7915C872.832 92.4467 872.791 93.1496 872.791 93.9003C872.791 94.651 872.832 95.3608 872.914 96.0296C872.996 96.6984 873.132 97.2853 873.323 97.7903C873.528 98.2817 873.794 98.6775 874.122 98.9778C874.463 99.2645 874.893 99.4078 875.412 99.4078ZM891.681 101.066H881.895C881.909 99.8787 882.195 98.8413 882.755 97.9541C883.314 97.0669 884.079 96.2958 885.048 95.6406C885.512 95.2994 885.996 94.9718 886.501 94.6579C887.007 94.3303 887.471 93.9822 887.894 93.6137C888.317 93.2452 888.665 92.8493 888.938 92.4262C889.211 91.9894 889.354 91.4912 889.368 90.9316C889.368 90.6723 889.334 90.3993 889.265 90.1127C889.211 89.8124 889.095 89.5394 888.917 89.2937C888.74 89.0344 888.494 88.8228 888.18 88.659C887.866 88.4816 887.457 88.3929 886.952 88.3929C886.488 88.3929 886.099 88.4884 885.785 88.6795C885.485 88.8569 885.239 89.1094 885.048 89.437C884.87 89.751 884.734 90.1263 884.638 90.5631C884.556 90.9999 884.509 91.4708 884.495 91.9758H882.161C882.161 91.1841 882.263 90.4539 882.468 89.7851C882.687 89.1026 883.007 88.5157 883.43 88.0243C883.854 87.533 884.365 87.1508 884.966 86.8778C885.58 86.5912 886.29 86.4478 887.095 86.4478C887.969 86.4478 888.699 86.5912 889.286 86.8778C889.873 87.1644 890.344 87.5261 890.699 87.9629C891.067 88.3997 891.326 88.8774 891.477 89.3961C891.627 89.9011 891.702 90.3856 891.702 90.8497C891.702 91.423 891.613 91.9417 891.436 92.4057C891.258 92.8698 891.019 93.2998 890.719 93.6956C890.419 94.0778 890.078 94.4326 889.695 94.7602C889.313 95.0878 888.917 95.3949 888.508 95.6815C888.098 95.9682 887.689 96.2412 887.279 96.5005C886.87 96.7598 886.488 97.0192 886.133 97.2785C885.792 97.5378 885.491 97.8108 885.232 98.0975C884.973 98.3704 884.795 98.6639 884.7 98.9778H891.681V101.066ZM893.558 89.1094C894.049 89.1094 894.527 89.0685 894.991 88.9866C895.455 88.9047 895.872 88.7682 896.24 88.5771C896.622 88.386 896.943 88.1404 897.202 87.8401C897.475 87.5398 897.653 87.1713 897.735 86.7345H899.639V101.066H897.08V90.9521H893.558V89.1094Z" fill="#E1F8E6"/>
<rect x="7.70947" y="7" width="944.581" height="147.014" rx="47.9477" stroke="#133D1C" stroke-opacity="0.2" stroke-width="14"/>
</svg>
