<svg width="1010" height="162" viewBox="0 0 1010 162" fill="none" xmlns="http://www.w3.org/2000/svg">
<rect x="14.5151" y="14" width="980.97" height="133.014" rx="40.9477" fill="#133D1C"/>
<path d="M102.062 65.2835V60.5899H105.394C106.362 60.5899 107.066 60.7929 107.508 61.199C107.962 61.5931 108.189 62.1724 108.189 62.9367C108.189 63.7011 107.962 64.2863 107.508 64.6923C107.066 65.0984 106.362 65.2955 105.394 65.2835H102.062ZM100.36 59.1567V71.9478H102.062V66.7167H105.967C107.257 66.7286 108.231 66.4002 108.888 65.7314C109.556 65.0626 109.891 64.131 109.891 62.9367C109.891 61.7424 109.556 60.8168 108.888 60.1599C108.231 59.4911 107.257 59.1567 105.967 59.1567H100.36ZM111.672 62.6859V71.9478H113.195V67.8274C113.195 67.2302 113.255 66.7047 113.374 66.2509C113.493 65.7851 113.685 65.391 113.947 65.0685C114.21 64.7461 114.556 64.5013 114.986 64.334C115.416 64.1668 115.936 64.0832 116.545 64.0832V62.4709C115.721 62.447 115.04 62.6142 114.503 62.9725C113.965 63.3308 113.511 63.8862 113.141 64.6386H113.105V62.6859H111.672ZM118.487 67.3258C118.487 66.7645 118.559 66.2688 118.702 65.8389C118.858 65.397 119.067 65.0267 119.329 64.7282C119.592 64.4296 119.897 64.2027 120.243 64.0474C120.601 63.8922 120.978 63.8145 121.372 63.8145C121.766 63.8145 122.136 63.8922 122.482 64.0474C122.841 64.2027 123.151 64.4296 123.414 64.7282C123.677 65.0267 123.88 65.397 124.023 65.8389C124.178 66.2688 124.256 66.7645 124.256 67.3258C124.256 67.8871 124.178 68.3887 124.023 68.8306C123.88 69.2606 123.677 69.6248 123.414 69.9234C123.151 70.21 122.841 70.431 122.482 70.5862C122.136 70.7415 121.766 70.8191 121.372 70.8191C120.978 70.8191 120.601 70.7415 120.243 70.5862C119.897 70.431 119.592 70.21 119.329 69.9234C119.067 69.6248 118.858 69.2606 118.702 68.8306C118.559 68.3887 118.487 67.8871 118.487 67.3258ZM116.875 67.3258C116.875 68.0065 116.971 68.6395 117.162 69.2247C117.353 69.8099 117.639 70.3235 118.022 70.7654C118.404 71.1953 118.876 71.5357 119.437 71.7865C119.998 72.0254 120.643 72.1448 121.372 72.1448C122.112 72.1448 122.757 72.0254 123.306 71.7865C123.868 71.5357 124.34 71.1953 124.722 70.7654C125.104 70.3235 125.391 69.8099 125.582 69.2247C125.773 68.6395 125.868 68.0065 125.868 67.3258C125.868 66.645 125.773 66.012 125.582 65.4268C125.391 64.8297 125.104 64.3161 124.722 63.8862C124.34 63.4443 123.868 63.0979 123.306 62.8471C122.757 62.5963 122.112 62.4709 121.372 62.4709C120.643 62.4709 119.998 62.5963 119.437 62.8471C118.876 63.0979 118.404 63.4443 118.022 63.8862C117.639 64.3161 117.353 64.8297 117.162 65.4268C116.971 66.012 116.875 66.645 116.875 67.3258ZM128.774 67.3974C128.774 66.9436 128.822 66.5017 128.918 66.0718C129.013 65.6418 129.168 65.2596 129.383 64.9252C129.598 64.5908 129.885 64.3221 130.243 64.1191C130.602 63.916 131.038 63.8145 131.551 63.8145C132.077 63.8145 132.524 63.916 132.895 64.1191C133.265 64.3102 133.563 64.5669 133.79 64.8894C134.029 65.2119 134.202 65.5881 134.31 66.018C134.417 66.436 134.471 66.872 134.471 67.3258C134.471 67.7557 134.417 68.1797 134.31 68.5977C134.214 69.0157 134.053 69.3919 133.826 69.7263C133.599 70.0488 133.307 70.3116 132.948 70.5146C132.59 70.7176 132.154 70.8191 131.641 70.8191C131.151 70.8191 130.721 70.7236 130.351 70.5325C129.993 70.3414 129.694 70.0846 129.455 69.7622C129.228 69.4397 129.055 69.0754 128.936 68.6694C128.828 68.2514 128.774 67.8274 128.774 67.3974ZM135.94 71.9478V59.1567H134.417V63.922H134.382C134.214 63.6473 134.005 63.4204 133.755 63.2413C133.516 63.0502 133.259 62.9009 132.984 62.7934C132.71 62.674 132.435 62.5904 132.16 62.5426C131.885 62.4948 131.629 62.4709 131.39 62.4709C130.685 62.4709 130.064 62.6023 129.527 62.8651C129.001 63.1159 128.559 63.4622 128.201 63.9041C127.855 64.334 127.592 64.8416 127.413 65.4268C127.246 66.012 127.162 66.6331 127.162 67.29C127.162 67.9468 127.252 68.5679 127.431 69.1531C127.61 69.7383 127.873 70.2518 128.219 70.6937C128.577 71.1356 129.019 71.4879 129.545 71.7507C130.082 72.0134 130.709 72.1448 131.426 72.1448C132.071 72.1448 132.662 72.0314 133.199 71.8044C133.737 71.5775 134.131 71.2073 134.382 70.6937H134.417V71.9478H135.94ZM145.95 71.9478V62.6859H144.428V67.917C144.428 68.335 144.368 68.7231 144.248 69.0814C144.141 69.4278 143.974 69.7323 143.747 69.9951C143.52 70.2578 143.233 70.4608 142.887 70.6042C142.553 70.7475 142.152 70.8191 141.687 70.8191C141.101 70.8191 140.642 70.6519 140.307 70.3175C139.973 69.9831 139.806 69.5293 139.806 68.956V62.6859H138.283V68.7769C138.283 69.2785 138.331 69.7383 138.426 70.1563C138.534 70.5624 138.713 70.9147 138.964 71.2133C139.214 71.5118 139.543 71.7447 139.949 71.9119C140.355 72.0672 140.863 72.1448 141.472 72.1448C142.152 72.1448 142.744 72.0134 143.245 71.7507C143.747 71.476 144.159 71.052 144.481 70.4788H144.517V71.9478H145.95ZM154.525 65.6597H156.102C156.042 65.1103 155.899 64.6386 155.672 64.2445C155.445 63.8384 155.152 63.504 154.794 63.2413C154.448 62.9785 154.042 62.7874 153.576 62.668C153.122 62.5366 152.632 62.4709 152.107 62.4709C151.378 62.4709 150.739 62.6023 150.19 62.8651C149.641 63.1159 149.181 63.4682 148.811 63.922C148.452 64.3639 148.184 64.8894 148.005 65.4985C147.825 66.0957 147.736 66.7406 147.736 67.4333C147.736 68.126 147.825 68.7649 148.005 69.3501C148.196 69.9234 148.47 70.419 148.829 70.837C149.199 71.2551 149.653 71.5775 150.19 71.8044C150.739 72.0314 151.367 72.1448 152.071 72.1448C153.254 72.1448 154.185 71.8343 154.866 71.2133C155.559 70.5922 155.988 69.7084 156.156 68.5619H154.597C154.502 69.2785 154.239 69.8338 153.809 70.228C153.391 70.6221 152.806 70.8191 152.053 70.8191C151.576 70.8191 151.163 70.7236 150.817 70.5325C150.471 70.3414 150.19 70.0906 149.975 69.7801C149.76 69.4576 149.599 69.0934 149.491 68.6873C149.396 68.2812 149.348 67.8632 149.348 67.4333C149.348 66.9675 149.396 66.5196 149.491 66.0897C149.587 65.6478 149.742 65.2596 149.957 64.9252C150.184 64.5908 150.483 64.3221 150.853 64.1191C151.223 63.916 151.683 63.8145 152.232 63.8145C152.877 63.8145 153.391 63.9758 153.773 64.2982C154.155 64.6207 154.406 65.0745 154.525 65.6597ZM159.973 62.6859V59.9091H158.451V62.6859H156.874V64.0295H158.451V69.9234C158.451 70.3534 158.492 70.6997 158.576 70.9625C158.66 71.2252 158.785 71.4282 158.952 71.5715C159.131 71.7149 159.358 71.8164 159.633 71.8761C159.92 71.9239 160.26 71.9478 160.654 71.9478H161.819V70.6042H161.12C160.881 70.6042 160.684 70.5982 160.529 70.5862C160.385 70.5624 160.272 70.5206 160.188 70.4608C160.105 70.4011 160.045 70.3175 160.009 70.21C159.985 70.1025 159.973 69.9592 159.973 69.7801V64.0295H161.819V62.6859H159.973Z" fill="#E1F8E6"/>
<path d="M63.2429 88.1881C62.4649 88.1881 61.7893 88.3451 61.216 88.659C60.6564 88.973 60.1992 89.3961 59.8443 89.9284C59.4894 90.4471 59.2233 91.0408 59.0458 91.7096C58.882 92.3784 58.8001 93.0609 58.8001 93.757C58.8001 94.4531 58.882 95.1356 59.0458 95.8044C59.2233 96.4732 59.4894 97.0738 59.8443 97.6061C60.1992 98.1248 60.6564 98.5411 61.216 98.855C61.7893 99.1689 62.4649 99.3259 63.2429 99.3259C64.021 99.3259 64.6898 99.1689 65.2494 98.855C65.8226 98.5411 66.2867 98.1248 66.6416 97.6061C66.9965 97.0738 67.2558 96.4732 67.4196 95.8044C67.597 95.1356 67.6858 94.4531 67.6858 93.757C67.6858 93.0609 67.597 92.3784 67.4196 91.7096C67.2558 91.0408 66.9965 90.4471 66.6416 89.9284C66.2867 89.3961 65.8226 88.973 65.2494 88.659C64.6898 88.3451 64.021 88.1881 63.2429 88.1881ZM63.2429 86.0998C64.3349 86.0998 65.3108 86.3045 66.1707 86.714C67.0443 87.1235 67.7813 87.6763 68.3819 88.3724C68.9824 89.0685 69.4397 89.8806 69.7536 90.8088C70.0812 91.7369 70.245 92.7197 70.245 93.757C70.245 94.808 70.0812 95.7976 69.7536 96.7257C69.4397 97.6539 68.9824 98.466 68.3819 99.1621C67.7813 99.8582 67.0443 100.411 66.1707 100.82C65.3108 101.216 64.3349 101.414 63.2429 101.414C62.151 101.414 61.1683 101.216 60.2947 100.82C59.4348 100.411 58.7046 99.8582 58.104 99.1621C57.5034 98.466 57.0394 97.6539 56.7118 96.7257C56.3979 95.7976 56.2409 94.808 56.2409 93.757C56.2409 92.7197 56.3979 91.7369 56.7118 90.8088C57.0394 89.8806 57.5034 89.0685 58.104 88.3724C58.7046 87.6763 59.4348 87.1235 60.2947 86.714C61.1683 86.3045 62.151 86.0998 63.2429 86.0998ZM81.5418 101.066H79.2487V99.592H79.2077C78.9211 100.124 78.4912 100.554 77.9179 100.882C77.3583 101.196 76.785 101.353 76.1981 101.353C74.8059 101.353 73.7958 101.012 73.168 100.329C72.5537 99.633 72.2466 98.5888 72.2466 97.1966V90.4812H74.5806V96.9714C74.5806 97.8995 74.7581 98.5547 75.113 98.9369C75.4678 99.3191 75.966 99.5102 76.6076 99.5102C77.0989 99.5102 77.5084 99.4351 77.836 99.2849C78.1636 99.1348 78.4297 98.9369 78.6345 98.6912C78.8392 98.4319 78.9825 98.1248 79.0644 97.7699C79.16 97.415 79.2077 97.0328 79.2077 96.6233V90.4812H81.5418V101.066ZM84.0031 90.4812H86.1938V92.5286H86.2347C86.303 92.2419 86.4326 91.9621 86.6237 91.6891C86.8285 91.4162 87.0673 91.1705 87.3403 90.9521C87.627 90.7201 87.9409 90.5358 88.2821 90.3993C88.6233 90.2628 88.9714 90.1946 89.3263 90.1946C89.5993 90.1946 89.7835 90.2014 89.8791 90.215C89.9883 90.2287 90.0975 90.2423 90.2067 90.256V92.5081C90.0429 92.4808 89.8723 92.4603 89.6948 92.4467C89.531 92.4194 89.3672 92.4057 89.2034 92.4057C88.8076 92.4057 88.4323 92.4876 88.0774 92.6514C87.7361 92.8016 87.4359 93.0336 87.1765 93.3475C86.9172 93.6478 86.7125 94.0232 86.5623 94.4736C86.4122 94.924 86.3371 95.4427 86.3371 96.0296V101.066H84.0031V90.4812ZM91.5285 86.4478H97.9778C99.0151 86.4478 99.8613 86.598 100.517 86.8983C101.172 87.1986 101.677 87.5739 102.032 88.0243C102.386 88.4748 102.625 88.9661 102.748 89.4984C102.885 90.0308 102.953 90.5221 102.953 90.9726C102.953 91.423 102.885 91.9144 102.748 92.4467C102.625 92.9653 102.386 93.4499 102.032 93.9003C101.677 94.3507 101.172 94.7261 100.517 95.0264C99.8613 95.313 99.0151 95.4563 97.9778 95.4563H94.0877V101.066H91.5285V86.4478ZM94.0877 93.368H97.8344C98.1211 93.368 98.4145 93.3271 98.7148 93.2452C99.0151 93.1633 99.2881 93.0336 99.5338 92.8562C99.7931 92.6651 99.9978 92.4194 100.148 92.1191C100.312 91.8052 100.394 91.4162 100.394 90.9521C100.394 90.4744 100.325 90.0785 100.189 89.7646C100.052 89.4507 99.8682 89.205 99.6361 89.0276C99.4041 88.8365 99.1379 88.7068 98.8377 88.6385C98.5374 88.5703 98.2166 88.5362 97.8754 88.5362H94.0877V93.368ZM113.722 98.7117C113.722 98.9983 113.756 99.203 113.824 99.3259C113.906 99.4487 114.056 99.5102 114.275 99.5102C114.343 99.5102 114.425 99.5102 114.52 99.5102C114.616 99.5102 114.725 99.4965 114.848 99.4692V101.087C114.766 101.114 114.657 101.141 114.52 101.169C114.398 101.209 114.268 101.244 114.131 101.271C113.995 101.298 113.858 101.319 113.722 101.332C113.585 101.346 113.469 101.353 113.374 101.353C112.896 101.353 112.5 101.257 112.186 101.066C111.873 100.875 111.668 100.541 111.572 100.063C111.108 100.513 110.535 100.841 109.852 101.046C109.184 101.25 108.535 101.353 107.907 101.353C107.43 101.353 106.972 101.285 106.536 101.148C106.099 101.025 105.71 100.841 105.369 100.595C105.041 100.336 104.775 100.015 104.57 99.633C104.379 99.2372 104.284 98.7799 104.284 98.2612C104.284 97.6061 104.4 97.0738 104.632 96.6643C104.877 96.2548 105.191 95.9341 105.573 95.702C105.969 95.47 106.406 95.3062 106.884 95.2106C107.375 95.1015 107.866 95.0196 108.358 94.965C108.781 94.8831 109.184 94.8285 109.566 94.8012C109.948 94.7602 110.282 94.6988 110.569 94.6169C110.869 94.535 111.101 94.4122 111.265 94.2484C111.443 94.0709 111.531 93.8116 111.531 93.4704C111.531 93.1701 111.456 92.9244 111.306 92.7333C111.17 92.5422 110.992 92.3989 110.774 92.3034C110.569 92.1942 110.337 92.1259 110.078 92.0986C109.818 92.0577 109.573 92.0372 109.341 92.0372C108.685 92.0372 108.146 92.1737 107.723 92.4467C107.3 92.7197 107.061 93.1428 107.007 93.7161H104.673C104.713 93.0336 104.877 92.4672 105.164 92.0167C105.451 91.5663 105.812 91.2046 106.249 90.9316C106.699 90.6586 107.204 90.4675 107.764 90.3583C108.324 90.2492 108.897 90.1946 109.484 90.1946C110.003 90.1946 110.514 90.2492 111.019 90.3583C111.524 90.4675 111.975 90.645 112.371 90.8907C112.78 91.1364 113.108 91.4571 113.353 91.8529C113.599 92.2351 113.722 92.706 113.722 93.2656V98.7117ZM111.388 95.7634C111.033 95.9955 110.596 96.1388 110.078 96.1934C109.559 96.2343 109.04 96.3026 108.522 96.3981C108.276 96.4391 108.037 96.5005 107.805 96.5824C107.573 96.6506 107.368 96.753 107.191 96.8895C107.013 97.0123 106.87 97.183 106.761 97.4013C106.665 97.6061 106.618 97.8586 106.618 98.1589C106.618 98.4182 106.693 98.6366 106.843 98.814C106.993 98.9915 107.17 99.1348 107.375 99.244C107.593 99.3395 107.826 99.4078 108.071 99.4487C108.331 99.4897 108.563 99.5102 108.767 99.5102C109.027 99.5102 109.306 99.476 109.607 99.4078C109.907 99.3395 110.187 99.2235 110.446 99.0597C110.719 98.8959 110.944 98.6912 111.122 98.4455C111.299 98.1862 111.388 97.8722 111.388 97.5037V95.7634ZM117.994 97.6675C118.062 98.35 118.322 98.8277 118.772 99.1007C119.223 99.3737 119.762 99.5102 120.39 99.5102C120.608 99.5102 120.854 99.4965 121.127 99.4692C121.413 99.4283 121.679 99.36 121.925 99.2645C122.171 99.1689 122.369 99.0324 122.519 98.855C122.683 98.6639 122.758 98.4182 122.744 98.1179C122.73 97.8176 122.621 97.572 122.416 97.3809C122.212 97.1898 121.946 97.0396 121.618 96.9304C121.304 96.8076 120.942 96.7052 120.533 96.6233C120.123 96.5414 119.707 96.4527 119.284 96.3572C118.847 96.2616 118.424 96.1456 118.015 96.0091C117.619 95.8726 117.257 95.6884 116.929 95.4563C116.616 95.2243 116.363 94.9308 116.172 94.576C115.981 94.2074 115.885 93.757 115.885 93.2247C115.885 92.6514 116.022 92.1737 116.295 91.7915C116.581 91.3957 116.936 91.0818 117.359 90.8497C117.796 90.604 118.274 90.4334 118.793 90.3379C119.325 90.2423 119.83 90.1946 120.308 90.1946C120.854 90.1946 121.372 90.256 121.864 90.3788C122.369 90.488 122.819 90.6723 123.215 90.9316C123.624 91.191 123.959 91.5322 124.218 91.9553C124.491 92.3648 124.662 92.863 124.73 93.4499H122.294C122.184 92.8903 121.925 92.5149 121.516 92.3238C121.12 92.1327 120.663 92.0372 120.144 92.0372C119.98 92.0372 119.782 92.0509 119.55 92.0782C119.332 92.1054 119.12 92.16 118.915 92.2419C118.724 92.3102 118.561 92.4194 118.424 92.5695C118.288 92.706 118.219 92.8903 118.219 93.1223C118.219 93.4089 118.315 93.641 118.506 93.8184C118.711 93.9959 118.97 94.146 119.284 94.2689C119.612 94.378 119.98 94.4736 120.39 94.5555C120.799 94.6374 121.222 94.7261 121.659 94.8216C122.082 94.9172 122.498 95.0332 122.908 95.1697C123.317 95.3062 123.679 95.4905 123.993 95.7225C124.321 95.9545 124.58 96.248 124.771 96.6029C124.976 96.9577 125.078 97.3945 125.078 97.9132C125.078 98.5411 124.935 99.0734 124.648 99.5102C124.361 99.9469 123.986 100.302 123.522 100.575C123.072 100.848 122.567 101.046 122.007 101.169C121.447 101.291 120.895 101.353 120.349 101.353C119.68 101.353 119.059 101.278 118.485 101.128C117.926 100.977 117.435 100.752 117.011 100.452C116.602 100.138 116.274 99.7558 116.029 99.3054C115.797 98.8413 115.674 98.2954 115.66 97.6675H117.994ZM128.611 97.6675C128.679 98.35 128.939 98.8277 129.389 99.1007C129.839 99.3737 130.378 99.5102 131.006 99.5102C131.225 99.5102 131.47 99.4965 131.743 99.4692C132.03 99.4283 132.296 99.36 132.542 99.2645C132.788 99.1689 132.985 99.0324 133.136 98.855C133.299 98.6639 133.374 98.4182 133.361 98.1179C133.347 97.8176 133.238 97.572 133.033 97.3809C132.829 97.1898 132.562 97.0396 132.235 96.9304C131.921 96.8076 131.559 96.7052 131.15 96.6233C130.74 96.5414 130.324 96.4527 129.901 96.3572C129.464 96.2616 129.041 96.1456 128.631 96.0091C128.236 95.8726 127.874 95.6884 127.546 95.4563C127.232 95.2243 126.98 94.9308 126.789 94.576C126.598 94.2074 126.502 93.757 126.502 93.2247C126.502 92.6514 126.639 92.1737 126.912 91.7915C127.198 91.3957 127.553 91.0818 127.976 90.8497C128.413 90.604 128.891 90.4334 129.409 90.3379C129.942 90.2423 130.447 90.1946 130.924 90.1946C131.47 90.1946 131.989 90.256 132.48 90.3788C132.985 90.488 133.436 90.6723 133.832 90.9316C134.241 91.191 134.576 91.5322 134.835 91.9553C135.108 92.3648 135.279 92.863 135.347 93.4499H132.91C132.801 92.8903 132.542 92.5149 132.132 92.3238C131.737 92.1327 131.279 92.0372 130.761 92.0372C130.597 92.0372 130.399 92.0509 130.167 92.0782C129.949 92.1054 129.737 92.16 129.532 92.2419C129.341 92.3102 129.177 92.4194 129.041 92.5695C128.904 92.706 128.836 92.8903 128.836 93.1223C128.836 93.4089 128.932 93.641 129.123 93.8184C129.328 93.9959 129.587 94.146 129.901 94.2689C130.228 94.378 130.597 94.4736 131.006 94.5555C131.416 94.6374 131.839 94.7261 132.276 94.8216C132.699 94.9172 133.115 95.0332 133.525 95.1697C133.934 95.3062 134.296 95.4905 134.61 95.7225C134.937 95.9545 135.197 96.248 135.388 96.6029C135.592 96.9577 135.695 97.3945 135.695 97.9132C135.695 98.5411 135.552 99.0734 135.265 99.5102C134.978 99.9469 134.603 100.302 134.139 100.575C133.688 100.848 133.183 101.046 132.624 101.169C132.064 101.291 131.511 101.353 130.965 101.353C130.297 101.353 129.676 101.278 129.102 101.128C128.543 100.977 128.051 100.752 127.628 100.452C127.219 100.138 126.891 99.7558 126.645 99.3054C126.413 98.8413 126.291 98.2954 126.277 97.6675H128.611ZM143.452 86.4478H147.055L151.089 97.8927H151.13L155.061 86.4478H158.623V101.066H156.187V89.7851H156.146L152.092 101.066H149.983L145.929 89.7851H145.888V101.066H143.452V86.4478ZM166.212 101.353C165.366 101.353 164.608 101.216 163.939 100.943C163.284 100.657 162.725 100.268 162.261 99.7763C161.81 99.2849 161.462 98.698 161.216 98.0156C160.984 97.3331 160.868 96.5824 160.868 95.7634C160.868 94.9581 160.984 94.2143 161.216 93.5318C161.462 92.8493 161.81 92.2624 162.261 91.771C162.725 91.2797 163.284 90.8975 163.939 90.6245C164.608 90.3379 165.366 90.1946 166.212 90.1946C167.058 90.1946 167.809 90.3379 168.464 90.6245C169.133 90.8975 169.693 91.2797 170.143 91.771C170.607 92.2624 170.955 92.8493 171.187 93.5318C171.433 94.2143 171.556 94.9581 171.556 95.7634C171.556 96.5824 171.433 97.3331 171.187 98.0156C170.955 98.698 170.607 99.2849 170.143 99.7763C169.693 100.268 169.133 100.657 168.464 100.943C167.809 101.216 167.058 101.353 166.212 101.353ZM166.212 99.5102C166.731 99.5102 167.181 99.401 167.563 99.1826C167.946 98.9642 168.259 98.6775 168.505 98.3227C168.751 97.9678 168.928 97.572 169.037 97.1352C169.16 96.6848 169.222 96.2275 169.222 95.7634C169.222 95.313 169.16 94.8626 169.037 94.4122C168.928 93.9617 168.751 93.5659 168.505 93.2247C168.259 92.8698 167.946 92.5832 167.563 92.3648C167.181 92.1464 166.731 92.0372 166.212 92.0372C165.693 92.0372 165.243 92.1464 164.861 92.3648C164.479 92.5832 164.165 92.8698 163.919 93.2247C163.673 93.5659 163.489 93.9617 163.366 94.4122C163.257 94.8626 163.202 95.313 163.202 95.7634C163.202 96.2275 163.257 96.6848 163.366 97.1352C163.489 97.572 163.673 97.9678 163.919 98.3227C164.165 98.6775 164.479 98.9642 164.861 99.1826C165.243 99.401 165.693 99.5102 166.212 99.5102ZM173.558 86.4478H175.892V91.8529H175.933C176.096 91.5936 176.294 91.3616 176.526 91.1568C176.758 90.9521 177.011 90.7815 177.284 90.645C177.57 90.4948 177.864 90.3856 178.164 90.3174C178.478 90.2355 178.785 90.1946 179.085 90.1946C179.918 90.1946 180.641 90.3447 181.256 90.645C181.884 90.9316 182.402 91.3343 182.812 91.8529C183.221 92.358 183.528 92.9517 183.733 93.6342C183.938 94.3166 184.04 95.0469 184.04 95.8249C184.04 96.5346 183.945 97.2239 183.754 97.8927C183.576 98.5615 183.296 99.1553 182.914 99.6739C182.546 100.179 182.075 100.588 181.501 100.902C180.928 101.203 180.252 101.353 179.474 101.353C179.12 101.353 178.758 101.325 178.389 101.271C178.034 101.23 177.693 101.141 177.366 101.005C177.038 100.868 176.738 100.691 176.465 100.472C176.205 100.254 175.987 99.9674 175.81 99.6125H175.769V101.066H173.558V86.4478ZM181.706 95.7839C181.706 95.3062 181.645 94.8421 181.522 94.3917C181.399 93.9413 181.215 93.5454 180.969 93.2042C180.723 92.8493 180.416 92.5695 180.048 92.3648C179.679 92.1464 179.256 92.0372 178.778 92.0372C177.796 92.0372 177.052 92.3784 176.547 93.0609C176.055 93.7434 175.81 94.651 175.81 95.7839C175.81 96.3162 175.871 96.8144 175.994 97.2785C176.13 97.7289 176.328 98.1179 176.588 98.4455C176.847 98.7731 177.154 99.0324 177.509 99.2235C177.878 99.4146 178.301 99.5102 178.778 99.5102C179.311 99.5102 179.761 99.401 180.13 99.1826C180.498 98.9642 180.798 98.6844 181.03 98.3431C181.276 97.9883 181.447 97.5924 181.542 97.1557C181.652 96.7052 181.706 96.248 181.706 95.7839ZM186.074 86.4478H188.408V88.659H186.074V86.4478ZM186.074 90.4812H188.408V101.066H186.074V90.4812ZM191.012 86.4478H193.346V101.066H191.012V86.4478ZM203.158 94.8421C203.13 94.4736 203.048 94.1187 202.912 93.7775C202.789 93.4362 202.612 93.1428 202.38 92.8971C202.161 92.6378 201.888 92.433 201.561 92.2829C201.247 92.1191 200.892 92.0372 200.496 92.0372C200.086 92.0372 199.711 92.1123 199.37 92.2624C199.042 92.3989 198.756 92.5968 198.51 92.8562C198.278 93.1018 198.087 93.3953 197.937 93.7365C197.8 94.0778 197.725 94.4463 197.712 94.8421H203.158ZM197.712 96.3777C197.712 96.7871 197.766 97.183 197.875 97.5651C197.998 97.9473 198.176 98.2817 198.408 98.5684C198.64 98.855 198.933 99.087 199.288 99.2645C199.643 99.4283 200.066 99.5102 200.557 99.5102C201.24 99.5102 201.786 99.3668 202.195 99.0802C202.618 98.7799 202.932 98.3363 203.137 97.7494H205.348C205.225 98.3227 205.014 98.8345 204.714 99.2849C204.413 99.7354 204.052 100.118 203.628 100.431C203.205 100.732 202.728 100.957 202.195 101.107C201.677 101.271 201.131 101.353 200.557 101.353C199.725 101.353 198.988 101.216 198.346 100.943C197.705 100.67 197.159 100.288 196.708 99.7968C196.272 99.3054 195.937 98.7185 195.705 98.036C195.487 97.3536 195.378 96.6029 195.378 95.7839C195.378 95.0332 195.494 94.3234 195.726 93.6546C195.971 92.9722 196.312 92.3784 196.749 91.8734C197.2 91.3547 197.739 90.9453 198.367 90.645C198.995 90.3447 199.704 90.1946 200.496 90.1946C201.329 90.1946 202.072 90.372 202.728 90.7269C203.396 91.0681 203.949 91.5254 204.386 92.0986C204.823 92.6719 205.137 93.3339 205.328 94.0846C205.533 94.8216 205.587 95.586 205.492 96.3777H197.712Z" fill="#E1F8E6"/>
<path d="M247.41 54.9478V94.9478" stroke="#E1F8E6"/>
<path d="M300.249 63.0084H301.951C301.855 62.3276 301.652 61.7305 301.342 61.2169C301.031 60.6914 300.643 60.2555 300.177 59.9091C299.711 59.5628 299.18 59.3 298.583 59.1209C297.986 58.9418 297.353 58.8522 296.684 58.8522C295.705 58.8522 294.833 59.0313 294.068 59.3896C293.316 59.736 292.683 60.2137 292.169 60.8228C291.668 61.4319 291.286 62.1485 291.023 62.9725C290.76 63.7847 290.629 64.6565 290.629 65.5881C290.629 66.5196 290.748 67.3915 290.987 68.2036C291.238 69.0157 291.608 69.7204 292.098 70.3175C292.587 70.9147 293.202 71.3864 293.943 71.7328C294.683 72.0672 295.549 72.2344 296.541 72.2344C298.177 72.2344 299.467 71.7865 300.41 70.8908C301.354 69.9951 301.909 68.741 302.076 67.1287H300.374C300.338 67.6542 300.231 68.1439 300.052 68.5977C299.873 69.0516 299.622 69.4457 299.299 69.7801C298.989 70.1025 298.613 70.3593 298.171 70.5504C297.741 70.7296 297.245 70.8191 296.684 70.8191C295.92 70.8191 295.263 70.6758 294.713 70.3892C294.164 70.1025 293.71 69.7204 293.352 69.2426C293.005 68.753 292.749 68.1857 292.581 67.5408C292.414 66.8839 292.331 66.1912 292.331 65.4627C292.331 64.7939 292.414 64.1489 292.581 63.5279C292.749 62.9069 293.005 62.3575 293.352 61.8797C293.71 61.3901 294.158 61.0019 294.695 60.7153C295.245 60.4287 295.902 60.2853 296.666 60.2853C297.562 60.2853 298.332 60.5123 298.977 60.9661C299.634 61.4199 300.058 62.1007 300.249 63.0084ZM305.044 67.3258C305.044 66.7645 305.116 66.2688 305.259 65.8389C305.414 65.397 305.623 65.0267 305.886 64.7282C306.149 64.4296 306.454 64.2027 306.8 64.0474C307.158 63.8922 307.534 63.8145 307.928 63.8145C308.323 63.8145 308.693 63.8922 309.039 64.0474C309.397 64.2027 309.708 64.4296 309.971 64.7282C310.234 65.0267 310.437 65.397 310.58 65.8389C310.735 66.2688 310.813 66.7645 310.813 67.3258C310.813 67.8871 310.735 68.3887 310.58 68.8306C310.437 69.2606 310.234 69.6248 309.971 69.9234C309.708 70.21 309.397 70.431 309.039 70.5862C308.693 70.7415 308.323 70.8191 307.928 70.8191C307.534 70.8191 307.158 70.7415 306.8 70.5862C306.454 70.431 306.149 70.21 305.886 69.9234C305.623 69.6248 305.414 69.2606 305.259 68.8306C305.116 68.3887 305.044 67.8871 305.044 67.3258ZM303.432 67.3258C303.432 68.0065 303.527 68.6395 303.719 69.2247C303.91 69.8099 304.196 70.3235 304.578 70.7654C304.961 71.1953 305.432 71.5357 305.994 71.7865C306.555 72.0254 307.2 72.1448 307.928 72.1448C308.669 72.1448 309.314 72.0254 309.863 71.7865C310.425 71.5357 310.896 71.1953 311.279 70.7654C311.661 70.3235 311.947 69.8099 312.138 69.2247C312.33 68.6395 312.425 68.0065 312.425 67.3258C312.425 66.645 312.33 66.012 312.138 65.4268C311.947 64.8297 311.661 64.3161 311.279 63.8862C310.896 63.4443 310.425 63.0979 309.863 62.8471C309.314 62.5963 308.669 62.4709 307.928 62.4709C307.2 62.4709 306.555 62.5963 305.994 62.8471C305.432 63.0979 304.961 63.4443 304.578 63.8862C304.196 64.3161 303.91 64.8297 303.719 65.4268C303.527 66.012 303.432 66.645 303.432 67.3258ZM314.22 62.6859V71.9478H315.743V66.1793C315.743 66.0001 315.785 65.7792 315.869 65.5164C315.964 65.2417 316.107 64.979 316.299 64.7282C316.502 64.4774 316.758 64.2624 317.069 64.0832C317.391 63.9041 317.773 63.8145 318.215 63.8145C318.562 63.8145 318.842 63.8683 319.057 63.9758C319.284 64.0713 319.463 64.2146 319.595 64.4057C319.726 64.5849 319.816 64.7998 319.864 65.0506C319.923 65.3014 319.953 65.5761 319.953 65.8747V71.9478H321.476V66.1793C321.476 65.4627 321.691 64.8894 322.121 64.4595C322.551 64.0295 323.142 63.8145 323.894 63.8145C324.265 63.8145 324.563 63.8683 324.79 63.9758C325.029 64.0832 325.214 64.2325 325.345 64.4236C325.477 64.6028 325.566 64.8177 325.614 65.0685C325.662 65.3194 325.686 65.5881 325.686 65.8747V71.9478H327.209V65.1581C327.209 64.6804 327.131 64.2743 326.976 63.9399C326.832 63.5936 326.623 63.3129 326.349 63.0979C326.086 62.883 325.763 62.7277 325.381 62.6322C325.011 62.5247 324.593 62.4709 324.127 62.4709C323.518 62.4709 322.957 62.6083 322.443 62.883C321.942 63.1577 321.536 63.5458 321.225 64.0474C321.034 63.4741 320.706 63.0681 320.24 62.8292C319.774 62.5904 319.254 62.4709 318.681 62.4709C317.379 62.4709 316.382 62.9964 315.689 64.0474H315.654V62.6859H314.22ZM329.547 62.6859V75.4769H331.07V70.7116H331.106C331.273 70.9863 331.476 71.2192 331.715 71.4103C331.966 71.5895 332.228 71.7328 332.503 71.8403C332.778 71.9478 333.052 72.0254 333.327 72.0732C333.614 72.1209 333.87 72.1448 334.097 72.1448C334.802 72.1448 335.417 72.0194 335.943 71.7686C336.48 71.5178 336.922 71.1774 337.268 70.7475C337.627 70.3056 337.889 69.792 338.057 69.2068C338.236 68.6216 338.325 68.0006 338.325 67.3437C338.325 66.6868 338.236 66.0658 338.057 65.4806C337.877 64.8954 337.609 64.3818 337.25 63.9399C336.904 63.4861 336.462 63.1278 335.925 62.8651C335.399 62.6023 334.778 62.4709 334.062 62.4709C333.417 62.4709 332.825 62.5904 332.288 62.8292C331.751 63.0561 331.356 63.4264 331.106 63.9399H331.07V62.6859H329.547ZM336.713 67.2362C336.713 67.6901 336.665 68.1319 336.57 68.5619C336.474 68.9918 336.319 69.374 336.104 69.7084C335.889 70.0428 335.602 70.3116 335.244 70.5146C334.898 70.7176 334.462 70.8191 333.936 70.8191C333.411 70.8191 332.963 70.7236 332.593 70.5325C332.222 70.3295 331.918 70.0667 331.679 69.7443C331.452 69.4218 331.285 69.0516 331.177 68.6336C331.07 68.2036 331.016 67.7617 331.016 67.3079C331.016 66.8779 331.064 66.4539 331.159 66.0359C331.267 65.6179 331.434 65.2477 331.661 64.9252C331.888 64.5908 332.181 64.3221 332.539 64.1191C332.897 63.916 333.333 63.8145 333.847 63.8145C334.336 63.8145 334.76 63.9101 335.119 64.1012C335.489 64.2922 335.787 64.549 336.014 64.8715C336.253 65.1939 336.426 65.5642 336.534 65.9822C336.653 66.3883 336.713 66.8063 336.713 67.2362ZM348.318 71.9119C348.055 72.0672 347.691 72.1448 347.225 72.1448C346.831 72.1448 346.514 72.0373 346.275 71.8224C346.048 71.5954 345.935 71.2312 345.935 70.7296C345.517 71.2312 345.027 71.5954 344.466 71.8224C343.916 72.0373 343.319 72.1448 342.674 72.1448C342.256 72.1448 341.856 72.097 341.474 72.0015C341.104 71.906 340.781 71.7567 340.507 71.5536C340.232 71.3506 340.011 71.0879 339.844 70.7654C339.689 70.431 339.611 70.0309 339.611 69.5651C339.611 69.0396 339.701 68.6097 339.88 68.2753C340.059 67.9409 340.292 67.6721 340.578 67.4691C340.877 67.2541 341.211 67.0929 341.582 66.9854C341.964 66.8779 342.352 66.7883 342.746 66.7167C343.164 66.6331 343.558 66.5734 343.928 66.5375C344.311 66.4898 344.645 66.4301 344.932 66.3584C345.218 66.2748 345.445 66.1613 345.612 66.018C345.78 65.8628 345.863 65.6418 345.863 65.3552C345.863 65.0208 345.798 64.7521 345.666 64.549C345.547 64.346 345.385 64.1907 345.182 64.0832C344.991 63.9758 344.77 63.9041 344.52 63.8683C344.281 63.8324 344.042 63.8145 343.803 63.8145C343.158 63.8145 342.621 63.9399 342.191 64.1907C341.761 64.4296 341.528 64.8894 341.492 65.5702H339.969C339.993 64.9969 340.113 64.5132 340.328 64.1191C340.543 63.725 340.829 63.4085 341.188 63.1696C341.546 62.9188 341.952 62.7396 342.406 62.6322C342.871 62.5247 343.367 62.4709 343.893 62.4709C344.311 62.4709 344.723 62.5008 345.129 62.5605C345.547 62.6202 345.923 62.7456 346.257 62.9367C346.592 63.1159 346.86 63.3726 347.063 63.707C347.267 64.0414 347.368 64.4774 347.368 65.0148V69.7801C347.368 70.1384 347.386 70.4011 347.422 70.5683C347.47 70.7355 347.613 70.8191 347.852 70.8191C347.983 70.8191 348.138 70.7893 348.318 70.7296V71.9119ZM345.845 67.1646C345.654 67.3079 345.403 67.4154 345.093 67.487C344.782 67.5467 344.454 67.6005 344.108 67.6482C343.773 67.6841 343.433 67.7319 343.086 67.7916C342.74 67.8393 342.43 67.9229 342.155 68.0424C341.88 68.1618 341.653 68.335 341.474 68.5619C341.307 68.7769 341.223 69.0754 341.223 69.4576C341.223 69.7084 341.271 69.9234 341.367 70.1025C341.474 70.2698 341.606 70.4071 341.761 70.5146C341.928 70.6221 342.119 70.6997 342.334 70.7475C342.549 70.7952 342.776 70.8191 343.015 70.8191C343.516 70.8191 343.946 70.7534 344.305 70.6221C344.663 70.4788 344.956 70.3056 345.182 70.1025C345.409 69.8876 345.577 69.6607 345.684 69.4218C345.792 69.171 345.845 68.9381 345.845 68.7231V67.1646ZM349.735 62.6859V71.9478H351.257V66.7167C351.257 66.2987 351.311 65.9165 351.419 65.5702C351.538 65.2119 351.711 64.9013 351.938 64.6386C352.165 64.3758 352.446 64.1728 352.78 64.0295C353.127 63.8862 353.533 63.8145 353.998 63.8145C354.584 63.8145 355.043 63.9817 355.378 64.3161C355.712 64.6505 355.879 65.1044 355.879 65.6776V71.9478H357.402V65.8568C357.402 65.3552 357.348 64.9013 357.241 64.4953C357.145 64.0773 356.972 63.719 356.721 63.4204C356.471 63.1218 356.142 62.8889 355.736 62.7217C355.33 62.5545 354.822 62.4709 354.213 62.4709C352.84 62.4709 351.837 63.0323 351.204 64.1549H351.168V62.6859H349.735ZM363.326 73.1839C363.147 73.6377 362.968 74.0199 362.788 74.3304C362.621 74.6409 362.43 74.8917 362.215 75.0828C362.012 75.2858 361.779 75.4292 361.517 75.5128C361.266 75.6083 360.973 75.6561 360.639 75.6561C360.46 75.6561 360.28 75.6441 360.101 75.6202C359.922 75.5964 359.749 75.5546 359.582 75.4948V74.0975C359.713 74.1572 359.862 74.205 360.03 74.2408C360.209 74.2886 360.358 74.3125 360.477 74.3125C360.788 74.3125 361.045 74.2349 361.248 74.0796C361.463 73.9363 361.624 73.7273 361.731 73.4526L362.359 71.894L358.686 62.6859H360.406L363.111 70.2638H363.147L365.744 62.6859H367.357L363.326 73.1839Z" fill="#E1F8E6"/>
<path d="M296.138 88.1881C295.36 88.1881 294.685 88.3451 294.112 88.659C293.552 88.973 293.095 89.3961 292.74 89.9284C292.385 90.4471 292.119 91.0408 291.941 91.7096C291.778 92.3784 291.696 93.0609 291.696 93.757C291.696 94.4531 291.778 95.1356 291.941 95.8044C292.119 96.4732 292.385 97.0738 292.74 97.6061C293.095 98.1248 293.552 98.5411 294.112 98.855C294.685 99.1689 295.36 99.3259 296.138 99.3259C296.916 99.3259 297.585 99.1689 298.145 98.855C298.718 98.5411 299.182 98.1248 299.537 97.6061C299.892 97.0738 300.151 96.4732 300.315 95.8044C300.493 95.1356 300.581 94.4531 300.581 93.757C300.581 93.0609 300.493 92.3784 300.315 91.7096C300.151 91.0408 299.892 90.4471 299.537 89.9284C299.182 89.3961 298.718 88.973 298.145 88.659C297.585 88.3451 296.916 88.1881 296.138 88.1881ZM296.138 86.0998C297.23 86.0998 298.206 86.3045 299.066 86.714C299.94 87.1235 300.677 87.6763 301.277 88.3724C301.878 89.0685 302.335 89.8806 302.649 90.8088C302.977 91.7369 303.141 92.7197 303.141 93.757C303.141 94.808 302.977 95.7976 302.649 96.7257C302.335 97.6539 301.878 98.466 301.277 99.1621C300.677 99.8582 299.94 100.411 299.066 100.82C298.206 101.216 297.23 101.414 296.138 101.414C295.047 101.414 294.064 101.216 293.19 100.82C292.33 100.411 291.6 99.8582 291 99.1621C290.399 98.466 289.935 97.6539 289.607 96.7257C289.293 95.7976 289.136 94.808 289.136 93.757C289.136 92.7197 289.293 91.7369 289.607 90.8088C289.935 89.8806 290.399 89.0685 291 88.3724C291.6 87.6763 292.33 87.1235 293.19 86.714C294.064 86.3045 295.047 86.0998 296.138 86.0998ZM314.437 101.066H312.144V99.592H312.103C311.817 100.124 311.387 100.554 310.813 100.882C310.254 101.196 309.681 101.353 309.094 101.353C307.701 101.353 306.691 101.012 306.063 100.329C305.449 99.633 305.142 98.5888 305.142 97.1966V90.4812H307.476V96.9714C307.476 97.8995 307.654 98.5547 308.008 98.9369C308.363 99.3191 308.862 99.5102 309.503 99.5102C309.994 99.5102 310.404 99.4351 310.731 99.2849C311.059 99.1348 311.325 98.9369 311.53 98.6912C311.735 98.4319 311.878 98.1248 311.96 97.7699C312.055 97.415 312.103 97.0328 312.103 96.6233V90.4812H314.437V101.066ZM316.899 90.4812H319.089V92.5286H319.13C319.198 92.2419 319.328 91.9621 319.519 91.6891C319.724 91.4162 319.963 91.1705 320.236 90.9521C320.522 90.7201 320.836 90.5358 321.178 90.3993C321.519 90.2628 321.867 90.1946 322.222 90.1946C322.495 90.1946 322.679 90.2014 322.775 90.215C322.884 90.2287 322.993 90.2423 323.102 90.256V92.5081C322.938 92.4808 322.768 92.4603 322.59 92.4467C322.427 92.4194 322.263 92.4057 322.099 92.4057C321.703 92.4057 321.328 92.4876 320.973 92.6514C320.632 92.8016 320.331 93.0336 320.072 93.3475C319.813 93.6478 319.608 94.0232 319.458 94.4736C319.308 94.924 319.233 95.4427 319.233 96.0296V101.066H316.899V90.4812ZM324.424 86.4478H330.873C331.911 86.4478 332.757 86.598 333.412 86.8983C334.067 87.1986 334.572 87.5739 334.927 88.0243C335.282 88.4748 335.521 88.9661 335.644 89.4984C335.78 90.0308 335.848 90.5221 335.848 90.9726C335.848 91.423 335.78 91.9144 335.644 92.4467C335.521 92.9653 335.282 93.4499 334.927 93.9003C334.572 94.3507 334.067 94.7261 333.412 95.0264C332.757 95.313 331.911 95.4563 330.873 95.4563H326.983V101.066H324.424V86.4478ZM326.983 93.368H330.73C331.017 93.368 331.31 93.3271 331.61 93.2452C331.911 93.1633 332.184 93.0336 332.429 92.8562C332.689 92.6651 332.893 92.4194 333.043 92.1191C333.207 91.8052 333.289 91.4162 333.289 90.9521C333.289 90.4744 333.221 90.0785 333.084 89.7646C332.948 89.4507 332.764 89.205 332.532 89.0276C332.3 88.8365 332.033 88.7068 331.733 88.6385C331.433 88.5703 331.112 88.5362 330.771 88.5362H326.983V93.368ZM346.617 98.7117C346.617 98.9983 346.652 99.203 346.72 99.3259C346.802 99.4487 346.952 99.5102 347.17 99.5102C347.239 99.5102 347.32 99.5102 347.416 99.5102C347.512 99.5102 347.621 99.4965 347.744 99.4692V101.087C347.662 101.114 347.552 101.141 347.416 101.169C347.293 101.209 347.163 101.244 347.027 101.271C346.89 101.298 346.754 101.319 346.617 101.332C346.481 101.346 346.365 101.353 346.269 101.353C345.792 101.353 345.396 101.257 345.082 101.066C344.768 100.875 344.563 100.541 344.468 100.063C344.004 100.513 343.43 100.841 342.748 101.046C342.079 101.25 341.431 101.353 340.803 101.353C340.325 101.353 339.868 101.285 339.431 101.148C338.994 101.025 338.605 100.841 338.264 100.595C337.937 100.336 337.67 100.015 337.466 99.633C337.275 99.2372 337.179 98.7799 337.179 98.2612C337.179 97.6061 337.295 97.0738 337.527 96.6643C337.773 96.2548 338.087 95.9341 338.469 95.702C338.865 95.47 339.301 95.3062 339.779 95.2106C340.271 95.1015 340.762 95.0196 341.253 94.965C341.676 94.8831 342.079 94.8285 342.461 94.8012C342.843 94.7602 343.178 94.6988 343.465 94.6169C343.765 94.535 343.997 94.4122 344.161 94.2484C344.338 94.0709 344.427 93.8116 344.427 93.4704C344.427 93.1701 344.352 92.9244 344.202 92.7333C344.065 92.5422 343.888 92.3989 343.669 92.3034C343.465 92.1942 343.232 92.1259 342.973 92.0986C342.714 92.0577 342.468 92.0372 342.236 92.0372C341.581 92.0372 341.042 92.1737 340.619 92.4467C340.196 92.7197 339.957 93.1428 339.902 93.7161H337.568C337.609 93.0336 337.773 92.4672 338.059 92.0167C338.346 91.5663 338.708 91.2046 339.145 90.9316C339.595 90.6586 340.1 90.4675 340.66 90.3583C341.219 90.2492 341.792 90.1946 342.379 90.1946C342.898 90.1946 343.41 90.2492 343.915 90.3583C344.42 90.4675 344.87 90.645 345.266 90.8907C345.676 91.1364 346.003 91.4571 346.249 91.8529C346.495 92.2351 346.617 92.706 346.617 93.2656V98.7117ZM344.283 95.7634C343.929 95.9955 343.492 96.1388 342.973 96.1934C342.454 96.2343 341.936 96.3026 341.417 96.3981C341.171 96.4391 340.933 96.5005 340.701 96.5824C340.469 96.6506 340.264 96.753 340.086 96.8895C339.909 97.0123 339.766 97.183 339.656 97.4013C339.561 97.6061 339.513 97.8586 339.513 98.1589C339.513 98.4182 339.588 98.6366 339.738 98.814C339.888 98.9915 340.066 99.1348 340.271 99.244C340.489 99.3395 340.721 99.4078 340.967 99.4487C341.226 99.4897 341.458 99.5102 341.663 99.5102C341.922 99.5102 342.202 99.476 342.502 99.4078C342.803 99.3395 343.082 99.2235 343.342 99.0597C343.615 98.8959 343.84 98.6912 344.017 98.4455C344.195 98.1862 344.283 97.8722 344.283 97.5037V95.7634ZM350.89 97.6675C350.958 98.35 351.217 98.8277 351.668 99.1007C352.118 99.3737 352.657 99.5102 353.285 99.5102C353.503 99.5102 353.749 99.4965 354.022 99.4692C354.309 99.4283 354.575 99.36 354.821 99.2645C355.066 99.1689 355.264 99.0324 355.414 98.855C355.578 98.6639 355.653 98.4182 355.64 98.1179C355.626 97.8176 355.517 97.572 355.312 97.3809C355.107 97.1898 354.841 97.0396 354.513 96.9304C354.2 96.8076 353.838 96.7052 353.428 96.6233C353.019 96.5414 352.603 96.4527 352.179 96.3572C351.743 96.2616 351.32 96.1456 350.91 96.0091C350.514 95.8726 350.153 95.6884 349.825 95.4563C349.511 95.2243 349.259 94.9308 349.067 94.576C348.876 94.2074 348.781 93.757 348.781 93.2247C348.781 92.6514 348.917 92.1737 349.19 91.7915C349.477 91.3957 349.832 91.0818 350.255 90.8497C350.692 90.604 351.169 90.4334 351.688 90.3379C352.22 90.2423 352.725 90.1946 353.203 90.1946C353.749 90.1946 354.268 90.256 354.759 90.3788C355.264 90.488 355.715 90.6723 356.11 90.9316C356.52 91.191 356.854 91.5322 357.114 91.9553C357.387 92.3648 357.557 92.863 357.626 93.4499H355.189C355.08 92.8903 354.821 92.5149 354.411 92.3238C354.015 92.1327 353.558 92.0372 353.039 92.0372C352.876 92.0372 352.678 92.0509 352.446 92.0782C352.227 92.1054 352.016 92.16 351.811 92.2419C351.62 92.3102 351.456 92.4194 351.32 92.5695C351.183 92.706 351.115 92.8903 351.115 93.1223C351.115 93.4089 351.21 93.641 351.401 93.8184C351.606 93.9959 351.866 94.146 352.179 94.2689C352.507 94.378 352.876 94.4736 353.285 94.5555C353.695 94.6374 354.118 94.7261 354.554 94.8216C354.978 94.9172 355.394 95.0332 355.803 95.1697C356.213 95.3062 356.575 95.4905 356.888 95.7225C357.216 95.9545 357.475 96.248 357.666 96.6029C357.871 96.9577 357.974 97.3945 357.974 97.9132C357.974 98.5411 357.83 99.0734 357.544 99.5102C357.257 99.9469 356.882 100.302 356.418 100.575C355.967 100.848 355.462 101.046 354.903 101.169C354.343 101.291 353.79 101.353 353.244 101.353C352.575 101.353 351.954 101.278 351.381 101.128C350.821 100.977 350.33 100.752 349.907 100.452C349.497 100.138 349.17 99.7558 348.924 99.3054C348.692 98.8413 348.569 98.2954 348.556 97.6675H350.89ZM361.506 97.6675C361.575 98.35 361.834 98.8277 362.284 99.1007C362.735 99.3737 363.274 99.5102 363.902 99.5102C364.12 99.5102 364.366 99.4965 364.639 99.4692C364.926 99.4283 365.192 99.36 365.437 99.2645C365.683 99.1689 365.881 99.0324 366.031 98.855C366.195 98.6639 366.27 98.4182 366.256 98.1179C366.243 97.8176 366.134 97.572 365.929 97.3809C365.724 97.1898 365.458 97.0396 365.13 96.9304C364.816 96.8076 364.455 96.7052 364.045 96.6233C363.636 96.5414 363.219 96.4527 362.796 96.3572C362.36 96.2616 361.936 96.1456 361.527 96.0091C361.131 95.8726 360.769 95.6884 360.442 95.4563C360.128 95.2243 359.875 94.9308 359.684 94.576C359.493 94.2074 359.398 93.757 359.398 93.2247C359.398 92.6514 359.534 92.1737 359.807 91.7915C360.094 91.3957 360.449 91.0818 360.872 90.8497C361.309 90.604 361.786 90.4334 362.305 90.3379C362.837 90.2423 363.342 90.1946 363.82 90.1946C364.366 90.1946 364.885 90.256 365.376 90.3788C365.881 90.488 366.331 90.6723 366.727 90.9316C367.137 91.191 367.471 91.5322 367.73 91.9553C368.003 92.3648 368.174 92.863 368.242 93.4499H365.806C365.697 92.8903 365.437 92.5149 365.028 92.3238C364.632 92.1327 364.175 92.0372 363.656 92.0372C363.492 92.0372 363.294 92.0509 363.062 92.0782C362.844 92.1054 362.632 92.16 362.428 92.2419C362.237 92.3102 362.073 92.4194 361.936 92.5695C361.8 92.706 361.732 92.8903 361.732 93.1223C361.732 93.4089 361.827 93.641 362.018 93.8184C362.223 93.9959 362.482 94.146 362.796 94.2689C363.124 94.378 363.492 94.4736 363.902 94.5555C364.311 94.6374 364.734 94.7261 365.171 94.8216C365.594 94.9172 366.011 95.0332 366.42 95.1697C366.83 95.3062 367.191 95.4905 367.505 95.7225C367.833 95.9545 368.092 96.248 368.283 96.6029C368.488 96.9577 368.59 97.3945 368.59 97.9132C368.59 98.5411 368.447 99.0734 368.16 99.5102C367.874 99.9469 367.498 100.302 367.034 100.575C366.584 100.848 366.079 101.046 365.519 101.169C364.96 101.291 364.407 101.353 363.861 101.353C363.192 101.353 362.571 101.278 361.998 101.128C361.438 100.977 360.947 100.752 360.524 100.452C360.114 100.138 359.787 99.7558 359.541 99.3054C359.309 98.8413 359.186 98.2954 359.172 97.6675H361.506Z" fill="#E1F8E6"/>
<path d="M410.306 54.9478V94.9478" stroke="#E1F8E6"/>
<path d="M564.151 59.1567V71.9478H565.853V66.4838H570.009C570.427 66.4838 570.762 66.5495 571.013 66.6809C571.263 66.8003 571.466 66.9675 571.622 67.1825C571.777 67.3855 571.89 67.6303 571.962 67.917C572.034 68.1917 572.093 68.4843 572.141 68.7948C572.201 69.1053 572.237 69.4218 572.249 69.7443C572.261 70.0667 572.273 70.3713 572.284 70.6579C572.296 70.9326 572.32 71.1834 572.356 71.4103C572.404 71.6372 572.488 71.8164 572.607 71.9478H574.506C574.327 71.7328 574.189 71.4879 574.094 71.2133C574.01 70.9266 573.945 70.628 573.897 70.3175C573.849 70.007 573.819 69.6905 573.807 69.3681C573.795 69.0456 573.777 68.7291 573.753 68.4186C573.718 68.1081 573.664 67.8095 573.592 67.5228C573.533 67.2362 573.431 66.9794 573.288 66.7525C573.156 66.5137 572.971 66.3106 572.732 66.1434C572.505 65.9762 572.207 65.8568 571.837 65.7851V65.7493C572.613 65.5343 573.174 65.1342 573.521 64.549C573.879 63.9638 574.058 63.2831 574.058 62.5068C574.058 61.4677 573.712 60.6496 573.019 60.0525C572.338 59.4553 571.389 59.1567 570.171 59.1567H564.151ZM569.4 65.0506H565.853V60.5899H570.081C570.881 60.5899 571.46 60.7929 571.819 61.199C572.177 61.6051 572.356 62.1306 572.356 62.7755C572.356 63.2413 572.273 63.6234 572.105 63.922C571.95 64.2086 571.735 64.4415 571.46 64.6207C571.198 64.7879 570.887 64.9013 570.529 64.9611C570.171 65.0208 569.794 65.0506 569.4 65.0506ZM577.275 67.3258C577.275 66.7645 577.347 66.2688 577.49 65.8389C577.645 65.397 577.854 65.0267 578.117 64.7282C578.38 64.4296 578.684 64.2027 579.031 64.0474C579.389 63.8922 579.765 63.8145 580.159 63.8145C580.553 63.8145 580.924 63.8922 581.27 64.0474C581.628 64.2027 581.939 64.4296 582.201 64.7282C582.464 65.0267 582.667 65.397 582.811 65.8389C582.966 66.2688 583.043 66.7645 583.043 67.3258C583.043 67.8871 582.966 68.3887 582.811 68.8306C582.667 69.2606 582.464 69.6248 582.201 69.9234C581.939 70.21 581.628 70.431 581.27 70.5862C580.924 70.7415 580.553 70.8191 580.159 70.8191C579.765 70.8191 579.389 70.7415 579.031 70.5862C578.684 70.431 578.38 70.21 578.117 69.9234C577.854 69.6248 577.645 69.2606 577.49 68.8306C577.347 68.3887 577.275 67.8871 577.275 67.3258ZM575.663 67.3258C575.663 68.0065 575.758 68.6395 575.949 69.2247C576.14 69.8099 576.427 70.3235 576.809 70.7654C577.191 71.1953 577.663 71.5357 578.224 71.7865C578.786 72.0254 579.431 72.1448 580.159 72.1448C580.9 72.1448 581.545 72.0254 582.094 71.7865C582.655 71.5357 583.127 71.1953 583.509 70.7654C583.891 70.3235 584.178 69.8099 584.369 69.2247C584.56 68.6395 584.656 68.0065 584.656 67.3258C584.656 66.645 584.56 66.012 584.369 65.4268C584.178 64.8297 583.891 64.3161 583.509 63.8862C583.127 63.4443 582.655 63.0979 582.094 62.8471C581.545 62.5963 580.9 62.4709 580.159 62.4709C579.431 62.4709 578.786 62.5963 578.224 62.8471C577.663 63.0979 577.191 63.4443 576.809 63.8862C576.427 64.3161 576.14 64.8297 575.949 65.4268C575.758 66.012 575.663 66.645 575.663 67.3258ZM586.541 59.1567V71.9478H588.063V59.1567H586.541ZM596.854 66.4301H591.533C591.557 66.0718 591.635 65.7374 591.766 65.4268C591.897 65.1044 592.077 64.8237 592.303 64.5849C592.53 64.346 592.799 64.1609 593.11 64.0295C593.432 63.8862 593.79 63.8145 594.185 63.8145C594.567 63.8145 594.913 63.8862 595.224 64.0295C595.546 64.1609 595.821 64.346 596.048 64.5849C596.286 64.8118 596.472 65.0865 596.603 65.4089C596.746 65.7314 596.83 66.0718 596.854 66.4301ZM598.323 69.0098H596.818C596.687 69.6189 596.412 70.0727 595.994 70.3713C595.588 70.6698 595.062 70.8191 594.417 70.8191C593.916 70.8191 593.48 70.7355 593.11 70.5683C592.739 70.4011 592.435 70.1802 592.196 69.9055C591.957 69.6189 591.784 69.2964 591.676 68.9381C591.569 68.5679 591.521 68.1797 591.533 67.7737H598.466C598.49 67.2123 598.436 66.6211 598.305 66.0001C598.185 65.3791 597.959 64.8058 597.624 64.2803C597.302 63.7548 596.866 63.3249 596.316 62.9905C595.779 62.6441 595.098 62.4709 594.274 62.4709C593.641 62.4709 593.056 62.5904 592.518 62.8292C591.993 63.0681 591.533 63.4025 591.139 63.8324C590.757 64.2624 590.458 64.77 590.243 65.3552C590.028 65.9404 589.921 66.5853 589.921 67.29C589.945 67.9946 590.046 68.6455 590.225 69.2426C590.416 69.8398 590.697 70.3534 591.067 70.7833C591.438 71.2133 591.891 71.5477 592.429 71.7865C592.978 72.0254 593.623 72.1448 594.364 72.1448C595.415 72.1448 596.286 71.8821 596.979 71.3566C597.672 70.8311 598.12 70.0488 598.323 69.0098Z" fill="#E1F8E6"/>
<path d="M452.646 86.4478H455.205V94.965C455.205 95.4563 455.226 95.9545 455.267 96.4596C455.321 96.9646 455.458 97.4218 455.676 97.8313C455.908 98.2271 456.25 98.5547 456.7 98.814C457.164 99.0734 457.812 99.203 458.645 99.203C459.478 99.203 460.119 99.0734 460.569 98.814C461.034 98.5547 461.375 98.2271 461.593 97.8313C461.825 97.4218 461.962 96.9646 462.003 96.4596C462.057 95.9545 462.085 95.4563 462.085 94.965V86.4478H464.644V95.8044C464.644 96.7462 464.5 97.5651 464.214 98.2612C463.927 98.9574 463.518 99.5443 462.985 100.022C462.467 100.486 461.839 100.834 461.102 101.066C460.365 101.298 459.546 101.414 458.645 101.414C457.744 101.414 456.925 101.298 456.188 101.066C455.451 100.834 454.816 100.486 454.284 100.022C453.765 99.5443 453.363 98.9574 453.076 98.2612C452.789 97.5651 452.646 96.7462 452.646 95.8044V86.4478ZM467.585 86.4478H470.145V101.066H467.585V86.4478ZM477.153 86.0998H479.385L473.509 101.414H471.277L477.153 86.0998ZM480.318 86.4478H482.877V94.965C482.877 95.4563 482.897 95.9545 482.938 96.4596C482.993 96.9646 483.13 97.4218 483.348 97.8313C483.58 98.2271 483.921 98.5547 484.372 98.814C484.836 99.0734 485.484 99.203 486.317 99.203C487.149 99.203 487.791 99.0734 488.241 98.814C488.705 98.5547 489.046 98.2271 489.265 97.8313C489.497 97.4218 489.633 96.9646 489.674 96.4596C489.729 95.9545 489.756 95.4563 489.756 94.965V86.4478H492.315V95.8044C492.315 96.7462 492.172 97.5651 491.886 98.2612C491.599 98.9574 491.189 99.5443 490.657 100.022C490.138 100.486 489.511 100.834 488.773 101.066C488.036 101.298 487.217 101.414 486.317 101.414C485.416 101.414 484.597 101.298 483.86 101.066C483.123 100.834 482.488 100.486 481.956 100.022C481.437 99.5443 481.034 98.9574 480.748 98.2612C480.461 97.5651 480.318 96.7462 480.318 95.8044V86.4478ZM493.988 86.4478H497.038L500.355 91.6073L503.815 86.4478H506.682L501.85 93.4908L507.03 101.066H503.918L500.273 95.4768L496.567 101.066H493.64L498.82 93.4908L493.988 86.4478ZM523.875 101.066H521.663V99.633H521.622C521.309 100.247 520.851 100.691 520.251 100.964C519.65 101.223 519.015 101.353 518.347 101.353C517.514 101.353 516.784 101.209 516.156 100.923C515.542 100.623 515.03 100.22 514.62 99.7149C514.211 99.2099 513.904 98.6161 513.699 97.9337C513.494 97.2376 513.392 96.4937 513.392 95.702C513.392 94.7466 513.522 93.9208 513.781 93.2247C514.04 92.5286 514.382 91.9553 514.805 91.5049C515.241 91.0545 515.733 90.7269 516.279 90.5221C516.838 90.3038 517.405 90.1946 517.978 90.1946C518.306 90.1946 518.64 90.2287 518.981 90.2969C519.323 90.3515 519.65 90.4471 519.964 90.5836C520.278 90.7201 520.565 90.8975 520.824 91.1159C521.097 91.3206 521.322 91.5663 521.5 91.8529H521.541V86.4478H523.875V101.066ZM515.726 95.8863C515.726 96.3367 515.781 96.7803 515.89 97.2171C516.013 97.6539 516.19 98.0429 516.422 98.3841C516.668 98.7253 516.975 98.9983 517.343 99.203C517.712 99.4078 518.149 99.5102 518.654 99.5102C519.172 99.5102 519.616 99.401 519.985 99.1826C520.367 98.9642 520.674 98.6775 520.906 98.3227C521.152 97.9678 521.329 97.572 521.438 97.1352C521.561 96.6848 521.622 96.2275 521.622 95.7634C521.622 94.5896 521.356 93.6751 520.824 93.0199C520.305 92.3648 519.596 92.0372 518.695 92.0372C518.149 92.0372 517.685 92.1532 517.302 92.3853C516.934 92.6036 516.627 92.8971 516.381 93.2656C516.149 93.6205 515.979 94.03 515.869 94.4941C515.774 94.9445 515.726 95.4086 515.726 95.8863ZM533.688 94.8421C533.661 94.4736 533.579 94.1187 533.443 93.7775C533.32 93.4362 533.142 93.1428 532.91 92.8971C532.692 92.6378 532.419 92.433 532.091 92.2829C531.777 92.1191 531.422 92.0372 531.027 92.0372C530.617 92.0372 530.242 92.1123 529.901 92.2624C529.573 92.3989 529.286 92.5968 529.041 92.8562C528.809 93.1018 528.618 93.3953 528.467 93.7365C528.331 94.0778 528.256 94.4463 528.242 94.8421H533.688ZM528.242 96.3777C528.242 96.7871 528.297 97.183 528.406 97.5651C528.529 97.9473 528.706 98.2817 528.938 98.5684C529.17 98.855 529.464 99.087 529.819 99.2645C530.174 99.4283 530.597 99.5102 531.088 99.5102C531.771 99.5102 532.317 99.3668 532.726 99.0802C533.149 98.7799 533.463 98.3363 533.668 97.7494H535.879C535.756 98.3227 535.545 98.8345 535.244 99.2849C534.944 99.7354 534.582 100.118 534.159 100.431C533.736 100.732 533.258 100.957 532.726 101.107C532.207 101.271 531.661 101.353 531.088 101.353C530.255 101.353 529.518 101.216 528.877 100.943C528.235 100.67 527.689 100.288 527.239 99.7968C526.802 99.3054 526.468 98.7185 526.236 98.036C526.017 97.3536 525.908 96.6029 525.908 95.7839C525.908 95.0332 526.024 94.3234 526.256 93.6546C526.502 92.9722 526.843 92.3784 527.28 91.8734C527.73 91.3547 528.27 90.9453 528.897 90.645C529.525 90.3447 530.235 90.1946 531.027 90.1946C531.859 90.1946 532.603 90.372 533.258 90.7269C533.927 91.0681 534.48 91.5254 534.917 92.0986C535.353 92.6719 535.667 93.3339 535.858 94.0846C536.063 94.8216 536.118 95.586 536.022 96.3777H528.242ZM539.557 97.6675C539.626 98.35 539.885 98.8277 540.335 99.1007C540.786 99.3737 541.325 99.5102 541.953 99.5102C542.171 99.5102 542.417 99.4965 542.69 99.4692C542.977 99.4283 543.243 99.36 543.488 99.2645C543.734 99.1689 543.932 99.0324 544.082 98.855C544.246 98.6639 544.321 98.4182 544.307 98.1179C544.294 97.8176 544.184 97.572 543.98 97.3809C543.775 97.1898 543.509 97.0396 543.181 96.9304C542.867 96.8076 542.506 96.7052 542.096 96.6233C541.687 96.5414 541.27 96.4527 540.847 96.3572C540.41 96.2616 539.987 96.1456 539.578 96.0091C539.182 95.8726 538.82 95.6884 538.493 95.4563C538.179 95.2243 537.926 94.9308 537.735 94.576C537.544 94.2074 537.449 93.757 537.449 93.2247C537.449 92.6514 537.585 92.1737 537.858 91.7915C538.145 91.3957 538.5 91.0818 538.923 90.8497C539.359 90.604 539.837 90.4334 540.356 90.3379C540.888 90.2423 541.393 90.1946 541.871 90.1946C542.417 90.1946 542.936 90.256 543.427 90.3788C543.932 90.488 544.382 90.6723 544.778 90.9316C545.188 91.191 545.522 91.5322 545.781 91.9553C546.054 92.3648 546.225 92.863 546.293 93.4499H543.857C543.748 92.8903 543.488 92.5149 543.079 92.3238C542.683 92.1327 542.226 92.0372 541.707 92.0372C541.543 92.0372 541.345 92.0509 541.113 92.0782C540.895 92.1054 540.683 92.16 540.479 92.2419C540.288 92.3102 540.124 92.4194 539.987 92.5695C539.851 92.706 539.783 92.8903 539.783 93.1223C539.783 93.4089 539.878 93.641 540.069 93.8184C540.274 93.9959 540.533 94.146 540.847 94.2689C541.175 94.378 541.543 94.4736 541.953 94.5555C542.362 94.6374 542.785 94.7261 543.222 94.8216C543.645 94.9172 544.062 95.0332 544.471 95.1697C544.881 95.3062 545.242 95.4905 545.556 95.7225C545.884 95.9545 546.143 96.248 546.334 96.6029C546.539 96.9577 546.641 97.3945 546.641 97.9132C546.641 98.5411 546.498 99.0734 546.211 99.5102C545.925 99.9469 545.549 100.302 545.085 100.575C544.635 100.848 544.13 101.046 543.57 101.169C543.011 101.291 542.458 101.353 541.912 101.353C541.243 101.353 540.622 101.278 540.049 101.128C539.489 100.977 538.998 100.752 538.575 100.452C538.165 100.138 537.838 99.7558 537.592 99.3054C537.36 98.8413 537.237 98.2954 537.223 97.6675H539.557ZM548.475 86.4478H550.809V88.659H548.475V86.4478ZM548.475 90.4812H550.809V101.066H548.475V90.4812ZM563.138 100.513C563.138 102.11 562.688 103.298 561.787 104.076C560.9 104.867 559.617 105.263 557.938 105.263C557.406 105.263 556.867 105.209 556.321 105.1C555.788 104.99 555.297 104.806 554.847 104.547C554.41 104.287 554.041 103.946 553.741 103.523C553.441 103.1 553.263 102.581 553.209 101.967H555.543C555.611 102.295 555.727 102.561 555.891 102.765C556.054 102.97 556.246 103.127 556.464 103.236C556.696 103.359 556.949 103.434 557.221 103.462C557.494 103.503 557.781 103.523 558.081 103.523C559.023 103.523 559.712 103.291 560.149 102.827C560.586 102.363 560.804 101.694 560.804 100.82V99.203H560.763C560.436 99.79 559.985 100.247 559.412 100.575C558.853 100.902 558.245 101.066 557.59 101.066C556.744 101.066 556.02 100.923 555.42 100.636C554.833 100.336 554.342 99.9333 553.946 99.4283C553.563 98.9096 553.284 98.3158 553.106 97.647C552.929 96.9782 552.84 96.2616 552.84 95.4973C552.84 94.7875 552.949 94.1119 553.168 93.4704C553.386 92.8289 553.7 92.2692 554.109 91.7915C554.519 91.3001 555.017 90.9111 555.604 90.6245C556.205 90.3379 556.88 90.1946 557.631 90.1946C558.3 90.1946 558.914 90.3379 559.474 90.6245C560.033 90.8975 560.463 91.3343 560.763 91.9348H560.804V90.4812H563.138V100.513ZM557.959 99.2235C558.477 99.2235 558.914 99.1211 559.269 98.9164C559.637 98.698 559.931 98.4182 560.149 98.077C560.381 97.7221 560.545 97.3263 560.641 96.8895C560.75 96.4391 560.804 95.9887 560.804 95.5382C560.804 95.0878 560.75 94.651 560.641 94.2279C560.531 93.8048 560.361 93.4294 560.129 93.1018C559.91 92.7743 559.617 92.5149 559.248 92.3238C558.894 92.1327 558.464 92.0372 557.959 92.0372C557.44 92.0372 557.003 92.1464 556.648 92.3648C556.293 92.5832 556.007 92.8698 555.788 93.2247C555.57 93.5659 555.413 93.9617 555.317 94.4122C555.222 94.8489 555.174 95.2857 555.174 95.7225C555.174 96.1593 555.229 96.5892 555.338 97.0123C555.447 97.4218 555.611 97.7903 555.829 98.1179C556.061 98.4455 556.348 98.7117 556.689 98.9164C557.044 99.1211 557.467 99.2235 557.959 99.2235ZM565.488 90.4812H567.699V92.0372L567.74 92.0782C568.095 91.4912 568.559 91.034 569.133 90.7064C569.706 90.3652 570.341 90.1946 571.037 90.1946C572.197 90.1946 573.111 90.4948 573.78 91.0954C574.449 91.696 574.783 92.5968 574.783 93.798V101.066H572.449V94.4122C572.422 93.5796 572.245 92.979 571.917 92.6105C571.589 92.2283 571.078 92.0372 570.382 92.0372C569.986 92.0372 569.631 92.1123 569.317 92.2624C569.003 92.3989 568.737 92.5968 568.518 92.8562C568.3 93.1018 568.129 93.3953 568.007 93.7365C567.884 94.0778 567.822 94.4395 567.822 94.8216V101.066H565.488V90.4812ZM577.429 98.3022H580.275V101.066C580.261 101.912 580.002 102.622 579.497 103.195C578.992 103.769 578.33 104.137 577.511 104.301V103.052C577.961 102.943 578.296 102.69 578.514 102.295C578.746 101.912 578.855 101.503 578.842 101.066H577.429V98.3022ZM588.805 86.4478H591.364V94.965C591.364 95.4563 591.385 95.9545 591.426 96.4596C591.48 96.9646 591.617 97.4218 591.835 97.8313C592.067 98.2271 592.408 98.5547 592.859 98.814C593.323 99.0734 593.971 99.203 594.804 99.203C595.637 99.203 596.278 99.0734 596.728 98.814C597.193 98.5547 597.534 98.2271 597.752 97.8313C597.984 97.4218 598.121 96.9646 598.162 96.4596C598.216 95.9545 598.244 95.4563 598.244 94.965V86.4478H600.803V95.8044C600.803 96.7462 600.659 97.5651 600.373 98.2612C600.086 98.9574 599.677 99.5443 599.144 100.022C598.626 100.486 597.998 100.834 597.261 101.066C596.524 101.298 595.705 101.414 594.804 101.414C593.903 101.414 593.084 101.298 592.347 101.066C591.61 100.834 590.975 100.486 590.443 100.022C589.924 99.5443 589.522 98.9574 589.235 98.2612C588.948 97.5651 588.805 96.7462 588.805 95.8044V86.4478ZM602.475 86.4478H605.526L608.842 91.6073L612.302 86.4478H615.169L610.337 93.4908L615.517 101.066H612.405L608.761 95.4768L605.055 101.066H602.127L607.307 93.4908L602.475 86.4478ZM622.719 86.4478H629.7C631.311 86.4478 632.519 86.7959 633.324 87.492C634.129 88.1881 634.532 89.1572 634.532 90.3993C634.532 91.0954 634.43 91.6755 634.225 92.1396C634.02 92.59 633.781 92.9585 633.508 93.2452C633.235 93.5181 632.962 93.7161 632.689 93.8389C632.43 93.9617 632.239 94.0436 632.116 94.0846V94.1255C632.335 94.1528 632.567 94.2211 632.812 94.3303C633.072 94.4395 633.311 94.6169 633.529 94.8626C633.747 95.0946 633.925 95.4017 634.061 95.7839C634.211 96.1661 634.286 96.6438 634.286 97.2171C634.286 98.077 634.348 98.8618 634.471 99.5716C634.607 100.268 634.812 100.766 635.085 101.066H632.341C632.15 100.752 632.034 100.404 631.993 100.022C631.966 99.6398 631.952 99.2713 631.952 98.9164C631.952 98.2476 631.911 97.6743 631.83 97.1966C631.748 96.7052 631.598 96.3026 631.379 95.9887C631.161 95.6611 630.86 95.4222 630.478 95.2721C630.11 95.1219 629.632 95.0469 629.045 95.0469H625.278V101.066H622.719V86.4478ZM625.278 93.1018H629.475C630.294 93.1018 630.915 92.9108 631.338 92.5286C631.761 92.1327 631.973 91.5458 631.973 90.7678C631.973 90.3038 631.905 89.9284 631.768 89.6418C631.632 89.3415 631.441 89.1094 631.195 88.9457C630.963 88.7819 630.69 88.6727 630.376 88.6181C630.076 88.5635 629.762 88.5362 629.434 88.5362H625.278V93.1018ZM644.075 94.8421C644.048 94.4736 643.966 94.1187 643.829 93.7775C643.706 93.4362 643.529 93.1428 643.297 92.8971C643.079 92.6378 642.806 92.433 642.478 92.2829C642.164 92.1191 641.809 92.0372 641.413 92.0372C641.004 92.0372 640.629 92.1123 640.287 92.2624C639.96 92.3989 639.673 92.5968 639.427 92.8562C639.195 93.1018 639.004 93.3953 638.854 93.7365C638.718 94.0778 638.643 94.4463 638.629 94.8421H644.075ZM638.629 96.3777C638.629 96.7871 638.684 97.183 638.793 97.5651C638.916 97.9473 639.093 98.2817 639.325 98.5684C639.557 98.855 639.851 99.087 640.205 99.2645C640.56 99.4283 640.983 99.5102 641.475 99.5102C642.157 99.5102 642.703 99.3668 643.113 99.0802C643.536 98.7799 643.85 98.3363 644.055 97.7494H646.266C646.143 98.3227 645.931 98.8345 645.631 99.2849C645.331 99.7354 644.969 100.118 644.546 100.431C644.123 100.732 643.645 100.957 643.113 101.107C642.594 101.271 642.048 101.353 641.475 101.353C640.642 101.353 639.905 101.216 639.264 100.943C638.622 100.67 638.076 100.288 637.626 99.7968C637.189 99.3054 636.855 98.7185 636.623 98.036C636.404 97.3536 636.295 96.6029 636.295 95.7839C636.295 95.0332 636.411 94.3234 636.643 93.6546C636.889 92.9722 637.23 92.3784 637.667 91.8734C638.117 91.3547 638.656 90.9453 639.284 90.645C639.912 90.3447 640.622 90.1946 641.413 90.1946C642.246 90.1946 642.99 90.372 643.645 90.7269C644.314 91.0681 644.867 91.5254 645.303 92.0986C645.74 92.6719 646.054 93.3339 646.245 94.0846C646.45 94.8216 646.505 95.586 646.409 96.3777H638.629ZM649.944 97.6675C650.012 98.35 650.272 98.8277 650.722 99.1007C651.173 99.3737 651.712 99.5102 652.34 99.5102C652.558 99.5102 652.804 99.4965 653.077 99.4692C653.363 99.4283 653.629 99.36 653.875 99.2645C654.121 99.1689 654.319 99.0324 654.469 98.855C654.633 98.6639 654.708 98.4182 654.694 98.1179C654.68 97.8176 654.571 97.572 654.366 97.3809C654.162 97.1898 653.896 97.0396 653.568 96.9304C653.254 96.8076 652.892 96.7052 652.483 96.6233C652.073 96.5414 651.657 96.4527 651.234 96.3572C650.797 96.2616 650.374 96.1456 649.965 96.0091C649.569 95.8726 649.207 95.6884 648.879 95.4563C648.566 95.2243 648.313 94.9308 648.122 94.576C647.931 94.2074 647.835 93.757 647.835 93.2247C647.835 92.6514 647.972 92.1737 648.245 91.7915C648.531 91.3957 648.886 91.0818 649.309 90.8497C649.746 90.604 650.224 90.4334 650.743 90.3379C651.275 90.2423 651.78 90.1946 652.258 90.1946C652.804 90.1946 653.322 90.256 653.814 90.3788C654.319 90.488 654.769 90.6723 655.165 90.9316C655.574 91.191 655.909 91.5322 656.168 91.9553C656.441 92.3648 656.612 92.863 656.68 93.4499H654.244C654.134 92.8903 653.875 92.5149 653.466 92.3238C653.07 92.1327 652.613 92.0372 652.094 92.0372C651.93 92.0372 651.732 92.0509 651.5 92.0782C651.282 92.1054 651.07 92.16 650.865 92.2419C650.674 92.3102 650.511 92.4194 650.374 92.5695C650.238 92.706 650.169 92.8903 650.169 93.1223C650.169 93.4089 650.265 93.641 650.456 93.8184C650.661 93.9959 650.92 94.146 651.234 94.2689C651.562 94.378 651.93 94.4736 652.34 94.5555C652.749 94.6374 653.172 94.7261 653.609 94.8216C654.032 94.9172 654.448 95.0332 654.858 95.1697C655.267 95.3062 655.629 95.4905 655.943 95.7225C656.271 95.9545 656.53 96.248 656.721 96.6029C656.926 96.9577 657.028 97.3945 657.028 97.9132C657.028 98.5411 656.885 99.0734 656.598 99.5102C656.311 99.9469 655.936 100.302 655.472 100.575C655.022 100.848 654.517 101.046 653.957 101.169C653.397 101.291 652.845 101.353 652.299 101.353C651.63 101.353 651.009 101.278 650.435 101.128C649.876 100.977 649.384 100.752 648.961 100.452C648.552 100.138 648.224 99.7558 647.979 99.3054C647.747 98.8413 647.624 98.2954 647.61 97.6675H649.944ZM666.068 94.8421C666.041 94.4736 665.959 94.1187 665.823 93.7775C665.7 93.4362 665.522 93.1428 665.29 92.8971C665.072 92.6378 664.799 92.433 664.471 92.2829C664.157 92.1191 663.803 92.0372 663.407 92.0372C662.997 92.0372 662.622 92.1123 662.281 92.2624C661.953 92.3989 661.666 92.5968 661.421 92.8562C661.189 93.1018 660.998 93.3953 660.848 93.7365C660.711 94.0778 660.636 94.4463 660.622 94.8421H666.068ZM660.622 96.3777C660.622 96.7871 660.677 97.183 660.786 97.5651C660.909 97.9473 661.086 98.2817 661.318 98.5684C661.55 98.855 661.844 99.087 662.199 99.2645C662.554 99.4283 662.977 99.5102 663.468 99.5102C664.151 99.5102 664.697 99.3668 665.106 99.0802C665.529 98.7799 665.843 98.3363 666.048 97.7494H668.259C668.136 98.3227 667.925 98.8345 667.624 99.2849C667.324 99.7354 666.962 100.118 666.539 100.431C666.116 100.732 665.638 100.957 665.106 101.107C664.587 101.271 664.041 101.353 663.468 101.353C662.636 101.353 661.899 101.216 661.257 100.943C660.616 100.67 660.07 100.288 659.619 99.7968C659.182 99.3054 658.848 98.7185 658.616 98.036C658.398 97.3536 658.288 96.6029 658.288 95.7839C658.288 95.0332 658.404 94.3234 658.636 93.6546C658.882 92.9722 659.223 92.3784 659.66 91.8734C660.11 91.3547 660.65 90.9453 661.277 90.645C661.905 90.3447 662.615 90.1946 663.407 90.1946C664.239 90.1946 664.983 90.372 665.638 90.7269C666.307 91.0681 666.86 91.5254 667.297 92.0986C667.734 92.6719 668.048 93.3339 668.239 94.0846C668.443 94.8216 668.498 95.586 668.402 96.3777H660.622ZM679.042 98.7117C679.042 98.9983 679.076 99.203 679.144 99.3259C679.226 99.4487 679.376 99.5102 679.595 99.5102C679.663 99.5102 679.745 99.5102 679.84 99.5102C679.936 99.5102 680.045 99.4965 680.168 99.4692V101.087C680.086 101.114 679.977 101.141 679.84 101.169C679.718 101.209 679.588 101.244 679.451 101.271C679.315 101.298 679.178 101.319 679.042 101.332C678.905 101.346 678.789 101.353 678.694 101.353C678.216 101.353 677.82 101.257 677.506 101.066C677.192 100.875 676.988 100.541 676.892 100.063C676.428 100.513 675.855 100.841 675.172 101.046C674.504 101.25 673.855 101.353 673.227 101.353C672.75 101.353 672.292 101.285 671.856 101.148C671.419 101.025 671.03 100.841 670.689 100.595C670.361 100.336 670.095 100.015 669.89 99.633C669.699 99.2372 669.603 98.7799 669.603 98.2612C669.603 97.6061 669.719 97.0738 669.952 96.6643C670.197 96.2548 670.511 95.9341 670.893 95.702C671.289 95.47 671.726 95.3062 672.204 95.2106C672.695 95.1015 673.186 95.0196 673.678 94.965C674.101 94.8831 674.504 94.8285 674.886 94.8012C675.268 94.7602 675.602 94.6988 675.889 94.6169C676.189 94.535 676.421 94.4122 676.585 94.2484C676.762 94.0709 676.851 93.8116 676.851 93.4704C676.851 93.1701 676.776 92.9244 676.626 92.7333C676.489 92.5422 676.312 92.3989 676.094 92.3034C675.889 92.1942 675.657 92.1259 675.398 92.0986C675.138 92.0577 674.893 92.0372 674.66 92.0372C674.005 92.0372 673.466 92.1737 673.043 92.4467C672.62 92.7197 672.381 93.1428 672.326 93.7161H669.992C670.033 93.0336 670.197 92.4672 670.484 92.0167C670.77 91.5663 671.132 91.2046 671.569 90.9316C672.019 90.6586 672.524 90.4675 673.084 90.3583C673.644 90.2492 674.217 90.1946 674.804 90.1946C675.322 90.1946 675.834 90.2492 676.339 90.3583C676.844 90.4675 677.295 90.645 677.691 90.8907C678.1 91.1364 678.428 91.4571 678.673 91.8529C678.919 92.2351 679.042 92.706 679.042 93.2656V98.7117ZM676.708 95.7634C676.353 95.9955 675.916 96.1388 675.398 96.1934C674.879 96.2343 674.36 96.3026 673.842 96.3981C673.596 96.4391 673.357 96.5005 673.125 96.5824C672.893 96.6506 672.688 96.753 672.511 96.8895C672.333 97.0123 672.19 97.183 672.081 97.4013C671.985 97.6061 671.937 97.8586 671.937 98.1589C671.937 98.4182 672.013 98.6366 672.163 98.814C672.313 98.9915 672.49 99.1348 672.695 99.244C672.913 99.3395 673.145 99.4078 673.391 99.4487C673.65 99.4897 673.882 99.5102 674.087 99.5102C674.347 99.5102 674.626 99.476 674.927 99.4078C675.227 99.3395 675.507 99.2235 675.766 99.0597C676.039 98.8959 676.264 98.6912 676.442 98.4455C676.619 98.1862 676.708 97.8722 676.708 97.5037V95.7634ZM681.553 90.4812H683.744V92.5286H683.785C683.853 92.2419 683.983 91.9621 684.174 91.6891C684.379 91.4162 684.618 91.1705 684.891 90.9521C685.177 90.7201 685.491 90.5358 685.832 90.3993C686.174 90.2628 686.522 90.1946 686.876 90.1946C687.149 90.1946 687.334 90.2014 687.429 90.215C687.538 90.2287 687.648 90.2423 687.757 90.256V92.5081C687.593 92.4808 687.422 92.4603 687.245 92.4467C687.081 92.4194 686.917 92.4057 686.754 92.4057C686.358 92.4057 685.982 92.4876 685.628 92.6514C685.286 92.8016 684.986 93.0336 684.727 93.3475C684.467 93.6478 684.263 94.0232 684.113 94.4736C683.962 94.924 683.887 95.4427 683.887 96.0296V101.066H681.553V90.4812ZM695.537 94.0232C695.441 93.368 695.175 92.8766 694.738 92.549C694.315 92.2078 693.776 92.0372 693.121 92.0372C692.82 92.0372 692.5 92.0918 692.158 92.201C691.817 92.2965 691.503 92.4876 691.217 92.7743C690.93 93.0472 690.691 93.4362 690.5 93.9413C690.309 94.4326 690.213 95.081 690.213 95.8863C690.213 96.3231 690.261 96.7598 690.357 97.1966C690.466 97.6334 690.63 98.0224 690.848 98.3636C691.08 98.7048 691.374 98.9847 691.728 99.203C692.083 99.4078 692.513 99.5102 693.018 99.5102C693.701 99.5102 694.26 99.2986 694.697 98.8755C695.148 98.4523 695.427 97.8586 695.537 97.0942H697.871C697.652 98.4728 697.127 99.5306 696.294 100.268C695.475 100.991 694.383 101.353 693.018 101.353C692.186 101.353 691.449 101.216 690.807 100.943C690.179 100.657 689.647 100.275 689.21 99.7968C688.773 99.3054 688.439 98.7253 688.207 98.0565C687.989 97.3877 687.879 96.6643 687.879 95.8863C687.879 95.0946 687.989 94.3507 688.207 93.6546C688.425 92.9585 688.753 92.358 689.19 91.8529C689.626 91.3343 690.166 90.9316 690.807 90.645C691.462 90.3447 692.227 90.1946 693.1 90.1946C693.714 90.1946 694.295 90.2765 694.84 90.4402C695.4 90.5904 695.891 90.8224 696.315 91.1364C696.751 91.4503 697.106 91.8461 697.379 92.3238C697.652 92.8016 697.816 93.368 697.871 94.0232H695.537ZM699.768 86.4478H702.102V91.8734H702.143C702.429 91.3957 702.853 90.9999 703.412 90.6859C703.985 90.3583 704.62 90.1946 705.316 90.1946C706.476 90.1946 707.391 90.4948 708.06 91.0954C708.729 91.696 709.063 92.5968 709.063 93.798V101.066H706.729V94.4122C706.702 93.5796 706.524 92.979 706.197 92.6105C705.869 92.2283 705.357 92.0372 704.661 92.0372C704.265 92.0372 703.91 92.1123 703.596 92.2624C703.282 92.3989 703.016 92.5968 702.798 92.8562C702.58 93.1018 702.409 93.3953 702.286 93.7365C702.163 94.0778 702.102 94.4395 702.102 94.8216V101.066H699.768V86.4478Z" fill="#E1F8E6"/>
<path d="M752.201 54.9478V94.9478" stroke="#E1F8E6"/>
<path d="M854.295 71.9478L857.717 59.1567H856.015L853.417 69.798H853.381L850.551 59.1567H848.706L845.839 69.798H845.804L843.295 59.1567H841.558L844.836 71.9478H846.61L849.566 61.199H849.601L852.521 71.9478H854.295ZM864.491 66.4301H859.17C859.194 66.0718 859.272 65.7374 859.403 65.4268C859.535 65.1044 859.714 64.8237 859.941 64.5849C860.168 64.346 860.436 64.1609 860.747 64.0295C861.069 63.8862 861.428 63.8145 861.822 63.8145C862.204 63.8145 862.55 63.8862 862.861 64.0295C863.183 64.1609 863.458 64.346 863.685 64.5849C863.924 64.8118 864.109 65.0865 864.24 65.4089C864.383 65.7314 864.467 66.0718 864.491 66.4301ZM865.96 69.0098H864.455C864.324 69.6189 864.049 70.0727 863.631 70.3713C863.225 70.6698 862.699 70.8191 862.055 70.8191C861.553 70.8191 861.117 70.7355 860.747 70.5683C860.377 70.4011 860.072 70.1802 859.833 69.9055C859.594 69.6189 859.421 69.2964 859.314 68.9381C859.206 68.5679 859.158 68.1797 859.17 67.7737H866.103C866.127 67.2123 866.073 66.6211 865.942 66.0001C865.823 65.3791 865.596 64.8058 865.261 64.2803C864.939 63.7548 864.503 63.3249 863.954 62.9905C863.416 62.6441 862.735 62.4709 861.911 62.4709C861.278 62.4709 860.693 62.5904 860.156 62.8292C859.63 63.0681 859.17 63.4025 858.776 63.8324C858.394 64.2624 858.095 64.77 857.88 65.3552C857.665 65.9404 857.558 66.5853 857.558 67.29C857.582 67.9946 857.683 68.6455 857.863 69.2426C858.054 69.8398 858.334 70.3534 858.705 70.7833C859.075 71.2133 859.529 71.5477 860.066 71.7865C860.615 72.0254 861.26 72.1448 862.001 72.1448C863.052 72.1448 863.924 71.8821 864.616 71.3566C865.309 70.8311 865.757 70.0488 865.96 69.0098ZM867.735 59.1567V71.9478H869.258V70.7116H869.294C869.461 70.9863 869.664 71.2192 869.903 71.4103C870.154 71.5895 870.417 71.7328 870.691 71.8403C870.966 71.9478 871.241 72.0254 871.515 72.0732C871.802 72.1209 872.059 72.1448 872.286 72.1448C872.99 72.1448 873.605 72.0194 874.131 71.7686C874.668 71.5178 875.11 71.1774 875.457 70.7475C875.815 70.3056 876.078 69.792 876.245 69.2068C876.424 68.6216 876.514 68.0006 876.514 67.3437C876.514 66.6868 876.424 66.0658 876.245 65.4806C876.066 64.8954 875.797 64.3818 875.439 63.9399C875.092 63.4861 874.65 63.1278 874.113 62.8651C873.588 62.6023 872.967 62.4709 872.25 62.4709C871.605 62.4709 871.014 62.5904 870.476 62.8292C869.939 63.0561 869.545 63.4264 869.294 63.9399H869.258V59.1567H867.735ZM874.901 67.2362C874.901 67.6901 874.854 68.1319 874.758 68.5619C874.662 68.9918 874.507 69.374 874.292 69.7084C874.077 70.0428 873.791 70.3116 873.432 70.5146C873.086 70.7176 872.65 70.8191 872.125 70.8191C871.599 70.8191 871.151 70.7236 870.781 70.5325C870.411 70.3295 870.106 70.0667 869.867 69.7443C869.64 69.4218 869.473 69.0516 869.366 68.6336C869.258 68.2036 869.204 67.7617 869.204 67.3079C869.204 66.8779 869.252 66.4539 869.348 66.0359C869.455 65.6179 869.622 65.2477 869.849 64.9252C870.076 64.5908 870.369 64.3221 870.727 64.1191C871.085 63.916 871.521 63.8145 872.035 63.8145C872.525 63.8145 872.949 63.9101 873.307 64.1012C873.677 64.2922 873.976 64.549 874.203 64.8715C874.441 65.1939 874.615 65.5642 874.722 65.9822C874.842 66.3883 874.901 66.8063 874.901 67.2362ZM879.233 69.0277H877.71C877.734 69.6009 877.853 70.0906 878.068 70.4967C878.283 70.8908 878.57 71.2133 878.928 71.4641C879.286 71.7029 879.698 71.8761 880.164 71.9836C880.63 72.0911 881.12 72.1448 881.633 72.1448C882.099 72.1448 882.565 72.097 883.03 72.0015C883.508 71.9179 883.932 71.7626 884.302 71.5357C884.685 71.3088 884.989 71.0102 885.216 70.64C885.455 70.2698 885.574 69.804 885.574 69.2426C885.574 68.8008 885.485 68.4305 885.306 68.1319C885.138 67.8334 884.912 67.5885 884.625 67.3974C884.35 67.1944 884.028 67.0332 883.657 66.9138C883.299 66.7943 882.929 66.6928 882.547 66.6092C882.188 66.5256 881.83 66.448 881.472 66.3763C881.114 66.2927 880.791 66.1972 880.505 66.0897C880.218 65.9702 879.979 65.8269 879.788 65.6597C879.609 65.4806 879.519 65.2596 879.519 64.9969C879.519 64.758 879.579 64.5669 879.698 64.4236C879.818 64.2684 879.973 64.1489 880.164 64.0653C880.355 63.9698 880.564 63.9041 880.791 63.8683C881.03 63.8324 881.263 63.8145 881.49 63.8145C881.741 63.8145 881.985 63.8444 882.224 63.9041C882.475 63.9519 882.702 64.0355 882.905 64.1549C883.108 64.2743 883.275 64.4356 883.407 64.6386C883.538 64.8297 883.616 65.0745 883.64 65.3731H885.162C885.126 64.8118 885.007 64.346 884.804 63.9758C884.601 63.5936 884.326 63.295 883.98 63.08C883.646 62.8531 883.257 62.6978 882.815 62.6142C882.374 62.5187 881.89 62.4709 881.364 62.4709C880.958 62.4709 880.546 62.5247 880.128 62.6322C879.722 62.7277 879.352 62.883 879.018 63.0979C878.695 63.301 878.426 63.5697 878.211 63.9041C878.008 64.2385 877.907 64.6386 877.907 65.1044C877.907 65.7015 878.056 66.1673 878.355 66.5017C878.653 66.8361 879.024 67.0989 879.465 67.29C879.919 67.4691 880.409 67.6124 880.934 67.7199C881.46 67.8155 881.944 67.9289 882.386 68.0603C882.839 68.1797 883.216 68.3409 883.514 68.544C883.813 68.747 883.962 69.0456 883.962 69.4397C883.962 69.7263 883.89 69.9652 883.747 70.1563C883.604 70.3354 883.419 70.4728 883.192 70.5683C882.977 70.6639 882.738 70.7296 882.475 70.7654C882.212 70.8012 881.962 70.8191 881.723 70.8191C881.412 70.8191 881.108 70.7893 880.809 70.7296C880.522 70.6698 880.26 70.5743 880.021 70.4429C879.794 70.2996 879.609 70.1145 879.465 69.8876C879.322 69.6487 879.245 69.3621 879.233 69.0277ZM888.871 61.0198V59.1567H887.348V61.0198H888.871ZM887.348 62.6859V71.9478H888.871V62.6859H887.348ZM893.344 62.6859V59.9091H891.821V62.6859H890.244V64.0295H891.821V69.9234C891.821 70.3534 891.863 70.6997 891.946 70.9625C892.03 71.2252 892.155 71.4282 892.322 71.5715C892.502 71.7149 892.728 71.8164 893.003 71.8761C893.29 71.9239 893.63 71.9478 894.024 71.9478H895.189V70.6042H894.49C894.251 70.6042 894.054 70.5982 893.899 70.5862C893.756 70.5624 893.642 70.5206 893.559 70.4608C893.475 70.4011 893.415 70.3175 893.379 70.21C893.355 70.1025 893.344 69.9592 893.344 69.7801V64.0295H895.189V62.6859H893.344ZM903.312 66.4301H897.991C898.015 66.0718 898.093 65.7374 898.224 65.4268C898.355 65.1044 898.535 64.8237 898.761 64.5849C898.988 64.346 899.257 64.1609 899.568 64.0295C899.89 63.8862 900.248 63.8145 900.642 63.8145C901.025 63.8145 901.371 63.8862 901.682 64.0295C902.004 64.1609 902.279 64.346 902.506 64.5849C902.744 64.8118 902.93 65.0865 903.061 65.4089C903.204 65.7314 903.288 66.0718 903.312 66.4301ZM904.781 69.0098H903.276C903.145 69.6189 902.87 70.0727 902.452 70.3713C902.046 70.6698 901.52 70.8191 900.875 70.8191C900.374 70.8191 899.938 70.7355 899.568 70.5683C899.197 70.4011 898.893 70.1802 898.654 69.9055C898.415 69.6189 898.242 69.2964 898.134 68.9381C898.027 68.5679 897.979 68.1797 897.991 67.7737H904.924C904.948 67.2123 904.894 66.6211 904.763 66.0001C904.643 65.3791 904.416 64.8058 904.082 64.2803C903.76 63.7548 903.324 63.3249 902.774 62.9905C902.237 62.6441 901.556 62.4709 900.732 62.4709C900.099 62.4709 899.514 62.5904 898.976 62.8292C898.451 63.0681 897.991 63.4025 897.597 63.8324C897.215 64.2624 896.916 64.77 896.701 65.3552C896.486 65.9404 896.379 66.5853 896.379 67.29C896.403 67.9946 896.504 68.6455 896.683 69.2426C896.874 69.8398 897.155 70.3534 897.525 70.7833C897.896 71.2133 898.349 71.5477 898.887 71.7865C899.436 72.0254 900.081 72.1448 900.822 72.1448C901.873 72.1448 902.744 71.8821 903.437 71.3566C904.13 70.8311 904.578 70.0488 904.781 69.0098Z" fill="#E1F8E6"/>
<path d="M793.046 86.4478H795.708L799.372 98.0156H799.413L803.16 86.4478H805.76L800.765 101.066H797.919L793.046 86.4478ZM807.154 86.4478H809.488V88.659H807.154V86.4478ZM807.154 90.4812H809.488V101.066H807.154V90.4812ZM813.792 97.6675C813.861 98.35 814.12 98.8277 814.57 99.1007C815.021 99.3737 815.56 99.5102 816.188 99.5102C816.406 99.5102 816.652 99.4965 816.925 99.4692C817.211 99.4283 817.478 99.36 817.723 99.2645C817.969 99.1689 818.167 99.0324 818.317 98.855C818.481 98.6639 818.556 98.4182 818.542 98.1179C818.529 97.8176 818.419 97.572 818.215 97.3809C818.01 97.1898 817.744 97.0396 817.416 96.9304C817.102 96.8076 816.741 96.7052 816.331 96.6233C815.922 96.5414 815.505 96.4527 815.082 96.3572C814.645 96.2616 814.222 96.1456 813.813 96.0091C813.417 95.8726 813.055 95.6884 812.728 95.4563C812.414 95.2243 812.161 94.9308 811.97 94.576C811.779 94.2074 811.683 93.757 811.683 93.2247C811.683 92.6514 811.82 92.1737 812.093 91.7915C812.38 91.3957 812.734 91.0818 813.158 90.8497C813.594 90.604 814.072 90.4334 814.591 90.3379C815.123 90.2423 815.628 90.1946 816.106 90.1946C816.652 90.1946 817.17 90.256 817.662 90.3788C818.167 90.488 818.617 90.6723 819.013 90.9316C819.423 91.191 819.757 91.5322 820.016 91.9553C820.289 92.3648 820.46 92.863 820.528 93.4499H818.092C817.983 92.8903 817.723 92.5149 817.314 92.3238C816.918 92.1327 816.461 92.0372 815.942 92.0372C815.778 92.0372 815.58 92.0509 815.348 92.0782C815.13 92.1054 814.918 92.16 814.714 92.2419C814.523 92.3102 814.359 92.4194 814.222 92.5695C814.086 92.706 814.018 92.8903 814.018 93.1223C814.018 93.4089 814.113 93.641 814.304 93.8184C814.509 93.9959 814.768 94.146 815.082 94.2689C815.41 94.378 815.778 94.4736 816.188 94.5555C816.597 94.6374 817.02 94.7261 817.457 94.8216C817.88 94.9172 818.297 95.0332 818.706 95.1697C819.115 95.3062 819.477 95.4905 819.791 95.7225C820.119 95.9545 820.378 96.248 820.569 96.6029C820.774 96.9577 820.876 97.3945 820.876 97.9132C820.876 98.5411 820.733 99.0734 820.446 99.5102C820.16 99.9469 819.784 100.302 819.32 100.575C818.87 100.848 818.365 101.046 817.805 101.169C817.246 101.291 816.693 101.353 816.147 101.353C815.478 101.353 814.857 101.278 814.284 101.128C813.724 100.977 813.233 100.752 812.81 100.452C812.4 100.138 812.072 99.7558 811.827 99.3054C811.595 98.8413 811.472 98.2954 811.458 97.6675H813.792ZM822.71 86.4478H825.044V88.659H822.71V86.4478ZM822.71 90.4812H825.044V101.066H822.71V90.4812ZM826.522 90.4812H828.283V87.3077H830.617V90.4812H832.726V92.2215H830.617V97.8722C830.617 98.1179 830.624 98.3295 830.637 98.5069C830.665 98.6844 830.713 98.8345 830.781 98.9574C830.863 99.0802 830.979 99.1757 831.129 99.244C831.279 99.2986 831.484 99.3259 831.743 99.3259C831.907 99.3259 832.071 99.3259 832.234 99.3259C832.398 99.3122 832.562 99.2849 832.726 99.244V101.046C832.466 101.073 832.214 101.1 831.968 101.128C831.723 101.155 831.47 101.169 831.211 101.169C830.597 101.169 830.098 101.114 829.716 101.005C829.348 100.882 829.054 100.711 828.836 100.493C828.631 100.261 828.488 99.9742 828.406 99.633C828.338 99.2918 828.297 98.9028 828.283 98.466V92.2215H826.522V90.4812ZM838.997 86.4478H841.598L844.239 97.6266H844.28L847.228 86.4478H849.849L852.715 97.6266H852.756L855.479 86.4478H858.079L854.046 101.066H851.446L848.518 89.8875H848.477L845.488 101.066H842.847L838.997 86.4478ZM866.346 94.8421C866.318 94.4736 866.236 94.1187 866.1 93.7775C865.977 93.4362 865.8 93.1428 865.568 92.8971C865.349 92.6378 865.076 92.433 864.749 92.2829C864.435 92.1191 864.08 92.0372 863.684 92.0372C863.275 92.0372 862.899 92.1123 862.558 92.2624C862.23 92.3989 861.944 92.5968 861.698 92.8562C861.466 93.1018 861.275 93.3953 861.125 93.7365C860.988 94.0778 860.913 94.4463 860.9 94.8421H866.346ZM860.9 96.3777C860.9 96.7871 860.954 97.183 861.063 97.5651C861.186 97.9473 861.364 98.2817 861.596 98.5684C861.828 98.855 862.121 99.087 862.476 99.2645C862.831 99.4283 863.254 99.5102 863.745 99.5102C864.428 99.5102 864.974 99.3668 865.383 99.0802C865.806 98.7799 866.12 98.3363 866.325 97.7494H868.536C868.413 98.3227 868.202 98.8345 867.902 99.2849C867.601 99.7354 867.24 100.118 866.816 100.431C866.393 100.732 865.916 100.957 865.383 101.107C864.865 101.271 864.319 101.353 863.745 101.353C862.913 101.353 862.176 101.216 861.534 100.943C860.893 100.67 860.347 100.288 859.896 99.7968C859.46 99.3054 859.125 98.7185 858.893 98.036C858.675 97.3536 858.566 96.6029 858.566 95.7839C858.566 95.0332 858.682 94.3234 858.914 93.6546C859.159 92.9722 859.5 92.3784 859.937 91.8734C860.388 91.3547 860.927 90.9453 861.555 90.645C862.183 90.3447 862.892 90.1946 863.684 90.1946C864.517 90.1946 865.26 90.372 865.916 90.7269C866.584 91.0681 867.137 91.5254 867.574 92.0986C868.011 92.6719 868.325 93.3339 868.516 94.0846C868.721 94.8216 868.775 95.586 868.68 96.3777H860.9ZM870.515 86.4478H872.849V91.8529H872.89C873.054 91.5936 873.252 91.3616 873.484 91.1568C873.716 90.9521 873.969 90.7815 874.242 90.645C874.528 90.4948 874.822 90.3856 875.122 90.3174C875.436 90.2355 875.743 90.1946 876.043 90.1946C876.876 90.1946 877.599 90.3447 878.214 90.645C878.841 90.9316 879.36 91.3343 879.77 91.8529C880.179 92.358 880.486 92.9517 880.691 93.6342C880.896 94.3166 880.998 95.0469 880.998 95.8249C880.998 96.5346 880.902 97.2239 880.711 97.8927C880.534 98.5615 880.254 99.1553 879.872 99.6739C879.503 100.179 879.032 100.588 878.459 100.902C877.886 101.203 877.21 101.353 876.432 101.353C876.077 101.353 875.716 101.325 875.347 101.271C874.992 101.23 874.651 101.141 874.323 101.005C873.996 100.868 873.696 100.691 873.423 100.472C873.163 100.254 872.945 99.9674 872.767 99.6125H872.727V101.066H870.515V86.4478ZM878.664 95.7839C878.664 95.3062 878.603 94.8421 878.48 94.3917C878.357 93.9413 878.173 93.5454 877.927 93.2042C877.681 92.8493 877.374 92.5695 877.006 92.3648C876.637 92.1464 876.214 92.0372 875.736 92.0372C874.753 92.0372 874.01 92.3784 873.505 93.0609C873.013 93.7434 872.767 94.651 872.767 95.7839C872.767 96.3162 872.829 96.8144 872.952 97.2785C873.088 97.7289 873.286 98.1179 873.545 98.4455C873.805 98.7731 874.112 99.0324 874.467 99.2235C874.835 99.4146 875.258 99.5102 875.736 99.5102C876.269 99.5102 876.719 99.401 877.087 99.1826C877.456 98.9642 877.756 98.6844 877.988 98.3431C878.234 97.9883 878.405 97.5924 878.5 97.1557C878.609 96.7052 878.664 96.248 878.664 95.7839ZM884.731 97.6675C884.799 98.35 885.058 98.8277 885.509 99.1007C885.959 99.3737 886.498 99.5102 887.126 99.5102C887.345 99.5102 887.59 99.4965 887.863 99.4692C888.15 99.4283 888.416 99.36 888.662 99.2645C888.908 99.1689 889.105 99.0324 889.256 98.855C889.419 98.6639 889.494 98.4182 889.481 98.1179C889.467 97.8176 889.358 97.572 889.153 97.3809C888.949 97.1898 888.682 97.0396 888.355 96.9304C888.041 96.8076 887.679 96.7052 887.27 96.6233C886.86 96.5414 886.444 96.4527 886.021 96.3572C885.584 96.2616 885.161 96.1456 884.751 96.0091C884.356 95.8726 883.994 95.6884 883.666 95.4563C883.352 95.2243 883.1 94.9308 882.909 94.576C882.718 94.2074 882.622 93.757 882.622 93.2247C882.622 92.6514 882.759 92.1737 883.032 91.7915C883.318 91.3957 883.673 91.0818 884.096 90.8497C884.533 90.604 885.011 90.4334 885.529 90.3379C886.062 90.2423 886.567 90.1946 887.044 90.1946C887.59 90.1946 888.109 90.256 888.6 90.3788C889.105 90.488 889.556 90.6723 889.952 90.9316C890.361 91.191 890.696 91.5322 890.955 91.9553C891.228 92.3648 891.399 92.863 891.467 93.4499H889.03C888.921 92.8903 888.662 92.5149 888.252 92.3238C887.857 92.1327 887.399 92.0372 886.881 92.0372C886.717 92.0372 886.519 92.0509 886.287 92.0782C886.069 92.1054 885.857 92.16 885.652 92.2419C885.461 92.3102 885.297 92.4194 885.161 92.5695C885.024 92.706 884.956 92.8903 884.956 93.1223C884.956 93.4089 885.052 93.641 885.243 93.8184C885.448 93.9959 885.707 94.146 886.021 94.2689C886.348 94.378 886.717 94.4736 887.126 94.5555C887.536 94.6374 887.959 94.7261 888.396 94.8216C888.819 94.9172 889.235 95.0332 889.645 95.1697C890.054 95.3062 890.416 95.4905 890.73 95.7225C891.057 95.9545 891.317 96.248 891.508 96.6029C891.712 96.9577 891.815 97.3945 891.815 97.9132C891.815 98.5411 891.672 99.0734 891.385 99.5102C891.098 99.9469 890.723 100.302 890.259 100.575C889.808 100.848 889.303 101.046 888.744 101.169C888.184 101.291 887.631 101.353 887.085 101.353C886.417 101.353 885.796 101.278 885.222 101.128C884.663 100.977 884.171 100.752 883.748 100.452C883.339 100.138 883.011 99.7558 882.765 99.3054C882.533 98.8413 882.411 98.2954 882.397 97.6675H884.731ZM893.648 86.4478H895.982V88.659H893.648V86.4478ZM893.648 90.4812H895.982V101.066H893.648V90.4812ZM897.461 90.4812H899.222V87.3077H901.556V90.4812H903.664V92.2215H901.556V97.8722C901.556 98.1179 901.562 98.3295 901.576 98.5069C901.603 98.6844 901.651 98.8345 901.719 98.9574C901.801 99.0802 901.917 99.1757 902.067 99.244C902.218 99.2986 902.422 99.3259 902.682 99.3259C902.845 99.3259 903.009 99.3259 903.173 99.3259C903.337 99.3122 903.501 99.2849 903.664 99.244V101.046C903.405 101.073 903.153 101.1 902.907 101.128C902.661 101.155 902.409 101.169 902.149 101.169C901.535 101.169 901.037 101.114 900.655 101.005C900.286 100.882 899.993 100.711 899.774 100.493C899.57 100.261 899.426 99.9742 899.344 99.633C899.276 99.2918 899.235 98.9028 899.222 98.466V92.2215H897.461V90.4812ZM912.612 94.8421C912.584 94.4736 912.502 94.1187 912.366 93.7775C912.243 93.4362 912.066 93.1428 911.834 92.8971C911.615 92.6378 911.342 92.433 911.015 92.2829C910.701 92.1191 910.346 92.0372 909.95 92.0372C909.541 92.0372 909.165 92.1123 908.824 92.2624C908.496 92.3989 908.21 92.5968 907.964 92.8562C907.732 93.1018 907.541 93.3953 907.391 93.7365C907.254 94.0778 907.179 94.4463 907.166 94.8421H912.612ZM907.166 96.3777C907.166 96.7871 907.22 97.183 907.329 97.5651C907.452 97.9473 907.63 98.2817 907.862 98.5684C908.094 98.855 908.387 99.087 908.742 99.2645C909.097 99.4283 909.52 99.5102 910.011 99.5102C910.694 99.5102 911.24 99.3668 911.649 99.0802C912.072 98.7799 912.386 98.3363 912.591 97.7494H914.802C914.679 98.3227 914.468 98.8345 914.168 99.2849C913.867 99.7354 913.506 100.118 913.083 100.431C912.659 100.732 912.182 100.957 911.649 101.107C911.131 101.271 910.585 101.353 910.011 101.353C909.179 101.353 908.442 101.216 907.8 100.943C907.159 100.67 906.613 100.288 906.162 99.7968C905.726 99.3054 905.391 98.7185 905.159 98.036C904.941 97.3536 904.832 96.6029 904.832 95.7839C904.832 95.0332 904.948 94.3234 905.18 93.6546C905.425 92.9722 905.767 92.3784 906.203 91.8734C906.654 91.3547 907.193 90.9453 907.821 90.645C908.449 90.3447 909.158 90.1946 909.95 90.1946C910.783 90.1946 911.527 90.372 912.182 90.7269C912.85 91.0681 913.403 91.5254 913.84 92.0986C914.277 92.6719 914.591 93.3339 914.782 94.0846C914.987 94.8216 915.041 95.586 914.946 96.3777H907.166Z" fill="#E1F8E6"/>
<path d="M793.148 103.114H915.498V104.137H793.148V103.114Z" fill="#E1F8E6"/>
<g clip-path="url(#clip0_51_35817)">
<path d="M941.101 84.9287V86.8481H936.302V100.284H949.738V95.4855H951.658V101.244C951.658 101.498 951.556 101.742 951.377 101.922C951.197 102.102 950.952 102.204 950.698 102.204H935.343C935.088 102.204 934.844 102.102 934.664 101.922C934.484 101.742 934.383 101.498 934.383 101.244V85.8884C934.383 85.6339 934.484 85.3898 934.664 85.2098C934.844 85.0298 935.088 84.9287 935.343 84.9287H941.101ZM948.381 86.8481H943.98V84.9287H951.658V92.6064H949.738V88.2052L943.02 94.9231L941.663 93.5661L948.381 86.8481Z" fill="#E1F8E6"/>
</g>
<rect x="7.51514" y="7" width="994.97" height="147.014" rx="47.9477" stroke="#133D1C" stroke-opacity="0.2" stroke-width="14"/>
<defs>
<clipPath id="clip0_51_35817">
<rect width="23.0331" height="23.0331" fill="white" transform="translate(931.504 82.0496)"/>
</clipPath>
</defs>
</svg>
