<svg width="381" height="517" viewBox="0 0 381 517" fill="none" xmlns="http://www.w3.org/2000/svg">
<path d="M48.3394 418.829C48.3394 418.829 63.4811 419.06 74.6584 414.039" stroke="#133D1C" stroke-width="2.75304" stroke-miterlimit="10"/>
<path d="M189.185 68.6971C187.824 67.7086 186.344 66.8947 184.78 66.2745C183.122 65.6077 181.332 65.329 179.55 65.4596C177.738 65.6436 176.003 66.2839 174.506 67.3206C173.139 68.2706 171.889 69.3795 170.784 70.6243C170.619 70.7784 172.986 72.8267 173.074 72.6945C174.007 71.626 175.06 70.669 176.213 69.8424C177.281 69.1106 178.515 68.6565 179.803 68.5209C181.117 68.4402 182.433 68.6507 183.657 69.1376C184.966 69.6792 186.207 70.3702 187.357 71.1969C188.099 70.4693 188.717 69.6248 189.185 68.6971Z" fill="#133D1C"/>
<path d="M106.594 129.363L113.498 126.06C115.8 124.958 118.09 123.857 120.348 122.756C122.605 121.655 124.753 120.223 127.065 119.331C129.442 118.352 131.9 117.582 134.41 117.03L134.576 117.316C132.901 119.34 130.885 121.054 128.618 122.381C126.342 123.592 123.947 124.562 121.471 125.278C119.063 126.144 116.633 126.94 114.181 127.667C111.725 128.372 109.281 129.088 106.803 129.705L106.594 129.363Z" fill="#133D1C"/>
<path d="M249.366 22.8316C249.08 22.9637 243.034 19.8473 238.784 20.7833C231.813 22.314 228.102 27.1704 225.426 32.8967C223.102 37.8081 220.922 42.8076 218.455 47.6419C216.682 51.1548 214.92 57.1124 216.253 61.3631C217.74 66.1424 222.078 66.2084 226.032 66.6379C235.744 67.7391 245.149 72.4854 255.676 69.3579C258.231 68.5981 274.915 67.2546 275.157 63.8518C276.302 47.2015 270.014 13.1188 249.366 22.8316ZM256.359 52.256C255.754 52.7626 255.39 54.3153 255.049 55.0421C251.602 65.1953 241.317 69.2148 234.808 60.2288C230.503 54.2823 230.404 47.4327 230.404 40.407C230.404 40.407 241.251 41.1007 247.285 33.3482C247.285 33.3482 252.274 44.1181 256.932 42.8627C257.617 42.6995 258.33 42.6979 259.016 42.8581C259.701 43.0183 260.34 43.3359 260.882 43.7856C261.424 44.2354 261.853 44.8051 262.136 45.4495C262.42 46.094 262.55 46.7956 262.515 47.4988C262.504 51.5733 258.562 50.417 256.359 52.256Z" fill="#133D1C"/>
<path d="M255.864 51.6613C255.713 52.0076 255.66 52.3883 255.71 52.7625C255.71 53.0709 255.71 53.3462 255.776 53.6215C255.847 54.1808 255.847 54.747 255.776 55.3063C255.71 55.8505 255.6 56.3882 255.445 56.9141C255.278 57.4669 255.057 58.0018 254.785 58.5109C253.949 60.3233 252.747 61.9435 251.256 63.27C249.765 64.5964 248.016 65.6005 246.118 66.2194C244.091 66.8062 241.931 66.7446 239.94 66.0432C238.019 65.3088 236.299 64.1317 234.919 62.6074C232.687 60.0866 231.097 57.0645 230.283 53.7977C229.542 50.6357 229.173 47.3984 229.181 44.151V42.301V39.0524C229.952 39.0524 230.734 39.1295 231.483 39.1295H232.221H232.782C233.531 39.0744 234.269 38.9753 234.985 38.8542C236.45 38.5724 237.885 38.1483 239.268 37.5878C240.643 37.069 241.945 36.377 243.145 35.5285L244.026 34.8678L244.819 34.1299L245.028 33.9427H245.083C245.13 33.9015 245.174 33.8574 245.215 33.8106L245.402 33.6014L246.151 32.7534L247.627 30.9805L248.651 33.1829C248.981 33.8436 249.455 34.7026 249.565 34.9008C249.961 35.5836 250.369 36.2553 250.798 36.905C251.609 38.1823 252.574 39.3548 253.672 40.3959C254.149 40.8477 254.696 41.2195 255.291 41.4971C255.53 41.5967 255.782 41.6598 256.04 41.6843C256.157 41.6953 256.275 41.6953 256.392 41.6843L256.91 41.5852C257.913 41.4209 258.941 41.504 259.905 41.8274C260.896 42.1481 261.777 42.7393 262.449 43.5343C263.082 44.2906 263.511 45.1968 263.693 46.1662C263.908 47.1085 263.908 48.0871 263.693 49.0294C263.566 49.59 263.318 50.1162 262.967 50.5711C262.612 51.0181 262.175 51.3921 261.678 51.6723C260.898 52.0572 260.078 52.3563 259.233 52.5643C258.771 52.7075 258.33 52.8947 257.989 52.9938C257.657 53.1273 257.286 53.1273 256.954 52.9938C256.723 52.8506 256.602 52.5533 256.855 52.0577C256.987 51.8705 257.119 51.5512 257.35 51.4631C258.389 51.074 259.388 50.5872 260.335 50.0095C260.67 49.7776 260.939 49.4626 261.117 49.0955C261.256 48.7443 261.334 48.3718 261.348 47.9942C261.393 47.5342 261.367 47.0698 261.271 46.6177C261.193 46.1476 261.02 45.6981 260.764 45.2963C260.512 44.9577 260.196 44.6724 259.833 44.4569C259.47 44.2414 259.068 44.1 258.65 44.0409C258.231 43.9685 257.802 43.9685 257.383 44.0409H257.24L256.954 44.107C256.758 44.1503 256.559 44.1761 256.359 44.184C255.953 44.2107 255.546 44.1811 255.148 44.096C253.784 43.7396 252.538 43.0292 251.536 42.0367C250.117 40.6588 248.901 39.0868 247.924 37.3675L247.439 36.5086L247.208 36.0791C247.147 35.9761 247.092 35.8694 247.043 35.7597C247.049 35.6975 247.049 35.6348 247.043 35.5725C247.043 35.5725 246.977 35.5725 246.922 35.5725L246.592 35.8589L245.931 36.4425C244.646 37.5147 243.228 38.4178 241.713 39.1295C240.238 39.879 238.688 40.4696 237.088 40.8914C236.082 41.13 235.064 41.3102 234.038 41.431C233.487 41.4971 232.936 41.5521 232.309 41.5852H231.604C231.598 41.6695 231.598 41.7541 231.604 41.8385V43.0938C231.604 44.0629 231.604 45.087 231.703 46.1442C231.796 48.3982 232.114 50.6373 232.65 52.8286C233.24 55.1368 234.236 57.3218 235.59 59.2817C236.845 61.1959 238.649 62.6855 240.766 63.5544C242.696 64.2102 244.802 64.1199 246.669 63.3011C248.285 62.5936 249.717 61.5235 250.853 60.1737L251.558 59.3148L252.109 58.4778C252.42 58.0224 252.696 57.5438 252.935 57.0462C253.198 56.5641 253.426 56.0635 253.617 55.5486C253.727 55.2953 253.837 55.053 253.97 54.7998C254.102 54.5465 254.146 54.4694 254.201 54.3593L254.399 53.9518C254.553 53.6545 254.707 53.3351 254.906 52.9607C255.136 52.4685 255.462 52.0268 255.864 51.6613Z" fill="#133D1C"/>
<path d="M249.355 22.8097C249.295 22.7034 249.259 22.5852 249.25 22.4634C249.24 22.3417 249.258 22.2193 249.3 22.1049C249.3 22.1049 249.388 22.1049 249.421 22.1049H249.289C249.179 22.1112 249.069 22.1112 248.959 22.1049C248.739 22.1049 248.507 22.1049 248.265 22.1049C247.803 22.1049 247.34 22.1049 246.867 22.0168L244.081 21.7526C242.312 21.4671 240.506 21.5044 238.751 21.8627C235.764 22.6266 233.075 24.2684 231.031 26.5759C228.966 28.9531 227.314 31.659 226.142 34.5817L221.99 43.5126L219.909 47.9725C219.213 49.363 218.638 50.8109 218.191 52.3003C217.362 54.7799 217.095 57.4131 217.409 60.0088C217.562 61.1508 218.04 62.2249 218.786 63.1032C219.597 63.9182 220.632 64.474 221.759 64.7C223.072 64.9925 224.404 65.1912 225.745 65.2946C227.177 65.4598 228.62 65.6911 230.029 65.9553C232.848 66.506 235.535 67.2107 238.31 67.8164C241.341 68.5382 244.436 68.9624 247.549 69.0828C248.32 69.0828 249.091 69.0828 249.862 69.0828C250.633 69.0828 251.393 68.9837 252.141 68.8295C252.884 68.7193 253.62 68.5648 254.344 68.367C255.156 68.1404 255.979 67.9566 256.811 67.8164C260.048 67.2878 263.209 66.8804 266.325 66.2637C267.864 65.981 269.386 65.6134 270.884 65.1625C271.582 64.9503 272.26 64.6776 272.91 64.3476C273.168 64.2198 273.408 64.0607 273.626 63.8741C273.802 63.6979 273.78 63.7199 273.791 63.6538C273.98 60.4947 273.943 57.3262 273.681 54.1723C273.444 50.9911 273.006 47.828 272.371 44.7019C271.27 39.1958 269.585 33.6897 266.611 29.1527C265.269 26.9969 263.435 25.1894 261.26 23.8779C260.195 23.2986 259.041 22.9004 257.846 22.6996C256.637 22.5366 255.411 22.5664 254.212 22.7877C253.386 22.8978 252.56 23.2502 251.778 23.4044C249.719 24.0541 248.871 23.6797 250.258 22.5454C250.578 22.229 250.95 21.9717 251.36 21.7856C253.309 21.0221 255.369 20.5796 257.46 20.4751C259.707 20.4177 261.912 21.0857 263.748 22.3802C265.531 23.6886 267.083 25.2852 268.34 27.1045C269.575 28.867 270.637 30.744 271.512 32.7096C273.226 36.5943 274.503 40.6569 275.322 44.823C275.978 48.141 276.405 51.5004 276.599 54.8771C276.757 57.8645 276.716 60.859 276.478 63.841C276.401 64.4384 276.14 64.9967 275.729 65.4378C275.406 65.7696 275.035 66.0517 274.628 66.2747C273.98 66.6401 273.303 66.9495 272.602 67.1997C269.983 68.0438 267.298 68.6663 264.574 69.0608C262.702 69.3911 260.566 69.6885 258.264 70.0409C257.692 70.129 257.108 70.2171 256.546 70.3272C256.238 70.3272 256.095 70.4263 255.742 70.5144L254.784 70.7566C254.133 70.9337 253.471 71.0697 252.802 71.1641C252.118 71.2884 251.426 71.373 250.732 71.4174C247.788 71.6372 244.828 71.4855 241.922 70.9659C238.927 70.4703 235.899 69.7105 232.826 69.0167C231.295 68.6753 229.754 68.334 228.201 68.0917C226.648 67.8494 225.107 67.6843 223.422 67.4971C221.617 67.3512 219.863 66.8218 218.279 65.9443C216.646 64.8787 215.483 63.2273 215.031 61.3302C214.598 59.6032 214.49 57.8109 214.711 56.0444C214.913 54.3638 215.282 52.7074 215.812 51.0999C216.319 49.5382 216.945 48.0177 217.684 46.5519C218.345 45.1534 219.006 43.7659 219.645 42.4003C220.933 39.6693 222.166 37.0374 223.345 34.5487C224.392 32.0956 225.656 29.7407 227.122 27.5119C228.435 25.554 230.087 23.846 232 22.4683C233.518 21.3826 235.203 20.553 236.989 20.0126C237.363 19.8805 237.727 19.8144 238.09 19.7263C238.725 19.5457 239.379 19.4422 240.039 19.418C240.303 19.4023 240.568 19.4023 240.832 19.418C241.397 19.429 241.96 19.4806 242.517 19.5721C243.646 19.7601 244.753 20.0626 245.82 20.4751C246.393 20.6954 246.988 20.9377 247.637 21.224L248.629 21.6755L249.135 21.9067L249.377 22.0058H249.488H249.399V22.0829C249.337 22.1926 249.301 22.3152 249.293 22.4412C249.285 22.5672 249.307 22.6933 249.355 22.8097Z" fill="#133D1C"/>
<path d="M272.877 78.2668C270.212 82.8698 264.86 86.4708 259.079 88.3098C249.277 91.4891 238.681 91.2008 229.066 87.4935C219.452 83.7861 211.405 76.8852 206.276 67.9484C205.137 66.0607 204.14 64.0915 203.291 62.0569C202.873 61.0327 202.565 59.9646 202.19 58.9184C202.025 58.4008 201.838 57.8172 201.684 57.3437L201.298 55.7249L200.946 54.1061C200.814 53.5708 200.726 53.0258 200.681 52.4763L200.351 49.1726C200.285 48.0714 200.351 46.9702 200.351 45.869C200.358 44.7632 200.443 43.6593 200.604 42.5654C200.859 40.3755 201.274 38.2076 201.849 36.0792L202.873 32.9407C203.203 31.8395 203.721 30.9145 204.128 29.8904C205.916 25.885 208.243 22.143 211.044 18.7681C211.606 18.0082 212.266 17.3365 212.894 16.6427C213.522 15.949 214.149 15.2332 214.843 14.5945C216.191 13.2886 217.606 12.0536 219.083 10.8944C222.035 8.55509 225.237 6.54968 228.63 4.91479C230.334 4.109 232.084 3.40661 233.872 2.81147C234.755 2.47767 235.655 2.19456 236.57 1.96353L239.323 1.30281C243.037 0.534648 246.839 0.286335 250.622 0.564991C258.239 1.1306 265.53 3.8923 271.611 8.51577L272.712 9.34168C273.086 9.62799 273.428 9.95836 273.813 10.2667L275.928 12.1388C276.628 12.7661 277.287 13.4394 277.899 14.154L279.804 16.2243C280.454 16.907 280.971 17.7109 281.555 18.4267C282.138 19.1425 282.722 19.9133 283.218 20.7172L284.682 23.1509C284.913 23.5584 285.178 23.9438 285.398 24.3733L286.004 25.6507C288.005 29.6494 289.365 33.9377 290.034 38.3587C290.166 39.4599 290.42 40.5611 290.453 41.6624L290.629 44.966C290.633 47.1982 290.482 49.428 290.177 51.6394C289.891 53.7559 289.471 55.8523 288.922 57.9163C288.614 58.9404 288.25 59.9425 287.92 60.9667C287.733 61.4622 287.6 61.9908 287.38 62.4753L286.719 63.9399L286.092 65.4486C285.885 65.943 285.642 66.4215 285.365 66.8802L283.779 69.6773C283.229 70.6023 282.557 71.4392 281.951 72.3202L281.015 73.6306C280.685 74.0491 280.321 74.4455 279.969 74.853C279.086 75.9892 278.098 77.04 277.018 77.9915C274.177 80.3481 273.086 80.1939 274.595 77.9915C274.905 77.4356 275.274 76.915 275.696 76.4387C275.983 76.1745 276.28 75.9102 276.544 75.6238L277.282 74.7319L278.659 72.9809C279.108 72.4053 279.509 71.7939 279.859 71.1529L280.96 69.3029C281.326 68.6812 281.653 68.0376 281.94 67.3757L282.898 65.3936C283.526 64.0391 283.999 62.5855 284.737 61.1098C286.966 55.4676 287.914 49.4005 287.512 43.3472C287.126 37.3237 285.46 31.452 282.623 26.1242C280.282 21.9132 277.348 18.06 273.912 14.6826C269.584 10.2964 264.278 6.99807 258.429 5.05795C256.994 4.56925 255.521 4.2009 254.024 3.95673C252.966 3.7249 251.891 3.57761 250.809 3.51625C249.541 3.41443 248.269 3.39236 246.999 3.45018C240.191 3.62224 233.529 5.45978 227.595 8.80208C219.966 12.976 213.591 19.112 209.128 26.5757C206.727 30.6116 205.036 35.029 204.128 39.6361C203.205 44.3016 203.179 49.1004 204.051 53.7757L204.426 55.5156C204.527 56.0965 204.678 56.6676 204.877 57.2225C205.252 58.3237 205.626 59.425 205.978 60.5262L207.465 63.7197L207.828 64.5126L208.28 65.2614L209.183 66.7591L210.075 68.2567C210.383 68.7523 210.769 69.1927 211.099 69.6553L213.169 72.4083L215.471 75.0292L216.043 75.6459C216.242 75.8441 216.462 76.0203 216.66 76.2075L217.904 77.3087C221.069 80.116 224.66 82.4021 228.542 84.0812L229.908 84.6979L231.306 85.1824C232.242 85.4797 233.134 85.8431 234.048 86.0964C235.816 86.5708 237.611 86.9385 239.422 87.1976C245.126 88.0589 250.947 87.7213 256.513 86.2065C257.02 86.0744 257.526 85.9753 257.978 85.8211L259.266 85.3586L261.358 84.6098C262.46 84.1362 263.198 83.7618 263.418 83.6847L265.51 82.7597L267.712 81.5924C269.502 80.5932 271.227 79.4825 272.877 78.2668Z" fill="#133D1C"/>
<path d="M143.297 213.144C144.399 212.285 145.5 211.481 146.491 210.567L148.033 209.223L149.497 207.814C150.51 206.889 151.358 205.843 152.283 204.852C152.713 204.334 153.12 203.805 153.539 203.277L154.166 202.484L154.717 201.647C155.069 201.085 155.477 200.546 155.818 199.962L156.754 198.211C157.063 197.628 157.261 197 157.525 196.394C157.662 196.101 157.779 195.799 157.877 195.491L158.12 194.621C158.547 191.968 158.695 189.277 158.56 186.593C158.439 182.574 157.999 178.533 157.558 174.48C155.972 160.241 153.506 146.058 150.951 131.896L149.2 122.47C148.914 120.884 148.616 119.32 148.363 117.723L148.187 116.512C148.122 116.093 148.089 115.67 148.088 115.246C148.038 114.421 148.038 113.593 148.088 112.768C148.341 108.572 149.376 104.586 149.112 100.743C149.038 98.8702 148.517 97.0427 147.592 95.4128C146.708 93.8171 145.339 92.5442 143.683 91.7788C142.67 91.3603 142.185 91.1841 142.251 90.8978C142.317 90.6115 142.945 90.3362 144.145 90.4133C145.82 90.6281 147.373 91.4045 148.55 92.6157C150.338 94.2997 151.502 96.5393 151.854 98.9697C152.537 103.628 151.38 107.89 150.995 111.821C150.886 112.79 150.831 113.764 150.83 114.739C150.83 115.202 150.83 115.697 150.896 116.116C150.962 116.534 151.017 117.085 151.094 117.58C151.413 119.584 151.777 121.644 152.195 123.681C153.66 131.874 155.113 140.1 156.38 148.403C157.888 158.314 159.683 168.633 160.664 178.907C160.906 181.737 161.104 184.578 161.159 187.441C161.314 190.382 161.05 193.329 160.377 196.196C159.407 198.969 158.042 201.588 156.325 203.971C154.608 206.291 152.688 208.455 150.587 210.435C145.392 215.165 139.642 219.248 133.463 222.592C124.215 227.699 114.498 231.906 104.446 235.157C96.8008 237.794 88.9674 239.852 81.0126 241.313L78.3807 241.731L75.7268 242.062C73.3625 242.343 70.9771 242.402 68.6019 242.238C67.9638 242.176 67.3309 242.069 66.7078 241.919C66.2769 241.783 65.8631 241.598 65.4745 241.368C65.1631 241.21 64.8681 241.022 64.5935 240.806C64.0539 240.157 66.6968 240.19 71.41 239.859C78.6131 239.215 85.7443 237.929 92.7185 236.016C99.9392 234.117 107.037 231.778 113.972 229.012C124.29 224.839 134.411 219.806 143.242 213.133L143.297 213.144Z" fill="#133D1C"/>
<path d="M167.733 72.0779L143.275 88.9265C141.018 90.4792 146.414 89.9176 147.46 89.2018L171.918 72.3532C174.175 70.7895 168.779 71.3621 167.733 72.0779Z" fill="#133D1C"/>
<path d="M103.445 133.394L102.398 133.801L102.013 133.922L101.606 133.867C101.334 133.845 101.065 133.801 100.802 133.735C100.418 133.627 100.049 133.476 99.7004 133.283C99.3817 133.118 99.0729 132.934 98.7754 132.733C97.6791 131.946 96.7287 130.973 95.9673 129.859C95.1288 128.706 94.605 127.355 94.4476 125.938C94.4039 125.539 94.4039 125.137 94.4476 124.738L94.5797 124.121C94.6568 123.89 94.767 123.648 94.8661 123.406C94.9542 122.866 95.5158 122.624 95.8682 122.359L96.584 121.864L100.725 118.935L115.514 108.881C117.716 107.394 119.842 105.819 121.956 104.266C124.607 102.176 127.363 100.225 130.215 98.419C132.032 97.3178 131.316 100.963 128.2 103.242C122.617 107.273 116.956 111.182 111.087 114.915C107.585 117.118 104.127 119.75 100.636 122.172L97.7843 124.143L97.2337 124.518C97.1236 124.518 97.1236 124.694 97.0685 124.782C96.9837 125.178 96.9837 125.587 97.0685 125.982C97.5636 127.973 98.8213 129.69 100.57 130.762C100.812 130.918 101.071 131.048 101.341 131.147C101.561 131.213 101.694 131.279 101.859 131.213L103.731 130.486L107.75 128.923C111.792 127.326 115.877 125.762 119.864 124.11C122.969 122.822 125.953 121.412 128.982 120.058C129.653 119.761 130.292 119.441 130.975 119.155C133.486 118.054 134.367 117.933 135.171 118.362C135.361 118.441 135.542 118.54 135.71 118.659C136.162 119.067 135.292 119.904 133.508 120.807C128.189 123.472 122.418 125.894 116.593 128.251L103.478 133.394H103.445Z" fill="#133D1C"/>
<path d="M170.013 105.026L164.969 107.119C164.364 107.383 163.791 107.713 163.174 107.955C160.972 108.847 158.825 109.695 156.666 110.598C155.708 110.995 154.783 111.468 153.869 111.942C152.745 112.652 151.535 113.214 150.268 113.616C149.453 113.803 149.299 111.05 150.665 110.378C153.086 109.158 155.597 108.123 158.175 107.284C159.733 106.702 161.259 106.037 162.745 105.291C164.43 104.564 166.115 103.859 167.8 103.088C168.835 102.637 169.881 102.207 170.905 101.745C172.469 101.051 174.054 100.39 175.563 99.6303C176.741 99.0466 177.832 98.3198 178.955 97.6591C179.197 97.516 179.428 97.3508 179.693 97.2186C180.64 96.7121 181.025 96.7341 181.532 97.2186C181.642 97.3398 181.774 97.4499 181.873 97.582C182.203 98.0335 181.994 98.6832 181.356 99.1127C179.377 100.514 177.268 101.72 175.057 102.714C173.405 103.496 171.753 104.222 170.046 104.971L170.013 105.026Z" fill="#133D1C"/>
<path d="M192.335 92.6487C190.132 96.0294 185.904 97.4059 181.994 97.5931L183.448 98.5622C184.004 94.7107 183.789 90.7869 182.816 87.0192C181.842 83.2514 180.129 79.7148 177.777 76.615C176.253 74.7149 174.541 72.9734 172.667 71.4173C171.863 70.7235 171.566 71.175 171.566 70.7675C171.643 69.7764 173.834 68.2347 174.473 67.8163C179.88 64.3695 182.919 66.638 186.873 70.7125C192.819 76.8462 194.174 84.819 192.225 92.968C191.872 94.4437 195.121 94.0693 195.451 92.6927C198.05 81.8237 194.35 71.4503 184.923 65.2945C179.572 61.8036 170.971 65.2945 168.284 70.9217C168.175 71.1043 168.143 71.3228 168.194 71.5292C168.246 71.7356 168.377 71.9132 168.559 72.0229C172.77 75.0185 176.081 79.1084 178.135 83.8503C180.188 88.5921 180.906 93.8053 180.21 98.9256C180.111 99.7295 181.069 99.9277 181.664 99.9057C186.983 99.6524 192.335 97.5601 195.352 93.0341C196.31 91.5475 193.061 91.5475 192.335 92.6487Z" fill="#133D1C"/>
<path d="M137.076 93.7499C136.58 93.9371 137.472 93.6508 137.626 93.6178C138.125 93.5097 138.635 93.4616 139.146 93.4746C140 93.5046 140.825 93.792 141.512 94.299C142.2 94.806 142.719 95.5089 143 96.3157C143.308 97.0756 145.203 96.514 144.905 95.7982C143.43 92.2523 139.619 91.5805 136.272 92.7918C135.027 93.2433 136.14 94.0913 137.076 93.7499Z" fill="#133D1C"/>
<path d="M135.413 95.2257H135.578C135.292 95.3248 135.765 95.1706 135.853 95.1486C136.231 95.0527 136.62 95.0082 137.009 95.0164C137.65 95.0635 138.25 95.3503 138.689 95.8197C139.128 96.2891 139.373 96.9067 139.377 97.5492C139.443 98.0668 141.58 97.6153 141.447 96.9876C140.985 93.5518 137.219 93.684 134.653 94.664C134.411 94.7631 133.838 95.0054 134.058 95.3468C134.278 95.6882 135.159 95.3468 135.413 95.2807V95.2257Z" fill="#133D1C"/>
<path d="M132.516 96.9104C132.746 96.7319 133.02 96.6213 133.309 96.5911C134.499 96.481 135.247 97.6923 135.633 98.5733C135.897 99.201 137.934 98.5733 137.714 98.0227C137.478 97.2775 137 96.6324 136.355 96.1896C135.711 95.7468 134.938 95.5316 134.157 95.578C133.139 95.6267 132.148 95.9255 131.272 96.4479C130.094 97.1857 131.933 97.2738 132.516 96.9104Z" fill="#133D1C"/>
<path d="M102.927 200.304C111.836 192.793 123.046 187.64 133.97 183.917C136.932 182.915 134.223 181.495 132.23 182.178C120.645 186.12 108.796 191.681 99.3588 199.632C97.4207 201.262 101.848 201.218 102.927 200.304Z" fill="#133D1C"/>
<path d="M130.325 162.62C130.226 160.241 130.171 157.874 130.138 155.517C130.138 154.647 130.05 153.788 130.05 152.929C130.05 149.89 130.16 146.851 130.237 143.822C130.237 142.468 130.237 141.124 130.237 139.781C130.116 138.063 130.16 136.337 130.369 134.627C130.556 133.526 132.781 134.99 132.759 136.94C132.759 140.419 132.638 143.888 132.362 147.401C132.208 149.505 132.362 151.685 132.362 153.832C132.362 156.189 132.45 158.545 132.55 160.913C132.616 162.356 132.671 163.809 132.792 165.263C132.946 167.465 133.133 169.668 133.486 171.804C133.777 173.448 134.167 175.074 134.653 176.672C134.752 177.024 134.873 177.365 134.961 177.718C135.347 179.017 135.303 179.469 134.774 179.92C134.661 180.032 134.539 180.135 134.411 180.228C133.981 180.504 133.453 180.063 133.045 179.127C131.919 176.131 131.179 173.005 130.843 169.822C130.556 167.443 130.369 165.043 130.226 162.653L130.325 162.62Z" fill="#133D1C"/>
<path d="M136.525 192.859C137.913 191.758 139.289 190.536 139.542 189.424C139.696 188.554 139.895 187.695 140.049 186.814L140.313 184.061C140.555 180.349 140.577 176.572 140.445 172.784C140.379 170.031 140.137 167.278 139.994 164.514C139.388 154.768 138.485 145.022 137.384 135.299C137.127 133.14 136.866 130.982 136.602 128.824C136.47 127.722 136.327 126.621 136.195 125.586C136.062 124.551 135.941 123.384 135.853 122.282C135.619 119.639 135.007 117.043 134.036 114.574C133.054 112.169 131.518 110.03 129.554 108.33C128.299 107.339 128.761 106.832 130.391 107.163C130.864 107.292 131.324 107.462 131.768 107.669C132.334 107.979 132.865 108.348 133.354 108.77C134.609 109.766 135.625 111.03 136.327 112.471C137.58 115.257 138.351 118.236 138.606 121.28C138.694 122.007 138.738 122.745 138.782 123.483C138.827 124.221 138.904 124.782 138.992 125.498L139.465 129.705C140.104 135.343 140.688 141.003 141.128 146.707C141.657 153.524 142.461 160.594 142.835 167.63C143.066 171.474 143.154 175.339 143.154 179.215L143.055 182.122C143.055 183.092 142.989 184.061 142.879 185.041C142.769 186.021 142.747 186.99 142.538 187.981L142.251 189.457C142.177 189.991 142.032 190.513 141.822 191.009C141.213 192.191 140.37 193.236 139.344 194.082C138.41 194.871 137.432 195.606 136.415 196.284C134.417 197.602 132.351 198.815 130.226 199.918C123.839 203.222 117.188 206.063 110.591 208.728C105.46 210.787 100.438 212.846 95.2735 214.696C94.1723 215.104 93.071 215.522 91.8707 215.897C87.576 217.295 86.1003 217.471 84.9881 216.998C84.7334 216.928 84.489 216.824 84.2613 216.69C83.7107 216.26 85.3625 215.412 88.4349 214.333C97.553 211.029 107.156 207.439 116.56 203.387C120.051 201.878 123.52 200.304 126.911 198.597C130.277 196.973 133.494 195.057 136.525 192.87V192.859Z" fill="#133D1C"/>
<path d="M19.8622 391.188C18.6729 395.076 17.3955 398.897 15.8428 402.74C15.0626 404.667 14.1841 406.552 13.2109 408.389C12.6933 409.314 12.1097 410.228 11.5371 411.131L11.3168 411.462L11.2507 411.55L11.1186 411.715C11.0085 411.847 10.9975 411.836 10.9314 411.913C11.0299 411.991 11.1418 412.051 11.2618 412.089C12.0987 412.431 13.0127 412.783 13.9047 413.08C15.6997 413.708 17.5387 414.182 19.4108 414.699C23.1344 415.617 26.9225 416.25 30.7423 416.593C38.4218 417.257 46.1551 416.916 53.7466 415.58C57.9973 414.908 62.226 414.138 66.4216 413.235C68.514 412.772 70.5952 412.299 72.6435 411.737C74.6918 411.175 76.696 410.526 78.7773 409.887C85.973 407.74 92.8723 404.703 99.3149 400.846C102.472 398.908 105.424 396.654 108.125 394.117C108.763 393.457 109.446 392.829 110.063 392.135L110.801 391.32C110.833 391.297 110.858 391.265 110.874 391.228C110.889 391.191 110.894 391.151 110.889 391.111V390.781L110.316 385.109C108.73 369.979 106.77 354.859 104.997 339.717C103.411 326.294 101.848 312.771 100.702 299.38C100.009 290.768 99.337 282.135 99.1387 273.468C99.0617 271.266 99.0066 269.14 99.0286 266.971V260.463C99.2048 256.135 99.326 251.796 99.7995 247.491C100.295 242.106 101 242.932 101.396 247.491C101.495 248.592 101.572 250.012 101.628 251.587C101.683 253.162 101.837 254.891 101.903 256.884C101.98 260.771 102.233 265.319 102.244 270.242C102.63 287.751 104.138 305.238 106.021 322.737C107.904 340.235 110.118 357.766 112.023 375.43C112.309 378.073 112.585 380.727 112.871 383.392C113.157 386.255 113.447 389.125 113.741 392.003C113.437 392.458 113.091 392.882 112.706 393.27L112.012 394.051C111.549 394.58 111.032 395.053 110.547 395.549C110.063 396.045 109.545 396.518 109.028 396.992C108.51 397.465 108.004 397.928 107.453 398.357C105.316 400.145 103.053 401.775 100.68 403.236C95.9508 406.127 90.954 408.558 85.759 410.493C83.1711 411.462 80.5392 412.354 77.9514 413.146C75.3327 414.015 72.6717 414.75 69.9786 415.349C64.8139 416.538 59.6271 417.485 54.4294 418.311C49.1876 419.219 43.8805 419.698 38.5609 419.743C33.2309 419.776 27.9099 419.301 22.6703 418.322C20.0676 417.821 17.4943 417.177 14.9618 416.395C13.6844 415.999 12.418 415.569 11.1626 415.096L10.2266 414.721C9.74207 414.523 9.25754 414.325 8.80604 414.116L7.45155 413.477L6.79082 413.135C6.5926 413.025 6.28426 412.915 6.25122 412.794L7.48459 411.583L8.5858 410.338C8.75098 410.14 8.97122 409.898 9.08134 409.744L9.36766 409.314L9.9403 408.455C10.6451 407.266 11.2948 406.022 11.9005 404.744C14.7906 398.053 17.1508 391.146 18.9592 384.085C20.8754 377.016 22.5492 369.869 24.1019 362.711C28.7491 340.973 32.4712 318.926 35.7418 297.1C38.2636 280.12 40.3559 263.414 42.3491 246.577C42.7785 242.865 43.208 239.231 43.6375 235.487C45.2893 221.623 45.9611 217.229 47.0843 214.333C47.304 213.685 47.5576 213.049 47.8441 212.428C48.593 211.162 48.4718 216.833 47.4367 227.074C44.3313 257.28 40.1466 289.039 34.9159 320.788C32.9667 332.582 30.8524 344.376 28.4627 356.126C26.0731 367.875 23.4302 379.614 19.9944 391.188H19.8622Z" fill="#133D1C"/>
<path d="M47.3594 419.005L47.5356 444.256C47.5356 444.553 49.8371 444.531 49.8151 444.256L49.6499 418.994C48.902 418.771 48.1051 418.775 47.3594 419.005Z" fill="#133D1C"/>
<path d="M65.5076 445.148L66.2344 416.142C66.2344 415.8 63.9548 415.745 63.9548 416.087L63.228 445.126C63.228 445.225 63.5254 445.28 63.9218 445.324L64.3733 444.883C64.4338 444.898 64.4901 444.927 64.5378 444.967C64.5856 445.007 64.6235 445.058 64.6486 445.115C64.6685 445.144 64.6791 445.178 64.6791 445.214C64.6791 445.249 64.6685 445.284 64.6486 445.313L64.3733 445.049V445.577L64.109 445.313C64.0895 445.344 64.0791 445.381 64.0791 445.417C64.0791 445.454 64.0895 445.491 64.109 445.522C64.1378 445.579 64.1782 445.628 64.2275 445.668C64.2769 445.708 64.334 445.737 64.3953 445.753L64.8468 445.324C65.1992 445.313 65.5076 445.247 65.5076 445.148Z" fill="#133D1C"/>
<path d="M91.1765 514.095C90.3286 514.569 86.2761 517.278 77.4333 515.108C68.8921 512.977 60.9971 508.801 54.429 502.94V512.972H48.9229L48.6035 442.395C53.3097 444.622 58.6122 445.26 63.7122 444.212C66.8173 445.444 70.013 446.434 73.2708 447.174L69.1522 503.05C75.0878 505.88 82.2236 508.292 86.8708 510.241C86.8708 510.241 92.8944 513.159 91.1765 514.095Z" fill="#133D1C"/>
<path d="M90.8134 513.39C89.232 515.256 86.9913 516.439 84.5585 516.694C81.9775 517.006 79.3604 516.819 76.85 516.143C72.5837 515.093 68.4606 513.529 64.5715 511.485C62.6198 510.478 60.7298 509.357 58.9112 508.126C58.0082 507.51 57.1162 506.86 56.2353 506.188L55.8829 505.924C55.8829 508.758 55.8829 511.588 55.8829 514.414H47.5577L47.4806 503.688C47.4806 489.152 47.4549 474.613 47.4035 460.069L47.3264 440.368C48.2514 440.754 49.1985 441.183 50.1345 441.558L50.8393 441.833L51.1807 441.954L51.3569 442.02C51.5991 442.108 51.8414 442.196 52.0727 442.263C53.0328 442.575 54.011 442.829 55.0019 443.022C56.9643 443.398 58.97 443.494 60.9595 443.309C61.455 443.309 61.9395 443.188 62.4351 443.11L63.261 442.945C63.7409 442.844 64.2409 442.906 64.6816 443.121C65.6507 443.496 66.6417 443.848 67.6328 444.223C68.6239 444.597 69.615 444.883 70.6061 445.17C71.1017 445.324 71.5972 445.456 72.0818 445.577C72.2249 445.577 72.8636 445.742 73.2931 445.83L74.7577 446.106L72.302 479.065L70.6502 501.167L70.5731 502.18V502.246L70.7162 502.312L72.6874 503.171C74.2952 503.853 75.9213 504.507 77.5658 505.131L82.5213 507.003L85.01 507.939L86.2654 508.435L86.8931 508.677L87.2014 508.809C87.3368 508.856 87.4692 508.911 87.5979 508.974C88.7566 509.499 89.8628 510.134 90.9015 510.868C91.5479 511.331 92.0823 511.933 92.4652 512.63C92.5915 512.865 92.6649 513.125 92.6801 513.391C92.6953 513.658 92.652 513.924 92.5533 514.172C92.4967 514.331 92.4018 514.473 92.2769 514.586C92.1521 514.7 92.0011 514.781 91.8376 514.822C91.5072 514.822 91.5402 514.689 91.7054 514.381C91.7743 514.266 91.8179 514.138 91.8331 514.005C91.8483 513.872 91.8348 513.738 91.7935 513.61C91.6684 513.362 91.478 513.153 91.2429 513.005C90.8024 512.707 90.2408 512.542 89.8003 512.234C88.7201 511.523 87.5594 510.942 86.3425 510.505C85.1312 510.108 83.9418 509.767 82.7305 509.404C80.1609 508.728 77.6314 507.908 75.1541 506.948C73.9098 506.441 72.6654 505.924 71.421 505.384L69.3728 504.503C68.866 504.288 68.3732 504.042 67.8971 503.765L68.0293 501.97L68.5468 493.943L69.5379 477.909C69.8243 473.647 70.1546 469.363 70.507 465.102L71.9386 448.749C71.9386 448.661 71.9386 448.55 71.9386 448.231L71.5862 448.143C71.0246 448 70.3859 447.835 69.6811 447.614C68.2715 447.196 66.5867 446.634 64.5825 445.896L63.8226 445.61L63.6464 445.544C63.6464 445.544 63.6464 445.544 63.5693 445.544L62.8205 445.698C62.5122 445.753 62.1928 445.786 61.8735 445.83C60.5008 446.007 59.1149 446.058 57.7329 445.985C56.1651 445.897 54.6092 445.661 53.0858 445.28C52.2819 445.082 51.467 444.828 50.6411 444.553L50.0905 444.355L49.8592 444.256C49.9473 461.688 50.1015 494.196 50.1786 511.782H53.1849C53.1849 505.098 53.1849 502.389 53.1849 500.109C54.22 501.089 55.2662 502.092 56.2242 502.95C56.7088 503.336 57.1713 503.732 57.6338 504.052L58.4267 504.657C59.4398 505.428 60.4529 506.122 61.433 506.761C63.2053 507.917 65.0438 508.969 66.9391 509.91C69.6589 511.242 72.4839 512.347 75.3854 513.214C77.5353 513.894 79.7493 514.351 81.9927 514.579C83.3026 514.711 84.621 514.737 85.935 514.656C87.6349 514.601 89.3012 514.168 90.8134 513.39Z" fill="#133D1C"/>
<path d="M74.4933 448.121L77.0921 413.41C77.0921 413.014 74.8346 412.838 74.8126 413.234L72.2137 447.956C72.1807 448.275 74.4712 448.44 74.4933 448.121Z" fill="#133D1C"/>
<path d="M111.704 203.486C108.719 214.399 110.294 225.07 113.278 235.839C113.499 236.61 116.053 235.928 115.833 235.146C112.882 224.497 111.285 213.936 114.247 203.122C114.457 202.34 111.913 202.704 111.704 203.486Z" fill="#133D1C"/>
<path d="M111.836 189.765C106.935 193.949 107.067 202.572 107.618 208.265C107.706 209.146 110.261 208.584 110.173 207.582C109.677 202.495 109.435 194.048 113.895 190.238C114.996 189.269 112.507 189.203 111.836 189.765Z" fill="#133D1C"/>
<path d="M96.8702 151.96C99.2929 154.273 103.07 153.832 105.801 152.401C106.264 152.158 106.704 151.696 106.12 151.299C105.537 150.903 104.392 151.377 103.918 151.641C103.236 151.918 102.485 151.98 101.767 151.819C101.049 151.657 100.397 151.28 99.8986 150.738C99.1938 150.055 96.2095 151.244 96.9143 151.916L96.8702 151.96Z" fill="#133D1C"/>
<path d="M96.4958 124.485C94.7766 121.353 92.6715 118.449 90.2298 115.84C89.5471 115.08 87.2676 116.016 88.0274 116.875C90.4691 119.484 92.5741 122.388 94.2933 125.52C94.7558 126.401 97.0464 125.52 96.4958 124.485Z" fill="#133D1C"/>
<path d="M90.6261 187.596C90.0751 187.041 89.6548 186.371 89.3957 185.634C89.1366 184.897 89.0453 184.111 89.1284 183.334C89.146 180.858 89.4904 178.396 90.1526 176.011C90.3693 175.343 90.6729 174.706 91.0555 174.117C91.2546 173.799 91.4832 173.5 91.7383 173.225C91.9695 172.993 92.1898 172.751 92.4211 172.542C93.3293 171.696 94.2932 170.913 95.3062 170.196C96.9196 169.177 98.3993 167.96 99.7111 166.573C99.9913 166.223 100.249 165.855 100.482 165.472L101.22 164.217C101.682 163.368 102.094 162.493 102.453 161.596C103.707 158.506 104.364 155.207 104.391 151.872C104.41 150.199 104.296 148.527 104.05 146.873C103.929 146.036 103.775 145.21 103.598 144.395L103.29 143.195C103.157 142.661 103.091 142.114 103.092 141.565C103.082 140.26 103.466 138.982 104.193 137.898C104.551 137.377 104.977 136.907 105.459 136.499C105.662 136.323 105.81 136.094 105.889 135.838C105.966 135.387 105.889 135.145 105.338 134.737C104.726 134.284 104.018 133.979 103.268 133.845C103.016 133.831 102.766 133.797 102.519 133.746C102.386 133.702 102.264 133.627 102.165 133.528C102.066 133.428 101.991 133.307 101.947 133.173C101.891 133.02 101.885 132.852 101.928 132.695C101.971 132.537 102.063 132.396 102.189 132.292C102.321 132.16 102.486 131.973 102.651 131.973C103.444 131.973 104.193 131.973 105.008 132.039C105.918 132.106 106.773 132.496 107.42 133.14C107.819 133.541 108.119 134.03 108.295 134.567C108.471 135.104 108.518 135.676 108.433 136.235C108.342 136.782 108.136 137.304 107.827 137.766C107.562 138.133 107.259 138.473 106.924 138.779C106.554 139.187 106.273 139.669 106.101 140.192C105.928 140.716 105.867 141.269 105.922 141.818C105.943 142.03 105.979 142.24 106.032 142.446L106.241 143.305C106.395 143.91 106.495 144.527 106.594 145.133C106.814 146.709 106.935 148.298 106.957 149.89C107.055 152.64 106.811 155.393 106.23 158.083C105.74 160.26 105.001 162.373 104.028 164.382C103.764 164.91 103.51 165.483 103.202 165.979C102.915 166.533 102.595 167.07 102.244 167.586C101.5 168.643 100.61 169.588 99.601 170.395C97.6628 171.991 95.6917 173.148 94.227 174.535C93.8855 174.836 93.5722 175.168 93.291 175.526C93.051 175.869 92.8515 176.239 92.6964 176.627C92.3883 177.417 92.1632 178.236 92.0246 179.072C91.7273 180.702 91.6172 182.145 91.518 183.191C91.4189 184.237 91.3639 184.898 91.3529 185.008C91.1617 185.884 90.919 186.748 90.6261 187.596Z" fill="#133D1C"/>
<path d="M47.3488 251.08C45.9502 255.485 50.234 260.628 54.815 260.022C59.3961 259.417 62.1601 253.261 59.5503 249.451C56.9404 245.64 50.1459 246.059 48.0536 250.177" fill="#133D1C"/>
<path d="M89.5252 315.303C88.2367 319.389 92.2011 324.168 96.4518 323.607C100.702 323.045 103.279 317.33 100.857 313.784C98.434 310.238 92.124 310.645 90.1859 314.467" fill="#133D1C"/>
<path d="M97.2665 363.008C97.0836 363.777 97.0827 364.578 97.2639 365.347C97.4451 366.116 97.8035 366.833 98.3104 367.439C98.8173 368.045 99.4588 368.525 100.184 368.84C100.909 369.155 101.697 369.296 102.486 369.252C103.259 369.09 103.982 368.746 104.597 368.251C105.212 367.755 105.7 367.121 106.022 366.4C106.345 365.679 106.492 364.892 106.451 364.103C106.411 363.315 106.184 362.547 105.79 361.863C103.962 359.209 99.1826 359.495 97.7621 362.38" fill="#133D1C"/>
<path d="M34.145 365.75C32.8786 369.747 36.7659 374.416 40.9174 373.866C45.069 373.315 47.5908 367.732 45.2122 364.274C42.8336 360.816 36.6778 361.202 34.7837 364.935" fill="#133D1C"/>
<path d="M62.5451 347.426C61.3228 351.302 65.0779 355.817 69.1524 355.289C73.2269 354.76 75.6056 349.342 73.304 345.994C71.0025 342.647 65.0449 343.021 63.2169 346.644" fill="#133D1C"/>
<path d="M93.5998 403.269C94.7891 401.331 94.701 398.732 92.003 398.269C90.7595 398.068 89.4847 398.204 88.3123 398.666C87.14 399.127 86.1135 399.895 85.3407 400.89C83.9532 402.905 85.3958 405.295 87.477 406.055C88.6585 406.245 89.8698 406.081 90.9589 405.586C92.0481 405.09 92.9668 404.284 93.5998 403.269Z" fill="#133D1C"/>
<path d="M83.6003 274.724C82.3449 278.71 86.1992 283.357 90.3397 282.807C94.4803 282.256 96.947 276.695 94.6235 273.248C92.2999 269.801 86.1221 270.187 84.239 273.92" fill="#133D1C"/>
<path d="M82.367 232.151C81.1006 236.126 84.9658 239.628 89.1064 239.077C93.247 238.527 95.7137 234.111 93.3901 230.675C91.0666 227.239 84.8888 227.614 83.0057 231.336" fill="#133D1C"/>
<path d="M41.8865 298.356C40.6201 302.331 44.4854 306.978 48.626 306.428C52.7665 305.877 55.2333 300.327 52.8987 296.88C50.5641 293.433 44.4083 293.819 42.5142 297.541" fill="#133D1C"/>
<path d="M18.0121 407.288C19.2014 409.49 22.1196 410.536 23.6283 408.521C23.9587 408 24.1609 407.408 24.2185 406.793C24.2761 406.179 24.1875 405.56 23.9597 404.986C23.732 404.412 23.3717 403.901 22.9083 403.493C22.445 403.086 21.8917 402.793 21.2937 402.641C20.7356 402.538 20.1601 402.584 19.6258 402.776C19.0915 402.967 18.6174 403.297 18.2516 403.731C17.8859 404.165 17.6415 404.688 17.5433 405.247C17.4452 405.806 17.4967 406.381 17.6927 406.913" fill="#133D1C"/>
<path d="M170.872 103.198L165.949 105.28C165.355 105.533 164.793 105.863 164.187 106.105C162.084 106.986 159.948 107.823 157.866 108.726C156.944 109.143 156.044 109.606 155.169 110.114C154.094 110.834 152.937 111.422 151.722 111.865C150.929 112.074 150.62 109.365 151.964 108.638C154.306 107.359 156.756 106.291 159.287 105.445C160.818 104.949 162.26 104.123 163.747 103.474L168.68 101.337C169.683 100.897 170.696 100.456 171.687 99.9937C173.195 99.289 174.726 98.6062 176.169 97.7913C177.27 97.1636 178.305 96.4148 179.351 95.688C179.582 95.5338 179.792 95.3576 180.023 95.2035C180.904 94.6529 181.278 94.6418 181.829 95.1374C181.96 95.2396 182.082 95.3539 182.192 95.4788C182.556 95.8862 182.413 96.4919 181.818 97.0095C179.979 98.5535 177.956 99.8629 175.794 100.908C174.186 101.734 172.491 102.483 170.905 103.242L170.872 103.198Z" fill="#133D1C"/>
<path d="M72.3239 159.515C68.9322 161.717 55.9158 159.944 56.6426 149.427C57.3694 138.911 69.4608 145.43 69.4608 145.43C77.3014 140.97 85.1421 133.988 88.3136 125.322C93.0158 112.515 82.7084 98.1327 70.7932 95.2365C19.1903 82.6827 19.3114 145.452 17.8798 155.154C16.7125 163.049 -13.1524 185.041 9.9731 210.082C19.4766 220.379 34.2659 226.876 47.91 223.682C104.832 210.369 73.9317 158.49 72.3239 159.515Z" fill="#133D1C"/>
<path d="M71.8835 158.843C71.2555 159.406 70.4994 159.806 69.6811 160.01C69.2205 160.131 68.7536 160.227 68.2826 160.296C67.8091 160.296 67.3135 160.396 66.818 160.385C64.7267 160.396 62.6637 159.901 60.8053 158.942C58.7585 157.887 57.154 156.138 56.2793 154.009C56.1802 153.733 56.0481 153.458 55.96 153.183L55.7838 152.324L55.6186 151.465C55.6186 151.178 55.6186 150.881 55.6186 150.595C55.5447 149.429 55.6525 148.259 55.938 147.126C56.2789 145.658 57.1198 144.353 58.3166 143.437C59.5479 142.601 61.0141 142.18 62.5012 142.237C63.8468 142.264 65.1817 142.482 66.4656 142.886C67.0933 143.073 67.71 143.283 68.3156 143.525C68.6129 143.635 68.9103 143.767 69.2076 143.899L69.4939 144.031C77.8521 139.164 88.1485 129.639 88.1485 118.704C87.9727 113.181 85.8059 107.909 82.0478 103.859C80.2156 101.81 78.062 100.073 75.6717 98.7165C73.2536 97.3877 70.6166 96.5038 67.8861 96.1066C62.1523 94.8496 56.2246 94.7559 50.4539 95.8313L48.3506 96.3929C48.0092 96.481 47.6568 96.5581 47.3154 96.6792L46.3023 97.0647C45.6306 97.34 44.9478 97.5712 44.2981 97.8685L42.371 98.8596C39.8404 100.262 37.529 102.028 35.5104 104.101C33.4608 106.19 31.6678 108.515 30.1695 111.028C28.6175 113.553 27.2909 116.21 26.2051 118.968C25.0939 121.727 24.1632 124.556 23.4191 127.436C22.6372 130.321 22.0095 133.251 21.5029 136.246C20.6 141.322 20.0824 146.454 19.6419 151.663C19.5097 152.984 19.4437 154.229 19.1904 155.693C18.8018 157.111 18.1804 158.455 17.3514 159.669C15.8867 161.937 14.301 164.008 12.7923 166.111C9.69118 170.172 7.07461 174.581 4.99572 179.248C2.95359 183.811 2.22517 188.853 2.89241 193.806C3.28514 196.246 4.02688 198.615 5.09484 200.843C6.21401 203.086 7.57671 205.198 9.15832 207.142C10.7622 209.116 12.5225 210.957 14.4221 212.648C16.3337 214.305 18.3736 215.807 20.5229 217.141C24.8121 219.818 29.5562 221.684 34.5193 222.647C36.9817 223.122 39.4912 223.306 41.9966 223.198C44.5045 223.088 46.9914 222.689 49.4078 222.009C55.2666 220.606 60.8723 218.302 66.0251 215.181C68.5408 213.603 70.8492 211.716 72.8967 209.565C74.9071 207.411 76.578 204.964 77.8521 202.308C80.2019 197.138 81.1549 191.443 80.6162 185.79C80.109 180.064 78.6733 174.459 76.3655 169.194C75.6057 167.421 74.6586 165.626 73.8217 164.03C73.2821 163.005 72.8306 162.158 72.4672 161.497C72.302 161.188 72.1699 160.946 72.0928 160.77C72.0157 160.594 71.9166 160.77 72.324 160.065C72.324 159.944 72.324 159.834 72.3901 159.845C72.3953 159.833 72.3979 159.82 72.3979 159.806C72.3979 159.793 72.3953 159.78 72.3901 159.768C72.4035 159.785 72.4108 159.807 72.4108 159.828C72.4108 159.85 72.4035 159.872 72.3901 159.889C72.3704 159.996 72.3371 160.099 72.291 160.197C72.291 160.197 72.291 160.142 72.291 160.197C72.8715 160.411 73.3741 160.795 73.7336 161.299C74.3765 161.945 74.9453 162.662 75.4295 163.435C77.5629 167.191 79.3647 171.126 80.8144 175.196C82.376 179.431 83.2136 183.898 83.2921 188.41C83.3682 193.039 82.5338 197.638 80.8364 201.944C79.0626 206.252 76.3677 210.12 72.9407 213.276C69.5176 216.315 65.638 218.798 61.444 220.632C57.2941 222.513 52.9719 223.988 48.5378 225.037C44.9014 225.925 41.1418 226.197 37.4155 225.841C33.7156 225.484 30.0854 224.602 26.6346 223.22C17.86 219.709 10.3305 213.663 5.00674 205.854C4.62131 205.237 4.14779 204.499 3.63022 203.651L2.88139 202.198L2.47394 201.394L2.11054 200.513C0.866177 197.641 0.16067 194.566 0.0292466 191.439C-0.0587511 189.527 0.0519591 187.612 0.359606 185.724C0.716907 183.653 1.25866 181.619 1.97839 179.645C3.69903 175.284 5.95154 171.153 8.68479 167.344C10.0833 165.307 11.603 163.27 13.0897 161.188C13.8385 160.153 14.5763 159.096 15.2921 158.017C15.965 157.06 16.4405 155.978 16.6906 154.834C16.999 152.258 17.1752 149.449 17.4725 146.652C17.7698 143.855 18.0892 141.003 18.5737 138.118C19.4281 132.208 20.8327 126.39 22.7693 120.741C23.2429 119.287 23.8706 117.878 24.4102 116.457C24.9498 115.036 25.6545 113.638 26.4254 112.283C27.8529 109.511 29.5812 106.903 31.5791 104.509C35.5711 99.607 40.8999 95.9691 46.919 94.0363C52.7893 92.3504 58.9583 91.9744 64.9899 92.9351C66.4454 93.1133 67.8902 93.3707 69.3177 93.7059C70.0335 93.8711 70.7383 93.9592 71.4541 94.1795C72.1699 94.3997 72.8967 94.5979 73.6014 94.8512C76.3165 95.883 78.8344 97.3729 81.0457 99.2561C85.2453 102.761 88.3112 107.432 89.8554 112.68C90.5383 115.121 90.81 117.659 90.6593 120.19C90.468 122.549 89.8991 124.861 88.9744 127.04C87.345 130.745 85.0748 134.133 82.268 137.05C80.1363 139.312 77.7908 141.362 75.2643 143.173C74.2181 143.943 73.2381 144.593 72.3571 145.144C71.9276 145.419 71.5201 145.672 71.1237 145.893L69.4939 146.851L68.7451 146.465C68.5138 146.333 68.1945 146.19 68.1174 146.157L67.3465 145.826C66.829 145.617 66.3334 145.441 65.8379 145.287C64.9299 144.99 63.9918 144.794 63.0408 144.703C62.3603 144.581 61.6609 144.617 60.9965 144.808C60.3321 144.999 59.7204 145.34 59.2086 145.804C58.514 146.623 58.084 147.633 57.9752 148.701C57.9022 149.163 57.8763 149.632 57.8981 150.099C57.8981 150.529 57.8981 150.925 57.8981 151.277C57.9956 152.524 58.417 153.724 59.1205 154.757C60.2907 156.494 61.9959 157.801 63.9768 158.479C65.1568 158.954 66.3995 159.254 67.6659 159.371C69.0938 159.569 70.5486 159.387 71.8835 158.843Z" fill="#133D1C"/>
<path d="M94.9652 131.632C95.0423 132.138 95.8131 133.129 95.3396 133.372C94.3265 133.889 93.4015 131.433 93.941 130.916C94.4806 130.398 94.8661 130.905 94.9652 131.632Z" fill="#133D1C"/>
<path d="M95.0973 131.632C95.0768 131.85 95.0954 132.07 95.1523 132.281C95.1523 132.358 95.2404 132.369 95.2404 132.414C95.2404 132.458 95.2404 132.414 95.2404 132.414C95.1926 132.483 95.152 132.556 95.1193 132.634C95.1052 132.684 95.1052 132.738 95.1193 132.788C95.1264 132.752 95.1264 132.714 95.1193 132.678L95.3065 133.03C95.2483 133.019 95.1885 133.019 95.1303 133.03C95.0422 133.03 94.7118 133.03 94.822 133.03C94.9321 133.03 94.7559 132.788 94.6458 132.645C94.5356 132.502 94.2383 132.27 94.3374 131.764C94.3374 131.588 94.9101 131.588 95.4386 131.522C95.9672 131.455 96.4297 131.29 96.4738 131.378C96.6094 131.631 96.7095 131.902 96.7711 132.182C96.8374 132.478 96.856 132.783 96.8262 133.085C96.8034 133.224 96.7665 133.361 96.716 133.493C96.6489 133.659 96.5519 133.812 96.4297 133.944C96.3142 134.076 96.1714 134.181 96.0113 134.253C95.9162 134.292 95.8162 134.318 95.7139 134.33C95.2976 134.401 94.8695 134.351 94.4806 134.186C94.2088 134.056 93.9712 133.864 93.7868 133.625C93.5143 133.228 93.3303 132.777 93.2472 132.303C93.2004 132.02 93.182 131.732 93.1922 131.444C93.1967 131.154 93.2764 130.869 93.4234 130.619C93.4784 130.533 93.5452 130.455 93.6216 130.387L93.7758 130.266C93.9054 130.169 94.0506 130.094 94.2053 130.046C94.3704 130.002 94.5428 129.994 94.7115 130.02C94.8802 130.047 95.0416 130.108 95.1854 130.2C95.3973 130.331 95.5808 130.503 95.725 130.707C95.78 130.777 95.8315 130.851 95.8791 130.927C96.0003 131.213 95.8791 131.334 95.3285 131.477L94.9651 131.555C94.6642 131.622 94.352 131.622 94.0511 131.555C93.9729 131.526 93.8871 131.526 93.8088 131.555C93.9189 131.498 94.0255 131.436 94.1282 131.367C94.2215 131.305 94.3066 131.231 94.3815 131.147C94.4916 131.015 94.3815 130.971 94.4586 131.147C94.5535 131.408 94.7038 131.644 94.899 131.841L94.9761 131.918L94.2603 131.158C94.2817 131.166 94.305 131.166 94.3264 131.158C94.3264 131.158 94.4586 131.235 94.5467 131.257C94.7665 131.312 94.9919 131.341 95.2184 131.345C95.1965 131.406 95.1965 131.472 95.2184 131.533L95.0973 131.632Z" fill="#133D1C"/>
<path d="M93.2471 129.881C93.0203 129.881 92.8012 129.963 92.6304 130.112C92.5823 130.177 92.5309 130.24 92.4762 130.299C92.2452 130.544 92.0655 130.832 91.9476 131.147C91.9014 131.294 91.8719 131.445 91.8595 131.599C91.8595 131.782 91.8375 131.981 91.7935 132.193C91.7935 132.26 91.7935 132.26 91.6834 132.193C91.5867 132.126 91.5043 132.04 91.4411 131.94C91.2187 131.53 91.1448 131.055 91.2319 130.597C91.309 130.321 91.2979 130.013 91.397 129.727C91.5238 129.408 91.6983 129.111 91.9146 128.846C92.0445 128.671 92.2049 128.522 92.3881 128.405C92.6583 128.243 92.9575 128.134 93.2691 128.086C93.4784 128.001 93.7041 127.963 93.9298 127.976C93.9807 127.965 94.0331 127.965 94.084 127.976C94.2015 128.026 94.3039 128.106 94.3813 128.207C94.3813 128.207 94.3813 128.306 94.2382 128.471C93.9739 128.945 93.8197 129.407 93.6766 129.573C93.5334 129.738 93.4563 129.771 93.2471 129.782V129.881Z" fill="#133D1C"/>
<path d="M378.418 108.715C380.257 113.605 379.64 119.849 377.526 125.366C375.781 130.029 373.236 134.352 370.005 138.14C366.734 141.926 362.805 145.089 358.409 147.478C349.566 152.28 339.394 154.055 329.447 152.533C320.848 151.251 312.88 147.267 306.696 141.157C300.574 135.058 296.332 127.33 294.472 118.89C292.819 111.677 292.932 104.17 294.803 97.0093C296.676 89.8025 300.484 83.2451 305.815 78.0464C311.169 72.9299 317.724 69.2416 324.877 67.3206C332.022 65.4017 339.519 65.198 346.758 66.7259C355.356 68.5075 363.225 72.8178 369.355 79.1036C372.247 82.1387 374.684 85.5772 376.59 89.3118C378.477 93.0659 379.787 97.0827 380.477 101.227C380.748 102.607 380.91 104.006 380.962 105.412C381.09 106.515 380.895 107.632 380.4 108.627C380.092 108.947 379.739 108.495 379.398 107.229C379.186 106.639 379.031 106.031 378.936 105.412C378.68 102.521 377.993 99.6854 376.898 96.9983C375.799 94.2855 374.522 91.648 373.077 89.1026C370.232 83.9272 366.193 79.5061 361.294 76.2074C356.399 72.9276 350.869 70.7139 345.062 69.7102C334.457 67.7523 323.501 69.7087 314.228 75.2163C309.782 77.9531 305.96 81.5934 303.01 85.9016C300.06 90.2097 298.048 95.0896 297.104 100.225C295.494 108.559 296.336 117.181 299.527 125.046C302.967 133.683 309.316 140.846 317.477 145.298C321.532 147.469 325.938 148.908 330.493 149.548C339.029 150.727 347.722 149.367 355.491 145.639C358.802 144.016 361.874 141.945 364.62 139.483C368.789 135.72 372.095 131.099 374.31 125.938C375.267 123.735 376.048 121.459 376.645 119.133C377.599 115.732 378.193 112.24 378.418 108.715Z" fill="#133D1C"/>
<path d="M335.537 91.0189C332.614 89.8218 329.434 89.3897 326.297 89.7635C323.269 90.215 320.109 91.5144 318.534 93.871C317.963 94.7294 317.618 95.7181 317.532 96.7452C317.446 97.8067 317.539 98.875 317.807 99.9057C318.057 100.783 318.484 101.6 319.062 102.306C319.685 103.015 320.432 103.604 321.265 104.046C321.692 104.283 322.138 104.486 322.597 104.652C322.807 104.74 323.148 104.839 323.159 104.85H323.721C324.765 104.807 325.806 104.696 326.837 104.52C328.899 104.184 330.897 103.534 332.762 102.593C333.683 102.123 334.557 101.566 335.371 100.93L335.702 100.677C335.85 100.56 336.009 100.457 336.175 100.368C336.517 100.176 336.89 100.046 337.277 99.9828C338.02 99.8291 338.793 99.9218 339.479 100.247C340.087 100.525 340.606 100.967 340.977 101.524L341.769 102.769C342.279 103.538 342.838 104.274 343.443 104.971C344.012 105.665 344.667 106.283 345.392 106.81C345.985 107.282 346.717 107.541 347.474 107.548L348.311 107.405C348.677 107.368 349.046 107.368 349.412 107.405C350.173 107.436 350.921 107.616 351.614 107.934C352.323 108.26 352.95 108.742 353.449 109.342C353.948 109.942 354.307 110.646 354.5 111.402C354.687 112.12 354.751 112.865 354.687 113.605C354.625 114.385 354.38 115.14 353.971 115.807C353.146 117.066 351.875 117.967 350.414 118.329C349.577 118.56 349.148 118.406 349.126 118.142C349.104 117.878 349.456 117.481 349.929 116.975C350.504 116.413 351.003 115.78 351.416 115.091C351.786 114.349 351.916 113.51 351.791 112.691C351.779 112.31 351.683 111.937 351.509 111.598C351.336 111.259 351.09 110.963 350.788 110.731C350.149 110.281 349.358 110.099 348.586 110.224L348.024 110.312C347.78 110.345 347.531 110.345 347.287 110.312C346.798 110.309 346.312 110.234 345.844 110.092C345.05 109.828 344.306 109.434 343.642 108.925C342.513 108.03 341.512 106.986 340.668 105.819C340.261 105.269 339.886 104.718 339.567 104.145L339.049 103.297L338.917 103.077L338.851 102.967C338.822 102.917 338.789 102.869 338.752 102.824C338.593 102.643 338.373 102.526 338.134 102.496C337.894 102.466 337.652 102.523 337.453 102.659C337.335 102.733 337.221 102.814 337.111 102.901L336.693 103.22C336.418 103.43 336.12 103.617 335.823 103.804C335.243 104.184 334.64 104.526 334.017 104.828C332.791 105.44 331.508 105.927 330.185 106.282C328.614 106.702 327.012 106.997 325.394 107.163L324.172 107.251H323.555C323.249 107.29 322.937 107.263 322.641 107.174L322.267 107.053L321.959 106.953L321.364 106.722C320.957 106.561 320.56 106.377 320.175 106.172C318.558 105.353 317.206 104.093 316.276 102.538C315.388 100.973 314.949 99.1932 315.01 97.3949C315.003 95.4057 315.653 93.4699 316.86 91.8888C318.059 90.3922 319.615 89.222 321.386 88.4861C323.066 87.7369 324.853 87.2575 326.683 87.0655C328.49 86.8974 330.312 86.9678 332.101 87.2747C334.297 87.6302 336.424 88.3327 338.4 89.356C339.393 89.8846 340.334 90.5078 341.208 91.2171C341.34 91.3162 341.373 91.3602 341.428 91.4043L341.604 91.5695L341.769 91.7236C341.835 91.7341 341.902 91.7341 341.968 91.7236L343.19 91.3933C344.762 90.9129 346.367 90.5449 347.991 90.2921C349.689 90.0504 351.416 90.1175 353.09 90.4903C354.853 90.8757 356.417 91.8846 357.495 93.3314C358.012 94.0461 358.413 94.8376 358.684 95.677C358.926 96.4699 359.18 97.2407 359.345 98.0446C359.951 100.512 360.225 103.048 360.16 105.588C360.125 108.206 359.472 110.78 358.255 113.098C357.924 113.594 357.627 114.1 357.275 114.574C356.897 115.042 356.493 115.486 356.063 115.906L354.852 116.864C354.444 117.118 354.059 117.305 353.751 117.492C352.973 117.87 352.141 118.123 351.284 118.241C351.093 118.253 350.902 118.253 350.711 118.241C350.408 118.206 350.113 118.117 349.841 117.977C349.613 117.889 349.398 117.771 349.203 117.624C348.971 117.393 349.203 117.074 349.874 116.743C350.546 116.413 351.493 116.005 352.605 115.334C354.264 114.338 355.57 112.848 356.339 111.072C357.135 109.198 357.554 107.184 357.572 105.147C357.611 103.013 357.382 100.882 356.889 98.8045C356.779 98.2759 356.625 97.7032 356.471 97.2407C356.352 96.7659 356.193 96.3018 355.997 95.8532C355.652 95.0798 355.114 94.4084 354.433 93.904C353.281 93.1661 351.937 92.7831 350.568 92.8028C349.008 92.7844 347.454 92.9921 345.954 93.4195L343.487 94.0913L341.472 94.6198L341.164 94.6969C341.054 94.6969 341.01 94.5868 340.922 94.5538L340.492 94.1573L339.633 93.3865C338.44 92.4136 337.103 91.6333 335.669 91.0739L335.537 91.0189Z" fill="#133D1C"/>
<path d="M323.533 107.394C323.468 107.4 323.401 107.4 323.335 107.394C323.33 107.419 323.33 107.446 323.335 107.471V109.409C323.335 110.51 323.335 111.612 323.423 112.713C323.516 114.876 323.848 117.021 324.414 119.111C324.898 120.732 325.582 122.285 326.452 123.736C326.829 124.372 327.249 124.983 327.707 125.564C327.938 125.839 328.148 126.159 328.401 126.412L329.172 127.172C330.203 128.146 331.447 128.867 332.806 129.275C334.204 129.611 335.664 129.603 337.059 129.25C338.453 128.897 339.741 128.21 340.812 127.249C341.829 126.401 342.72 125.411 343.454 124.309C343.774 123.714 344.17 123.207 344.435 122.558L344.842 121.644C344.993 121.29 345.162 120.944 345.349 120.609C345.67 120.07 346.02 119.548 346.395 119.045L346.956 118.329L347.243 117.966L347.386 117.789C347.386 117.69 347.595 117.679 347.617 117.547C348.675 116.794 349.836 116.197 351.064 115.774C351.492 115.624 351.871 115.362 352.164 115.015C352.456 114.668 352.65 114.25 352.727 113.803C352.87 112.9 353.487 112.878 353.993 113.957C354.152 114.366 354.216 114.805 354.18 115.242C354.143 115.679 354.008 116.102 353.784 116.479C353.467 117.003 353.043 117.453 352.539 117.8C352.081 118.114 351.59 118.376 351.075 118.582C350.464 118.805 349.887 119.109 349.357 119.485L348.74 120.212C348.498 120.509 348.267 120.807 348.058 121.104C347.848 121.38 347.653 121.667 347.474 121.963C347.397 122.106 347.331 122.227 347.287 122.326L347 122.921C346.271 124.524 345.306 126.009 344.137 127.326C342.935 128.688 341.485 129.809 339.864 130.63C338.204 131.482 336.341 131.862 334.48 131.731C331.961 131.56 329.578 130.53 327.729 128.813C325.934 127.189 324.491 125.213 323.489 123.009C322.416 120.655 321.717 118.147 321.419 115.576C321.133 113.069 321.015 110.545 321.067 108.022V105.236C321.992 105.236 323.005 105.103 323.622 105.026C324.238 104.949 324.789 104.883 325.362 104.795C326.529 104.619 327.674 104.377 328.797 104.09C330.976 103.591 333.059 102.739 334.964 101.569C335.427 101.249 335.746 100.941 336.451 100.522C337.107 100.191 337.853 100.083 338.576 100.214C339.296 100.353 339.952 100.72 340.448 101.26C340.816 101.749 341.158 102.256 341.472 102.78C342.374 104.206 343.488 105.488 344.776 106.579C345.351 107.06 346.029 107.403 346.758 107.581C346.915 107.603 347.075 107.603 347.232 107.581C347.388 107.589 347.544 107.57 347.694 107.526L348.399 107.394C348.663 107.377 348.928 107.377 349.192 107.394C350.137 107.378 351.069 107.606 351.901 108.055C352.476 108.349 352.979 108.765 353.374 109.275C353.77 109.785 354.049 110.376 354.191 111.006C354.265 111.328 354.265 111.663 354.191 111.986C354.15 112.224 354.043 112.445 353.883 112.625C353.77 112.791 353.633 112.94 353.476 113.065C352.936 113.363 352.782 112.063 351.813 110.863C351.428 110.429 350.939 110.1 350.392 109.907C349.844 109.714 349.257 109.664 348.685 109.762L348.212 109.85C347.931 109.924 347.643 109.964 347.353 109.971C346.777 109.991 346.202 109.905 345.657 109.718C344.708 109.376 343.834 108.856 343.08 108.187C341.732 107.002 340.557 105.635 339.589 104.123C339.347 103.76 339.116 103.386 338.884 103.022C338.796 102.863 338.671 102.728 338.521 102.626C338.382 102.541 338.226 102.488 338.064 102.471C337.902 102.454 337.739 102.473 337.585 102.527C337.469 102.582 337.358 102.648 337.255 102.725L336.407 103.363C335.84 103.774 335.244 104.142 334.623 104.465C333.438 105.073 332.199 105.571 330.923 105.951C329.683 106.337 328.422 106.65 327.145 106.887C326.507 107.02 325.879 107.119 325.24 107.218L324.282 107.35L323.578 107.438L323.533 107.394Z" fill="#133D1C"/>
<path d="M326.209 93.2652C332.563 95.5447 328.202 96.767 326.506 96.1393C325.725 95.842 324.656 95.6878 324.359 94.7738C323.379 91.7345 333.873 91.9988 333.312 97.0754C332.893 100.897 326.44 101.943 324.425 99.465C323.741 98.4212 323.304 97.2347 323.148 95.9962C322.85 93.7938 323.016 93.7057 325.119 92.5053C330.074 89.6642 335.47 94.3884 340.701 94.8509C345.106 95.2474 349.191 92.7806 352.991 95.864C354.532 97.1084 358.783 94.884 356.713 93.1991C353.09 90.2699 349.621 90.8425 345.205 91.338C339.016 92.0428 333.785 87.5609 327.586 88.0344C323.841 88.3317 318.919 90.2368 318.302 94.4325C317.796 97.9343 319.602 102.449 322.938 103.958C329.546 106.964 344.126 97.8022 335.437 91.316C333.586 90.0983 331.453 89.3776 329.243 89.2233C327.032 89.069 324.82 89.4863 322.817 90.435C320.097 91.8446 317.895 94.8399 320.45 97.4608C322.806 99.8504 328.301 100.533 331.253 99.0576C335.79 96.7891 332.662 91.4372 329.05 90.1377C327.134 89.455 323.434 92.219 326.253 93.2211L326.209 93.2652Z" fill="#133D1C"/>
<path d="M334.413 93.2212C334.985 94.1858 335.787 94.9929 336.749 95.5697C337.71 96.1464 338.8 96.4747 339.92 96.5249C342.992 96.7011 345.712 94.8841 348.729 94.8731C350.432 94.885 352.08 95.4742 353.404 96.5444C354.728 97.6146 355.65 99.1024 356.019 100.765C356.801 103.782 356.019 107.218 352.573 107.978C350.623 108.396 351.086 110.059 353.024 109.64C358.706 108.396 361.151 102.868 358.321 97.7142C357.551 96.3069 356.424 95.1272 355.054 94.294C353.683 93.4608 352.117 93.0034 350.513 92.968C345.811 92.8468 340.856 97.0204 337.42 92.0099C336.792 91.0959 333.709 92.1751 334.469 93.2763L334.413 93.2212Z" fill="#133D1C"/>
<path d="M335.24 96.5029C336.566 97.7577 338.253 98.563 340.063 98.8044C342.133 99.1788 344.82 98.9806 346.042 101.007C346.901 102.438 346.241 104.167 346.979 105.665C347.815 107.361 349.687 107.867 351.46 107.768C355.304 107.625 357.826 104.586 356.757 100.798C355.359 95.8642 349.511 94.0802 345.04 95.1924C342.144 95.9082 342.838 98.419 345.712 97.7032C348.586 96.9874 353.597 101.326 352.077 104.487C351.923 104.74 351.978 104.85 352.242 104.839L351.637 104.134C351.484 103.705 351.391 103.257 351.361 102.802C351.373 101.905 351.273 101.01 351.064 100.137C349.258 95.1153 342.783 97.7032 339.666 94.6308C338.444 93.3974 333.907 95.2034 335.262 96.5359L335.24 96.5029Z" fill="#133D1C"/>
<path d="M335.647 97.8134C338.433 101.646 342.893 103.969 347.65 102.89C349.643 102.428 349.049 100.258 347.066 100.688C343.675 101.469 340.459 98.9917 338.565 96.3819C337.717 95.2806 334.678 96.4589 335.647 97.7914V97.8134Z" fill="#133D1C"/>
<path d="M325.504 104.079C322.201 102.978 319.536 100.577 319.91 96.8883C320.074 95.3248 320.736 93.8553 321.799 92.6972C322.862 91.539 324.269 90.7537 325.813 90.4572C327.31 90.1379 326.914 88.6292 325.405 88.9375C323.488 89.2872 321.719 90.1998 320.323 91.5589C318.926 92.918 317.966 94.6621 317.565 96.569C316.783 101.128 320.064 104.277 324.095 105.599C325.042 105.907 326.914 104.498 325.504 104.079Z" fill="#133D1C"/>
<path d="M337.948 99.0687C339.699 101.954 342.452 107.031 346.152 107.592C348.487 107.945 351.119 107.152 352.76 109.365C353.095 109.906 353.34 110.497 353.486 111.116C353.718 111.733 352.991 112.404 353.839 111.887C352 112.988 353.685 114.827 355.27 113.858C358.178 112.074 356.372 107.978 354.103 106.491C351.835 105.004 348.718 105.995 346.472 104.817C344.225 103.639 342.177 99.8616 340.833 97.6371C340.052 96.3597 337.023 97.6371 337.915 99.0687H337.948Z" fill="#133D1C"/>
<path d="M266.27 156.519C269.038 156.066 271.875 156.32 274.518 157.257C277.361 158.273 279.998 159.791 282.304 161.739C289.996 168.422 295.336 177.403 297.534 187.353C298.697 192.308 298.991 197.428 298.404 202.484C297.869 207.542 296.519 212.481 294.406 217.108C290.81 225.19 284.837 231.985 277.282 236.588C271.852 239.707 265.852 241.703 259.636 242.46C253.42 243.216 247.116 242.718 241.096 240.993C237.475 239.996 234.004 238.514 230.778 236.588C227.511 234.681 224.543 232.302 221.968 229.53C221.352 228.825 220.658 228.175 220.096 227.426L218.378 225.224C217.828 224.453 217.343 223.649 216.837 222.867C216.314 222.084 215.843 221.267 215.427 220.423C214.533 218.774 213.735 217.076 213.037 215.335C212.378 213.579 211.812 211.788 211.342 209.972C210.88 208.157 210.512 206.319 210.24 204.466C210.018 202.605 209.889 200.734 209.855 198.861C209.826 196.986 209.907 195.11 210.097 193.245L210.505 190.459C210.615 189.523 210.901 188.619 211.099 187.694C211.961 184.02 213.348 180.489 215.218 177.211C217.417 173.334 220.228 169.838 223.543 166.859C226.848 163.9 230.556 161.423 234.555 159.503C242.216 155.919 250.527 153.933 258.98 153.667C260.4 153.584 261.823 153.584 263.242 153.667C264.392 153.667 265.515 154.02 266.457 154.68C266.733 155.043 266.215 155.297 264.894 155.451C264.27 155.579 263.636 155.656 263 155.682C261.485 155.663 259.97 155.729 258.463 155.88C257.009 156.101 255.588 156.255 254.179 156.585L252.065 157.026L249.917 157.554C248.464 157.863 246.988 158.325 245.38 158.655C242.45 159.412 239.594 160.429 236.846 161.695C235.447 162.267 234.17 163.06 232.826 163.754L230.932 164.965L229.985 165.582L229.082 166.254L227.342 167.531L225.668 169.029C225.393 169.282 225.107 169.524 224.843 169.778L224.072 170.593C223.565 171.143 223.048 171.694 222.552 172.233C221.595 173.372 220.701 174.563 219.876 175.801L218.654 177.673L217.608 179.634C215.427 183.872 214.007 188.46 213.412 193.19C213.034 196.222 212.975 199.285 213.236 202.33C213.469 205.389 214.038 208.413 214.932 211.349C216.073 215.052 217.714 218.583 219.81 221.843C223.435 227.542 228.524 232.162 234.544 235.223C238.227 237.086 242.164 238.396 246.228 239.11C250.632 239.884 255.127 239.995 259.564 239.441C264.187 238.879 268.685 237.558 272.878 235.531C277.129 233.442 280.947 230.569 284.132 227.063C287.295 223.589 289.879 219.629 291.785 215.335C293.595 211.191 294.779 206.8 295.298 202.308C295.791 198.131 295.665 193.905 294.924 189.765C294.231 186.047 293.1 182.424 291.554 178.973C290.248 176.037 288.643 173.244 286.764 170.637C285.282 168.615 283.616 166.735 281.786 165.02C281.089 164.361 280.354 163.743 279.584 163.17L278.659 162.422L277.822 161.86C276.809 161.177 276.17 160.759 275.961 160.649L274.023 159.547L271.82 158.446C271.061 158.072 270.202 157.796 269.288 157.422C268.374 157.048 267.426 156.86 266.27 156.519Z" fill="#133D1C"/>
<path d="M247.549 197.143C246.205 197.55 244.82 197.812 243.42 197.925C242.724 197.987 242.026 198.006 241.328 197.98C241.192 197.989 241.056 197.989 240.92 197.98H240.843H240.667C240.658 198.068 240.658 198.156 240.667 198.244L240.612 199.808L240.524 203.111C240.51 204.819 240.602 206.525 240.799 208.221C241.026 211.132 242.026 213.93 243.695 216.326C244.114 216.912 244.582 217.461 245.094 217.967C245.358 218.209 245.6 218.484 245.876 218.705L246.735 219.321C247.903 220.103 249.253 220.569 250.655 220.676C251.92 220.709 253.177 220.48 254.349 220.003C255.52 219.525 256.58 218.809 257.46 217.901C258.656 216.751 259.637 215.398 260.357 213.903C261.161 212.428 261.579 210.908 262.504 209.124C262.834 208.54 263.341 208.375 263.451 208.585C263.552 208.944 263.618 209.313 263.649 209.686C263.761 210.351 263.784 211.029 263.715 211.701C263.704 211.824 263.682 211.945 263.649 212.064C263.649 212.064 263.649 212.141 263.649 212.152C263.649 212.163 263.649 212.097 263.649 212.152V212.318C263.649 212.549 263.55 212.78 263.495 213.022C263.383 213.539 263.206 214.038 262.966 214.509C262.13 216.296 260.99 217.925 259.597 219.321C258.176 220.796 256.414 221.897 254.465 222.526C252.461 223.183 250.303 223.202 248.287 222.581C246.345 221.949 244.607 220.808 243.255 219.277C241.675 217.523 240.445 215.482 239.632 213.265C238.864 211.069 238.422 208.772 238.321 206.448C238.233 204.752 238.244 203.067 238.321 201.394L238.497 195.403C239.147 195.513 239.797 195.612 240.425 195.689H241.24H241.79C242.527 195.701 243.263 195.656 243.993 195.557C245.405 195.391 246.79 195.039 248.111 194.511C248.767 194.244 249.407 193.939 250.027 193.597L250.919 193.035C251.239 192.815 251.415 192.661 251.932 192.287L252.45 191.978C252.636 191.907 252.838 191.888 253.034 191.923C253.431 192.016 253.806 192.188 254.135 192.43C254.403 192.62 254.661 192.826 254.906 193.046L255.555 193.63C256.403 194.423 257.207 195.205 258.033 195.954C258.841 196.692 259.702 197.369 260.61 197.98C261.426 198.577 262.381 198.956 263.385 199.081C263.557 199.092 263.73 199.092 263.903 199.081H264.167L264.552 199.015C265.049 198.949 265.553 198.949 266.05 199.015C267.065 199.139 268.026 199.543 268.825 200.182C269.619 200.861 270.191 201.762 270.466 202.77C270.744 203.764 270.775 204.812 270.554 205.82C270.42 206.329 270.184 206.805 269.86 207.219C269.523 207.615 269.112 207.941 268.649 208.177C268.046 208.47 267.41 208.688 266.755 208.827C266.27 208.937 265.907 209.003 265.653 209.047C265.208 209.138 264.747 209.119 264.31 208.992C264.117 208.967 263.926 208.93 263.737 208.882C263.473 208.783 263.495 208.463 263.914 207.979C264.571 207.382 265.359 206.949 266.215 206.712C266.824 206.548 267.398 206.275 267.911 205.909C268.065 205.771 268.186 205.6 268.266 205.41C268.346 205.219 268.382 205.014 268.373 204.807C268.404 204.223 268.314 203.638 268.109 203.089C267.928 202.606 267.605 202.188 267.184 201.889C266.75 201.577 266.241 201.387 265.709 201.339C265.442 201.306 265.172 201.306 264.905 201.339L264.365 201.438C264.071 201.492 263.772 201.517 263.473 201.515C262.409 201.466 261.37 201.176 260.434 200.667C259.629 200.238 258.862 199.741 258.143 199.18C256.899 198.222 255.798 197.176 254.729 196.174C254.201 195.678 253.628 195.183 253.177 194.775L253.001 194.632L252.67 194.885C252.461 195.051 252.23 195.183 252.009 195.326C251.569 195.619 251.114 195.887 250.644 196.13C249.708 196.631 248.727 197.044 247.715 197.363L247.549 197.143Z" fill="#133D1C"/>
<path d="M273.77 187.133C273.36 186.919 272.937 186.731 272.503 186.571L272.173 186.45H272.074H271.875L271.512 186.351C271.039 186.208 270.543 186.087 270.069 185.966L269.86 183.851C269.794 183.554 269.761 183.246 269.673 182.959C269.534 182.399 269.316 181.861 269.023 181.363C268.42 180.377 267.523 179.607 266.458 179.16C263.977 178.237 261.29 178.02 258.694 178.532C258.275 178.599 257.868 178.687 257.472 178.786C257.273 178.786 257.064 178.885 256.888 178.951L256.635 179.039C256.635 179.039 256.536 179.039 256.48 179.039L256.337 178.907L256.04 178.643L255.82 178.709L255.533 178.808C255.446 178.818 255.357 178.818 255.269 178.808C255.016 178.808 254.818 178.863 254.465 178.929L254.157 178.543L253.882 178.312L253.529 178.048C253.287 177.861 253.056 177.729 252.824 177.563L252.098 177.145L251.349 176.793C250.541 176.446 249.673 176.26 248.794 176.242C247.938 176.257 247.099 176.492 246.36 176.925L245.788 177.244L245.259 177.696L244.731 178.136L244.268 178.687C243.937 179.026 243.639 179.394 243.376 179.788L242.275 181.55L241.581 181.649L240.964 181.759L240.182 181.935C239.654 182.067 239.136 182.222 238.63 182.398C237.624 182.731 236.66 183.178 235.756 183.73C234.866 184.234 234.086 184.912 233.464 185.724C232.841 186.535 232.389 187.464 232.133 188.454C232.052 188.869 231.993 189.289 231.956 189.71V191.593L231.23 192.044C230.987 192.188 230.723 192.386 230.613 192.463C230.503 192.54 230.051 192.881 229.776 193.102C229.236 193.55 228.721 194.028 228.234 194.533C227.28 195.519 226.499 196.658 225.922 197.903C225.466 198.911 225.239 200.008 225.258 201.114C225.277 202.221 225.541 203.309 226.032 204.301C227.106 206.395 228.571 208.264 230.349 209.807C231.45 210.82 230.91 211.261 229.446 210.908C228.479 210.658 227.567 210.228 226.759 209.642C225.553 208.82 224.557 207.726 223.851 206.448C222.993 204.954 222.495 203.28 222.398 201.559C222.337 199.816 222.716 198.085 223.499 196.526C224.23 195.061 225.202 193.728 226.373 192.584C226.926 192.018 227.515 191.489 228.135 190.998C228.444 190.756 228.763 190.525 229.082 190.293C229.402 190.062 229.214 190.205 229.247 190.183C229.247 190.183 229.247 190.183 229.247 190.117V189.82C229.247 189.666 229.247 189.501 229.247 189.335C229.335 188.67 229.467 188.012 229.644 187.364C229.838 186.713 230.111 186.088 230.459 185.503C230.618 185.21 230.794 184.927 230.987 184.655L231.615 183.884C232.473 182.934 233.481 182.131 234.599 181.506C235.645 180.907 236.753 180.423 237.903 180.063C238.432 179.898 239.004 179.755 239.522 179.623C239.808 179.623 240.072 179.491 240.359 179.446C240.454 179.44 240.55 179.44 240.645 179.446C240.674 179.412 240.7 179.376 240.722 179.336L240.854 179.138L241.416 178.257C241.812 177.685 242.308 177.156 242.759 176.605C243.792 175.493 245.081 174.65 246.514 174.15C247.999 173.683 249.587 173.66 251.085 174.084C252.49 174.482 253.806 175.148 254.961 176.044L255.346 176.341L255.511 176.473C255.6 176.539 255.655 176.682 255.765 176.572L255.952 176.506C256.062 176.506 256.348 176.385 256.525 176.341C256.943 176.231 257.35 176.143 257.758 176.066C258.574 175.919 259.397 175.816 260.225 175.757C261.902 175.626 263.589 175.738 265.235 176.088C266.973 176.441 268.583 177.26 269.893 178.455C270.535 179.101 271.07 179.845 271.479 180.658C271.855 181.454 272.118 182.299 272.261 183.169C272.292 183.314 272.314 183.461 272.327 183.609C272.316 183.712 272.316 183.815 272.327 183.917L272.635 184.006L273.12 184.182C273.596 184.354 274.063 184.553 274.518 184.776C275.495 185.156 276.423 185.651 277.282 186.252C278.119 186.92 278.815 187.747 279.331 188.686C279.858 189.649 280.146 190.726 280.168 191.824C280.168 192.287 280.091 192.749 280.057 193.212C279.977 193.66 279.863 194.102 279.716 194.533L279.518 195.172L279.243 195.744C279.143 195.965 279.022 196.163 278.956 196.361C279.687 197.091 280.378 197.859 281.027 198.663C281.814 199.621 282.528 200.637 283.163 201.702C283.822 202.78 284.34 203.939 284.705 205.149C285.107 206.412 285.187 207.756 284.936 209.058C284.733 210.018 284.32 210.921 283.725 211.701C283.433 212.094 283.109 212.463 282.755 212.802C282.592 212.967 282.416 213.119 282.227 213.254L281.919 213.507L281.864 213.65L281.786 213.859L281.544 214.454C281.379 214.84 281.203 215.214 281.005 215.555C280.63 216.316 280.207 217.051 279.738 217.758C278.785 219.231 277.541 220.494 276.082 221.469C275.033 222.158 273.838 222.595 272.591 222.746C271.604 222.852 270.606 222.766 269.651 222.493C269.019 222.324 268.414 222.064 267.856 221.722C267.202 221.383 266.697 220.814 266.435 220.125C266.338 219.896 266.267 219.656 266.226 219.41C266.226 219.079 266.634 219.046 267.327 219.266C268.292 219.598 269.273 219.878 270.268 220.103C271.291 220.296 272.346 220.226 273.335 219.898C274.323 219.571 275.212 218.997 275.917 218.231C276.732 217.42 277.443 216.51 278.031 215.522C278.329 215.016 278.615 214.487 278.879 213.948C279.011 213.683 279.132 213.408 279.254 213.133L279.419 212.725C279.54 212.45 279.65 212.131 279.76 211.822L280.718 211.106C280.875 210.99 281.022 210.861 281.159 210.721C281.295 210.6 281.42 210.467 281.533 210.325C281.653 210.192 281.76 210.048 281.852 209.895C282.232 209.324 282.456 208.663 282.502 207.979C282.478 206.332 281.99 204.725 281.093 203.343C280.512 202.342 279.852 201.388 279.121 200.491C278.747 200.039 278.362 199.588 277.965 199.147L277.657 198.828L277.15 198.299C276.71 197.859 276.225 197.429 275.763 197L276.974 194.423C277.172 193.994 277.238 193.564 277.393 193.146C277.461 192.737 277.509 192.326 277.536 191.912C277.516 191.539 277.454 191.17 277.349 190.811C277.028 190.003 276.546 189.27 275.933 188.654C275.319 188.039 274.587 187.555 273.781 187.232L273.77 187.133Z" fill="#133D1C"/>
<path d="M268.131 214.41C271.578 218.815 278.13 212.274 273.285 209.697C272.237 209.225 271.077 209.06 269.939 209.219C268.801 209.379 267.731 209.858 266.854 210.6C264.728 212.472 265.576 215.324 267.096 217.328C270.047 221.215 274.805 220.367 277.481 216.733C280.982 212.009 277.624 205.006 271.413 206.922C269.981 207.373 270.312 208.805 271.787 208.353C277.657 206.536 277.8 216.524 273.186 218.264C270.983 219.057 268.781 216.26 268.219 214.421C267.658 212.582 268.627 210.49 271.005 210.864C271.271 210.925 271.521 211.04 271.741 211.201C271.961 211.362 272.146 211.567 272.284 211.802C272.422 212.037 272.511 212.297 272.545 212.568C272.578 212.838 272.557 213.113 272.481 213.375C272.085 214.333 270.95 214.223 270.334 213.441C269.717 212.659 267.448 213.573 268.131 214.443V214.41Z" fill="#133D1C"/>
<path d="M269.32 197.495C269.541 199.4 274.826 198.156 274.992 196.218C275.443 191.813 267.625 192.76 267.889 197.319C268.109 201.107 274.144 201.647 276.5 199.643C278.13 198.255 279.683 195.766 278.703 193.608C277.862 192.058 276.572 190.799 275.003 189.996C270.466 187.573 262.702 191.549 265.521 197.187C265.929 198.002 267.966 197.374 267.592 196.636C267.196 195.836 267.067 194.93 267.224 194.051C267.38 193.172 267.814 192.366 268.461 191.751C269.108 191.136 269.935 190.744 270.82 190.632C271.706 190.521 272.604 190.695 273.384 191.13C274.672 191.802 276.478 193.245 276.864 194.753C277.723 198.134 273.087 201.085 270.587 198.431C270.327 198.16 270.137 197.83 270.034 197.47C269.93 197.109 269.916 196.729 269.992 196.361C270.686 193.938 273.065 194.952 272.888 196.251C272.8 196.901 271.424 197.121 271.402 196.901C271.303 196.064 269.199 196.559 269.32 197.462V197.495Z" fill="#133D1C"/>
<path d="M253.177 184.369C253.353 185.899 257.428 184.908 257.582 183.411C257.912 180.239 252.076 180.944 252.252 184.259C252.406 187.045 256.844 187.232 258.496 185.789C259.597 184.831 260.632 183.179 259.982 181.693C259.43 180.643 258.564 179.792 257.505 179.259C254.421 177.596 248.695 180.261 250.721 184.215C251.118 185.018 253.155 184.391 252.792 183.653C252.521 183.215 252.403 182.7 252.454 182.188C252.506 181.675 252.724 181.194 253.076 180.819C253.428 180.443 253.894 180.194 254.402 180.109C254.909 180.024 255.431 180.108 255.886 180.349C256.864 180.791 257.647 181.574 258.088 182.552C258.562 184.435 256.194 186.197 254.719 184.677C254.563 184.521 254.449 184.328 254.387 184.117C254.325 183.905 254.318 183.681 254.366 183.466C254.785 182.365 255.622 182.959 255.467 183.521C255.401 183.862 255.467 183.466 255.467 183.62H255.17C255.027 183.62 255.071 183.62 255.28 183.774C255.181 182.937 253.078 183.422 253.199 184.325L253.177 184.369Z" fill="#133D1C"/>
<path d="M268.407 187.078C268.153 186.736 268.352 187.386 267.966 187.419C267.768 187.639 267.691 187.694 267.746 187.573C267.539 187.315 267.403 187.008 267.349 186.681C267.636 184.534 269.552 186.527 269.684 187.221C269.72 187.73 269.589 188.237 269.31 188.664C269.15 189 268.918 189.297 268.63 189.533C268.342 189.769 268.006 189.938 267.645 190.029C267.283 190.119 266.907 190.129 266.542 190.056C266.176 189.984 265.832 189.832 265.532 189.611C265.247 189.469 264.999 189.263 264.808 189.009C264.617 188.755 264.488 188.459 264.431 188.146C264.126 186.902 264.23 185.593 264.729 184.413C264.989 183.875 265.404 183.426 265.92 183.123C266.435 182.82 267.029 182.676 267.627 182.71C268.224 182.744 268.798 182.955 269.275 183.314C269.753 183.674 270.114 184.168 270.312 184.732C270.631 185.569 272.69 184.974 272.382 184.171C271.027 180.559 265.83 180.471 263.473 183.18C262.152 184.699 261.59 187.805 262.702 189.611C263.693 191.218 266.259 191.659 267.966 191.406C268.747 191.229 269.475 190.869 270.089 190.356C270.704 189.843 271.188 189.191 271.501 188.454C273.318 184.413 266.237 182.574 265.334 186.428C265.245 186.813 265.265 187.215 265.393 187.59C265.52 187.964 265.75 188.294 266.056 188.544C266.363 188.794 266.733 188.953 267.125 189.004C267.517 189.054 267.915 188.993 268.274 188.829C268.99 188.575 271.105 187.199 270.367 186.219C269.86 185.547 267.867 186.307 268.451 187.078H268.407Z" fill="#133D1C"/>
<path d="M241.746 188.52C240.645 188.763 241.691 188.873 241.834 189.798C242.109 191.604 238.531 190.073 239.984 188.201L242.957 187.199C243.357 187.302 243.726 187.5 244.033 187.776C244.339 188.052 244.575 188.398 244.719 188.785C244.924 189.505 244.924 190.267 244.719 190.987C244.323 192.716 242.968 195.227 240.909 195.238C239.957 195.134 239.042 194.807 238.239 194.285C237.436 193.763 236.766 193.06 236.284 192.232C234.731 189.6 235.921 184.446 239.775 185.019C240.7 185.151 241.922 183.862 240.535 183.653C239.424 183.519 238.297 183.684 237.271 184.13C236.245 184.577 235.357 185.289 234.698 186.194C234.039 187.098 233.634 188.162 233.523 189.276C233.413 190.39 233.602 191.513 234.071 192.529C235.711 195.888 240.215 197.782 243.508 195.678C247.56 193.101 248.64 185.239 242.176 185.712C240.05 185.878 237.605 187.188 237.694 189.6C237.771 191.703 239.367 192.408 241.262 192.132C242.737 191.912 244.213 191.031 243.926 189.357C243.717 188.135 242.715 186.935 241.394 187.243C240.072 187.551 240.458 188.796 241.735 188.498L241.746 188.52Z" fill="#133D1C"/>
<path d="M233.234 201.515C235.018 202.495 232.518 202.616 232.066 202.363C230.965 201.801 231.747 201.493 232.584 201.096C233.007 200.894 233.479 200.818 233.944 200.879C234.409 200.939 234.847 201.133 235.203 201.438C235.56 201.742 235.821 202.143 235.954 202.593C236.087 203.042 236.087 203.521 235.954 203.971C235.183 207.483 230.073 207.781 228.355 204.951C227.527 203.388 227.204 201.606 227.43 199.852C227.915 196.119 232.639 194.533 234.874 198.024C235.326 198.718 237.319 198.024 236.791 197.154C234.258 193.201 227.441 194.247 225.778 198.509C224.677 201.24 225.338 205.666 228.036 207.252C229.049 207.861 230.196 208.212 231.377 208.275C232.557 208.339 233.735 208.112 234.808 207.616C236.504 206.724 238.321 204.796 238.112 202.759C238.085 202.257 237.954 201.766 237.726 201.318C237.498 200.869 237.179 200.474 236.789 200.156C236.399 199.839 235.947 199.606 235.461 199.474C234.976 199.342 234.469 199.313 233.971 199.39C232.683 199.566 229.633 200.392 229.379 202.021C228.785 205.953 239.731 203.123 234.885 200.403C234.181 200.017 232.309 200.997 233.256 201.504L233.234 201.515Z" fill="#133D1C"/>
<path d="M243.894 189.688C243.541 190.965 245.435 192.485 246.614 192.463C247.39 192.408 248.118 192.064 248.654 191.5C249.19 190.935 249.495 190.191 249.51 189.412C249.091 185.151 242.958 185.745 242.418 189.743C241.79 194.313 248.067 195.315 251.041 193.674C255.864 190.998 254.201 184.864 250.325 182.144C245.667 178.841 240.249 182.882 240.513 188.102C240.513 188.917 242.638 188.465 242.594 187.551C242.506 185.911 243.112 183.554 244.687 182.728C246.261 181.902 248.067 182.662 249.279 183.719C251.228 185.437 252.99 188.785 251.481 191.307C249.708 194.247 244.114 193.267 244.51 189.534C244.709 187.684 246.382 187.595 247.142 189.093C248.343 191.461 245.623 190.844 245.986 189.49C246.228 188.598 244.125 188.873 243.905 189.688H243.894Z" fill="#133D1C"/>
<path d="M262.317 193.795C263.176 193.3 263.418 193.057 262.889 193.057C262.686 193.051 262.485 193.01 262.295 192.936C262.008 192.716 261.645 192.694 261.414 192.375C261.252 192.093 261.178 191.771 261.2 191.447C261.222 191.123 261.34 190.814 261.537 190.557C261.735 190.3 262.005 190.107 262.312 190.004C262.62 189.9 262.951 189.89 263.264 189.974C263.83 190.178 264.337 190.518 264.739 190.965C266.611 192.76 264.85 197.76 262.13 197.76C259.41 197.76 257.449 194.159 257.075 191.912C256.579 188.917 259.277 186.241 261.975 185.999C262.551 185.905 263.141 185.945 263.699 186.115C264.257 186.285 264.768 186.581 265.194 186.98C265.619 187.379 265.948 187.87 266.153 188.416C266.359 188.962 266.437 189.548 266.38 190.128C266.38 191.108 268.428 190.756 268.473 189.93C268.737 184.16 261.865 183.169 258.044 186.032C256.029 187.551 254.432 190.15 255.049 192.727C255.555 194.83 257.075 197.506 259.046 198.53C263.506 200.854 267.063 197.077 267.614 192.837C268.109 188.928 262.03 186.847 259.707 189.963C257.504 192.914 261.909 196.042 264.211 193.85C264.283 193.784 264.338 193.702 264.371 193.609C264.403 193.517 264.413 193.418 264.398 193.322V193.245C264.178 192.386 262.108 192.936 262.317 193.795Z" fill="#133D1C"/>
<path d="M278.384 204.246C275.41 201.702 270.598 204.829 271.853 208.651C273.109 212.472 278.042 211.833 280.52 209.653C283.46 207.076 283.901 202.957 280.388 200.722C278.656 199.647 276.595 199.235 274.583 199.561C272.571 199.886 270.745 200.929 269.442 202.495C270.251 202.658 271.092 202.5 271.787 202.054C273.99 199.136 278.637 200.711 280.167 203.585C280.461 204.219 280.598 204.914 280.565 205.612C280.533 206.31 280.332 206.99 279.98 207.593C279.176 209.344 277.58 211.426 275.52 209.895C275.073 209.521 274.708 209.057 274.45 208.534C274.192 208.01 274.047 207.439 274.023 206.856C273.968 205.545 274.661 203.838 276.126 205.094C276.589 205.49 278.692 204.554 278.328 204.29L278.384 204.246Z" fill="#133D1C"/>
</svg>
