<svg width="393" height="116" viewBox="0 0 393 116" fill="none" xmlns="http://www.w3.org/2000/svg">
<rect x="8" y="8.84863" width="377" height="99" rx="12" fill="#133D1C"/>
<path d="M128.932 48.0006H139.844C142.361 48.0006 144.249 48.5446 145.508 49.6326C146.767 50.7206 147.396 52.2353 147.396 54.1766C147.396 55.2646 147.236 56.1713 146.916 56.8966C146.596 57.6006 146.223 58.1766 145.796 58.6246C145.369 59.0513 144.943 59.3606 144.516 59.5526C144.111 59.7446 143.812 59.8726 143.62 59.9366V60.0006C143.961 60.0433 144.324 60.15 144.708 60.3206C145.113 60.4913 145.487 60.7686 145.828 61.1526C146.169 61.5153 146.447 61.9953 146.66 62.5926C146.895 63.19 147.012 63.9366 147.012 64.8326C147.012 66.1766 147.108 67.4033 147.3 68.5126C147.513 69.6006 147.833 70.3793 148.26 70.8486H143.972C143.673 70.358 143.492 69.814 143.428 69.2166C143.385 68.6193 143.364 68.0433 143.364 67.4886C143.364 66.4433 143.3 65.5473 143.172 64.8006C143.044 64.0326 142.809 63.4033 142.468 62.9126C142.127 62.4006 141.657 62.0273 141.06 61.7926C140.484 61.558 139.737 61.4406 138.82 61.4406H132.932V70.8486H128.932V48.0006ZM132.932 58.4006H139.492C140.772 58.4006 141.743 58.102 142.404 57.5046C143.065 56.886 143.396 55.9686 143.396 54.7526C143.396 54.0273 143.289 53.4406 143.076 52.9926C142.863 52.5233 142.564 52.1606 142.18 51.9046C141.817 51.6486 141.391 51.478 140.9 51.3926C140.431 51.3073 139.94 51.2646 139.428 51.2646H132.932V58.4006ZM162.311 61.1206C162.269 60.5446 162.141 59.99 161.927 59.4566C161.735 58.9233 161.458 58.4646 161.095 58.0806C160.754 57.6753 160.327 57.3553 159.815 57.1206C159.325 56.8646 158.77 56.7366 158.151 56.7366C157.511 56.7366 156.925 56.854 156.391 57.0886C155.879 57.302 155.431 57.6113 155.047 58.0166C154.685 58.4006 154.386 58.8593 154.151 59.3926C153.938 59.926 153.821 60.502 153.799 61.1206H162.311ZM153.799 63.5206C153.799 64.1606 153.885 64.7793 154.055 65.3766C154.247 65.974 154.525 66.4966 154.887 66.9446C155.25 67.3926 155.709 67.7553 156.263 68.0326C156.818 68.2886 157.479 68.4166 158.247 68.4166C159.314 68.4166 160.167 68.1926 160.807 67.7446C161.469 67.2753 161.959 66.582 162.279 65.6646H165.735C165.543 66.5606 165.213 67.3606 164.743 68.0646C164.274 68.7686 163.709 69.366 163.047 69.8566C162.386 70.326 161.639 70.678 160.807 70.9126C159.997 71.1686 159.143 71.2966 158.247 71.2966C156.946 71.2966 155.794 71.0833 154.791 70.6566C153.789 70.23 152.935 69.6326 152.231 68.8646C151.549 68.0966 151.026 67.1793 150.663 66.1126C150.322 65.046 150.151 63.8726 150.151 62.5926C150.151 61.4193 150.333 60.31 150.695 59.2646C151.079 58.198 151.613 57.27 152.295 56.4806C152.999 55.67 153.842 55.03 154.823 54.5606C155.805 54.0913 156.914 53.8566 158.151 53.8566C159.453 53.8566 160.615 54.134 161.639 54.6886C162.685 55.222 163.549 55.9366 164.231 56.8326C164.914 57.7286 165.405 58.7633 165.703 59.9366C166.023 61.0886 166.109 62.2833 165.959 63.5206H153.799ZM184.317 70.8486H180.861V68.6086H180.797C180.306 69.5686 179.591 70.262 178.653 70.6886C177.714 71.094 176.722 71.2966 175.677 71.2966C174.375 71.2966 173.234 71.0726 172.253 70.6246C171.293 70.1553 170.493 69.526 169.853 68.7366C169.213 67.9473 168.733 67.0193 168.413 65.9526C168.093 64.8646 167.933 63.702 167.933 62.4646C167.933 60.9713 168.135 59.6806 168.541 58.5926C168.946 57.5046 169.479 56.6086 170.141 55.9046C170.823 55.2006 171.591 54.6886 172.445 54.3686C173.319 54.0273 174.205 53.8566 175.101 53.8566C175.613 53.8566 176.135 53.91 176.669 54.0166C177.202 54.102 177.714 54.2513 178.205 54.4646C178.695 54.678 179.143 54.9553 179.549 55.2966C179.975 55.6166 180.327 56.0006 180.605 56.4486H180.669V48.0006H184.317V70.8486ZM171.581 62.7526C171.581 63.4566 171.666 64.15 171.837 64.8326C172.029 65.5153 172.306 66.1233 172.669 66.6566C173.053 67.19 173.533 67.6166 174.109 67.9366C174.685 68.2566 175.367 68.4166 176.157 68.4166C176.967 68.4166 177.661 68.246 178.237 67.9046C178.834 67.5633 179.314 67.1153 179.677 66.5606C180.061 66.006 180.338 65.3873 180.509 64.7046C180.701 64.0006 180.797 63.286 180.797 62.5606C180.797 60.726 180.381 59.2966 179.549 58.2726C178.738 57.2486 177.629 56.7366 176.22 56.7366C175.367 56.7366 174.642 56.918 174.045 57.2806C173.469 57.622 172.989 58.0806 172.605 58.6566C172.242 59.2113 171.975 59.8513 171.805 60.5766C171.655 61.2806 171.581 62.006 171.581 62.7526ZM199.655 61.1206C199.612 60.5446 199.484 59.99 199.271 59.4566C199.079 58.9233 198.802 58.4646 198.439 58.0806C198.098 57.6753 197.671 57.3553 197.159 57.1206C196.668 56.8646 196.114 56.7366 195.495 56.7366C194.855 56.7366 194.268 56.854 193.735 57.0886C193.223 57.302 192.775 57.6113 192.391 58.0166C192.028 58.4006 191.73 58.8593 191.495 59.3926C191.282 59.926 191.164 60.502 191.143 61.1206H199.655ZM191.143 63.5206C191.143 64.1606 191.228 64.7793 191.399 65.3766C191.591 65.974 191.868 66.4966 192.231 66.9446C192.594 67.3926 193.052 67.7553 193.607 68.0326C194.162 68.2886 194.823 68.4166 195.591 68.4166C196.658 68.4166 197.511 68.1926 198.151 67.7446C198.812 67.2753 199.303 66.582 199.623 65.6646H203.079C202.887 66.5606 202.556 67.3606 202.087 68.0646C201.618 68.7686 201.052 69.366 200.391 69.8566C199.73 70.326 198.983 70.678 198.151 70.9126C197.34 71.1686 196.487 71.2966 195.591 71.2966C194.29 71.2966 193.138 71.0833 192.135 70.6566C191.132 70.23 190.279 69.6326 189.575 68.8646C188.892 68.0966 188.37 67.1793 188.007 66.1126C187.666 65.046 187.495 63.8726 187.495 62.5926C187.495 61.4193 187.676 60.31 188.039 59.2646C188.423 58.198 188.956 57.27 189.639 56.4806C190.343 55.67 191.186 55.03 192.167 54.5606C193.148 54.0913 194.258 53.8566 195.495 53.8566C196.796 53.8566 197.959 54.134 198.983 54.6886C200.028 55.222 200.892 55.9366 201.575 56.8326C202.258 57.7286 202.748 58.7633 203.047 59.9366C203.367 61.0886 203.452 62.2833 203.303 63.5206H191.143ZM208.828 65.5366C208.935 66.6033 209.34 67.35 210.044 67.7766C210.748 68.2033 211.591 68.4166 212.572 68.4166C212.914 68.4166 213.298 68.3953 213.724 68.3526C214.172 68.2886 214.588 68.182 214.972 68.0326C215.356 67.8833 215.666 67.67 215.9 67.3926C216.156 67.094 216.274 66.71 216.252 66.2406C216.231 65.7713 216.06 65.3873 215.74 65.0886C215.42 64.79 215.004 64.5553 214.492 64.3846C214.002 64.1926 213.436 64.0326 212.796 63.9046C212.156 63.7766 211.506 63.638 210.844 63.4886C210.162 63.3393 209.5 63.158 208.86 62.9446C208.242 62.7313 207.676 62.4433 207.164 62.0806C206.674 61.718 206.279 61.2593 205.98 60.7046C205.682 60.1286 205.532 59.4246 205.532 58.5926C205.532 57.6966 205.746 56.95 206.172 56.3526C206.62 55.734 207.175 55.2433 207.836 54.8806C208.519 54.4966 209.266 54.23 210.076 54.0806C210.908 53.9313 211.698 53.8566 212.444 53.8566C213.298 53.8566 214.108 53.9526 214.876 54.1446C215.666 54.3153 216.37 54.6033 216.988 55.0086C217.628 55.414 218.151 55.9473 218.556 56.6086C218.983 57.2486 219.25 58.0273 219.356 58.9446H215.548C215.378 58.07 214.972 57.4833 214.332 57.1846C213.714 56.886 212.999 56.7366 212.188 56.7366C211.932 56.7366 211.623 56.758 211.26 56.8006C210.919 56.8433 210.588 56.9286 210.268 57.0566C209.97 57.1633 209.714 57.334 209.5 57.5686C209.287 57.782 209.18 58.07 209.18 58.4326C209.18 58.8806 209.33 59.2433 209.628 59.5206C209.948 59.798 210.354 60.0326 210.844 60.2246C211.356 60.3953 211.932 60.5446 212.572 60.6726C213.212 60.8006 213.874 60.9393 214.556 61.0886C215.218 61.238 215.868 61.4193 216.508 61.6326C217.148 61.846 217.714 62.134 218.204 62.4966C218.716 62.8593 219.122 63.318 219.42 63.8726C219.74 64.4273 219.9 65.11 219.9 65.9206C219.9 66.902 219.676 67.734 219.228 68.4166C218.78 69.0993 218.194 69.654 217.468 70.0806C216.764 70.5073 215.975 70.8166 215.1 71.0086C214.226 71.2006 213.362 71.2966 212.508 71.2966C211.463 71.2966 210.492 71.1793 209.596 70.9446C208.722 70.71 207.954 70.358 207.292 69.8886C206.652 69.398 206.14 68.8006 205.756 68.0966C205.394 67.3713 205.202 66.518 205.18 65.5366H208.828ZM222.766 48.0006H226.414V51.4566H222.766V48.0006ZM222.766 54.3046H226.414V70.8486H222.766V54.3046ZM245.685 69.9846C245.685 72.4806 244.981 74.3366 243.573 75.5526C242.186 76.79 240.181 77.4086 237.557 77.4086C236.725 77.4086 235.882 77.3233 235.029 77.1526C234.197 76.982 233.429 76.694 232.725 76.2886C232.042 75.8833 231.466 75.35 230.997 74.6886C230.527 74.0273 230.25 73.2166 230.165 72.2566H233.813C233.919 72.7686 234.101 73.1846 234.357 73.5046C234.613 73.8246 234.911 74.07 235.253 74.2406C235.615 74.4326 236.01 74.55 236.437 74.5926C236.863 74.6566 237.311 74.6886 237.781 74.6886C239.253 74.6886 240.33 74.326 241.013 73.6006C241.695 72.8753 242.037 71.83 242.037 70.4646V67.9366H241.973C241.461 68.854 240.757 69.5686 239.861 70.0806C238.986 70.5926 238.037 70.8486 237.013 70.8486C235.69 70.8486 234.559 70.6246 233.621 70.1766C232.703 69.7073 231.935 69.078 231.317 68.2886C230.719 67.478 230.282 66.55 230.005 65.5046C229.727 64.4593 229.589 63.3393 229.589 62.1446C229.589 61.0353 229.759 59.9793 230.101 58.9766C230.442 57.974 230.933 57.0993 231.573 56.3526C232.213 55.5846 232.991 54.9766 233.909 54.5286C234.847 54.0806 235.903 53.8566 237.077 53.8566C238.122 53.8566 239.082 54.0806 239.957 54.5286C240.831 54.9553 241.503 55.638 241.973 56.5766H242.037V54.3046H245.685V69.9846ZM237.589 67.9686C238.399 67.9686 239.082 67.8086 239.637 67.4886C240.213 67.1473 240.671 66.71 241.013 66.1766C241.375 65.622 241.631 65.0033 241.781 64.3206C241.951 63.6166 242.037 62.9126 242.037 62.2086C242.037 61.5046 241.951 60.822 241.781 60.1606C241.61 59.4993 241.343 58.9126 240.981 58.4006C240.639 57.8886 240.181 57.4833 239.605 57.1846C239.05 56.886 238.378 56.7366 237.589 56.7366C236.778 56.7366 236.095 56.9073 235.541 57.2486C234.986 57.59 234.538 58.038 234.197 58.5926C233.855 59.126 233.61 59.7446 233.461 60.4486C233.311 61.1313 233.237 61.814 233.237 62.4966C233.237 63.1793 233.322 63.8513 233.493 64.5126C233.663 65.1526 233.919 65.7286 234.261 66.2406C234.623 66.7526 235.071 67.1686 235.605 67.4886C236.159 67.8086 236.821 67.9686 237.589 67.9686ZM249.358 54.3046H252.814V56.7366L252.878 56.8006C253.432 55.8833 254.158 55.1686 255.054 54.6566C255.95 54.1233 256.942 53.8566 258.03 53.8566C259.843 53.8566 261.272 54.326 262.318 55.2646C263.363 56.2033 263.885 57.6113 263.885 59.4886V70.8486H260.238V60.4486C260.195 59.1473 259.918 58.2086 259.406 57.6326C258.894 57.0353 258.094 56.7366 257.006 56.7366C256.387 56.7366 255.832 56.854 255.342 57.0886C254.851 57.302 254.435 57.6113 254.094 58.0166C253.752 58.4006 253.486 58.8593 253.294 59.3926C253.102 59.926 253.006 60.4913 253.006 61.0886V70.8486H249.358V54.3046Z" fill="white"/>
<rect x="4" y="4.84863" width="385" height="107" rx="16" stroke="#133D1C" stroke-opacity="0.2" stroke-width="8"/>
</svg>
