<?xml version="1.0" encoding="iso-8859-1"?>
<!-- Generator: Adobe Illustrator 16.0.0, SVG Export Plug-In . SVG Version: 6.00 Build 0)  -->
<!DOCTYPE svg PUBLIC "-//W3C//DTD SVG 1.1//EN" "http://www.w3.org/Graphics/SVG/1.1/DTD/svg11.dtd">
<svg version="1.1" id="Capa_1" xmlns="http://www.w3.org/2000/svg" xmlns:xlink="http://www.w3.org/1999/xlink" x="0px" y="0px"
	 width="567.84px" height="567.84px" viewBox="0 0 567.84 567.84" style="enable-background:new 0 0 567.84 567.84;"
	 xml:space="preserve">
<g>
	<path fill="#133D1C" d="M88.769,482.337l125.364-33.592l68.754,119.09l66.392-114.998l131.857,35.334l-34.109-127.287l120.812-69.748
		l-115.791-66.852l36.375-135.769L358.25,123.399L287.01,0.005l-71.012,123.002L87.306,88.525l34.368,128.252L0,287.005
		l122.199,70.551L88.769,482.337z M369.113,440.091l-14.039-31.184c-21.219,12.449-45.268,19.039-70.111,19.039
		c-36.998,0-71.805-14.383-98.016-40.488l13.502-13.541c1.922,1.914,3.969,3.654,5.996,5.422
		c21.784,19.002,49.324,29.492,78.508,29.492c19.508,0,38.432-4.744,55.473-13.684l-28.305-13.799
		c24.9-1.32,57.441-11.332,81.299-21.842C382.186,383.021,371.188,415.237,369.113,440.091z M407.516,167.196l-28.133,23.533
		c28.219,25.742,44.438,57.279,44.438,102.749h-19.125c0-6.723-0.641-13.186-1.568-19.526
		c-3.711-25.417-14.574-47.603-31.471-65.245l-3.279,18.025l-2.037,11.198c-5.029-14.832-14.162-31.643-24.365-47.077
		c-6.043-9.142-12.461-17.814-18.619-25.302C349.041,170.026,383.025,171.9,407.516,167.196z M116.405,250.552l32.531,10.423
		c8.884-43.423,37.772-79.809,78.594-98.379L235.448,180c-3.749,1.702-7.277,3.701-10.787,5.747
		c-27.798,16.18-47.717,42.505-55.616,73.564l25.771-10.414l3.385-1.367c-2.725,3.366-5.384,7.181-8.004,11.15
		c-12.45,18.876-23.438,43.415-30.179,63.868C150.064,298.46,133.483,268.73,116.405,250.552z"/>
</g>
<g>
</g>
<g>
</g>
<g>
</g>
<g>
</g>
<g>
</g>
<g>
</g>
<g>
</g>
<g>
</g>
<g>
</g>
<g>
</g>
<g>
</g>
<g>
</g>
<g>
</g>
<g>
</g>
<g>
</g>
</svg>
