<svg width="393" height="116" viewBox="0 0 393 116" fill="none" xmlns="http://www.w3.org/2000/svg">
<rect x="8" y="8.84863" width="377" height="99" rx="12" fill="#133D1C"/>
<path d="M128.34 48.0006H132.5L138.228 66.0806H138.292L144.148 48.0006H148.212L140.404 70.8486H135.956L128.34 48.0006ZM159.593 61.1206C159.55 60.5446 159.422 59.99 159.209 59.4566C159.017 58.9233 158.739 58.4646 158.377 58.0806C158.035 57.6753 157.609 57.3553 157.097 57.1206C156.606 56.8646 156.051 56.7366 155.433 56.7366C154.793 56.7366 154.206 56.854 153.673 57.0886C153.161 57.302 152.713 57.6113 152.329 58.0166C151.966 58.4006 151.667 58.8593 151.433 59.3926C151.219 59.926 151.102 60.502 151.081 61.1206H159.593ZM151.081 63.5206C151.081 64.1606 151.166 64.7793 151.337 65.3766C151.529 65.974 151.806 66.4966 152.169 66.9446C152.531 67.3926 152.99 67.7553 153.545 68.0326C154.099 68.2886 154.761 68.4166 155.529 68.4166C156.595 68.4166 157.449 68.1926 158.089 67.7446C158.75 67.2753 159.241 66.582 159.561 65.6646H163.017C162.825 66.5606 162.494 67.3606 162.025 68.0646C161.555 68.7686 160.99 69.366 160.329 69.8566C159.667 70.326 158.921 70.678 158.089 70.9126C157.278 71.1686 156.425 71.2966 155.529 71.2966C154.227 71.2966 153.075 71.0833 152.073 70.6566C151.07 70.23 150.217 69.6326 149.513 68.8646C148.83 68.0966 148.307 67.1793 147.945 66.1126C147.603 65.046 147.433 63.8726 147.433 62.5926C147.433 61.4193 147.614 60.31 147.977 59.2646C148.361 58.198 148.894 57.27 149.577 56.4806C150.281 55.67 151.123 55.03 152.105 54.5606C153.086 54.0913 154.195 53.8566 155.433 53.8566C156.734 53.8566 157.897 54.134 158.921 54.6886C159.966 55.222 160.83 55.9366 161.513 56.8326C162.195 57.7286 162.686 58.7633 162.985 59.9366C163.305 61.0886 163.39 62.2833 163.241 63.5206H151.081ZM166.014 54.3046H169.438V57.5046H169.502C169.608 57.0566 169.811 56.6193 170.11 56.1926C170.43 55.766 170.803 55.382 171.23 55.0406C171.678 54.678 172.168 54.39 172.702 54.1766C173.235 53.9633 173.779 53.8566 174.334 53.8566C174.76 53.8566 175.048 53.8673 175.198 53.8886C175.368 53.91 175.539 53.9313 175.71 53.9526V57.4726C175.454 57.43 175.187 57.398 174.91 57.3766C174.654 57.334 174.398 57.3126 174.142 57.3126C173.523 57.3126 172.936 57.4406 172.382 57.6966C171.848 57.9313 171.379 58.294 170.974 58.7846C170.568 59.254 170.248 59.8406 170.014 60.5446C169.779 61.2486 169.662 62.0593 169.662 62.9766V70.8486H166.014V54.3046ZM180.016 65.5366C180.122 66.6033 180.528 67.35 181.232 67.7766C181.936 68.2033 182.778 68.4166 183.76 68.4166C184.101 68.4166 184.485 68.3953 184.912 68.3526C185.36 68.2886 185.776 68.182 186.16 68.0326C186.544 67.8833 186.853 67.67 187.088 67.3926C187.344 67.094 187.461 66.71 187.44 66.2406C187.418 65.7713 187.248 65.3873 186.928 65.0886C186.608 64.79 186.192 64.5553 185.68 64.3846C185.189 64.1926 184.624 64.0326 183.984 63.9046C183.344 63.7766 182.693 63.638 182.032 63.4886C181.349 63.3393 180.688 63.158 180.048 62.9446C179.429 62.7313 178.864 62.4433 178.352 62.0806C177.861 61.718 177.466 61.2593 177.168 60.7046C176.869 60.1286 176.72 59.4246 176.72 58.5926C176.72 57.6966 176.933 56.95 177.36 56.3526C177.808 55.734 178.362 55.2433 179.024 54.8806C179.706 54.4966 180.453 54.23 181.264 54.0806C182.096 53.9313 182.885 53.8566 183.632 53.8566C184.485 53.8566 185.296 53.9526 186.064 54.1446C186.853 54.3153 187.557 54.6033 188.176 55.0086C188.816 55.414 189.338 55.9473 189.744 56.6086C190.17 57.2486 190.437 58.0273 190.544 58.9446H186.736C186.565 58.07 186.16 57.4833 185.52 57.1846C184.901 56.886 184.186 56.7366 183.376 56.7366C183.12 56.7366 182.81 56.758 182.448 56.8006C182.106 56.8433 181.776 56.9286 181.456 57.0566C181.157 57.1633 180.901 57.334 180.688 57.5686C180.474 57.782 180.368 58.07 180.368 58.4326C180.368 58.8806 180.517 59.2433 180.816 59.5206C181.136 59.798 181.541 60.0326 182.032 60.2246C182.544 60.3953 183.12 60.5446 183.76 60.6726C184.4 60.8006 185.061 60.9393 185.744 61.0886C186.405 61.238 187.056 61.4193 187.696 61.6326C188.336 61.846 188.901 62.134 189.392 62.4966C189.904 62.8593 190.309 63.318 190.608 63.8726C190.928 64.4273 191.088 65.11 191.088 65.9206C191.088 66.902 190.864 67.734 190.416 68.4166C189.968 69.0993 189.381 69.654 188.656 70.0806C187.952 70.5073 187.162 70.8166 186.288 71.0086C185.413 71.2006 184.549 71.2966 183.696 71.2966C182.65 71.2966 181.68 71.1793 180.784 70.9446C179.909 70.71 179.141 70.358 178.48 69.8886C177.84 69.398 177.328 68.8006 176.944 68.0966C176.581 67.3713 176.389 66.518 176.368 65.5366H180.016ZM193.954 48.0006H197.602V51.4566H193.954V48.0006ZM193.954 54.3046H197.602V70.8486H193.954V54.3046ZM209.16 71.2966C207.838 71.2966 206.654 71.0833 205.608 70.6566C204.584 70.2086 203.71 69.6006 202.984 68.8326C202.28 68.0646 201.736 67.1473 201.352 66.0806C200.99 65.014 200.808 63.8406 200.808 62.5606C200.808 61.302 200.99 60.1393 201.352 59.0726C201.736 58.006 202.28 57.0886 202.984 56.3206C203.71 55.5526 204.584 54.9553 205.608 54.5286C206.654 54.0806 207.838 53.8566 209.16 53.8566C210.483 53.8566 211.656 54.0806 212.68 54.5286C213.726 54.9553 214.6 55.5526 215.304 56.3206C216.03 57.0886 216.574 58.006 216.936 59.0726C217.32 60.1393 217.512 61.302 217.512 62.5606C217.512 63.8406 217.32 65.014 216.936 66.0806C216.574 67.1473 216.03 68.0646 215.304 68.8326C214.6 69.6006 213.726 70.2086 212.68 70.6566C211.656 71.0833 210.483 71.2966 209.16 71.2966ZM209.16 68.4166C209.971 68.4166 210.675 68.246 211.272 67.9046C211.87 67.5633 212.36 67.1153 212.744 66.5606C213.128 66.006 213.406 65.3873 213.576 64.7046C213.768 64.0006 213.864 63.286 213.864 62.5606C213.864 61.8566 213.768 61.1526 213.576 60.4486C213.406 59.7446 213.128 59.126 212.744 58.5926C212.36 58.038 211.87 57.59 211.272 57.2486C210.675 56.9073 209.971 56.7366 209.16 56.7366C208.35 56.7366 207.646 56.9073 207.048 57.2486C206.451 57.59 205.96 58.038 205.576 58.5926C205.192 59.126 204.904 59.7446 204.712 60.4486C204.542 61.1526 204.456 61.8566 204.456 62.5606C204.456 63.286 204.542 64.0006 204.712 64.7046C204.904 65.3873 205.192 66.006 205.576 66.5606C205.96 67.1153 206.451 67.5633 207.048 67.9046C207.646 68.246 208.35 68.4166 209.16 68.4166ZM220.545 54.3046H224.001V56.7366L224.065 56.8006C224.62 55.8833 225.345 55.1686 226.241 54.6566C227.137 54.1233 228.129 53.8566 229.217 53.8566C231.03 53.8566 232.46 54.326 233.505 55.2646C234.55 56.2033 235.073 57.6113 235.073 59.4886V70.8486H231.425V60.4486C231.382 59.1473 231.105 58.2086 230.593 57.6326C230.081 57.0353 229.281 56.7366 228.193 56.7366C227.574 56.7366 227.02 56.854 226.529 57.0886C226.038 57.302 225.622 57.6113 225.281 58.0166C224.94 58.4006 224.673 58.8593 224.481 59.3926C224.289 59.926 224.193 60.4913 224.193 61.0886V70.8486H220.545V54.3046ZM247.602 52.1606C248.37 52.1606 249.117 52.0966 249.842 51.9686C250.568 51.8406 251.218 51.6273 251.794 51.3286C252.392 51.03 252.893 50.646 253.298 50.1766C253.725 49.7073 254.002 49.1313 254.13 48.4486H257.106V70.8486H253.106V55.0406H247.602V52.1606Z" fill="white"/>
<rect x="4" y="4.84863" width="385" height="107" rx="16" stroke="#133D1C" stroke-opacity="0.2" stroke-width="8"/>
</svg>
