<svg width="56" height="46" viewBox="0 0 56 46" fill="none" xmlns="http://www.w3.org/2000/svg">
<path d="M11.7504 22.9998H8.00037V10.4998H3.00037V5.49981H18.0004V10.4998H13.0004V17.4873L37.5329 10.9148L36.0829 5.49981H28.0004V0.499815H37.9454C38.505 0.487467 39.0527 0.663321 39.5005 0.999207C39.9484 1.33509 40.2705 1.81157 40.4154 2.35231L44.2979 16.8423L39.4679 18.1348L38.8279 15.7448L11.7504 22.9998ZM10.5004 40.4998C11.8264 40.4998 13.0982 39.973 14.0359 39.0353C14.9736 38.0977 15.5004 36.8259 15.5004 35.4998C15.5004 34.1737 14.9736 32.902 14.0359 31.9643C13.0982 31.0266 11.8264 30.4998 10.5004 30.4998C9.17428 30.4998 7.90251 31.0266 6.96483 31.9643C6.02715 32.902 5.50037 34.1737 5.50037 35.4998C5.50037 36.8259 6.02715 38.0977 6.96483 39.0353C7.90251 39.973 9.17428 40.4998 10.5004 40.4998ZM10.5004 45.4998C7.8482 45.4998 5.30466 44.4462 3.4293 42.5709C1.55393 40.6955 0.500366 38.152 0.500366 35.4998C0.500366 32.8476 1.55393 30.3041 3.4293 28.4287C5.30466 26.5534 7.8482 25.4998 10.5004 25.4998C13.1525 25.4998 15.6961 26.5534 17.5714 28.4287C19.4468 30.3041 20.5004 32.8476 20.5004 35.4998C20.5004 38.152 19.4468 40.6955 17.5714 42.5709C15.6961 44.4462 13.1525 45.4998 10.5004 45.4998ZM43.0004 40.4998C44.9895 40.4998 46.8971 39.7096 48.3037 38.3031C49.7102 36.8966 50.5004 34.9889 50.5004 32.9998C50.5004 31.0107 49.7102 29.103 48.3037 27.6965C46.8971 26.29 44.9895 25.4998 43.0004 25.4998C41.0112 25.4998 39.1036 26.29 37.6971 27.6965C36.2905 29.103 35.5004 31.0107 35.5004 32.9998C35.5004 34.9889 36.2905 36.8966 37.6971 38.3031C39.1036 39.7096 41.0112 40.4998 43.0004 40.4998ZM43.0004 45.4998C39.6852 45.4998 36.5057 44.1829 34.1615 41.8387C31.8173 39.4944 30.5004 36.315 30.5004 32.9998C30.5004 29.6846 31.8173 26.5052 34.1615 24.161C36.5057 21.8168 39.6852 20.4998 43.0004 20.4998C46.3156 20.4998 49.495 21.8168 51.8392 24.161C54.1834 26.5052 55.5004 29.6846 55.5004 32.9998C55.5004 36.315 54.1834 39.4944 51.8392 41.8387C49.495 44.1829 46.3156 45.4998 43.0004 45.4998Z" fill="#133D1C"/>
</svg>
